<?xml version="1.0" encoding="UTF-8" standalone="no"?>
<svg
   viewBox="0 0 64 64"
   version="1.1"
   id="svg3"
   sodipodi:docname="weapon_radiance.svg"
   inkscape:version="1.3.1 (9b9bdc1480, 2023-11-25, custom)"
   xmlns:inkscape="http://www.inkscape.org/namespaces/inkscape"
   xmlns:sodipodi="http://sodipodi.sourceforge.net/DTD/sodipodi-0.dtd"
   xmlns:xlink="http://www.w3.org/1999/xlink"
   xmlns="http://www.w3.org/2000/svg"
   xmlns:svg="http://www.w3.org/2000/svg">
  <defs
     id="defs3">
    <linearGradient
       id="linearGradient6"
       inkscape:collect="always">
      <stop
         style="stop-color:#ffffff;stop-opacity:1;"
         offset="0"
         id="stop7" />
      <stop
         style="stop-color:#ff2a2a;stop-opacity:1;"
         offset="1"
         id="stop6" />
    </linearGradient>
    <inkscape:path-effect
       effect="fillet_chamfer"
       id="path-effect3"
       is_visible="true"
       lpeversion="1"
       nodesatellites_param="F,0,0,1,0,1.7021,0,1 @ F,0,0,1,0,1.7021,0,1 @ F,0,0,1,0,1.7021,0,1 @ F,0,0,1,0,1.7021,0,1"
       radius="2.7021"
       unit="px"
       method="auto"
       mode="F"
       chamfer_steps="1"
       flexible="false"
       use_knot_distance="true"
       apply_no_radius="true"
       apply_with_radius="true"
       only_selected="false"
       hide_knots="false" />
    <linearGradient
       id="gradient0"
       gradientUnits="userSpaceOnUse"
       x1="68"
       y1="5"
       x2="68"
       y2="33">
      <stop
         offset="0"
         stop-color="#ffffff"
         id="stop1" />
      <stop
         offset="1"
         stop-color="#fbfbfb"
         id="stop2" />
    </linearGradient>
    <radialGradient
       inkscape:collect="always"
       xlink:href="#linearGradient6"
       id="radialGradient7"
       cx="32.117168"
       cy="32.067616"
       fx="32.117168"
       fy="32.067616"
       r="30.81122"
       gradientTransform="matrix(0.98679158,-0.00714897,0.00725936,1.0020281,0.1914267,0.16456762)"
       gradientUnits="userSpaceOnUse" />
  </defs>
  <sodipodi:namedview
     id="namedview3"
     pagecolor="#ffffff"
     bordercolor="#666666"
     borderopacity="1.0"
     inkscape:showpageshadow="2"
     inkscape:pageopacity="0.0"
     inkscape:pagecheckerboard="0"
     inkscape:deskcolor="#d1d1d1"
     showgrid="false"
     inkscape:zoom="12.21875"
     inkscape:cx="36.58312"
     inkscape:cy="29.217391"
     inkscape:window-width="1854"
     inkscape:window-height="1010"
     inkscape:window-x="0"
     inkscape:window-y="0"
     inkscape:window-maximized="1"
     inkscape:current-layer="svg3" />
  <path
     style="display:inline;vector-effect:non-scaling-stroke;fill:url(#radialGradient7);fill-opacity:1;stroke:#ffe680;stroke-width:0.984134;stroke-linecap:round;stroke-linejoin:round;-inkscape-stroke:hairline;paint-order:stroke markers fill"
     id="rect3"
     width="61.62244"
     height="61.749039"
     x="1.3059464"
     y="1.1930946"
     ry="0.70206654"
     inkscape:path-effect="#path-effect3"
     sodipodi:type="rect"
     d="M 3.0080464,1.1930946 H 61.226287 a 1.7021,1.7021 45 0 1 1.7021,1.7021 V 61.240033 a 1.7021,1.7021 135 0 1 -1.7021,1.7021 l -58.2182406,0 a 1.7021,1.7021 45 0 1 -1.7021,-1.7021 V 2.8951946 a 1.7021,1.7021 135 0 1 1.7021,-1.7021 z" />
  <path
     style="display:inline;fill:#ffffff;fill-opacity:1;stroke:none;stroke-width:1px;stroke-linecap:butt;stroke-linejoin:miter;stroke-opacity:1"
     d="M 38.263747,26.549552 56.752674,-3.8773477 37.633706,20.744414 40.975384,-7.7567135 32.382353,19.187021 27.026215,0.71451407 23.866688,0.38842711 23.840153,16.966113 -1.2423274,-0.10358054 -8.0473146,2.511509 16.563939,23.319373 -10.295396,35.640025 21.635354,32.609998 -0.81655421,57.881533 32.226982,32.793478 45.884271,51.403453 50.239769,83.116048 39.065857,69.609336 49.754475,77.128196 50.191177,59.059144 C 50.66686,59.737512 65.140473,83.048355 65.756074,73.429028 93.889538,113.48711 56.810209,57.64919 56.764386,54.879795 L 97.320012,61.40633 58.996803,49.45876 94.476343,31.44693 56.494887,44.373858 70.37428,24.427951 50.540601,45.796355 44.668159,44.142263 Z"
     id="path3"
     sodipodi:nodetypes="cccccccccccccccccccccccccccccc" />
  <path
     style="fill:#000000;fill-opacity:1;stroke:#000000;stroke-width:1px;stroke-linecap:butt;stroke-linejoin:miter;stroke-opacity:1"
     d="m 28.237851,32.938939 -16.039322,33.307544 27.713875,4.079924 5.532928,-30.17743 z"
     id="path4"
     sodipodi:nodetypes="ccccc" />
  <g
     id="g2"
     transform="rotate(46.513423,7.9799608,53.439482)"
     style="fill:#ff2a2a">
    <path
       style="display:inline;fill:#ff2a2a;stroke:#000000;stroke-width:4;stroke-linejoin:round"
       d="m 35.832562,41.633371 c 0,0 -7.008206,-8.865824 -6.827422,-9.244776 0.461377,-0.967117 1.403974,-2.845328 1.403974,-5.000753 0,-3 1.095883,-10.094556 -1.409114,-11.387842 -6.423291,-3.316234 -1.34,2 -2,2 -1,0 0.203004,-2.785485 -1.925554,-3.450421 C 18.231346,12.411878 24,17 23,17 22,17 27.438908,13.549703 19.195465,13.184311 12.151401,12.872082 16.99,17 16,17 c -1,0 4.252885,-3.930049 -2.933671,-3.866512 -1.999922,0.01768 -2.669163,1.209585 -1.669163,4.209585 C 12.027166,19.233073 12,25 12,25 L 9.1498928,22.657714 c -1.0925881,-0.897915 -0.8563287,3.25783 -0.8563287,4.89783 6.3873219,9.407528 12.7427609,14.544591 18.3605519,24.501381"
       id="path1"
       sodipodi:nodetypes="csssssssssscssc" />
    <linearGradient
       id="linearGradient4"
       gradientUnits="userSpaceOnUse"
       x1="68"
       y1="5"
       x2="68"
       y2="33">
      <stop
         offset="0"
         stop-color="#ffffff"
         id="stop3" />
      <stop
         offset="1"
         stop-color="#fbfbfb"
         id="stop4" />
    </linearGradient>
    <path
       style="display:inline;fill:#ff2a2a;fill-opacity:1"
       d="m 12,25 -0.69929,0.312486 c -1.291163,0.576971 -1.20295,1.265232 -3.5401054,1.559962 0,2 2.3841154,3.213478 4.0085434,4.316659 C 13.90845,32.641951 15,34 19,34 c 4.53,0 9,-2 9,-2 0,0 2.297822,-2.71751 2.297822,-5.71751 0,-3 2.883907,-9.429659 -1.387452,-11.192807 C 26.072852,13.918402 27.66,18 27,18 c -1,0 1.244086,-3.897126 -1.919769,-4.489669 -4.340418,-0.812896 -1.995925,2.776658 -2.995925,2.776658 -1,0 1.265992,-3.665129 -2.919527,-3.56228 C 13.638229,12.86051 16.99,17 16,17 15,17 16.599533,12.863867 13.658175,13.332228 10.023316,13.911017 9.8625414,14.17041 10.862541,17.17041 11.492541,19.06041 12,25 12,25 Z"
       id="path2"
       sodipodi:nodetypes="cscascsssssssssc" />
  </g>
  <path
     style="fill:#ffffff;fill-opacity:1;stroke:none;stroke-width:1px;stroke-linecap:butt;stroke-linejoin:miter;stroke-opacity:1"
     d="m 33.449808,33.036765 c -3.770409,5.022331 -7.981436,-1.222241 -10.070652,-1.601024 -2.253001,-0.408478 0.117008,-8.261508 0.117008,-8.261508 l 8.298913,1.268862 c 0,0 7.986714,0.159224 1.654731,8.59367 z"
     id="path9"
     sodipodi:nodetypes="scccs" />
</svg>
