<svg xmlns="http://www.w3.org/2000/svg" cursor="default" viewBox="0 0 256 256">
    <defs>
        <linearGradient id="linearGradient924" x1="18.12" x2="21.466" y1="241.29" y2="228.73" gradientTransform="scale(1 -1) rotate(-89.503 -.246 -.024)" gradientUnits="userSpaceOnUse">
            <stop offset="0" stop-color="#917c6f"/>
            <stop offset="1" stop-color="#ac9d93"/>
        </linearGradient>
        <linearGradient id="innoGrad4">
            <stop offset="0" stop-color="#ffb380"/>
            <stop offset="1" stop-color="#fca"/>
        </linearGradient>
    </defs>
    <path fill="#faa" stroke="#000" d="M116.87 70.875c-22.181 11.829-21.464 41.449 5.097 40.635-.094 2.15-.137 3.94-.113 4.832.081 3.049 3.92 5.373 6.19 5.25 2.272-.123 6.11-2.079 6.11-5.25 0-.935-.047-2.712-.134-4.832 26.573.824 27.295-28.805 5.11-40.635 17.661 11.482 15.53 34.19-5.439 34.473-.234-3.496-.55-6.762-.93-8.125-.858-3.09-1.278-6.15-4.675-6.15s-4.086 3.633-4.842 6.15c-.34 1.13-.67 4.49-.926 8.125-20.977-.276-23.112-22.99-5.449-34.473z" paint-order="markers stroke fill"/>
</svg>
