<svg xmlns="http://www.w3.org/2000/svg" xmlns:xlink="http://www.w3.org/1999/xlink" cursor="default" viewBox="0 0 256 256">
    <defs>
        <linearGradient id="linearGradient22">
            <stop offset="0" stop-color="#fea"/>
            <stop offset="1" stop-color="#fff"/>
        </linearGradient>
        <linearGradient id="linearGradient20">
            <stop offset="0" stop-color="#fea"/>
            <stop offset="1" stop-color="#fff"/>
        </linearGradient>
        <linearGradient id="linearGradient924" x1="18.12" x2="21.466" y1="241.29" y2="228.73" gradientTransform="scale(1 -1) rotate(-89.503 -.246 -.024)" gradientUnits="userSpaceOnUse">
            <stop offset="0" stop-color="#917c6f"/>
            <stop offset="1" stop-color="#ac9d93"/>
        </linearGradient>
        <linearGradient id="innoGrad4">
            <stop offset="0" stop-color="#ffb380"/>
            <stop offset="1" stop-color="#fca"/>
        </linearGradient>
        <linearGradient id="linearGradient21" x1="78.657" x2="181.972" y1="155.083" y2="88.879" gradientUnits="userSpaceOnUse" xlink:href="#linearGradient20"/>
        <linearGradient id="linearGradient23" x1="91.722" x2="163.088" y1="159.662" y2="106.884" gradientUnits="userSpaceOnUse" xlink:href="#linearGradient22"/>
    </defs>
    <ellipse cx="128" cy="128" fill="url(#linearGradient21)" stroke="#000" stroke-linecap="round" stroke-linejoin="round" stroke-width=".8" rx="71.628" ry="40.71"/>
    <ellipse cx="128" cy="128" fill="#f55" stroke="#000" stroke-linecap="round" stroke-linejoin="round" stroke-width=".8" rx="67.765" ry="36.829"/>
    <path fill="#faa" stroke="#000" stroke-linecap="round" stroke-linejoin="round" stroke-width=".733" d="M68.103 46.692c.176 3.755-2.756 6.943-6.548 7.121-3.793.178-7.01-2.722-7.186-6.477-.176-3.756 2.756-6.944 6.548-7.122 3.793-.177 7.01 2.723 7.186 6.478zm-9.024 8.43c1.52 3.439-.062 7.47-3.534 9.006-3.472 1.536-7.52-.006-9.04-3.444-1.521-3.438.06-7.47 3.533-9.006 3.473-1.536 7.52.006 9.04 3.445zm-5.37 11.122c2.66 2.656 2.641 6.988-.042 9.674-2.683 2.687-7.014 2.71-9.674.054-2.66-2.656-2.641-6.988.042-9.674 2.683-2.687 7.014-2.71 9.674-.054zm-.99 12.31c3.44 1.516 4.988 5.562 3.457 9.036-1.532 3.474-5.562 5.061-9.002 3.545-3.44-1.516-4.987-5.562-3.456-9.036 1.532-3.474 5.562-5.061 9.002-3.545zm3.525 11.836c3.756.171 6.66 3.385 6.487 7.178-.173 3.792-3.358 6.728-7.113 6.557-3.756-.171-6.66-3.385-6.487-7.178.173-3.792 3.358-6.728 7.113-6.557zm7.562 9.764c3.564-1.197 7.433.75 8.642 4.35 1.208 3.599-.7 7.487-4.264 8.684-3.564 1.197-7.433-.75-8.642-4.35-1.209-3.6.7-7.487 4.264-8.684zm10.579 6.373c2.89-2.404 7.201-1.986 9.629.934 2.427 2.92 2.052 7.234-.84 9.638-2.89 2.403-7.2 1.985-9.628-.934-2.428-2.92-2.052-7.235.839-9.638zm12.166 2.12c1.827-3.285 5.998-4.452 9.316-2.607 3.318 1.846 4.527 6.005 2.7 9.29-1.828 3.286-5.999 4.453-9.317 2.608-3.318-1.846-4.527-6.005-2.7-9.29zm12.11-2.417c.518-3.723 3.985-6.318 7.746-5.796 3.76.522 6.39 3.964 5.873 7.687-.517 3.724-3.985 6.32-7.745 5.797-3.76-.522-6.39-3.964-5.873-7.688zm10.42-6.628c-.863-3.66 1.434-7.332 5.129-8.204 3.695-.871 7.39 1.388 8.254 5.047.863 3.66-1.433 7.332-5.129 8.204-3.695.871-7.39-1.388-8.254-5.047zm7.322-9.946c-2.126-3.1-1.312-7.354 1.819-9.502 3.13-2.147 7.393-1.375 9.52 1.725 2.126 3.1 1.312 7.354-1.82 9.502-3.13 2.147-7.392 1.375-9.519-1.725zm3.235-11.918c-3.103-2.123-3.88-6.384-1.737-9.518 2.144-3.133 6.397-3.953 9.5-1.83 3.102 2.122 3.88 6.383 1.736 9.517-2.143 3.134-6.397 3.953-9.5 1.83zm-1.29-12.283c-3.66-.858-5.924-4.55-5.057-8.247.867-3.696 4.537-5.997 8.197-5.139 3.66.859 5.924 4.551 5.057 8.248-.867 3.696-4.537 5.997-8.197 5.138zm-5.639-10.987c-3.723.522-7.168-2.103-7.695-5.863-.527-3.76 2.064-7.231 5.787-7.753 3.723-.522 7.168 2.104 7.695 5.864.527 3.76-2.064 7.23-5.787 7.752zm-9.227-8.208c-3.283 1.832-7.444.628-9.294-2.687-1.85-3.316-.687-7.489 2.596-9.32 3.283-1.831 7.444-.628 9.293 2.688 1.85 3.315.688 7.488-2.595 9.32zm-11.57-4.32c-2.4 2.894-6.714 3.275-9.636.851-2.923-2.424-3.347-6.734-.947-9.628s6.714-3.275 9.637-.851 3.346 6.734.946 9.628zm-12.348.15c-1.193 3.566-5.078 5.48-8.68 4.275-3.6-1.204-5.552-5.07-4.36-8.636 1.193-3.565 5.078-5.479 8.68-4.274 3.6 1.204 5.552 5.07 4.36 8.636z" transform="matrix(1.503 0 0 .79264 -1.528 68.738)"/>
    <ellipse cx="128" cy="128" fill="#faa" stroke="#000" stroke-linecap="round" stroke-linejoin="round" stroke-width=".8" rx="44.522" ry="23.079"/>
    <ellipse cx="128" cy="128" fill="#fca" stroke="#000" stroke-linecap="round" stroke-linejoin="round" stroke-width=".8" rx="40.593" ry="19.151"/>
    <path fill="url(#linearGradient23)" stroke="#000" stroke-linecap="round" stroke-linejoin="round" d="M116.38 115.662c2.048 3.502 3.65 9.95 7.966 8.576 3.725-3.165-4.21-7.014-7.965-8.576zm19.966.392c-3.756 1.415-11.69 4.95-7.965 8.262 4.315 1.544 5.918-4.84 7.965-8.262zm-25.37 2.237l-18.986 8.84 19.64 10.476v-4.256l-12.439-5.566 12.44-5.565-.655-3.93zm30.774 0l-.654 3.93 12.439 5.564-12.44 5.566v4.256l19.641-10.477-18.986-8.84zm-23.008 7.105c-2.946-.166-7.281 1.587-9.73 2.717 4.41 1.05 11.04 4.715 12.824.203-.06-2.03-1.326-2.82-3.094-2.92zm15.242 0c-1.767.1-3.034.89-3.093 2.92 1.783 4.512 8.414.846 12.824-.203-2.45-1.13-6.785-2.883-9.73-2.717zm-4.3 5.951a3.74 3.74 0 00-1.133.235c-3.57 3.311 4.53 6.846 8.351 8.261-2-3.101-3.75-8.635-7.219-8.496zm-6.317.123c-3.475-.002-4.704 5.592-6.41 8.766 3.682-1.563 11.436-5.411 7.562-8.576a3.846 3.846 0 00-1.152-.19z" transform="translate(1.637 .051)"/>
</svg>
