<svg xmlns="http://www.w3.org/2000/svg" cursor="default" viewBox="0 0 256 256">
    <defs>
        <linearGradient id="linearGradient924" x1="18.12" x2="21.466" y1="241.29" y2="228.73" gradientTransform="scale(1 -1) rotate(-89.503 -.246 -.024)" gradientUnits="userSpaceOnUse">
            <stop offset="0" stop-color="#917c6f"/>
            <stop offset="1" stop-color="#ac9d93"/>
        </linearGradient>
        <linearGradient id="innoGrad4">
            <stop offset="0" stop-color="#ffb380"/>
            <stop offset="1" stop-color="#fca"/>
        </linearGradient>
    </defs>
    <circle cx="128" cy="128" r="17.6" fill="#faa" stroke="#000" stroke-linecap="round" stroke-linejoin="round" stroke-width=".8"/>
    <path fill="#fca" stroke="#000" stroke-width="1.873" d="M80.61 81.713c-24.938 18.478-32.023-14.975-29.95-38.36 28.192.653 54.698 20.022 29.95 38.36zm-12.502 25.782c-4.567 30.699-33.232 12.054-48.301-5.947 20.396-19.474 52.834-24.52 48.301 5.947zm9.39 27.07c18.479 24.937-14.974 32.022-38.359 29.949.653-28.192 20.022-54.699 38.36-29.95zm25.782 12.5c30.7 4.568 12.055 33.232-5.947 48.302-19.473-20.396-24.52-52.835 5.947-48.302zm27.07-9.39c24.937-18.478 32.022 14.975 29.95 38.36-28.193-.653-54.7-20.022-29.95-38.36zm12.501-25.782c4.568-30.699 33.232-12.054 48.302 5.947-20.396 19.474-52.835 24.52-48.302-5.947zm-9.39-27.07c-18.478-24.937 14.974-32.022 38.359-29.949-.653 28.192-20.021 54.699-38.36 29.95zm-25.782-12.5c-30.7-4.568-12.054-33.233 5.947-48.302 19.473 20.396 24.52 52.835-5.947 48.302z" transform="matrix(.53425 0 0 .53382 71.91 69.79)"/>
</svg>
