<?xml version="1.0" encoding="UTF-8" standalone="no"?>
<svg
   cursor="default"
   version="1.1"
   viewBox="0 0 256 256"
   id="svg34"
   sodipodi:docname="bindi_oval.svg"
   inkscape:version="1.4.1-rc (d9e8dc1fe0, 2025-03-10)"
   width="100%"
   height="100%"
   xmlns:inkscape="http://www.inkscape.org/namespaces/inkscape"
   xmlns:sodipodi="http://sodipodi.sourceforge.net/DTD/sodipodi-0.dtd"
   xmlns:xlink="http://www.w3.org/1999/xlink"
   xmlns="http://www.w3.org/2000/svg"
   xmlns:svg="http://www.w3.org/2000/svg">
  <sodipodi:namedview
     id="namedview34"
     pagecolor="#ffffff"
     bordercolor="#666666"
     borderopacity="1.0"
     inkscape:showpageshadow="2"
     inkscape:pageopacity="0.0"
     inkscape:pagecheckerboard="0"
     inkscape:deskcolor="#d1d1d1"
     inkscape:zoom="4.3199805"
     inkscape:cx="133.56542"
     inkscape:cy="125.92649"
     inkscape:window-width="1854"
     inkscape:window-height="1010"
     inkscape:window-x="0"
     inkscape:window-y="0"
     inkscape:window-maximized="1"
     inkscape:current-layer="svg34"
     showgrid="false" />
  <defs
     id="defs18">
    <linearGradient
       id="linearGradient22"
       inkscape:collect="always">
      <stop
         style="stop-color:#ffeeaa;stop-opacity:1;"
         offset="0"
         id="stop22" />
      <stop
         style="stop-color:#ffffff;stop-opacity:1;"
         offset="1"
         id="stop23" />
    </linearGradient>
    <linearGradient
       id="linearGradient20"
       inkscape:collect="always">
      <stop
         style="stop-color:#ffeeaa;stop-opacity:1;"
         offset="0"
         id="stop20" />
      <stop
         style="stop-color:#ffffff;stop-opacity:1;"
         offset="1"
         id="stop21" />
    </linearGradient>
    <inkscape:path-effect
       effect="mirror_symmetry"
       start_point="40.16886,231.36365"
       end_point="215.91396,26.310289"
       center_point="128.04141,128.83697"
       id="path-effect9"
       is_visible="true"
       lpeversion="1.2"
       lpesatellites=""
       mode="horizontal"
       discard_orig_path="false"
       fuse_paths="false"
       oposite_fuse="false"
       split_items="false"
       split_open="false"
       link_styles="false" />
    <inkscape:path-effect
       effect="mirror_symmetry"
       start_point="18.234551,30.559801"
       end_point="237.84827,227.11414"
       center_point="128.04141,128.83697"
       id="path-effect8"
       is_visible="true"
       lpeversion="1.2"
       lpesatellites=""
       mode="vertical"
       discard_orig_path="false"
       fuse_paths="false"
       oposite_fuse="false"
       split_items="false"
       split_open="false"
       link_styles="false" />
    <inkscape:path-effect
       effect="mirror_symmetry"
       start_point="128,-0.76521156"
       end_point="128,255.23479"
       center_point="128,127.23479"
       id="path-effect6"
       is_visible="true"
       lpeversion="1.2"
       lpesatellites=""
       mode="vertical"
       discard_orig_path="false"
       fuse_paths="false"
       oposite_fuse="false"
       split_items="false"
       split_open="false"
       link_styles="false" />
    <inkscape:path-effect
       effect="mirror_symmetry"
       start_point="126.36317,-0.05127512"
       end_point="126.36317,255.94872"
       center_point="126.36317,127.94872"
       id="path-effect5"
       is_visible="true"
       lpeversion="1.2"
       lpesatellites=""
       mode="vertical"
       discard_orig_path="false"
       fuse_paths="false"
       oposite_fuse="false"
       split_items="false"
       split_open="false"
       link_styles="false" />
    <inkscape:path-effect
       effect="copy_rotate"
       starting_point="125.65461,73.193497"
       origin="86.140895,75.045358"
       id="path-effect4"
       is_visible="true"
       lpeversion="1.2"
       lpesatellites=""
       method="normal"
       num_copies="17"
       starting_angle="2.6832769"
       rotation_angle="40"
       gap="-0.01"
       copies_to_360="true"
       mirror_copies="false"
       split_items="false"
       link_styles="false" />
    <inkscape:path-effect
       effect="copy_rotate"
       starting_point="122.92483,111.00337"
       origin="105.47966,109.69391"
       id="path-effect3"
       is_visible="true"
       lpeversion="1.2"
       lpesatellites=""
       method="normal"
       num_copies="8"
       starting_angle="-4.2926552"
       rotation_angle="45"
       gap="-0.01"
       copies_to_360="true"
       mirror_copies="false"
       split_items="false"
       link_styles="false" />
    <inkscape:path-effect
       effect="curvestitching"
       id="path-effect2"
       is_visible="true"
       lpeversion="1"
       count="5"
       startpoint_edge_variation="0;1"
       startpoint_spacing_variation="0;1"
       endpoint_edge_variation="0;1"
       endpoint_spacing_variation="0;1"
       strokepath="M 0,0 H 1"
       prop_scale="1"
       scale_y_rel="false" />
    <inkscape:path-effect
       effect="rough_hatches"
       id="path-effect27"
       is_visible="true"
       lpeversion="1.2"
       direction="130.23338,84.722658 , 44.619617,0"
       dist_rdm="0;1"
       growth="0"
       do_bend="true"
       bender="130.23338,89.722658 , 5,0"
       bottom_edge_variation="0;1"
       top_edge_variation="0;1"
       bottom_tgt_variation="0;1"
       top_tgt_variation="0;1"
       scale_bf="1"
       scale_bb="1"
       scale_tf="1"
       scale_tb="1"
       top_smth_variation="0;1"
       bottom_smth_variation="0;1"
       fat_output="true"
       stroke_width_top="1"
       stroke_width_bottom="1"
       front_thickness="1"
       back_thickness="0.25" />
    <inkscape:path-effect
       effect="rough_hatches"
       id="path-effect25"
       is_visible="true"
       lpeversion="1.2"
       direction="130.33594,169.64062 , 44.499022,0"
       dist_rdm="0;1"
       growth="0"
       do_bend="true"
       bender="130.33594,174.64062 , 5,0"
       bottom_edge_variation="0;1"
       top_edge_variation="0;1"
       bottom_tgt_variation="0;1"
       top_tgt_variation="0;1"
       scale_bf="0"
       scale_bb="0"
       scale_tf="0.3"
       scale_tb="1.2"
       top_smth_variation="0;1"
       bottom_smth_variation="0;1"
       fat_output="true"
       stroke_width_top="1"
       stroke_width_bottom="1"
       front_thickness="1"
       back_thickness="0.25" />
    <inkscape:path-effect
       effect="rough_hatches"
       id="path-effect22"
       is_visible="true"
       lpeversion="1.2"
       direction="130.23338,125.46803 , 44.619244,0"
       dist_rdm="0;1"
       growth="0"
       do_bend="true"
       bender="130.23338,130.46803 , 5,0"
       bottom_edge_variation="0;1"
       top_edge_variation="0;1"
       bottom_tgt_variation="0;1"
       top_tgt_variation="0;1"
       scale_bf="0"
       scale_bb="0"
       scale_tf="0"
       scale_tb="0"
       top_smth_variation="0;1"
       bottom_smth_variation="0;1"
       fat_output="true"
       stroke_width_top="0"
       stroke_width_bottom="0"
       front_thickness="0"
       back_thickness="0" />
    <linearGradient
       id="linearGradient924"
       x1="18.120001"
       x2="21.466"
       y1="241.28999"
       y2="228.73"
       gradientTransform="matrix(0.0086692,0.99996,0.99996,-0.0086692,-0.22047,0.26984)"
       gradientUnits="userSpaceOnUse">
      <stop
         stop-color="#917c6f"
         offset="0"
         id="stop1" />
      <stop
         stop-color="#ac9d93"
         offset="1"
         id="stop2" />
    </linearGradient>
    <linearGradient
       id="innoGrad4">
      <stop
         stop-color="#ffb380"
         offset="0"
         id="stop3" />
      <stop
         stop-color="#fca"
         offset="1"
         id="stop4" />
    </linearGradient>
    <linearGradient
       id="innoGrad5"
       x1="149.74001"
       x2="147.34"
       y1="110.12"
       y2="107.69"
       gradientTransform="matrix(0.0086692,0.99996,0.99996,-0.0086692,-0.22047,0.26984)"
       gradientUnits="userSpaceOnUse">
      <stop
         stop-color="#916f6f"
         offset="0"
         id="stop5" />
      <stop
         stop-color="#ac9393"
         offset="1"
         id="stop6" />
    </linearGradient>
    <linearGradient
       id="linearGradient1284"
       x1="30"
       x2="30.714001"
       y1="226.17999"
       y2="225.42"
       gradientTransform="matrix(0.0086692,0.99996,0.99996,-0.0086692,-0.22047,0.26984)"
       gradientUnits="userSpaceOnUse"
       xlink:href="#innoGrad4" />
    <linearGradient
       id="linearGradient1292"
       x1="37.633999"
       x2="38.214001"
       y1="219.17"
       y2="218.59"
       gradientTransform="matrix(0.0086692,0.99996,0.99996,-0.0086692,-0.22047,0.26984)"
       gradientUnits="userSpaceOnUse"
       xlink:href="#innoGrad4" />
    <linearGradient
       id="linearGradient1306"
       x1="40.044998"
       x2="40.938"
       y1="216.75999"
       y2="215.78"
       gradientTransform="matrix(0.0086692,0.99996,0.99996,-0.0086692,-0.22047,0.26984)"
       gradientUnits="userSpaceOnUse"
       xlink:href="#innoGrad4" />
    <linearGradient
       id="linearGradient1314"
       x1="42.455002"
       x2="43.348"
       y1="214.21001"
       y2="213.32001"
       gradientTransform="matrix(0.0086692,0.99996,0.99996,-0.0086692,-0.22047,0.26984)"
       gradientUnits="userSpaceOnUse"
       xlink:href="#innoGrad4" />
    <linearGradient
       id="linearGradient1322"
       x1="50.580002"
       x2="51.070999"
       y1="206.49001"
       y2="206.03999"
       gradientTransform="matrix(0.0086692,0.99996,0.99996,-0.0086692,-0.22047,0.26984)"
       gradientUnits="userSpaceOnUse"
       xlink:href="#innoGrad4" />
    <linearGradient
       id="innoGrad3"
       x1="27.009001"
       x2="54.820999"
       y1="229.57001"
       y2="202.83"
       gradientTransform="matrix(0.0086692,0.99996,0.99996,-0.0086692,-0.22047,0.26984)"
       gradientUnits="userSpaceOnUse">
      <stop
         stop-color="#f95"
         offset="0"
         id="stop7" />
      <stop
         stop-color="#ff7f2a"
         offset=".088"
         id="stop8" />
      <stop
         stop-color="#f95"
         offset=".265"
         id="stop9" />
      <stop
         stop-color="#ff7f2a"
         offset=".446"
         id="stop10" />
      <stop
         stop-color="#ff7f2a"
         offset=".601"
         id="stop11" />
      <stop
         stop-color="#f95"
         offset=".733"
         id="stop12" />
      <stop
         stop-color="#ff7f2a"
         offset=".863"
         id="stop13" />
      <stop
         stop-color="#f95"
         offset="1"
         id="stop14" />
    </linearGradient>
    <linearGradient
       id="linearGradient903"
       x1="200.10001"
       x2="191.22"
       y1="65.966003"
       y2="57.050999"
       gradientUnits="userSpaceOnUse">
      <stop
         stop-color="#916f6f"
         offset="0"
         id="stop15" />
      <stop
         stop-color="#ac9393"
         offset="1"
         id="stop16" />
    </linearGradient>
    <linearGradient
       id="linearGradient943"
       x1="185.92999"
       x2="178.95"
       y1="77.051003"
       y2="70.746002"
       gradientUnits="userSpaceOnUse"
       xlink:href="#linearGradient924" />
    <linearGradient
       id="linearGradient951"
       x1="181.92999"
       x2="175.36"
       y1="82.508003"
       y2="76.271004"
       gradientUnits="userSpaceOnUse"
       xlink:href="#linearGradient924" />
    <linearGradient
       id="linearGradient938"
       x1="18.120001"
       x2="21.466"
       y1="241.28999"
       y2="228.73"
       gradientTransform="matrix(0.0086692,0.99996,0.99996,-0.0086692,-0.22047,0.26984)"
       gradientUnits="userSpaceOnUse">
      <stop
         stop-color="#fd5"
         offset="0"
         id="stop17" />
      <stop
         stop-color="#fea"
         offset="1"
         id="stop18" />
    </linearGradient>
    <linearGradient
       inkscape:collect="always"
       xlink:href="#linearGradient20"
       id="linearGradient21"
       x1="78.65715"
       y1="155.08345"
       x2="181.9725"
       y2="88.879456"
       gradientUnits="userSpaceOnUse" />
    <linearGradient
       inkscape:collect="always"
       xlink:href="#linearGradient22"
       id="linearGradient23"
       x1="91.721672"
       y1="159.66183"
       x2="163.08801"
       y2="106.88382"
       gradientUnits="userSpaceOnUse" />
  </defs>
  <ellipse
     style="fill:url(#linearGradient21);stroke:#000000;stroke-width:0.8;stroke-linecap:round;stroke-linejoin:round"
     id="ellipse9"
     cx="128"
     cy="128"
     rx="71.628136"
     ry="40.709976" />
  <ellipse
     style="fill:#ff5555;stroke:#000000;stroke-width:0.8;stroke-linecap:round;stroke-linejoin:round"
     id="path4"
     cx="128"
     cy="128"
     rx="67.764702"
     ry="36.828648" />
  <path
     style="fill:#ffaaaa;stroke:#000000;stroke-width:0.732944;stroke-linecap:round;stroke-linejoin:round"
     id="path3"
     inkscape:path-effect="#path-effect4"
     sodipodi:type="arc"
     sodipodi:cx="62.575623"
     sodipodi:cy="45.878559"
     sodipodi:rx="6.8746805"
     sodipodi:ry="6.8068805"
     d="m 68.103162,46.691907 c 0.175993,3.755214 -2.755861,6.943508 -6.548479,7.121254 -3.792619,0.177746 -7.009814,-2.722365 -7.185807,-6.47758 -0.175993,-3.755214 2.755861,-6.943508 6.54848,-7.121254 3.792618,-0.177746 7.009813,2.722365 7.185806,6.47758 z m -9.0244,8.430626 c 1.520648,3.438057 -0.06148,7.470161 -3.533781,9.005956 -3.472302,1.535794 -7.519889,-0.0063 -9.040537,-3.444351 -1.520649,-3.438057 0.06148,-7.470161 3.533781,-9.005956 3.472302,-1.535795 7.519889,0.0063 9.040537,3.444351 z m -5.369509,11.121314 c 2.659932,2.656571 2.641205,6.987926 -0.04183,9.674352 -2.683032,2.686427 -7.01436,2.710629 -9.674292,0.05406 -2.659932,-2.656572 -2.641206,-6.987927 0.04183,-9.674353 2.683032,-2.686427 7.01436,-2.710629 9.674292,-0.05406 z m -0.989436,12.310006 c 3.439977,1.516301 4.987181,5.561934 3.455777,9.036175 -1.531404,3.474241 -5.561504,5.061465 -9.001481,3.545165 -3.439977,-1.516301 -4.987181,-5.561934 -3.455778,-9.036175 1.531404,-3.474241 5.561505,-5.061465 9.001482,-3.545165 z m 3.524265,11.836166 c 3.755434,0.171245 6.659611,3.384771 6.48666,7.177611 -0.172951,3.79284 -3.357537,6.72872 -7.112971,6.55748 -3.755434,-0.17125 -6.65961,-3.38477 -6.486659,-7.177614 0.172951,-3.79284 3.357536,-6.728723 7.11297,-6.557477 z m 7.561996,9.763781 c 3.563699,-1.196935 7.432622,0.75048 8.641482,4.34967 1.20886,3.5992 -0.700114,7.48723 -4.263813,8.68417 -3.563699,1.19694 -7.432622,-0.75048 -8.641482,-4.34967 -1.20886,-3.5992 0.700114,-7.48723 4.263813,-8.68417 z m 10.578437,6.37275 c 2.890666,-2.40347 7.201817,-1.98517 9.629224,0.93429 2.427408,2.91946 2.051862,7.23454 -0.838804,9.63801 -2.890666,2.40347 -7.201817,1.98517 -9.629225,-0.93429 -2.427407,-2.91946 -2.051862,-7.23454 0.838805,-9.63801 z m 12.166201,2.12104 c 1.827233,-3.2854 5.998367,-4.45272 9.316487,-2.60728 3.31812,1.84543 4.526727,6.00479 2.699489,9.29019 -1.827233,3.28539 -5.998367,4.45271 -9.316487,2.60728 -3.31812,-1.84543 -4.526723,-6.00479 -2.699489,-9.29019 z m 12.110852,-2.41713 c 0.517023,-3.72361 3.984802,-6.318891 7.745502,-5.79672 3.76071,0.52217 6.39023,3.96406 5.87321,7.68768 -0.51703,3.72361 -3.98481,6.31889 -7.74551,5.79672 -3.7607,-0.52217 -6.390224,-3.96406 -5.873202,-7.68768 z m 10.419862,-6.628847 c -0.86301,-3.658936 1.43308,-7.33167 5.12846,-8.203281 3.69538,-0.871612 7.39069,1.387962 8.2537,5.046898 0.86302,3.65894 -1.43307,7.33167 -5.12845,8.20328 -3.69538,0.87161 -7.39069,-1.38796 -8.25371,-5.046897 z m 7.32162,-9.945307 c -2.12649,-3.1001 -1.3122,-7.354265 1.81878,-9.501943 3.13097,-2.147679 7.393,-1.37559 9.5195,1.724509 2.1265,3.1001 1.3122,7.354264 -1.81877,9.501943 -3.13098,2.147679 -7.39301,1.37559 -9.51951,-1.724509 z m 3.23455,-11.918598 c -3.10278,-2.122576 -3.88026,-6.383623 -1.73654,-9.517314 2.14372,-3.133691 6.39685,-3.95336 9.49963,-1.830783 3.10279,2.122577 3.88027,6.383623 1.73655,9.517314 -2.14372,3.133691 -6.39685,3.95336 -9.49964,1.830783 z m -1.28937,-12.282214 c -3.66002,-0.858388 -5.92427,-4.550839 -5.05733,-8.247319 0.86694,-3.69648 4.53677,-5.997208 8.19679,-5.138819 3.66003,0.858389 5.92427,4.550839 5.05733,8.247319 -0.86694,3.69648 -4.53676,5.997208 -8.19679,5.138819 z m -5.63915,-10.987049 c -3.72295,0.521729 -7.16816,-2.10344 -7.69509,-5.863479 -0.52693,-3.760039 2.06397,-7.231099 5.78692,-7.752829 3.72296,-0.521729 7.16817,2.103439 7.6951,5.863479 0.52693,3.760039 -2.06397,7.231099 -5.78693,7.752829 z m -9.22733,-8.208024 c -3.28308,1.831385 -7.443963,0.628042 -9.29359,-2.687742 -1.849627,-3.315785 -0.687581,-7.488391 2.595502,-9.319776 3.283088,-1.831386 7.443968,-0.628043 9.293598,2.687742 1.84962,3.315785 0.68758,7.48839 -2.59551,9.319776 z M 91.912446,41.939963 c -2.399811,2.893702 -6.714417,3.274703 -9.636943,0.850988 -2.922525,-2.423715 -3.346269,-6.734333 -0.946457,-9.628036 2.399811,-2.893702 6.714417,-3.274703 9.636943,-0.850988 2.922525,2.423714 3.346269,6.734333 0.946457,9.628036 z m -12.348788,0.150608 c -1.192431,3.565209 -5.078049,5.479097 -8.678769,4.274789 -3.600721,-1.204309 -5.553025,-5.070767 -4.360593,-8.635976 1.192431,-3.565209 5.078048,-5.479097 8.678769,-4.274789 3.60072,1.204309 5.553025,5.070767 4.360593,8.635976 z"
     transform="matrix(1.5030048,0,0,0.79264318,-1.5281653,68.737865)" />
  <ellipse
     style="fill:#ffaaaa;stroke:#000000;stroke-width:0.8;stroke-linecap:round;stroke-linejoin:round"
     id="ellipse4"
     cx="128"
     cy="128"
     rx="44.521736"
     ry="23.079288" />
  <ellipse
     style="fill:#ffccaa;stroke:#000000;stroke-width:0.8;stroke-linecap:round;stroke-linejoin:round"
     id="ellipse5"
     cx="128"
     cy="128"
     rx="40.593346"
     ry="19.1509" />
  <path
     id="path5"
     style="fill:url(#linearGradient23);stroke:#000000;stroke-width:1px;stroke-linecap:round;stroke-linejoin:round;stroke-opacity:1"
     d="M 116.38075 115.66162 C 118.42781 119.16429 120.03033 125.61207 124.34559 124.23779 C 128.07069 121.07279 120.13602 117.22441 116.38075 115.66162 z M 136.34559 116.05419 C 132.59032 117.4693 124.65565 121.00441 128.38075 124.31591 C 132.69601 125.8599 134.29853 119.47636 136.34559 116.05419 z M 110.97645 118.29052 L 91.990123 127.13037 L 111.63075 137.60693 L 111.63075 133.35107 L 99.191295 127.78466 L 111.63075 122.22021 L 110.97645 118.29052 z M 141.74989 118.29052 L 141.09559 122.22021 L 153.53504 127.78466 L 141.09559 133.35107 L 141.09559 137.60693 L 160.73622 127.13037 L 141.74989 118.29052 z M 118.74208 125.39599 C 115.79626 125.22967 111.46078 126.98276 109.01161 128.11279 C 113.42175 129.16243 120.05233 132.82755 121.83583 128.31591 C 121.77663 126.28573 120.50957 125.49578 118.74208 125.39599 z M 133.98426 125.39599 C 132.21677 125.49578 130.94971 126.28573 130.89051 128.31591 C 132.67401 132.82755 139.30459 129.16243 143.71473 128.11279 C 141.26556 126.98276 136.93008 125.22967 133.98426 125.39599 z M 129.68348 131.34716 C 129.32468 131.36153 128.94845 131.43679 128.55067 131.58154 C 124.98068 134.89304 133.08067 138.42815 136.90223 139.84326 C 134.90181 136.74192 133.15188 131.20832 129.68348 131.34716 z M 123.36708 131.47021 C 119.89208 131.46803 118.66339 137.06154 116.95692 140.23583 C 120.63899 138.67304 128.39277 134.82466 124.51942 131.65966 C 124.10883 131.53082 123.72656 131.47043 123.36708 131.47021 z "
     transform="translate(1.63683,0.05127512)" />
</svg>
