<svg xmlns="http://www.w3.org/2000/svg" cursor="default" viewBox="0 0 256 256">
    <path fill="#abc837" stroke="#000" d="M114.68 22.592c-12.151 11.634 67.71 161.242-62.431 225.02C2.979 97.79 112.375 45.755 108.129 20.21c2.103-1.787 4.92.295 6.551 2.382z"/>
    <path fill="#abc837" stroke="#000" d="M115.962 22.777c-5.09 16.034 136.698 109.074 53.035 227.418-115.04-107.89-43.959-205.984-59.926-226.37.989-2.576 4.46-2.099 6.891-1.048z"/>
    <g stroke="#000" stroke-width="1.209">
        <path fill="#ffd42a" d="M52.602 55.756c.246 14.08-3.433 18.248-1.605 25.792 2.788 11.5-3.23 33.776 46.865 68.767 42.974 30.015 75.506 3.857 98.624-6.767 0 0 1.478-1.266-1.112-8.98-33.494-10.823-52.035-.981-74.265-12.661-23.09-12.132-30.004-45.533-54.59-56.059-5.67-2.427-3.583-14.411-3.583-14.411s-6.362 2.393-10.334 4.32z" transform="matrix(.58616 .66564 -.57896 .50983 118.377 -25.213)"/>
        <path fill="#ffd42a" d="M49.065 60.205c.246 14.08 7.519 21.671 9.348 29.215 2.787 11.5-5.627 38.681 44.469 73.672 42.973 30.015 75.506 3.858 98.624-6.767 0 0 1.478-1.266-1.112-8.98-33.495-10.822-52.035-.98-74.266-12.661-23.09-12.131-30.003-45.533-54.59-56.059C65.87 76.198 56.434 58.51 56.434 58.51s-3.396-.23-7.369 1.695z" transform="matrix(.58616 .66564 -.57896 .50983 118.377 -25.213)"/>
        <path fill="#ffd42a" d="M42.137 65.068c-3.335 13.681-8.987 22.044-12.521 29.644-4.99 10.73-15.26 35.986 24.314 82.546 33.947 39.94 72.054 22.896 97.112 18.487 0 0 1.75-.85 1.203-8.968-29.65-18.97-49.613-14.683-68.62-31.096-19.115-16.508-37.415-37.219-40.993-63.723-.512-3.786 2.612-19.205 2.612-19.205s1.225-8.54-3.107-7.685z" transform="matrix(.58616 .66564 -.57896 .50983 118.377 -25.213)"/>
        <path fill="#ffd42a" d="M44.046 64.198c.246 14.08-3.205 34.106-1.377 41.65 2.788 11.5-5.627 38.681 44.47 73.672 42.973 30.015 75.505 3.857 98.624-6.767 0 0 1.477-1.266-1.113-8.98-33.494-10.823-52.034-.981-74.265-12.661-23.09-12.132-30.236-45.007-54.59-56.059-4.87-7.56-4.61-34.148-4.61-34.148s-3.167 1.367-7.14 3.293zM37.107 53.564l11.294 3.872 15.166-8.874H47.11z" transform="matrix(.58616 .66564 -.57896 .50983 118.377 -25.213)"/>
        <path fill="#fd5" d="M37.43 53.564l3.71 13.23 22.91-11.456.646-7.26z" transform="matrix(.58616 .66564 -.57896 .50983 118.377 -25.213)"/>
    </g>
</svg>
