<svg xmlns="http://www.w3.org/2000/svg" xmlns:xlink="http://www.w3.org/1999/xlink" cursor="default" viewBox="0 0 256 256">
    <defs>
        <linearGradient id="linearGradient54">
            <stop offset="0" stop-color="#ff8080"/>
            <stop offset="1" stop-color="#ffd5d5"/>
        </linearGradient>
        <radialGradient id="radialGradient55" cx="117.041" cy="84.039" r="21.935" fx="117.041" fy="84.039" gradientTransform="matrix(1 0 0 1.60357 0 -50.723)" gradientUnits="userSpaceOnUse" xlink:href="#linearGradient54"/>
        <radialGradient id="radialGradient57" cx="177.659" cy="116.056" r="35.369" fx="177.659" fy="116.056" gradientTransform="matrix(1 0 0 .58798 0 47.817)" gradientUnits="userSpaceOnUse" xlink:href="#linearGradient54"/>
        <radialGradient id="radialGradient58" cx="111.416" cy="130.249" r="25.606" fx="111.416" fy="130.249" gradientTransform="matrix(1 0 0 .8916 0 14.12)" gradientUnits="userSpaceOnUse" xlink:href="#linearGradient54"/>
        <radialGradient id="radialGradient59" cx="155.394" cy="144.904" r="22.158" fx="155.394" fy="144.904" gradientTransform="matrix(1 0 0 1.07318 0 -10.604)" gradientUnits="userSpaceOnUse" xlink:href="#linearGradient54"/>
    </defs>
    <path fill="#ff7f2a" stroke="#000" d="M95.922 108.963s-36.253 9.275-22.733-11.09c2.84-9.146 25.7 1.13 25.7 1.13s68.704 23.826 100.753 54.253c-38.76-15.06-46.826-12.077-46.826-12.077z"/>
    <path fill="#ffb380" stroke="#000" d="M97.543 98.31s-22.806-23.238-24.796-4.608c-16.673 18.301 19.008 11.33 24.707 13.733 5.7 2.402 67.237 23.717 67.237 23.717s33.423 22.31 34.563 22.253c11.132-.554-18.576-27.799-18.576-27.799l-30.392-3.982-30.8-14.81z"/>
    <path fill="#ff7f2a" d="M175.252 137.364s10.73 6.66 14.512 4.068l3.429-2.242-3.245-3.633s-13.402-9.34-20.21-9.54c-6.74-.2-6.891 8.757-5.89 5.303.166-.574 11.404 6.044 11.404 6.044zM98.58 99.546l4.555 4.755-4.452 3.352 18.941 5.187-15.218-18.792z"/>
    <path fill="url(#radialGradient59)" fill-rule="evenodd" stroke="#000" stroke-width="1.557" d="M134.042 139.325c3.063 16.892 3.491 18.31 5.13 26.836 14.95 5.254 58.97.092 25.087-35.91-6.19-3.672-12.514-7.269-23.29-8.296z"/>
    <path fill="#333" fill-rule="evenodd" stroke="#000" stroke-width="1.557" d="M139.058 165.758l.668 5.347c41.776 9.74 51.604-23.668 24.42-40.946 17.735 21.36 19.42 38.926-25.088 35.6z"/>
    <path fill="none" stroke="#000" stroke-width=".779" d="M140.396 126.35l10.331 17.295 8.573 7.07 1.547 14.582m-10.039-21.368c1.812 7.922 2.72 15.53 1.008 22.224m-12.434-37.574c2.61 12.442 4.935 24.846 5.807 37.06m14.086-15.05l2.936.686c4.507 3.04 5.252 7.54 7.484 11.465"/>
    <path fill="none" stroke="#000" stroke-width=".779" d="M141.23 127.536l4.16-.627 10.133 5.674 6.685 18.612m-2.97-8.2c7.191 4.028 11.488 8.716 16.727 13.185m-19.653-21.459c.738 1.376 18.086 10.466 18.047 10.33m-18.787-12.445l10.565.487m-20.553-6.292l6.178-2.588"/>
    <path fill="url(#radialGradient58)" fill-rule="evenodd" stroke="#000" stroke-width="1.557" d="M129.917 135.85c-13.273 10.392-14.514 11.145-21.283 16.33-14.5-6.462-43.749-40.765 4.807-43.977 6.98 1.565 14.008 3.28 22.66 9.98z"/>
    <path fill="#333" fill-rule="evenodd" stroke="#000" stroke-width="1.557" d="M108.981 151.96l-3.979 3.498c-37.296-21.71-22.813-53.268 8.584-47.244-27.056 3.544-39.747 15.39-4.605 43.744z"/>
    <path fill="none" stroke="#000" stroke-width=".779" d="M133.663 121.835l-18.92 5.66-10.96-.697-10.644 9.732m21.357-8.879c-6.503 4.613-12.132 9.62-15.225 15.767m33.691-19.229c-10.039 7.41-19.843 14.99-28.446 23.437m-.632-20.904l-2.622-1.525c-5.318-.87-8.804 1.95-13.013 3.311"/>
    <path fill="none" stroke="#000" stroke-width=".779" d="M132.272 122.137l-2.673-3.346-11.204-2.81-17.078 9.16m7.543-4.019c-7.953-1.996-14.19-1.5-20.983-1.816m28.54-2.289c-1.443.508-20.217-4.77-20.1-4.845m22.026 3.79l-8.144-6.954m19.326 9.57l-2.89-6.195"/>
    <path fill="url(#radialGradient57)" fill-rule="evenodd" stroke="#000" stroke-width="1.557" d="M143.328 121.757c14.702 7.154 29.952 9.466 44.928 14.2 20.816-23.524 24.72-33.256 23.89-38.507-12.422-5.945-58.144 8.147-67.23 21.016z"/>
    <path fill="#333" fill-rule="evenodd" stroke="#000" stroke-width="1.557" d="M142.661 122.82c.32.131 45.447 18.072 48.151 14.441 16.996-25.453 32.817-32.862 29.392-36.39l-7.964-3.44c-6.26 13.228-14.739 24.96-24.3 35.962-2.449 3.626-30.186-7.05-45.28-10.575z"/>
    <path fill="none" stroke="#000" stroke-width=".779" d="M143.73 121.287l33.341-7.81 6.67-4.984 19.442 4.825m-26.212.293l22.095 5.29m-33.757-2.596c.262.095 27.902 10.293 27.902 10.293m-20.839-24.206l11.536 5.964 6.07-7.383 16.437 7.25m-26.608-8.054l30.31 1.293"/>
    <path fill="url(#radialGradient55)" fill-rule="evenodd" stroke="#000" stroke-width="1.557" d="M136.688 118.185c-15.113-6.174-27.18-16.073-40.77-24.11 2.382-31.763 6.588-41.36 10.866-44.328 12.7 5.285 34.021 49.347 31.144 64.991z"/>
    <path fill="#333" fill-rule="evenodd" stroke="#000" stroke-width="1.557" d="M136.395 119.413c-.31-.15-43.864-21.85-43.147-26.369 6.36-30.208.77-47.187 5.606-47.022l7.88 3.64c-5.065 13.764-7.555 28.173-8.788 42.898-.888 4.324 25.633 17.902 38.45 26.853z"/>
    <path fill="none" stroke="#000" stroke-width=".779" d="M136.745 117.561l-17.29-30.444-1.04-8.43-16.71-11.336m17.724 19.933L100.575 74.27m24.927 23.638c-.245-.134-26.36-13.963-26.36-13.963m31.36-.873l-12.105-4.604 1.064-9.62-16.368-7.415m23.894 14.521L105.34 54.021"/>
    <path fill="#1a1a1a" fill-rule="evenodd" stroke="#000" stroke-width="3.114" d="M125.272 151.805c3.237-9.853 5.21-21.446 9.721-31.038 2.162-4.596 4.885-7.293 7.327-10.939 1.295-.839 2.527-1.162 3.43 1.27 0 0-.859 9.251-2.624 13.448-4.076 9.692-17.855 27.26-17.855 27.26z"/>
    <path fill-rule="evenodd" d="M141.014 111.634a673.211 673.211 0 012.474-8.062c.426-1.35.86-2.699 1.286-3.975-.257-1.612-.524-3.134-.827-4.46-.79 1.106-1.618 2.417-2.457 3.827-.08 1.352-.169 2.776-.248 4.198-.17 3.055-.304 6.125-.228 8.472zm4.771 2.088a632.42 632.42 0 015.305-6.473c.9-1.079 1.806-2.152 2.677-3.163.365-1.578.688-3.078.904-4.41-1.145.715-2.4 1.605-3.704 2.581-.58 1.211-1.195 2.486-1.8 3.763-1.302 2.742-2.574 5.514-3.382 7.702z"/>
    <path style="-inkscape-stroke:none" fill="#ff7f2a" d="M82.503 91.816c10.668 7.652 18.35 12.379-6.043 9.729 12.715 2.761 17.298.856 17.692-.217 0 0 3.585-1.587-11.649-9.512z" color="#000"/>
</svg>
