<?xml version="1.0" encoding="UTF-8" standalone="no"?>
<svg
   cursor="default"
   viewBox="0 0 256 256"
   version="1.1"
   id="svg48"
   sodipodi:docname="chocolate_icecream_clip.svg"
   inkscape:version="1.4.1-rc (d9e8dc1fe0, 2025-03-10)"
   width="100%"
   height="100%"
   xmlns:inkscape="http://www.inkscape.org/namespaces/inkscape"
   xmlns:sodipodi="http://sodipodi.sourceforge.net/DTD/sodipodi-0.dtd"
   xmlns:xlink="http://www.w3.org/1999/xlink"
   xmlns="http://www.w3.org/2000/svg"
   xmlns:svg="http://www.w3.org/2000/svg">
  <defs
     id="defs48">
    <linearGradient
       id="linearGradient19"
       inkscape:collect="always">
      <stop
         style="stop-color:#ffaaaa;stop-opacity:1;"
         offset="0"
         id="stop20" />
      <stop
         style="stop-color:#ff5555;stop-opacity:1;"
         offset="1"
         id="stop21" />
    </linearGradient>
    <linearGradient
       id="linearGradient18"
       inkscape:collect="always">
      <stop
         style="stop-color:#4b3423;stop-opacity:1;"
         offset="0"
         id="stop18" />
      <stop
         style="stop-color:#654b37;stop-opacity:1;"
         offset="1"
         id="stop19" />
    </linearGradient>
    <linearGradient
       id="linearGradient12"
       inkscape:collect="always">
      <stop
         style="stop-color:#d08655;stop-opacity:1;"
         offset="0"
         id="stop12" />
      <stop
         style="stop-color:#e4bca2;stop-opacity:1;"
         offset="1"
         id="stop13" />
    </linearGradient>
    <inkscape:path-effect
       effect="mirror_symmetry"
       start_point="131.9731,120.67956"
       end_point="131.9731,174.56588"
       center_point="131.9731,147.62272"
       id="path-effect16"
       is_visible="true"
       lpeversion="1.2"
       lpesatellites=""
       mode="free"
       discard_orig_path="false"
       fuse_paths="false"
       oposite_fuse="false"
       split_items="false"
       split_open="false"
       link_styles="false" />
    <inkscape:perspective
       sodipodi:type="inkscape:persp3d"
       inkscape:vp_x="38.629155 : 126.0358 : 1"
       inkscape:vp_y="0 : 1000 : 0"
       inkscape:vp_z="256 : 128 : 1"
       inkscape:persp3d-origin="128 : 85.333333 : 1"
       id="perspective1" />
    <linearGradient
       inkscape:collect="always"
       xlink:href="#linearGradient12"
       id="linearGradient13"
       x1="148.75208"
       y1="172.62985"
       x2="111.32205"
       y2="156.81889"
       gradientUnits="userSpaceOnUse"
       gradientTransform="translate(-10.325524,-1.2906905)" />
    <radialGradient
       inkscape:collect="always"
       xlink:href="#linearGradient18"
       id="radialGradient19"
       cx="206.4558"
       cy="66.157394"
       fx="206.4558"
       fy="66.157394"
       r="64.722213"
       gradientTransform="matrix(0.13843986,-0.99037084,1.3400772,0.18732388,67.790823,283.59376)"
       gradientUnits="userSpaceOnUse" />
    <linearGradient
       inkscape:collect="always"
       xlink:href="#linearGradient19"
       id="linearGradient21"
       x1="81.024134"
       y1="130.30703"
       x2="152.32626"
       y2="161.28362"
       gradientUnits="userSpaceOnUse"
       gradientTransform="translate(-1.825312,-1.825312)" />
  </defs>
  <sodipodi:namedview
     id="namedview48"
     pagecolor="#ffffff"
     bordercolor="#666666"
     borderopacity="1.0"
     inkscape:showpageshadow="2"
     inkscape:pageopacity="0.0"
     inkscape:pagecheckerboard="0"
     inkscape:deskcolor="#d1d1d1"
     inkscape:zoom="2.1914062"
     inkscape:cx="120.01426"
     inkscape:cy="138.72371"
     inkscape:window-width="1854"
     inkscape:window-height="1010"
     inkscape:window-x="0"
     inkscape:window-y="0"
     inkscape:window-maximized="1"
     inkscape:current-layer="svg48"
     showgrid="false" />
  <g
     id="g127"
     transform="matrix(2.3940071,0.36360626,-0.33612673,2.7123792,-142.48761,-269.11738)"
     style="display:inline;stroke-width:0.388789">
    <rect
       style="fill:#ff8080;fill-opacity:1;stroke:#000000;stroke-width:0.388789;stroke-linecap:round;stroke-linejoin:round;stroke-dasharray:none;stroke-opacity:1"
       id="rect23"
       width="72.347832"
       height="11.785167"
       x="97.5"
       y="123.5" />
  </g>
  <g
     id="g128"
     style="display:inline;stroke-width:0.388789"
     transform="matrix(2.3940071,0.36360626,-0.33612673,2.7123792,-138.78122,-271.46207)">
    <rect
       style="fill:#ff8080;fill-opacity:1;stroke:#000000;stroke-width:0.388789;stroke-linecap:round;stroke-linejoin:round;stroke-dasharray:none;stroke-opacity:1"
       id="rect127"
       width="72.347832"
       height="11.785167"
       x="97.5"
       y="123.5" />
    <path
       style="fill:none;fill-opacity:1;stroke:#ff5555;stroke-width:1.04973;stroke-linecap:butt;stroke-linejoin:miter;stroke-dasharray:none;stroke-opacity:1"
       d="M 169.42354,133.21162 H 99.525936 l -0.230855,-9.24304"
       id="path127"
       sodipodi:nodetypes="ccc" />
    <path
       style="fill:none;fill-opacity:1;stroke:#ffd5d5;stroke-width:1.04973;stroke-linecap:butt;stroke-linejoin:miter;stroke-dasharray:none;stroke-opacity:1"
       d="m 100.80301,125.78801 h 66.8717 l 0.22843,8.01841"
       id="path128"
       sodipodi:nodetypes="ccc" />
  </g>
  <path
     style="fill:url(#linearGradient13);fill-opacity:1;stroke:#000000;stroke-width:3.5;stroke-linecap:butt;stroke-linejoin:round;stroke-dasharray:none;stroke-opacity:1"
     d="M 101.47484,93.169206 C 95.036056,139.63752 96.562766,167.8877 90.066636,238.28151 152.47603,164.47568 159.61424,154.11845 188.63349,110.05334 c -29.84706,15.25753 -74.7876,8.29105 -87.15865,-16.884134 z"
     id="path1"
     sodipodi:nodetypes="cccc" />
  <path
     id="path17"
     style="display:inline;fill:url(#radialGradient19);stroke:#000000;stroke-width:6.2;stroke-linecap:round;stroke-linejoin:round;stroke-dasharray:none;paint-order:markers stroke fill"
     d="m 151.78385,23.658529 a 56.812836,48.59893 8.07657 0 0 -55.677736,40.765624 56.812836,48.59893 8.07657 0 0 -0.404292,5.017579 10.495544,11.636364 0 0 0 -0.160154,-0.002 10.495544,11.636364 0 0 0 -10.494146,11.636719 10.495544,11.636364 0 0 0 5.9375,10.482422 16.655972,16.655972 0 0 0 -0.0058,0.468756 16.655972,16.655972 0 0 0 16.656244,16.656252 16.655972,16.655972 0 0 0 2.97266,-0.26758 16.199644,16.655972 0 0 0 -0.006,0.49609 16.199644,16.655972 0 0 0 16.19922,16.65625 16.199644,16.655972 0 0 0 12.61523,-6.20703 56.812836,48.59893 8.07657 0 0 0.75391,0.17579 12.777184,12.092692 0 0 0 12.41211,9.22462 12.777184,12.092692 0 0 0 10.49218,-5.18947 12.092692,13.233512 0 0 0 8.90235,4.27735 12.092692,13.233512 0 0 0 8.74609,-4.09375 13.68984,15.058824 0 0 0 10.19141,5.00586 13.68984,15.058824 0 0 0 13.68945,-15.0586 13.68984,15.058824 0 0 0 -5.4707,-12.04296 56.812836,48.59893 8.07657 0 0 9.47071,-21.271489 56.812836,48.59893 8.07657 0 0 -49.41993,-56.099609 56.812836,48.59893 8.07657 0 0 -7.40039,-0.63086 z" />
  <path
     style="fill:#3c2a1e;fill-opacity:1;stroke:none;stroke-width:1px;stroke-linecap:butt;stroke-linejoin:miter;stroke-opacity:1"
     d="m 198.44454,100.24229 c -32.67405,7.48158 -74.50612,-6.808473 -91.72193,-26.467024 -0.8509,0.64008 -0.64367,2.346117 0,3.194296 19.47701,25.665118 60.03823,36.717138 93.09091,26.010688 0.64936,-0.78709 -0.58465,-2.08528 -1.36898,-2.73796 z"
     id="path9"
     sodipodi:nodetypes="ccccc" />
  <path
     style="display:inline;fill:#000000;fill-opacity:1;stroke:#000000;stroke-width:2.1;stroke-linecap:round;stroke-linejoin:round;stroke-dasharray:none;stroke-opacity:1;paint-order:markers stroke fill"
     d="m 88.770436,239.18108 c -0.371796,-0.58247 -0.408819,-1.30019 -0.187252,-3.63007 1.599362,-16.81808 3.177152,-38.9519 4.991302,-70.01995 1.63732,-28.03966 2.068,-34.23189 3.28628,-47.24894 l 0.85857,-9.17357 -0.76518,-0.50661 c -4.4146,-2.92283 -7.580163,-7.65597 -8.607315,-12.869658 -0.440994,-2.238425 -0.672137,-2.777853 -1.417812,-3.30882 -0.490005,-0.348916 -1.480701,-1.517597 -2.201546,-2.59707 -4.205788,-6.298217 -3.308655,-14.97411 2.06013,-19.922882 1.426281,-1.3147 4.277153,-2.94894 5.144313,-2.94894 0.67841,0 0.74478,-0.183814 1.29019,-3.573209 1.56645,-9.734594 6.07441,-18.462659 13.246924,-25.647946 8.92472,-8.940633 20.09267,-14.387707 33.79554,-16.483496 4.97301,-0.760599 14.28394,-0.75693 19.28553,0.0076 21.6643,3.311543 39.40371,15.548944 47.76667,32.951483 3.23916,6.740402 4.61646,12.798087 4.62194,20.328375 0.007,9.088707 -2.45078,17.426758 -7.28877,24.731203 -1.41435,2.1354 -1.41768,2.14723 -0.81701,2.90406 0.87384,1.10101 2.18415,3.7007 2.90022,5.7541 0.9263,2.65625 1.11388,6.78856 0.4447,9.79641 -2.68606,12.07333 -15.36737,17.8478 -24.98377,11.37645 l -1.55884,-1.04903 -1.52833,0.87534 c -0.97784,0.56005 -1.94254,1.49891 -2.67835,2.60661 -11.65335,17.54313 -24.92611,35.30298 -42.65078,57.06963 -10.47232,12.86045 -42.066524,50.58727 -42.758364,51.058 -0.68932,0.46901 -1.794027,0.23369 -2.24899,-0.47907 z M 101.36991,222.1601 c 37.32444,-44.48666 50.36449,-60.98919 66.08566,-83.63318 2.74901,-3.95954 5.00152,-7.30806 5.00557,-7.44117 0.004,-0.1331 -0.65061,-0.242 -1.45483,-0.242 -1.71316,0 -4.85575,-0.99337 -6.57394,-2.07802 l -1.20924,-0.76336 -1.68043,1.12631 c -2.37791,1.59379 -4.92877,2.4114 -8.11186,2.60004 -5.01323,0.29711 -8.78528,-1.18547 -12.43965,-4.88933 l -2.27546,-2.30627 -1.84967,1.19339 c -2.65487,1.71289 -5.35575,2.71767 -8.80357,2.76772 -17.17021,0.24925 -17.83015,-14.90537 -21.0704,-16.21131 -7.971241,-3.21272 -7.401906,10.20387 -9.382804,43.24528 -2.189462,36.52027 -3.03164,50.28325 -4.37054,66.24419 -0.43617,5.1996 -0.79304,9.76945 -0.79304,10.15523 0,0.69695 0.004,0.69737 0.6043,0.065 0.33236,-0.35001 4.07632,-4.77466 8.319904,-9.83255 z m 53.15384,-93.56721 c 2.57017,-0.4209 5.55644,-1.89581 7.20918,-3.5606 l 1.36464,-1.37458 1.33936,1.21003 c 2.21841,2.0042 4.527,2.8909 7.55437,2.90153 2.26897,0.008 2.84637,-0.11802 4.68182,-1.02161 1.15151,-0.5669 2.51595,-1.47149 3.03209,-2.01022 l 0.93842,-0.9795 1.56952,1.4681 c 6.5382,6.11572 16.61275,3.95409 20.71562,-4.44483 2.78793,-5.70712 2.05923,-12.11737 -1.96685,-17.30216 -0.76389,-0.98375 -1.3889,-1.89964 -1.3889,-2.0353 0,-0.13567 0.77869,-1.332 1.73042,-2.65851 3.43608,-4.789178 6.17804,-11.481525 7.16411,-17.485559 0.83116,-5.060775 0.50016,-12.409289 -0.77855,-17.284465 -5.52473,-21.063575 -25.35603,-36.895163 -50.05496,-39.959541 -4.02143,-0.498936 -12.34673,-0.415454 -16.51257,0.165581 -23.8208,3.322428 -41.937844,19.393918 -44.945334,39.870672 -0.27704,1.886208 -0.5037,3.882745 -0.5037,4.436748 0,0.948287 -0.0709,1.007459 -1.21003,1.010427 -1.39745,0.0036 -3.98174,1.12586 -5.452323,2.367649 -0.558568,0.471667 -1.454279,1.546915 -1.990468,2.389446 -3.248043,5.103735 -2.398232,11.780164 2.012555,15.811375 1.653206,1.51094 1.749906,1.689133 2.083576,3.83973 0.83633,5.390237 3.29936,9.314927 7.5988,12.108187 2.679174,1.7406 5.430344,2.52385 8.865064,2.52385 h 2.80437 l 0.38075,2.61235 c 1.07605,7.38279 6.67444,13.08336 13.95228,14.20694 4.4873,0.69276 9.23166,-0.82831 12.8792,-4.12914 1.04493,-0.94561 2.03181,-1.71928 2.19308,-1.71928 0.16127,0 0.62979,0.81204 1.04115,1.80453 1.42311,3.43351 4.9801,6.22902 9.051,7.11336 2.26886,0.49288 2.3769,0.49578 4.64231,0.12479 z"
     id="path18"
     sodipodi:nodetypes="sssscssssssssssscssssscssssssscsscssscsssssscsssscsssscssssssssssscsssssscsssssss" />
  <path
     style="display:inline;fill:url(#linearGradient21);fill-opacity:1;stroke:#000000;stroke-width:2.1;stroke-linecap:round;stroke-linejoin:round;stroke-dasharray:none;stroke-opacity:1;paint-order:markers stroke fill"
     d="m 86.945124,237.35577 c -0.371796,-0.58247 -0.408819,-1.30019 -0.187252,-3.63007 1.599362,-16.81808 3.177152,-38.9519 4.991302,-70.01995 1.63732,-28.03966 2.068,-34.23189 3.28628,-47.24894 l 0.85857,-9.17357 -0.76518,-0.50661 c -4.4146,-2.92283 -7.580163,-7.655972 -8.607315,-12.86966 -0.440994,-2.238425 -0.672137,-2.777853 -1.417812,-3.30882 -0.490005,-0.348916 -1.480701,-1.517597 -2.201546,-2.59707 -4.205788,-6.298217 -3.308655,-14.97411 2.06013,-19.922882 1.426281,-1.3147 4.277153,-2.94894 5.144313,-2.94894 0.67841,0 0.74478,-0.183814 1.29019,-3.573209 1.56645,-9.734594 6.07441,-18.462659 13.246926,-25.647946 8.92472,-8.940633 20.09267,-14.387707 33.79554,-16.483496 4.97301,-0.760599 14.28394,-0.75693 19.28553,0.0076 21.6643,3.311543 39.40371,15.548944 47.76667,32.951483 3.23916,6.740402 4.61646,12.798087 4.62194,20.328375 0.007,9.088707 -2.45078,17.426758 -7.28877,24.731203 -1.41435,2.1354 -1.41768,2.14723 -0.81701,2.904062 0.87384,1.10101 2.18415,3.7007 2.90022,5.7541 0.9263,2.65625 1.11388,6.78856 0.4447,9.79641 -2.68606,12.07333 -15.36737,17.8478 -24.98377,11.37645 l -1.55884,-1.04903 -1.52833,0.87534 c -0.97784,0.56005 -1.94254,1.49891 -2.67835,2.60661 -11.65335,17.54313 -24.92611,35.30298 -42.65078,57.06963 -10.47232,12.86045 -42.066526,50.58727 -42.758366,51.058 -0.68932,0.46901 -1.794027,0.23369 -2.24899,-0.47907 z m 12.599474,-17.02098 c 37.324442,-44.48666 50.364492,-60.98919 66.085662,-83.63318 2.74901,-3.95954 5.00152,-7.30806 5.00557,-7.44117 0.004,-0.1331 -0.65061,-0.242 -1.45483,-0.242 -1.71316,0 -4.85575,-0.99337 -6.57394,-2.07802 l -1.20924,-0.76336 -1.68043,1.12631 c -2.37791,1.59379 -4.92877,2.4114 -8.11186,2.60004 -5.01323,0.29711 -8.78528,-1.18547 -12.43965,-4.88933 l -2.27546,-2.30627 -1.84967,1.19339 c -2.65487,1.71289 -5.35575,2.71767 -8.80357,2.76772 -17.17021,0.24925 -17.83015,-14.90537 -21.0704,-16.21131 -7.971243,-3.21272 -7.401908,10.20387 -9.382806,43.24528 -2.189462,36.52027 -3.03164,50.28325 -4.37054,66.24419 -0.43617,5.1996 -0.79304,9.76945 -0.79304,10.15523 0,0.69695 0.004,0.69737 0.6043,0.065 0.33236,-0.35001 4.07632,-4.77466 8.319904,-9.83255 z m 53.153842,-93.56721 c 2.57017,-0.4209 5.55644,-1.89581 7.20918,-3.5606 l 1.36464,-1.37458 1.33936,1.21003 c 2.21841,2.0042 4.527,2.8909 7.55437,2.90153 2.26897,0.008 2.84637,-0.11802 4.68182,-1.02161 1.15151,-0.5669 2.51595,-1.47149 3.03209,-2.01022 l 0.93842,-0.9795 1.56952,1.4681 c 6.5382,6.11572 16.61275,3.95409 20.71562,-4.44483 2.78793,-5.70712 2.05923,-12.11737 -1.96685,-17.30216 -0.76389,-0.98375 -1.3889,-1.899642 -1.3889,-2.035302 0,-0.13567 0.77869,-1.332 1.73042,-2.65851 3.43608,-4.789178 6.17804,-11.481525 7.16411,-17.485559 0.83116,-5.060775 0.50016,-12.409289 -0.77855,-17.284465 -5.52473,-21.063575 -25.35603,-36.895163 -50.05496,-39.959541 -4.02143,-0.498936 -12.34673,-0.415454 -16.51257,0.165581 -23.8208,3.322428 -41.937846,19.393918 -44.945336,39.870672 -0.27704,1.886208 -0.5037,3.882745 -0.5037,4.436748 0,0.948287 -0.0709,1.007459 -1.21003,1.010427 -1.39745,0.0036 -3.98174,1.12586 -5.452323,2.367649 -0.558568,0.471667 -1.454279,1.546915 -1.990468,2.389446 -3.248043,5.103735 -2.398232,11.780164 2.012555,15.811375 1.653206,1.51094 1.749906,1.689133 2.083576,3.83973 0.83633,5.390237 3.29936,9.314929 7.5988,12.108189 2.679174,1.7406 5.430346,2.52385 8.865066,2.52385 h 2.80437 l 0.38075,2.61235 c 1.07605,7.38279 6.67444,13.08336 13.95228,14.20694 4.4873,0.69276 9.23166,-0.82831 12.8792,-4.12914 1.04493,-0.94561 2.03181,-1.71928 2.19308,-1.71928 0.16127,0 0.62979,0.81204 1.04115,1.80453 1.42311,3.43351 4.9801,6.22902 9.051,7.11336 2.26886,0.49288 2.3769,0.49578 4.64231,0.12479 z"
     id="path2"
     sodipodi:nodetypes="sssscssssssssssscssssscssssssscsscssscsssssscsssscsssscssssssssssscsssssscsssssss" />
</svg>
