<svg xmlns="http://www.w3.org/2000/svg" width="100" height="100" version="1.0">
    <path d="M56.16 22.72h-3.04l-5.68.56L40 24.72l-10.32 3.6-1.44.8-.64.56-.4 1.44.32.72.32.48.96.56h.48-.08l.24 26.72.16.4.4.08.32-.08.16-.4c-.178-8.977.149-18.07-.173-27.014-.124.086-.069.015.173-.106l1.28-.56.24 26.4.16.4.4.08.32-.16.16-.32-.24-26.72c-.038-.136.215-.218.72-.48l.88-.32.24 26.56.16.4.4.08.32-.16.16-.32-.24-26.916c1.272-.525-1.588.607 1.44-.604v.08l.24 26.72.16.4.4.08.4-.08.08-.4c-.22-9.018.045-18.054-.272-27.068l.672-.212.88-.24.24 26.48.16.4.32.08.4-.08.16-.4-.32-26.72v-.08l.96-.24.96-.24.32 26.32.08.32.4.16.4-.16.08-.32-.24-26.56.88-.16.96-.16.24 26.4.08.32.4.16.4-.16.08-.4-.24-26.48 1.76-.32.24 26.24.16.4.4.16.32-.16.16-.4-.24-26.32c.606-.145 1.222-.188 1.84-.24l.24 26.48.08.4.4.08.4-.08.08-.4-.24-26.56c.614-.048 1.227-.104 1.84-.16V52.8l.08.4.4.08.4-.08.08-.4c-.099-8.691.059-26.083.059-26.083l.741.003h.88l-.037.067s.037 17.393.037 26.093l.16.32.4.16.4-.16.08-.32V26.754s.533-.028.8-.034c.293-.006.88 0 .88 0l-.32 26.08.16.4.4.16.4-.16.08-.4.24-26s.642.038.96.08c.296.04.88.16.88.16l-.24 25.92.08.4.4.08.4-.08.16-.4.24-25.84.88.16.88.16-.24 26.08.08.4.4.08.4-.08.08-.4.24-25.92.96.16.88.24-.24 26 .08.4.4.08.4-.08.08-.4.24-25.76 1.04.24.88.24L70 54.96l.16.4.32.16.4-.16.16-.32.24-26 .8.24.72.24L72.56 56l.08.4.4.16.4-.16.08-.4.32-26.08.72.24.72.32-.24 26.24.08.4.4.16.4-.16.16-.4.24-25.84.88.32.72.32-.24 26.16.08.4.4.16.4-.16.16-.4.24-25.68.88.48.64.32-.24 26.16.08.4.4.16.4-.16.08-.4.257-25.742c.621.286.533.213.8.32l1.103-.418.56-.64.32-.8-.4-1.44-.64-.56-1.52-.88-10.24-4-7.2-1.52-5.28-.56z"/>
</svg>
