<svg xmlns="http://www.w3.org/2000/svg" xmlns:xlink="http://www.w3.org/1999/xlink" cursor="default" viewBox="0 0 256 256">
    <defs>
        <linearGradient id="linearGradient83">
            <stop offset="0" stop-color="#de8d00"/>
            <stop offset="1" stop-color="#ffb12a"/>
        </linearGradient>
        <linearGradient id="linearGradient75">
            <stop offset="0" stop-color="#bbb23d"/>
            <stop offset="1" stop-color="#ffffcb"/>
        </linearGradient>
        <linearGradient id="linearGradient76" x1="36.752" x2="232.805" y1="156.768" y2="156.768" gradientUnits="userSpaceOnUse" xlink:href="#linearGradient75"/>
        <linearGradient id="linearGradient84" x1="38.482" x2="229.014" y1="157.627" y2="157.627" gradientUnits="userSpaceOnUse" xlink:href="#linearGradient83"/>
    </defs>
    <g stroke-width=".318">
        <path fill="#ff8080" stroke="#000" stroke-linecap="round" stroke-linejoin="round" d="M97.5 123.5h72.348v11.785H97.5z" transform="matrix(2.78674 .46751 -.39127 3.48749 -189.752 -382.052)"/>
    </g>
    <g stroke-width=".318">
        <path fill="#ff8080" stroke="#000" stroke-linecap="round" stroke-linejoin="round" d="M97.5 123.5h72.348v11.785H97.5z" transform="matrix(2.78674 .46751 -.39127 3.48749 -185.438 -385.067)"/>
        <path fill="none" stroke="#f55" stroke-width=".858" d="M169.424 133.212H99.526l-.23-9.243" transform="matrix(2.78674 .46751 -.39127 3.48749 -185.438 -385.067)"/>
        <path fill="none" stroke="#ffd5d5" stroke-width=".858" d="M100.803 125.788h66.872l.228 8.018" transform="matrix(2.78674 .46751 -.39127 3.48749 -185.438 -385.067)"/>
    </g>
    <g stroke="#000" stroke-linecap="round" stroke-linejoin="round" stroke-width="1.7">
        <path d="M64.652 241.34c-8.25-.8-15.168-4.446-17.415-9.177-.697-1.468-.766-2.035-.766-6.292s.07-4.824.766-6.292c.714-1.502 2.956-3.955 4.627-5.062.699-.462.67-.488-.968-.866-4.762-1.097-10.302-5.098-12.682-9.158-2.374-4.051-2.538-4.95-2.549-13.955-.01-8.922.164-10.023 2.197-13.867 1.465-2.769 5.034-6.217 8.035-7.762l2.444-1.258-.779-1.538c-1.46-2.882-1.733-4.973-1.738-13.34-.005-8.61.209-10.063 2.018-13.701 1.408-2.831 5.193-6.67 7.934-8.048 2.984-1.5 6.379-2.278 9.939-2.278h3.013l-1.127-1.57c-2.331-3.244-2.554-4.107-2.686-10.422-.163-7.78.384-9.644 3.94-13.43 1.966-2.092 4.476-3.642 7.457-4.607 1.966-.635 3.122-.748 8.925-.87l6.665-.141-.774-1.662c-.704-1.514-.774-2.083-.777-6.364-.004-5.968.356-7.158 2.941-9.747 2.01-2.012 4.598-3.414 7.853-4.254 2.859-.738 57.355-.737 60.486 0 4.605 1.086 8.639 3.939 10.127 7.161.638 1.383.71 2.062.71 6.702 0 5.002-.026 5.21-.864 6.695l-.865 1.533h6.606c7.698 0 10.362.414 13.941 2.168 3.084 1.511 5.755 4.13 7.197 7.057l1.09 2.213.106 6.06c.089 5.084.015 6.334-.454 7.753-.593 1.796-1.723 3.803-2.813 5l-.662.725h4.522c7.387 0 11.536 1.457 15.623 5.486 2.348 2.315 3.543 4.165 4.77 7.383.775 2.032.82 2.522.942 10.137.142 8.956-.152 11.248-1.884 14.663-.519 1.022-.945 1.881-.947 1.909-.002.027.83.52 1.851 1.093 2.723 1.531 5.9 4.91 7.308 7.77 1.881 3.822 2.207 6.091 2.054 14.32-.117 6.338-.21 7.322-.862 9.195-2.323 6.663-8.4 11.795-15.57 13.149l-2.761.52 1.592 1.26c1.711 1.352 3.296 3.58 3.84 5.4.19.635.292 3.036.231 5.485-.127 5.147-.438 6.007-3.16 8.721-3.32 3.313-8.99 5.534-15.626 6.122-4.299.38-129.082.362-133.021-.02zm71.293-1.275c-1.92-.773-2.217-2.856-1.237-8.672 1.15-6.825-.022-9.269-4.752-9.917-1.423-.195-1.52-.157-2.122.831-.347.57-.879 2.295-1.183 3.833-1.662 8.408-3.072 10.371-6.515 9.067-2.57-.974-3.167-2.671-2.54-7.22.746-5.409.912-8.118.673-10.991l-.229-2.741H54.892l-2.025 1.532c-1.14.864-2.451 2.226-3.003 3.12-.963 1.56-.98 1.665-1.083 6.564-.1 4.823-.077 5.031.744 6.71 1.905 3.893 7.23 6.832 14.23 7.853 2.551.372 73.112.403 72.19.031zm65.725-.423c6.144-1.62 10.177-4.28 11.824-7.802.674-1.44.754-2.078.754-5.97 0-3.894-.08-4.526-.756-5.969-.792-1.691-3.273-4.246-4.979-5.128-.9-.466-4.208-.518-32.586-.518h-31.584l-.337 1.371c-.185.754-.863 3.162-1.506 5.35-1.329 4.521-1.48 6.98-.685 11.135.927 4.844.477 7.119-1.578 7.971-.395.164 11.924.247 29.327.198 27.13-.077 30.21-.138 32.106-.638zm-61.092-1.368c.596-.815.54-2.47-.24-6.99-.792-4.582-.69-5.513 1.33-12.215 1.35-4.48 1.42-5.559.473-7.388-1.713-3.314-13.304-4.627-19.704-2.232-2.225.832-3.5 2.27-3.242 3.654.463 2.484.572 8.582.2 11.316a92.434 92.434 0 00-.56 5.695c-.16 2.683-.137 2.81.613 3.303.43.281 1.245.604 1.812.717 1.909.382 2.457-.611 3.756-6.807 1.495-7.132 2.46-8.086 6.854-6.78 4.236 1.257 5.437 4.551 4.137 11.346-.267 1.39-.484 3.355-.484 4.366 0 1.534.119 1.923.726 2.361.974.704 3.722.485 4.33-.346zm-30.145-37.33c.156-12.603.162-12.657 2.046-16.537 1.254-2.58 4.514-5.819 7.233-7.183 3.18-1.595 6.148-2.107 11.132-1.918 4.671.177 7.107.848 10.137 2.792 3.568 2.29 6.663 6.928 7.424 11.128.202 1.117.347 6.395.347 12.665v10.75l31.703-.005c26.796-.004 32.015-.078 33.72-.48 6.415-1.513 11.914-6.659 13.46-12.597.586-2.25.695-15.826.146-18.208-1.28-5.552-5.883-10.315-12.074-12.492l-2.582-.908H52.434l-2.569.908c-6.13 2.167-10.474 6.596-11.966 12.203-.666 2.499-.656 15.881.012 18.448.737 2.83 1.906 4.846 4.249 7.33 1.652 1.751 2.744 2.566 4.81 3.59 1.47.729 3.446 1.512 4.391 1.74 1.332.322 8.163.422 30.323.444l28.604.027zm8.15 9.678c1.549-2.463 7.25-4.01 13.551-3.676 5.557.294 9.246 1.574 10.871 3.773.628.849.895.954 2.42.954h1.714l-.006-9.76c-.004-5.37-.15-10.778-.324-12.02-.688-4.892-4.088-9.418-8.703-11.585-2.039-.957-2.257-.989-7.576-1.101-6.39-.136-8.411.251-11.403 2.185-2.43 1.571-4.067 3.493-5.505 6.467l-1.17 2.42-.096 11.697-.096 11.697 2.839-.012c2.834-.013 2.84-.014 3.484-1.038zm99.368-44.231c1.644-2.805 2.112-5.746 2.112-13.275 0-3.755-.156-7.688-.347-8.741-.88-4.85-4.664-9.902-9.01-12.026-4.137-2.022-3.328-1.982-39.206-1.94-17.924.021-32.226.1-31.783.175 4.504.763 9.916 2.818 12.593 4.784 2.984 2.19 3.595 4.255 1.935 6.546-2.559 3.533-8.474 6.696-14.08 7.53l-2.395.356.202 1.528c.365 2.751-.323 3.33-4.988 4.193-1.71.316-4.109.836-5.332 1.156-1.893.493-2.539.526-4.338.218-3.836-.657-8.08-3.23-10.873-6.592-.704-.848-1.353-1.543-1.442-1.546-.088-.002-.594.826-1.124 1.839-1.275 2.44-3.796 4.908-6.826 6.682-2.997 1.754-10.432 4.86-10.746 4.487-.125-.147-1.015-2.154-1.978-4.46-1.654-3.96-1.751-4.344-1.751-6.937 0-2.548.091-2.93 1.277-5.327.702-1.42 1.339-2.713 1.415-2.874.079-.168-.123-.184-.47-.038-3.243 1.365-4.206 1.287-6.476-.528-.677-.542-2.902-2.12-4.944-3.506-4.138-2.81-6.654-5.111-7.313-6.687l-.438-1.048-3.949.003c-5.28.003-7.623.424-10.749 1.932-4.426 2.134-7.746 6.236-9 11.12-.373 1.451-.494 3.727-.494 9.261 0 7.829.222 9.655 1.538 12.637.703 1.593.932 1.85 1.501 1.693 2.853-.786 8.96-.841 83.76-.757l78.893.09 1.936.693c1.065.382 1.967.708 2.003.726.037.018.436-.597.887-1.367zm-122.236-7.52c1.505-.647 2.619-1.294 2.475-1.439-.411-.41-7.328-4.138-7.451-4.015-.06.06.405 1.354 1.034 2.874.63 1.521 1.06 2.988.955 3.26-.263.685-.11.65 2.987-.68zm11.493-5.66c1.02-1.081 1.851-2.127 1.846-2.325-.005-.198-3.44-2.317-7.635-4.71s-7.819-4.543-8.053-4.778c-.881-.881-4.463 5.948-4.244 8.09.09.873.598 1.224 6.39 4.412l6.291 3.465 1.775-1.094c.976-.602 2.61-1.979 3.63-3.06zm20.926 1.612c.603-.21 2.621-.683 4.484-1.049l3.389-.666.1-1.033c.055-.569-.031-1.513-.192-2.098-.427-1.561.3-2.192 2.539-2.198 4.338-.012 9.691-2.316 13.121-5.647 1.11-1.077 2.017-2.201 2.017-2.498 0-.832-1.68-2.544-3.675-3.745-6.682-4.025-19.152-5.148-25.6-2.306-3.093 1.363-3.882 2.18-7.865 8.145-2.111 3.163-3.84 5.858-3.84 5.99 0 .54 2.978 3.587 4.594 4.7 3.678 2.533 7.898 3.462 10.928 2.405zm-18.74-7.281c.35-.987.27-.855 2.175-3.578l1.376-1.967-.73-.468c-1.276-.816-14.574-8.265-14.756-8.265-.096 0-.746 1.465-1.444 3.257-.882 2.265-1.177 3.401-.967 3.73.287.45 13.257 8.134 13.781 8.164.138.008.392-.385.565-.873zm-19.207-7.146c1.569-.904 1.66-1.04 3.28-4.918.917-2.194 1.895-4.522 2.172-5.174.499-1.17.489-1.217-.78-3.753-3.441-6.874-12.813-13.453-20.16-14.15-2.356-.224-4.535.308-5.027 1.228-1.143 2.135 2.515 10.31 5.7 12.74 1.601 1.222 1.488 2.142-.35 2.844-1.023.39-1.453.738-1.453 1.172 0 .923 1.877 2.827 4.894 4.963 1.48 1.047 3.983 2.822 5.565 3.943 1.757 1.247 3.2 2.038 3.71 2.037.46-.002 1.562-.421 2.449-.932zm26.578-2.389c1.916-2.906 1.978-3.066 1.966-5.082l-.012-2.081-7.974-3.767-7.974-3.767-1.662 1.731c-.914.952-2.168 2.683-2.786 3.847l-1.123 2.116 8.755 5c4.815 2.751 8.772 5.002 8.793 5.003.021 0 .929-1.35 2.017-3zm-15.72-4.12c-2.192-1.254-4.04-2.224-4.109-2.156-.156.156 7.336 4.43 7.771 4.432.178.001-1.47-1.023-3.662-2.277zm21.893-1.608c.799-.405 2.396-.994 3.55-1.309l2.097-.571-4.598-.02-4.598-.02v4.228l1.049-.786c.576-.432 1.702-1.117 2.5-1.522zm-49.707-4.155l.79-.608-1.124-1.245c-3.83-4.239-6.096-10.865-4.664-13.634.96-1.857 5.41-2.544 9.54-1.474 7.818 2.026 16.508 9.166 19.24 15.81.327.796.671 1.449.764 1.45.093 0 .455-.53.805-1.18.871-1.619 3.878-4.612 5.712-5.686.832-.488 2.442-1.131 3.577-1.429 1.767-.463 2.322-.483 3.863-.138 3.271.732 5.53 3.003 6.678 6.717l.581 1.878 37.206.082 37.205.082.92-.881c3.02-2.894 3.92-6.018 3.742-12.987-.124-4.82-.168-5.094-1.148-7.186-.593-1.265-1.674-2.83-2.586-3.742-1.813-1.813-5.558-3.774-8.113-4.248-1.113-.206-20.571-.32-54.048-.317-57.489.005-54.423-.098-58.285 1.96-2.401 1.28-4.951 3.844-6.052 6.086-.873 1.777-.88 1.843-.88 8.567v6.776l.9 1.705c1.187 2.254 3.03 4.266 3.898 4.257.378-.004 1.044-.28 1.479-.615zm43.573-1.002c-.605-2.112-2.595-4.49-4.293-5.131-1.779-.672-6.618-.073-6.464.8.046.259 10.33 5.305 10.819 5.308.12.001.093-.439-.062-.977zm52.88-31.127c.81-1.541.848-1.837.848-6.615 0-4.594-.06-5.114-.74-6.386-1.536-2.88-4.54-4.983-8.604-6.027-2.83-.726-56.394-.733-59.472-.007-3.85.908-6.784 2.867-8.395 5.608-.824 1.4-.882 1.764-.988 6.151-.116 4.837.084 6.137 1.233 8.003l.647 1.05 37.31-.082 37.311-.082z"/>
        <path fill="url(#linearGradient76)" d="M103.08 74.066c-3.255.84-5.841 2.242-7.851 4.254-2.586 2.589-2.945 3.778-2.941 9.746.002 4.282.072 4.85.777 6.364l.773 1.662-6.666.14c-5.802.123-6.957.235-8.923.871-2.982.965-5.492 2.516-7.457 4.608-3.558 3.786-4.105 5.649-3.942 13.43.132 6.315.357 7.179 2.688 10.423l1.127 1.569H67.65c-3.56 0-6.955.778-9.94 2.277-2.74 1.377-6.526 5.218-7.933 8.049-1.81 3.638-2.023 5.092-2.018 13.701.005 8.368.278 10.458 1.739 13.34l.779 1.537-2.445 1.26c-3 1.544-6.57 4.993-8.036 7.762-2.033 3.843-2.206 4.944-2.195 13.867.011 9.004.175 9.902 2.549 13.953 2.38 4.06 7.92 8.06 12.682 9.158 1.637.377 1.665.404.966.867-1.67 1.107-3.912 3.56-4.625 5.06-.697 1.469-.767 2.037-.767 6.294s.07 4.823.767 6.29c2.247 4.732 9.166 8.379 17.414 9.178 3.94.382 128.723.4 133.022.02 6.635-.587 12.306-2.808 15.627-6.121 2.72-2.715 3.031-3.576 3.158-8.723.06-2.449-.04-4.85-.23-5.484-.545-1.82-2.13-4.048-3.842-5.4l-1.592-1.26 2.762-.52c7.17-1.354 13.247-6.485 15.57-13.148.653-1.873.744-2.858.861-9.198.153-8.227-.172-10.497-2.052-14.318-1.409-2.86-4.587-6.238-7.309-7.77-1.02-.573-1.854-1.066-1.852-1.093.002-.028.43-.886.948-1.908 1.732-3.416 2.027-5.708 1.884-14.664-.12-7.615-.166-8.104-.94-10.137-1.228-3.218-2.424-5.068-4.772-7.383-4.087-4.029-8.236-5.486-15.623-5.486h-4.522l.662-.727c1.09-1.196 2.219-3.202 2.813-4.998.469-1.419.544-2.67.455-7.754l-.108-6.06-1.09-2.211c-1.442-2.928-4.113-5.548-7.197-7.059-3.58-1.754-6.241-2.168-13.94-2.168h-6.607l.866-1.533c.837-1.485.865-1.693.865-6.695 0-4.64-.073-5.32-.711-6.702-1.488-3.222-5.522-6.074-10.127-7.16-3.131-.738-57.628-.738-60.486 0zm.573 1.28c3.078-.726 56.642-.719 59.47.007 4.065 1.044 7.07 3.148 8.606 6.028.679 1.272.738 1.793.738 6.386 0 4.779-.036 5.072-.847 6.614l-.85 1.615-37.31.082-37.311.082-.647-1.05c-1.149-1.867-1.348-3.168-1.232-8.005.106-4.387.163-4.75.986-6.15 1.611-2.74 4.546-4.701 8.397-5.61zm30.455 22.43c33.477-.004 52.934.11 54.047.316 2.555.474 6.3 2.434 8.113 4.248.911.91 1.993 2.477 2.586 3.742.98 2.092 1.025 2.365 1.148 7.186.18 6.968-.72 10.092-3.742 12.986l-.92.883-37.205-.082-37.205-.082-.582-1.88c-1.149-3.713-3.406-5.984-6.678-6.716-1.54-.345-2.096-.325-3.863.139-1.135.297-2.745.94-3.578 1.427-1.834 1.075-4.84 4.067-5.71 5.686-.345.64-.702 1.164-.802 1.18h-.006c-.099-.021-.44-.665-.763-1.45-2.732-6.642-11.421-13.783-19.239-15.808-4.13-1.07-8.58-.384-9.54 1.472-1.433 2.77.834 9.396 4.663 13.635l1.125 1.244-.79.61c-.436.334-1.1.609-1.48.613-.867.009-2.71-2.002-3.898-4.256l-.898-1.705v-6.777c0-6.724.006-6.79.879-8.567 1.101-2.242 3.652-4.806 6.053-6.086 3.862-2.058.796-1.953 58.285-1.959zm-21.443 22.32c.701.024 1.338.113 1.783.28 1.698.642 3.687 3.02 4.293 5.132.154.538.181.98.06.978-.489-.004-10.772-5.05-10.818-5.308-.116-.655 2.577-1.156 4.682-1.082zm-7.957 1.601l7.974 3.766 7.973 3.767.011 2.082c.012 2.016-.048 2.177-1.964 5.082-1.089 1.65-1.997 3.001-2.018 3-.02 0-3.978-2.253-8.793-5.003l-8.756-5 1.123-2.116c.618-1.163 1.873-2.895 2.787-3.847zm-31.147 7.049l.438 1.049c.658 1.575 3.174 3.875 7.312 6.685 2.042 1.387 4.268 2.967 4.945 3.508 2.27 1.815 3.232 1.892 6.475.528.347-.147.55-.13.47.037-.075.161-.711 1.455-1.413 2.875-1.186 2.396-1.278 2.778-1.278 5.326 0 2.593.096 2.977 1.75 6.937.964 2.306 1.854 4.314 1.979 4.461.314.372 7.749-2.733 10.746-4.488 3.03-1.773 5.55-4.241 6.826-6.682.513-.981 1.004-1.788 1.115-1.836l.002-.002h.01c.105.024.746.71 1.44 1.545 2.792 3.362 7.037 5.935 10.873 6.592 1.799.308 2.445.275 4.338-.219 1.223-.319 3.622-.837 5.332-1.154 4.664-.863 5.353-1.442 4.988-4.193l-.203-1.528 2.396-.357c5.606-.834 11.521-3.996 14.08-7.53 1.66-2.29 1.049-4.356-1.935-6.546-2.677-1.965-8.09-4.02-12.594-4.783-.444-.076 13.859-.153 31.783-.174 35.878-.042 35.07-.083 39.205 1.94 4.347 2.124 8.13 7.174 9.01 12.025.191 1.053.348 4.985.348 8.74 0 7.529-.468 10.47-2.112 13.275-.45.77-.85 1.385-.886 1.367-.037-.017-.94-.345-2.004-.726l-1.936-.694-78.892-.087c-74.8-.085-80.908-.031-83.76.755-.57.157-.799-.1-1.502-1.693-1.316-2.982-1.537-4.808-1.537-12.637 0-5.534.12-7.809.492-9.26 1.254-4.884 4.576-8.986 9.002-11.12 3.126-1.508 5.469-1.93 10.748-1.932zm47.764 0l4.597.02 4.6.019-2.098.572c-1.153.315-2.752.904-3.55 1.309-.8.405-1.924 1.089-2.5 1.521l-1.05.787v-2.115zm-22.453 1.371c.067-.068 1.917.903 4.109 2.156 2.192 1.254 3.84 2.279 3.662 2.278-.435-.003-7.928-4.278-7.771-4.434zm.523 1.533c.182 0 13.481 7.45 14.756 8.266l.73.469-1.377 1.966c-1.905 2.724-1.824 2.592-2.173 3.579-.173.488-.427.879-.565.87-.524-.03-13.494-7.711-13.781-8.161-.21-.33.084-1.466.967-3.73.698-1.792 1.347-3.259 1.443-3.259zm-4.289 8.057a.256.256 0 01.195.078c.235.235 3.859 2.384 8.053 4.777 4.194 2.394 7.632 4.514 7.637 4.711.005.198-.827 1.243-1.848 2.325-1.02 1.08-2.653 2.458-3.629 3.06l-1.775 1.094-6.291-3.465c-5.792-3.189-6.302-3.54-6.39-4.412-.206-2.009 2.93-8.136 4.048-8.168zm-2.432 12.096c.123-.123 7.04 3.604 7.451 4.015.145.145-.97.791-2.474 1.438-3.097 1.33-3.25 1.366-2.986.681.104-.272-.326-1.739-.956-3.26-.629-1.52-1.095-2.814-1.035-2.874zM54.37 166.338H215.06l2.582.908c6.191 2.177 10.795 6.94 12.074 12.492.55 2.382.44 15.958-.146 18.207-1.547 5.938-7.045 11.085-13.46 12.598-1.705.402-6.924.476-33.72.48l-31.703.004v-10.75c0-6.27-.145-11.547-.348-12.664-.761-4.2-3.855-8.839-7.423-11.129-3.03-1.944-5.466-2.614-10.137-2.79-4.984-.19-7.953.322-11.133 1.917-2.718 1.364-5.98 4.603-7.232 7.184-1.884 3.88-1.89 3.934-2.045 16.537l-.147 11.695L83.62 211c-22.16-.021-28.992-.121-30.323-.443-.945-.229-2.92-1.012-4.39-1.74-2.067-1.024-3.158-1.838-4.81-3.59-2.343-2.484-3.512-4.5-4.249-7.33-.669-2.568-.679-15.95-.014-18.45 1.493-5.606 5.837-10.034 11.967-12.2zm78.095 9.256c5.32.112 5.538.144 7.577 1.101 4.614 2.167 8.015 6.692 8.703 11.584.174 1.243.32 6.651.324 12.02l.006 9.761h-1.715c-1.525 0-1.79-.106-2.418-.955-1.626-2.199-5.315-3.479-10.871-3.773-6.3-.333-12.003 1.214-13.553 3.678-.644 1.024-.649 1.024-3.482 1.037l-2.84.014.096-11.698.095-11.697 1.17-2.42c1.438-2.974 3.075-4.896 5.506-6.467 2.992-1.933 5.012-2.32 11.402-2.185zM56.827 212.64H119.977l.229 2.742c.239 2.873.072 5.583-.674 10.992-.628 4.548-.03 6.245 2.54 7.219 3.443 1.304 4.852-.658 6.514-9.067.304-1.538.837-3.264 1.184-3.834.601-.988.698-1.025 2.121-.83 4.73.649 5.902 3.091 4.752 9.916-.98 5.816-.68 7.899 1.238 8.672.923.371-69.64.341-72.191-.031-6.999-1.02-12.324-3.96-14.229-7.852-.821-1.679-.844-1.888-.744-6.71.102-4.899.119-5.004 1.082-6.565.552-.894 1.864-2.256 3.004-3.12zm89.453 0h31.584c28.377 0 31.685.053 32.586.52 1.706.881 4.186 3.437 4.978 5.128.676 1.442.756 2.074.756 5.969 0 3.891-.08 4.527-.754 5.968-1.647 3.522-5.68 6.184-11.824 7.803-1.896.5-4.976.56-32.106.637-17.403.05-29.72-.033-29.326-.197 2.055-.853 2.503-3.127 1.576-7.971-.794-4.154-.643-6.614.686-11.135.643-2.188 1.32-4.597 1.506-5.351z" paint-order="markers stroke fill"/>
        <path fill="url(#linearGradient84)" d="M119.486 76.492c-6.557.216-13.243-.318-19.699 1.045-2.988.912-5.586 3.555-5.38 6.85-.081 3.738-.501 7.77 1.259 11.213 1.506 1.297 3.893.253 5.752.586 22.113-.082 44.232.12 66.342-.276 2.48.427 2.791-1.887 2.527-3.77-.185-3.715 1.083-8.246-1.951-11.171-2.887-3.122-7.21-4.514-11.399-4.242-12.481-.204-24.967-.23-37.45-.235zm3.809 22.91c-14.714.14-29.444-.186-44.147.446-4.69.02-9.332 3.695-10.12 8.355-.636 1.9 1.168 3.319 2.615 1.688 5.157-1.975 10.86.229 15.316 2.943 4.818 2.92 8.96 6.967 11.795 11.852 1.675 1.254 2.932-1.487 4.295-2.211 3.287-2.914 8.223-5.702 12.574-3.327 2.934 1.29 4.057 4.49 5.287 7.14 2.381 1.062 5.337.458 7.955.679 21.886.189 43.773.145 65.658.199 3.064-1.757 3.311-5.862 3.43-9.064-.068-2.872.34-5.86-.207-8.655-2.118-5.632-7.782-9.957-13.904-9.74-20.174-.47-40.368-.245-60.547-.305zm-53.336 30.912a12.137 12.137 0 00-.973.01c-5.49.109-12.062.197-15.814 4.905-3.27 3.91-4.07 9.17-3.81 14.115.24 4.686-.293 9.605 1.333 14.09 1.255 2.489 4.573 1.442 6.785 1.562 22.267-.464 44.612-.261 66.91-.36 29.805.066 59.642-.164 89.424.264 1.607-.458 3.663 1.452 4.92-.156 1.482-3.741 1.046-7.951 1.303-11.904.138-5.43.018-11.506-3.828-15.793-2.978-3.736-7.447-6.536-12.361-6.346-17.206-.594-34.433-.278-51.647-.373-2.278.807.243 2.631 1.428 3.113 2.239 1.241 4.508 4.108 2.603 6.586-3.657 4.838-9.382 7.703-15.097 9.346-1.385.83-1.155 2.848-2.633 3.693-2.355 2.473-6.08 2.257-9.137 3.211-3.205 1.019-6.741.883-9.773-.707-2.908-1.185-5.163-3.452-7.494-5.41-1.66-.27-2.332 2.019-3.61 2.86-4.35 3.998-9.817 6.661-15.355 8.48-1.386.46-1.426-1.777-2.053-2.547-1.946-4.013-3.468-8.917-1.48-13.197.834-1.01 1.12-3.261-.75-2.994-1.74.08-3.445.096-4.698-1.325-4.034-3.117-8.742-5.658-11.882-9.763-.375-1.066-1.329-1.32-2.311-1.36zm141.44 37.874c-1.475.045-2.97.192-4.405.054H51.144l-.316.07-.117.028c-4.678 1.795-9.216 5.11-10.574 10.172-1.234 5.203-.683 10.646-.643 15.947-.016 7.83 6.592 14.378 13.924 16.066 9.82.661 19.69.31 29.53.473 8.869-.059 17.801.206 26.63-.06 1.464-1.153.416-3.673.793-5.374.324-6.128-.218-12.375.99-18.423 1.735-5.337 6.365-9.19 11.096-11.873 4.531-1.997 9.563-1.557 14.371-1.092 6.656.992 12.015 6.854 13.322 13.318.957 7.474.18 15.278.63 22.865 1.058 1.467 3.469.356 5.072.7 19.383-.091 38.775.187 58.152-.338 3.749-.167 7.44-1.908 10.055-4.565a14.176 14.176 0 003.863-9.947c.019-5.778.923-11.814-.969-17.397-2.198-4.695-6.52-8.166-11.275-10.074-1.351-.542-2.805-.596-4.28-.55zm-95.288 45.958c-1.155-.043-2.48.282-3.545.077h-57.58l-.724.308c-2.001 1.727-3.64 4.045-3.471 6.813-.082 3.88-.963 8.666 2.398 11.523 4.015 4.116 10.003 5.681 15.616 5.565 20.468.39 40.946.41 61.416.19 1.578-.165 4.59.304 4.043-2.198-.205-4.34 2.199-9.108-.274-13.123-1.069-1.52-4.184-2.59-5.04-.344-.967 3.389-1.358 7.19-3.348 10.139-1.585.997-3.05 3.277-5.19 2.11-2.002-.615-3.268-2.61-2.851-4.698-.015-5.128 1.59-10.564.355-15.692-.478-.485-1.111-.643-1.805-.67zm30.504.051l-.707.29c-1.76 5-3.305 10.408-2.236 15.763.379 2.408.743 4.91.058 7.27.554 1.683 3.021.852 4.463 1.109 17.292-.016 34.592.127 51.877-.363 4.35-.021 8.735-1.515 12.055-4.332 2.826-2.998 2.036-7.403 2.049-11.147-.207-3.746-3.29-6.84-6.475-8.402l-61.084-.188z" paint-order="markers stroke fill"/>
        <path fill="#fffc2a" d="M93.66 142.24c-1.735.484-1.758 2.855-2.467 4.26-1.069 2.165 1.692 3.144 3.095 4.014 3.076 1.685 6.052 3.601 9.268 5.007 1.941-.21 3.244-2.152 4.621-3.387 1.365-1.852-1.584-2.869-2.734-3.63-3.845-2.062-7.42-4.791-11.543-6.256a1.596 1.596 0 00-.24-.009zM102.664 123.96c-1.332 1.562-2.836 3.255-3.25 5.295 2.565 2.246 5.95 3.551 8.838 5.426 2.68 1.345 5.151 3.342 8.071 4.105 1.55-.161.777-2.054 1.73-2.907.708-1.605 1.247-3.885.152-5.326-4.904-2.243-9.725-4.814-14.68-6.854-.357-.127-.597.06-.86.26z" paint-order="markers stroke fill"/>
        <path fill="#2f2f2f" d="M115.194 198.193v-10.9l1.11-2.317c1.481-3.09 3.312-5.032 5.616-5.955 1.665-.668 2.349-.733 7.801-.738l5.977-.006 2.196 1.081c2.801 1.379 5.376 3.966 6.691 6.722 1.27 2.662 1.565 5.54 1.577 15.412l.009 7.404-1.049-.997c-2.523-2.398-6.258-3.424-12.503-3.435-6.278-.011-9.426.86-12.557 3.475-1.208 1.01-1.596 1.153-3.123 1.153h-1.745zM103.953 141.83c-3.077-1.844-5.672-3.43-5.766-3.525-.217-.216.147-2.155.512-2.731.211-.333 1.694.366 6.449 3.04 3.396 1.91 6.174 3.596 6.174 3.747 0 .227-1.616 2.862-1.737 2.832-.02-.005-2.555-1.518-5.632-3.362z" paint-order="markers stroke fill"/>
    </g>
</svg>
