<?xml version="1.0" encoding="UTF-8" standalone="no"?>
<svg
   cursor="default"
   viewBox="0 0 256 256"
   version="1.1"
   id="svg48"
   sodipodi:docname="hive_clip.svg"
   inkscape:version="1.4.1-rc (832c77b156, 2025-02-28)"
   width="100%"
   height="100%"
   xmlns:inkscape="http://www.inkscape.org/namespaces/inkscape"
   xmlns:sodipodi="http://sodipodi.sourceforge.net/DTD/sodipodi-0.dtd"
   xmlns:xlink="http://www.w3.org/1999/xlink"
   xmlns="http://www.w3.org/2000/svg"
   xmlns:svg="http://www.w3.org/2000/svg">
  <defs
     id="defs48">
    <linearGradient
       id="linearGradient83"
       inkscape:collect="always">
      <stop
         style="stop-color:#de8d00;stop-opacity:1;"
         offset="0"
         id="stop83" />
      <stop
         style="stop-color:#ffb12a;stop-opacity:1;"
         offset="1"
         id="stop84" />
    </linearGradient>
    <linearGradient
       id="linearGradient75"
       inkscape:collect="always">
      <stop
         style="stop-color:#bbb23d;stop-opacity:1;"
         offset="0"
         id="stop75" />
      <stop
         style="stop-color:#ffffcb;stop-opacity:1;"
         offset="1"
         id="stop76" />
    </linearGradient>
    <inkscape:path-effect
       effect="fillet_chamfer"
       id="path-effect62"
       is_visible="true"
       lpeversion="1"
       nodesatellites_param="F,0,0,1,0,18,0,1 @ F,0,0,1,0,18,0,1 @ F,0,0,1,0,18,0,1 @ F,0,0,1,0,18,0,1"
       radius="18"
       unit="px"
       method="auto"
       mode="F"
       chamfer_steps="1"
       flexible="false"
       use_knot_distance="true"
       apply_no_radius="true"
       apply_with_radius="true"
       only_selected="false"
       hide_knots="false" />
    <inkscape:path-effect
       effect="fillet_chamfer"
       id="path-effect60"
       is_visible="true"
       lpeversion="1"
       nodesatellites_param="F,0,0,1,0,18,0,1 @ F,0,0,1,0,18,0,1 @ F,0,0,1,0,18,0,1 @ F,0,0,1,0,18,0,1"
       radius="18"
       unit="px"
       method="auto"
       mode="F"
       chamfer_steps="1"
       flexible="false"
       use_knot_distance="true"
       apply_no_radius="true"
       apply_with_radius="true"
       only_selected="false"
       hide_knots="false" />
    <inkscape:path-effect
       effect="fillet_chamfer"
       id="path-effect58"
       is_visible="true"
       lpeversion="1"
       nodesatellites_param="F,0,0,1,0,18,0,1 @ F,0,0,1,0,18,0,1 @ F,0,0,1,0,18,0,1 @ F,0,0,1,0,18,0,1"
       radius="18"
       unit="px"
       method="auto"
       mode="F"
       chamfer_steps="1"
       flexible="false"
       use_knot_distance="true"
       apply_no_radius="true"
       apply_with_radius="true"
       only_selected="false"
       hide_knots="false" />
    <inkscape:path-effect
       effect="fillet_chamfer"
       id="path-effect44"
       is_visible="true"
       lpeversion="1"
       nodesatellites_param="F,0,0,1,0,18,0,1 @ F,0,0,1,0,18,0,1 @ F,0,0,1,0,18,0,1 @ F,0,0,1,0,18,0,1"
       radius="18"
       unit="px"
       method="auto"
       mode="F"
       chamfer_steps="1"
       flexible="false"
       use_knot_distance="true"
       apply_no_radius="true"
       apply_with_radius="true"
       only_selected="false"
       hide_knots="false" />
    <inkscape:path-effect
       effect="fillet_chamfer"
       id="path-effect42"
       is_visible="true"
       lpeversion="1"
       nodesatellites_param="F,0,0,1,0,16,0,1 @ F,0,0,1,0,16,0,1 @ F,0,0,1,0,16,0,1 @ F,0,0,1,0,16,0,1"
       radius="16"
       unit="px"
       method="auto"
       mode="F"
       chamfer_steps="1"
       flexible="false"
       use_knot_distance="true"
       apply_no_radius="true"
       apply_with_radius="true"
       only_selected="false"
       hide_knots="false" />
    <inkscape:path-effect
       effect="fillet_chamfer"
       id="path-effect41"
       is_visible="true"
       lpeversion="1"
       nodesatellites_param="F,0,0,1,0,18,0,1 @ F,0,0,1,0,18,0,1 @ F,0,0,1,0,18,0,1 @ F,0,0,1,0,18,0,1"
       radius="18"
       unit="px"
       method="auto"
       mode="F"
       chamfer_steps="1"
       flexible="false"
       use_knot_distance="true"
       apply_no_radius="true"
       apply_with_radius="true"
       only_selected="false"
       hide_knots="false" />
    <inkscape:path-effect
       effect="fillet_chamfer"
       id="path-effect39"
       is_visible="true"
       lpeversion="1"
       nodesatellites_param="F,0,0,1,0,18,0,1 @ F,0,0,1,0,18,0,1 @ F,0,0,1,0,18,0,1 @ F,0,0,1,0,18,0,1"
       radius="18"
       unit="px"
       method="auto"
       mode="F"
       chamfer_steps="1"
       flexible="false"
       use_knot_distance="true"
       apply_no_radius="true"
       apply_with_radius="true"
       only_selected="false"
       hide_knots="false" />
    <inkscape:path-effect
       effect="fillet_chamfer"
       id="path-effect38"
       is_visible="true"
       lpeversion="1"
       nodesatellites_param="F,0,0,1,0,18,0,1 @ F,0,0,1,0,18,0,1 @ F,0,0,1,0,18,0,1 @ F,0,0,1,0,18,0,1"
       radius="18"
       unit="px"
       method="auto"
       mode="F"
       chamfer_steps="1"
       flexible="false"
       use_knot_distance="true"
       apply_no_radius="true"
       apply_with_radius="true"
       only_selected="false"
       hide_knots="false" />
    <inkscape:path-effect
       effect="fillet_chamfer"
       id="path-effect37"
       is_visible="true"
       lpeversion="1"
       nodesatellites_param="F,0,0,1,0,18,0,1 @ F,0,0,1,0,18,0,1 @ F,0,0,1,0,18,0,1 @ F,0,0,1,0,18,0,1"
       radius="18"
       unit="px"
       method="auto"
       mode="F"
       chamfer_steps="1"
       flexible="false"
       use_knot_distance="true"
       apply_no_radius="true"
       apply_with_radius="true"
       only_selected="false"
       hide_knots="false" />
    <inkscape:path-effect
       effect="mirror_symmetry"
       start_point="131.9731,120.67956"
       end_point="131.9731,174.56588"
       center_point="131.9731,147.62272"
       id="path-effect16"
       is_visible="true"
       lpeversion="1.2"
       lpesatellites=""
       mode="free"
       discard_orig_path="false"
       fuse_paths="false"
       oposite_fuse="false"
       split_items="false"
       split_open="false"
       link_styles="false" />
    <inkscape:perspective
       sodipodi:type="inkscape:persp3d"
       inkscape:vp_x="38.629155 : 126.0358 : 1"
       inkscape:vp_y="0 : 1000 : 0"
       inkscape:vp_z="256 : 128 : 1"
       inkscape:persp3d-origin="128 : 85.333333 : 1"
       id="perspective1" />
    <linearGradient
       inkscape:collect="always"
       xlink:href="#linearGradient75"
       id="linearGradient76"
       x1="36.751558"
       y1="156.76756"
       x2="232.80503"
       y2="156.76756"
       gradientUnits="userSpaceOnUse" />
    <linearGradient
       inkscape:collect="always"
       xlink:href="#linearGradient83"
       id="linearGradient84"
       x1="38.482465"
       y1="157.62714"
       x2="229.01424"
       y2="157.62714"
       gradientUnits="userSpaceOnUse" />
  </defs>
  <sodipodi:namedview
     id="namedview48"
     pagecolor="#ffffff"
     bordercolor="#666666"
     borderopacity="1.0"
     inkscape:showpageshadow="2"
     inkscape:pageopacity="0.0"
     inkscape:pagecheckerboard="0"
     inkscape:deskcolor="#d1d1d1"
     inkscape:zoom="2.1914063"
     inkscape:cx="132.79144"
     inkscape:cy="145.1123"
     inkscape:window-width="1854"
     inkscape:window-height="1010"
     inkscape:window-x="0"
     inkscape:window-y="0"
     inkscape:window-maximized="1"
     inkscape:current-layer="svg48"
     showgrid="false" />
  <g
     id="g127"
     transform="matrix(2.7867391,0.4675126,-0.39126764,3.4874852,-189.75198,-382.05224)"
     style="display:inline;stroke-width:0.317795">
    <rect
       style="fill:#ff8080;fill-opacity:1;stroke:#000000;stroke-width:0.317795;stroke-linecap:round;stroke-linejoin:round;stroke-dasharray:none;stroke-opacity:1"
       id="rect23"
       width="72.347832"
       height="11.785167"
       x="97.5"
       y="123.5" />
  </g>
  <g
     id="g128"
     style="display:inline;stroke-width:0.317795"
     transform="matrix(2.7867391,0.4675126,-0.39126764,3.4874852,-185.43756,-385.06696)">
    <rect
       style="fill:#ff8080;fill-opacity:1;stroke:#000000;stroke-width:0.317795;stroke-linecap:round;stroke-linejoin:round;stroke-dasharray:none;stroke-opacity:1"
       id="rect127"
       width="72.347832"
       height="11.785167"
       x="97.5"
       y="123.5" />
    <path
       style="fill:none;fill-opacity:1;stroke:#ff5555;stroke-width:0.858047;stroke-linecap:butt;stroke-linejoin:miter;stroke-dasharray:none;stroke-opacity:1"
       d="M 169.42354,133.21162 H 99.525936 l -0.230855,-9.24304"
       id="path127"
       sodipodi:nodetypes="ccc" />
    <path
       style="fill:none;fill-opacity:1;stroke:#ffd5d5;stroke-width:0.858047;stroke-linecap:butt;stroke-linejoin:miter;stroke-dasharray:none;stroke-opacity:1"
       d="m 100.80301,125.78801 h 66.8717 l 0.22843,8.01841"
       id="path128"
       sodipodi:nodetypes="ccc" />
  </g>
  <g
     inkscape:groupmode="layer"
     id="layer1"
     inkscape:label="Layer 1">
    <path
       style="display:inline;fill:#000000;fill-opacity:1;stroke:#000000;stroke-width:1.7;stroke-linecap:round;stroke-linejoin:round;stroke-dasharray:none;stroke-opacity:1"
       d="m 64.651781,241.33938 c -8.248851,-0.7995 -15.167319,-4.44516 -17.414375,-9.17643 -0.697138,-1.46786 -0.766245,-2.03534 -0.766245,-6.29212 0,-4.25678 0.06911,-4.82426 0.766245,-6.29212 0.713179,-1.50162 2.955508,-3.95459 4.626708,-5.06133 0.698894,-0.46283 0.66986,-0.48881 -0.968018,-0.86619 -4.762194,-1.09726 -10.301853,-5.09789 -12.681685,-9.15845 -2.374104,-4.05079 -2.538345,-4.94984 -2.549286,-13.95456 -0.01084,-8.92242 0.163623,-10.02367 2.196862,-13.86713 1.464818,-2.76896 5.034298,-6.2172 8.034589,-7.76168 l 2.444791,-1.25853 -0.779222,-1.53772 c -1.460333,-2.88183 -1.732719,-4.97277 -1.737864,-13.34051 -0.0053,-8.60953 0.20871,-10.06266 2.017713,-13.70071 1.407621,-2.83085 5.193119,-6.67077 7.934056,-8.04813 2.984157,-1.49958 6.378678,-2.2774 9.938906,-2.2774 h 3.013236 l -1.127534,-1.56944 c -2.330998,-3.24458 -2.55334,-4.10745 -2.685705,-10.42273 -0.163078,-7.7806 0.383872,-9.64455 3.940908,-13.43021 1.965595,-2.09194 4.474898,-3.642212 7.456212,-4.60654 1.96607,-0.63594 3.122316,-0.74882 8.924434,-0.871256 l 6.665722,-0.14066 -0.773794,-1.661897 c -0.704569,-1.513208 -0.774082,-2.08258 -0.776951,-6.363838 -0.004,-5.968208 0.355085,-7.158258 2.941003,-9.746818 2.00977,-2.011822 4.597249,-3.413496 7.852503,-4.253814 2.85858,-0.737918 57.35465,-0.73723 60.48553,7.65e-4 4.60528,1.085533 8.63941,3.937788 10.12758,7.160505 0.6384,1.382503 0.71041,2.061784 0.71041,6.701213 0,5.002784 -0.0268,5.210255 -0.86463,6.695457 l -0.86464,1.532695 h 6.60568 c 7.69804,0 10.36167,0.414265 13.94114,2.168215 3.08406,1.511193 5.75478,4.130093 7.19701,7.057363 l 1.08994,2.21223 0.10584,6.06094 c 0.0888,5.08347 0.0156,6.33377 -0.45348,7.75267 -0.59375,1.79591 -1.72323,3.80254 -2.81386,4.99914 l -0.66173,0.72601 h 4.52205 c 7.38705,0 11.53625,1.45687 15.62272,5.48544 2.34808,2.31481 3.54367,4.16509 4.77055,7.38289 0.77503,2.03269 0.82056,2.52276 0.94176,10.13704 0.14257,8.9564 -0.15188,11.2481 -1.884,14.66337 -0.51846,1.02226 -0.94449,1.8811 -0.94674,1.90852 -0.002,0.0274 0.83083,0.51948 1.85128,1.09345 2.72227,1.53119 5.89942,4.90954 7.30772,7.77049 1.8809,3.82107 2.20649,6.0907 2.05402,14.31863 -0.11746,6.33912 -0.20978,7.32324 -0.86262,9.19617 -2.3225,6.66304 -8.39906,11.7944 -15.57014,13.14823 l -2.76084,0.52122 1.59199,1.25839 c 1.71143,1.35282 3.29603,3.5808 3.84098,5.40053 0.19012,0.63486 0.29119,3.03669 0.23084,5.48543 -0.12685,5.14656 -0.43844,6.00666 -3.15946,8.72119 -3.32057,3.31264 -8.99142,5.53406 -15.62699,6.1215 -4.29872,0.38056 -129.082228,0.36229 -133.021119,-0.0195 z m 71.292869,-1.27405 c -1.91921,-0.77307 -2.21627,-2.85624 -1.23668,-8.67242 1.14946,-6.82475 -0.0217,-9.26883 -4.75212,-9.91721 -1.4229,-0.19503 -1.52071,-0.15669 -2.1218,0.83171 -0.34657,0.5699 -0.87889,2.29451 -1.18293,3.83249 -1.66226,8.40859 -3.07262,10.37131 -6.51523,9.06694 -2.56995,-0.97372 -3.16706,-2.67099 -2.5398,-7.21916 0.74601,-5.40921 0.91181,-8.11898 0.6725,-10.99179 l -0.22835,-2.74127 H 86.465906 54.89157 l -2.024174,1.53269 c -1.140274,0.86341 -2.451746,2.22543 -3.003335,3.11911 -0.963516,1.56106 -0.980819,1.66593 -1.08298,6.56419 -0.100594,4.82311 -0.07747,5.03164 0.744131,6.71093 1.904382,3.89242 7.230673,6.83167 14.229571,7.85243 2.551714,0.37215 73.112027,0.4028 72.189867,0.0314 z m 65.72573,-0.42351 c 6.14369,-1.6191 10.17614,-4.27989 11.82332,-7.80155 0.6741,-1.44122 0.75461,-2.07813 0.75461,-5.96944 0,-3.8946 -0.0801,-4.527 -0.75608,-5.96944 -0.79263,-1.69135 -3.27294,-4.24602 -4.97897,-5.12825 -0.90094,-0.46589 -4.20868,-0.51852 -32.5863,-0.51852 h -31.58358 l -0.33718,1.37135 c -0.18546,0.75425 -0.86333,3.16171 -1.50639,5.34991 -1.3287,4.52126 -1.48003,6.98076 -0.68514,11.13478 0.92698,4.84433 0.47691,7.11903 -1.57732,7.97173 -0.39521,0.16405 11.92354,0.24702 29.32711,0.19752 27.12907,-0.0772 30.20981,-0.13838 32.10592,-0.63809 z m -61.09229,-1.36761 c 0.5962,-0.81535 0.53915,-2.47 -0.24103,-6.99027 -0.79088,-4.58223 -0.6895,-5.51296 1.3305,-12.21468 1.35041,-4.48024 1.41959,-5.55919 0.4737,-7.38835 -1.71365,-3.31383 -13.30425,-4.62677 -19.70467,-2.23206 -2.22412,0.83215 -3.49994,2.27018 -3.24173,3.65388 0.46351,2.48384 0.57178,8.58233 0.2009,11.31607 -0.21669,1.59723 -0.46915,4.16005 -0.56103,5.69515 -0.1606,2.68319 -0.13687,2.81088 0.61375,3.3027 0.42944,0.28139 1.24476,0.6044 1.81182,0.71781 1.90872,0.38175 2.4568,-0.61168 3.75551,-6.80709 1.49514,-7.13248 2.4594,-8.08648 6.85435,-6.78132 4.2356,1.25784 5.43654,4.55211 4.1364,11.34651 -0.26617,1.391 -0.48398,3.35577 -0.48401,4.36617 -4e-5,1.53457 0.11949,1.92346 0.72596,2.36174 0.9741,0.70396 3.72236,0.48417 4.32958,-0.34626 z m -30.14541,-37.32984 c 0.15589,-12.60307 0.16265,-12.65775 2.04654,-16.53697 1.25336,-2.58087 4.51384,-5.81915 7.23232,-7.18309 3.18049,-1.59573 6.1485,-2.10721 11.1322,-1.91843 4.67147,0.17695 7.10745,0.8479 10.13723,2.7921 3.56826,2.28975 6.66256,6.92789 7.42401,11.1281 0.20242,1.11661 0.34709,6.39539 0.34709,12.6649 v 10.75027 l 31.70259,-0.005 c 26.79634,-0.004 32.01486,-0.0784 33.72044,-0.48054 6.4146,-1.51241 11.91378,-6.65859 13.46036,-12.59634 0.5859,-2.24943 0.69461,-15.82686 0.14578,-18.20862 -1.27931,-5.55191 -5.88329,-10.31512 -12.0746,-12.49219 l -2.58138,-0.9077 H 132.77978 52.4343 l -2.569077,0.90802 c -6.130263,2.16669 -10.47435,6.5965 -11.966474,12.20263 -0.665267,2.4995 -0.656131,15.88148 0.01259,18.44889 0.737014,2.82959 1.905572,4.84553 4.24826,7.32891 1.652837,1.75209 2.744432,2.56686 4.810752,3.59077 1.470038,0.72843 3.446008,1.51154 4.391043,1.74024 1.331115,0.32213 8.162942,0.42199 30.322418,0.44325 l 28.604178,0.0275 z m 8.14951,9.67812 c 1.5495,-2.46321 7.25161,-4.01019 13.55225,-3.67674 5.55636,0.29407 9.24514,1.57451 10.87091,3.77348 0.62743,0.84864 0.89463,0.954 2.41934,0.954 h 1.71402 l -0.006,-9.76084 c -0.004,-5.36847 -0.14935,-10.77727 -0.32408,-12.01956 -0.68809,-4.89214 -4.08788,-9.41778 -8.70257,-11.58445 -2.03862,-0.95716 -2.25711,-0.98894 -7.57609,-1.10171 -6.39036,-0.13549 -8.4111,0.25182 -11.40294,2.18553 -2.43074,1.57107 -4.06675,3.49304 -5.50497,6.46723 l -1.17026,2.42004 -0.0957,11.69688 -0.0957,11.69688 2.83841,-0.0124 c 2.83371,-0.0124 2.83948,-0.0141 3.48376,-1.03832 z m 99.36924,-44.23189 c 1.64341,-2.80428 2.11129,-5.74608 2.11129,-13.2748 0,-3.75462 -0.15619,-7.68817 -0.3471,-8.74121 -0.87928,-4.85017 -4.6638,-9.90121 -9.0104,-12.02581 -4.13616,-2.02173 -3.32715,-1.98171 -39.20473,-1.9395 -17.92446,0.0211 -32.22692,0.0998 -31.78325,0.17491 4.50391,0.76252 9.91591,2.81824 12.59297,4.78338 2.98415,2.19057 3.59462,4.25551 1.93528,6.54615 -2.55929,3.533 -8.47452,6.69649 -14.08038,7.53026 l -2.3955,0.35629 0.20271,1.52803 c 0.3649,2.7508 -0.32321,3.3292 -4.98783,4.19258 -1.70982,0.31648 -4.10952,0.83655 -5.33266,1.15573 -1.89256,0.49385 -2.53885,0.52637 -4.33773,0.21824 -3.83597,-0.65708 -8.08054,-3.23046 -10.87275,-6.59191 -0.70435,-0.84794 -1.35324,-1.54342 -1.44197,-1.54552 -0.0887,-0.002 -0.59454,0.82519 -1.12401,1.83843 -1.27538,2.44067 -3.79641,4.90851 -6.82594,6.68193 -2.99727,1.75453 -10.432061,4.85928 -10.74637,4.48766 -0.124574,-0.14729 -1.014654,-2.15424 -1.977961,-4.45989 -1.654462,-3.95991 -1.751467,-4.34415 -1.751467,-6.93746 0,-2.54813 0.09175,-2.93083 1.277087,-5.32675 0.7024,-1.41976 1.339324,-2.71342 1.415387,-2.8748 0.07892,-0.16745 -0.123045,-0.18342 -0.470405,-0.0372 -3.242585,1.36487 -4.205289,1.28631 -6.475452,-0.52843 -0.677629,-0.54168 -2.902663,-2.11949 -4.944522,-3.50624 -4.138122,-2.81044 -6.65399,-5.1108 -7.312639,-6.68624 l -0.438428,-1.04868 -3.94841,0.003 c -5.279575,0.003 -7.62334,0.42448 -10.749284,1.93187 -4.426029,2.13432 -7.746021,6.23662 -9.000258,11.12106 -0.372473,1.45039 -0.493834,3.72629 -0.493834,9.26081 0,7.82832 0.222338,9.65442 1.538549,12.63635 0.70299,1.59266 0.931509,1.85055 1.500725,1.6936 2.85243,-0.7865 8.959583,-0.84171 83.759662,-0.75731 l 78.89345,0.089 1.93604,0.6938 c 1.06482,0.38158 1.96621,0.70829 2.0031,0.72601 0.0369,0.0177 0.43605,-0.59741 0.88703,-1.36694 z M 95.715494,158.87008 c 1.505003,-0.64654 2.618362,-1.29353 2.474134,-1.43776 -0.411072,-0.41107 -7.327595,-4.13874 -7.450746,-4.01559 -0.06053,0.0605 0.404935,1.35416 1.034378,2.87473 0.629441,1.52057 1.059005,2.9873 0.954585,3.25941 -0.262736,0.68468 -0.10966,0.6498 2.987649,-0.68079 z m 11.492486,-5.65898 c 1.02045,-1.08117 1.85122,-2.12744 1.84616,-2.32504 -0.005,-0.19761 -3.44103,-2.3173 -7.63548,-4.71042 -4.194456,-2.39313 -7.818234,-4.54309 -8.052839,-4.7777 -0.880903,-0.8809 -4.463001,5.94806 -4.243803,8.09045 0.08924,0.87227 0.597664,1.22336 6.389076,4.41192 l 6.292116,3.46425 1.7747,-1.09385 c 0.97608,-0.60162 2.60961,-1.97844 3.63007,-3.05961 z m 20.92557,1.61175 c 0.60326,-0.21048 2.62146,-0.68238 4.48489,-1.04869 l 3.38807,-0.66601 0.1,-1.03363 c 0.055,-0.56851 -0.031,-1.51232 -0.19106,-2.09738 -0.42728,-1.56161 0.30043,-2.19174 2.53818,-2.19785 4.33806,-0.0118 9.69167,-2.31585 13.12184,-5.6472 1.10919,-1.07723 2.0167,-2.20141 2.0167,-2.49817 0,-0.83149 -1.68042,-2.54399 -3.67512,-3.74527 -6.68228,-4.02433 -19.15213,-5.14737 -25.59989,-2.30554 -3.09293,1.36319 -3.8823,2.18072 -7.86487,8.14531 -2.11174,3.16272 -3.83954,5.85787 -3.83954,5.98923 0,0.54075 2.9771,3.58752 4.59284,4.70033 3.67845,2.53345 7.89796,3.46202 10.92797,2.40487 z m -18.73974,-7.2808 c 0.3497,-0.9867 0.26962,-0.85496 2.17507,-3.57813 l 1.37619,-1.96677 -0.73084,-0.46779 c -1.27489,-0.81601 -14.57361,-8.26557 -14.755449,-8.26557 -0.09578,0 -0.745342,1.46568 -1.44347,3.25706 -0.882806,2.26526 -1.1774,3.40129 -0.96744,3.73071 0.287053,0.45037 13.256949,8.13303 13.781449,8.16338 0.1375,0.008 0.39152,-0.38485 0.56449,-0.87289 z M 90.186995,140.3956 c 1.568928,-0.90336 1.659277,-1.0388 3.280355,-4.91773 0.916845,-2.19383 1.894198,-4.522 2.171893,-5.17372 0.498574,-1.1701 0.488797,-1.21712 -0.780455,-3.753 -3.440758,-6.87443 -12.813239,-13.45313 -20.160078,-14.15069 -2.355488,-0.22366 -4.535031,0.30884 -5.027043,1.22817 -1.142954,2.13563 2.51494,10.31127 5.700512,12.74103 1.601237,1.22132 1.487731,2.14143 -0.350796,2.84357 -1.022166,0.39037 -1.452027,0.73741 -1.452027,1.17226 0,0.92295 1.877019,2.82632 4.894121,4.96284 1.478776,1.04717 3.98268,2.82157 5.564227,3.94311 1.757382,1.24623 3.200313,2.03799 3.710735,2.03614 0.459357,-0.002 1.561207,-0.42106 2.448556,-0.93198 z m 26.577855,-2.3884 c 1.91615,-2.90591 1.97829,-3.0665 1.96649,-5.08209 l -0.0122,-2.08137 -7.97397,-3.76698 -7.97396,-3.76699 -1.66238,1.73133 c -0.91432,0.95222 -2.167905,2.68333 -2.785761,3.8469 l -1.123375,2.11557 8.755196,5.00114 c 4.81536,2.75063 8.77232,5.00161 8.79324,5.00218 0.0209,6.5e-4 0.92843,-1.34929 2.0167,-2.99969 z m -15.71998,-4.12078 c -2.191788,-1.25339 -4.040557,-2.22341 -4.108377,-2.15559 -0.156244,0.15625 7.335747,4.42967 7.770767,4.43244 0.17747,10e-4 -1.4706,-1.02345 -3.66239,-2.27685 z m 21.8934,-1.6079 c 0.79861,-0.40497 2.39584,-0.99363 3.54939,-1.30813 l 2.09738,-0.57183 -4.59809,-0.0194 -4.59808,-0.0194 v 2.11379 2.11379 l 1.04868,-0.78625 c 0.57678,-0.43243 1.7021,-1.11758 2.50072,-1.52255 z m -49.707327,-4.15436 0.790939,-0.60787 -1.124692,-1.24489 c -3.829672,-4.23899 -6.096465,-10.86524 -4.664329,-13.63469 0.960031,-1.85649 5.410338,-2.54383 9.540738,-1.47353 7.817554,2.02573 16.507079,9.16604 19.238887,15.80888 0.327787,0.79707 0.671862,1.44977 0.764608,1.45043 0.09274,6.5e-4 0.454859,-0.53029 0.804701,-1.17991 0.871577,-1.61842 3.878125,-4.61135 5.711875,-5.686 0.83259,-0.48793 2.4423,-1.13067 3.57714,-1.42832 1.76705,-0.46346 2.32174,-0.48334 3.86281,-0.13846 3.2717,0.73217 5.52961,3.0031 6.67878,6.71728 l 0.58104,1.87796 37.20532,0.082 37.20532,0.082 0.91967,-0.8811 c 3.02094,-2.89425 3.92098,-6.0177 3.74213,-12.98652 -0.12373,-4.82085 -0.16738,-5.09418 -1.14776,-7.18651 -0.5928,-1.26514 -1.67447,-2.83038 -2.58563,-3.74154 -1.81355,-1.81355 -5.55833,-3.77414 -8.11377,-4.247983 -1.11231,-0.206251 -20.57107,-0.320565 -54.04766,-0.317513 -57.488929,0.0052 -54.42311,-0.09788 -58.28514,1.960556 -2.401091,1.27977 -4.951092,3.84404 -6.052176,6.08604 -0.87238,1.77631 -0.879177,1.84254 -0.879177,8.56627 v 6.77613 l 0.898656,1.70561 c 1.187468,2.25378 3.030025,4.26571 3.898311,4.25666 0.378657,-0.004 1.044392,-0.28072 1.479409,-0.61504 z m 43.573257,-1.0026 c -0.60554,-2.11139 -2.5952,-4.48926 -4.29313,-5.13078 -1.77868,-0.67203 -6.618,-0.073 -6.46383,0.80018 0.0457,0.25871 10.32958,5.30492 10.81839,5.30847 0.12071,9.7e-4 0.0931,-0.43916 -0.0614,-0.97787 z m 52.87915,-31.126458 c 0.81121,-1.541328 0.84911,-1.836672 0.84868,-6.614788 -3.2e-4,-4.593849 -0.0607,-5.114266 -0.73936,-6.386099 -1.53663,-2.879518 -4.54015,-4.983233 -8.60483,-6.026972 -2.82899,-0.726437 -56.39346,-0.733065 -59.47148,-0.0074 -3.85077,0.907897 -6.784709,2.867631 -8.395639,5.607892 -0.823293,1.400453 -0.881655,1.764082 -0.98732,6.151405 -0.116495,4.836836 0.08374,6.136794 1.232754,8.003285 l 0.646404,1.050036 37.310831,-0.08202 37.31083,-0.08202 z"
       id="path62" />
    <path
       id="path63"
       style="display:inline;fill:url(#linearGradient76);fill-opacity:1;stroke:#000000;stroke-width:1.7;stroke-linecap:round;stroke-linejoin:round;stroke-dasharray:none;stroke-opacity:1;paint-order:markers stroke fill"
       d="m 103.08057,74.066325 c -3.255257,0.840318 -5.841795,2.242084 -7.851565,4.253906 -2.585918,2.58856 -2.945407,3.777885 -2.941407,9.746094 0.0029,4.281257 0.07277,4.850073 0.777344,6.363281 l 0.773438,1.662109 -6.666016,0.140625 c -5.802118,0.122436 -6.957758,0.235154 -8.923828,0.871094 -2.981314,0.964328 -5.491436,2.515483 -7.457031,4.607426 -3.557036,3.78566 -4.104484,5.64909 -3.941407,13.42969 0.132366,6.31528 0.356503,7.17924 2.6875,10.42382 l 1.126954,1.56836 H 67.65088 c -3.560228,0 -6.955296,0.77777 -9.939453,2.27735 -2.740937,1.37736 -6.525973,5.21798 -7.933594,8.04883 -1.809003,3.63805 -2.022878,5.09164 -2.017578,13.70117 0.0051,8.36774 0.277948,10.45801 1.738281,13.33984 l 0.779297,1.53711 -2.445313,1.25977 c -3.000291,1.54448 -6.570338,4.99276 -8.035156,7.76172 -2.033239,3.84346 -2.206152,4.94476 -2.195312,13.86718 0.01094,9.00472 0.174724,9.90234 2.548828,13.95313 2.379832,4.06056 7.919446,8.06094 12.68164,9.1582 1.637878,0.37738 1.665691,0.40436 0.966797,0.86719 -1.6712,1.10674 -3.911821,3.55892 -4.625,5.06054 -0.697135,1.46787 -0.767578,2.03619 -0.767578,6.29297 0,4.25678 0.07044,4.82316 0.767578,6.29102 2.247056,4.73127 9.165212,8.37823 17.414063,9.17773 3.938891,0.38179 128.72277,0.4001 133.02149,0.0195 6.63557,-0.58744 12.30638,-2.80846 15.62695,-6.1211 2.72102,-2.71453 3.03135,-3.5761 3.1582,-8.72266 0.0603,-2.44873 -0.0403,-4.84951 -0.23046,-5.48437 -0.54495,-1.81973 -2.13037,-4.04757 -3.8418,-5.40039 l -1.5918,-1.25977 2.76172,-0.51953 c 7.17108,-1.35383 13.24781,-6.4854 15.57031,-13.14844 0.65284,-1.87292 0.74387,-2.85814 0.86133,-9.19726 0.15247,-8.22793 -0.17183,-10.49729 -2.05273,-14.31836 -1.4083,-2.86095 -4.58633,-6.23834 -7.3086,-7.76953 -1.02045,-0.57397 -1.85356,-1.06635 -1.85156,-1.09375 0.002,-0.0274 0.42881,-0.88594 0.94727,-1.9082 1.73212,-3.41527 2.02733,-5.70767 1.88476,-14.66407 -0.1212,-7.61428 -0.16637,-8.10403 -0.9414,-10.13672 -1.22688,-3.2178 -2.42341,-5.068 -4.77149,-7.38281 -4.08647,-4.02857 -8.236,-5.48633 -15.62305,-5.48633 h -4.52148 l 0.66211,-0.72656 c 1.09063,-1.1966 2.21875,-3.20214 2.8125,-4.99805 0.46908,-1.4189 0.54388,-2.67043 0.45508,-7.7539 l -0.10742,-6.06055 -1.08985,-2.21094 c -1.44223,-2.92727 -4.1132,-5.547403 -7.19726,-7.058593 -3.57947,-1.75395 -6.24142,-2.167969 -13.93946,-2.167969 h -6.60742 l 0.86524,-1.533203 c 0.83783,-1.485202 0.86523,-1.692528 0.86523,-6.695312 0,-4.639429 -0.0725,-5.318669 -0.71094,-6.701172 -1.48817,-3.222717 -5.52167,-6.074624 -10.12695,-7.160156 -3.13088,-0.737995 -57.62775,-0.737918 -60.48633,0 z m 0.57227,1.279296 c 3.07802,-0.725665 56.64171,-0.718624 59.4707,0.0078 4.06468,1.043739 7.06884,3.147826 8.60547,6.027344 0.67866,1.271833 0.73796,1.792869 0.73828,6.386718 4.3e-4,4.778116 -0.0365,5.071954 -0.84766,6.613282 l -0.84961,1.615234 -37.31054,0.08203 -37.310553,0.08203 -0.646485,-1.050782 c -1.149014,-1.866491 -1.348917,-3.16707 -1.232422,-8.003906 0.105665,-4.387323 0.163035,-4.749938 0.986328,-6.150391 1.610931,-2.740261 4.545715,-4.701478 8.396492,-5.609375 z m 30.45508,22.429688 c 33.47659,-0.0031 52.93456,0.110155 54.04687,0.316406 2.55544,0.473842 6.29973,2.434495 8.11328,4.248045 0.91116,0.91116 1.99314,2.47705 2.58594,3.74219 0.98038,2.09233 1.02471,2.3647 1.14844,7.18555 0.17885,6.96882 -0.72125,10.09208 -3.74219,12.98633 l -0.91992,0.88281 -37.20508,-0.082 -37.20508,-0.082 -0.58203,-1.87891 c -1.14917,-3.71418 -3.40604,-5.98463 -6.67773,-6.7168 -1.54108,-0.34488 -2.09624,-0.32478 -3.86329,0.13868 -1.13484,0.29765 -2.74553,0.9398 -3.57812,1.42773 -1.83375,1.07465 -4.83937,4.06713 -5.71094,5.68555 -0.34438,0.63947 -0.701274,1.16407 -0.800784,1.17969 h -0.002 -0.002 -0.002 c -0.09896,-0.0206 -0.441007,-0.66461 -0.763672,-1.44922 -2.731808,-6.64284 -11.420727,-13.78287 -19.238281,-15.8086 -4.130401,-1.0703 -8.580985,-0.38383 -9.541016,1.47266 -1.432136,2.76945 0.83439,9.39577 4.664062,13.63476 l 1.125,1.24414 -0.791015,0.60938 c -0.435017,0.33432 -1.099859,0.60928 -1.478516,0.61328 -0.868286,0.009 -2.710969,-2.00208 -3.898437,-4.25586 l -0.898438,-1.70508 v -6.77734 c 0,-6.72373 0.0065,-6.7901 0.878906,-8.56641 1.101084,-2.242 3.651644,-4.80616 6.052735,-6.085933 3.86203,-2.05844 0.796227,-1.953788 58.285165,-1.958988 z m -21.44336,22.320311 c 0.7014,0.0247 1.33853,0.11325 1.7832,0.28125 1.69793,0.64152 3.68743,3.01947 4.29297,5.13086 0.1545,0.53871 0.18125,0.97949 0.0605,0.97852 -0.48881,-0.004 -10.77266,-5.04988 -10.81835,-5.30859 -0.11563,-0.65489 2.57742,-1.15614 4.68164,-1.08204 z m -7.95704,1.60157 7.97461,3.76562 7.97266,3.76758 0.0117,2.08203 c 0.0118,2.01559 -0.0487,2.17612 -1.96485,5.08203 -1.08826,1.6504 -1.99667,3.00065 -2.01757,3 -0.0209,-5.7e-4 -3.97761,-2.25327 -8.79297,-5.0039 l -8.755865,-5 1.123045,-2.11524 c 0.61786,-1.16357 1.87279,-2.89543 2.78712,-3.84765 z m -31.146484,7.04883 0.4375,1.04882 c 0.658649,1.57544 3.174378,3.87511 7.3125,6.68555 2.041859,1.38675 4.267684,2.96613 4.945312,3.50781 2.270163,1.81474 3.232025,1.89222 6.47461,0.52735 0.34736,-0.14622 0.549623,-0.13034 0.470703,0.0371 -0.07606,0.16138 -0.711663,1.45524 -1.414063,2.875 -1.185336,2.39592 -1.277343,2.77804 -1.277343,5.32617 0,2.59331 0.09554,2.97759 1.75,6.9375 0.963307,2.30565 1.853941,4.31365 1.978515,4.46093 0.314309,0.37163 7.74883,-2.73375 10.7461,-4.48828 3.02953,-1.77342 5.55079,-4.24097 6.82617,-6.68164 0.51292,-0.98157 1.00442,-1.78828 1.11523,-1.83593 l 0.002,-0.002 c 7.9e-4,-1.8e-4 0.005,9e-5 0.006,0 h 0.002 0.002 c 0.10446,0.0233 0.74611,0.71023 1.43946,1.54492 2.79221,3.36145 7.03707,5.93472 10.87304,6.5918 1.79888,0.30813 2.44533,0.2751 4.33789,-0.21875 1.22314,-0.31918 3.62221,-0.83782 5.33204,-1.1543 4.66462,-0.86338 5.35318,-1.44256 4.98828,-4.19336 l -0.20313,-1.52734 2.39649,-0.35742 c 5.60586,-0.83377 11.52078,-3.9963 14.08007,-7.5293 1.65934,-2.29064 1.04861,-4.3563 -1.93554,-6.54687 -2.67706,-1.96514 -8.08984,-4.02069 -12.59375,-4.78321 -0.44367,-0.0751 13.85874,-0.15272 31.7832,-0.17382 35.87758,-0.0422 35.06892,-0.0823 39.20508,1.93945 4.3466,2.1246 8.13048,7.17522 9.00976,12.02539 0.19091,1.05304 0.34766,4.98561 0.34766,8.74023 0,7.52872 -0.46792,10.47111 -2.11133,13.27539 -0.45098,0.76954 -0.84982,1.38489 -0.88672,1.36719 -0.0369,-0.0177 -0.93908,-0.34498 -2.0039,-0.72656 l -1.93555,-0.69336 -78.89258,-0.0879 c -74.800081,-0.0844 -80.907338,-0.0306 -83.759768,0.75586 -0.569216,0.15695 -0.798963,-0.1007 -1.501953,-1.69336 -1.316211,-2.98193 -1.537109,-4.8084 -1.537109,-12.63672 0,-5.53452 0.119714,-7.80937 0.492187,-9.25976 1.254237,-4.88444 4.575924,-8.98678 9.001953,-11.1211 3.125944,-1.50739 5.468472,-1.92864 10.748047,-1.93164 z m 47.763674,0 4.59766,0.0195 4.59961,0.0195 -2.09766,0.57226 c -1.15355,0.3145 -2.75217,0.90363 -3.55078,1.3086 -0.79862,0.40497 -1.92322,1.08905 -2.5,1.52148 l -1.04883,0.78711 v -2.11523 z m -22.453127,1.37109 c 0.06782,-0.0678 1.917587,0.90286 4.109377,2.15625 2.19179,1.2534 3.83958,2.27834 3.66211,2.27734 -0.43502,-0.003 -7.927731,-4.27734 -7.771487,-4.43359 z m 0.523437,1.5332 c 0.181839,0 13.48097,7.44962 14.75586,8.26563 l 0.73047,0.46875 -1.37695,1.96679 c -1.90545,2.72317 -1.82413,2.59143 -2.17383,3.57813 -0.17297,0.48804 -0.42695,0.87909 -0.56445,0.87109 -0.5245,-0.0303 -13.494203,-7.71174 -13.781256,-8.16211 -0.20996,-0.32942 0.08399,-1.46521 0.966797,-3.73047 0.698128,-1.79138 1.347579,-3.25781 1.443359,-3.25781 z m -4.289062,8.05664 c 0.07457,-0.002 0.140256,0.0231 0.195312,0.0781 0.234605,0.23461 3.858279,2.38421 8.05274,4.77734 4.19445,2.39312 7.63172,4.51333 7.63672,4.71094 0.005,0.1976 -0.82721,1.24305 -1.84766,2.32422 -1.02046,1.08117 -2.65283,2.45892 -3.62891,3.06054 l -1.77539,1.09375 -6.291015,-3.46484 c -5.791412,-3.18856 -6.301385,-3.53984 -6.390625,-4.41211 -0.205498,-2.00849 2.930248,-8.13571 4.048828,-8.16797 z m -2.431641,12.09571 c 0.123151,-0.12315 7.0401,3.60455 7.451173,4.01562 0.14423,0.14423 -0.969607,0.79096 -2.47461,1.4375 -3.097309,1.33059 -3.249064,1.36632 -2.986328,0.68164 0.10442,-0.27211 -0.325638,-1.73919 -0.955078,-3.25976 -0.629443,-1.52057 -1.095687,-2.8145 -1.035157,-2.875 z M 54.36963,166.33781 h 80.34571 80.3457 l 2.58203,0.90821 c 6.19131,2.17706 10.79491,6.94027 12.07422,12.49218 0.54883,2.38176 0.43942,15.9576 -0.14648,18.20703 -1.54658,5.93775 -7.04439,11.08525 -13.45899,12.59766 -1.70558,0.40214 -6.92436,0.47647 -33.7207,0.48047 l -31.70313,0.004 v -10.75 c 0,-6.2695 -0.14523,-11.54745 -0.34765,-12.66406 -0.76145,-4.20021 -3.85557,-8.83915 -7.42383,-11.1289 -3.02978,-1.9442 -5.46525,-2.61407 -10.13672,-2.79102 -4.9837,-0.18878 -7.95232,0.32224 -11.13281,1.91797 -2.71848,1.36394 -5.97906,4.60272 -7.23242,7.18359 -1.88389,3.87922 -1.88904,3.93404 -2.04493,16.53711 l -0.14648,11.69531 -28.60352,-0.0273 c -22.159476,-0.0213 -28.991151,-0.12123 -30.322266,-0.44336 -0.945035,-0.2287 -2.920587,-1.0118 -4.390625,-1.74023 -2.06632,-1.02391 -3.15771,-1.83776 -4.810547,-3.58985 -2.342688,-2.48338 -3.511033,-4.50048 -4.248047,-7.33007 -0.668721,-2.56741 -0.678939,-15.94972 -0.01367,-18.44922 1.492123,-5.60613 5.836533,-10.03449 11.966796,-12.20117 z m 78.09571,9.25586 c 5.31898,0.11277 5.53755,0.1444 7.57617,1.10156 4.61469,2.16667 8.01503,6.69185 8.70312,11.58399 0.17473,1.24229 0.32022,6.65106 0.32422,12.01953 l 0.006,9.76172 h -1.71484 c -1.52471,0 -1.79054,-0.10644 -2.41797,-0.95508 -1.62577,-2.19897 -5.31473,-3.47937 -10.87109,-3.77344 -6.30064,-0.33345 -12.00324,1.21453 -13.55274,3.67774 -0.64428,1.02422 -0.64871,1.02471 -3.48242,1.03711 l -2.83984,0.0137 0.0957,-11.69727 0.0957,-11.69726 1.16992,-2.41992 c 1.43822,-2.97419 3.07512,-4.89573 5.50586,-6.4668 2.99184,-1.93371 5.01199,-2.32104 11.40235,-2.18555 z m -75.638679,37.04688 h 31.576172 31.574227 l 0.22851,2.74218 c 0.23931,2.87281 0.0722,5.58298 -0.67383,10.99219 -0.62726,4.54817 -0.0289,6.24503 2.54102,7.21875 3.44261,1.30437 4.85141,-0.65781 6.51367,-9.06641 0.30404,-1.53797 0.83702,-3.26408 1.18359,-3.83398 0.60109,-0.9884 0.6982,-1.02511 2.1211,-0.83008 4.73042,0.64838 5.90141,3.09127 4.75195,9.91602 -0.97959,5.81618 -0.68093,7.8988 1.23828,8.67187 0.92216,0.3714 -69.639694,0.3409 -72.191408,-0.0312 -6.998898,-1.02076 -12.324133,-3.95914 -14.228515,-7.85156 -0.821601,-1.67929 -0.844735,-1.88783 -0.744141,-6.71094 0.102161,-4.89826 0.118515,-5.00339 1.082031,-6.56445 0.551589,-0.89368 1.863633,-2.25573 3.003907,-3.11914 z m 89.453129,0 h 31.58398 c 28.37762,0 31.685,0.0536 32.58594,0.51953 1.70603,0.88223 4.18589,3.43755 4.97852,5.1289 0.67598,1.44244 0.75586,2.07415 0.75586,5.96875 0,3.89131 -0.0798,4.52753 -0.75391,5.96875 -1.64718,3.52166 -5.68053,6.18364 -11.82422,7.80274 -1.89611,0.49971 -4.9764,0.55952 -32.10547,0.63672 -17.40357,0.0495 -29.72138,-0.0332 -29.32617,-0.19727 2.05423,-0.8527 2.50315,-3.12637 1.57617,-7.9707 -0.79489,-4.15402 -0.64315,-6.61351 0.68555,-11.13477 0.64306,-2.1882 1.3204,-4.59731 1.50586,-5.35156 z" />
    <path
       id="path66"
       style="fill:url(#linearGradient84);fill-opacity:1;stroke:#000000;stroke-width:1.7;stroke-linecap:round;stroke-linejoin:round;stroke-dasharray:none;stroke-opacity:1;paint-order:markers stroke fill"
       d="M 119.48633 76.492188 C 112.92914 76.708 106.24315 76.174207 99.787109 77.537109 C 96.798979 78.448555 94.201235 81.092481 94.40625 84.386719 C 94.32565 88.12513 93.905577 92.157605 95.666016 95.599609 C 97.171979 96.897129 99.558515 95.853141 101.41797 96.185547 C 123.53115 96.104467 145.65048 96.305954 167.75977 95.910156 C 170.23978 96.337229 170.55098 94.023447 170.28711 92.140625 C 170.10231 88.425352 171.36964 83.894315 168.33594 80.96875 C 165.44899 77.846593 161.12589 76.455132 156.9375 76.726562 C 144.45596 76.522965 131.96951 76.497272 119.48633 76.492188 z M 123.29492 99.402344 C 108.5811 99.542269 93.851377 99.215629 79.148438 99.847656 C 74.458768 99.867316 69.816447 103.54349 69.027344 108.20312 C 68.391824 110.10254 70.196197 111.52162 71.642578 109.89062 C 76.800257 107.91613 82.502936 110.11977 86.958984 112.83398 C 91.776639 115.75343 95.919191 119.80071 98.753906 124.68555 C 100.42928 125.94013 101.68581 123.19883 103.04883 122.47461 C 106.33603 119.56061 111.2716 116.77284 115.62305 119.14844 C 118.55669 120.43862 119.68004 123.63733 120.91016 126.28711 C 123.29114 127.34976 126.24653 126.74646 128.86523 126.9668 C 150.75055 127.15581 172.63755 127.11178 194.52344 127.16602 C 197.58671 125.40936 197.83449 121.30354 197.95312 118.10156 C 197.88493 115.23022 198.29227 112.24242 197.74609 109.44727 C 195.62777 103.8154 189.96406 99.489793 183.8418 99.707031 C 163.668 99.23784 143.47403 99.462157 123.29492 99.402344 z M 69.958984 130.31445 C 69.631495 130.30134 69.300493 130.31147 68.986328 130.32422 C 63.495688 130.43283 56.924256 130.52119 53.171875 135.22852 C 49.902713 139.13941 49.101674 144.39949 49.361328 149.34375 C 49.602614 154.02988 49.068674 158.94924 50.695312 163.43359 C 51.950127 165.92302 55.267955 164.87554 57.480469 164.99609 C 79.746685 164.53164 102.09247 164.73504 124.39062 164.63672 C 154.19466 164.70162 184.03187 164.4724 213.81445 164.90039 C 215.42113 164.44167 217.47735 166.35207 218.73438 164.74414 C 220.216 161.00258 219.78014 156.79255 220.03711 152.83984 C 220.17473 147.41034 220.05515 141.33431 216.20898 137.04688 C 213.23138 133.311 208.76237 130.51143 203.84766 130.70117 C 186.64161 130.10663 169.4154 130.42273 152.20117 130.32812 C 149.92325 131.13504 152.44355 132.95916 153.62891 133.44141 C 155.86757 134.68214 158.13734 137.54865 156.23242 140.02734 C 152.57534 144.86475 146.85013 147.73019 141.13477 149.37305 C 139.74951 150.20331 139.98025 152.2213 138.50195 153.06641 C 136.14707 155.53872 132.42132 155.32277 129.36523 156.27734 C 126.15965 157.29558 122.62385 157.15962 119.5918 155.57031 C 116.68437 154.38547 114.42919 152.11801 112.09766 150.16016 C 110.43735 149.89068 109.76646 152.17891 108.48828 153.01953 C 104.13838 157.01761 98.670978 159.68127 93.132812 161.5 C 91.746966 161.96086 91.706573 159.72275 91.080078 158.95312 C 89.134014 154.94016 87.612281 150.03591 89.599609 145.75586 C 90.433992 144.74685 90.719371 142.49501 88.849609 142.76172 C 87.110429 142.84152 85.404556 142.85777 84.152344 141.4375 C 80.118045 138.32034 75.410259 135.77926 72.269531 131.67383 C 71.894537 130.60828 70.941454 130.35379 69.958984 130.31445 z M 211.39844 168.1875 C 209.92402 168.23318 208.42874 168.38011 206.99414 168.24219 L 51.144531 168.24219 L 50.828125 168.3125 L 50.710938 168.33984 C 46.033409 170.1349 41.494855 173.4494 40.136719 178.51172 C 38.903377 183.7147 39.454059 189.15836 39.494141 194.45898 C 39.477641 202.28857 46.086168 208.83707 53.417969 210.52539 C 63.238798 211.18636 73.10763 210.83431 82.947266 210.99805 C 91.816659 210.93945 100.7491 211.20412 109.57812 210.9375 C 111.04157 209.78542 109.99431 207.26535 110.37109 205.56445 C 110.69512 199.4357 110.153 193.18856 111.36133 187.14062 C 113.09552 181.80428 117.72631 177.95174 122.45703 175.26758 C 126.98818 173.27145 132.02037 173.71085 136.82812 174.17578 C 143.48417 175.16756 148.84293 181.03031 150.15039 187.49414 C 151.10718 194.96794 150.33074 202.77188 150.7793 210.35938 C 151.838 211.82594 154.24901 210.71463 155.85156 211.05859 C 175.23481 210.96769 194.62737 211.24594 214.00391 210.7207 C 217.75278 210.5545 221.44356 208.81335 224.05859 206.15625 C 226.59817 203.47386 227.97273 199.89995 227.92188 196.20898 C 227.94098 190.43116 228.84546 184.395 226.95312 178.8125 C 224.75485 174.11745 220.43327 170.64573 215.67773 168.73828 C 214.32652 168.19626 212.87285 168.14182 211.39844 168.1875 z M 116.11133 214.14648 C 114.95577 214.10282 113.63152 214.42764 112.56641 214.22266 L 54.986328 214.22266 C 54.745374 214.3256 54.502673 214.42832 54.261719 214.53125 C 52.260605 216.25844 50.62232 218.57585 50.791016 221.34375 C 50.708946 225.22345 49.82787 230.0095 53.189453 232.86719 C 57.203819 236.98344 63.192033 238.54799 68.804688 238.43164 C 89.272598 238.82148 109.75065 238.84165 130.2207 238.62109 C 131.79921 238.45692 134.81188 238.92609 134.26367 236.42383 C 134.05868 232.08439 136.46298 227.31551 133.99023 223.30078 C 132.92146 221.78177 129.80551 220.71146 128.94922 222.95703 C 127.98283 226.34584 127.59216 230.14788 125.60156 233.0957 C 124.01713 234.09331 122.55124 236.37252 120.41211 235.20508 C 118.40977 234.59128 117.14361 232.59664 117.56055 230.50781 C 117.54585 225.38017 119.15037 219.94401 117.91602 214.81641 C 117.43771 214.33118 116.80467 214.17268 116.11133 214.14648 z M 146.61523 214.19727 C 146.37974 214.29367 146.14369 214.3899 145.9082 214.48633 C 144.14796 219.48633 142.60277 224.89512 143.67188 230.25 C 144.05057 232.65811 144.41525 235.16073 143.73047 237.51953 C 144.28383 239.203 146.75104 238.37168 148.19336 238.62891 C 165.4848 238.61261 182.78509 238.75612 200.07031 238.26562 C 204.42086 238.24472 208.80471 236.75101 212.125 233.93359 C 214.95092 230.93571 214.16091 226.53149 214.17383 222.78711 C 213.96746 219.0412 210.8835 215.94772 207.69922 214.38477 C 187.33807 214.32317 166.97637 214.25957 146.61523 214.19727 z " />
    <path
       style="fill:#fffc2a;fill-opacity:1;stroke:#000000;stroke-width:1.7;stroke-linecap:round;stroke-linejoin:round;stroke-dasharray:none;stroke-opacity:1;paint-order:markers stroke fill"
       d="m 93.660768,142.23938 c -1.735487,0.48441 -1.758627,2.85546 -2.467942,4.26092 -1.06858,2.16439 1.691736,3.14395 3.095011,4.01324 3.076004,1.6856 6.052313,3.60173 9.268013,5.0071 1.9416,-0.20948 3.2442,-2.15172 4.6214,-3.38617 1.36469,-1.85232 -1.58465,-2.86915 -2.73452,-3.63133 -3.84436,-2.06141 -7.420114,-4.79028 -11.542479,-6.25494 -0.07942,-0.009 -0.159604,-0.012 -0.239483,-0.009 z"
       id="path72" />
    <path
       style="fill:#fffc2a;fill-opacity:1;stroke:#000000;stroke-width:1.7;stroke-linecap:round;stroke-linejoin:round;stroke-dasharray:none;stroke-opacity:1;paint-order:markers stroke fill"
       d="m 102.66409,123.95985 c -1.33191,1.56186 -2.836001,3.25543 -3.249414,5.29511 2.564164,2.24562 5.950124,3.55148 8.837784,5.42579 2.68039,1.34521 5.15072,3.34246 8.07102,4.10503 1.54938,-0.16092 0.77622,-2.05329 1.72995,-2.90658 0.7071,-1.60568 1.24679,-3.88557 0.15188,-5.32662 -4.90443,-2.24265 -9.72552,-4.8139 -14.68116,-6.85403 -0.3561,-0.12703 -0.59583,0.061 -0.86006,0.2613 z"
       id="path73" />
    <path
       style="fill:#2f2f2f;fill-opacity:1;stroke:#000000;stroke-width:1.7;stroke-linecap:round;stroke-linejoin:round;stroke-dasharray:none;stroke-opacity:1;paint-order:markers stroke fill"
       d="m 115.19412,198.19255 v -10.8993 l 1.11031,-2.31682 c 1.48087,-3.09007 3.31199,-5.03226 5.61526,-5.95589 1.66525,-0.66777 2.34918,-0.73246 7.80177,-0.73793 l 5.97651,-0.006 2.19636,1.0814 c 2.80071,1.37896 5.37595,3.96597 6.69114,6.72171 1.27038,2.66184 1.56482,5.54036 1.57648,15.41195 l 0.009,7.4041 -1.04868,-0.99654 c -2.52327,-2.39777 -6.25875,-3.42409 -12.50357,-3.43532 -6.27802,-0.0113 -9.42611,0.86005 -12.55651,3.47542 -1.20804,1.00929 -1.59622,1.15251 -3.12364,1.15251 h -1.74417 z"
       id="path74" />
    <path
       style="fill:#2f2f2f;fill-opacity:1;stroke:#000000;stroke-width:1.7;stroke-linecap:round;stroke-linejoin:round;stroke-dasharray:none;stroke-opacity:1;paint-order:markers stroke fill"
       d="m 103.95269,141.83062 c -3.07707,-1.8445 -5.671848,-3.43082 -5.766176,-3.52514 -0.216473,-0.21648 0.147409,-2.15594 0.512489,-2.73154 0.211265,-0.33308 1.694287,0.366 6.448707,3.03986 3.39589,1.90983 6.17434,3.59593 6.17434,3.74688 0,0.22689 -1.61588,2.86229 -1.73691,2.83278 -0.0208,-0.005 -2.55539,-1.51834 -5.63245,-3.36284 z"
       id="path75" />
  </g>
</svg>
