<?xml version="1.0" encoding="UTF-8" standalone="no"?>
<svg
   cursor="default"
   viewBox="0 0 256 256"
   version="1.1"
   id="svg48"
   sodipodi:docname="honey_clip.svg"
   inkscape:version="1.4.1-rc (832c77b156, 2025-02-28)"
   width="100%"
   height="100%"
   xmlns:inkscape="http://www.inkscape.org/namespaces/inkscape"
   xmlns:sodipodi="http://sodipodi.sourceforge.net/DTD/sodipodi-0.dtd"
   xmlns="http://www.w3.org/2000/svg"
   xmlns:svg="http://www.w3.org/2000/svg">
  <defs
     id="defs48">
    <inkscape:path-effect
       effect="fillet_chamfer"
       id="path-effect44"
       is_visible="true"
       lpeversion="1"
       nodesatellites_param="F,0,0,1,0,18,0,1 @ F,0,0,1,0,18,0,1 @ F,0,0,1,0,18,0,1 @ F,0,0,1,0,18,0,1"
       radius="18"
       unit="px"
       method="auto"
       mode="F"
       chamfer_steps="1"
       flexible="false"
       use_knot_distance="true"
       apply_no_radius="true"
       apply_with_radius="true"
       only_selected="false"
       hide_knots="false" />
    <inkscape:path-effect
       effect="fillet_chamfer"
       id="path-effect42"
       is_visible="true"
       lpeversion="1"
       nodesatellites_param="F,0,0,1,0,16,0,1 @ F,0,0,1,0,16,0,1 @ F,0,0,1,0,16,0,1 @ F,0,0,1,0,16,0,1"
       radius="16"
       unit="px"
       method="auto"
       mode="F"
       chamfer_steps="1"
       flexible="false"
       use_knot_distance="true"
       apply_no_radius="true"
       apply_with_radius="true"
       only_selected="false"
       hide_knots="false" />
    <inkscape:path-effect
       effect="fillet_chamfer"
       id="path-effect41"
       is_visible="true"
       lpeversion="1"
       nodesatellites_param="F,0,0,1,0,18,0,1 @ F,0,0,1,0,18,0,1 @ F,0,0,1,0,18,0,1 @ F,0,0,1,0,18,0,1"
       radius="18"
       unit="px"
       method="auto"
       mode="F"
       chamfer_steps="1"
       flexible="false"
       use_knot_distance="true"
       apply_no_radius="true"
       apply_with_radius="true"
       only_selected="false"
       hide_knots="false" />
    <inkscape:path-effect
       effect="fillet_chamfer"
       id="path-effect39"
       is_visible="true"
       lpeversion="1"
       nodesatellites_param="F,0,0,1,0,18,0,1 @ F,0,0,1,0,18,0,1 @ F,0,0,1,0,18,0,1 @ F,0,0,1,0,18,0,1"
       radius="18"
       unit="px"
       method="auto"
       mode="F"
       chamfer_steps="1"
       flexible="false"
       use_knot_distance="true"
       apply_no_radius="true"
       apply_with_radius="true"
       only_selected="false"
       hide_knots="false" />
    <inkscape:path-effect
       effect="fillet_chamfer"
       id="path-effect38"
       is_visible="true"
       lpeversion="1"
       nodesatellites_param="F,0,0,1,0,18,0,1 @ F,0,0,1,0,18,0,1 @ F,0,0,1,0,18,0,1 @ F,0,0,1,0,18,0,1"
       radius="18"
       unit="px"
       method="auto"
       mode="F"
       chamfer_steps="1"
       flexible="false"
       use_knot_distance="true"
       apply_no_radius="true"
       apply_with_radius="true"
       only_selected="false"
       hide_knots="false" />
    <inkscape:path-effect
       effect="fillet_chamfer"
       id="path-effect37"
       is_visible="true"
       lpeversion="1"
       nodesatellites_param="F,0,0,1,0,18,0,1 @ F,0,0,1,0,18,0,1 @ F,0,0,1,0,18,0,1 @ F,0,0,1,0,18,0,1"
       radius="18"
       unit="px"
       method="auto"
       mode="F"
       chamfer_steps="1"
       flexible="false"
       use_knot_distance="true"
       apply_no_radius="true"
       apply_with_radius="true"
       only_selected="false"
       hide_knots="false" />
    <inkscape:path-effect
       effect="mirror_symmetry"
       start_point="131.9731,120.67956"
       end_point="131.9731,174.56588"
       center_point="131.9731,147.62272"
       id="path-effect16"
       is_visible="true"
       lpeversion="1.2"
       lpesatellites=""
       mode="free"
       discard_orig_path="false"
       fuse_paths="false"
       oposite_fuse="false"
       split_items="false"
       split_open="false"
       link_styles="false" />
    <inkscape:perspective
       sodipodi:type="inkscape:persp3d"
       inkscape:vp_x="38.629155 : 126.0358 : 1"
       inkscape:vp_y="0 : 1000 : 0"
       inkscape:vp_z="256 : 128 : 1"
       inkscape:persp3d-origin="128 : 85.333333 : 1"
       id="perspective1" />
  </defs>
  <sodipodi:namedview
     id="namedview48"
     pagecolor="#ffffff"
     bordercolor="#666666"
     borderopacity="1.0"
     inkscape:showpageshadow="2"
     inkscape:pageopacity="0.0"
     inkscape:pagecheckerboard="0"
     inkscape:deskcolor="#d1d1d1"
     inkscape:zoom="2.1914063"
     inkscape:cx="114.99465"
     inkscape:cy="167.24421"
     inkscape:window-width="1564"
     inkscape:window-height="991"
     inkscape:window-x="26"
     inkscape:window-y="23"
     inkscape:window-maximized="0"
     inkscape:current-layer="svg48" />
  <g
     id="g127"
     transform="matrix(2.7867391,0.4675126,-0.39126764,3.4874852,-189.75198,-382.05224)"
     style="stroke-width:0.317795">
    <rect
       style="fill:#ffb380;fill-opacity:1;stroke:#000000;stroke-width:0.317795;stroke-linecap:round;stroke-linejoin:round;stroke-dasharray:none;stroke-opacity:1"
       id="rect23"
       width="72.347832"
       height="11.785167"
       x="97.5"
       y="123.5" />
    <path
       style="fill:none;fill-opacity:1;stroke:#ff9955;stroke-width:0.858047;stroke-linecap:butt;stroke-linejoin:miter;stroke-dasharray:none;stroke-opacity:1"
       d="M 169.42354,133.21162 H 99.525936 l -0.230855,-9.24304"
       id="path25"
       sodipodi:nodetypes="ccc" />
    <path
       style="fill:none;fill-opacity:1;stroke:#ffe6d5;stroke-width:0.858047;stroke-linecap:butt;stroke-linejoin:miter;stroke-dasharray:none;stroke-opacity:1"
       d="m 100.80301,125.78801 h 66.8717 l 0.22843,8.01841"
       id="path24"
       sodipodi:nodetypes="ccc" />
  </g>
  <g
     id="g128"
     style="stroke-width:0.317795"
     transform="matrix(2.7867391,0.4675126,-0.39126764,3.4874852,-185.43756,-385.06696)">
    <rect
       style="fill:#ffb380;fill-opacity:1;stroke:#000000;stroke-width:0.317795;stroke-linecap:round;stroke-linejoin:round;stroke-dasharray:none;stroke-opacity:1"
       id="rect127"
       width="72.347832"
       height="11.785167"
       x="97.5"
       y="123.5" />
    <path
       style="fill:none;fill-opacity:1;stroke:#ff9955;stroke-width:0.858047;stroke-linecap:butt;stroke-linejoin:miter;stroke-dasharray:none;stroke-opacity:1"
       d="M 169.42354,133.21162 H 99.525936 l -0.230855,-9.24304"
       id="path127"
       sodipodi:nodetypes="ccc" />
    <path
       style="fill:none;fill-opacity:1;stroke:#ffe6d5;stroke-width:0.858047;stroke-linecap:butt;stroke-linejoin:miter;stroke-dasharray:none;stroke-opacity:1"
       d="m 100.80301,125.78801 h 66.8717 l 0.22843,8.01841"
       id="path128"
       sodipodi:nodetypes="ccc" />
  </g>
  <path
     style="fill:#ff880e;fill-opacity:1;stroke:#000000;stroke-width:2.27258;stroke-linecap:round;stroke-linejoin:round;stroke-dasharray:none;stroke-opacity:1"
     id="path42"
     width="146.02495"
     height="44.720142"
     x="49.283421"
     y="133.24777"
     sodipodi:type="rect"
     d="M 67.283421,133.24777 H 177.30837 a 18,18 45 0 1 18,18 v 8.72014 a 18,18 135 0 1 -18,18 l -110.024949,0 a 18,18 45 0 1 -18,-18 v -8.72014 a 18,18 135 0 1 18,-18 z"
     transform="matrix(1.15,0,0,0.67346939,-9.2178256,121.08523)"
     inkscape:path-effect="#path-effect44" />
  <path
     style="fill:#ff880e;fill-opacity:1;stroke:#000000;stroke-width:2.87544;stroke-linecap:round;stroke-linejoin:round;stroke-dasharray:none;stroke-opacity:1"
     id="rect37"
     width="97.65419"
     height="46.545456"
     x="73.012474"
     y="93.090912"
     sodipodi:type="rect"
     d="m 91.012474,93.090912 61.654186,0 a 18,18 45 0 1 18,17.999998 v 10.54546 a 18,18 135 0 1 -18,18 H 91.012474 a 18,18 45 0 1 -18,-18 v -10.54546 a 18,18 135 0 1 18,-17.999998 z"
     transform="matrix(0.8224299,0,0,0.5882353,31.217951,20.991087)"
     inkscape:path-effect="#path-effect37" />
  <path
     style="fill:#ff880e;fill-opacity:1;stroke:#000000;stroke-width:2.37749;stroke-linecap:round;stroke-linejoin:round;stroke-dasharray:none;stroke-opacity:1"
     id="rect36"
     width="146.02495"
     height="44.720142"
     x="49.283421"
     y="133.24777"
     sodipodi:type="rect"
     d="M 67.283421,133.24777 H 177.30837 a 18,18 45 0 1 18,18 v 8.72014 a 18,18 135 0 1 -18,18 l -110.024949,0 a 18,18 45 0 1 -18,-18 v -8.72014 a 18,18 135 0 1 18,-18 z"
     transform="matrix(0.9125,0,0,0.77551021,20.740107,-4.7681621)"
     inkscape:path-effect="#path-effect38" />
  <path
     style="fill:#ff880e;fill-opacity:1;stroke:#000000;stroke-width:2;stroke-linecap:round;stroke-linejoin:round;stroke-dasharray:none;stroke-opacity:1"
     id="rect35"
     width="174.31729"
     height="46.545456"
     x="36.506237"
     y="172.49197"
     sodipodi:type="rect"
     d="m 54.506237,172.49197 138.317293,0 a 18,18 45 0 1 18,18 v 10.54546 a 18,18 135 0 1 -18,18 l -138.317293,0 a 18,18 45 0 1 -18,-18 v -10.54546 a 18,18 135 0 1 18,-18 z"
     transform="translate(10.039216,-42.894831)"
     inkscape:path-effect="#path-effect39" />
  <path
     style="fill:#ff880e;fill-opacity:1;stroke:#000000;stroke-width:1.90285;stroke-linecap:round;stroke-linejoin:round;stroke-dasharray:none;stroke-opacity:1"
     id="path39"
     width="174.31729"
     height="46.545456"
     x="36.506237"
     y="172.49197"
     sodipodi:type="rect"
     d="m 54.506237,172.49197 138.317293,0 a 18,18 45 0 1 18,18 v 10.54546 a 18,18 135 0 1 -18,18 l -138.317293,0 a 18,18 45 0 1 -18,-18 v -10.54546 a 18,18 135 0 1 18,-18 z"
     transform="matrix(1.104712,0,0,1,-3.8226423,-5.4759356)"
     inkscape:path-effect="#path-effect41" />
  <path
     id="rect41"
     style="fill:#000000;fill-opacity:1;stroke:none;stroke-width:2;stroke-linecap:round;stroke-linejoin:round;stroke-dasharray:none"
     d="M 127.34375 176.14258 A 16 16 0 0 0 111.34375 192.14258 L 111.34375 212.64844 L 147.84961 212.64844 L 147.84961 192.14258 A 16 16 0 0 0 131.84961 176.14258 L 127.34375 176.14258 z " />
  <path
     style="fill:#fff819;stroke:#000000;stroke-width:1px;stroke-linecap:butt;stroke-linejoin:miter;stroke-opacity:1;fill-opacity:1"
     d="m 118.42085,212.64125 c 0.48044,-7.09089 24.8223,-6.7289 24.84579,0.32267 1.1277,2.03602 -1.44863,6.29397 -2.58751,12.21508 -1.26412,6.57223 4.988,14.99005 -3.2206,14.56675 -8.2086,-0.4233 6.04671,-18.3014 -8.38948,-19.03768 -4.3973,-0.39613 -2.37062,15.12876 -7.64963,14.16517 -7.35622,-1.34276 -0.33907,-7.64528 -2.99857,-22.23199 z"
     id="path44"
     sodipodi:nodetypes="ccszcac" />
  <g
     id="g56"
     transform="translate(111.9674,-6.6147884)">
    <path
       style="fill:#333333;fill-opacity:1;stroke:#000000;stroke-width:1px;stroke-linecap:butt;stroke-linejoin:miter;stroke-opacity:1"
       d="m -14.352075,136.12477 c -3.03831,-11.78316 -20.624107,-21.64522 -28.08595,-17.80908 -4.402354,2.26326 1.511724,13.42083 5.314769,16.03162 -6.946945,1.95295 0.600079,7.72101 5.959775,10.90958 5.127521,3.05044 5.498318,6.99524 12.616662,1.1934 -8.60593,11.2997 -3.518168,13.8206 -0.974734,21.87966 6.369166,-2.76197 15.9118657,-5.22209 18.3990547,-14.13551 3.139675,5.82276 11.4800813,10.98742 17.6754173,8.56507 5.19099,-2.02966 11.30414,0.35458 8.58627,-6.95525 8.09903,0.96137 19.49872,-7.01451 17.74594,-10.56915 -3.79142,-7.68899 -28.34163,-12.24564 -35.9408113,-2.97957 1.659583,-20.08624 -14.984423,-19.06861 -21.2963927,-6.13077 z"
       id="path45"
       sodipodi:nodetypes="cscscccscscc" />
    <path
       style="fill:none;stroke:#000000;stroke-width:1px;stroke-linecap:butt;stroke-linejoin:miter;stroke-opacity:1"
       d="m -14.602495,136.21391 -4.335116,10.49554"
       id="path46" />
    <path
       style="fill:none;stroke:#000000;stroke-width:1px;stroke-linecap:butt;stroke-linejoin:miter;stroke-opacity:1"
       d="m 7.0730837,141.68984 -8.442068,13.00535"
       id="path47"
       sodipodi:nodetypes="cc" />
    <path
       style="fill:#c5c5c5;fill-opacity:1;stroke:#000000;stroke-width:2.00001;stroke-linecap:round;stroke-linejoin:round;stroke-dasharray:none;stroke-opacity:1"
       d="m 10.970869,162.55773 c -3.0317467,-0.64122 -6.2695863,-2.48361 -8.7845225,-4.99855 -1.1702343,-1.17023 -2.57264063,-3.08457 -2.46500428,-3.36483 0.20613435,-0.53672 6.56743328,-10.18395 7.35057208,-11.14751 1.2465979,-1.5338 2.4159966,-2.44346 4.3022957,-3.34672 2.950575,-1.41289 5.892686,-1.9746 10.325523,-1.97135 6.753959,0.005 13.482207,1.80405 17.750603,4.7464 1.795828,1.23793 2.981113,2.66389 2.981113,3.58643 0,2.31927 -5.248274,6.48349 -10.307593,8.17852 -2.298852,0.77018 -3.627289,0.99995 -5.785704,1.00068 -1.087003,3.2e-4 -1.97637,0.0273 -1.97637,0.06 0,0.0326 0.181504,0.59999 0.403341,1.26083 0.503486,1.49986 0.535553,2.78841 0.08369,3.36286 -0.466363,0.59289 -1.292612,0.86316 -3.808922,1.24593 -2.421303,0.36831 -3.476356,0.60949 -4.986926,1.13997 -1.243687,0.43675 -3.636095,0.5532 -5.082094,0.24737 z"
       id="path48" />
    <path
       style="fill:#c5c5c5;fill-opacity:1;stroke:#000000;stroke-width:2.00001;stroke-linecap:round;stroke-linejoin:round;stroke-dasharray:none;stroke-opacity:1"
       d="m -25.11365,148.68159 c -0.75411,-0.23548 -1.24988,-0.55797 -2.878199,-1.87223 -0.621145,-0.50134 -2.399878,-1.74462 -3.95274,-2.76286 -4.531235,-2.9712 -6.769308,-5.04745 -7.280676,-6.75424 -0.158763,-0.52991 -0.14549,-0.68988 0.08663,-1.04414 0.369038,-0.56322 1.114947,-1.00484 2.232955,-1.32202 0.510226,-0.14475 0.927684,-0.3204 0.927684,-0.39032 0,-0.0699 -0.315668,-0.34432 -0.701484,-0.60977 -2.163536,-1.48855 -5.10199,-6.02297 -6.23174,-9.61639 -0.195285,-0.62114 -0.390673,-1.71016 -0.434197,-2.42004 -0.06924,-1.12927 -0.03216,-1.38103 0.296415,-2.01301 0.431561,-0.83006 0.95332,-1.17583 2.305919,-1.52813 6.024329,-1.56914 16.847348,3.87871 22.458241,11.30453 1.64459,2.17656 3.501816,5.95089 3.153399,6.40847 -0.07834,0.10289 -1.080049,2.46914 -2.226012,5.25833 l -2.08357,5.07126 -0.939805,0.69237 c -1.119111,0.82447 -2.713099,1.61092 -3.496943,1.72534 -0.310573,0.0453 -0.866717,-0.0119 -1.235877,-0.12715 z"
       id="path49" />
    <path
       style="fill:none;stroke:#000000;stroke-width:1px;stroke-linecap:butt;stroke-linejoin:miter;stroke-opacity:1"
       d="m -23.232428,157.14156 12.906904,7.0988"
       id="path50" />
    <path
       style="fill:none;stroke:#000000;stroke-width:1px;stroke-linecap:butt;stroke-linejoin:miter;stroke-opacity:1"
       d="m -18.715012,147.78406 16.61764,9.51884"
       id="path51" />
    <path
       style="fill:none;stroke:#000000;stroke-width:1px;stroke-linecap:butt;stroke-linejoin:miter;stroke-opacity:1"
       d="M 3.5493987,148.4294 -15.649622,137.45853"
       id="path52" />
    <path
       style="fill:#fff005;fill-opacity:1;stroke:#000000;stroke-width:1px;stroke-linecap:butt;stroke-linejoin:miter;stroke-opacity:1"
       d="m -9.3575058,129.55305 15.9722944,7.58281"
       id="path53" />
    <path
       id="path56"
       style="fill:#fff005;fill-opacity:1;stroke:#000000;stroke-width:2.00001;stroke-linecap:round;stroke-linejoin:round;stroke-dasharray:none;stroke-opacity:1"
       d="M 97.035156 132.00977 C 96.835701 132.22061 93.761671 139.95061 93.832031 140.06445 C 93.883012 140.14694 93.843551 140.31381 93.744141 140.43359 C 93.59864 140.60891 94.894944 141.41411 100.38672 144.5625 C 104.13881 146.71354 107.67908 148.75006 108.25586 149.08789 C 109.51647 149.82627 109.51845 149.82392 110.14258 147.7832 C 110.44754 146.78604 110.68678 146.19916 110.78711 146.17188 C 110.78812 146.17171 110.79198 146.17192 110.79297 146.17188 C 110.79392 146.17196 110.7979 146.17167 110.79883 146.17188 L 110.80078 146.17188 C 110.80164 146.17233 110.80581 146.17521 110.80664 146.17578 L 110.80859 146.17773 L 110.81055 146.17969 C 110.82675 146.20055 110.83789 146.25475 110.83789 146.33789 C 110.83789 146.36778 110.83998 146.39018 110.84766 146.40234 L 110.84961 146.4043 L 110.85156 146.40625 L 110.85352 146.4082 L 110.85547 146.41016 L 110.85742 146.41016 C 110.85822 146.41038 110.86243 146.41199 110.86328 146.41211 L 110.86523 146.41211 C 110.96531 146.40174 111.37094 145.79819 112.82617 143.55664 L 114.05273 141.66992 L 105.56445 136.81836 C 100.89609 134.15025 97.057576 131.98607 97.035156 132.00977 z "
       transform="translate(-111.9674,6.6147884)" />
    <path
       style="fill:#fff005;fill-opacity:1;stroke:#000000;stroke-width:2.00001;stroke-linecap:round;stroke-linejoin:round;stroke-dasharray:none;stroke-opacity:1"
       d="m -19.599263,166.37807 c -0.239005,-0.59896 -0.898169,-2.14477 -1.464807,-3.43512 -1.013252,-2.30737 -1.691476,-4.39601 -1.49219,-4.5953 0.05577,-0.0558 2.572627,1.25777 5.593025,2.91897 l 5.491633,3.02037 -0.950598,0.44956 c -0.920388,0.43527 -6.528547,2.73054 -6.671692,2.73054 -0.03895,0 -0.266365,-0.49006 -0.505371,-1.08902 z"
       id="path54" />
    <path
       style="fill:#fff005;fill-opacity:1;stroke:#000000;stroke-width:2.00001;stroke-linecap:round;stroke-linejoin:round;stroke-dasharray:none;stroke-opacity:1"
       d="m -0.87167296,132.93253 c -3.89571634,-1.85626 -7.10754024,-3.39943 -7.13738654,-3.42928 -0.1444534,-0.14445 2.106417,-1.29591 3.229569,-1.65213 2.4802261,-0.78661 4.51992587,-0.66847 6.4496239,0.37356 1.8074041,0.97599 3.4445739,3.30544 4.1149253,5.85492 0.3111464,1.18335 0.5336398,2.25991 0.4626898,2.23876 -0.019965,-0.006 -3.223705,-1.52957 -7.11942146,-3.38583 z"
       id="path55" />
  </g>
</svg>
