<svg xmlns="http://www.w3.org/2000/svg" cursor="default" viewBox="0 0 256 256">
    <g stroke-width=".318">
        <path fill="#ffb380" stroke="#000" stroke-linecap="round" stroke-linejoin="round" d="M97.5 123.5h72.348v11.785H97.5z" transform="matrix(2.78674 .46751 -.39127 3.48749 -189.752 -382.052)"/>
        <path fill="none" stroke="#f95" stroke-width=".858" d="M169.424 133.212H99.526l-.23-9.243" transform="matrix(2.78674 .46751 -.39127 3.48749 -189.752 -382.052)"/>
        <path fill="none" stroke="#ffe6d5" stroke-width=".858" d="M100.803 125.788h66.872l.228 8.018" transform="matrix(2.78674 .46751 -.39127 3.48749 -189.752 -382.052)"/>
    </g>
    <g stroke-width=".318">
        <path fill="#ffb380" stroke="#000" stroke-linecap="round" stroke-linejoin="round" d="M97.5 123.5h72.348v11.785H97.5z" transform="matrix(2.78674 .46751 -.39127 3.48749 -185.438 -385.067)"/>
        <path fill="none" stroke="#f95" stroke-width=".858" d="M169.424 133.212H99.526l-.23-9.243" transform="matrix(2.78674 .46751 -.39127 3.48749 -185.438 -385.067)"/>
        <path fill="none" stroke="#ffe6d5" stroke-width=".858" d="M100.803 125.788h66.872l.228 8.018" transform="matrix(2.78674 .46751 -.39127 3.48749 -185.438 -385.067)"/>
    </g>
    <path fill="#ff880e" stroke="#000" stroke-linecap="round" stroke-linejoin="round" stroke-width="2.273" d="M67.283 133.248h110.025a18 18 45 0118 18v8.72a18 18 135 01-18 18H67.283a18 18 45 01-18-18v-8.72a18 18 135 0118-18z" transform="matrix(1.15 0 0 .67347 -9.218 121.085)"/>
    <path fill="#ff880e" stroke="#000" stroke-linecap="round" stroke-linejoin="round" stroke-width="2.875" d="M91.012 93.09h61.655a18 18 45 0118 18v10.546a18 18 135 01-18 18H91.012a18 18 45 01-18-18v-10.545a18 18 135 0118-18z" transform="matrix(.82243 0 0 .58824 31.218 20.991)"/>
    <path fill="#ff880e" stroke="#000" stroke-linecap="round" stroke-linejoin="round" stroke-width="2.377" d="M67.283 133.248h110.025a18 18 45 0118 18v8.72a18 18 135 01-18 18H67.283a18 18 45 01-18-18v-8.72a18 18 135 0118-18z" transform="matrix(.9125 0 0 .77551 20.74 -4.768)"/>
    <path fill="#ff880e" stroke="#000" stroke-linecap="round" stroke-linejoin="round" stroke-width="2" d="M64.545 129.597h138.318a18 18 0 0118 18v10.546a18 18 0 01-18 18H64.545a18 18 0 01-18-18v-10.546a18 18 0 0118-18z"/>
    <path fill="#ff880e" stroke="#000" stroke-linecap="round" stroke-linejoin="round" stroke-width="1.903" d="M54.506 172.492h138.318a18 18 45 0118 18v10.545a18 18 135 01-18 18H54.506a18 18 45 01-18-18v-10.545a18 18 135 0118-18z" transform="matrix(1.10471 0 0 1 -3.823 -5.476)"/>
    <path d="M127.344 176.143a16 16 0 00-16 16v20.505h36.506v-20.505a16 16 0 00-16-16h-4.506z"/>
    <path fill="#fff819" stroke="#000" d="M118.42 212.641c.481-7.09 24.823-6.729 24.847.323 1.127 2.036-1.449 6.294-2.588 12.215-1.264 6.572 4.988 14.99-3.22 14.567-8.21-.424 6.046-18.302-8.39-19.038-4.397-.396-2.37 15.129-7.65 14.165-7.356-1.343-.339-7.645-2.998-22.232z"/>
    <g stroke="#000">
        <path fill="#333" d="M97.615 129.51c-3.038-11.783-20.624-21.645-28.086-17.81-4.402 2.264 1.512 13.422 5.315 16.033-6.947 1.952.6 7.72 5.96 10.91 5.127 3.05 5.498 6.994 12.617 1.193-8.606 11.3-3.519 13.82-.975 21.88 6.369-2.763 15.912-5.223 18.399-14.136 3.14 5.822 11.48 10.987 17.675 8.565 5.191-2.03 11.304.354 8.587-6.956 8.099.962 19.498-7.014 17.746-10.569-3.792-7.689-28.342-12.245-35.941-2.98 1.66-20.085-14.985-19.068-21.297-6.13z"/>
        <path fill="none" d="M97.365 129.6l-4.335 10.495M119.04 135.075l-8.442 13.005"/>
        <path fill="#c5c5c5" stroke-linecap="round" stroke-linejoin="round" stroke-width="2" d="M122.938 155.943c-3.031-.641-6.27-2.484-8.784-4.999-1.17-1.17-2.573-3.084-2.465-3.364.206-.537 6.567-10.184 7.35-11.148 1.247-1.534 2.416-2.443 4.303-3.347 2.95-1.413 5.892-1.974 10.325-1.971 6.754.005 13.482 1.804 17.75 4.746 1.797 1.238 2.982 2.664 2.982 3.587 0 2.32-5.248 6.483-10.308 8.178-2.299.77-3.627 1-5.785 1.001-1.087 0-1.977.027-1.977.06s.182.6.404 1.26c.503 1.5.535 2.79.083 3.364-.466.593-1.292.863-3.809 1.246-2.421.368-3.476.61-4.987 1.14-1.243.436-3.636.553-5.082.247zM86.854 142.067c-.754-.236-1.25-.558-2.878-1.872-.622-.502-2.4-1.745-3.953-2.763-4.531-2.971-6.77-5.048-7.28-6.755-.16-.53-.146-.69.086-1.044.369-.563 1.115-1.005 2.233-1.322.51-.144.927-.32.927-.39s-.315-.344-.701-.61c-2.164-1.488-5.102-6.023-6.232-9.616-.195-.621-.39-1.71-.434-2.42-.07-1.13-.032-1.381.296-2.013.432-.83.954-1.176 2.306-1.528 6.025-1.57 16.848 3.878 22.459 11.304 1.644 2.177 3.501 5.951 3.153 6.409-.078.103-1.08 2.469-2.226 5.258l-2.084 5.071-.94.693c-1.119.824-2.713 1.61-3.496 1.725-.31.045-.867-.012-1.236-.127z"/>
        <path fill="none" d="M88.735 150.527l12.907 7.099M93.252 141.17l16.618 9.518M115.517 141.815l-19.2-10.971"/>
        <path fill="#fff005" d="M102.61 122.938l15.972 7.583"/>
        <path fill="#fff005" stroke-linecap="round" stroke-linejoin="round" stroke-width="2" d="M97.035 132.01c-.2.21-3.273 7.94-3.203 8.054.051.083.012.25-.088.37-.145.175 1.15.98 6.643 4.129 3.752 2.15 7.292 4.187 7.869 4.525 1.26.738 1.262.736 1.887-1.305.305-.997.544-1.584.644-1.611h.014l.006.004.002.002.002.002c.016.02.027.075.027.158 0 .03.002.052.01.064l.002.002.002.002.002.002.001.002h.002l.006.002h.002c.1-.01.506-.614 1.961-2.855l1.227-1.887-8.489-4.852c-4.668-2.668-8.506-4.832-8.529-4.808zM92.368 159.763a150.4 150.4 0 00-1.465-3.435c-1.013-2.307-1.691-4.396-1.492-4.595.056-.056 2.573 1.258 5.593 2.919l5.492 3.02-.95.45c-.921.435-6.53 2.73-6.672 2.73-.04 0-.267-.49-.506-1.089zM111.096 126.318c-3.896-1.857-7.108-3.4-7.138-3.43-.144-.144 2.107-1.295 3.23-1.652 2.48-.786 4.52-.668 6.45.374 1.807.976 3.444 3.305 4.114 5.855.312 1.183.534 2.26.463 2.239-.02-.006-3.224-1.53-7.12-3.386z"/>
    </g>
</svg>
