<svg xmlns="http://www.w3.org/2000/svg" xmlns:xlink="http://www.w3.org/1999/xlink" viewBox="0 0 100 100">
    <defs>
        <linearGradient id="innoGrad8">
            <stop offset="0" stop-color="#faa"/>
            <stop offset="1" stop-color="#f55"/>
        </linearGradient>
        <linearGradient id="innoGrad6">
            <stop offset="0" stop-color="#ff7f2a"/>
            <stop offset="1" stop-color="#ffb380"/>
        </linearGradient>
        <linearGradient id="innoGrad5">
            <stop offset="0" stop-color="#ffe6d5"/>
            <stop offset="1" stop-color="#fca"/>
        </linearGradient>
        <linearGradient id="innoGrad3">
            <stop offset="0" stop-color="#ffd5d5"/>
            <stop offset="1" stop-color="#ff8080"/>
        </linearGradient>
        <linearGradient id="innoGrad0">
            <stop offset="0" stop-color="#ffd5d5"/>
            <stop offset="1" stop-color="#faa"/>
        </linearGradient>
        <linearGradient id="linearGradient37477" x1="71.658" x2="70.733" y1="34.547" y2="38.296" gradientTransform="matrix(.905 0 0 1 7.706 8.381)" gradientUnits="userSpaceOnUse" xlink:href="#innoGrad5"/>
        <linearGradient id="linearGradient178931" x1="13.842" x2="20.092" y1="19.724" y2="29.992" gradientUnits="userSpaceOnUse" xlink:href="#innoGrad8"/>
        <linearGradient id="linearGradient1945">
            <stop offset="0" stop-color="#ff8080"/>
        </linearGradient>
        <linearGradient id="linearGradient8809" x1="3.785" x2="61.731" y1="32.03" y2="32.03" gradientTransform="translate(4.857 14.787)" gradientUnits="userSpaceOnUse" xlink:href="#linearGradient1945"/>
        <linearGradient id="linearGradient8911" x1="51.736" x2="21.725" y1="20.737" y2="63.023" gradientUnits="userSpaceOnUse" xlink:href="#innoGrad3"/>
    </defs>
    <g>
        <path fill="#ffb380" stroke="#000" stroke-linejoin="round" stroke-width=".617" d="M17.563 47.165c-2.71 1.059-5.154 3.787-3.409 6.075 2.52 2.725 7.424 2.676 11.282 2.167 20.095-.895 40.173-2.069 60.295-2.574 2.761 1.794 6.415-2.74 2.305-3.073-3.819-.573-7.71.21-11.545-.246-19.658-.543-39.28-1.635-58.928-2.349z" color="#000"/>
        <path fill="url(#linearGradient37477)" stroke="#000" stroke-linejoin="round" stroke-width=".631" d="M26.347 36.274a32.545 32.545 0 00-2.99.131 4.617 4.617 0 00-.162.02c-3.725.492-5.938 2.674-7.574 5.205-1.636 2.53-2.702 5.719-3.09 9.328-.015.136-.015.27 0 .406.388 3.61 1.454 6.798 3.09 9.328 1.636 2.531 3.85 4.713 7.574 5.206.054.007.107.012.162.017 3.566.345 8.825-.023 15.652-.674 6.828-.65 15.635-2.416 23.506-3.6 9.48-.892 15.704-4.024 28.883-7.019.134.013.404.024.404.024 2.45 0 4.434-1.591 4.434-3.553s-1.985-3.553-4.434-3.553a5.348 5.348 0 00-.113.006c-10.174-1.816-20.302-5.443-30.476-7.1-7.872-1.182-15.376-2.714-22.204-3.365-3.414-.325-6.435-.58-9.048-.71a68.525 68.525 0 00-3.614-.096zm-.017 5.208c2.555.02 6.86.248 11.775.716 6.614.631 14.57 1.619 22.281 2.778 7.711 1.158 15.195 2.492 20.815 3.787 2.547.587 4.685 1.167 6.25 1.685-.053.213-.08.428-.084.645.004.259.043.517.117.77-1.567.52-3.718 1.106-6.283 1.697-5.62 1.294-13.104 2.628-20.815 3.787-7.71 1.159-15.667 2.146-22.28 2.777-6.555.625-12.021.82-13.706.67-.069-.028-1.317-.589-2.434-2.316-1.116-1.728-2.04-4.324-2.392-7.317.353-2.992 1.276-5.59 2.392-7.318 1.117-1.728 2.365-2.286 2.434-2.315.421-.037 1.078-.053 1.93-.046z"/>
        <path fill="#fff" d="M89.73 48.166c-.965-.143-2.033-.114-2.033-.114s.86.652 1.932.806c2.075.303 3.95.318 4.525 1.661.37.82.461 1.998.461 1.998s.682-1.055.182-2.273c-.756-1.767-3.048-1.784-5.068-2.078z"/>
        <ellipse cx="92.217" cy="51.249" fill="#ffb380" fill-rule="evenodd" stroke="#000" stroke-width=".6" rx="1.364" ry="1.307"/>
    </g>
    <g>
        <path fill="url(#linearGradient8809)" d="M34.424 17.11C10.31 17.19 2.2 34.602 13.879 57.98c2.196 4.397-4.046 1.188-4.762 2.903-1.196 2.866.146 8.336 2.147 9.066 4.216 1.538 11.695-1.723 16.035-4.68 2.083-1.419 3.04-2.523-1.58-9.55-6.496-9.879-5.186-22.204 8.549-22.295l.125.031c.042-.01.086-.019.127-.03 13.733.145 14.994 12.474 8.46 22.327-4.648 7.01-3.695 8.118-1.617 9.545 4.329 2.973 11.795 6.264 16.018 4.742 2.003-.722 3.365-6.188 2.18-9.059-.71-1.717-6.962 1.467-4.748-2.921 11.769-23.333 3.724-40.774-20.39-40.95z" transform="matrix(.94718 0 0 .90415 -1.11 10.963)"/>
        <path fill="url(#linearGradient8911)" fill-rule="evenodd" stroke="#000" stroke-linejoin="round" d="M34.424 17.11C10.31 17.19 2.2 34.602 13.879 57.98c2.196 4.397-4.046 1.188-4.762 2.903-1.196 2.866.146 8.336 2.147 9.066 4.216 1.538 11.695-1.723 16.035-4.68 2.083-1.419 3.04-2.523-1.58-9.55-6.496-9.879-5.186-22.204 8.549-22.295l.125.031c.042-.01.086-.019.127-.03 13.733.145 14.994 12.474 8.46 22.327-4.648 7.01-3.695 8.118-1.617 9.545 4.329 2.973 11.795 6.264 16.018 4.742 2.003-.722 3.365-6.188 2.18-9.059-.71-1.717-6.962 1.467-4.748-2.921 11.769-23.333 3.724-40.774-20.39-40.95zm-6.47 5.043c2.028 0 3.673 1.605 3.673 3.586 0 1.98-1.644 3.587-3.673 3.587-2.03 0-3.674-1.606-3.673-3.587 0-1.98 1.644-3.586 3.673-3.586zm12.922.025c-2.029-.008-3.68 1.591-3.687 3.572-.009 1.98 1.63 3.593 3.659 3.601 2.03.008 3.68-1.592 3.687-3.573.008-1.98-1.63-3.592-3.66-3.6zM18.104 29.29c2.029 0 3.673 1.605 3.673 3.586 0 1.98-1.644 3.585-3.673 3.585-2.028 0-3.673-1.605-3.673-3.585s1.645-3.586 3.673-3.586zm32.594.063c-2.029-.008-3.68 1.591-3.687 3.572-.008 1.98 1.63 3.592 3.659 3.6 2.028.008 3.68-1.591 3.687-3.572.008-1.98-1.63-3.592-3.66-3.6zm-35.5 11.085c1.827 0 3.307 1.446 3.306 3.23 0 1.782-1.48 3.226-3.305 3.226-1.825 0-3.305-1.444-3.305-3.226 0-1.783 1.48-3.229 3.305-3.229zm38.362.075c-1.826-.008-3.312 1.433-3.318 3.216-.006 1.783 1.468 3.233 3.293 3.24 1.824.007 3.31-1.432 3.317-3.214.007-1.783-1.467-3.234-3.292-3.24z" transform="matrix(.94718 0 0 .90415 -1.11 10.963)"/>
    </g>
</svg>
