<?xml version="1.0" encoding="UTF-8" standalone="no"?>
<svg
   cursor="default"
   viewBox="0 0 256 256"
   version="1.1"
   id="svg48"
   sodipodi:docname="milk_carton_clip.svg"
   inkscape:version="1.4.1-rc (d9e8dc1fe0, 2025-03-10)"
   width="100%"
   height="100%"
   xmlns:inkscape="http://www.inkscape.org/namespaces/inkscape"
   xmlns:sodipodi="http://sodipodi.sourceforge.net/DTD/sodipodi-0.dtd"
   xmlns:xlink="http://www.w3.org/1999/xlink"
   xmlns="http://www.w3.org/2000/svg"
   xmlns:svg="http://www.w3.org/2000/svg">
  <defs
     id="defs48">
    <linearGradient
       id="linearGradient8"
       inkscape:collect="always">
      <stop
         style="stop-color:#2aa0ff;stop-opacity:1;"
         offset="0"
         id="stop8" />
      <stop
         style="stop-color:#7bc3ff;stop-opacity:1;"
         offset="1"
         id="stop9" />
    </linearGradient>
    <linearGradient
       id="linearGradient6"
       inkscape:collect="always">
      <stop
         style="stop-color:#ffaaaa;stop-opacity:1;"
         offset="0"
         id="stop6" />
      <stop
         style="stop-color:#ffffff;stop-opacity:1;"
         offset="1"
         id="stop7" />
    </linearGradient>
    <inkscape:path-effect
       effect="mirror_symmetry"
       start_point="131.9731,120.67956"
       end_point="131.9731,174.56588"
       center_point="131.9731,147.62272"
       id="path-effect16"
       is_visible="true"
       lpeversion="1.2"
       lpesatellites=""
       mode="free"
       discard_orig_path="false"
       fuse_paths="false"
       oposite_fuse="false"
       split_items="false"
       split_open="false"
       link_styles="false" />
    <inkscape:perspective
       sodipodi:type="inkscape:persp3d"
       inkscape:vp_x="38.629155 : 126.0358 : 1"
       inkscape:vp_y="0 : 1000 : 0"
       inkscape:vp_z="256 : 128 : 1"
       inkscape:persp3d-origin="128 : 85.333333 : 1"
       id="perspective1" />
    <linearGradient
       inkscape:collect="always"
       xlink:href="#linearGradient6"
       id="linearGradient7"
       x1="65.712152"
       y1="130.94961"
       x2="212.6612"
       y2="130.94961"
       gradientUnits="userSpaceOnUse" />
    <linearGradient
       inkscape:collect="always"
       xlink:href="#linearGradient8"
       id="linearGradient9"
       x1="68.964851"
       y1="130.90529"
       x2="203.06246"
       y2="130.90529"
       gradientUnits="userSpaceOnUse" />
  </defs>
  <sodipodi:namedview
     id="namedview48"
     pagecolor="#ffffff"
     bordercolor="#666666"
     borderopacity="1.0"
     inkscape:showpageshadow="2"
     inkscape:pageopacity="0.0"
     inkscape:pagecheckerboard="0"
     inkscape:deskcolor="#d1d1d1"
     inkscape:zoom="2.1914062"
     inkscape:cx="145.1123"
     inkscape:cy="101.30482"
     inkscape:window-width="1854"
     inkscape:window-height="1010"
     inkscape:window-x="0"
     inkscape:window-y="0"
     inkscape:window-maximized="1"
     inkscape:current-layer="svg48"
     showgrid="false" />
  <g
     id="g127"
     transform="matrix(2.3940071,0.36360626,-0.33612673,2.7123792,-142.48761,-269.11738)"
     style="display:inline;stroke-width:0.388789">
    <rect
       style="fill:#ff8080;fill-opacity:1;stroke:#000000;stroke-width:0.388789;stroke-linecap:round;stroke-linejoin:round;stroke-dasharray:none;stroke-opacity:1"
       id="rect23"
       width="72.347832"
       height="11.785167"
       x="97.5"
       y="123.5" />
  </g>
  <g
     id="g128"
     style="display:inline;stroke-width:0.388789"
     transform="matrix(2.3940071,0.36360626,-0.33612673,2.7123792,-138.78122,-271.46207)">
    <rect
       style="fill:#ff8080;fill-opacity:1;stroke:#000000;stroke-width:0.388789;stroke-linecap:round;stroke-linejoin:round;stroke-dasharray:none;stroke-opacity:1"
       id="rect127"
       width="72.347832"
       height="11.785167"
       x="97.5"
       y="123.5" />
    <path
       style="fill:none;fill-opacity:1;stroke:#ff5555;stroke-width:1.04973;stroke-linecap:butt;stroke-linejoin:miter;stroke-dasharray:none;stroke-opacity:1"
       d="M 169.42354,133.21162 H 99.525936 l -0.230855,-9.24304"
       id="path127"
       sodipodi:nodetypes="ccc" />
    <path
       style="fill:none;fill-opacity:1;stroke:#ffd5d5;stroke-width:1.04973;stroke-linecap:butt;stroke-linejoin:miter;stroke-dasharray:none;stroke-opacity:1"
       d="m 100.80301,125.78801 h 66.8717 l 0.22843,8.01841"
       id="path128"
       sodipodi:nodetypes="ccc" />
  </g>
  <path
     style="fill:#ffffff;stroke:#000000;stroke-width:3.375;stroke-linecap:round;stroke-linejoin:round;stroke-dasharray:none;stroke-opacity:1"
     d="M 107.22419,102.83445 104.76887,62.46381 90.39375,73.610955 93.786328,120.72618 Z"
     id="path13"
     sodipodi:nodetypes="ccccc" />
  <path
     style="fill:#ffffff;stroke:#000000;stroke-width:3.375;stroke-linecap:round;stroke-linejoin:round;stroke-dasharray:none;stroke-opacity:1"
     d="M 86.087091,196.3093 68.12875,168.15833 88.813801,74.58355 106.42002,102.18254 142.094,166.0171 Z"
     id="path11" />
  <path
     style="fill:#ffffff;stroke:#000000;stroke-width:3.375;stroke-linecap:round;stroke-linejoin:round;stroke-dasharray:none;stroke-opacity:1"
     d="m 105.59628,62.324286 87.69811,19.385988 11.13763,42.421926 -41.84869,21.43636 -55.63569,-42.16939 z"
     id="path12"
     sodipodi:nodetypes="cccccc" />
  <rect
     style="display:inline;fill:#ffffff;stroke:#000000;stroke-width:3.3;stroke-linecap:round;stroke-linejoin:round;stroke-dasharray:none"
     id="rect11"
     width="99.300003"
     height="97.437454"
     x="127.34905"
     y="77.126167"
     transform="rotate(12.464991)" />
  <path
     style="fill:#ffffff;stroke:#000000;stroke-width:3.375;stroke-linecap:round;stroke-linejoin:round;stroke-dasharray:none;stroke-opacity:1"
     d="m 104.31672,62.363861 4.83988,-19.792353 88.61141,19.587879 -4.73995,19.3403 z"
     id="path14"
     sodipodi:nodetypes="ccccc" />
  <path
     style="fill:#ffffff;stroke:#000000;stroke-width:3;stroke-linecap:round;stroke-linejoin:round;stroke-dasharray:none;stroke-opacity:1"
     d="m 149.4009,79.729363 c -8.77925,9.122756 -3.4527,18.343329 4.88517,18.263919 37.76479,-44.728018 31.98429,-35.559381 31.98429,-35.559381 l 11.7503,23.086107 12.38378,-5.193613 c 0,0 -8.44244,-24.309648 -16.61147,-34.061015 -2.44437,-1.928642 -9.11782,-2.029068 -9.11782,-2.029068 -6.16114,-0.07675 -9.40399,5.782279 -35.27425,35.493051 z"
     id="path15"
     sodipodi:nodetypes="cccccccc" />
  <g
     id="g21"
     transform="rotate(12.464991,156.25955,221.01897)">
    <path
       id="path16"
       style="fill:#ffffff;stroke:#000000;stroke-width:2;stroke-linecap:round;stroke-linejoin:round;stroke-dasharray:none;stroke-opacity:1"
       d="m 105.84188,131.09156 c -6.31981,0.32023 -13.259693,10.62384 -11.298829,16.69336 14.305319,13.13303 19.763799,-1.1496 22.263669,6.13086 2.39621,6.97855 -15.08265,10.60437 -13.22852,17.74609 2.75435,10.60915 20.71627,19.45725 30.00782,13.6543 -0.0541,-0.0338 -0.10668,-0.0668 -0.16016,-0.10156 -0.003,-0.12408 -0.007,-0.24554 -0.01,-0.36329 h 0.33985 c -0.003,0.11775 -0.005,0.23921 -0.008,0.36329 -0.0535,0.0348 -0.10804,0.0678 -0.16211,0.10156 9.29155,5.80295 27.25541,-3.04515 30.00976,-13.6543 1.85413,-7.14172 -15.62668,-10.76754 -13.23047,-17.74609 2.49987,-7.28046 7.95835,7.00217 22.26367,-6.13086 2.16372,-6.6974 -6.50889,-18.55071 -13.22851,-16.45703 4.16801,6.47808 2.25028,10.19721 -0.96875,13.22851 -6.0299,5.67823 -19.01587,-5.55923 -24.8457,0.32422 0.001,0.0908 0.003,0.17972 0.004,0.26953 h -0.006 c 0.001,-0.0898 8.8e-4,-0.17876 0.002,-0.26953 -5.82983,-5.88345 -18.81581,5.35401 -24.84571,-0.32422 -3.21903,-3.0313 -5.1348,-6.75043 -0.96679,-13.22851 -0.62997,-0.19628 -1.27787,-0.26946 -1.93164,-0.23633 z" />
    <path
       style="fill:none;stroke:#000000;stroke-width:1px;stroke-linecap:butt;stroke-linejoin:miter;stroke-opacity:1"
       d="m 116.13547,168.84136 c 0,0 17.51402,15.61466 33.99644,0.91265 -16.14503,27.28017 -33.99644,-0.91265 -33.99644,-0.91265 z"
       id="path17"
       sodipodi:nodetypes="ccc" />
    <circle
       style="fill:#000000;stroke:none;stroke-width:3;stroke-linecap:round;stroke-linejoin:round;stroke-dasharray:none"
       id="path18"
       cx="125.56774"
       cy="157.28253"
       r="3.5" />
    <circle
       style="fill:#000000;stroke:none;stroke-width:3;stroke-linecap:round;stroke-linejoin:round;stroke-dasharray:none"
       id="circle18"
       cx="141.08289"
       cy="157.5107"
       r="3.5" />
    <circle
       style="fill:#ffffff;stroke:none;stroke-width:3;stroke-linecap:round;stroke-linejoin:round;stroke-dasharray:none"
       id="path19"
       cx="124.70856"
       cy="156.19518"
       r="1.5" />
    <circle
       style="fill:#ffffff;stroke:none;stroke-width:3;stroke-linecap:round;stroke-linejoin:round;stroke-dasharray:none"
       id="circle19"
       cx="139.99554"
       cy="156.19518"
       r="1.5" />
    <ellipse
       style="fill:#ffffff;stroke:#000000;stroke-width:1;stroke-linecap:round;stroke-linejoin:round;stroke-dasharray:none"
       id="path20"
       cx="133.93227"
       cy="169.98216"
       rx="6.8449202"
       ry="3.8787878" />
    <path
       id="ellipse21"
       style="fill:#ffffff;stroke:#000000;stroke-width:1;stroke-linecap:round;stroke-linejoin:round;stroke-dasharray:none"
       d="m 132.93359,168.15625 c -1.34953,0.1964 -2.92701,0.49287 -3.77119,1.66465 -0.10485,0.70709 0.81686,1.06943 1.33671,1.36463 2.30697,0.93896 5.08483,0.93525 7.30795,-0.23418 0.52551,-0.25528 1.35504,-0.94973 0.63239,-1.48455 -1.49593,-1.2492 -3.63277,-1.44688 -5.50586,-1.31055 z" />
    <path
       style="fill:#ffffff;stroke:#000000;stroke-width:1px;stroke-linecap:butt;stroke-linejoin:miter;stroke-opacity:1"
       d="m 130.73797,164.27807 c 2.55179,-0.84841 4.82074,-0.70171 7.07308,0 -2.07068,1.83628 -2.2364,3.19789 -1.72843,4.92511 -0.84713,0.37209 -3.77025,0.513 -4.432,-0.13366 1.2572,-1.78167 -0.25516,-3.21617 -0.91265,-4.79145 z"
       id="path21"
       sodipodi:nodetypes="ccccc" />
  </g>
  <path
     id="path23"
     style="display:inline;fill:url(#linearGradient9);fill-opacity:1;stroke:#000000;stroke-width:2;stroke-linecap:round;stroke-linejoin:round;stroke-dasharray:none"
     d="m 110.51758,44.607422 -0.97852,3.814453 c -0.53826,2.097981 -1.46938,5.781642 -2.06836,8.1875 l -1.08984,4.375 15.65625,3.427734 c 8.61105,1.885379 19.47256,4.207825 24.13477,5.160157 l 8.47656,1.730468 4.21484,-4.910156 c 2.31814,-2.700558 5.06619,-5.903461 6.10742,-7.11914 l 1.89258,-2.210938 -28.17383,-6.228516 z m 75.10547,19.912109 c -0.10177,-0.179314 -10.25279,10.99956 -10.33789,11.384766 -0.0176,0.0796 2.16284,0.561656 4.8457,1.070312 2.68286,0.508649 6.4067,1.261054 8.27539,1.673829 l 3.39844,0.751953 0.21093,-0.953125 c 0.20101,-0.909283 0.0611,-1.245975 -3.0664,-7.396485 -1.80198,-3.543768 -3.29817,-6.4819 -3.32617,-6.53125 z m -78.21094,0.515625 c 0.0164,0.149925 0.28808,8.347963 0.60351,18.216797 l 0.57422,17.943357 46.73633,10.33203 46.73633,10.33204 -1.74414,-6.63672 c -0.9598,-3.65007 -3.24267,-12.33012 -5.07227,-19.289066 l -3.32617,-12.652344 -9.66406,-2.197266 -9.66211,-2.197265 -5.67969,6.632812 c -3.12363,3.648383 -7.01444,8.218746 -8.64648,10.154297 -1.63206,1.935545 -3.2258,3.618075 -3.54102,3.740234 -0.90943,0.352431 -4.04299,-0.234776 -5.65429,-1.060546 -1.85015,-0.9482 -2.75955,-1.746212 -3.88086,-3.400391 -1.69159,-2.495484 -2.18742,-5.159726 -1.51758,-8.162109 0.70397,-3.155706 1.78652,-4.931301 5.79883,-9.50586 1.36906,-1.560898 2.47423,-2.846032 2.45703,-2.857422 -0.0172,-0.0114 -10.04723,-2.19172 -22.28907,-4.84375 -16.50778,-3.576198 -22.25061,-4.751 -22.22851,-4.548828 z m -4.23047,1.056641 c -0.0625,-0.09329 -2.56901,1.745698 -5.570312,4.087891 l -5.457031,4.257812 0.117187,1.25 c 0.107566,1.14872 0.610431,2.023899 6.296875,10.96875 3.398831,5.346407 6.229211,9.636432 6.291021,9.533203 0.0616,-0.103229 0.0915,-0.860703 0.0664,-1.681641 -0.0971,-3.172644 -1.63664,-28.255454 -1.74414,-28.416015 z m -25.21289,65.449223 -4.001953,18.10351 -4.001953,18.10547 7.914062,12.41016 7.914063,12.41015 4.533203,-20.0664 c 2.493409,-11.03674 4.608915,-20.81538 4.701172,-21.72852 0.164402,-1.62782 0.14168,-1.67629 -1.1875,-2.54101 -5.208978,-3.3889 -10.727334,-8.97012 -14.56836,-14.73633 z m 106.89258,25.375 c -2.8893,0.11054 -6.07844,0.453 -9.92578,1.03906 -5.17839,0.78882 -7.93455,1.36788 -8.00391,1.68164 -0.0308,0.13927 1.34508,1.8219 3.05664,3.74023 4.95839,5.5574 6.12921,7.94233 5.24414,10.67383 -1.46303,4.51521 -8.11681,9.32654 -15.44336,11.16797 -3.9454,0.99163 -6.7543,1.10443 -10.67187,0.43164 -3.11014,-0.53412 -3.72893,-0.74018 -5.54102,-1.83594 l -2.04101,-1.23242 -2.20704,0.26563 c -1.9363,0.23347 -2.64597,0.15163 -5.79882,-0.66993 -4.0247,-1.04876 -6.40296,-2.25696 -9.65625,-4.90429 -2.56889,-2.09041 -4.06413,-3.69956 -5.75196,-6.19727 l -1.38281,-2.04687 -3.27734,-0.0488 c -2.54466,-0.038 -4.15186,-0.26675 -7.19141,-1.02539 -3.66675,-0.91524 -4.04018,-1.07333 -5.89062,-2.50391 -1.086596,-0.84004 -2.39224,-2.1618 -2.902348,-2.9375 l -0.927734,-1.41211 -3.914062,17.70703 -3.916016,17.70899 46.78906,10.34375 46.78711,10.34179 6.58985,-29.81054 6.58984,-29.8125 -2.49023,-0.31641 c -2.64464,-0.33742 -5.23376,-0.4582 -8.12305,-0.34765 z" />
  <path
     style="display:inline;fill:#be9071;stroke:#000000;stroke-width:1.7;stroke-linecap:round;stroke-linejoin:round;paint-order:markers stroke fill;fill-opacity:1"
     d="m 149.90375,183.8404 c -2.75684,-0.52748 -5.52655,-1.68521 -6.26873,-2.62032 -1.25352,-1.57938 -1.82901,-1.75216 -3.08808,-0.92719 -2.22727,1.45936 -8.54141,-0.0217 -13.27947,-3.11478 -6.49838,-4.24229 -11.6219,-12.49028 -10.51021,-16.91962 0.3548,-1.41361 2.62181,-2.88595 8.21273,-5.33385 2.47466,-1.08349 5.12077,-2.49285 5.88023,-3.13189 2.63589,-2.21796 3.18922,-5.84423 1.17052,-7.67112 -0.7466,-0.67567 -1.59867,-0.78818 -5.1647,-0.68193 -3.5656,0.10623 -4.65311,-0.0373 -6.5877,-0.86956 -2.91856,-1.25553 -7.32716,-5.8326 -7.32716,-7.60715 0,-4.39195 7.33672,-11.52627 11.85326,-11.52627 h 1.38805 l -1.37288,2.43262 c -2.19444,3.88834 -1.80034,7.69346 1.16054,11.20519 2.20814,2.61895 3.58093,2.94145 12.11695,2.84652 8.21027,-0.0913 9.63829,0.17868 11.23995,2.12508 0.88898,1.08031 1.13805,1.16664 1.93321,0.67006 2.07593,-1.29644 4.66128,-0.71389 11.03631,2.48677 7.13113,3.58029 9.85987,4.10354 13.01243,2.49522 4.01778,-2.04972 6.12968,-6.12165 5.30544,-10.22937 -0.23921,-1.19216 -0.34074,-2.16756 -0.2256,-2.16756 0.11513,0 0.87239,0.4098 1.68281,0.91067 3.11718,1.92652 5.78543,7.48625 5.84257,12.17392 0.0192,1.57196 -0.20778,3.10893 -0.51341,3.4772 -0.93343,1.12471 -5.93102,3.11806 -8.47592,3.38072 -2.79873,0.28885 -5.08446,-0.32579 -8.03005,-2.15932 -3.1856,-1.98293 -4.97835,-1.96691 -6.41975,0.0573 -1.18793,1.6683 -1.31221,4.19206 -0.30202,6.13309 0.38716,0.74392 2.46329,3.38678 4.61363,5.87303 2.15034,2.48625 4.13761,5.21102 4.41616,6.05505 0.99298,3.00874 -2.48734,7.08946 -8.46845,9.92939 -1.75687,0.83418 -4.14206,1.74287 -5.30044,2.01929 -2.52215,0.60186 -7.93851,0.99331 -9.53022,0.68876 z m 2.76824,-6.88828 c 3.33756,-1.65042 9.23499,-6.35456 8.94593,-7.13582 -0.23498,-0.63507 -0.28476,-0.62323 -3.9566,0.94126 -2.67394,1.13931 -3.48307,1.2626 -8.2139,1.25165 -4.36921,-0.0101 -5.65388,-0.18169 -7.67349,-1.02476 -3.56428,-1.48789 -7.21076,-3.95308 -10.454,-7.0674 -1.57707,-1.51438 -3.01939,-2.60142 -3.20516,-2.41565 -0.62253,0.62252 3.70269,8.07453 6.38649,11.00342 4.28765,4.67922 7.44049,6.23188 12.23847,6.02701 2.2723,-0.097 3.70588,-0.47878 5.93226,-1.57971 z m -1.18584,-7.41242 c 1.64992,-1.55001 1.51798,-3.29616 -0.38593,-5.10772 -1.5226,-1.44874 -1.53023,-1.47584 -0.62279,-2.21064 0.89257,-0.72276 0.85289,-0.77223 -1.39515,-1.73931 -1.27262,-0.54747 -3.17245,-0.99539 -4.22185,-0.99539 -1.75387,0 -1.89152,0.0862 -1.70405,1.06688 0.17747,0.92837 -0.0508,1.135 -1.75797,1.59161 -3.66444,0.98009 -4.25524,3.98108 -1.25504,6.375 2.24222,1.78911 4.15431,2.36906 7.34991,2.22928 2.25395,-0.0986 3.0749,-0.34732 3.99287,-1.20971 z m 6.64113,-11.89637 c 0.24569,-0.45907 0.4467,-1.4493 0.4467,-2.20053 0,-1.5659 -1.77721,-3.25741 -3.42246,-3.25741 -1.60648,0 -3.42246,1.69269 -3.42246,3.19009 0,1.98478 0.46421,2.78954 1.97567,3.42506 1.63667,0.68817 3.72776,0.14102 4.42255,-1.15721 z m -15.4107,-3.24631 c 1.14806,-1.35677 1.00872,-3.41195 -0.3215,-4.74218 -1.36885,-1.36884 -2.9275,-1.42891 -4.52248,-0.1743 -1.29725,1.02041 -1.59704,2.94004 -0.71621,4.5859 1.02993,1.92443 4.05913,2.10452 5.56019,0.33058 z"
     id="path1" />
  <path
     id="path5"
     style="display:inline;fill:#000000;fill-opacity:1;stroke:#000000;stroke-width:1.7;stroke-linecap:round;stroke-linejoin:round;stroke-opacity:1;paint-order:markers stroke fill"
     d="m 105.90259,42.587972 c -1.02594,0.185039 -1.01238,0.146851 -3.62109,10.814453 -1.34537,5.501568 -2.481344,10.058284 -2.523444,10.126954 -0.04206,0.06867 -2.993557,2.385303 -6.558594,5.146484 -3.565035,2.76118 -6.681981,5.206008 -6.927735,5.433594 -0.245754,0.227586 -0.678663,0.489371 -0.960937,0.582031 -0.294747,0.09675 -0.627161,0.374376 -0.78125,0.652344 -0.14757,0.266205 -4.937998,21.634746 -10.646485,47.484378 -8.564999,38.78474 -10.35197,47.07351 -10.216797,47.43164 0.09009,0.23868 4.279079,6.88319 9.308594,14.76563 5.029515,7.88243 9.144532,14.4383 9.144532,14.56836 -10e-7,0.37797 0.460691,1.16528 0.783203,1.33789 0.162812,0.0871 18.731483,4.23261 41.261723,9.21289 22.53024,4.98027 44.30297,9.80396 48.38476,10.71875 4.08182,0.91479 7.72078,1.67164 8.08594,1.68164 0.83972,0.0231 1.44856,-0.43085 1.66406,-1.24023 0.0873,-0.32799 4.88118,-21.96272 10.65235,-48.07618 10.3812,-46.97297 10.49115,-47.48531 10.24219,-48.07812 -0.32676,-0.77809 -10.26487,-38.615958 -10.16797,-38.712898 v -0.002 h 0.002 v -0.002 h 0.002 0.002 0.002 0.002 0.002 v 0.002 h 0.002 v 0.002 h 0.002 c 0.0747,0.04473 0.30474,0.41478 0.54297,0.886719 0.5246,1.039235 1.13304,1.454088 1.82227,1.24414 0.49802,-0.151705 12.16684,-5.034512 12.74218,-5.332031 0.59777,-0.309117 0.83459,-0.793681 0.73829,-1.511719 -0.10024,-0.747322 -2.30791,-6.628254 -4.15235,-11.058594 -3.7847,-9.090809 -7.24705,-15.930663 -10.50195,-20.74414 -1.69386,-2.504966 -2.42557,-3.301154 -3.54688,-3.867188 -1.89842,-0.958322 -5.3896,-1.607422 -8.65039,-1.607422 -2.81814,0 -4.26808,0.514043 -6.76367,2.394532 -1.34937,1.016782 -5.25047,4.92999 -7.40039,7.421875 -1.18414,1.372493 -1.33134,1.488145 -1.77539,1.416015 -0.26621,-0.04324 -13.80697,-3.025445 -30.08984,-6.628906 -19.83326,-4.389177 -29.76954,-6.523131 -30.10352,-6.462891 z m 1.76367,3.636719 c 0.34747,0.0018 56.08299,12.360381 56.17969,12.457031 0.0528,0.0528 -2.64343,3.296441 -5.99219,7.208985 -5.20082,6.076392 -6.14959,7.111809 -6.50586,7.099609 -0.2294,-0.0079 -2.15942,-0.397195 -4.28906,-0.865234 -2.12964,-0.46804 -12.75101,-2.76369 -23.60156,-5.101563 -10.85056,-2.337871 -19.79144,-4.28984 -19.86914,-4.33789 -0.2011,-0.124284 3.84653,-16.462138 4.07812,-16.460938 z m 74.64453,1.220703 c 3.07339,0.01883 6.08671,0.600191 7.25977,1.398438 1.9381,1.31883 7.34007,11.025102 11.33594,20.36914 1.71636,4.013559 4.63672,11.426178 4.63672,11.769532 0,0.16976 -9.23292,4.1292 -9.61915,4.125 -0.21922,-0.0024 -10.89142,-20.926435 -10.85742,-21.28711 0.11514,-1.220127 -0.41575,-1.948233 -1.41797,-1.947265 -0.33679,3.31e-4 -0.83095,0.134231 -1.09765,0.296875 -1.84793,1.126941 -12.71985,13.336937 -28.86133,32.414062 -1.67053,1.974353 -3.04609,3.580683 -3.05859,3.570313 -0.0125,-0.01037 -0.38641,-0.07984 -0.83008,-0.154297 -4.19208,-0.703484 -6.86779,-4.273104 -6.23828,-8.322266 0.2176,-1.39967 0.92786,-3.201419 1.78515,-4.527344 0.3316,-0.512883 2.30631,-2.893218 4.38867,-5.289062 2.08239,-2.395845 7.08167,-8.203297 11.10938,-12.90625 9.08445,-10.607434 10.20244,-11.878317 12.90234,-14.648438 2.41105,-2.473776 3.96807,-3.744619 5.41602,-4.421875 0.91703,-0.428933 1.08315,-0.452093 3.14648,-0.439453 z m 0.32227,18.658203 c 0.0585,-0.02462 1.58863,2.879104 3.40039,6.453125 2.20907,4.357819 3.27889,6.631857 3.24609,6.902344 -0.0269,0.221837 -0.12158,0.675057 -0.20898,1.007813 -0.10853,0.413142 -0.24504,0.600213 -0.43359,0.589843 -0.48237,-0.02652 -16.14284,-3.450575 -16.24024,-3.550781 -0.14398,-0.148091 9.79118,-11.214932 10.23633,-11.402344 z m -78.1543,0.308594 c 0.0505,-0.06158 4.20457,0.823658 28.78516,6.132813 8.65166,1.86867 15.75807,3.424231 15.79297,3.457031 l 0.002,0.002 v 0.002 0.002 c -0.002,0.07064 -0.35702,0.535803 -0.81836,1.066407 -0.48403,0.556696 -1.69068,1.945109 -2.68164,3.083984 -1.99236,2.289765 -3.00954,3.730438 -3.74805,5.308594 -1.43485,3.066215 -1.66524,6.547891 -0.59961,9.072265 1.61331,3.82181 4.94551,6.159185 9.23438,6.478515 1.17211,0.0873 1.33373,0.0628 1.74414,-0.26367 0.24855,-0.19772 2.27801,-2.510769 4.51172,-5.140626 2.23372,-2.629858 6.02371,-7.065043 8.42187,-9.855469 2.39815,-2.790426 4.39776,-5.124713 4.44336,-5.189453 0.0819,-0.116376 19.24945,4.0514 19.41992,4.222656 0.0486,0.04879 2.30848,8.541811 5.02149,18.875002 2.71301,10.3332 4.99622,19.02411 5.07422,19.3125 0.12861,0.47575 0.11054,0.52362 -0.20703,0.51172 -0.19251,-0.007 -16.54024,-3.59856 -36.32813,-7.98047 -19.7879,-4.38191 -40.66136,-8.99842 -46.38476,-10.25781 -5.72341,-1.2594 -10.4332,-2.31069 -10.4668,-2.33789 -0.0729,-0.059 -1.285,-36.418828 -1.2168,-36.501958 z m -4.20898,1.00586 0.11719,0.574218 c 0.10747,0.529996 1.19762,18.307715 1.59375,25.994141 0.094,1.82366 0.14628,3.562218 0.11718,3.863281 -0.0481,0.497298 -0.63043,-0.359119 -6.373048,-9.365234 l -6.322265,-9.914063 -0.05078,-1.314453 -0.05273,-1.316406 5.486328,-4.259766 z m -13.667975,13.52539 c 0.101828,-0.312647 1.292712,1.466468 7.701172,11.507813 4.169289,6.532817 7.776723,12.275396 8.015633,12.761726 l 0.43359,0.88477 -4.849614,21.97265 c -2.667638,12.08481 -4.904453,22.03102 -4.970702,22.10352 -0.06625,0.0726 -0.160085,0.0278 -0.208985,-0.0996 -0.0489,-0.12743 -0.929769,-0.82292 -1.957031,-1.54688 -5.167689,-3.64188 -9.90649,-8.53631 -13.6875,-14.13476 -0.719144,-1.06482 -1.404201,-1.99346 -1.521484,-2.06446 -0.117284,-0.071 -0.212891,-0.23742 -0.212891,-0.36914 0,-0.27157 11.071942,-50.444937 11.257812,-51.015629 z m 19.468755,25.494149 c 0.0583,-0.0583 21.33005,4.62216 78.31836,17.23437 8.37526,1.85355 15.26455,3.40713 15.31055,3.45313 0.085,0.085 -6.68168,30.89652 -6.81446,31.0293 -0.0398,0.0398 -1.07412,-0.0519 -2.29883,-0.20508 -1.22471,-0.15319 -3.71863,-0.31728 -5.54296,-0.36328 l -3.31641,-0.082 2.06641,-1.03515 c 2.34705,-1.17477 2.47191,-1.3201 3.04492,-3.56055 1.63963,-6.4109 -2.99604,-16.06894 -8.53907,-17.79297 -1.17889,-0.36666 -2.72959,-0.41888 -3.1582,-0.10547 -0.39448,0.28845 -0.36387,0.73569 0.16406,2.44922 0.3747,1.2162 0.44904,1.75261 0.45704,3.30664 0.008,1.57774 -0.0473,1.99545 -0.36524,2.78907 -0.64416,1.60806 -2.94761,3.75232 -4.74609,4.41797 -0.39828,0.1474 -1.18612,0.252 -1.89258,0.25 -1.70182,-0.004 -3.3478,-0.57339 -6.67578,-2.31055 -7.07,-3.69043 -8.73512,-4.33985 -11.14063,-4.33985 -0.72906,0 -1.70386,0.11356 -2.16992,0.25196 l -0.84766,0.25195 -0.6289,-0.57031 c -0.34602,-0.3126 -1.00816,-0.75976 -1.4707,-0.99414 -2.15452,-1.09179 -4.0867,-1.29916 -9.57618,-1.03125 -8.44506,0.41215 -10.46528,-0.035 -12.19726,-2.69336 -1.19905,-1.84038 -1.51463,-2.80951 -1.51563,-4.66406 -9e-4,-1.58531 0.0155,-1.65975 0.67578,-2.99219 0.41817,-0.8439 1.14654,-1.91436 1.9043,-2.79883 0.94084,-1.09817 1.21484,-1.52842 1.17774,-1.84375 -0.16122,-1.3692 -3.82404,-2.01981 -6.57422,-1.16797 -5.94796,1.84232 -11.44555,8.08745 -11.74219,13.33594 l -0.082,1.45508 1.02734,1.36718 c 2.82448,3.75751 6.23739,6.41976 9.39258,7.32618 1.50949,0.43368 3.35241,0.58297 5.08203,0.41015 3.80842,-0.38049 4.03954,-0.38562 4.375,-0.082 0.4564,0.41301 0.71676,1.83063 0.49024,2.67188 -0.40196,1.49277 -2.32791,2.91167 -6.13672,4.52343 -6.01818,2.5467 -7.74742,3.49493 -9.03125,4.95118 -1.22078,1.38473 -1.36928,1.80955 -1.36328,3.9121 0.006,1.97567 0.29926,3.36356 1.12695,5.33008 0.22052,0.52391 0.40039,0.99011 0.40039,1.03711 0,0.12661 -3.76152,0.0647 -5.18164,-0.0859 -2.47281,-0.26229 -7.2551,-1.48761 -8.541024,-2.1875 -1.16905,-0.63628 -3.228917,-2.48859 -4.023434,-3.61719 -0.399307,-0.56721 -0.944604,-1.25927 -1.210938,-1.53711 l -0.484375,-0.50391 6.093747,-27.5625 c 3.351304,-15.1587 6.123464,-27.59025 6.160164,-27.62695 z m 16.53516,18.38867 c 0.14979,0.002 0.28391,0.0133 0.40039,0.0352 l 0.59179,0.11133 -0.33984,0.43554 c -2.96767,3.79762 -3.53828,7.33797 -1.75195,10.88086 2.26468,4.49164 4.94417,5.6257 12.40234,5.2461 4.89753,-0.24932 8.19705,-0.21999 9.31836,0.082 1.72082,0.46349 3.42773,1.56134 3.42773,2.20507 0,0.373 0.50504,0.81641 0.93164,0.81641 0.18809,0 0.53788,-0.18236 0.77735,-0.4043 0.60204,-0.55795 1.54615,-0.77479 2.9707,-0.68359 2.03511,0.13024 3.01813,0.54009 9.83984,4.10742 5.79472,3.03029 8.7172,3.32035 11.98438,1.1875 2.40022,-1.56687 4.01606,-3.70903 4.48047,-5.93945 0.23517,-1.12946 0.11138,-3.95563 -0.22656,-5.16602 -0.21624,-0.77441 -0.21337,-0.8457 0.0293,-0.8457 0.63891,0 2.11225,0.95174 3.25586,2.10547 1.82802,1.8442 3.20903,4.40566 4.06836,7.54297 0.47957,1.75086 0.49957,5.19819 0.0391,6.48437 l -0.3164,0.88672 -1.85547,0.9336 c -3.16979,1.59315 -6.17168,2.34186 -8.63672,2.15429 -2.1722,-0.1653 -3.46401,-0.66419 -6.5293,-2.52344 -1.80834,-1.09686 -2.53132,-1.35612 -3.49023,-1.24804 -0.95769,0.10795 -1.7241,0.65984 -2.48242,1.78515 -1.04229,1.54672 -1.21697,2.80875 -0.64453,4.66211 0.54145,1.753 1.59537,3.20489 5.22461,7.19922 3.40938,3.75235 4.52029,5.53902 4.52929,7.29297 0.004,0.77404 -0.0929,1.05833 -0.70898,2.09766 -0.86187,1.45396 -2.98099,3.60853 -4.72071,4.79882 -3.58004,2.44948 -8.72687,4.23558 -12.90234,4.47852 -0.82616,0.048 -1.68441,0.10696 -1.90625,0.13086 -0.74796,0.0807 -3.62229,-0.19114 -4.72461,-0.44727 -2.60067,-0.60428 -5.09112,-1.91713 -5.50195,-2.90039 -0.39967,-0.95655 -1.43969,-1.22208 -2,-0.50976 -0.5554,0.70607 -3.05902,0.92993 -5.54688,0.49609 -4.21644,-0.73529 -8.61474,-3.14114 -12.37109,-6.76758 -3.37518,-3.25846 -5.68061,-7.03192 -6.38477,-10.45312 -0.84537,-4.10735 0.0865,-5.11709 7.76368,-8.41016 5.51948,-2.36753 7.22523,-3.51757 8.22461,-5.55273 0.85712,-1.74547 0.50264,-4.2888 -0.75586,-5.42578 -0.75105,-0.67844 -1.38705,-0.82044 -3.03711,-0.67969 -3.39397,0.28953 -5.58456,0.29878 -6.64258,0.0293 -2.98783,-0.76102 -5.81986,-2.84416 -8.52539,-6.27539 -1.1137,-1.41243 -1.18465,-1.73105 -0.75391,-3.38477 0.9205,-3.53406 4.45211,-7.53931 8.34961,-9.46875 1.31759,-0.65226 3.09795,-1.11203 4.14649,-1.09961 z m -47.046883,10.99219 c 0.02534,-0.0253 0.41591,0.48368 0.867187,1.13281 3.253749,4.68028 8.604937,10.03216 13.277344,13.2793 1.143423,0.79464 1.378129,1.03432 1.417969,1.43554 0.07168,0.72188 -1.550605,8.2672 -6.572266,30.5625 -1.069258,4.74732 -2.001029,8.76479 -2.070313,8.92774 -0.09814,0.23085 -1.683499,-2.14631 -7.179687,-10.76758 -3.879656,-6.08559 -7.054687,-11.19918 -7.054687,-11.36328 0,-0.30173 7.229223,-33.12183 7.314453,-33.20703 z m 61.615233,14.47851 c -0.80936,-0.0177 -1.61339,0.27844 -2.29101,0.89063 -0.80864,0.73056 -1.1582,1.49998 -1.1582,2.55273 0,1.47808 0.68903,2.5699 1.99804,3.16407 0.97218,0.44129 1.98088,0.4053 3.00586,-0.10547 2.14789,-1.07034 2.53786,-3.87814 0.76563,-5.51172 -0.69673,-0.64223 -1.51094,-0.97255 -2.32032,-0.99024 z m -0.63476,0.75 c 0.27226,0.005 0.5599,0.0894 0.84375,0.27539 0.82124,0.53809 0.88988,1.54958 0.15625,2.28321 -0.56551,0.56546 -1.41608,0.53118 -2.0293,-0.082 -1.03514,-1.03515 -0.1505,-2.49689 1.0293,-2.47657 z m 15.60156,2.85547 c -1.54391,0.0559 -3.02807,1.12908 -3.32031,2.95703 -0.2259,1.41297 0.63486,3.01578 1.9375,3.60743 1.40462,0.63796 3.06253,0.27833 4.08203,-0.88282 1.01871,-1.16024 1.13158,-2.94543 0.26367,-4.18164 -0.68006,-0.96863 -1.66425,-1.44622 -2.65429,-1.49804 -0.10313,-0.005 -0.20567,-0.006 -0.3086,-0.002 z m -0.73242,0.43946 c 0.35794,-0.0143 0.73349,0.11434 1.06641,0.44726 0.76422,0.76422 0.60881,1.86504 -0.33203,2.35156 -0.69421,0.359 -1.28859,0.24411 -1.79493,-0.34375 -0.92235,-1.07086 -0.0133,-2.41229 1.06055,-2.45507 z m 12.88086,0.83789 c 0.47815,-0.009 1.16995,0.36655 2.5918,1.23047 1.58544,0.96329 3.25529,1.7644 4.45898,2.14062 0.003,9.7e-4 0.009,0.003 0.0117,0.004 0.001,4.9e-4 0.003,0.001 0.004,0.002 l 0.002,0.002 0.002,0.002 v 0.002 h 0.002 v 0.002 0.002 h 0.002 v 0.002 0.002 l -0.002,0.002 v 0.002 0.002 l -0.002,0.002 c -0.0535,0.0559 -0.44576,0.15742 -0.98828,0.2461 -2.57344,0.42069 -6.0663,1.16647 -6.51562,1.39062 -0.2589,0.12916 -0.49931,0.23438 -0.53321,0.23438 -0.15524,0 -0.72894,-1.60824 -0.80664,-2.26172 -0.10434,-0.87716 0.17649,-1.63071 0.92774,-2.48633 0.29057,-0.33095 0.51854,-0.51558 0.8457,-0.52148 z m 18.99414,4.36132 c 2.27166,-0.0323 4.40689,0.0741 6.44727,0.32032 1.38122,0.1667 1.5295,0.21769 1.5,0.50781 -0.0351,0.34537 -12.42089,56.43769 -12.56641,56.91016 -0.0478,0.15529 -0.1724,0.27753 -0.27734,0.26953 -0.42444,-0.031 -91.159113,-20.15523 -91.240243,-20.23633 -0.04818,-0.0482 1.48789,-7.21979 3.414063,-15.93555 1.926172,-8.71576 3.5011,-15.90973 3.5,-15.98633 v -0.002 h 0.002 v -0.002 l 0.002,-0.002 h 0.002 0.002 0.002 c 0.08855,0.0169 0.691552,0.5351 1.414063,1.22266 1.528116,1.4542 2.783298,2.36379 3.966798,2.87109 1.096119,0.46985 6.250099,1.72347 7.917969,1.92579 0.79861,0.0969 2.44819,0.17546 3.66601,0.17578 l 2.21485,0.002 0.96484,1.43359 c 1.81767,2.70327 3.52752,4.54719 6.22266,6.70899 3.55043,2.84784 6.16609,4.12342 10.77539,5.25195 2.58377,0.63261 3.49721,0.71067 5.47265,0.47656 l 1.68946,-0.19922 1.52148,0.89649 c 2.0378,1.19931 2.82806,1.48875 5.4336,1.99414 1.87431,0.36362 2.66759,0.43116 5.19726,0.44336 2.54756,0.0122 3.25622,-0.0409 4.83984,-0.36719 9.75031,-2.00872 18.23047,-8.58609 18.23047,-14.13867 0,-2.43211 -1.31586,-4.64591 -5.94531,-9.99609 -1.07133,-1.23812 -1.91891,-2.28031 -1.88281,-2.31641 0.20451,-0.20451 6.58101,-1.27044 10.24805,-1.71289 2.58657,-0.31209 4.99396,-0.4833 7.26562,-0.51563 z m -43.125,1.71485 0.10156,0.56445 c 0.056,0.31057 0.14737,0.80808 0.20117,1.10547 l 0.0977,0.54102 -0.97656,0.0879 c -1.04905,0.0951 -2.61121,0.72499 -3.22852,1.30078 -0.56109,0.52336 -0.99219,1.46675 -0.99219,2.16992 10e-6,0.85828 0.69384,2.17076 1.54493,2.91992 1.28124,1.1278 3.37213,2.05474 5.52539,2.44922 1.20135,0.22009 3.57467,0.049 4.58789,-0.33008 1.8711,-0.70006 2.70222,-1.67501 2.69922,-3.16992 -0.003,-1.3613 -1.07471,-2.81041 -2.88477,-3.89844 l -0.54687,-0.32812 0.86914,-0.55078 c 0.47819,-0.30311 1.0049,-0.62505 1.16992,-0.71485 0.2546,-0.1385 0.0705,-0.27542 -1.21094,-0.9082 -1.89826,-0.93737 -3.1607,-1.23333 -5.28125,-1.23633 z m 1.89648,0.89453 c 0.99322,0.022 2.84731,0.38001 3.87305,0.80859 l 0.61133,0.25586 -0.82227,0.83594 c -0.90721,0.92116 -1.32031,1.736 -1.32031,2.60352 h -0.002 c 0,0.53754 -0.0288,0.57054 -0.52344,0.56054 -0.60366,-0.0122 -2.23542,-0.42683 -2.42383,-0.61523 -0.0699,-0.0699 -0.016,-0.33849 0.11914,-0.59766 0.31683,-0.60705 0.31387,-1.7202 -0.006,-2.79687 -0.13698,-0.46121 -0.20192,-0.88833 -0.15039,-0.95508 0.0771,-0.0771 0.31346,-0.10695 0.64453,-0.0996 z m -16.38476,0.75 c -0.11449,0.006 -0.22715,0.0686 -0.3711,0.17383 -0.26363,0.19277 -0.24456,0.29661 0.30079,1.57422 0.32089,0.75174 0.95484,2.05544 1.4082,2.89843 3.94587,7.337 8.9771,11.74807 14.33984,12.57032 2.40383,0.36856 5.69764,-0.1991 8.26367,-1.42383 2.59587,-1.23895 6.11712,-3.8886 8.57227,-6.44922 l 0.64063,-0.66602 -0.33594,-0.33398 -0.33399,-0.33594 -1.52929,0.73438 c -0.84092,0.4036 -2.20356,0.95968 -3.0293,1.23632 -7.57663,2.53841 -15.30692,0.92236 -22.31836,-4.66796 -1.69908,-1.35471 -3.48933,-3.07314 -4.49805,-4.31641 -0.59919,-0.73852 -0.85749,-1.00728 -1.10937,-0.99414 z m 14.91797,1.48437 c 0.25411,-0.006 0.25781,0.10111 0.25781,0.51172 0,0.50063 -0.0426,0.55469 -0.45312,0.55469 -0.68068,0 -2.02555,0.43705 -2.50782,0.81641 -0.95485,0.75108 -0.20107,2.05619 1.79297,3.10156 1.44154,0.75572 2.77665,1.08203 4.42969,1.08203 2.3721,0 3.84919,-0.72648 3.59375,-1.76758 -0.12446,-0.50728 -1.05603,-1.48805 -1.78906,-1.88281 -0.60761,-0.32722 -0.61503,-0.34483 -0.38672,-0.94531 l 0.16015,-0.42383 0.50586,0.29102 c 0.76073,0.43922 2.05824,1.64578 2.32422,2.16015 0.82224,1.59002 -0.33435,3.07638 -2.74219,3.52149 -2.07964,0.38444 -4.4503,0.008 -6.54687,-1.04102 -0.96501,-0.48297 -2.30866,-1.70319 -2.63672,-2.39453 -0.86272,-1.81805 0.48758,-3.12747 3.65234,-3.54688 0.14926,-0.0198 0.261,-0.0351 0.34571,-0.0371 z m -13.29297,1.60743 c 0,-0.0564 0.59801,0.47187 1.33008,1.17382 3.89553,3.73526 8.47973,6.26831 13.43164,7.42188 1.02567,0.23897 1.93549,0.30078 4.43554,0.30078 3.51454,0 4.69844,-0.17812 7.49805,-1.12891 0.88504,-0.30057 1.63371,-0.52449 1.66211,-0.49609 0.0845,0.0845 -2.37682,2.08322 -3.59375,2.91797 -1.53837,1.05523 -4.11618,2.26862 -5.66016,2.66406 -4.62124,1.18361 -8.77176,-0.0966 -12.78711,-3.94531 -1.36023,-1.30377 -2.7925,-3.0378 -4.00976,-4.85156 -0.67253,-1.00209 -2.30664,-3.87614 -2.30664,-4.05664 z m 12.32226,0.57812 c 0.23724,0.006 0.41116,0.13617 0.69141,0.41602 0.91362,0.91233 4.3299,1.58612 4.94141,0.97461 0.25785,-0.25789 0.30377,-0.25438 0.75976,0.0703 0.77077,0.54885 0.8747,0.88336 0.35547,1.13476 -0.24187,0.11711 -1.15798,0.23332 -2.05078,0.26172 -2.22594,0.0708 -3.51009,-0.30894 -5.20313,-1.54297 -0.79701,-0.58092 -0.86075,-0.87505 -0.24218,-1.11718 0.33993,-0.13306 0.56353,-0.20218 0.74804,-0.19727 z" />
  <path
     id="path7"
     style="display:inline;fill:url(#linearGradient7);stroke:#000000;stroke-width:1.7;stroke-linecap:round;stroke-linejoin:round;stroke-opacity:1;paint-order:markers stroke fill"
     d="m 108.80664,40.974609 c -1.02594,0.185039 -1.01238,0.146851 -3.62109,10.814453 -1.34537,5.501568 -2.48134,10.058284 -2.52344,10.126954 -0.0421,0.06867 -2.993557,2.385303 -6.558594,5.146484 -3.565035,2.76118 -6.681981,5.206008 -6.927735,5.433594 -0.245754,0.227586 -0.678663,0.489371 -0.960937,0.582031 -0.294747,0.09675 -0.627161,0.374376 -0.78125,0.652344 -0.14757,0.266205 -4.937998,21.634746 -10.646485,47.484371 -8.564999,38.78474 -10.35197,47.07351 -10.216797,47.43164 0.09009,0.23868 4.279079,6.88319 9.308594,14.76563 5.029515,7.88243 9.144532,14.4383 9.144532,14.56836 -10e-7,0.37797 0.460691,1.16528 0.783203,1.33789 0.162812,0.0871 18.731479,4.23261 41.261719,9.21289 22.53024,4.98027 44.30297,9.80396 48.38476,10.71875 4.08182,0.91479 7.72078,1.67164 8.08594,1.68164 0.83972,0.0231 1.44856,-0.43085 1.66406,-1.24023 0.0873,-0.32799 4.88118,-21.96272 10.65235,-48.07618 10.3812,-46.97297 10.49115,-47.48531 10.24219,-48.07812 -0.32676,-0.77809 -10.26487,-38.615951 -10.16797,-38.712891 v -0.002 h 0.002 v -0.002 h 0.002 0.002 0.002 0.002 0.002 v 0.002 h 0.002 v 0.002 h 0.002 c 0.0747,0.04473 0.30474,0.41478 0.54297,0.886719 0.5246,1.039235 1.13304,1.454088 1.82227,1.24414 0.49802,-0.151705 12.16684,-5.034512 12.74218,-5.332031 0.59777,-0.309117 0.83459,-0.793681 0.73829,-1.511719 -0.10024,-0.747322 -2.30791,-6.628254 -4.15235,-11.058594 -3.7847,-9.090809 -7.24705,-15.930663 -10.50195,-20.74414 -1.69386,-2.504966 -2.42557,-3.301154 -3.54688,-3.867188 -1.89842,-0.958322 -5.3896,-1.607422 -8.65039,-1.607422 -2.81814,0 -4.26808,0.514043 -6.76367,2.394532 -1.34937,1.016782 -5.25047,4.92999 -7.40039,7.421875 -1.18414,1.372493 -1.33134,1.488145 -1.77539,1.416015 -0.26621,-0.04324 -13.80697,-3.025445 -30.08984,-6.628906 -19.83326,-4.389177 -29.76954,-6.523131 -30.10352,-6.462891 z m 1.76367,3.636719 c 0.34747,0.0018 56.08299,12.360381 56.17969,12.457031 0.0528,0.0528 -2.64343,3.296441 -5.99219,7.208985 -5.20082,6.076392 -6.14959,7.111809 -6.50586,7.099609 -0.2294,-0.0079 -2.15942,-0.397195 -4.28906,-0.865234 -2.12964,-0.46804 -12.75101,-2.76369 -23.60156,-5.101563 -10.85056,-2.337871 -19.79144,-4.28984 -19.86914,-4.33789 -0.2011,-0.124284 3.84653,-16.462138 4.07812,-16.460938 z m 74.64453,1.220703 c 3.07339,0.01883 6.08671,0.600191 7.25977,1.398438 1.9381,1.31883 7.34007,11.025102 11.33594,20.36914 1.71636,4.013559 4.63672,11.426178 4.63672,11.769532 0,0.16976 -9.23292,4.1292 -9.61915,4.125 -0.21922,-0.0024 -10.89142,-20.926435 -10.85742,-21.28711 0.11514,-1.220127 -0.41575,-1.948233 -1.41797,-1.947265 -0.33679,3.31e-4 -0.83095,0.134231 -1.09765,0.296875 -1.84793,1.126941 -12.71985,13.336937 -28.86133,32.414062 -1.67053,1.974353 -3.04609,3.580683 -3.05859,3.570313 -0.0125,-0.01037 -0.38641,-0.07984 -0.83008,-0.154297 -4.19208,-0.703484 -6.86779,-4.273104 -6.23828,-8.322266 0.2176,-1.39967 0.92786,-3.201419 1.78515,-4.527344 0.3316,-0.512883 2.30631,-2.893218 4.38867,-5.289062 2.08239,-2.395845 7.08167,-8.203297 11.10938,-12.90625 9.08445,-10.607434 10.20244,-11.878317 12.90234,-14.648438 2.41105,-2.473776 3.96807,-3.744619 5.41602,-4.421875 0.91703,-0.428933 1.08315,-0.452093 3.14648,-0.439453 z m 0.32227,18.658203 c 0.0585,-0.02462 1.58863,2.879104 3.40039,6.453125 2.20907,4.357819 3.27889,6.631857 3.24609,6.902344 -0.0269,0.221837 -0.12158,0.675057 -0.20898,1.007813 -0.10853,0.413142 -0.24504,0.600213 -0.43359,0.589843 -0.48237,-0.02652 -16.14284,-3.450575 -16.24024,-3.550781 -0.14398,-0.148091 9.79118,-11.214932 10.23633,-11.402344 z m -78.1543,0.308594 c 0.0505,-0.06158 4.20457,0.823658 28.78516,6.132813 8.65166,1.86867 15.75807,3.424231 15.79297,3.457031 l 0.002,0.002 v 0.002 0.002 c -0.002,0.07064 -0.35702,0.535803 -0.81836,1.066407 -0.48403,0.556696 -1.69068,1.945109 -2.68164,3.083984 -1.99236,2.289765 -3.00954,3.730438 -3.74805,5.308594 -1.43485,3.066215 -1.66524,6.547891 -0.59961,9.072265 1.61331,3.82181 4.94551,6.159183 9.23438,6.478516 1.17211,0.08727 1.33373,0.06279 1.74414,-0.263672 0.24855,-0.197723 2.27801,-2.510768 4.51172,-5.140625 2.23372,-2.629858 6.02371,-7.065043 8.42187,-9.855469 2.39815,-2.790426 4.39776,-5.124713 4.44336,-5.189453 0.0819,-0.116376 19.24945,4.0514 19.41992,4.222656 0.0486,0.04879 2.30848,8.541811 5.02149,18.874995 2.71301,10.3332 4.99622,19.02411 5.07422,19.3125 0.12861,0.47575 0.11054,0.52362 -0.20703,0.51172 -0.19251,-0.007 -16.54024,-3.59856 -36.32813,-7.98047 -19.7879,-4.38191 -40.66136,-8.99842 -46.38476,-10.25781 -5.72341,-1.2594 -10.4332,-2.31069 -10.4668,-2.33789 -0.0729,-0.059 -1.285,-36.418821 -1.2168,-36.501951 z m -4.20898,1.00586 0.11719,0.574218 c 0.10747,0.529996 1.19762,18.307715 1.59375,25.994141 0.094,1.82366 0.14628,3.562218 0.11718,3.863281 -0.0481,0.497298 -0.63043,-0.359119 -6.373044,-9.365234 l -6.322265,-9.914063 -0.05078,-1.314453 -0.05273,-1.316406 5.486328,-4.259766 z m -13.667971,13.52539 c 0.101828,-0.312647 1.292712,1.466468 7.701172,11.507813 4.169289,6.532817 7.776719,12.275389 8.015629,12.761719 l 0.43359,0.88477 -4.84961,21.97265 c -2.667638,12.08481 -4.904453,22.03102 -4.970702,22.10352 -0.06625,0.0726 -0.160085,0.0278 -0.208985,-0.0996 -0.0489,-0.12743 -0.929769,-0.82292 -1.957031,-1.54688 -5.167689,-3.64188 -9.90649,-8.53631 -13.6875,-14.13476 -0.719144,-1.06482 -1.404201,-1.99346 -1.521484,-2.06446 -0.117284,-0.071 -0.212891,-0.23742 -0.212891,-0.36914 0,-0.27157 11.071942,-50.44493 11.257812,-51.015622 z m 19.468751,25.494142 c 0.0583,-0.0583 21.33005,4.62216 78.31836,17.23437 8.37526,1.85355 15.26455,3.40713 15.31055,3.45313 0.085,0.085 -6.68168,30.89652 -6.81446,31.0293 -0.0398,0.0398 -1.07412,-0.0519 -2.29883,-0.20508 -1.22471,-0.15319 -3.71863,-0.31728 -5.54296,-0.36328 l -3.31641,-0.082 2.06641,-1.03515 c 2.34705,-1.17477 2.47191,-1.3201 3.04492,-3.56055 1.63963,-6.4109 -2.99604,-16.06894 -8.53907,-17.79297 -1.17889,-0.36666 -2.72959,-0.41888 -3.1582,-0.10547 -0.39448,0.28845 -0.36387,0.73569 0.16406,2.44922 0.3747,1.2162 0.44904,1.75261 0.45704,3.30664 0.008,1.57774 -0.0473,1.99545 -0.36524,2.78907 -0.64416,1.60806 -2.94761,3.75232 -4.74609,4.41797 -0.39828,0.1474 -1.18612,0.252 -1.89258,0.25 -1.70182,-0.004 -3.3478,-0.57339 -6.67578,-2.31055 -7.07,-3.69043 -8.73512,-4.33985 -11.14063,-4.33985 -0.72906,0 -1.70386,0.11356 -2.16992,0.25196 l -0.84766,0.25195 -0.6289,-0.57031 c -0.34602,-0.3126 -1.00816,-0.75976 -1.4707,-0.99414 -2.15452,-1.09179 -4.0867,-1.29916 -9.57618,-1.03125 -8.44506,0.41215 -10.46528,-0.035 -12.19726,-2.69336 -1.19905,-1.84038 -1.51463,-2.80951 -1.51563,-4.66406 -9e-4,-1.58531 0.0155,-1.65975 0.67578,-2.99219 0.41817,-0.8439 1.14654,-1.91436 1.9043,-2.79883 0.94084,-1.09817 1.21484,-1.52842 1.17774,-1.84375 -0.16122,-1.3692 -3.82404,-2.01981 -6.57422,-1.16797 -5.94796,1.84232 -11.44555,8.08745 -11.74219,13.33594 l -0.082,1.45508 1.02734,1.36718 c 2.82448,3.75751 6.23739,6.41976 9.39258,7.32618 1.50949,0.43368 3.35241,0.58297 5.08203,0.41015 3.80842,-0.38049 4.03954,-0.38562 4.375,-0.082 0.4564,0.41301 0.71676,1.83063 0.49024,2.67188 -0.40196,1.49277 -2.32791,2.91167 -6.13672,4.52343 -6.01818,2.5467 -7.74742,3.49493 -9.03125,4.95118 -1.22078,1.38473 -1.36928,1.80955 -1.36328,3.9121 0.006,1.97567 0.29926,3.36356 1.12695,5.33008 0.22052,0.52391 0.40039,0.99011 0.40039,1.03711 0,0.12661 -3.76152,0.0647 -5.18164,-0.0859 -2.47281,-0.26229 -7.2551,-1.48761 -8.54102,-2.1875 -1.16905,-0.63628 -3.228917,-2.48859 -4.023434,-3.61719 -0.399307,-0.56721 -0.944604,-1.25927 -1.210938,-1.53711 l -0.484375,-0.50391 6.093747,-27.5625 c 3.3513,-15.1587 6.12346,-27.59025 6.16016,-27.62695 z m 16.53516,18.38867 c 0.14979,0.002 0.28391,0.0133 0.40039,0.0352 l 0.59179,0.11133 -0.33984,0.43554 c -2.96767,3.79762 -3.53828,7.33797 -1.75195,10.88086 2.26468,4.49164 4.94417,5.6257 12.40234,5.2461 4.89753,-0.24932 8.19705,-0.21999 9.31836,0.082 1.72082,0.46349 3.42773,1.56134 3.42773,2.20507 0,0.373 0.50504,0.81641 0.93164,0.81641 0.18809,0 0.53788,-0.18236 0.77735,-0.4043 0.60204,-0.55795 1.54615,-0.77479 2.9707,-0.68359 2.03511,0.13024 3.01813,0.54009 9.83984,4.10742 5.79472,3.03029 8.7172,3.32035 11.98438,1.1875 2.40022,-1.56687 4.01606,-3.70903 4.48047,-5.93945 0.23517,-1.12946 0.11138,-3.95563 -0.22656,-5.16602 -0.21624,-0.77441 -0.21337,-0.8457 0.0293,-0.8457 0.63891,0 2.11225,0.95174 3.25586,2.10547 1.82802,1.8442 3.20903,4.40566 4.06836,7.54297 0.47957,1.75086 0.49957,5.19819 0.0391,6.48437 l -0.3164,0.88672 -1.85547,0.9336 c -3.16979,1.59315 -6.17168,2.34186 -8.63672,2.15429 -2.1722,-0.1653 -3.46401,-0.66419 -6.5293,-2.52344 -1.80834,-1.09686 -2.53132,-1.35612 -3.49023,-1.24804 -0.95769,0.10795 -1.7241,0.65984 -2.48242,1.78515 -1.04229,1.54672 -1.21697,2.80875 -0.64453,4.66211 0.54145,1.753 1.59537,3.20489 5.22461,7.19922 3.40938,3.75235 4.52029,5.53902 4.52929,7.29297 0.004,0.77404 -0.0929,1.05833 -0.70898,2.09766 -0.86187,1.45396 -2.98099,3.60853 -4.72071,4.79882 -3.58004,2.44948 -8.72687,4.23558 -12.90234,4.47852 -0.82616,0.048 -1.68441,0.10696 -1.90625,0.13086 -0.74796,0.0807 -3.62229,-0.19114 -4.72461,-0.44727 -2.60067,-0.60428 -5.09112,-1.91713 -5.50195,-2.90039 -0.39967,-0.95655 -1.43969,-1.22208 -2,-0.50976 -0.5554,0.70607 -3.05902,0.92993 -5.54688,0.49609 -4.21644,-0.73529 -8.61474,-3.14114 -12.37109,-6.76758 -3.37518,-3.25846 -5.68061,-7.03192 -6.38477,-10.45312 -0.84537,-4.10735 0.0865,-5.11709 7.76368,-8.41016 5.51948,-2.36753 7.22523,-3.51757 8.22461,-5.55273 0.85712,-1.74547 0.50264,-4.2888 -0.75586,-5.42578 -0.75105,-0.67844 -1.38705,-0.82044 -3.03711,-0.67969 -3.39397,0.28953 -5.58456,0.29878 -6.64258,0.0293 -2.98783,-0.76102 -5.81986,-2.84416 -8.52539,-6.27539 -1.1137,-1.41243 -1.18465,-1.73105 -0.75391,-3.38477 0.9205,-3.53406 4.45211,-7.53931 8.34961,-9.46875 1.31759,-0.65226 3.09795,-1.11203 4.14649,-1.09961 z m -47.046879,10.99219 c 0.02534,-0.0253 0.41591,0.48368 0.867187,1.13281 3.253749,4.68028 8.604937,10.03216 13.277344,13.2793 1.143423,0.79464 1.378129,1.03432 1.417969,1.43554 0.07168,0.72188 -1.550605,8.2672 -6.572266,30.5625 -1.069258,4.74732 -2.001029,8.76479 -2.070313,8.92774 -0.09814,0.23085 -1.683499,-2.14631 -7.179687,-10.76758 -3.879656,-6.08559 -7.054687,-11.19918 -7.054687,-11.36328 0,-0.30173 7.229223,-33.12183 7.314453,-33.20703 z m 61.615229,14.47851 c -0.80936,-0.0177 -1.61339,0.27844 -2.29101,0.89063 -0.80864,0.73056 -1.1582,1.49998 -1.1582,2.55273 0,1.47808 0.68903,2.5699 1.99804,3.16407 0.97218,0.44129 1.98088,0.4053 3.00586,-0.10547 2.14789,-1.07034 2.53786,-3.87814 0.76563,-5.51172 -0.69673,-0.64223 -1.51094,-0.97255 -2.32032,-0.99024 z m -0.63476,0.75 c 0.27226,0.005 0.5599,0.0894 0.84375,0.27539 0.82124,0.53809 0.88988,1.54958 0.15625,2.28321 -0.56551,0.56546 -1.41608,0.53118 -2.0293,-0.082 -1.03514,-1.03515 -0.1505,-2.49689 1.0293,-2.47657 z m 15.60156,2.85547 c -1.54391,0.0559 -3.02807,1.12908 -3.32031,2.95703 -0.2259,1.41297 0.63486,3.01578 1.9375,3.60743 1.40462,0.63796 3.06253,0.27833 4.08203,-0.88282 1.01871,-1.16024 1.13158,-2.94543 0.26367,-4.18164 -0.68006,-0.96863 -1.66425,-1.44622 -2.65429,-1.49804 -0.10313,-0.005 -0.20567,-0.006 -0.3086,-0.002 z m -0.73242,0.43946 c 0.35794,-0.0143 0.73349,0.11434 1.06641,0.44726 0.76422,0.76422 0.60881,1.86504 -0.33203,2.35156 -0.69421,0.359 -1.28859,0.24411 -1.79493,-0.34375 -0.92235,-1.07086 -0.0133,-2.41229 1.06055,-2.45507 z m 12.88086,0.83789 c 0.47815,-0.009 1.16995,0.36655 2.5918,1.23047 1.58544,0.96329 3.25529,1.7644 4.45898,2.14062 0.003,9.7e-4 0.009,0.003 0.0117,0.004 0.001,4.9e-4 0.003,0.001 0.004,0.002 l 0.002,0.002 0.002,0.002 v 0.002 h 0.002 v 0.002 0.002 h 0.002 v 0.002 0.002 l -0.002,0.002 v 0.002 0.002 l -0.002,0.002 c -0.0535,0.0559 -0.44576,0.15742 -0.98828,0.2461 -2.57344,0.42069 -6.0663,1.16647 -6.51562,1.39062 -0.2589,0.12916 -0.49931,0.23438 -0.53321,0.23438 -0.15524,0 -0.72894,-1.60824 -0.80664,-2.26172 -0.10434,-0.87716 0.17649,-1.63071 0.92774,-2.48633 0.29057,-0.33095 0.51854,-0.51558 0.8457,-0.52148 z m 18.99414,4.36132 c 2.27166,-0.0323 4.40689,0.0741 6.44727,0.32032 1.38122,0.1667 1.5295,0.21769 1.5,0.50781 -0.0351,0.34537 -12.42089,56.43769 -12.56641,56.91016 -0.0478,0.15529 -0.1724,0.27753 -0.27734,0.26953 -0.42444,-0.031 -91.159109,-20.15523 -91.240239,-20.23633 -0.04818,-0.0482 1.48789,-7.21979 3.414063,-15.93555 1.926172,-8.71576 3.5011,-15.90973 3.5,-15.98633 v -0.002 h 0.002 v -0.002 l 0.002,-0.002 h 0.002 0.002 0.002 c 0.08855,0.0169 0.691552,0.5351 1.414063,1.22266 1.528116,1.4542 2.783303,2.36379 3.966803,2.87109 1.09612,0.46985 6.2501,1.72347 7.91797,1.92579 0.79861,0.0969 2.44819,0.17546 3.66601,0.17578 l 2.21485,0.002 0.96484,1.43359 c 1.81767,2.70327 3.52752,4.54719 6.22266,6.70899 3.55043,2.84784 6.16609,4.12342 10.77539,5.25195 2.58377,0.63261 3.49721,0.71067 5.47265,0.47656 l 1.68945,-0.19922 1.52148,0.89649 c 2.0378,1.19931 2.82806,1.48875 5.43361,1.99414 1.87431,0.36362 2.66758,0.43116 5.19726,0.44336 2.54756,0.0122 3.25622,-0.0409 4.83984,-0.36719 9.75031,-2.00872 18.23047,-8.58609 18.23047,-14.13867 0,-2.43211 -1.31586,-4.64591 -5.94531,-9.99609 -1.07133,-1.23812 -1.91892,-2.28031 -1.88281,-2.31641 0.2045,-0.20451 6.581,-1.27044 10.24805,-1.71289 2.58657,-0.31209 4.99395,-0.4833 7.26562,-0.51563 z m -43.125,1.71485 0.10156,0.56445 c 0.056,0.31057 0.14737,0.80808 0.20117,1.10547 l 0.0977,0.54102 -0.97656,0.0879 c -1.04905,0.0951 -2.61121,0.72499 -3.22852,1.30078 -0.56109,0.52336 -0.99219,1.46675 -0.99219,2.16992 1e-5,0.85828 0.69384,2.17076 1.54493,2.91992 1.28124,1.1278 3.37213,2.05474 5.52539,2.44922 1.20135,0.22009 3.57467,0.049 4.58789,-0.33008 1.8711,-0.70006 2.70222,-1.67501 2.69922,-3.16992 -0.003,-1.3613 -1.07471,-2.81041 -2.88477,-3.89844 l -0.54687,-0.32812 0.86914,-0.55078 c 0.47819,-0.30311 1.0049,-0.62505 1.16992,-0.71485 0.2546,-0.1385 0.0705,-0.27542 -1.21094,-0.9082 -1.89826,-0.93737 -3.1607,-1.23333 -5.28125,-1.23633 z m 1.89648,0.89453 c 0.99322,0.022 2.84731,0.38001 3.87305,0.80859 l 0.61133,0.25586 -0.82227,0.83594 c -0.90721,0.92116 -1.32031,1.736 -1.32031,2.60352 h -0.002 c 0,0.53754 -0.0288,0.57054 -0.52344,0.56054 -0.60366,-0.0122 -2.23542,-0.42683 -2.42383,-0.61523 -0.0699,-0.0699 -0.016,-0.33849 0.11914,-0.59766 0.31683,-0.60705 0.31387,-1.7202 -0.006,-2.79687 -0.13698,-0.46121 -0.20192,-0.88833 -0.15039,-0.95508 0.0771,-0.0771 0.31346,-0.10695 0.64453,-0.0996 z m -16.38476,0.75 c -0.11449,0.006 -0.22715,0.0686 -0.3711,0.17383 -0.26363,0.19277 -0.24456,0.29661 0.30079,1.57422 0.32089,0.75174 0.95484,2.05544 1.4082,2.89843 3.94587,7.337 8.9771,11.74807 14.33984,12.57032 2.40383,0.36856 5.69764,-0.1991 8.26367,-1.42383 2.59587,-1.23895 6.11712,-3.8886 8.57227,-6.44922 l 0.64063,-0.66602 -0.33594,-0.33398 -0.33399,-0.33594 -1.52929,0.73438 c -0.84092,0.4036 -2.20356,0.95968 -3.0293,1.23632 -7.57663,2.53841 -15.30692,0.92236 -22.31836,-4.66796 -1.69908,-1.35471 -3.48933,-3.07314 -4.49805,-4.31641 -0.59919,-0.73852 -0.85749,-1.00728 -1.10937,-0.99414 z m 14.91797,1.48437 c 0.25411,-0.006 0.25781,0.10111 0.25781,0.51172 0,0.50063 -0.0426,0.55469 -0.45312,0.55469 -0.68068,0 -2.02555,0.43705 -2.50782,0.81641 -0.95485,0.75108 -0.20107,2.05619 1.79297,3.10156 1.44154,0.75572 2.77665,1.08203 4.42969,1.08203 2.3721,0 3.84919,-0.72648 3.59375,-1.76758 -0.12446,-0.50728 -1.05603,-1.48805 -1.78906,-1.88281 -0.60761,-0.32722 -0.61503,-0.34483 -0.38672,-0.94531 l 0.16015,-0.42383 0.50586,0.29102 c 0.76073,0.43922 2.05824,1.64578 2.32422,2.16015 0.82224,1.59002 -0.33435,3.07638 -2.74219,3.52149 -2.07964,0.38444 -4.4503,0.008 -6.54687,-1.04102 -0.96501,-0.48297 -2.30866,-1.70319 -2.63672,-2.39453 -0.86272,-1.81805 0.48758,-3.12747 3.65234,-3.54688 0.14926,-0.0198 0.261,-0.0351 0.34571,-0.0371 z m -13.29297,1.60743 c 0,-0.0564 0.59801,0.47187 1.33008,1.17382 3.89553,3.73526 8.47973,6.26831 13.43164,7.42188 1.02567,0.23897 1.93549,0.30078 4.43554,0.30078 3.51454,0 4.69844,-0.17812 7.49805,-1.12891 0.88504,-0.30057 1.63371,-0.52449 1.66211,-0.49609 0.0845,0.0846 -2.37682,2.08322 -3.59375,2.91797 -1.53837,1.05523 -4.11618,2.26862 -5.66016,2.66406 -4.62124,1.18361 -8.77176,-0.0966 -12.78711,-3.94531 -1.36023,-1.30377 -2.7925,-3.0378 -4.00976,-4.85156 -0.67253,-1.00209 -2.30664,-3.87614 -2.30664,-4.05664 z m 12.32226,0.57812 c 0.23724,0.006 0.41116,0.13617 0.69141,0.41602 0.91362,0.91233 4.3299,1.58612 4.94141,0.97461 0.25785,-0.25789 0.30377,-0.25438 0.75976,0.0703 0.77077,0.54885 0.8747,0.88336 0.35547,1.13476 -0.24187,0.11711 -1.15798,0.23332 -2.05078,0.26172 -2.22594,0.0708 -3.51009,-0.30894 -5.20313,-1.54297 -0.79701,-0.58092 -0.86075,-0.87505 -0.24218,-1.11718 0.33993,-0.13306 0.56353,-0.20218 0.74804,-0.19727 z" />
</svg>
