<svg xmlns="http://www.w3.org/2000/svg" xmlns:xlink="http://www.w3.org/1999/xlink" cursor="default" viewBox="0 0 256 256">
    <defs>
        <linearGradient id="linearGradient8">
            <stop offset="0" stop-color="#2aa0ff"/>
            <stop offset="1" stop-color="#7bc3ff"/>
        </linearGradient>
        <linearGradient id="linearGradient6">
            <stop offset="0" stop-color="#faa"/>
            <stop offset="1" stop-color="#fff"/>
        </linearGradient>
        <linearGradient id="linearGradient7" x1="65.712" x2="212.661" y1="130.95" y2="130.95" gradientUnits="userSpaceOnUse" xlink:href="#linearGradient6"/>
        <linearGradient id="linearGradient9" x1="68.965" x2="203.062" y1="130.905" y2="130.905" gradientUnits="userSpaceOnUse" xlink:href="#linearGradient8"/>
    </defs>
    <g stroke-width=".389">
        <path fill="#ff8080" stroke="#000" stroke-linecap="round" stroke-linejoin="round" d="M97.5 123.5h72.348v11.785H97.5z" transform="matrix(2.394 .3636 -.33613 2.71238 -142.488 -269.117)"/>
    </g>
    <g stroke-width=".389">
        <path fill="#ff8080" stroke="#000" stroke-linecap="round" stroke-linejoin="round" d="M97.5 123.5h72.348v11.785H97.5z" transform="matrix(2.394 .3636 -.33613 2.71238 -138.781 -271.462)"/>
        <path fill="none" stroke="#f55" stroke-width="1.05" d="M169.424 133.212H99.526l-.23-9.243" transform="matrix(2.394 .3636 -.33613 2.71238 -138.781 -271.462)"/>
        <path fill="none" stroke="#ffd5d5" stroke-width="1.05" d="M100.803 125.788h66.872l.228 8.018" transform="matrix(2.394 .3636 -.33613 2.71238 -138.781 -271.462)"/>
    </g>
    <path fill="#fff" stroke="#000" stroke-linecap="round" stroke-linejoin="round" stroke-width="3.375" d="M107.224 102.834l-2.455-40.37L90.394 73.61l3.392 47.115z"/>
    <path fill="#fff" stroke="#000" stroke-linecap="round" stroke-linejoin="round" stroke-width="3.375" d="M86.087 196.31L68.13 168.157l20.685-93.574 17.606 27.599 35.674 63.834z"/>
    <path fill="#fff" stroke="#000" stroke-linecap="round" stroke-linejoin="round" stroke-width="3.375" d="M105.596 62.324l87.698 19.386 11.138 42.422-41.849 21.437-55.635-42.17z"/>
    <path fill="#fff" stroke="#000" stroke-linecap="round" stroke-linejoin="round" stroke-width="3.3" d="M107.7 102.795l96.96 21.434-21.032 95.14-96.96-21.433z"/>
    <path fill="#fff" stroke="#000" stroke-linecap="round" stroke-linejoin="round" stroke-width="3.375" d="M104.317 62.364l4.84-19.792 88.611 19.587-4.74 19.34z"/>
    <path fill="#fff" stroke="#000" stroke-linecap="round" stroke-linejoin="round" stroke-width="3" d="M149.4 79.73c-8.778 9.122-3.452 18.343 4.886 18.263 37.765-44.728 31.984-35.56 31.984-35.56l11.75 23.087 12.384-5.194s-8.442-24.31-16.611-34.06c-2.444-1.93-9.118-2.03-9.118-2.03-6.161-.076-9.404 5.783-35.274 35.493z"/>
    <g transform="rotate(12.465 156.26 221.019)">
        <path fill="#fff" stroke="#000" stroke-linecap="round" stroke-linejoin="round" stroke-width="2" d="M105.842 131.092c-6.32.32-13.26 10.623-11.299 16.693 14.305 13.133 19.764-1.15 22.264 6.13 2.396 6.98-15.083 10.605-13.229 17.747 2.755 10.609 20.716 19.457 30.008 13.654a10.491 10.491 0 01-.16-.101l-.01-.364h.34l-.008.364-.162.101c9.291 5.803 27.255-3.045 30.01-13.654 1.853-7.142-15.627-10.768-13.231-17.746 2.5-7.28 7.958 7.002 22.264-6.131 2.163-6.697-6.51-18.55-13.229-16.457 4.168 6.478 2.25 10.197-.969 13.228-6.03 5.679-19.016-5.559-24.845.325 0 .09.003.18.004.27h-.006c0-.09 0-.18.002-.27-5.83-5.884-18.816 5.354-24.846-.325-3.22-3.03-5.135-6.75-.967-13.228a5.517 5.517 0 00-1.932-.236z"/>
        <path fill="none" stroke="#000" d="M116.135 168.841s17.514 15.615 33.997.913c-16.145 27.28-33.997-.913-33.997-.913z"/>
        <circle cx="125.568" cy="157.283" r="3.5"/>
        <circle cx="141.083" cy="157.511" r="3.5"/>
        <circle cx="124.709" cy="156.195" r="1.5" fill="#fff"/>
        <circle cx="139.996" cy="156.195" r="1.5" fill="#fff"/>
        <ellipse cx="133.932" cy="169.982" fill="#fff" stroke="#000" stroke-linecap="round" stroke-linejoin="round" rx="6.845" ry="3.879"/>
        <path fill="#fff" stroke="#000" stroke-linecap="round" stroke-linejoin="round" d="M132.934 168.156c-1.35.197-2.927.493-3.772 1.665-.104.707.817 1.07 1.337 1.365 2.307.938 5.085.935 7.308-.235.526-.255 1.355-.95.632-1.484-1.495-1.25-3.632-1.447-5.505-1.31z"/>
        <path fill="#fff" stroke="#000" d="M130.738 164.278c2.552-.848 4.82-.702 7.073 0-2.07 1.836-2.236 3.198-1.728 4.925-.848.372-3.77.513-4.432-.133 1.257-1.782-.256-3.217-.913-4.792z"/>
    </g>
    <path fill="url(#linearGradient9)" stroke="#000" stroke-linecap="round" stroke-linejoin="round" stroke-width="2" d="M110.518 44.607l-.979 3.815c-.538 2.098-1.47 5.782-2.068 8.187l-1.09 4.375 15.656 3.428c8.611 1.885 19.473 4.208 24.135 5.16l8.476 1.73 4.215-4.91c2.318-2.7 5.066-5.903 6.108-7.119l1.892-2.21-28.174-6.229zm75.105 19.913c-.102-.18-10.253 11-10.338 11.384-.017.08 2.163.562 4.846 1.07 2.683.51 6.407 1.262 8.275 1.674l3.399.752.21-.953c.202-.909.062-1.246-3.066-7.396a2999.376 2999.376 0 00-3.326-6.531zm-78.21.515c.016.15.287 8.348.603 18.217l.574 17.943 46.736 10.332 46.736 10.332-1.744-6.636-5.072-19.29-3.326-12.652-9.664-2.197-9.662-2.197-5.68 6.633a2314.48 2314.48 0 00-8.646 10.154c-1.632 1.935-3.226 3.618-3.541 3.74-.91.352-4.043-.235-5.655-1.06-1.85-.949-2.76-1.747-3.88-3.4-1.692-2.496-2.188-5.16-1.518-8.163.704-3.156 1.786-4.931 5.799-9.506 1.369-1.56 2.474-2.846 2.457-2.857-.018-.012-10.048-2.192-22.29-4.844-16.507-3.576-22.25-4.751-22.228-4.549zm-4.231 1.057c-.063-.093-2.57 1.745-5.57 4.088l-5.458 4.257.117 1.25c.108 1.15.61 2.024 6.297 10.97 3.4 5.346 6.23 9.636 6.291 9.532.062-.103.092-.86.067-1.681-.097-3.173-1.637-28.256-1.744-28.416zM77.969 131.54l-4.002 18.104-4.002 18.105 7.914 12.41 7.914 12.41 4.533-20.066c2.494-11.037 4.61-20.815 4.701-21.729.165-1.627.142-1.676-1.187-2.54-5.21-3.39-10.727-8.97-14.569-14.737zm106.892 25.375c-2.889.11-6.078.453-9.925 1.04-5.179.788-7.935 1.367-8.004 1.68-.031.14 1.345 1.823 3.056 3.741 4.959 5.557 6.13 7.942 5.244 10.674-1.463 4.515-8.116 9.326-15.443 11.168-3.945.991-6.754 1.104-10.672.431-3.11-.534-3.729-.74-5.54-1.836l-2.042-1.232-2.207.266c-1.936.233-2.646.151-5.799-.67-4.024-1.049-6.403-2.257-9.656-4.905-2.569-2.09-4.064-3.7-5.752-6.197l-1.383-2.047-3.277-.049c-2.545-.038-4.152-.266-7.191-1.025-3.667-.915-4.04-1.073-5.891-2.504-1.087-.84-2.392-2.162-2.902-2.937l-.928-1.412-3.914 17.707-3.916 17.709 46.789 10.343 46.787 10.342 6.59-29.81 6.59-29.813-2.49-.316a48.174 48.174 0 00-8.124-.348z"/>
    <path fill="#be9071" stroke="#000" stroke-linecap="round" stroke-linejoin="round" stroke-width="1.7" d="M149.904 183.84c-2.757-.527-5.527-1.685-6.269-2.62-1.253-1.58-1.829-1.752-3.088-.927-2.227 1.46-8.541-.022-13.28-3.115-6.498-4.242-11.621-12.49-10.51-16.92.355-1.413 2.622-2.885 8.213-5.333 2.475-1.084 5.12-2.493 5.88-3.132 2.636-2.218 3.19-5.844 1.17-7.671-.746-.676-1.598-.789-5.164-.682-3.566.106-4.653-.038-6.588-.87-2.918-1.255-7.327-5.832-7.327-7.607 0-4.392 7.337-11.526 11.853-11.526h1.388l-1.372 2.432c-2.195 3.889-1.8 7.694 1.16 11.206 2.208 2.618 3.581 2.941 12.117 2.846 8.21-.091 9.638.179 11.24 2.125.889 1.08 1.138 1.167 1.933.67 2.076-1.296 4.662-.714 11.037 2.487 7.13 3.58 9.86 4.103 13.012 2.495 4.018-2.05 6.13-6.121 5.305-10.23-.239-1.191-.34-2.167-.225-2.167.115 0 .872.41 1.683.91 3.117 1.927 5.785 7.487 5.842 12.175.02 1.572-.208 3.109-.513 3.477-.934 1.125-5.931 3.118-8.476 3.38-2.799.29-5.085-.325-8.03-2.159-3.186-1.982-4.979-1.966-6.42.058-1.188 1.668-1.312 4.192-.302 6.133.387.744 2.463 3.387 4.614 5.873 2.15 2.486 4.137 5.21 4.416 6.055.993 3.009-2.487 7.09-8.469 9.93-1.756.833-4.142 1.742-5.3 2.019-2.522.601-7.939.993-9.53.688zm2.768-6.888c3.338-1.65 9.235-6.354 8.946-7.136-.235-.635-.285-.623-3.957.942-2.674 1.139-3.483 1.262-8.214 1.251-4.369-.01-5.653-.181-7.673-1.025-3.564-1.487-7.21-3.953-10.454-7.067-1.577-1.514-3.02-2.601-3.205-2.416-.623.623 3.702 8.075 6.386 11.004 4.288 4.679 7.44 6.232 12.239 6.027 2.272-.097 3.706-.479 5.932-1.58zm-1.186-7.412c1.65-1.55 1.518-3.296-.386-5.108-1.522-1.449-1.53-1.476-.623-2.21.893-.723.853-.773-1.395-1.74-1.272-.547-3.172-.995-4.222-.995-1.753 0-1.891.086-1.704 1.067.178.928-.05 1.135-1.758 1.591-3.664.98-4.255 3.981-1.255 6.375 2.243 1.79 4.155 2.37 7.35 2.23 2.254-.1 3.075-.348 3.993-1.21zm6.641-11.897c.246-.459.447-1.449.447-2.2 0-1.566-1.777-3.258-3.422-3.258-1.607 0-3.423 1.693-3.423 3.19 0 1.985.464 2.79 1.976 3.426 1.636.688 3.727.14 4.422-1.158zm-15.41-3.246c1.148-1.357 1.008-3.412-.322-4.742-1.369-1.369-2.927-1.43-4.522-.174-1.298 1.02-1.597 2.94-.717 4.585 1.03 1.925 4.06 2.105 5.56.331z" paint-order="markers stroke fill"/>
    <path stroke="#000" stroke-linecap="round" stroke-linejoin="round" stroke-width="1.7" d="M105.903 42.588c-1.026.185-1.013.147-3.622 10.814-1.345 5.502-2.48 10.059-2.523 10.127-.042.069-2.994 2.386-6.559 5.147s-6.682 5.206-6.927 5.433c-.246.228-.679.49-.961.582a1.55 1.55 0 00-.781.653c-.148.266-4.938 21.635-10.647 47.484-8.565 38.785-10.352 47.074-10.217 47.432.09.239 4.28 6.883 9.309 14.765 5.03 7.883 9.144 14.439 9.144 14.569 0 .378.461 1.165.784 1.338.162.087 18.731 4.232 41.261 9.213 22.53 4.98 44.303 9.804 48.385 10.718 4.082.915 7.72 1.672 8.086 1.682.84.023 1.449-.43 1.664-1.24.087-.328 4.881-21.963 10.652-48.076 10.382-46.973 10.492-47.486 10.243-48.079-.327-.778-10.265-38.615-10.168-38.712v-.002h.002v-.002h.01v.002h.002v.002h.002c.074.044.304.414.543.886.524 1.04 1.133 1.454 1.822 1.244.498-.151 12.167-5.034 12.742-5.332.598-.309.835-.793.738-1.511-.1-.748-2.308-6.629-4.152-11.059-3.785-9.09-7.247-15.93-10.502-20.744-1.694-2.505-2.426-3.301-3.547-3.867-1.898-.959-5.39-1.608-8.65-1.608-2.818 0-4.268.514-6.764 2.395-1.35 1.017-5.25 4.93-7.4 7.422-1.184 1.372-1.332 1.488-1.776 1.416-.266-.043-13.807-3.026-30.09-6.63-19.833-4.388-29.769-6.522-30.103-6.462zm1.763 3.637c.348.001 56.083 12.36 56.18 12.457.053.053-2.643 3.296-5.992 7.209-5.201 6.076-6.15 7.112-6.506 7.1-.23-.009-2.16-.398-4.29-.866-2.129-.468-12.75-2.764-23.6-5.101-10.851-2.338-19.792-4.29-19.87-4.338-.201-.125 3.847-16.463 4.078-16.461zm74.645 1.22c3.073.02 6.086.6 7.26 1.399 1.938 1.319 7.34 11.025 11.336 20.369 1.716 4.014 4.636 11.426 4.636 11.77 0 .17-9.233 4.129-9.619 4.125-.22-.003-10.891-20.927-10.857-21.288.115-1.22-.416-1.948-1.418-1.947-.337 0-.831.134-1.098.297-1.848 1.127-12.72 13.337-28.861 32.414-1.67 1.974-3.046 3.58-3.059 3.57a12.8 12.8 0 00-.83-.154c-4.192-.703-6.868-4.273-6.238-8.322.217-1.4.928-3.202 1.785-4.528.331-.512 2.306-2.893 4.389-5.289 2.082-2.395 7.081-8.203 11.109-12.906 9.084-10.607 10.202-11.878 12.902-14.648 2.411-2.474 3.968-3.745 5.416-4.422.917-.43 1.083-.452 3.147-.44zm.322 18.659c.059-.025 1.589 2.879 3.4 6.453 2.21 4.358 3.28 6.632 3.247 6.902a9.55 9.55 0 01-.21 1.008c-.108.413-.244.6-.433.59-.482-.027-16.143-3.45-16.24-3.551-.144-.148 9.79-11.215 10.236-11.402zm-78.154.308c.05-.061 4.204.824 28.785 6.133 8.652 1.869 15.758 3.424 15.793 3.457l.002.002v.004c-.002.07-.357.536-.818 1.066-.485.557-1.691 1.946-2.682 3.084-1.992 2.29-3.01 3.73-3.748 5.309-1.435 3.066-1.665 6.548-.6 9.072 1.614 3.822 4.946 6.16 9.235 6.479 1.172.087 1.333.063 1.744-.264.248-.198 2.278-2.51 4.511-5.14 2.234-2.63 6.024-7.066 8.422-9.856a922.258 922.258 0 004.444-5.19c.082-.116 19.25 4.052 19.42 4.223.048.049 2.308 8.542 5.021 18.875s4.996 19.024 5.074 19.313c.129.475.11.523-.207.511-.192-.007-16.54-3.598-36.328-7.98a59832.548 59832.548 0 00-46.385-10.258c-5.723-1.26-10.433-2.31-10.466-2.338-.073-.059-1.285-36.419-1.217-36.502zm-4.21 1.006l.118.574c.107.53 1.198 18.308 1.594 25.994.094 1.824.146 3.563.117 3.864-.048.497-.63-.36-6.373-9.366l-6.322-9.914-.051-1.314-.053-1.316 5.486-4.26zM86.603 80.943c.102-.312 1.293 1.467 7.701 11.508 4.17 6.533 7.777 12.276 8.016 12.762l.433.885-4.85 21.972c-2.667 12.085-4.904 22.031-4.97 22.104-.066.073-.16.028-.21-.1-.048-.127-.929-.823-1.956-1.547-5.168-3.641-9.907-8.536-13.688-14.134-.719-1.065-1.404-1.994-1.521-2.065a.483.483 0 01-.213-.369c0-.271 11.072-50.445 11.258-51.016zm19.469 25.495c.058-.059 21.33 4.622 78.318 17.234 8.375 1.854 15.264 3.407 15.31 3.453.085.085-6.681 30.897-6.814 31.03-.04.04-1.074-.053-2.299-.206-1.225-.153-3.718-.317-5.543-.363l-3.316-.082 2.066-1.035c2.347-1.175 2.472-1.32 3.045-3.56 1.64-6.412-2.996-16.07-8.539-17.794-1.179-.366-2.73-.419-3.158-.105-.395.288-.364.736.164 2.45.375 1.215.449 1.752.457 3.306.008 1.577-.047 1.995-.365 2.789-.644 1.608-2.948 3.752-4.746 4.418-.399.147-1.186.252-1.893.25-1.702-.004-3.348-.574-6.676-2.31-7.07-3.691-8.735-4.34-11.14-4.34-.73 0-1.704.113-2.17.251l-.848.252-.629-.57c-.346-.313-1.008-.76-1.47-.994-2.155-1.092-4.087-1.3-9.577-1.031-8.445.412-10.465-.035-12.197-2.694-1.199-1.84-1.515-2.81-1.516-4.664 0-1.585.016-1.66.676-2.992.418-.844 1.147-1.914 1.904-2.799.941-1.098 1.215-1.528 1.178-1.844-.161-1.369-3.824-2.02-6.574-1.168-5.948 1.843-11.446 8.088-11.742 13.336l-.082 1.455 1.027 1.368c2.825 3.757 6.238 6.42 9.393 7.326 1.51.433 3.352.583 5.082.41 3.808-.38 4.04-.386 4.375-.082.456.413.717 1.83.49 2.672-.402 1.493-2.328 2.912-6.137 4.523-6.018 2.547-7.747 3.495-9.031 4.951-1.22 1.385-1.37 1.81-1.363 3.913.006 1.975.299 3.363 1.127 5.33.22.524.4.99.4 1.037 0 .126-3.761.064-5.182-.086-2.472-.262-7.255-1.488-8.54-2.188-1.17-.636-3.23-2.488-4.024-3.617-.4-.567-.945-1.26-1.21-1.537l-.485-.504 6.093-27.562c3.352-15.16 6.124-27.59 6.16-27.627zm16.535 18.388c.15.002.284.014.4.035l.592.112-.34.435c-2.968 3.798-3.538 7.338-1.752 10.881 2.265 4.492 4.944 5.626 12.402 5.246 4.898-.249 8.198-.22 9.319.082 1.72.464 3.428 1.562 3.428 2.205 0 .373.505.817.931.817.188 0 .538-.183.778-.405.602-.557 1.546-.774 2.97-.683 2.035.13 3.018.54 9.84 4.107 5.795 3.03 8.717 3.32 11.984 1.188 2.4-1.567 4.017-3.71 4.48-5.94.236-1.13.112-3.955-.226-5.166-.216-.774-.213-.845.03-.845.639 0 2.112.951 3.256 2.105 1.828 1.844 3.209 4.406 4.068 7.543.48 1.75.5 5.198.039 6.484l-.316.887-1.856.934c-3.17 1.593-6.172 2.342-8.637 2.154-2.172-.165-3.464-.664-6.529-2.523-1.808-1.097-2.531-1.357-3.49-1.248-.958.108-1.724.66-2.483 1.785-1.042 1.546-1.217 2.808-.644 4.662.541 1.753 1.595 3.205 5.225 7.2 3.409 3.751 4.52 5.538 4.529 7.292.004.774-.093 1.058-.71 2.098-.861 1.454-2.98 3.608-4.72 4.799-3.58 2.449-8.727 4.235-12.902 4.478-.826.048-1.685.107-1.906.13-.748.082-3.623-.19-4.725-.446-2.6-.605-5.091-1.918-5.502-2.9-.4-.957-1.44-1.223-2-.51-.555.706-3.059.93-5.547.496-4.216-.736-8.615-3.142-12.371-6.768-3.375-3.258-5.68-7.032-6.385-10.453-.845-4.107.087-5.117 7.764-8.41 5.52-2.368 7.225-3.518 8.225-5.553.857-1.746.502-4.289-.756-5.426-.751-.678-1.387-.82-3.037-.68-3.394.29-5.585.3-6.643.03-2.988-.761-5.82-2.844-8.525-6.276-1.114-1.412-1.185-1.73-.754-3.384.92-3.534 4.452-7.54 8.35-9.47 1.317-.651 3.097-1.111 4.146-1.099zm-47.047 10.992c.025-.025.416.484.867 1.133 3.254 4.68 8.605 10.032 13.277 13.28 1.144.794 1.378 1.034 1.418 1.435.072.722-1.55 8.267-6.572 30.563-1.07 4.747-2.001 8.764-2.07 8.927-.098.231-1.684-2.146-7.18-10.767-3.88-6.086-7.055-11.2-7.055-11.364 0-.301 7.23-33.121 7.315-33.207zm61.615 14.479c-.81-.018-1.613.278-2.29.89-.81.731-1.16 1.5-1.16 2.553 0 1.478.69 2.57 1.999 3.164.972.442 1.98.406 3.006-.105 2.148-1.07 2.538-3.878.765-5.512-.696-.642-1.51-.972-2.32-.99zm-.635.75c.273.005.56.09.844.275.821.538.89 1.55.156 2.284-.565.565-1.416.53-2.029-.082-1.035-1.036-.15-2.497 1.03-2.477zm15.602 2.855c-1.544.056-3.028 1.13-3.32 2.957-.226 1.413.634 3.016 1.937 3.608a3.505 3.505 0 004.082-.883c1.019-1.16 1.132-2.945.264-4.182-.68-.968-1.664-1.446-2.655-1.498a3.53 3.53 0 00-.308-.002zm-.733.44c.358-.014.734.114 1.067.447.764.764.609 1.865-.332 2.352-.694.359-1.289.244-1.795-.344-.922-1.07-.013-2.412 1.06-2.455zm12.881.838c.478-.01 1.17.366 2.592 1.23 1.586.964 3.255 1.765 4.46 2.14a.406.406 0 01.01.005c.002 0 .004 0 .005.002l.002.002.002.002v.002h.002v.004h.002v.004l-.002.002v.004l-.002.002c-.054.056-.446.157-.988.246-2.574.42-6.067 1.166-6.516 1.39-.259.13-.5.235-.533.235-.156 0-.73-1.608-.807-2.262-.104-.877.177-1.63.928-2.486.29-.331.518-.516.845-.522zm18.994 4.361a47.978 47.978 0 016.448.32c1.38.167 1.53.218 1.5.508-.035.346-12.421 56.438-12.567 56.91-.047.156-.172.278-.277.27-.424-.031-91.16-20.155-91.24-20.236-.048-.049 1.488-7.22 3.414-15.936 1.926-8.716 3.5-15.91 3.5-15.986v-.002h.002v-.002l.002-.002h.006c.088.017.691.535 1.414 1.222 1.528 1.455 2.783 2.364 3.967 2.871 1.096.47 6.25 1.724 7.918 1.926.798.097 2.448.176 3.666.176l2.214.002.965 1.434c1.818 2.703 3.528 4.547 6.223 6.709 3.55 2.847 6.166 4.123 10.775 5.252 2.584.632 3.498.71 5.473.476l1.69-.2 1.521.897c2.038 1.2 2.828 1.49 5.434 1.995 1.874.363 2.667.43 5.197.443 2.547.012 3.256-.041 4.84-.367 9.75-2.009 18.23-8.586 18.23-14.139 0-2.432-1.316-4.646-5.945-9.996-1.072-1.238-1.92-2.28-1.883-2.316.205-.205 6.581-1.27 10.248-1.713 2.587-.312 4.994-.484 7.266-.516zm-43.125 1.715l.102.564.201 1.106.098.54-.977.089c-1.049.095-2.61.725-3.228 1.3-.561.524-.992 1.467-.992 2.17 0 .859.693 2.171 1.545 2.92 1.28 1.128 3.372 2.055 5.525 2.45 1.201.22 3.575.049 4.588-.33 1.87-.7 2.702-1.675 2.699-3.17-.003-1.362-1.075-2.81-2.885-3.899l-.547-.328.87-.55a32.015 32.015 0 011.17-.716c.254-.138.07-.275-1.211-.908-1.899-.937-3.161-1.233-5.282-1.236zm1.897.894c.993.022 2.847.38 3.873.81l.611.255-.822.836c-.907.921-1.32 1.736-1.32 2.603h-.002c0 .538-.03.57-.524.56-.603-.011-2.235-.426-2.424-.614-.07-.07-.016-.339.12-.598.316-.607.313-1.72-.006-2.797-.137-.461-.202-.888-.15-.955.076-.077.313-.107.644-.1zm-16.385.75c-.114.006-.227.07-.37.174-.265.193-.245.297.3 1.575.32.751.955 2.055 1.408 2.898 3.946 7.337 8.977 11.748 14.34 12.57 2.404.369 5.698-.199 8.264-1.424 2.595-1.238 6.117-3.888 8.572-6.449l.64-.666-.335-.334-.334-.336-1.53.735c-.84.403-2.203.96-3.029 1.236-7.577 2.538-15.307.922-22.318-4.668-1.7-1.355-3.49-3.073-4.498-4.316-.6-.739-.858-1.008-1.11-.995zm14.918 1.485c.254-.006.258.101.258.512 0 .5-.043.554-.453.554-.68 0-2.026.437-2.508.817-.955.75-.201 2.056 1.793 3.101 1.442.756 2.777 1.082 4.43 1.082 2.372 0 3.849-.726 3.593-1.767-.124-.508-1.056-1.488-1.789-1.883-.607-.327-.615-.345-.386-.945l.16-.424.506.29c.76.44 2.058 1.647 2.324 2.16.822 1.59-.334 3.077-2.742 3.522-2.08.385-4.45.008-6.547-1.04-.965-.484-2.309-1.704-2.637-2.395-.863-1.818.488-3.128 3.652-3.547.15-.02.261-.035.346-.037zm-13.293 1.607c0-.056.598.472 1.33 1.174 3.896 3.735 8.48 6.268 13.432 7.422 1.026.239 1.935.3 4.435.3 3.515 0 4.699-.177 7.498-1.128.886-.3 1.634-.525 1.663-.496.084.084-2.377 2.083-3.594 2.918-1.539 1.055-4.116 2.268-5.66 2.664-4.622 1.183-8.772-.097-12.787-3.946-1.36-1.303-2.793-3.037-4.01-4.851-.673-1.002-2.307-3.876-2.307-4.057zm12.322.578c.238.006.412.137.692.416.913.913 4.33 1.587 4.941.975.258-.258.304-.254.76.07.77.55.875.884.355 1.135-.241.117-1.157.233-2.05.262-2.226.07-3.51-.31-5.203-1.543-.797-.581-.861-.875-.243-1.117.34-.133.564-.203.748-.198z" paint-order="markers stroke fill"/>
    <path fill="url(#linearGradient7)" stroke="#000" stroke-linecap="round" stroke-linejoin="round" stroke-width="1.7" d="M108.807 40.975c-1.026.185-1.013.146-3.621 10.814-1.346 5.502-2.482 10.058-2.524 10.127-.042.069-2.993 2.385-6.558 5.147-3.566 2.76-6.682 5.206-6.928 5.433-.246.228-.679.49-.961.582a1.55 1.55 0 00-.781.652c-.148.267-4.938 21.635-10.647 47.485C68.222 160 66.435 168.288 66.57 168.646c.09.24 4.28 6.884 9.309 14.766 5.03 7.883 9.144 14.438 9.144 14.568 0 .378.461 1.166.784 1.338.162.087 18.731 4.233 41.261 9.213 22.53 4.98 44.303 9.804 48.385 10.719 4.082.915 7.72 1.672 8.086 1.682.84.023 1.449-.431 1.664-1.24.087-.329 4.881-21.963 10.652-48.077 10.382-46.973 10.492-47.485 10.243-48.078-.327-.778-10.265-38.616-10.168-38.713v-.002h.002v-.002h.01v.002h.002v.002h.002c.074.045.304.415.543.887.524 1.04 1.133 1.454 1.822 1.244.498-.152 12.167-5.034 12.742-5.332.598-.31.835-.794.738-1.512-.1-.747-2.308-6.628-4.152-11.058-3.785-9.091-7.247-15.93-10.502-20.744-1.694-2.505-2.425-3.302-3.547-3.868-1.898-.958-5.39-1.607-8.65-1.607-2.818 0-4.268.514-6.764 2.395-1.35 1.016-5.25 4.93-7.4 7.421-1.184 1.373-1.332 1.489-1.776 1.416-.266-.043-13.807-3.025-30.09-6.629-19.833-4.389-29.769-6.523-30.103-6.462zm1.763 3.636c.348.002 56.083 12.36 56.18 12.457.053.053-2.643 3.297-5.992 7.21-5.201 6.076-6.15 7.111-6.506 7.099-.23-.008-2.16-.397-4.29-.865-2.129-.468-12.75-2.764-23.6-5.102-10.851-2.338-19.792-4.29-19.87-4.338-.2-.124 3.847-16.462 4.078-16.46zm74.645 1.221c3.073.019 6.087.6 7.26 1.398 1.938 1.32 7.34 11.026 11.336 20.37 1.716 4.013 4.636 11.426 4.636 11.77 0 .169-9.233 4.128-9.619 4.124-.22-.002-10.891-20.926-10.857-21.287.115-1.22-.416-1.948-1.418-1.947-.337 0-.831.134-1.098.297-1.848 1.127-12.72 13.337-28.861 32.414-1.67 1.974-3.046 3.58-3.059 3.57a12.8 12.8 0 00-.83-.154c-4.192-.704-6.868-4.273-6.238-8.323.217-1.4.928-3.201 1.785-4.527.332-.513 2.306-2.893 4.389-5.289 2.082-2.396 7.081-8.203 11.109-12.906 9.084-10.608 10.202-11.879 12.902-14.649 2.411-2.473 3.968-3.744 5.416-4.422.917-.428 1.084-.452 3.147-.439zm.322 18.658c.059-.024 1.589 2.88 3.4 6.453 2.21 4.358 3.28 6.632 3.247 6.903a9.55 9.55 0 01-.21 1.008c-.108.413-.244.6-.433.59-.482-.027-16.143-3.451-16.24-3.551-.144-.149 9.791-11.215 10.236-11.403zm-78.154.309c.05-.062 4.204.823 28.785 6.133 8.652 1.868 15.758 3.424 15.793 3.457l.002.002v.004c-.002.07-.357.535-.818 1.066l-2.682 3.084c-1.992 2.29-3.01 3.73-3.748 5.309-1.435 3.066-1.665 6.548-.6 9.072 1.614 3.822 4.946 6.16 9.235 6.478 1.172.088 1.333.063 1.744-.263.248-.198 2.278-2.511 4.512-5.14 2.233-2.63 6.023-7.066 8.421-9.856a922.258 922.258 0 004.444-5.19c.082-.116 19.25 4.052 19.42 4.223.048.049 2.308 8.542 5.021 18.875s4.996 19.024 5.074 19.312c.129.476.11.524-.207.512-.192-.007-16.54-3.598-36.328-7.98a59832.548 59832.548 0 00-46.385-10.258c-5.723-1.26-10.433-2.31-10.466-2.338-.073-.06-1.285-36.419-1.217-36.502zm-4.21 1.006l.118.574c.107.53 1.198 18.308 1.594 25.994.094 1.824.146 3.562.117 3.863-.048.498-.63-.359-6.373-9.365l-6.322-9.914-.051-1.314-.053-1.317 5.486-4.26zM89.507 79.33c.102-.313 1.293 1.467 7.701 11.508 4.17 6.533 7.777 12.275 8.016 12.762l.433.884-4.85 21.973c-2.667 12.085-4.904 22.031-4.97 22.104-.066.072-.16.027-.209-.1-.049-.127-.93-.823-1.957-1.547-5.168-3.642-9.907-8.536-13.688-14.135-.719-1.065-1.404-1.993-1.521-2.064a.483.483 0 01-.213-.37c0-.27 11.072-50.444 11.258-51.015zm19.469 25.494c.058-.058 21.33 4.622 78.318 17.235 8.375 1.853 15.265 3.407 15.31 3.453.086.085-6.681 30.896-6.814 31.029-.04.04-1.074-.052-2.299-.205-1.224-.153-3.718-.317-5.543-.363l-3.316-.082 2.066-1.035c2.347-1.175 2.472-1.32 3.045-3.561 1.64-6.41-2.996-16.069-8.539-17.793-1.179-.367-2.73-.419-3.158-.105-.395.288-.364.735.164 2.449.375 1.216.449 1.752.457 3.306.008 1.578-.047 1.996-.365 2.79-.644 1.608-2.948 3.752-4.746 4.417-.399.148-1.186.252-1.893.25-1.702-.004-3.348-.573-6.676-2.31-7.07-3.69-8.735-4.34-11.14-4.34-.73 0-1.704.114-2.17.252l-.848.252-.629-.57c-.346-.313-1.008-.76-1.47-.995-2.155-1.091-4.087-1.299-9.577-1.03-8.445.411-10.465-.036-12.197-2.694-1.199-1.84-1.515-2.81-1.516-4.664 0-1.586.016-1.66.676-2.992.418-.844 1.147-1.915 1.905-2.8.94-1.097 1.214-1.528 1.177-1.843-.16-1.37-3.824-2.02-6.574-1.168-5.948 1.842-11.445 8.088-11.742 13.336l-.082 1.455 1.027 1.367c2.825 3.758 6.238 6.42 9.393 7.326 1.51.434 3.352.583 5.082.41 3.808-.38 4.04-.385 4.375-.081.456.413.717 1.83.49 2.671-.402 1.493-2.328 2.912-6.137 4.524-6.018 2.547-7.747 3.495-9.03 4.951-1.222 1.385-1.37 1.81-1.364 3.912.006 1.976.3 3.364 1.127 5.33.22.524.4.99.4 1.037 0 .127-3.761.065-5.181-.086-2.473-.262-7.256-1.487-8.542-2.187-1.169-.636-3.228-2.489-4.023-3.617-.4-.567-.945-1.26-1.21-1.537l-.485-.504 6.093-27.563c3.352-15.158 6.124-27.59 6.16-27.627zm16.535 18.389c.15.002.284.013.4.035l.592.111-.34.436c-2.968 3.798-3.538 7.338-1.752 10.88 2.265 4.492 4.944 5.627 12.403 5.247 4.897-.25 8.197-.22 9.318.082 1.72.463 3.428 1.561 3.428 2.205 0 .373.505.816.931.816.188 0 .538-.182.778-.404.602-.558 1.546-.775 2.97-.683 2.035.13 3.018.54 9.84 4.107 5.795 3.03 8.717 3.32 11.985 1.187 2.4-1.566 4.016-3.709 4.48-5.939.235-1.13.111-3.956-.227-5.166-.216-.774-.213-.846.03-.846.639 0 2.112.952 3.256 2.106 1.828 1.844 3.209 4.405 4.068 7.543.48 1.75.5 5.198.039 6.484l-.316.887-1.856.933c-3.17 1.594-6.172 2.342-8.637 2.155-2.172-.166-3.464-.665-6.529-2.524-1.808-1.097-2.531-1.356-3.49-1.248-.958.108-1.724.66-2.483 1.785-1.042 1.547-1.216 2.81-.644 4.662.541 1.753 1.595 3.205 5.225 7.2 3.409 3.752 4.52 5.539 4.529 7.293.004.774-.093 1.058-.71 2.097-.861 1.454-2.98 3.609-4.72 4.8-3.58 2.449-8.727 4.235-12.902 4.478-.826.048-1.685.107-1.906.13-.748.081-3.623-.19-4.725-.447-2.6-.604-5.091-1.917-5.502-2.9-.4-.957-1.44-1.222-2-.51-.555.706-3.059.93-5.547.496-4.216-.735-8.615-3.141-12.37-6.767-3.376-3.259-5.682-7.032-6.386-10.454-.845-4.107.087-5.117 7.764-8.41 5.52-2.367 7.225-3.517 8.225-5.552.857-1.746.502-4.29-.756-5.426-.751-.679-1.387-.82-3.037-.68-3.394.29-5.585.299-6.643.03-2.988-.762-5.82-2.845-8.525-6.276-1.114-1.412-1.185-1.731-.754-3.385.92-3.534 4.452-7.539 8.35-9.468 1.317-.653 3.097-1.113 4.146-1.1zm-47.047 10.992c.025-.025.416.484.867 1.133 3.254 4.68 8.605 10.032 13.277 13.28 1.144.794 1.379 1.034 1.418 1.435.072.722-1.55 8.267-6.572 30.562-1.07 4.748-2 8.765-2.07 8.928-.098.23-1.684-2.146-7.18-10.768-3.88-6.085-7.055-11.199-7.055-11.363 0-.302 7.23-33.122 7.315-33.207zm61.615 14.479c-.81-.018-1.613.278-2.29.89-.81.73-1.16 1.5-1.16 2.553 0 1.478.69 2.57 1.999 3.164.972.441 1.98.405 3.006-.105 2.148-1.07 2.538-3.879.765-5.512-.696-.642-1.51-.973-2.32-.99zm-.635.75c.273.005.56.089.844.275.821.538.89 1.55.156 2.283-.565.566-1.416.531-2.029-.082-1.035-1.035-.15-2.497 1.03-2.476zm15.602 2.855c-1.544.056-3.028 1.13-3.32 2.957-.226 1.413.634 3.016 1.937 3.608a3.505 3.505 0 004.082-.883c1.019-1.16 1.132-2.946.264-4.182-.68-.969-1.664-1.446-2.654-1.498a3.53 3.53 0 00-.31-.002zm-.732.44c.357-.015.733.114 1.066.447.764.764.609 1.865-.332 2.351-.694.36-1.289.244-1.795-.343-.922-1.071-.013-2.413 1.06-2.455zm12.88.837c.479-.009 1.17.367 2.592 1.23 1.586.964 3.255 1.765 4.46 2.141a.406.406 0 01.01.004l.005.002.002.002.002.003v.002h.002v.004h.002v.004l-.002.002v.004l-.002.002c-.054.055-.446.157-.988.246-2.574.42-6.067 1.166-6.516 1.39-.259.13-.5.235-.533.235-.156 0-.73-1.609-.807-2.262-.104-.877.177-1.63.928-2.486.29-.331.518-.516.846-.522zm18.995 4.362a47.978 47.978 0 016.447.32c1.381.167 1.53.218 1.5.508-.035.345-12.421 56.438-12.567 56.91-.047.155-.172.278-.277.27-.424-.031-91.16-20.156-91.24-20.237-.048-.048 1.488-7.22 3.414-15.935 1.926-8.716 3.5-15.91 3.5-15.987v-.002h.002v-.002l.002-.002h.006c.088.017.691.535 1.414 1.223 1.528 1.454 2.783 2.364 3.967 2.871 1.096.47 6.25 1.724 7.918 1.926.798.097 2.448.175 3.666.176l2.215.002.964 1.433c1.818 2.704 3.528 4.547 6.223 6.71 3.55 2.847 6.166 4.123 10.775 5.251 2.584.633 3.498.71 5.473.477l1.69-.2 1.521.897c2.038 1.2 2.828 1.489 5.434 1.994 1.874.364 2.667.431 5.197.444 2.547.012 3.256-.041 4.84-.368 9.75-2.008 18.23-8.586 18.23-14.138 0-2.432-1.316-4.646-5.945-9.996-1.071-1.239-1.919-2.28-1.883-2.317.205-.204 6.581-1.27 10.248-1.713 2.587-.312 4.994-.483 7.266-.515zm-43.125 1.715l.101.564.201 1.106.098.54-.977.088c-1.049.096-2.61.725-3.228 1.301-.561.524-.992 1.467-.992 2.17 0 .858.694 2.17 1.545 2.92 1.28 1.128 3.372 2.055 5.525 2.45 1.201.22 3.575.048 4.588-.33 1.871-.7 2.702-1.676 2.7-3.17-.004-1.362-1.076-2.811-2.886-3.9l-.547-.327.87-.551a32.015 32.015 0 011.17-.715c.254-.138.07-.275-1.211-.908-1.899-.938-3.161-1.233-5.282-1.236zm1.896.894c.993.022 2.847.38 3.873.809l.611.256-.822.836c-.907.92-1.32 1.736-1.32 2.603h-.002c0 .538-.029.57-.524.56-.603-.012-2.235-.426-2.423-.615-.07-.07-.016-.338.119-.597.316-.607.314-1.72-.006-2.797-.137-.461-.202-.889-.15-.955.076-.077.313-.107.644-.1zm-16.385.75c-.114.006-.227.069-.37.174-.265.193-.245.297.3 1.574.32.752.955 2.056 1.408 2.899 3.946 7.337 8.977 11.748 14.34 12.57 2.404.368 5.698-.2 8.264-1.424 2.595-1.239 6.117-3.889 8.572-6.45l.64-.665-.335-.334-.334-.336-1.53.734c-.84.404-2.203.96-3.029 1.237-7.577 2.538-15.307.922-22.318-4.668-1.7-1.355-3.49-3.073-4.498-4.317-.6-.738-.858-1.007-1.11-.994zm14.918 1.484c.254-.006.258.102.258.512 0 .5-.043.555-.453.555-.68 0-2.026.437-2.508.816-.955.751-.201 2.056 1.793 3.102 1.442.756 2.777 1.082 4.43 1.082 2.372 0 3.849-.727 3.593-1.768-.124-.507-1.056-1.488-1.789-1.882-.607-.328-.615-.345-.386-.946l.16-.424.506.291c.76.44 2.058 1.646 2.324 2.16.822 1.59-.334 3.077-2.742 3.522-2.08.384-4.45.008-6.547-1.041-.965-.483-2.309-1.703-2.637-2.395-.863-1.818.488-3.127 3.652-3.546.15-.02.261-.036.346-.038zM130.2 164.38c0-.056.598.472 1.33 1.174 3.896 3.735 8.48 6.268 13.432 7.422 1.026.239 1.935.3 4.435.3 3.515 0 4.699-.178 7.499-1.129.885-.3 1.633-.524 1.662-.496.084.085-2.377 2.084-3.594 2.918-1.538 1.056-4.116 2.269-5.66 2.664-4.622 1.184-8.772-.096-12.787-3.945-1.36-1.304-2.793-3.038-4.01-4.851-.673-1.003-2.307-3.877-2.307-4.057zm12.322.578c.238.006.412.136.692.416.914.912 4.33 1.586 4.941.975.258-.258.304-.255.76.07.77.549.875.883.356 1.135-.242.117-1.158.233-2.051.261-2.226.071-3.51-.308-5.203-1.543-.797-.58-.861-.875-.243-1.117.34-.133.564-.202.748-.197z" paint-order="markers stroke fill"/>
</svg>
