<svg xmlns="http://www.w3.org/2000/svg" xmlns:xlink="http://www.w3.org/1999/xlink" viewBox="0 0 100 100">
    <defs>
        <linearGradient id="linearGradient7">
            <stop offset="0" stop-color="#faa"/>
            <stop offset="1" stop-color="#f55"/>
        </linearGradient>
        <linearGradient id="innoGrad8">
            <stop offset="0" stop-color="#faa"/>
            <stop offset="1" stop-color="#f55"/>
        </linearGradient>
        <linearGradient id="innoGrad6">
            <stop offset="0" stop-color="#ff7f2a"/>
            <stop offset="1" stop-color="#ffb380"/>
        </linearGradient>
        <linearGradient id="innoGrad5">
            <stop offset="0" stop-color="#ffe6d5"/>
            <stop offset="1" stop-color="#fca"/>
        </linearGradient>
        <linearGradient id="innoGrad3">
            <stop offset="0" stop-color="#ffd5d5"/>
            <stop offset="1" stop-color="#ff8080"/>
        </linearGradient>
        <linearGradient id="innoGrad0">
            <stop offset="0" stop-color="#ffd5d5"/>
            <stop offset="1" stop-color="#faa"/>
        </linearGradient>
        <linearGradient id="linearGradient178931" x1="13.842" x2="20.092" y1="19.724" y2="29.992" gradientUnits="userSpaceOnUse" xlink:href="#innoGrad8"/>
        <linearGradient id="linearGradient37477-3" x1="71.658" x2="70.733" y1="34.547" y2="38.296" gradientTransform="matrix(.905 0 0 1 40.954 -7.293)" gradientUnits="userSpaceOnUse" xlink:href="#innoGrad5"/>
        <linearGradient id="linearGradient4" x1="83.393" x2="62.992" y1="23.151" y2="47.101" gradientTransform="translate(-34.718 8.85)" gradientUnits="userSpaceOnUse" xlink:href="#innoGrad8"/>
        <linearGradient id="linearGradient6" x1="8.415" x2="57.202" y1="31.959" y2="31.959" gradientUnits="userSpaceOnUse" xlink:href="#linearGradient7"/>
        <linearGradient id="linearGradient8" x1="20.447" x2="48.451" y1="50.006" y2="17.334" gradientUnits="userSpaceOnUse" xlink:href="#linearGradient7"/>
        <linearGradient id="linearGradient10" x1="787.801" x2="889.296" y1="765.645" y2="699.791" gradientUnits="userSpaceOnUse" xlink:href="#innoGrad5"/>
    </defs>
    <g>
        <g transform="translate(-31.107 12.675)">
            <path fill="#ffb380" stroke="#000" stroke-linejoin="round" stroke-width=".617" d="M50.81 31.49c-2.709 1.06-5.154 3.788-3.408 6.076 2.519 2.725 7.424 2.676 11.282 2.167 20.095-.895 40.173-2.069 60.294-2.575 2.762 1.795 6.415-2.739 2.305-3.072-3.818-.573-7.71.21-11.544-.247-19.658-.542-39.28-1.634-58.928-2.348z" color="#000"/>
            <path fill="url(#linearGradient37477-3)" stroke="#000" stroke-linejoin="round" stroke-width=".631" d="M59.595 20.6a32.545 32.545 0 00-2.99.131 4.617 4.617 0 00-.163.02c-3.724.492-5.938 2.674-7.574 5.205-1.636 2.53-2.702 5.719-3.09 9.328-.014.136-.014.27 0 .406.388 3.61 1.454 6.797 3.09 9.328 1.636 2.531 3.85 4.713 7.574 5.205.055.008.108.013.163.018 3.565.345 8.824-.023 15.652-.674 6.828-.651 15.634-2.417 23.506-3.6 9.48-.893 15.703-4.024 28.883-7.019.134.013.404.023.404.023 2.449 0 4.434-1.59 4.433-3.552.001-1.962-1.984-3.553-4.433-3.553a5.362 5.362 0 00-.113.006c-10.175-1.816-20.302-5.443-30.477-7.1-7.871-1.183-15.375-2.714-22.203-3.365-3.414-.326-6.435-.58-9.049-.71a68.525 68.525 0 00-3.613-.097zm-.018 5.207c2.555.021 6.86.248 11.776.717 6.613.63 14.57 1.619 22.28 2.777 7.712 1.16 15.196 2.493 20.815 3.788 2.548.587 4.685 1.167 6.25 1.685a2.87 2.87 0 00-.084.645c.004.259.044.517.118.77-1.568.52-3.719 1.105-6.284 1.696-5.619 1.295-13.103 2.629-20.814 3.788-7.711 1.158-15.668 2.146-22.281 2.777-6.555.625-12.02.82-13.705.67-.07-.028-1.317-.589-2.434-2.317-1.117-1.728-2.04-4.324-2.393-7.316.353-2.992 1.276-5.59 2.393-7.318 1.117-1.728 2.365-2.287 2.434-2.315.42-.037 1.078-.054 1.93-.047z"/>
            <path fill="#fff" d="M122.977 32.491c-.965-.142-2.033-.113-2.033-.113s.86.652 1.932.806c2.076.303 3.95.318 4.525 1.661.37.82.462 1.997.462 1.997s.682-1.054.182-2.272c-.757-1.767-3.048-1.784-5.068-2.079z"/>
            <ellipse cx="125.464" cy="35.575" fill="#ffb380" fill-rule="evenodd" stroke="#000" stroke-width=".6" rx="1.364" ry="1.307"/>
        </g>
        <ellipse cx="32.278" cy="47.249" fill="url(#linearGradient4)" stroke="#000" stroke-linejoin="round" stroke-width=".5" rx="26.051" ry="24.974"/>
        <g fill="url(#linearGradient10)" fill-rule="evenodd" stroke="#000" stroke-width="7.227" transform="matrix(.09905 0 0 .0938 -59.549 -9.742)">
            <path d="M921.34 581.47c24.024 2.805 52.378 8.175 65.063 31.408 9.262 13.695 17.325 28.384 28.876 40.366 20.474 10.36 40.873 22.802 55.562 40.703 18.435 27.565 12.853 67.05-8.575 91.256-23.994 21.967-58.529 32.941-90.51 24.814-20.44-4.086-40.822-16.113-62.09-9.394-19.674 5.521-39.198 14.22-60.15 11.886-19.916-.675-37.786-10.415-54.54-20.209-19.534-12.539-31.74-35.211-30.416-58.508.067-34.972 26.36-63.966 55.97-79.315 12.637-6.142 25.905-12.813 31.912-26.452 8.59-15.734 16.123-35.498 35.208-40.864 10.77-3.919 22.27-5.49 33.69-5.692z"/>
            <path d="M713.476 547.665c5.13-18.015 19.672-34.679 38.978-37.117 13.803-1.78 28.086 1.725 40.237 8.242 22.16 14.759 35.06 39.741 42.353 64.68 3.676 11.925 6.177 24.675 3.148 37.04-2.8 14.602-13.39 26.974-27.02 32.666-17.704 10.643-41.18 9.204-58.06-2.43-10.04-6.65-18.938-15.33-24.338-26.209-12.79-23.063-21.415-50.467-15.298-76.872zM880 414.862s29.464.179 45.714 37.857c0 0 11.213 24.437 7.322 61.965 0 0-.609 37.78-23.085 53.184 0 0-30.557 27.78-65.66-9.596 0 0-24.496-26.264-29.294-63.387 0 0-5.304-38.386 18.435-61.367 0 0 20.14-18.834 46.568-18.656zM1024.821 420.576s36.25 10.715 32.322 52.143c0 0 2.058 33.277-17.64 63.582 0 0-19.95 37.375-46.467 41.416 0 0-29.294 9.091-50.507-35.86 0 0-15.153-51.013 8.333-85.358 0 0 27.421-50.947 73.96-35.923zM1105.357 522.72c17.013 5.199 29.025 21.655 30.538 39.148 1.642 15.718-2.079 31.519-7.37 46.231-8.61 21.512-24.127 40.317-43.758 52.636-14.836 8.097-33.334 4.661-46.914-4.417-5.555-2.661-8.94-7.703-11.333-13.196-9.042-17.992-10.31-39.892-2.093-58.42 6.947-17.446 15.496-35.252 30.147-47.54 11.11-10.096 25.628-18.342 41.157-16.725 3.29.335 6.533 1.111 9.626 2.282z"/>
        </g>
    </g>
</svg>
