<svg xmlns="http://www.w3.org/2000/svg" xmlns:xlink="http://www.w3.org/1999/xlink" viewBox="0 0 100 100">
    <defs>
        <linearGradient id="linearGradient7">
            <stop offset="0" stop-color="#faa"/>
            <stop offset="1" stop-color="#f55"/>
        </linearGradient>
        <linearGradient id="innoGrad8">
            <stop offset="0" stop-color="#faa"/>
            <stop offset="1" stop-color="#f55"/>
        </linearGradient>
        <linearGradient id="innoGrad6">
            <stop offset="0" stop-color="#ff7f2a"/>
            <stop offset="1" stop-color="#ffb380"/>
        </linearGradient>
        <linearGradient id="innoGrad5">
            <stop offset="0" stop-color="#ffe6d5"/>
            <stop offset="1" stop-color="#fca"/>
        </linearGradient>
        <linearGradient id="innoGrad3">
            <stop offset="0" stop-color="#ffd5d5"/>
            <stop offset="1" stop-color="#ff8080"/>
        </linearGradient>
        <linearGradient id="innoGrad0">
            <stop offset="0" stop-color="#ffd5d5"/>
            <stop offset="1" stop-color="#faa"/>
        </linearGradient>
        <linearGradient id="linearGradient178931" x1="13.842" x2="20.092" y1="19.724" y2="29.992" gradientUnits="userSpaceOnUse" xlink:href="#innoGrad8"/>
        <linearGradient id="linearGradient37477-3" x1="71.658" x2="70.733" y1="34.547" y2="38.296" gradientTransform="matrix(.905 0 0 1 40.954 -7.293)" gradientUnits="userSpaceOnUse" xlink:href="#innoGrad5"/>
        <linearGradient id="linearGradient4" x1="83.393" x2="62.992" y1="23.151" y2="47.101" gradientTransform="translate(-34.718 8.85)" gradientUnits="userSpaceOnUse" xlink:href="#innoGrad8"/>
        <linearGradient id="linearGradient6" x1="8.415" x2="57.202" y1="31.959" y2="31.959" gradientUnits="userSpaceOnUse" xlink:href="#linearGradient7"/>
        <linearGradient id="linearGradient8" x1="20.447" x2="48.451" y1="50.006" y2="17.334" gradientUnits="userSpaceOnUse" xlink:href="#linearGradient7"/>
        <linearGradient id="linearGradient10" x1="787.801" x2="889.296" y1="765.645" y2="699.791" gradientUnits="userSpaceOnUse" xlink:href="#innoGrad5"/>
        <linearGradient id="linearGradient11" x1="787.801" x2="889.296" y1="765.645" y2="699.791" gradientUnits="userSpaceOnUse" xlink:href="#innoGrad5"/>
        <linearGradient id="linearGradient12" x1="787.801" x2="889.296" y1="765.645" y2="699.791" gradientUnits="userSpaceOnUse" xlink:href="#innoGrad5"/>
        <linearGradient id="linearGradient13" x1="787.801" x2="889.296" y1="765.645" y2="699.791" gradientUnits="userSpaceOnUse" xlink:href="#innoGrad5"/>
        <linearGradient id="linearGradient14" x1="787.801" x2="889.296" y1="765.645" y2="699.791" gradientUnits="userSpaceOnUse" xlink:href="#innoGrad5"/>
        <linearGradient id="linearGradient15" x1="787.801" x2="889.296" y1="765.645" y2="699.791" gradientUnits="userSpaceOnUse" xlink:href="#innoGrad5"/>
    </defs>
    <g>
        <g transform="translate(-31.107 12.675)">
            <path fill="#ffb380" stroke="#000" stroke-linejoin="round" stroke-width=".617" d="M50.81 31.49c-2.709 1.06-5.154 3.788-3.408 6.076 2.519 2.725 7.424 2.676 11.282 2.167 20.095-.895 40.173-2.069 60.294-2.575 2.762 1.795 6.415-2.739 2.305-3.072-3.818-.573-7.71.21-11.544-.247-19.658-.542-39.28-1.634-58.928-2.348z" color="#000"/>
            <path fill="url(#linearGradient37477-3)" stroke="#000" stroke-linejoin="round" stroke-width=".631" d="M59.595 20.6a32.545 32.545 0 00-2.99.131 4.617 4.617 0 00-.163.02c-3.724.492-5.938 2.674-7.574 5.205-1.636 2.53-2.702 5.719-3.09 9.328-.014.136-.014.27 0 .406.388 3.61 1.454 6.797 3.09 9.328 1.636 2.531 3.85 4.713 7.574 5.205.055.008.108.013.163.018 3.565.345 8.824-.023 15.652-.674 6.828-.651 15.634-2.417 23.506-3.6 9.48-.893 15.703-4.024 28.883-7.019.134.013.404.023.404.023 2.449 0 4.434-1.59 4.433-3.552.001-1.962-1.984-3.553-4.433-3.553a5.362 5.362 0 00-.113.006c-10.175-1.816-20.302-5.443-30.477-7.1-7.871-1.183-15.375-2.714-22.203-3.365-3.414-.326-6.435-.58-9.049-.71a68.525 68.525 0 00-3.613-.097zm-.018 5.207c2.555.021 6.86.248 11.776.717 6.613.63 14.57 1.619 22.28 2.777 7.712 1.16 15.196 2.493 20.815 3.788 2.548.587 4.685 1.167 6.25 1.685a2.87 2.87 0 00-.084.645c.004.259.044.517.118.77-1.568.52-3.719 1.105-6.284 1.696-5.619 1.295-13.103 2.629-20.814 3.788-7.711 1.158-15.668 2.146-22.281 2.777-6.555.625-12.02.82-13.705.67-.07-.028-1.317-.589-2.434-2.317-1.117-1.728-2.04-4.324-2.393-7.316.353-2.992 1.276-5.59 2.393-7.318 1.117-1.728 2.365-2.287 2.434-2.315.42-.037 1.078-.054 1.93-.047z"/>
            <path fill="#fff" d="M122.977 32.491c-.965-.142-2.033-.113-2.033-.113s.86.652 1.932.806c2.076.303 3.95.318 4.525 1.661.37.82.462 1.997.462 1.997s.682-1.054.182-2.272c-.757-1.767-3.048-1.784-5.068-2.079z"/>
            <ellipse cx="125.464" cy="35.575" fill="#ffb380" fill-rule="evenodd" stroke="#000" stroke-width=".6" rx="1.364" ry="1.307"/>
        </g>
        <g fill="#ffb380" fill-rule="evenodd" stroke="#000" stroke-width="3.166" color="#000">
            <g>
                <path d="M921.34 581.47c24.024 2.805 52.378 8.175 65.063 31.408 9.262 13.695 17.325 28.384 28.876 40.366 20.474 10.36 40.873 22.802 55.562 40.703 18.435 27.565 12.853 67.05-8.575 91.256-23.994 21.967-58.529 32.941-90.51 24.814-20.44-4.086-40.822-16.113-62.09-9.394-19.674 5.521-39.198 14.22-60.15 11.886-19.916-.675-37.786-10.415-54.54-20.209-19.534-12.539-31.74-35.211-30.416-58.508.067-34.972 26.36-63.966 55.97-79.315 12.637-6.142 25.905-12.813 31.912-26.452 8.59-15.734 16.123-35.498 35.208-40.864 10.77-3.919 22.27-5.49 33.69-5.692z" transform="matrix(.16627 0 0 .15 -115.336 -47.957)"/>
                <path d="M921.518 577.852l-.243.004c-11.63.206-23.445 1.806-34.634 5.841-10.518 2.968-17.876 9.97-23.485 17.926-5.615 7.965-9.684 16.972-13.886 24.67l-.073.135-.062.14c-5.392 12.241-17.578 18.532-30.184 24.659l-.043.02-.04.02c-30.447 15.783-57.777 45.664-57.917 82.38-1.378 24.664 11.464 48.467 32.072 61.695l.065.04.064.038c16.78 9.81 35.14 19.934 56.1 20.687 22.124 2.419 42.109-6.594 61.39-12.005l.057-.016.055-.018c19.423-6.135 38.91 5.188 60.195 9.467 33.312 8.432 68.953-2.957 93.758-25.668l.138-.127.127-.142c22.515-25.434 28.382-66.488 8.873-95.658l-.098-.149-.113-.137c-15.046-18.336-35.629-30.892-56.062-41.277-10.94-11.468-18.88-25.778-28.176-39.523l.178.293c-6.83-12.508-17.933-20.196-30.127-24.997-12.195-4.8-25.576-6.855-37.69-8.27zm-.364 7.242c11.846 1.39 24.556 3.415 35.645 7.781 11.16 4.394 20.576 11.01 26.431 21.734l.082.15.096.143c9.136 13.508 17.277 28.41 29.27 40.85l.424.44.544.277c20.243 10.243 40.118 22.442 54.28 39.636 17.213 25.908 11.948 63.616-8.264 86.565-23.156 21.11-56.458 31.611-87.016 23.846l-.09-.024-.091-.02c-19.558-3.91-40.806-16.585-63.887-9.294l.111-.035c-20.025 5.62-39.05 13.972-58.773 11.775l-.137-.016-.14-.004c-18.785-.636-36.095-9.936-52.76-19.675-18.413-11.846-29.954-33.338-28.711-55.225l.006-.1v-.1c.063-33.164 25.284-61.217 54.02-76.112l-.084.04c12.667-6.156 27.015-13.208 33.638-28.246l-.135.276c4.387-8.036 8.381-16.777 13.452-23.969 5.07-7.192 11.013-12.743 19.562-15.146l.131-.038.127-.046c10.209-3.715 21.221-5.248 32.27-5.463z" transform="matrix(.16627 0 0 .15 -115.336 -47.957)"/>
            </g>
            <g>
                <path d="M713.476 547.665c5.13-18.015 19.672-34.679 38.978-37.117 13.803-1.78 28.086 1.725 40.237 8.242 22.16 14.759 35.06 39.741 42.353 64.68 3.676 11.925 6.177 24.675 3.148 37.04-2.8 14.602-13.39 26.974-27.02 32.666-17.704 10.643-41.18 9.204-58.06-2.43-10.04-6.65-18.938-15.33-24.338-26.209-12.79-23.063-21.415-50.467-15.298-76.872z" transform="matrix(.16627 0 0 .15 -115.336 -47.957)"/>
                <path d="M757.516 506.512a60.143 60.143 0 00-5.524.453c-21.109 2.67-36.531 20.533-41.992 39.71l-.023.087-.022.088c-6.398 27.612 2.58 55.8 15.582 79.295l.01.015c5.759 11.592 15.133 20.68 25.545 27.58 18.052 12.424 42.916 13.97 61.941 2.533l-.468.239c14.712-6.145 26.092-19.398 29.158-35.254 3.228-13.314.524-26.673-3.211-38.803-7.433-25.416-20.63-51.23-43.818-66.672l-.143-.096-.152-.082c-11.126-5.967-23.985-9.56-36.883-9.093zm5.158 7.27c9.746.511 19.497 3.507 28.15 8.122 21.046 14.088 33.615 38.176 40.752 62.58l.008.026.008.025c3.598 11.673 5.873 23.755 3.09 35.115l-.021.088-.018.09c-2.553 13.318-12.337 24.783-24.863 30.014l-.245.101-.226.135c-16.371 9.842-38.44 8.518-54.147-2.307l-.027-.019-.027-.02c-9.653-6.393-18.06-14.653-23.098-24.802l-.035-.073-.041-.072c-12.52-22.578-20.738-49.102-14.951-74.219 4.82-16.814 18.455-32.227 35.924-34.433h.01a54.094 54.094 0 019.757-.352z" transform="matrix(.16627 0 0 .15 -115.336 -47.957)"/>
            </g>
            <g>
                <path d="M427.143 81.071s29.464.179 45.714 37.858c0 0 11.213 24.437 7.322 61.964 0 0-.61 37.78-23.085 53.184 0 0-30.557 27.78-65.66-9.596 0 0-24.496-26.264-29.294-63.387 0 0-5.304-38.386 18.435-61.367 0 0 20.14-18.834 46.568-18.656z" transform="matrix(.16627 0 0 .15 -40.04 2.114)"/>
                <path d="M427.164 77.457c-28.156-.188-49.057 19.63-49.057 19.63l-.023.022-.023.022c-25.358 24.548-19.511 64.378-19.502 64.437 4.974 38.453 30.232 65.377 30.232 65.377l.004.006.006.004c18.216 19.395 36.226 22.361 49.299 19.89 13.005-2.457 21.309-9.99 21.394-10.067l.032-.026c24.01-16.884 24.246-54.548 24.248-55.486l.017-.315c3.875-38.138-7.59-63.396-7.634-63.494-8.439-19.538-20.56-29.72-30.62-34.81-10.064-5.092-18.363-5.19-18.369-5.19zm-.045 7.229h.002s6.428-.005 15.154 4.41c8.727 4.415 19.453 13.151 27.264 31.263l.016.04.017.037s10.814 23.425 7.012 60.084l-.016.158-.004.156s-1.285 36.397-21.513 50.262l-.205.14-.182.168s-6.926 6.265-17.908 8.34c-10.98 2.075-25.796.244-42.68-17.728l-.002-.002-.006-.006c-.022-.024-23.722-25.607-28.346-61.377l-.002-.016-.002-.016s-4.725-36.85 17.346-58.25c.061-.056 19.394-17.83 44.055-17.664z" transform="matrix(.16627 0 0 .15 -40.04 2.114)"/>
            </g>
            <g>
                <path d="M571.964 86.786s36.25 10.714 32.322 52.143c0 0 2.058 33.277-17.64 63.581 0 0-19.95 37.376-46.467 41.416 0 0-29.294 9.092-50.508-35.86 0 0-15.152-51.013 8.334-85.358 0 0 27.421-50.946 73.96-35.922z" transform="matrix(.16627 0 0 .15 -40.04 2.114)"/>
                <path d="M555.512 80.436c-16.638-.115-30.398 7.422-40.33 15.933-13.206 11.316-20.29 24.504-20.33 24.58-24.568 36.307-8.645 88.147-8.645 88.147l.078.263.12.248c10.92 23.142 24.377 33 35.325 36.672 10.95 3.673 19.52 1.098 19.52 1.098 14.52-2.433 26.405-13.305 34.87-23.346 8.433-10.005 13.44-19.332 13.599-19.629 20.13-31.032 18.222-64.652 18.176-65.427 1.955-21.612-6.692-35.919-15.854-44.317-9.176-8.41-18.95-11.304-19.014-11.322-6.133-1.975-11.984-2.862-17.515-2.9zm-.174 7.16c4.861.051 10.032.858 15.516 2.629l.043.013.043.014s8.279 2.456 16.216 9.732c7.938 7.277 15.394 18.959 13.532 38.604l-.026.281.018.283s1.912 32.194-17.065 61.389l-.084.13-.072.138s-4.83 9.03-12.865 18.564c-8.036 9.533-19.208 19.19-30.96 20.98l-.267.042-.26.08s-6.076 1.972-15.078-1.047c-8.961-3.006-20.69-11.044-30.949-32.635-.205-.724-14.065-49.912 7.908-82.045l.108-.158.092-.17s6.596-12.193 18.697-22.563c9.076-7.776 20.87-14.416 35.453-14.261z" transform="matrix(.16627 0 0 .15 -40.04 2.114)"/>
            </g>
            <g>
                <path d="M1105.357 522.72c17.013 5.199 29.025 21.655 30.538 39.148 1.642 15.718-2.079 31.519-7.37 46.231-8.61 21.512-24.127 40.317-43.758 52.636-14.836 8.097-33.334 4.661-46.914-4.417-5.555-2.661-8.94-7.703-11.333-13.196-9.042-17.992-10.31-39.892-2.093-58.42 6.947-17.446 15.496-35.252 30.147-47.54 11.11-10.096 25.628-18.342 41.157-16.725 3.29.335 6.533 1.111 9.626 2.282z" transform="matrix(.16627 0 0 .15 -115.336 -47.957)"/>
                <path d="M1089.803 516.662c-14.487.664-27.519 8.627-37.614 17.791-15.36 12.914-24.071 31.241-31.064 48.785-8.688 19.586-7.343 42.508 2.125 61.412 2.568 5.867 6.433 11.76 13.043 14.926l-.447-.254c14.49 9.687 34.33 13.493 50.652 4.584l.096-.052.094-.057c20.308-12.743 36.295-32.128 45.191-54.356l.025-.058.022-.06c5.385-14.97 9.282-31.28 7.565-47.797-1.647-18.894-14.454-36.52-32.992-42.229a41.684 41.684 0 00-10.393-2.453 42.158 42.158 0 00-6.303-.182zm.312 7.23a34.215 34.215 0 015.24.14l.01.001v0a34.513 34.513 0 018.713 2.067l.11.04.113.036c15.43 4.715 26.606 19.953 27.994 36.004v.062c1.554 14.884-1.971 30.137-7.152 44.56-8.31 20.733-23.303 38.907-42.188 50.794-13.339 7.236-30.453 4.173-43.1-4.282l-.214-.144-.233-.111c-4.467-2.14-7.362-6.288-9.58-11.38l-.04-.091-.044-.088c-8.574-17.062-9.753-37.896-2.02-55.332l.03-.064.025-.065c6.882-17.285 15.246-34.48 29.111-46.107l.055-.047.055-.05c9.34-8.488 20.948-15.341 33.11-15.942z" transform="matrix(.16627 0 0 .15 -115.336 -47.957)"/>
            </g>
        </g>
        <g fill="url(#linearGradient10)" fill-rule="evenodd" stroke-width="7.227" color="#000" transform="matrix(.16627 0 0 .15 -115.336 -47.957)">
            <g>
                <path style="-inkscape-stroke:none" fill="url(#linearGradient11)" d="M921.34 581.47c24.024 2.805 52.378 8.175 65.063 31.408 9.262 13.695 17.325 28.384 28.876 40.366 20.474 10.36 40.873 22.802 55.562 40.703 18.435 27.565 12.853 67.05-8.575 91.256-23.994 21.967-58.529 32.941-90.51 24.814-20.44-4.086-40.822-16.113-62.09-9.394-19.674 5.521-39.198 14.22-60.15 11.886-19.916-.675-37.786-10.415-54.54-20.209-19.534-12.539-31.74-35.211-30.416-58.508.067-34.972 26.36-63.966 55.97-79.315 12.637-6.142 25.905-12.813 31.912-26.452 8.59-15.734 16.123-35.498 35.208-40.864 10.77-3.919 22.27-5.49 33.69-5.692z"/>
                <path style="-inkscape-stroke:none" fill="#000" d="M921.518 577.852l-.243.004c-11.63.206-23.445 1.806-34.634 5.841-10.518 2.968-17.876 9.97-23.485 17.926-5.615 7.965-9.684 16.972-13.886 24.67l-.073.135-.062.14c-5.392 12.241-17.578 18.532-30.184 24.659l-.043.02-.04.02c-30.447 15.783-57.777 45.664-57.917 82.38-1.378 24.664 11.464 48.467 32.072 61.695l.065.04.064.038c16.78 9.81 35.14 19.934 56.1 20.687 22.124 2.419 42.109-6.594 61.39-12.005l.057-.016.055-.018c19.423-6.135 38.91 5.188 60.195 9.467 33.312 8.432 68.953-2.957 93.758-25.668l.138-.127.127-.142c22.515-25.434 28.382-66.488 8.873-95.658l-.098-.149-.113-.137c-15.046-18.336-35.629-30.892-56.062-41.277-10.94-11.468-18.88-25.778-28.176-39.523l.178.293c-6.83-12.508-17.933-20.196-30.127-24.997-12.195-4.8-25.576-6.855-37.69-8.27zm-.364 7.242c11.846 1.39 24.556 3.415 35.645 7.781 11.16 4.394 20.576 11.01 26.431 21.734l.082.15.096.143c9.136 13.508 17.277 28.41 29.27 40.85l.424.44.544.277c20.243 10.243 40.118 22.442 54.28 39.636 17.213 25.908 11.948 63.616-8.264 86.565-23.156 21.11-56.458 31.611-87.016 23.846l-.09-.024-.091-.02c-19.558-3.91-40.806-16.585-63.887-9.294l.111-.035c-20.025 5.62-39.05 13.972-58.773 11.775l-.137-.016-.14-.004c-18.785-.636-36.095-9.936-52.76-19.675-18.413-11.846-29.954-33.338-28.711-55.225l.006-.1v-.1c.063-33.164 25.284-61.217 54.02-76.112l-.084.04c12.667-6.156 27.015-13.208 33.638-28.246l-.135.276c4.387-8.036 8.381-16.777 13.452-23.969 5.07-7.192 11.013-12.743 19.562-15.146l.131-.038.127-.046c10.209-3.715 21.221-5.248 32.27-5.463z"/>
            </g>
            <g>
                <path style="-inkscape-stroke:none" fill="url(#linearGradient12)" d="M713.476 547.665c5.13-18.015 19.672-34.679 38.978-37.117 13.803-1.78 28.086 1.725 40.237 8.242 22.16 14.759 35.06 39.741 42.353 64.68 3.676 11.925 6.177 24.675 3.148 37.04-2.8 14.602-13.39 26.974-27.02 32.666-17.704 10.643-41.18 9.204-58.06-2.43-10.04-6.65-18.938-15.33-24.338-26.209-12.79-23.063-21.415-50.467-15.298-76.872z"/>
                <path style="-inkscape-stroke:none" fill="#000" d="M757.516 506.512a60.143 60.143 0 00-5.524.453c-21.109 2.67-36.531 20.533-41.992 39.71l-.023.087-.022.088c-6.398 27.612 2.58 55.8 15.582 79.295l.01.015c5.759 11.592 15.133 20.68 25.545 27.58 18.052 12.424 42.916 13.97 61.941 2.533l-.468.239c14.712-6.145 26.092-19.398 29.158-35.254 3.228-13.314.524-26.673-3.211-38.803-7.433-25.416-20.63-51.23-43.818-66.672l-.143-.096-.152-.082c-11.126-5.967-23.985-9.56-36.883-9.093zm5.158 7.27c9.746.511 19.497 3.507 28.15 8.122 21.046 14.088 33.615 38.176 40.752 62.58l.008.026.008.025c3.598 11.673 5.873 23.755 3.09 35.115l-.021.088-.018.09c-2.553 13.318-12.337 24.783-24.863 30.014l-.245.101-.226.135c-16.371 9.842-38.44 8.518-54.147-2.307l-.027-.019-.027-.02c-9.653-6.393-18.06-14.653-23.098-24.802l-.035-.073-.041-.072c-12.52-22.578-20.738-49.102-14.951-74.219 4.82-16.814 18.455-32.227 35.924-34.433h.01a54.094 54.094 0 019.757-.352z"/>
            </g>
            <g>
                <path style="-inkscape-stroke:none" fill="url(#linearGradient13)" d="M427.143 81.071s29.464.179 45.714 37.858c0 0 11.213 24.437 7.322 61.964 0 0-.61 37.78-23.085 53.184 0 0-30.557 27.78-65.66-9.596 0 0-24.496-26.264-29.294-63.387 0 0-5.304-38.386 18.435-61.367 0 0 20.14-18.834 46.568-18.656z" transform="translate(452.857 333.79)"/>
                <path style="-inkscape-stroke:none" fill="#000" d="M880.021 411.248c-28.156-.189-49.056 19.63-49.056 19.63l-.024.022-.023.022c-25.358 24.548-19.51 64.378-19.502 64.437 4.974 38.452 30.232 65.377 30.232 65.377l.004.006.006.004c18.216 19.395 36.226 22.361 49.299 19.89 13.005-2.457 21.309-9.99 21.395-10.068l.03-.025c24.01-16.884 24.247-54.548 24.249-55.486l.017-.315c3.875-38.138-7.59-63.397-7.634-63.494-8.439-19.539-20.56-29.72-30.62-34.81-10.064-5.093-18.363-5.19-18.369-5.19zm-.045 7.228h.002s6.428-.005 15.155 4.41c8.726 4.416 19.452 13.152 27.263 31.264l.016.04.017.036s10.814 23.426 7.012 60.084l-.015.158-.004.157s-1.286 36.397-21.514 50.261l-.205.141-.182.168s-6.926 6.265-17.908 8.34c-10.98 2.075-25.796.244-42.68-17.729l-.002-.002-.006-.006c-.022-.023-23.722-25.606-28.345-61.377l-.002-.015-.002-.016s-4.726-36.851 17.345-58.25c.061-.056 19.394-17.83 44.055-17.664z"/>
            </g>
            <g>
                <path style="-inkscape-stroke:none" fill="url(#linearGradient14)" d="M571.964 86.786s36.25 10.714 32.322 52.143c0 0 2.058 33.277-17.64 63.581 0 0-19.95 37.376-46.467 41.416 0 0-29.294 9.092-50.508-35.86 0 0-15.152-51.013 8.334-85.358 0 0 27.421-50.946 73.96-35.922z" transform="translate(452.857 333.79)"/>
                <path style="-inkscape-stroke:none" fill="#000" d="M1008.369 414.226c-16.638-.114-30.397 7.423-40.33 15.934-13.206 11.315-20.29 24.504-20.33 24.58-24.568 36.307-8.645 88.146-8.645 88.146l.078.264.12.248c10.92 23.142 24.377 33 35.326 36.672 10.948 3.673 19.52 1.098 19.52 1.098 14.52-2.433 26.404-13.305 34.868-23.346 8.434-10.005 13.441-19.332 13.6-19.629 20.131-31.032 18.222-64.652 18.176-65.428 1.955-21.611-6.692-35.918-15.854-44.316-9.176-8.411-18.95-11.304-19.014-11.322-6.133-1.975-11.984-2.863-17.515-2.9zm-.174 7.16c4.861.052 10.032.859 15.516 2.63l.043.013.043.014s8.279 2.456 16.216 9.732c7.938 7.276 15.395 18.958 13.532 38.604l-.026.28.018.284s1.912 32.194-17.065 61.389l-.084.13-.072.137s-4.83 9.032-12.865 18.565c-8.036 9.533-19.208 19.19-30.96 20.98l-.267.041-.26.08s-6.076 1.973-15.078-1.047c-8.961-3.006-20.689-11.043-30.949-32.634-.205-.725-14.065-49.912 7.908-82.045l.108-.158.092-.17s6.596-12.194 18.697-22.563c9.076-7.777 20.87-14.416 35.453-14.262z"/>
            </g>
            <g>
                <path style="-inkscape-stroke:none" fill="url(#linearGradient15)" d="M1105.357 522.72c17.013 5.199 29.025 21.655 30.538 39.148 1.642 15.718-2.079 31.519-7.37 46.231-8.61 21.512-24.127 40.317-43.758 52.636-14.836 8.097-33.334 4.661-46.914-4.417-5.555-2.661-8.94-7.703-11.333-13.196-9.042-17.992-10.31-39.892-2.093-58.42 6.947-17.446 15.496-35.252 30.147-47.54 11.11-10.096 25.628-18.342 41.157-16.725 3.29.335 6.533 1.111 9.626 2.282z"/>
                <path style="-inkscape-stroke:none" fill="#000" d="M1089.803 516.662c-14.487.664-27.519 8.627-37.614 17.791-15.36 12.914-24.071 31.241-31.064 48.785-8.688 19.586-7.343 42.508 2.125 61.412 2.568 5.867 6.433 11.76 13.043 14.926l-.447-.254c14.49 9.687 34.33 13.493 50.652 4.584l.096-.052.094-.057c20.308-12.743 36.295-32.128 45.191-54.356l.025-.058.022-.06c5.385-14.97 9.282-31.28 7.565-47.797-1.647-18.894-14.454-36.52-32.992-42.229a41.684 41.684 0 00-10.393-2.453 42.158 42.158 0 00-6.303-.182zm.312 7.23a34.215 34.215 0 015.24.14l.01.001a34.513 34.513 0 018.713 2.067l.11.04.113.036c15.43 4.715 26.606 19.953 27.994 36.004v.062c1.554 14.884-1.971 30.137-7.152 44.56-8.31 20.733-23.303 38.907-42.188 50.794-13.339 7.236-30.453 4.173-43.1-4.282l-.214-.144-.233-.111c-4.467-2.14-7.362-6.288-9.58-11.38l-.04-.091-.044-.088c-8.574-17.062-9.753-37.896-2.02-55.332l.03-.064.025-.065c6.882-17.285 15.246-34.48 29.111-46.107l.055-.047.055-.05c9.34-8.488 20.948-15.341 33.11-15.942z"/>
            </g>
        </g>
    </g>
</svg>
