<?xml version="1.0" encoding="UTF-8" standalone="no"?>
<svg
   version="1.1"
   viewBox="0 0 100 100"
   id="svg34418"
   sodipodi:docname="pearl_comb.svg"
   inkscape:version="1.3.1 (9b9bdc1480, 2023-11-25, custom)"
   xmlns:inkscape="http://www.inkscape.org/namespaces/inkscape"
   xmlns:sodipodi="http://sodipodi.sourceforge.net/DTD/sodipodi-0.dtd"
   xmlns:xlink="http://www.w3.org/1999/xlink"
   xmlns="http://www.w3.org/2000/svg"
   xmlns:svg="http://www.w3.org/2000/svg">
  <sodipodi:namedview
     id="namedview34420"
     pagecolor="#ffffff"
     bordercolor="#666666"
     borderopacity="1.0"
     inkscape:pageshadow="2"
     inkscape:pageopacity="0.0"
     inkscape:pagecheckerboard="0"
     showgrid="false"
     inkscape:zoom="5.1807137"
     inkscape:cx="57.907079"
     inkscape:cy="31.65587"
     inkscape:window-width="1854"
     inkscape:window-height="1010"
     inkscape:window-x="0"
     inkscape:window-y="0"
     inkscape:window-maximized="1"
     inkscape:current-layer="svg34418"
     inkscape:snap-nodes="false"
     inkscape:showpageshadow="2"
     inkscape:deskcolor="#d1d1d1" />
  <defs
     id="defs34368">
    <linearGradient
       id="linearGradient80"
       inkscape:collect="always">
      <stop
         style="stop-color:#ffffff;stop-opacity:1;"
         offset="0"
         id="stop81" />
      <stop
         style="stop-color:#ffb380;stop-opacity:1;"
         offset="1"
         id="stop80" />
    </linearGradient>
    <linearGradient
       id="linearGradient7">
      <stop
         stop-color="#ffd5d5"
         offset="0"
         id="stop6"
         style="stop-color:#ffaaaa;stop-opacity:1" />
      <stop
         stop-color="#ff8080"
         offset="1"
         id="stop7"
         style="stop-color:#ff5555;stop-opacity:1" />
    </linearGradient>
    <inkscape:path-effect
       effect="taper_stroke"
       id="path-effect20910"
       is_visible="true"
       lpeversion="1"
       stroke_width="0.7"
       attach_start="0.2"
       end_offset="0.2"
       start_smoothing="0.5"
       end_smoothing="0.5"
       jointype="extrapolated"
       start_shape="center"
       end_shape="center"
       miter_limit="100" />
    <linearGradient
       id="innoGrad7">
      <stop
         stop-color="#ffd5d5"
         offset="0"
         id="stop174519"
         style="stop-color:#ffaaaa;stop-opacity:1" />
      <stop
         stop-color="#ff8080"
         offset="1"
         id="stop174521"
         style="stop-color:#ff2a2a;stop-opacity:1" />
    </linearGradient>
    <linearGradient
       id="innoGrad8">
      <stop
         stop-color="#ffd5d5"
         offset="0"
         id="stop174321"
         style="stop-color:#ffaaaa;stop-opacity:1" />
      <stop
         stop-color="#ff8080"
         offset="1"
         id="stop174323"
         style="stop-color:#ff5555;stop-opacity:1" />
    </linearGradient>
    <inkscape:path-effect
       effect="taper_stroke"
       id="path-effect39852"
       is_visible="true"
       lpeversion="1"
       stroke_width="0.7"
       attach_start="0.2"
       end_offset="0.2"
       start_smoothing="0.5"
       end_smoothing="0.5"
       jointype="extrapolated"
       start_shape="center"
       end_shape="center"
       miter_limit="100" />
    <linearGradient
       id="linearGradient36645"
       inkscape:swatch="solid">
      <stop
         style="stop-color:#747400;stop-opacity:1;"
         offset="0"
         id="stop36643" />
    </linearGradient>
    <linearGradient
       id="innoGrad6">
      <stop
         stop-color="#ff7f2a"
         offset="0"
         id="stop34331" />
      <stop
         stop-color="#ffb380"
         offset="1"
         id="stop34333" />
    </linearGradient>
    <linearGradient
       id="innoGrad5">
      <stop
         stop-color="#ffe6d5"
         offset="0"
         id="stop34336" />
      <stop
         stop-color="#fca"
         offset="1"
         id="stop34338" />
    </linearGradient>
    <linearGradient
       id="innoGrad3">
      <stop
         stop-color="#ffd5d5"
         offset="0"
         id="stop34341" />
      <stop
         stop-color="#ff8080"
         offset="1"
         id="stop34343" />
    </linearGradient>
    <linearGradient
       id="innoGrad0">
      <stop
         stop-color="#ffd5d5"
         offset="0"
         id="stop34346" />
      <stop
         stop-color="#faa"
         offset="1"
         id="stop34348" />
    </linearGradient>
    <linearGradient
       id="linearGradient933"
       x1="28.496"
       x2="23.366"
       y1="62.712"
       y2="74.326"
       gradientTransform="matrix(.66226 -.02137 .02137 .66226 21.121 25.217)"
       gradientUnits="userSpaceOnUse"
       xlink:href="#innoGrad6" />
    <linearGradient
       id="linearGradient1002"
       x1="37.139"
       x2="43.05"
       y1="40.36"
       y2="46.08"
       gradientTransform="matrix(.66226 -.02137 .02137 .66226 21.121 25.217)"
       gradientUnits="userSpaceOnUse"
       xlink:href="#innoGrad6" />
    <linearGradient
       id="linearGradient1010"
       x1="25.603"
       x2="38.425"
       y1="43.076"
       y2="59.231"
       gradientTransform="matrix(.66226 -.02137 .02137 .66226 21.121 25.217)"
       gradientUnits="userSpaceOnUse"
       xlink:href="#innoGrad6" />
    <linearGradient
       id="linearGradient1018"
       x1="35.855"
       x2="44.506"
       y1="49.489"
       y2="77.653"
       gradientTransform="matrix(.66226 -.02137 .02137 .66226 21.121 25.217)"
       gradientUnits="userSpaceOnUse"
       xlink:href="#innoGrad5" />
    <linearGradient
       id="linearGradient1020"
       x1="34.879"
       x2="40.699"
       y1="30.501"
       y2="56.868"
       gradientTransform="matrix(.66226 -.02137 .02137 .66226 21.121 25.217)"
       gradientUnits="userSpaceOnUse"
       xlink:href="#innoGrad5" />
    <linearGradient
       id="linearGradient1022"
       x1="46.329"
       x2="49.711"
       y1="14.67"
       y2="36.393"
       gradientTransform="matrix(.66226 -.02137 .02137 .66226 21.121 25.217)"
       gradientUnits="userSpaceOnUse"
       xlink:href="#innoGrad5" />
    <linearGradient
       id="linearGradient1044"
       x1="43.227"
       x2="54.91"
       y1="46.833"
       y2="50.441"
       gradientTransform="matrix(.66226 -.02137 .02137 .66226 21.121 25.217)"
       gradientUnits="userSpaceOnUse"
       xlink:href="#innoGrad6" />
    <linearGradient
       id="linearGradient1057"
       x1="45.661"
       x2="53.817"
       y1="26.91"
       y2="5.936"
       gradientUnits="userSpaceOnUse"
       xlink:href="#innoGrad0" />
    <linearGradient
       id="linearGradient1067"
       x1="48.261"
       x2="54.9"
       y1="13.131"
       y2="63.617"
       gradientUnits="userSpaceOnUse"
       xlink:href="#innoGrad0" />
    <linearGradient
       id="linearGradient1075"
       x1="51.271"
       x2="53.034"
       y1="8.936"
       y2="15.041"
       gradientUnits="userSpaceOnUse"
       xlink:href="#innoGrad3" />
    <linearGradient
       id="innoGrad9"
       x1="46.115"
       x2="45.342"
       y1="44"
       y2="22.337"
       gradientUnits="userSpaceOnUse">
      <stop
         stop-color="#f55"
         offset="0"
         id="stop34361" />
      <stop
         stop-color="#faa"
         offset="1"
         id="stop34363" />
    </linearGradient>
    <linearGradient
       id="linearGradient1097"
       x1="51.665"
       x2="51.964"
       y1="30.306"
       y2="17.577"
       gradientUnits="userSpaceOnUse"
       xlink:href="#innoGrad3" />
    <linearGradient
       id="linearGradient1154"
       x1="-92.12"
       x2="-101.04"
       y1="-11.268"
       y2="-27.802"
       gradientUnits="userSpaceOnUse"
       xlink:href="#innoGrad0" />
    <filter
       style="color-interpolation-filters:sRGB;"
       inkscape:label="Blur"
       id="filter177059"
       x="-0.1286436"
       y="-0.12632675"
       width="1.2572872"
       height="1.2526535">
      <feGaussianBlur
         stdDeviation="1.7 1.7"
         result="blur"
         id="feGaussianBlur177057" />
    </filter>
    <clipPath
       clipPathUnits="userSpaceOnUse"
       id="clipPath178927">
      <path
         sodipodi:type="star"
         style="opacity:0.49898;mix-blend-mode:normal;fill:url(#linearGradient178931);fill-opacity:1;stroke:none;stroke-width:0.346;stroke-linejoin:round;stroke-miterlimit:4;stroke-dasharray:none"
         id="path178929"
         inkscape:flatsided="false"
         sodipodi:sides="5"
         sodipodi:cx="17.594259"
         sodipodi:cy="27.671268"
         sodipodi:r1="16.975363"
         sodipodi:r2="10.524724"
         sodipodi:arg1="1.3500606"
         sodipodi:arg2="1.9783791"
         inkscape:rounded="0.24"
         inkscape:randomized="0"
         d="M 21.310973,44.234752 C 18.856546,44.785506 15.731749,38.330931 13.42235,37.333825 11.112952,36.336718 4.2722364,38.488578 2.9899785,36.324472 1.7077205,34.160365 6.88077,29.193933 7.1154315,26.689442 7.3500931,24.18495 3.1896549,18.344004 4.8516031,16.455759 c 1.6619481,-1.888246 7.9838659,1.496905 10.4382929,0.946151 2.454428,-0.550754 6.723851,-6.312517 9.033249,-5.315411 2.309399,0.997107 1.04351,8.055677 2.325767,10.219784 1.282258,2.164106 8.081345,4.444087 7.846684,6.948578 -0.234662,2.504491 -7.338942,3.481777 -9.00089,5.370023 -1.661949,1.888245 -1.729305,9.059114 -4.183733,9.609868 z"
         inkscape:transform-center-x="-1.9520223"
         inkscape:transform-center-y="-0.77492603"
         transform="translate(-1.0307473,-0.61999018)"
         inkscape:label="star" />
    </clipPath>
    <linearGradient
       inkscape:collect="always"
       xlink:href="#innoGrad8"
       id="linearGradient178931"
       gradientUnits="userSpaceOnUse"
       x1="13.84167"
       y1="19.723829"
       x2="20.092106"
       y2="29.991619" />
    <radialGradient
       inkscape:collect="always"
       xlink:href="#linearGradient80"
       id="radialGradient81"
       cx="70.750595"
       cy="17.918009"
       fx="70.750595"
       fy="17.918009"
       r="6.4198346"
       gradientTransform="matrix(1,0,0,0.97750868,0,0.45805551)"
       gradientUnits="userSpaceOnUse" />
    <radialGradient
       inkscape:collect="always"
       xlink:href="#linearGradient80"
       id="radialGradient101"
       gradientUnits="userSpaceOnUse"
       gradientTransform="matrix(1,0,0,0.97750868,0,0.45805551)"
       cx="70.750595"
       cy="17.918009"
       fx="70.750595"
       fy="17.918009"
       r="6.4198346" />
    <radialGradient
       inkscape:collect="always"
       xlink:href="#linearGradient80"
       id="radialGradient102"
       gradientUnits="userSpaceOnUse"
       gradientTransform="matrix(1,0,0,0.97750868,0,0.45805551)"
       cx="70.750595"
       cy="17.918009"
       fx="70.750595"
       fy="17.918009"
       r="6.4198346" />
    <radialGradient
       inkscape:collect="always"
       xlink:href="#linearGradient80"
       id="radialGradient103"
       gradientUnits="userSpaceOnUse"
       gradientTransform="matrix(1,0,0,0.97750868,0,0.45805551)"
       cx="70.750595"
       cy="17.918009"
       fx="70.750595"
       fy="17.918009"
       r="6.4198346" />
    <radialGradient
       inkscape:collect="always"
       xlink:href="#linearGradient80"
       id="radialGradient104"
       gradientUnits="userSpaceOnUse"
       gradientTransform="matrix(1,0,0,0.97750868,0,0.45805551)"
       cx="70.750595"
       cy="17.918009"
       fx="70.750595"
       fy="17.918009"
       r="6.4198346" />
    <radialGradient
       inkscape:collect="always"
       xlink:href="#linearGradient80"
       id="radialGradient105"
       gradientUnits="userSpaceOnUse"
       gradientTransform="matrix(1,0,0,0.97750868,0,0.45805551)"
       cx="70.750595"
       cy="17.918009"
       fx="70.750595"
       fy="17.918009"
       r="6.4198346" />
  </defs>
  <g
     inkscape:groupmode="layer"
     id="layer2"
     inkscape:label="Layer 1"
     style="display:inline">
    <path
       style="display:none;fill:#ffb380;stroke:#000000;stroke-width:1px;stroke-linecap:butt;stroke-linejoin:miter;stroke-opacity:1"
       d="m 27.203886,26.660253 3.570183,-0.189253 13.728803,2.895731 15.010224,6.943194 5.080441,4.551135 5.733781,5.78543 3.71759,5.174691 3.115521,4.644253 L 64.81936,78.926671 9.0728631,55.577978 15.818887,32.027591 Z"
       id="path24" />
    <path
       style="display:inline;fill:#ff8080;fill-opacity:1;fill-rule:nonzero;stroke:#000000;stroke-width:1.4;stroke-dasharray:none;stroke-opacity:1"
       d="M 59.502002,31.99316 56.9146,30.397243 51.786259,27.892025 44.697972,25.21184 l -10.67345,-2.353689 -1.64559,-0.07507 -0.838701,0.140645 -1.096408,1.015622 -0.105622,0.780797 0.02037,0.576528 0.52309,0.980601 0.408537,0.251987 -0.06809,-0.042 -13.823001,22.867895 -0.07381,0.424443 0.29845,0.278079 0.314356,0.0999 0.346168,-0.256452 c 4.561268,-7.733981 9.612835,-15.301388 14.034259,-23.083399 -0.15014,0.0086 -0.0665,-0.02301 0.203,10e-4 l 1.383417,0.195339 -13.65501,22.595537 -0.07381,0.424443 0.29845,0.278079 0.356354,0.03181 0.30417,-0.188363 13.823001,-22.867895 c 0.03881,-0.135575 0.29726,-0.07263 0.864793,-0.03056 l 0.916976,0.189618 -13.739006,22.731716 -0.07381,0.424444 0.29845,0.278078 0.356354,0.03181 0.30417,-0.188362 13.926158,-23.035139 c 1.357772,0.221234 -1.670418,-0.3164 1.542433,0.242309 l -0.042,0.06809 v 0 l -13.823001,22.867896 -0.07381,0.424443 0.29845,0.278079 0.382445,0.141899 0.278079,-0.29845 C 30.921131,43.622589 35.891187,36.070735 40.353438,28.23277 l 0.68305,0.172302 0.874978,0.257707 -13.697008,22.663627 -0.07381,0.424443 0.23036,0.236081 0.382446,0.1419 0.346168,-0.256452 13.754912,-22.909894 v 0 l 0.042,-0.06809 0.943067,0.299705 0.943068,0.299705 -13.544923,22.569446 -0.0999,0.314356 0.256452,0.346168 0.424443,0.07381 0.236081,-0.23036 13.739005,-22.731717 0.832981,0.325797 0.90107,0.367795 -13.65501,22.595537 -0.0999,0.314356 0.256452,0.346168 0.424443,0.07381 0.278079,-0.29845 13.697008,-22.663626 1.665961,0.651593 -13.571015,22.459359 -0.07381,0.424443 0.256452,0.346168 0.356354,0.03181 0.346168,-0.256452 13.613012,-22.527448 c 0.591818,0.194313 1.138774,0.480953 1.692053,0.761682 l -13.697008,22.663626 -0.1419,0.382446 0.29845,0.278078 0.382446,0.1419 0.278078,-0.29845 13.739006,-22.731716 c 0.54779,0.281036 1.098947,0.555335 1.650055,0.829771 l -13.691288,22.197185 -0.141899,0.382446 0.29845,0.278078 0.382445,0.1419 0.278079,-0.29845 c 4.478525,-7.449146 13.742448,-22.168601 13.742448,-22.168601 0,0 0.419605,0.261281 0.629749,0.391369 0.249399,0.154417 0.748985,0.461976 0.748985,0.461976 l -0.06652,0.03805 c 0,0 -9.099469,14.822432 -13.666764,22.227221 l -0.03181,0.356354 0.256452,0.346168 0.424443,0.07381 0.236081,-0.230361 13.715348,-22.236195 c 0,0 0.468711,0.255676 0.698818,0.390921 0.252913,0.148596 0.748985,0.461976 0.748985,0.461976 l -13.963645,22.029195 -0.07381,0.424443 0.256452,0.346168 0.424443,0.07381 0.278078,-0.29845 13.853558,-22.003102 c 0,0 0.526236,0.369113 0.775077,0.572063 0.231042,0.188435 0.664989,0.598155 0.664989,0.598155 l -13.81156,21.935013 -0.1419,0.382446 0.29845,0.278078 0.382446,0.1419 L 49.074,61.090818 62.843562,39.223894 c 0,0 0.443326,0.398771 0.664989,0.598155 0.221665,0.199382 0.66499,0.598155 0.66499,0.598155 l -13.895556,22.071192 -0.1419,0.382446 0.29845,0.278078 0.382445,0.1419 0.278079,-0.29845 13.81156,-21.935013 0.733079,0.640153 0.622991,0.666244 -13.853558,22.003103 -0.141899,0.382445 0.298449,0.278079 0.382446,0.1419 0.278078,-0.29845 13.727565,-21.798834 0.759171,0.75024 0.622991,0.666244 -13.979552,22.207372 -0.07381,0.424443 0.188363,0.30417 0.424443,0.07381 0.30417,-0.188362 13.853558,-22.003103 0.554902,0.624247 0.486813,0.582249 -14.105545,22.411639 -0.1419,0.382446 0.256452,0.346168 0.424443,0.07381 0.278079,-0.29845 13.963645,-22.029194 0.486813,0.582249 0.444814,0.650338 -13.979551,22.207371 -0.1419,0.382446 0.256452,0.346168 0.424443,0.07381 0.346168,-0.256452 13.769563,-21.866924 0.580993,0.734334 0.444815,0.650339 -13.937554,22.139282 -0.141899,0.382445 0.256452,0.346168 0.424443,0.07381 0.346168,-0.256452 13.685567,-21.730744 0.496998,0.870513 0.376725,0.60834 -13.937554,22.139282 -0.1419,0.382446 0.256453,0.346168 0.424443,0.07381 0.278078,-0.29845 13.732569,-21.774526 c 0.378589,0.569235 0.341937,0.461557 0.512904,0.692336 l 1.158237,0.223215 0.81261,-0.250731 0.692336,-0.512904 0.415513,-1.435601 -0.25074,-0.812602 -0.831725,-1.546943 -6.615568,-8.780197 -5.330099,-5.073504 -4.199924,-3.248482 z"
       id="path2"
       sodipodi:nodetypes="cccccccccccccccccccccccccccccccccccccccccccccccccccccccccccccccccccccccccccccccccccccccccccsccccccccscccccccscccccccscccccccccccccccccccccccccccccccccccccccccccccccccccccccccccccccccc" />
    <g
       id="path21"
       style="display:inline;stroke:#000000;stroke-width:0.7;stroke-dasharray:none;fill:#ff5555">
      <path
         id="path1"
         style="color:#000000;display:inline;fill:#ff5555;stroke:#000000;stroke-width:0.7;stroke-dasharray:none"
         d="m 30.886719,25.880859 -0.220703,0.365235 -13.839844,22.896484 -0.146484,0.853516 0.630859,0.59375 0.738281,0.232422 0.691406,-0.511719 0.0625,-0.105469 c 4.403267,-7.466071 9.255641,-14.804255 13.585938,-22.345703 l 0.228516,0.123047 -12.939454,21.412109 -0.148437,0.855469 0.6875,0.642578 0.757812,0.06641 0.597657,-0.367187 13.027343,-21.546875 0.357422,0.193359 -12.529297,20.726563 -0.146484,0.857422 0.685547,0.638672 0.759765,0.06641 0.597657,-0.367188 12.613281,-20.861328 0.214844,0.115234 -12.234375,20.238282 -0.148438,0.859375 0.625,0.580078 0.869141,0.324219 0.595703,-0.642578 0.0332,-0.05664 c 3.961708,-6.789092 8.211817,-13.446184 12.216797,-20.251953 l 0.306641,0.164062 -11.773438,19.482422 -0.146484,0.837891 0.539062,0.552734 0.814453,0.302735 0.703125,-0.519532 11.783204,-19.626953 0.640624,0.345703 -11.289062,18.810547 -0.212891,0.671875 0.580079,0.789063 0.964843,0.164062 0.509766,-0.496094 11.412109,-18.886718 0.56836,0.30664 -11.1875,18.511719 -0.212891,0.675781 0.580078,0.783203 0.980469,0.171875 0.542969,-0.582031 11.203125,-18.539062 0.498046,0.267578 -10.96289,18.140625 -0.136719,0.789062 0.572266,0.771485 0.849609,0.07422 0.625,-0.460937 11.029297,-18.253906 0.566406,0.302734 L 38.474609,55.189453 38.171875,56 l 0.681641,0.632812 0.86914,0.324219 0.59375,-0.638672 11.046875,-18.279297 0.523438,0.28125 -10.898438,17.666016 -0.298828,0.8125 0.677735,0.634766 0.86914,0.320312 0.595703,-0.636718 0.03125,-0.05469 c 3.56451,-5.92886 8.454284,-13.688188 10.970703,-17.697266 l 0.357422,0.191407 c -2.459019,4.003818 -7.3009,11.893768 -10.964844,17.833984 l -0.07617,0.121094 -0.0625,0.722656 0.533203,0.724609 0.966797,0.164063 0.507812,-0.494141 11.099609,-17.998047 0.369141,0.199219 -11.3125,17.845703 -0.138672,0.792969 0.550781,0.75 0.980469,0.167969 0.539063,-0.574219 11.302734,-17.951172 0.566406,0.302734 -11.404296,18.113282 -0.304688,0.816406 0.681641,0.632812 0.800781,0.296876 0.695312,-0.519532 11.511719,-18.277344 0.496094,0.267579 -11.792969,18.730468 -0.300781,0.8125 0.675781,0.636719 0.871094,0.31836 0.589844,-0.626954 11.865234,-18.847656 0.568359,0.304688 -12.138671,19.28125 -0.300782,0.814453 0.677735,0.634765 0.86914,0.320313 0.589844,-0.632813 12.212891,-19.394531 0.642578,0.345703 -12.775391,20.289063 -0.128906,0.763672 0.447265,0.728515 0.916016,0.160156 0.615234,-0.382812 12.904297,-20.498047 0.289063,0.15625 -13.376953,21.251953 -0.277344,0.746094 0.591797,0.798828 0.980469,0.171875 0.539062,-0.576172 13.519531,-21.332031 0.0918,0.04883 0.08984,0.13086 -13.802734,21.925781 -0.277344,0.74414 0.591797,0.804688 0.917968,0.15625 0.640626,-0.474609 13.830078,-21.962891 -0.453125,0.02344 0.40625,-0.304687 0.52539,0.28125 c 0.002,4.24e-4 -0.512267,-0.276535 -0.523437,-0.283203 l 0.207031,-0.15625 -2.259766,-3.144532 -0.857421,-0.863281 -0.002,-0.002 -0.01953,-0.01953 -0.462891,0.4375 0.34961,-0.554688 -1.619141,-1.634765 -0.402343,0.638672 -1.195313,1.90039 C 66.403192,46.065242 66.125651,45.914544 65.9375,45.8125 l 1.712891,-2.720703 -1.5625,-1.576172 -0.402344,0.638672 -1.652344,2.625 c -0.197919,-0.107214 -0.360067,-0.196848 -0.566406,-0.308594 l 2.15625,-3.423828 -0.615235,-0.621094 -0.988281,-0.886719 -0.378906,0.601563 -2.076172,3.298828 c -0.202594,-0.10965 -0.288458,-0.157166 -0.496094,-0.269531 l 2.490235,-3.953125 -0.285156,-0.335938 c -1.72846,-2.033791 -3.811194,-3.120442 -5.97461,-4.25 -0.01281,-0.0067 -0.0243,-0.01479 -0.03711,-0.02148 l -0.21875,0.384766 -0.07227,0.04297 -0.07813,0.126953 c 0,0 -2.063185,3.352991 -2.646484,4.302735 -0.177216,-0.09585 -0.177821,-0.09532 -0.355469,-0.191406 0.595705,-0.948998 2.617312,-4.222721 2.640625,-4.259766 l 0.363281,-0.578125 -2.035156,-0.939453 -0.277344,0.453125 -2.634765,4.269531 c -0.261851,-0.14166 -0.260214,-0.14186 -0.521485,-0.283203 l 2.847657,-4.712891 -1.97461,-0.910156 -0.277344,0.458985 -2.496093,4.130859 c -0.278179,-0.150532 -0.290765,-0.157466 -0.566407,-0.306641 l 2.753907,-4.55664 -2.044922,-0.945313 -0.277344,0.458985 -2.402344,3.974609 C 46.757316,35.40424 46.719755,35.383002 46.492188,35.259766 l 2.660156,-4.402344 -1.972656,-0.91211 -0.277344,0.458985 -2.310547,3.824219 C 44.34971,34.097322 44.261204,34.047751 44.025391,33.919922 l 2.566406,-4.248047 -1.533203,-0.708984 c -0.476492,-0.141962 -0.869414,-0.118381 -1.298828,-0.136719 -0.518064,-0.02212 -1.09089,-0.107046 -1.949219,-0.640625 l -0.277344,-0.05859 -0.220703,0.365235 -1.800781,2.978515 c -0.09222,-0.05018 -0.217343,-0.117403 -0.306641,-0.166015 0.502701,-0.855591 1.042903,-1.682812 1.535156,-2.544922 l 0.408204,-0.714844 -2.275391,-0.476563 -0.220703,0.363282 -1.398438,2.314453 c -0.0483,-0.0264 -0.168214,-0.08973 -0.214844,-0.115235 l 1.582032,-2.617187 -2.324219,-0.492188 -0.220703,0.365235 -1.009766,1.671875 c -0.0505,-0.0279 -0.314235,-0.168343 -0.359375,-0.19336 l 1.167969,-1.93164 -2.326172,-0.492188 -0.220703,0.365235 -0.595703,0.986328 c -0.0087,-0.0052 -0.222247,-0.121139 -0.228516,-0.125 0.08805,-0.153758 0.189757,-0.30114 0.277344,-0.455078 0.02988,-0.03561 0.06626,-0.07985 0.06641,-0.08008 2.23e-4,-3.47e-4 0.07803,-0.185181 0.07813,-0.185546 8.6e-5,-3.66e-4 0.01177,-0.214462 0.01172,-0.214844 -4.9e-5,-3.83e-4 -0.04865,-0.173429 -0.04883,-0.173828 -1.82e-4,-3.99e-4 -0.06805,-0.112866 -0.06836,-0.113282 -3.12e-4,-4.14e-4 -0.04201,-0.05224 -0.06055,-0.07031 -0.03708,-0.03615 -0.06608,-0.05644 -0.08984,-0.07227 -0.190141,-0.126585 -0.193929,-0.08996 -0.25,-0.105468 -0.112142,-0.03101 -0.239013,-0.05704 -0.382813,-0.08594 -0.287597,-0.0578 -0.637587,-0.122186 -0.734375,-0.142578 z m 42.476562,23.960938 -0.474609,0.753906 -13.964844,22.181641 -0.277344,0.748047 0.595704,0.798828 0.912109,0.158203 0.642578,-0.47461 13.214844,-20.982421 0.0059,0.01172 0.185547,0.300782 -13.771484,21.873047 -0.277344,0.746093 0.591797,0.800781 0.984375,0.169922 0.537109,-0.578125 13.761719,-21.820312 h -0.109375 c 0.10107,-0.07369 0.226559,-0.164041 0.226562,-0.164063 1.2e-5,-6.4e-5 -0.0078,-0.245957 -0.0078,-0.246093 -3.3e-5,-1.36e-4 -0.01945,-0.06815 -0.01953,-0.06836 -6.13e-4,-0.0017 -0.03609,-0.07928 -0.04297,-0.0918 -0.0275,-0.05006 -0.05847,-0.100598 -0.109375,-0.185546 -0.101818,-0.169896 -0.263623,-0.43639 -0.445313,-0.732422 -0.363377,-0.592068 -0.788036,-1.277265 -0.982422,-1.560547 l -0.002,-0.0039 -0.15625,-0.21875 -0.322265,-0.560546 -0.03711,0.06055 z M 43.375,29.261719 c 0.263917,0.174574 0.33225,0.235672 0.599609,0.412109 l -1.910156,3.183594 c -0.237675,-0.128994 -0.41143,-0.224262 -0.638672,-0.347656 z m 15.164062,7.568359 c 0.120973,0.06889 0.288882,0.167927 0.408204,0.240234 l -2.333985,3.681641 c -0.178732,-0.09667 -0.189183,-0.103838 -0.36914,-0.201172 z m 2.185547,1.47461 c 0.102923,0.07606 0.168311,0.119588 0.232422,0.171874 0.0784,0.06394 0.147804,0.133034 0.265625,0.240235 l -2.128906,3.380859 c -0.255462,-0.138199 -0.304356,-0.163989 -0.564453,-0.304687 z m 8.410157,8 0.01953,0.02344 0.201172,0.238281 -0.515625,0.820313 c -0.0557,-0.03033 -0.230213,-0.124224 -0.289063,-0.15625 z m 1.695312,2.11914 0.04687,0.06836 c -0.0073,-0.004 -0.05894,-0.03106 -0.06641,-0.03516 z" />
    </g>
    <path
       style="display:inline;fill:none;stroke:#ff2a2a;stroke-width:1px;stroke-linecap:butt;stroke-linejoin:miter;stroke-opacity:1"
       d="m 30.841929,26.63424 12.232116,2.406009 10.808945,4.397696 9.126774,5.829539 7.262513,7.307376 5.471389,7.861188"
       id="path4" />
    <path
       style="display:inline;fill:#ff8080;fill-opacity:1;fill-rule:nonzero;stroke:none;stroke-width:0.5;stroke-dasharray:none;stroke-opacity:1"
       d="M 59.502002,31.99316 56.9146,30.397243 51.786259,27.892025 44.697972,25.21184 l -10.67345,-2.353689 -1.64559,-0.07507 -0.838701,0.140645 -1.096408,1.015622 -0.105622,0.780797 0.02037,0.576528 0.52309,0.980601 0.408537,0.251987 -0.06809,-0.042 -13.823001,22.867895 -0.07381,0.424443 0.29845,0.278079 0.314356,0.0999 0.346168,-0.256452 c 4.561268,-7.733981 9.612835,-15.301388 14.034259,-23.083399 -0.15014,0.0086 -0.0665,-0.02301 0.203,10e-4 l 1.383417,0.195339 -13.65501,22.595537 -0.07381,0.424443 0.29845,0.278079 0.356354,0.03181 0.30417,-0.188363 13.823001,-22.867895 c 0.03881,-0.135575 0.29726,-0.07263 0.864793,-0.03056 l 0.916976,0.189618 -13.739006,22.731716 -0.07381,0.424444 0.29845,0.278078 0.356354,0.03181 0.30417,-0.188362 13.926158,-23.035139 c 1.357772,0.221234 -1.670418,-0.3164 1.542433,0.242309 l -0.042,0.06809 v 0 l -13.823001,22.867896 -0.07381,0.424443 0.29845,0.278079 0.382445,0.141899 0.278079,-0.29845 C 30.921131,43.622589 35.891187,36.070735 40.353438,28.23277 l 0.68305,0.172302 0.874978,0.257707 -13.697008,22.663627 -0.07381,0.424443 0.23036,0.236081 0.382446,0.1419 0.346168,-0.256452 13.754912,-22.909894 v 0 l 0.042,-0.06809 0.943067,0.299705 0.943068,0.299705 -13.544923,22.569446 -0.0999,0.314356 0.256452,0.346168 0.424443,0.07381 0.236081,-0.23036 13.739005,-22.731717 0.832981,0.325797 0.90107,0.367795 -13.65501,22.595537 -0.0999,0.314356 0.256452,0.346168 0.424443,0.07381 0.278079,-0.29845 13.697008,-22.663626 1.665961,0.651593 -13.571015,22.459359 -0.07381,0.424443 0.256452,0.346168 0.356354,0.03181 0.346168,-0.256452 13.613012,-22.527448 c 0.591818,0.194313 1.138774,0.480953 1.692053,0.761682 l -13.697008,22.663626 -0.1419,0.382446 0.29845,0.278078 0.382446,0.1419 0.278078,-0.29845 13.739006,-22.731716 c 0.54779,0.281036 1.098947,0.555335 1.650055,0.829771 l -13.691288,22.197185 -0.141899,0.382446 0.29845,0.278078 0.382445,0.1419 0.278079,-0.29845 c 4.478525,-7.449146 13.742448,-22.168601 13.742448,-22.168601 0,0 0.419605,0.261281 0.629749,0.391369 0.249399,0.154417 0.748985,0.461976 0.748985,0.461976 l -0.06652,0.03805 c 0,0 -9.099469,14.822432 -13.666764,22.227221 l -0.03181,0.356354 0.256452,0.346168 0.424443,0.07381 0.236081,-0.230361 13.715348,-22.236195 c 0,0 0.468711,0.255676 0.698818,0.390921 0.252913,0.148596 0.748985,0.461976 0.748985,0.461976 l -13.963645,22.029195 -0.07381,0.424443 0.256452,0.346168 0.424443,0.07381 0.278078,-0.29845 13.853558,-22.003102 c 0,0 0.526236,0.369113 0.775077,0.572063 0.231042,0.188435 0.664989,0.598155 0.664989,0.598155 l -13.81156,21.935013 -0.1419,0.382446 0.29845,0.278078 0.382446,0.1419 L 49.074,61.090818 62.843562,39.223894 c 0,0 0.443326,0.398771 0.664989,0.598155 0.221665,0.199382 0.66499,0.598155 0.66499,0.598155 l -13.895556,22.071192 -0.1419,0.382446 0.29845,0.278078 0.382445,0.1419 0.278079,-0.29845 13.81156,-21.935013 0.733079,0.640153 0.622991,0.666244 -13.853558,22.003103 -0.141899,0.382445 0.298449,0.278079 0.382446,0.1419 0.278078,-0.29845 13.727565,-21.798834 0.759171,0.75024 0.622991,0.666244 -13.979552,22.207372 -0.07381,0.424443 0.188363,0.30417 0.424443,0.07381 0.30417,-0.188362 13.853558,-22.003103 0.554902,0.624247 0.486813,0.582249 -14.105545,22.411639 -0.1419,0.382446 0.256452,0.346168 0.424443,0.07381 0.278079,-0.29845 13.963645,-22.029194 0.486813,0.582249 0.444814,0.650338 -13.979551,22.207371 -0.1419,0.382446 0.256452,0.346168 0.424443,0.07381 0.346168,-0.256452 13.769563,-21.866924 0.580993,0.734334 0.444815,0.650339 -13.937554,22.139282 -0.141899,0.382445 0.256452,0.346168 0.424443,0.07381 0.346168,-0.256452 13.685567,-21.730744 0.496998,0.870513 0.376725,0.60834 -13.937554,22.139282 -0.1419,0.382446 0.256453,0.346168 0.424443,0.07381 0.278078,-0.29845 13.732569,-21.774526 c 0.378589,0.569235 0.341937,0.461557 0.512904,0.692336 l 1.158237,0.223215 0.81261,-0.250731 0.692336,-0.512904 0.415513,-1.435601 -0.25074,-0.812602 -0.831725,-1.546943 -6.615568,-8.780197 -5.330099,-5.073504 -4.199924,-3.248482 z"
       id="path23"
       sodipodi:nodetypes="cccccccccccccccccccccccccccccccccccccccccccccccccccccccccccccccccccccccccccccccccccccccccccsccccccccscccccccscccccccscccccccccccccccccccccccccccccccccccccccccccccccccccccccccccccccccc" />
    <path
       style="display:inline;fill:none;stroke:#ffaaaa;stroke-width:1px;stroke-linecap:round;stroke-linejoin:miter;stroke-opacity:1"
       d="m 77.746769,52.999204 c 0,0 -2.890955,-4.566558 -4.507542,-6.728679 -1.350769,-1.806599 -2.769423,-3.571505 -4.327393,-5.202796 -1.634864,-1.711803 -3.373708,-3.33765 -5.245132,-4.78707 -2.211465,-1.712784 -4.565113,-3.259058 -7.027352,-4.586305 -3.004226,-1.619401 -6.177255,-2.928855 -9.387838,-4.086436 -2.264247,-0.816378 -4.584178,-1.496357 -6.936498,-2.006141 -2.725146,-0.590582 -8.277072,-1.211169 -8.277072,-1.211169"
       id="path3"
       sodipodi:nodetypes="caaaaaac" />
  </g>
  <g
     inkscape:groupmode="layer"
     id="layer1"
     inkscape:label="pearl"
     transform="translate(7.6625381,29.597166)">
    <ellipse
       style="display:inline;fill:url(#radialGradient81);stroke:#000000;stroke-width:1.49273;stroke-linecap:round;stroke-linejoin:round;stroke-dasharray:none;stroke-opacity:1;paint-order:stroke markers fill"
       id="path5"
       cx="69.038361"
       cy="20.365875"
       rx="5.6734695"
       ry="5.529079"
       inkscape:transform-center-x="-0.22792476"
       inkscape:transform-center-y="0.22019403" />
    <ellipse
       style="display:inline;fill:#ffe6d5;stroke:none;stroke-width:1.37152;stroke-linecap:round;stroke-linejoin:round;stroke-dasharray:none;stroke-opacity:1;paint-order:stroke markers fill"
       id="path81"
       cx="66.900635"
       cy="23.430187"
       rx="0.56424016"
       ry="0.56424177" />
    <circle
       style="display:inline;fill:#ffe6d5;stroke:none;stroke-width:2.43073;stroke-linecap:round;stroke-linejoin:round;stroke-dasharray:none;stroke-opacity:1;paint-order:stroke markers fill"
       id="ellipse81"
       cx="69.176857"
       cy="23.981638"
       r="1" />
  </g>
  <g
     inkscape:groupmode="layer"
     id="g101"
     inkscape:label="pearl copy 4"
     transform="translate(2.3112373,21.933029)">
    <ellipse
       style="display:inline;fill:url(#radialGradient101);stroke:#000000;stroke-width:1.49273;stroke-linecap:round;stroke-linejoin:round;stroke-dasharray:none;stroke-opacity:1;paint-order:stroke markers fill"
       id="ellipse100"
       cx="69.038361"
       cy="20.365875"
       rx="5.6734695"
       ry="5.529079"
       inkscape:transform-center-x="-0.22792476"
       inkscape:transform-center-y="0.22019403" />
    <ellipse
       style="display:inline;fill:#ffe6d5;stroke:none;stroke-width:1.37152;stroke-linecap:round;stroke-linejoin:round;stroke-dasharray:none;stroke-opacity:1;paint-order:stroke markers fill"
       id="ellipse101"
       cx="66.900635"
       cy="23.430187"
       rx="0.56424016"
       ry="0.56424177" />
    <circle
       style="display:inline;fill:#ffe6d5;stroke:none;stroke-width:2.43073;stroke-linecap:round;stroke-linejoin:round;stroke-dasharray:none;stroke-opacity:1;paint-order:stroke markers fill"
       id="circle101"
       cx="69.176857"
       cy="23.981638"
       r="1" />
  </g>
  <g
     inkscape:groupmode="layer"
     id="g99"
     inkscape:label="pearl copy 3"
     transform="translate(-4.3894849,15.189654)">
    <ellipse
       style="display:inline;fill:url(#radialGradient102);stroke:#000000;stroke-width:1.49273;stroke-linecap:round;stroke-linejoin:round;stroke-dasharray:none;stroke-opacity:1;paint-order:stroke markers fill"
       id="ellipse98"
       cx="69.038361"
       cy="20.365875"
       rx="5.6734695"
       ry="5.529079"
       inkscape:transform-center-x="-0.22792476"
       inkscape:transform-center-y="0.22019403" />
    <ellipse
       style="display:inline;fill:#ffe6d5;stroke:none;stroke-width:1.37152;stroke-linecap:round;stroke-linejoin:round;stroke-dasharray:none;stroke-opacity:1;paint-order:stroke markers fill"
       id="ellipse99"
       cx="66.900635"
       cy="23.430187"
       rx="0.56424016"
       ry="0.56424177" />
    <circle
       style="display:inline;fill:#ffe6d5;stroke:none;stroke-width:2.43073;stroke-linecap:round;stroke-linejoin:round;stroke-dasharray:none;stroke-opacity:1;paint-order:stroke markers fill"
       id="circle99"
       cx="69.176857"
       cy="23.981638"
       r="1" />
  </g>
  <g
     inkscape:groupmode="layer"
     id="g97"
     inkscape:label="pearl copy 2"
     transform="translate(-12.419901,9.7205258)">
    <ellipse
       style="display:inline;fill:url(#radialGradient103);stroke:#000000;stroke-width:1.49273;stroke-linecap:round;stroke-linejoin:round;stroke-dasharray:none;stroke-opacity:1;paint-order:stroke markers fill"
       id="ellipse96"
       cx="69.038361"
       cy="20.365875"
       rx="5.6734695"
       ry="5.529079"
       inkscape:transform-center-x="-0.22792476"
       inkscape:transform-center-y="0.22019403" />
    <ellipse
       style="display:inline;fill:#ffe6d5;stroke:none;stroke-width:1.37152;stroke-linecap:round;stroke-linejoin:round;stroke-dasharray:none;stroke-opacity:1;paint-order:stroke markers fill"
       id="ellipse97"
       cx="66.900635"
       cy="23.430187"
       rx="0.56424016"
       ry="0.56424177" />
    <circle
       style="display:inline;fill:#ffe6d5;stroke:none;stroke-width:2.43073;stroke-linecap:round;stroke-linejoin:round;stroke-dasharray:none;stroke-opacity:1;paint-order:stroke markers fill"
       id="circle97"
       cx="69.176857"
       cy="23.981638"
       r="1" />
  </g>
  <g
     id="g95"
     inkscape:label="pearl copy 1"
     transform="translate(-22.846207,6.0483152)">
    <ellipse
       style="display:inline;fill:url(#radialGradient104);stroke:#000000;stroke-width:1.49273;stroke-linecap:round;stroke-linejoin:round;stroke-dasharray:none;stroke-opacity:1;paint-order:stroke markers fill"
       id="ellipse94"
       cx="69.038361"
       cy="20.365875"
       rx="5.6734695"
       ry="5.529079"
       inkscape:transform-center-x="-0.22792476"
       inkscape:transform-center-y="0.22019403" />
    <ellipse
       style="display:inline;fill:#ffe6d5;stroke:none;stroke-width:1.37152;stroke-linecap:round;stroke-linejoin:round;stroke-dasharray:none;stroke-opacity:1;paint-order:stroke markers fill"
       id="ellipse95"
       cx="66.900635"
       cy="23.430187"
       rx="0.56424016"
       ry="0.56424177" />
    <circle
       style="display:inline;fill:#ffe6d5;stroke:none;stroke-width:2.43073;stroke-linecap:round;stroke-linejoin:round;stroke-dasharray:none;stroke-opacity:1;paint-order:stroke markers fill"
       id="circle95"
       cx="69.176857"
       cy="23.981638"
       r="1" />
  </g>
  <g
     inkscape:groupmode="layer"
     id="g93"
     inkscape:label="pearl copy"
     transform="translate(-33.280218,3.1280341)">
    <ellipse
       style="display:inline;fill:url(#radialGradient105);stroke:#000000;stroke-width:1.49273;stroke-linecap:round;stroke-linejoin:round;stroke-dasharray:none;stroke-opacity:1;paint-order:stroke markers fill"
       id="ellipse92"
       cx="69.038361"
       cy="20.365875"
       rx="5.6734695"
       ry="5.529079"
       inkscape:transform-center-x="-0.22792476"
       inkscape:transform-center-y="0.22019403" />
    <ellipse
       style="display:inline;fill:#ffe6d5;stroke:none;stroke-width:1.37152;stroke-linecap:round;stroke-linejoin:round;stroke-dasharray:none;stroke-opacity:1;paint-order:stroke markers fill"
       id="ellipse93"
       cx="66.900635"
       cy="23.430187"
       rx="0.56424016"
       ry="0.56424177" />
    <circle
       style="display:inline;fill:#ffe6d5;stroke:none;stroke-width:2.43073;stroke-linecap:round;stroke-linejoin:round;stroke-dasharray:none;stroke-opacity:1;paint-order:stroke markers fill"
       id="circle93"
       cx="69.176857"
       cy="23.981638"
       r="1" />
  </g>
</svg>
