<svg xmlns="http://www.w3.org/2000/svg" xmlns:xlink="http://www.w3.org/1999/xlink" viewBox="0 0 100 100">
    <defs>
        <linearGradient id="innoGrad8">
            <stop offset="0" stop-color="#faa"/>
            <stop offset="1" stop-color="#f55"/>
        </linearGradient>
        <linearGradient id="innoGrad6">
            <stop offset="0" stop-color="#ff7f2a"/>
            <stop offset="1" stop-color="#ffb380"/>
        </linearGradient>
        <linearGradient id="innoGrad5">
            <stop offset="0" stop-color="#ffe6d5"/>
            <stop offset="1" stop-color="#fca"/>
        </linearGradient>
        <linearGradient id="innoGrad3">
            <stop offset="0" stop-color="#ffd5d5"/>
            <stop offset="1" stop-color="#ff8080"/>
        </linearGradient>
        <linearGradient id="innoGrad0">
            <stop offset="0" stop-color="#ffd5d5"/>
            <stop offset="1" stop-color="#faa"/>
        </linearGradient>
        <linearGradient id="linearGradient36677" x1="13.842" x2="20.092" y1="19.724" y2="29.992" gradientUnits="userSpaceOnUse" xlink:href="#innoGrad8"/>
        <linearGradient id="linearGradient178931" x1="13.842" x2="20.092" y1="19.724" y2="29.992" gradientUnits="userSpaceOnUse" xlink:href="#innoGrad8"/>
        <linearGradient id="linearGradient37477-3" x1="71.658" x2="70.733" y1="34.547" y2="38.296" gradientTransform="matrix(.905 0 0 1 40.954 -7.293)" gradientUnits="userSpaceOnUse" xlink:href="#innoGrad5"/>
    </defs>
    <g>
        <g transform="translate(-31.107 12.675)">
            <path fill="#ffb380" stroke="#000" stroke-linejoin="round" stroke-width=".617" d="M50.81 31.49c-2.709 1.06-5.154 3.788-3.408 6.076 2.519 2.725 7.424 2.676 11.282 2.167 20.095-.895 40.173-2.069 60.294-2.575 2.762 1.795 6.415-2.739 2.305-3.072-3.818-.573-7.71.21-11.544-.247-19.658-.542-39.28-1.634-58.928-2.348z" color="#000"/>
            <path fill="url(#linearGradient37477-3)" stroke="#000" stroke-linejoin="round" stroke-width=".631" d="M59.595 20.6a32.545 32.545 0 00-2.99.131 4.617 4.617 0 00-.163.02c-3.724.492-5.938 2.674-7.574 5.205-1.636 2.53-2.702 5.719-3.09 9.328-.014.136-.014.27 0 .406.388 3.61 1.454 6.797 3.09 9.328 1.636 2.531 3.85 4.713 7.574 5.205.055.008.108.013.163.018 3.565.345 8.824-.023 15.652-.674 6.828-.651 15.634-2.417 23.506-3.6 9.48-.893 15.703-4.024 28.883-7.019.134.013.404.023.404.023 2.449 0 4.434-1.59 4.433-3.552.001-1.962-1.984-3.553-4.433-3.553a5.362 5.362 0 00-.113.006c-10.175-1.816-20.302-5.443-30.477-7.1-7.871-1.183-15.375-2.714-22.203-3.365-3.414-.326-6.435-.58-9.049-.71a68.525 68.525 0 00-3.613-.097zm-.018 5.207c2.555.021 6.86.248 11.776.717 6.613.63 14.57 1.619 22.28 2.777 7.712 1.16 15.196 2.493 20.815 3.788 2.548.587 4.685 1.167 6.25 1.685a2.87 2.87 0 00-.084.645c.004.259.044.517.118.77-1.568.52-3.719 1.105-6.284 1.696-5.619 1.295-13.103 2.629-20.814 3.788-7.711 1.158-15.668 2.146-22.281 2.777-6.555.625-12.02.82-13.705.67-.07-.028-1.317-.589-2.434-2.317-1.117-1.728-2.04-4.324-2.393-7.316.353-2.992 1.276-5.59 2.393-7.318 1.117-1.728 2.365-2.287 2.434-2.315.42-.037 1.078-.054 1.93-.047z"/>
            <path fill="#fff" d="M122.977 32.491c-.965-.142-2.033-.113-2.033-.113s.86.652 1.932.806c2.076.303 3.95.318 4.525 1.661.37.82.462 1.997.462 1.997s.682-1.054.182-2.272c-.757-1.767-3.048-1.784-5.068-2.079z"/>
            <ellipse cx="125.464" cy="35.575" fill="#ffb380" fill-rule="evenodd" stroke="#000" stroke-width=".6" rx="1.364" ry="1.307"/>
        </g>
        <path style="mix-blend-mode:normal" fill="url(#linearGradient36677)" stroke="#000" stroke-linejoin="round" stroke-width=".346" d="M21.311 44.235c-2.454.55-5.58-5.904-7.889-6.901-2.309-.997-9.15 1.155-10.432-1.01-1.282-2.164 3.89-7.13 4.125-9.635.235-2.504-3.925-8.345-2.263-10.233s7.983 1.497 10.438.946c2.454-.55 6.724-6.313 9.033-5.316 2.31.998 1.044 8.056 2.326 10.22 1.282 2.164 8.081 4.444 7.847 6.949-.235 2.504-7.34 3.482-9.001 5.37-1.662 1.888-1.73 9.059-4.184 9.61z" transform="matrix(.86495 1.6102 -1.59918 .87091 57.608 -7.192)"/>
    </g>
</svg>
