<svg xmlns="http://www.w3.org/2000/svg" xmlns:xlink="http://www.w3.org/1999/xlink" cursor="default" viewBox="0 0 256 256">
    <defs>
        <linearGradient id="linearGradient19">
            <stop offset="0" stop-color="#faa"/>
            <stop offset="1" stop-color="#f55"/>
        </linearGradient>
        <linearGradient id="linearGradient18">
            <stop offset="0" stop-color="#e3dbb6"/>
            <stop offset="1" stop-color="#faf8ef"/>
        </linearGradient>
        <linearGradient id="linearGradient12">
            <stop offset="0" stop-color="#deaa87"/>
            <stop offset="1" stop-color="#efd7c7"/>
        </linearGradient>
        <linearGradient id="linearGradient13" x1="148.752" x2="111.322" y1="172.63" y2="156.819" gradientTransform="translate(-10.326 -1.29)" gradientUnits="userSpaceOnUse" xlink:href="#linearGradient12"/>
        <radialGradient id="radialGradient19" cx="206.456" cy="66.157" r="64.722" fx="206.456" fy="66.157" gradientTransform="matrix(.99008 .1405 -.12067 .8504 -11.396 6.253)" gradientUnits="userSpaceOnUse" xlink:href="#linearGradient18"/>
        <linearGradient id="linearGradient21" x1="81.024" x2="152.326" y1="130.307" y2="161.284" gradientUnits="userSpaceOnUse" xlink:href="#linearGradient19"/>
    </defs>
    <g stroke-width=".389">
        <path fill="#ff8080" stroke="#000" stroke-linecap="round" stroke-linejoin="round" d="M97.5 123.5h72.348v11.785H97.5z" transform="matrix(2.394 .3636 -.33613 2.71238 -142.488 -269.117)"/>
    </g>
    <g stroke-width=".389">
        <path fill="#ff8080" stroke="#000" stroke-linecap="round" stroke-linejoin="round" d="M97.5 123.5h72.348v11.785H97.5z" transform="matrix(2.394 .3636 -.33613 2.71238 -138.781 -271.462)"/>
        <path fill="none" stroke="#f55" stroke-width="1.05" d="M169.424 133.212H99.526l-.23-9.243" transform="matrix(2.394 .3636 -.33613 2.71238 -138.781 -271.462)"/>
        <path fill="none" stroke="#ffd5d5" stroke-width="1.05" d="M100.803 125.788h66.872l.228 8.018" transform="matrix(2.394 .3636 -.33613 2.71238 -138.781 -271.462)"/>
    </g>
    <path fill="url(#linearGradient13)" stroke="#000" stroke-linejoin="round" stroke-width="3.5" d="M101.475 93.17c-6.439 46.468-4.912 74.718-11.408 145.112 62.409-73.806 69.547-84.164 98.566-128.229-29.847 15.258-74.787 8.291-87.158-16.884z"/>
    <path fill="#faf8ef" stroke="#000" stroke-width="2.1" d="M99.193 106.859c10.421 17.536-2.84 42.546 8.214 41.982 10.123-.581-4.547-23.039 5.02-43.807-3.185-3.113-10.646-1.798-13.234 1.825z"/>
    <path fill="url(#radialGradient19)" stroke="#000" stroke-linecap="round" stroke-linejoin="round" stroke-width="6.2" d="M151.784 23.659a56.813 48.599 8.077 00-55.678 40.765 56.813 48.599 8.077 00-.404 5.018 10.496 11.636 0 00-.16-.002 10.496 11.636 0 00-10.494 11.636 10.496 11.636 0 005.937 10.483 16.656 16.656 0 00-.006.469 16.656 16.656 0 0016.656 16.656 16.656 16.656 0 002.973-.268 16.2 16.656 0 00-.006.496 16.2 16.656 0 0016.2 16.657 16.2 16.656 0 0012.615-6.207 56.813 48.599 8.077 00.753.175 12.777 12.093 0 0012.413 9.225 12.777 12.093 0 0010.492-5.19 12.093 13.234 0 008.902 4.278 12.093 13.234 0 008.746-4.094 13.69 15.059 0 0010.192 5.006 13.69 15.059 0 0013.69-15.059 13.69 15.059 0 00-5.472-12.043 56.813 48.599 8.077 009.471-21.271 56.813 48.599 8.077 00-49.42-56.1 56.813 48.599 8.077 00-7.4-.63z" paint-order="markers stroke fill"/>
    <path fill="#e9e0b9" d="M198.445 100.242c-32.675 7.482-74.507-6.808-91.722-26.467-.851.64-.644 2.346 0 3.195 19.477 25.665 60.038 36.717 93.09 26.01.65-.787-.584-2.085-1.368-2.738z"/>
    <path fill="url(#linearGradient21)" stroke="#000" stroke-linecap="round" stroke-linejoin="round" stroke-width="2.1" d="M88.77 239.181c-.371-.582-.408-1.3-.187-3.63 1.6-16.818 3.177-38.952 4.991-70.02 1.638-28.04 2.068-34.232 3.287-47.249l.858-9.173-.765-.507c-4.414-2.923-7.58-7.656-8.607-12.87-.441-2.238-.672-2.778-1.418-3.309-.49-.348-1.48-1.517-2.202-2.597-4.205-6.298-3.308-14.974 2.06-19.922 1.427-1.315 4.278-2.95 5.145-2.95.678 0 .745-.183 1.29-3.573 1.567-9.734 6.075-18.462 13.247-25.648 8.925-8.94 20.093-14.387 33.796-16.483 4.973-.76 14.284-.757 19.285.008 21.664 3.311 39.404 15.548 47.767 32.951 3.239 6.74 4.616 12.798 4.622 20.328.007 9.09-2.451 17.427-7.289 24.732-1.414 2.135-1.418 2.147-.817 2.904.874 1.1 2.184 3.7 2.9 5.754.926 2.656 1.114 6.788.445 9.796-2.686 12.073-15.368 17.848-24.984 11.377l-1.559-1.05-1.528.876c-.978.56-1.943 1.499-2.678 2.607-11.654 17.543-24.927 35.303-42.651 57.07-10.473 12.86-42.067 50.586-42.759 51.057-.689.47-1.794.234-2.249-.479zm12.6-17.02c37.324-44.488 50.364-60.99 66.086-83.634 2.749-3.96 5.001-7.308 5.005-7.441.004-.133-.65-.242-1.455-.242-1.713 0-4.855-.994-6.574-2.078l-1.209-.764-1.68 1.127c-2.378 1.593-4.93 2.411-8.112 2.6-5.013.297-8.785-1.186-12.44-4.89l-2.275-2.306-1.85 1.194c-2.655 1.712-5.361 2.563-8.804 2.767-6.667.395-12.067-2.07-16.41-7.492l-1.55-1.936.186 5.486c.108 3.208.53 7.828 1.013 11.129 1.052 7.173 1.074 9.703.102 11.631-.955 1.894-2.385 2.65-4.692 2.479-1.943-.144-3.129-.874-4.101-2.525-.577-.98-.645-1.674-.644-6.58 0-3.018.131-8.25.29-11.628.297-6.306.035-10.316-.907-13.866-.372-1.4-.454-1.505-.624-.805-.485 1.997-2.012 22.155-3.116 41.141-2.124 36.524-3.031 50.283-4.37 66.244-.436 5.2-.793 9.77-.793 10.156 0 .697.004.697.604.065.332-.35 4.076-4.775 8.32-9.833zm7.918-75.214c1.15-1.353 1.083-3.257-.538-15.135-.616-4.514-.903-11.564-.584-14.36.142-1.241.129-2.993-.03-3.893l-.288-1.634-2.596-.378c-1.428-.209-2.64-.334-2.696-.279-.055.055.295 1.542.777 3.304.876 3.203.876 3.205.763 12.722-.228 19.347-.252 18.176.388 19.151.321.49.902 1.023 1.29 1.185 1.02.426 2.877.065 3.514-.683zm45.236-18.354c2.57-.421 5.556-1.896 7.209-3.56l1.365-1.375 1.339 1.21c2.218 2.004 4.527 2.89 7.554 2.901 2.27.008 2.847-.118 4.682-1.021 1.152-.567 2.516-1.472 3.032-2.01l.939-.98 1.57 1.468c6.537 6.116 16.612 3.954 20.715-4.445 2.788-5.707 2.059-12.117-1.967-17.302-.764-.984-1.389-1.9-1.389-2.035 0-.136.779-1.332 1.73-2.659 3.437-4.789 6.178-11.481 7.165-17.485.83-5.061.5-12.41-.779-17.285-5.525-21.063-25.356-36.895-50.055-39.96-4.021-.498-12.347-.415-16.513.166-23.82 3.323-41.937 19.394-44.945 39.87-.277 1.887-.504 3.884-.504 4.438 0 .948-.07 1.007-1.21 1.01-1.397.004-3.981 1.126-5.452 2.368-.558.471-1.454 1.547-1.99 2.39-3.248 5.103-2.399 11.78 2.012 15.81 1.653 1.512 1.75 1.69 2.084 3.84.836 5.39 3.3 9.315 7.599 12.108 2.679 1.741 5.43 2.524 8.865 2.524h2.804l.38 2.613c1.077 7.382 6.675 13.083 13.953 14.207 4.487.692 9.232-.829 12.88-4.13 1.044-.945 2.031-1.719 2.192-1.719.162 0 .63.812 1.041 1.805 1.424 3.433 4.98 6.229 9.051 7.113 2.27.493 2.377.496 4.643.125z" paint-order="markers stroke fill"/>
</svg>
