<svg xmlns="http://www.w3.org/2000/svg" xmlns:xlink="http://www.w3.org/1999/xlink" cursor="default" viewBox="0 0 256 256">
    <defs>
        <linearGradient id="innoGrad4">
            <stop offset="0" stop-color="#ff8080"/>
            <stop offset="1" stop-color="#ffb380"/>
        </linearGradient>
        <linearGradient id="innoGrad3">
            <stop offset="0" stop-color="#fff6d5"/>
            <stop offset="1" stop-color="#fd5"/>
        </linearGradient>
        <radialGradient id="radialGradient42526" cx="-183.14" cy="-197.538" r="18.909" fx="-183.14" fy="-197.538" gradientTransform="matrix(.62423 -.03911 .04302 .6866 33.632 141.826)" gradientUnits="userSpaceOnUse" spreadMethod="reflect" xlink:href="#innoGrad3"/>
        <linearGradient id="linearGradient2086" x1="64.592" x2="224.948" y1="110.266" y2="110.266" gradientUnits="userSpaceOnUse" xlink:href="#innoGrad4"/>
        <radialGradient id="radialGradient3200" cx="-183.14" cy="-197.538" r="18.909" fx="-183.14" fy="-197.538" gradientTransform="matrix(.62423 -.03911 .04302 .6866 285.533 142.366)" gradientUnits="userSpaceOnUse" spreadMethod="reflect" xlink:href="#innoGrad3"/>
        <linearGradient id="linearGradient3202" x1="64.592" x2="224.948" y1="110.266" y2="110.266" gradientUnits="userSpaceOnUse" xlink:href="#innoGrad4"/>
    </defs>
    <g stroke="#000">
        <g>
            <path fill="url(#linearGradient2086)" fill-rule="evenodd" stroke-width=".98" d="M80.025 154.202l1-26.133c4.661-9.325 16.16-21.095 28.734-32.208l-1.618 17.937 11.356-26.263c12.861-10.675 25.32-19.877 31.453-24.423l-4.41 19.198 8.562-21.026c11.704-8.06 47.059-19.545 69.175-50.17 3.184 33.989-36.817 81.337-43.55 99.444l-31.78 11.955 31.205-8.766c-2.762 9.902-6.64 19.029-11.602 27.602l-28.646 10.756 23.702-2.908c-6.36 9.313-14.086 18.01-23.14 26.408l-31.237 9.217 28.624-5.866c-21.681 19.265-42.13 31.866-68.065 31.297 0 0-.987-.892-1.877-1.486-7.277-37.248.654-64.688 10.818-77.258.27 2.28 1.167 21.225 1.296 22.693z" transform="scale(.78084 -.78084) rotate(-40.3 -289.518 .384)"/>
            <g stroke-width=".2" opacity=".156">
                <path stroke-width=".156168" d="M92.265 65.138l.263.334c-2.192 1.723-5.444 4.293-8.644 7.078-3.307 2.88-6.503 5.934-9.491 9.346a76.562 76.562 0 00-7.717 10.488c-2.175 3.54-3.872 6.904-5.027 9.37 1.156-2.469 2.802-5.849 4.913-9.439 2.15-3.654 4.57-7.177 7.508-10.696 2.923-3.502 6.064-6.647 9.338-9.606 3.175-2.87 6.384-5.473 8.593-7.21l.263.335zM88.556 87.489l.29.31c-3.012 2.811-9.753 8.925-15.632 15.495-6.619 7.396-11.086 14.08-14.162 19.528 3.123-5.53 7.312-12.158 13.841-19.808 5.778-6.77 12.32-12.99 15.372-15.837l.29.312zM90.983 75.643l.283.319c-4 3.547-8.34 7.352-12.528 11.387-3.762 3.625-6.1 6.22-7.314 7.674 1.23-1.474 3.373-4.168 7.013-7.975 3.809-3.983 8.499-8.384 12.265-11.724l.282.318zM85.974 104.018l.29.311c-1.955 1.825-3.531 3.217-6.313 5.71-2.435 2.183-4.997 4.509-7.448 7.059a73.349 73.349 0 00-6.965 8.394c-2.168 3.038-3.983 6.036-5.316 8.398 1.34-2.374 3.095-5.374 5.207-8.474a77.979 77.979 0 016.763-8.609c2.39-2.64 4.884-5.047 7.273-7.297.917-.863 6.082-5.676 6.219-5.803l.29.31zM84.04 119.637l.291.311c-1.589 1.482-3.716 3.43-5.594 5.17-1.918 1.777-3.5 3.27-4.911 4.717a68.84 68.84 0 00-3.883 4.342 168.567 168.567 0 00-3.498 4.395c.96-1.248 2.204-2.917 3.394-4.478 1.212-1.59 2.334-3.021 3.674-4.548 1.35-1.538 2.853-3.099 4.728-4.947 1.788-1.764 3.93-3.801 5.51-5.273l.29.31zM81.367 133.476l.224.251c-3.854 3.441-7.883 7.793-11.541 13.807-2.968 4.88-5.196 10.256-5.726 11.502.48-1.13 2.648-6.795 5.436-11.672 3.482-6.091 7.53-10.699 11.383-14.139l.224.251zM82.526 145.282l.22.254c-2.972 2.581-6.281 6.27-9.9 12.45-2.85 4.864-5.86 11.473-6.548 12.954.57-1.23 3.66-8.406 6.255-13.12 3.44-6.248 6.756-10.19 9.752-12.792l.221.254zM84.081 157.222l.236.24c-1.18 1.164-2.64 2.621-3.91 4.124a27.222 27.222 0 00-2.484 3.415c-.725 1.18-1.38 2.438-2.071 3.806-.91 1.802-1.909 3.806-2.645 5.252.874-1.716 1.579-3.239 2.525-5.31.634-1.385 1.233-2.694 1.9-3.917a25.623 25.623 0 012.355-3.586c1.225-1.572 2.676-3.098 3.858-4.264l.236.24zM85.348 172.315l.26.213c-1.355 1.647-2.972 3.639-4.353 5.611a38.982 38.982 0 00-2.645 4.325c-.763 1.447-1.49 3.022-2.282 4.73a280.54 280.54 0 01-3.235 6.775 134.387 134.387 0 003.114-6.83c.73-1.71 1.407-3.356 2.102-4.825a36.287 36.287 0 012.499-4.477c1.323-2.03 2.929-4.094 4.28-5.736l.26.214zM87.357 185.475l.257.217c-1.533 1.819-3.234 4.113-4.534 6.872-.967 2.05-1.564 4.035-1.97 6.1-.388 1.978-.592 4.015-.8 5.752-.313 2.605-.6 4.15-1.027 5.744.415-1.55.672-3.195.894-5.757.15-1.732.281-3.796.602-5.798.337-2.1.877-4.142 1.81-6.265 1.25-2.846 2.958-5.24 4.51-7.081l.257.217zM89.766 204.546l.293.165c-1.228 2.184-2.762 5.007-3.743 7.737-.76 2.114-1.184 4.112-1.342 6.472-.156 2.33-.045 4.937.131 7.948.358 6.11.426 6.389.688 12.049-.2-4.332-.446-7.264-.82-12.04-.234-2.997-.418-5.626-.334-7.974.087-2.395.448-4.447 1.167-6.63.927-2.813 2.434-5.699 3.668-7.892l.293.165z"/>
                <path stroke-width=".156168" d="M92.14 65.745l.283-.318c2.395 2.125 7.541 6.788 11.786 11.817 4.821 5.712 7.646 10.769 9.684 15.05-2.01-4.223-5.081-9.297-10.005-14.77-4.338-4.823-9.675-9.371-12.03-11.46l.283-.319zM89.114 87.464l.333-.266c1.606 2.015 3.347 4.085 6.164 7.238 2.454 2.745 5.79 6.365 8.576 9.688 3.03 3.612 5.638 7.111 7.94 10.904a68.608 68.608 0 014.886 9.71 61.947 61.947 0 00-5-9.64c-2.364-3.738-5.05-7.172-8.148-10.697-2.842-3.23-6.282-6.793-8.785-9.481-2.83-3.04-4.73-5.224-6.299-7.19l.333-.266zM90.505 77.28l.27-.329c2.823 2.318 7.267 6.3 11.52 10.908 4.342 4.702 6.488 7.872 7.658 9.78-1.131-1.845-3.531-5.02-7.965-9.487-4.496-4.529-8.845-8.155-11.753-10.543l.27-.33zM86.15 102.685l.332-.266c1.648 2.067 4.524 5.171 7.194 8.252 2.343 2.704 5.24 5.978 7.781 9.171 2.704 3.398 5.034 6.72 7.142 10.384 2.093 3.635 3.57 6.923 4.646 9.552a69.543 69.543 0 00-4.76-9.485c-2.175-3.612-4.582-6.87-7.357-10.182-2.602-3.105-5.594-6.316-7.99-8.964-2.653-2.931-5.743-6.217-7.322-8.197l.333-.266zM83.863 117.77l.332-.266c.955 1.196 5.375 6.256 7.704 9.204 2.74 3.47 6.069 7.703 9.175 11.776 2.745 3.6 5.165 6.873 7.236 9.826 2.794 3.983 4.352 6.526 5.35 8.263-.98-1.706-2.634-4.276-5.487-8.165-2.128-2.901-4.624-6.13-7.436-9.663-3.195-4.014-6.59-8.16-9.4-11.588-2.988-3.648-6.253-7.174-7.808-9.123l.333-.265zM83.39 134.122l.26-.215a535.857 535.857 0 015.123 6.265c1.838 2.287 3.482 4.391 4.882 6.321a64.75 64.75 0 013.412 5.16 80.277 80.277 0 012.152 3.916 50.772 50.772 0 00-2.241-3.862c-.99-1.546-2.114-3.12-3.591-5.012-1.458-1.865-3.173-3.925-5.053-6.163-2.08-2.477-3.562-4.222-5.203-6.196l.259-.215zM83.293 146.467l.256-.218c1.278 1.5 3.314 4.083 6.092 8.076a211.262 211.262 0 016.55 10.037c2.222 3.624 4.157 7.026 5.685 9.97 2.063 3.973 3.015 6.394 3.493 7.867-.474-1.46-1.486-3.888-3.61-7.805-1.577-2.909-3.575-6.278-5.853-9.854a213.616 213.616 0 00-6.705-9.903c-2.85-3.956-4.884-6.45-6.164-7.951l.256-.218zM84.128 158.79l.268-.203c.74.978 2.441 3.254 4.268 5.762 1.938 2.662 4.347 6.037 6.678 9.532 2.041 3.06 3.856 5.964 5.366 8.644 2.039 3.618 3.088 6.06 3.698 7.74-.605-1.664-1.716-4.117-3.813-7.674-1.558-2.643-3.432-5.51-5.528-8.52-2.403-3.45-4.863-6.753-6.856-9.382-1.511-1.994-2.838-3.702-4.348-5.695l.268-.203zM85.7 172.735l.286-.176a322.061 322.061 0 003.814 6.051c1.438 2.239 3.06 4.729 4.468 7.104 1.487 2.507 2.74 4.881 3.914 7.498 1.16 2.59 2.033 4.959 2.696 6.857a68.614 68.614 0 00-2.792-6.813c-1.229-2.583-2.551-4.916-4.105-7.366-1.46-2.302-3.177-4.78-4.655-6.967-1.623-2.4-2.84-4.268-3.912-6.011l.286-.177zM87.815 186.439l.285-.18c2.587 4.105 5.54 9.747 7.806 16.61 2.098 6.35 2.887 11.584 3.251 14.02-.363-2.43-1.322-7.654-3.57-13.912-2.455-6.839-5.454-12.23-8.057-16.36l.285-.179zM89.863 205.394l.312-.127c.619 1.517 2.623 6.33 3.311 8.166.787 2.096 1.377 4.004 1.67 6.133.295 2.141.278 4.408.03 7.205-.314 3.534-1.041 8.12-1.572 11.47.535-3.378 1.2-7.92 1.44-11.48.188-2.8.132-5.044-.23-7.144-.359-2.077-1.007-3.935-1.84-5.988-.984-2.423-2.448-5.685-3.431-8.107l.311-.127z"/>
            </g>
            <path fill="#4d4d4d" fill-rule="evenodd" stroke-width=".8511156000000001" d="M90.375 213.951c-2.192-24.327-9.13-53.144-9.11-79.38.026-37.258 14.154-61.47 13.172-123.12 3.284 60.1-9.78 87.168-10.962 123.844-.818 25.376 6.966 56.644 6.892 78.65z"/>
        </g>
        <ellipse cx="-93.785" cy="18.36" fill="url(#radialGradient42526)" stroke-linejoin="round" stroke-width=".86" rx="14.335" ry="13.572" transform="scale(-1 1)"/>
        <rect width="3.622" height="15.153" x="-95.679" y="29.957" fill="#ffd42a" stroke-linejoin="round" stroke-width=".571" ry="1.811" transform="scale(-1 1)"/>
    </g>
    <g stroke="#000">
        <g>
            <path fill="url(#linearGradient3202)" fill-rule="evenodd" stroke-width=".98" d="M80.025 154.202l1-26.133c4.661-9.325 16.16-21.095 28.734-32.208l-1.618 17.937 11.356-26.263c12.861-10.675 25.32-19.877 31.453-24.423l-4.41 19.198 8.562-21.026c11.704-8.06 47.059-19.545 69.175-50.17 3.184 33.989-36.817 81.337-43.55 99.444l-31.78 11.955 31.205-8.766c-2.762 9.902-6.64 19.029-11.602 27.602l-28.646 10.756 23.702-2.908c-6.36 9.313-14.086 18.01-23.14 26.408l-31.237 9.217 28.624-5.866c-21.681 19.265-42.13 31.866-68.065 31.297 0 0-.987-.892-1.877-1.486-7.277-37.248.654-64.688 10.818-77.258.27 2.28 1.167 21.225 1.296 22.693z" transform="scale(-.78084) rotate(-40.3 -451.761 439.624)"/>
            <g stroke-width=".2" opacity=".156">
                <path stroke-width=".156168" d="M159.637 65.678l-.263.335c2.192 1.722 5.444 4.292 8.643 7.078 3.308 2.88 6.503 5.934 9.492 9.346a76.562 76.562 0 017.717 10.488c2.175 3.54 3.872 6.903 5.026 9.369-1.156-2.469-2.801-5.849-4.912-9.438-2.15-3.654-4.57-7.178-7.508-10.696-2.923-3.502-6.065-6.648-9.338-9.607-3.176-2.87-6.384-5.473-8.593-7.21l-.264.336zM163.346 88.029l-.29.311c3.012 2.81 9.753 8.924 15.632 15.494 6.618 7.396 11.086 14.08 14.161 19.529-3.122-5.531-7.311-12.159-13.84-19.809-5.778-6.77-12.32-12.99-15.373-15.836l-.29.311zM160.918 76.184l-.282.318c3.999 3.547 8.339 7.352 12.528 11.388 3.762 3.624 6.1 6.219 7.313 7.673-1.229-1.474-3.373-4.167-7.012-7.974-3.81-3.984-8.5-8.384-12.265-11.725l-.283.319zM165.927 104.558l-.29.312c1.956 1.824 3.532 3.216 6.314 5.71 2.434 2.182 4.996 4.508 7.448 7.058a73.349 73.349 0 016.965 8.394c2.168 3.038 3.982 6.037 5.316 8.398-1.34-2.374-3.095-5.373-5.207-8.474a77.979 77.979 0 00-6.763-8.608c-2.39-2.641-4.884-5.048-7.273-7.297-.917-.864-6.082-5.677-6.219-5.804l-.29.311zM167.861 120.177l-.29.312c1.589 1.482 3.715 3.429 5.594 5.17 1.918 1.777 3.499 3.27 4.91 4.716a68.84 68.84 0 013.884 4.342 168.567 168.567 0 013.498 4.396c-.96-1.249-2.204-2.917-3.394-4.479-1.212-1.59-2.335-3.02-3.675-4.548-1.35-1.538-2.852-3.098-4.727-4.947a298.135 298.135 0 00-5.51-5.273l-.29.311zM170.534 134.017l-.224.25c3.855 3.441 7.884 7.793 11.542 13.808 2.967 4.88 5.196 10.255 5.726 11.501-.481-1.13-2.648-6.795-5.436-11.672-3.482-6.09-7.53-10.699-11.384-14.138l-.224.25zM169.376 145.822l-.22.254c2.971 2.582 6.28 6.27 9.9 12.45 2.849 4.865 5.86 11.473 6.548 12.954-.571-1.229-3.66-8.406-6.255-13.12-3.44-6.248-6.757-10.19-9.753-12.792l-.22.254zM167.82 157.762l-.236.24c1.182 1.164 2.64 2.622 3.911 4.125a27.222 27.222 0 012.483 3.414c.726 1.18 1.381 2.439 2.072 3.807.91 1.802 1.908 3.805 2.645 5.251-.874-1.716-1.579-3.239-2.525-5.309-.634-1.386-1.234-2.694-1.9-3.917a25.623 25.623 0 00-2.356-3.587c-1.224-1.572-2.676-3.098-3.857-4.263l-.236.24zM166.554 172.855l-.26.214c1.355 1.646 2.972 3.638 4.352 5.61a38.982 38.982 0 012.646 4.325c.762 1.447 1.489 3.022 2.281 4.73a280.54 280.54 0 003.235 6.775 134.387 134.387 0 01-3.113-6.83c-.73-1.71-1.408-3.355-2.102-4.825a36.287 36.287 0 00-2.5-4.477c-1.323-2.03-2.928-4.093-4.28-5.736l-.259.214zM164.545 186.016l-.258.216c1.533 1.82 3.235 4.113 4.535 6.872.967 2.051 1.563 4.035 1.97 6.1.388 1.978.591 4.015.8 5.753.313 2.604.6 4.15 1.026 5.744-.415-1.55-.671-3.196-.894-5.758-.15-1.732-.28-3.795-.602-5.797-.336-2.1-.876-4.143-1.808-6.266-1.251-2.846-2.96-5.24-4.512-7.08l-.257.216zM162.135 205.086l-.293.165c1.23 2.184 2.763 5.007 3.744 7.738.76 2.114 1.183 4.111 1.341 6.472.156 2.329.046 4.936-.13 7.947-.358 6.11-.426 6.39-.689 12.05.2-4.333.446-7.265.82-12.04.235-2.998.419-5.626.334-7.975-.086-2.395-.447-4.447-1.167-6.63-.927-2.812-2.433-5.698-3.668-7.892l-.293.165z"/>
                <path stroke-width=".156168" d="M159.761 66.285l-.283-.318c-2.395 2.125-7.54 6.788-11.785 11.817-4.822 5.713-7.647 10.77-9.684 15.05 2.01-4.222 5.081-9.297 10.004-14.77 4.339-4.822 9.676-9.37 12.03-11.46l-.282-.318zM162.788 88.004l-.333-.265c-1.607 2.014-3.347 4.085-6.164 7.237-2.454 2.746-5.79 6.365-8.577 9.688-3.03 3.612-5.638 7.112-7.939 10.904a68.608 68.608 0 00-4.887 9.71 61.947 61.947 0 015-9.64c2.365-3.738 5.05-7.172 8.149-10.696 2.841-3.232 6.282-6.794 8.784-9.482 2.83-3.04 4.731-5.224 6.3-7.19l-.333-.266zM161.397 77.82l-.27-.329c-2.823 2.318-7.268 6.3-11.521 10.908-4.341 4.703-6.487 7.872-7.657 9.78 1.131-1.844 3.531-5.02 7.965-9.486 4.496-4.53 8.845-8.155 11.753-10.544l-.27-.329zM165.753 103.225l-.333-.265c-1.649 2.067-4.524 5.17-7.194 8.251-2.344 2.705-5.241 5.979-7.782 9.171-2.704 3.398-5.033 6.72-7.142 10.384-2.092 3.635-3.569 6.923-4.645 9.552a69.543 69.543 0 014.76-9.484c2.175-3.613 4.582-6.87 7.357-10.182 2.602-3.105 5.594-6.317 7.99-8.964 2.653-2.932 5.743-6.218 7.322-8.198l-.333-.265zM168.04 118.31l-.334-.265c-.954 1.196-5.374 6.255-7.703 9.203-2.74 3.47-6.07 7.704-9.175 11.776-2.745 3.6-5.165 6.874-7.237 9.827-2.793 3.982-4.352 6.526-5.348 8.263.979-1.706 2.632-4.277 5.485-8.166 2.129-2.9 4.624-6.13 7.437-9.663 3.194-4.014 6.59-8.159 9.399-11.588 2.989-3.648 6.254-7.173 7.809-9.122l-.333-.266zM168.511 134.662l-.258-.215a535.857 535.857 0 00-5.124 6.265c-1.838 2.288-3.482 4.391-4.883 6.321a64.75 64.75 0 00-3.411 5.16 80.277 80.277 0 00-2.152 3.916 50.772 50.772 0 012.241-3.861c.99-1.547 2.113-3.121 3.591-5.012 1.458-1.866 3.172-3.926 5.052-6.164 2.082-2.476 3.563-4.221 5.203-6.196l-.258-.215zM168.609 147.008l-.256-.219c-1.278 1.5-3.314 4.083-6.092 8.076a211.262 211.262 0 00-6.55 10.038c-2.222 3.623-4.157 7.025-5.685 9.969-2.063 3.974-3.015 6.394-3.494 7.867.474-1.459 1.487-3.888 3.61-7.805 1.578-2.908 3.575-6.278 5.854-9.853 2.275-3.57 4.59-6.969 6.705-9.904 2.85-3.955 4.884-6.45 6.163-7.95l-.256-.22zM167.773 159.33l-.268-.202c-.74.977-2.44 3.253-4.267 5.762-1.938 2.662-4.348 6.036-6.679 9.531-2.04 3.06-3.856 5.964-5.366 8.644-2.038 3.618-3.087 6.061-3.697 7.74.604-1.664 1.715-4.117 3.812-7.674 1.558-2.642 3.433-5.51 5.529-8.52 2.403-3.45 4.863-6.752 6.856-9.382 1.51-1.993 2.837-3.702 4.348-5.695l-.268-.203zM166.202 173.275l-.287-.176a322.061 322.061 0 01-3.813 6.052c-1.439 2.238-3.06 4.728-4.468 7.103-1.487 2.507-2.741 4.881-3.914 7.498-1.16 2.59-2.034 4.96-2.696 6.858a68.614 68.614 0 012.791-6.814c1.23-2.583 2.552-4.916 4.105-7.366 1.46-2.302 3.178-4.78 4.656-6.966 1.623-2.4 2.84-4.268 3.912-6.012l-.287-.176zM164.086 186.98l-.284-.18c-2.587 4.104-5.54 9.747-7.807 16.608-2.097 6.35-2.886 11.585-3.25 14.022.363-2.43 1.322-7.655 3.57-13.913 2.455-6.838 5.454-12.23 8.056-16.359l-.284-.18zM162.038 205.935l-.311-.127c-.619 1.517-2.623 6.33-3.312 8.165-.786 2.096-1.376 4.004-1.67 6.133-.294 2.141-.277 4.409-.029 7.206.314 3.533 1.041 8.119 1.571 11.47-.535-3.379-1.2-7.92-1.439-11.48-.188-2.801-.133-5.045.23-7.144.359-2.078 1.006-3.936 1.84-5.989.984-2.422 2.447-5.685 3.43-8.107l-.31-.127z"/>
            </g>
            <path fill="#4d4d4d" fill-rule="evenodd" stroke-width=".8511156000000001" d="M161.527 214.492c2.192-24.327 9.129-53.144 9.11-79.38-.027-37.259-14.155-61.47-13.173-123.121-3.283 60.1 9.78 87.169 10.963 123.844.818 25.377-6.966 56.645-6.892 78.651z"/>
        </g>
        <ellipse cx="158.116" cy="18.901" fill="url(#radialGradient3200)" stroke-linejoin="round" stroke-width=".86" rx="14.335" ry="13.572"/>
        <rect width="3.622" height="15.153" x="156.223" y="30.497" fill="#ffd42a" stroke-linejoin="round" stroke-width=".571" ry="1.811"/>
    </g>
</svg>
