<?xml version="1.0" encoding="UTF-8" standalone="no"?>
<!-- Created with Inkscape (http://www.inkscape.org/) -->

<svg
   version="1.1"
   id="svg1"
   viewBox="0 0 256 256"
   sodipodi:docname="Bandages.svg"
   inkscape:version="1.3.1 (9b9bdc1480, 2023-11-25, custom)"
   xmlns:inkscape="http://www.inkscape.org/namespaces/inkscape"
   xmlns:sodipodi="http://sodipodi.sourceforge.net/DTD/sodipodi-0.dtd"
   xmlns="http://www.w3.org/2000/svg"
   xmlns:svg="http://www.w3.org/2000/svg">
  <defs
     id="defs1" />
  <sodipodi:namedview
     id="namedview1"
     pagecolor="#ffffff"
     bordercolor="#000000"
     borderopacity="0.25"
     inkscape:showpageshadow="2"
     inkscape:pageopacity="0.0"
     inkscape:pagecheckerboard="0"
     inkscape:deskcolor="#d1d1d1"
     inkscape:zoom="0.73952369"
     inkscape:cx="136.57439"
     inkscape:cy="113.58663"
     inkscape:window-width="1854"
     inkscape:window-height="1010"
     inkscape:window-x="0"
     inkscape:window-y="0"
     inkscape:window-maximized="1"
     inkscape:current-layer="layer3" />
  <path
     style="display:inline;fill:#606060;fill-opacity:0.963646;stroke:#000000;stroke-width:1px;stroke-linecap:butt;stroke-linejoin:miter;stroke-opacity:1"
     d="m 176.79911,13.460302 c -21.60808,-6.880996 -33.83334,-7.8915655 -47.03607,3.381784 5.87106,21.813709 1.20993,57.856908 7.88839,87.557984 -4.62892,17.16255 0.0326,59.09298 -3.38912,88.37306 -0.77062,6.59425 -4.78348,9.5645 -3.84638,19.54246 -2.69329,8.04408 -2.93109,22.15044 -0.80368,32.85279 4.4417,7.60751 16.81088,6.57385 21.48644,-1.67011 0.76089,-7.53147 -1.83303,-19.28087 -2.1991,-28.95261 -0.17292,-4.56854 -0.29874,-9.15352 0.002,-13.71542 9.96519,-37.59998 20.74561,-92.8395 14.61365,-110.47978 2.32824,-26.554609 10.03271,-60.766749 13.28387,-76.890158 z"
     id="leg_back"
     sodipodi:nodetypes="ccccccccccc" />
  <g
     inkscape:groupmode="layer"
     id="layer3"
     inkscape:label="Ribbon">
    <path
       style="fill:#ff8080;stroke:#000000;stroke-width:1px;stroke-linecap:round;stroke-linejoin:round;stroke-opacity:1"
       d="m 175.64488,22.229305 c -0.35908,3.466938 -1.09025,7.271505 -2.61491,10.57317 -11.83457,-7.025285 -33.92175,-1.295062 -33.92175,-1.295062 l -1.90253,-11.729908 c 0,0 24.17744,-9.590191 38.43919,2.4518 z"
       id="path7"
       sodipodi:nodetypes="ccccc" />
    <path
       style="fill:#ff8080;stroke:#000000;stroke-width:1px;stroke-linecap:round;stroke-linejoin:round;stroke-opacity:1"
       d="m 165.37594,104.42809 c -7.69589,10.74475 -15.47339,16.62066 -30.31299,25.0217 -0.18062,5.19948 -0.38761,8.25462 -0.38699,11.1824 15.65052,-6.44306 27.25584,-13.79239 30.85844,-21.51175 0.0589,-5.96432 -0.1416,-5.75274 -0.15846,-14.69235 z"
       id="path10"
       sodipodi:nodetypes="ccccc" />
    <path
       style="fill:#ff8080;stroke:#000000;stroke-width:1px;stroke-linecap:round;stroke-linejoin:round;stroke-opacity:1"
       d="m 137.98376,105.29425 c 7.48159,10.86204 13.73753,16.94128 26.1387,22.91862 -0.46211,6.31449 -1.21178,5.84246 -1.66104,11.75321 -7.94277,-4.87674 -18.61418,-10.4927 -26.64071,-21.10163 0.76936,-4.99502 1.28167,-10.5573 2.16305,-13.5702 z"
       id="path11"
       sodipodi:nodetypes="ccccc" />
    <path
       style="fill:#ff8080;stroke:#000000;stroke-width:1px;stroke-linecap:round;stroke-linejoin:round;stroke-opacity:1"
       d="m 135.36309,146.29475 c 8.16171,10.9262 10.79121,21.98898 19.77866,29.89363 -1.20356,5.26459 -1.33431,6.907 -3.12268,10.88152 -9.4601,-4.14979 -10.49461,-13.27757 -16.60411,-22.3319 0.0918,-6.5799 -0.6256,-12.98891 -0.0519,-18.44325 z"
       id="path12"
       sodipodi:nodetypes="cccccc" />
    <path
       style="fill:#ff8080;stroke:#000000;stroke-width:1px;stroke-linecap:round;stroke-linejoin:round;stroke-opacity:1"
       d="m 160.30067,149.55863 c -0.58693,3.98231 -1.08997,7.53262 -2.31174,12.69299 -3.35835,7.99957 -11.47662,15.18517 -22.695,21.62126 0.12754,-4.47447 0.58155,-8.9254 0.12968,-13.30162 10.99717,-4.46835 18.728,-14.64333 24.87706,-21.01263 z"
       id="path13"
       sodipodi:nodetypes="ccccc" />
    <path
       style="fill:#ff8080;stroke:#000000;stroke-width:1px;stroke-linecap:round;stroke-linejoin:round;stroke-opacity:1"
       d="m 135.09048,183.42102 c 5.67572,5.53392 12.54651,5.78828 17.37469,3.80622 -0.0789,4.16316 -0.883,5.86174 -2.17803,9.07178 -4.64801,2.71778 -11.04253,1.25653 -15.53729,-4.41658 -0.0857,-2.28617 -0.10531,-4.53246 0.34063,-8.46142 z"
       id="path14"
       sodipodi:nodetypes="ccccc" />
    <path
       style="fill:#ff8080;stroke:#000000;stroke-width:1px;stroke-linecap:round;stroke-linejoin:round;stroke-opacity:1"
       d="m 171.60581,38.297412 c -16.36987,6.733166 -35.40586,24.520879 -35.40586,24.520879 l -0.7164,14.729818 c 0,0 20.79489,-22.742329 33.42436,-25.258789 0.42688,-4.301733 2.5095,-8.629772 2.6979,-13.991908 z"
       id="path8"
       sodipodi:nodetypes="ccccc" />
    <path
       style="fill:#ff8080;stroke:#000000;stroke-width:1px;stroke-linecap:round;stroke-linejoin:round;stroke-opacity:1"
       d="m 133.93374,38.370032 c 0,0 22.06668,14.663062 33.07855,27.765162 0.0686,5.056251 -0.74641,6.526511 -1.74404,11.05673 C 152.99739,61.982486 130.39552,49.785828 130.39552,49.785828 Z"
       id="path9"
       sodipodi:nodetypes="ccccc" />
    <path
       style="fill:#ff8080;stroke:#000000;stroke-width:1px;stroke-linecap:round;stroke-linejoin:round;stroke-opacity:1"
       d="m 173.64033,32.061287 c 0,0 8.28667,20.902851 8.88446,33.250877 -2.95725,1.135962 -2.90808,6.80023 -5.53355,6.045352 -2.68507,-7.058466 -2.85179,-15.558035 -2.85179,-15.558035 l -0.95559,-18.711255 z"
       id="path16"
       sodipodi:nodetypes="cccccc" />
    <path
       style="fill:#ff8080;stroke:#000000;stroke-width:1px;stroke-linecap:round;stroke-linejoin:round;stroke-opacity:1"
       d="m 173.17118,33.370182 c 0,0 -0.10324,45.994746 10.48557,55.062903 -2.48406,-0.442829 -5.09911,-0.425759 -7.09432,4.104777 -15.89704,-8.191427 -5.07131,-53.409928 -5.07131,-53.409928 z"
       id="path15"
       sodipodi:nodetypes="ccccc" />
  </g>
  <path
     style="display:inline;fill:#606060;fill-opacity:0.994013;stroke:#000000;stroke-width:1px;stroke-linecap:butt;stroke-linejoin:miter;stroke-opacity:1"
     d="M 92.020568,14.616906 C 100.4733,2.6543967 127.40195,0.29888811 135.78815,10.698796 c 4.15613,23.061846 8.69161,58.428976 -0.48579,84.83234 -1.12729,30.816364 -11.02325,60.781364 -11.72417,91.533964 -0.16287,7.14589 1.54329,14.22682 1.75243,21.37151 0.36734,12.54924 -0.83819,23.78221 -0.87703,37.65363 -4.62721,9.09294 -15.93602,8.33728 -21.19301,3.47796 -4.267314,-29.2359 -0.59538,-23.98578 3.03456,-36.00634 -1.91835,-7.54547 -2.47955,-14.37891 0.91697,-21.57447 C 108.19787,153.99872 92.422724,120.3866 108.28476,77.988077 105.65435,56.338961 98.686993,31.143813 92.020568,14.616906 Z"
     id="leg_front"
     sodipodi:nodetypes="ccccccccccc" />
  <g
     inkscape:groupmode="layer"
     id="layer1"
     inkscape:label="Bandage">
    <path
       style="fill:#ff8080;stroke:#000000;stroke-width:1px;stroke-linecap:butt;stroke-linejoin:miter;stroke-opacity:1"
       d="m 100.25348,116.86048 c -0.1815,17.46782 5.54956,32.76284 6.06495,59.51752 4.57864,15.07324 14.28063,11.28469 18.14643,3.10365 1.09533,-15.7406 2.99146,-23.87365 8.31386,-57.27723 -8.51978,0.043 -23.68387,-2.22786 -32.52524,-5.34394 z"
       id="path5"
       sodipodi:nodetypes="ccccc" />
    <path
       style="fill:#ff8080;stroke:#000000;stroke-width:1px;stroke-linecap:round;stroke-linejoin:round;stroke-opacity:1"
       d="m 101.36861,104.80902 c 9.95579,12.05791 22.94815,15.57302 33.58292,4.11751 -1.60309,8.23173 -1.26928,10.08061 -2.2766,13.34712 -8.46285,9.69858 -24.48627,5.49717 -32.37176,-6.20803 0.696,-3.90897 0.5606,-6.55063 1.06544,-11.2566 z"
       id="path3"
       sodipodi:nodetypes="ccccc" />
    <path
       style="fill:#ff8080;stroke:#000000;stroke-width:1;stroke-linecap:round;stroke-linejoin:round;stroke-opacity:1;stroke-dasharray:none"
       d="m 106.23203,176.09401 c 4.85802,7.72635 13.18657,10.28642 18.37589,2.94608 -0.56596,5.45831 -0.6208,5.76136 -0.28698,7.62951 -4.12951,6.21457 -13.8526,5.07092 -17.70038,-2.42941 -0.40926,-3.73308 -0.63487,-5.13073 -0.38853,-8.14618 z"
       id="path4"
       sodipodi:nodetypes="ccccc" />
    <path
       style="fill:none;stroke:#000000;stroke-width:0.5;stroke-linecap:round;stroke-linejoin:round;stroke-dasharray:none;stroke-opacity:1"
       d="m 101.65113,118.35034 c 0,0 8.27494,16.42746 28.7698,17.36486 -10.0308,9.76357 -19.68381,5.08373 -28.27875,-0.73481 7.03921,13.78856 20.16626,11.3061 26.31795,14.17537 -7.15817,9.07205 -17.42175,5.09474 -24.54739,-0.21094 6.07173,14.54384 19.70588,9.44397 22.36302,11.76794 -4.28513,6.66178 -14.25314,4.48676 -20.42706,-0.5262 4.22768,10.2758 12.09673,7.92584 18.88704,10.55184 -6.65237,4.3041 -9.54711,4.98599 -18.17813,0.15792 4.93954,8.63541 17.22254,8.8787 17.22254,8.8787"
       id="path6"
       sodipodi:nodetypes="cccccccccc" />
  </g>
</svg>
