<svg xmlns="http://www.w3.org/2000/svg" viewBox="0 0 256 256">
    <path fill="#606060" fill-opacity=".964" stroke="#000" d="M176.8 13.46c-21.609-6.88-33.834-7.891-47.037 3.382 5.871 21.814 1.21 57.857 7.888 87.558-4.628 17.163.033 59.093-3.389 88.373-.77 6.594-4.783 9.565-3.846 19.543-2.693 8.044-2.931 22.15-.804 32.852 4.442 7.608 16.811 6.574 21.487-1.67.76-7.531-1.833-19.28-2.2-28.952-.172-4.569-.298-9.154.003-13.716 9.965-37.6 20.745-92.84 14.613-110.48 2.328-26.554 10.033-60.766 13.284-76.89z"/>
    <g fill="#ff8080" stroke="#000" stroke-linecap="round" stroke-linejoin="round">
        <path d="M175.645 22.23c-.36 3.466-1.09 7.27-2.615 10.572-11.835-7.025-33.922-1.295-33.922-1.295l-1.902-11.73s24.177-9.59 38.439 2.452zM165.376 104.428c-7.696 10.745-15.473 16.62-30.313 25.022-.18 5.2-.388 8.254-.387 11.182 15.65-6.443 27.256-13.792 30.858-21.512.06-5.964-.141-5.752-.158-14.692z"/>
        <path d="M137.984 105.294c7.481 10.862 13.737 16.942 26.138 22.919-.462 6.314-1.211 5.842-1.66 11.753-7.943-4.877-18.615-10.493-26.641-21.102.77-4.995 1.281-10.557 2.163-13.57zM135.363 146.295c8.162 10.926 10.791 21.989 19.779 29.893-1.204 5.265-1.335 6.907-3.123 10.882-9.46-4.15-10.495-13.278-16.604-22.332.092-6.58-.626-12.989-.052-18.443z"/>
        <path d="M160.3 149.559c-.586 3.982-1.09 7.532-2.311 12.693-3.358 8-11.477 15.185-22.695 21.62.127-4.474.581-8.925.13-13.3 10.997-4.47 18.728-14.644 24.877-21.013z"/>
        <path d="M135.09 183.421c5.676 5.534 12.547 5.788 17.375 3.806-.079 4.163-.883 5.862-2.178 9.072-4.648 2.718-11.042 1.257-15.537-4.417-.086-2.286-.105-4.532.34-8.461zM171.606 38.297c-16.37 6.734-35.406 24.521-35.406 24.521l-.716 14.73s20.794-22.742 33.424-25.259c.427-4.301 2.51-8.63 2.698-13.992z"/>
        <path d="M133.934 38.37S156 53.033 167.012 66.135c.069 5.056-.746 6.527-1.744 11.057-12.27-15.21-34.872-27.406-34.872-27.406zM173.64 32.061s8.287 20.903 8.885 33.251c-2.957 1.136-2.908 6.8-5.534 6.046-2.685-7.059-2.852-15.559-2.852-15.559l-.955-18.71z"/>
        <path d="M173.171 33.37s-.103 45.995 10.486 55.063c-2.484-.443-5.1-.426-7.095 4.105-15.897-8.192-5.07-53.41-5.07-53.41z"/>
    </g>
    <path fill="#606060" fill-opacity=".994" stroke="#000" d="M92.02 14.617c8.453-11.963 35.382-14.318 43.768-3.918 4.156 23.062 8.692 58.429-.486 84.832-1.127 30.816-11.023 60.782-11.724 91.534-.163 7.146 1.543 14.227 1.753 21.372.367 12.549-.839 23.782-.877 37.653-4.628 9.093-15.936 8.338-21.193 3.478-4.268-29.236-.596-23.986 3.034-36.006-1.918-7.546-2.48-14.38.917-21.575.986-37.988-14.79-71.6 1.073-113.999-2.63-21.649-9.598-46.844-16.264-63.371z"/>
    <g stroke="#000">
        <path fill="#ff8080" d="M100.253 116.86c-.181 17.468 5.55 32.763 6.065 59.518 4.58 15.073 14.281 11.285 18.147 3.104 1.095-15.741 2.991-23.874 8.314-57.278-8.52.043-23.684-2.227-32.526-5.344z"/>
        <path fill="#ff8080" stroke-linecap="round" stroke-linejoin="round" d="M101.369 104.809c9.955 12.058 22.948 15.573 33.583 4.118-1.604 8.231-1.27 10.08-2.277 13.347-8.463 9.698-24.486 5.497-32.372-6.208.696-3.91.56-6.551 1.066-11.257zM106.232 176.094c4.858 7.726 13.187 10.286 18.376 2.946-.566 5.458-.62 5.761-.287 7.63-4.13 6.214-13.853 5.07-17.7-2.43-.41-3.733-.635-5.13-.389-8.146z"/>
        <path fill="none" stroke-linecap="round" stroke-linejoin="round" stroke-width=".5" d="M101.651 118.35s8.275 16.428 28.77 17.365c-10.03 9.764-19.684 5.084-28.279-.735 7.04 13.789 20.166 11.306 26.318 14.176-7.158 9.072-17.422 5.094-24.547-.211 6.071 14.544 19.706 9.444 22.363 11.768-4.285 6.662-14.253 4.487-20.427-.526 4.227 10.275 12.096 7.925 18.887 10.551-6.653 4.305-9.547 4.986-18.178.158 4.94 8.636 17.222 8.879 17.222 8.879"/>
    </g>
</svg>
