<?xml version="1.0" encoding="UTF-8" standalone="no"?>
<svg
   cursor="default"
   version="1.1"
   viewBox="0 0 256 256"
   id="svg5"
   sodipodi:docname="pentagram_miniskirt.svg"
   inkscape:version="1.4.1-rc (d9e8dc1fe0, 2025-03-10)"
   xmlns:inkscape="http://www.inkscape.org/namespaces/inkscape"
   xmlns:sodipodi="http://sodipodi.sourceforge.net/DTD/sodipodi-0.dtd"
   xmlns="http://www.w3.org/2000/svg"
   xmlns:svg="http://www.w3.org/2000/svg">
  <sodipodi:namedview
     id="namedview5"
     pagecolor="#ffffff"
     bordercolor="#666666"
     borderopacity="1.0"
     inkscape:showpageshadow="2"
     inkscape:pageopacity="0.0"
     inkscape:pagecheckerboard="0"
     inkscape:deskcolor="#d1d1d1"
     inkscape:zoom="2.1489417"
     inkscape:cx="117.4997"
     inkscape:cy="120.98979"
     inkscape:window-width="1854"
     inkscape:window-height="1010"
     inkscape:window-x="0"
     inkscape:window-y="0"
     inkscape:window-maximized="1"
     inkscape:current-layer="svg5" />
  <defs
     id="defs2">
    <linearGradient
       id="linearGradient1"
       x1="103.93"
       x2="99.643"
       y1="873.43"
       y2="1058.1"
       gradientTransform="matrix(1.2155,0,0,1.2155,-25.258,-955.28)"
       gradientUnits="userSpaceOnUse">
      <stop
         stop-color="#ff8080"
         offset="0"
         id="stop1" />
      <stop
         stop-color="#f55"
         offset="1"
         id="stop2" />
    </linearGradient>
  </defs>
  <g
     stroke="#000000"
     stroke-width="0.75"
     id="g5"
     style="display:inline">
    <path
       id="path2"
       d="m 229.61719,228.29883 -58.51172,-37.1211 -47.58399,39.08594 c 10.59808,-11.06254 19.44054,-14.16042 25.2252,-13.87659 30.9883,0.57934 60.33528,-3.37707 80.87051,11.91175 z"
       style="fill:#ff5555;stroke-width:1;stroke-dasharray:none"
       sodipodi:nodetypes="ccccc" />
    <path
       id="path12"
       d="M 46.263672,58.658203 C 16.332672,137.5102 20.622641,159.41805 16.181641,223.49805 c 23.823748,10.78039 57.403849,5.5401 109.643179,6.76562 l 45.28065,-39.08594 52.25979,38.4373 c 6.33444,-0.94415 17.10748,-3.28881 19.04685,-4.27519 -1.739,-48.807 -0.61119,-11.19772 -4.11719,-74.13672 -1.879,-33.722 -9.91053,-52.148526 -19.51953,-90.394526 z"
       style="fill:#ff8080;stroke-width:1;stroke-dasharray:none"
       sodipodi:nodetypes="ccccccccc" />
    <path
       id="path6"
       style="display:none;fill:#ffaaaa;stroke:#000000;stroke-width:1.09537;stroke-linecap:round;stroke-linejoin:round;stroke-dasharray:none"
       inkscape:transform-center-x="0.25141144"
       inkscape:transform-center-y="-8.2185981"
       d="M 66.669958,-69.266541 47.119314,12.371918 -36.224218,22.410468 35.377857,66.231505 19.168542,148.59784 82.97078,94.042056 156.29863,134.9088 124.12803,57.372329 159.35145,24.679038 C 157.99518,16.826074 156.42337,9.6097745 154.64573,2.7209895 l -52.6749,4.1753596 z"
       transform="matrix(0.75252749,0.06813801,-0.06814182,0.75248544,119.66181,115.93868)" />
    <path
       id="path7"
       style="baseline-shift:baseline;display:inline;overflow:visible;opacity:1;fill:#ffccaa;stroke:none;stroke-width:2;stroke-dasharray:none;enable-background:accumulate;stop-color:#000000;stop-opacity:1"
       d="m 172.19141,60.228516 -20.87305,64.980464 -74.144532,0.32618 60.238282,42.96484 -17.53906,54.60352 -0.51078,5.98355 c 5.41881,0.0276 1.70503,-0.0548 7.63382,0.11478 l 0.002,-0.32905 0.52343,-0.1521 47.43555,-33.4414 49.89709,33.78469 c 2.76887,-0.38845 4.9603,-1.30649 7.42235,-1.73334 L 212.58789,168.75 237.112,150.64844 c -0.21089,-3.63543 -0.49484,-6.92789 -0.84375,-10.25345 l -26.69403,19.46634 -8.76563,-25.86914 34.8527,0.66441 c -0.42115,-3.0819 -0.73558,-6.72446 -1.26907,-9.65224 l -36.62855,-4.5e-4 -21.93555,-64.730472 z m 1.99023,23.230468 14.0918,41.587896 -27.48828,0.12109 z m 17.13867,50.574216 10.58399,31.23633 -26.91797,18.97656 -26.99414,-19.2539 9.89648,-30.8125 z m -42.89843,0.18946 -8.1211,25.2832 -35.18164,-25.0918 z m -3.31836,39.76367 22.08789,15.75586 -35.09766,24.74414 z m 59.8125,0.17187 14.04882,41.45703 -36.21289,-25.83007 z"
       sodipodi:nodetypes="cccccccccccccccccccccccccccccccccccccccccccc" />
    <path
       style="display:inline;fill:none;stroke:#000000;stroke-width:1px;stroke-linecap:butt;stroke-linejoin:miter;stroke-opacity:1"
       d="M 126.51928,230.00514 238.23136,150.37532"
       id="path13"
       sodipodi:nodetypes="cc" />
    <path
       d="m 48.652,44.53 c -1.43,6.823 -2.205,9.2 -2.822,14.741 14.613,6.187 114.63,-0.431 173.31,3.16 1.13,-1.799 -3.428,-13.017 -4.518,-18.041 -5.42,-2.153 -165.05,-2.024 -165.97,0.14 z"
       fill="#ffaaaa"
       fill-rule="evenodd"
       id="path5"
       style="display:inline;stroke-width:1;stroke-dasharray:none" />
    <path
       style="fill:none;stroke:#000000;stroke-width:1px;stroke-linecap:butt;stroke-linejoin:miter;stroke-opacity:1"
       d="m 175.38304,195.78406 47.71208,33.23393"
       id="path14"
       sodipodi:nodetypes="cc" />
  </g>
</svg>
