<svg xmlns="http://www.w3.org/2000/svg" id="svg5" cursor="default" version="1.1" viewBox="0 0 256 256">
    <defs id="defs2">
        <linearGradient id="linearGradient1" x1="103.93" x2="99.643" y1="873.43" y2="1058.1" gradientTransform="translate(-25.258 -955.28) scale(1.2155)" gradientUnits="userSpaceOnUse">
            <stop id="stop1" offset="0" stop-color="#ff8080"/>
            <stop id="stop2" offset="1" stop-color="#f55"/>
        </linearGradient>
    </defs>
    <g id="g5" stroke="#000" stroke-width=".75" display="inline">
        <path id="path2" fill="#f55" stroke-dasharray="none" stroke-width="1" d="M229.617 228.299l-58.512-37.121-47.584 39.086c10.599-11.063 19.441-14.16 25.226-13.877 30.988.58 60.335-3.377 80.87 11.912z"/>
        <path id="path12" fill="#ff8080" stroke-dasharray="none" stroke-width="1" d="M46.264 58.658c-29.931 78.852-25.641 100.76-30.082 164.84 23.823 10.78 57.403 5.54 109.643 6.766l45.28-39.086 52.26 38.437c6.335-.944 17.108-3.289 19.047-4.275-1.739-48.807-.611-11.198-4.117-74.137-1.88-33.722-9.91-52.148-19.52-90.394z"/>
        <path id="path7" fill="#fca" stroke="none" stroke-dasharray="none" stroke-width="2" d="M172.191 60.229l-20.873 64.98-74.144.326 60.238 42.965-17.539 54.604-.51 5.983c5.418.028 1.704-.055 7.633.115l.002-.33.524-.151 47.435-33.442 49.897 33.785c2.769-.388 4.96-1.306 7.423-1.733l-19.69-58.581 24.525-18.102c-.21-3.635-.495-6.927-.844-10.253l-26.694 19.466-8.765-25.869 34.852.665c-.42-3.082-.735-6.725-1.269-9.653h-36.628l-21.936-64.73zm1.99 23.23l14.092 41.588-27.488.121zm17.14 50.574l10.583 31.237-26.918 18.976-26.994-19.254 9.897-30.812zm-42.9.19l-8.12 25.283-35.182-25.092zm-3.317 39.763l22.087 15.756-35.097 24.744zm59.812.172l14.049 41.457-36.213-25.83z" baseline-shift="baseline" display="inline" opacity="1" overflow="visible" stop-color="#000" stop-opacity="1"/>
        <path id="path13" fill="none" stroke="#000" stroke-linecap="butt" stroke-linejoin="miter" stroke-opacity="1" stroke-width="1" d="M126.52 230.005l111.711-79.63" display="inline"/>
        <path id="path5" fill="#faa" fill-rule="evenodd" stroke-dasharray="none" stroke-width="1" d="M48.652 44.53c-1.43 6.823-2.205 9.2-2.822 14.741 14.613 6.187 114.63-.431 173.31 3.16 1.13-1.799-3.428-13.017-4.518-18.041-5.42-2.153-165.05-2.024-165.97.14z" display="inline"/>
        <path id="path14" fill="none" stroke="#000" stroke-linecap="butt" stroke-linejoin="miter" stroke-opacity="1" stroke-width="1" d="M175.383 195.784l47.712 33.234"/>
    </g>
</svg>
