<svg xmlns="http://www.w3.org/2000/svg" cursor="default" viewBox="0 0 256 256">
    <g>
        <path fill="#e9c6af" d="M0 0h256v256H0z" paint-order="stroke markers fill"/>
        <path fill="none" stroke="#de8787" stroke-width="1.687" d="M63.888 35l-63.801.488M63.94 2.618L.137 3.106m34.448-3.1l.488 63.91M2.702.09l.488 63.958m60.687-13.165l-63.87.597M63.993 18.5l-63.79.597M50.762.239l.595 63.65M18.876.149l.598 63.913m44.44-49.321h-8.256V.224M.202 14.741H14.67V.034m31.883.2v14.507H23.774V.118m40.054 46.507h-8.17V23.847h8.182M.02 46.625h14.649V23.847H.128m23.646 0h22.778v22.778H23.774zm31.884 40.11V55.73h8.261m-49.25 8.316V55.73H.106m39.61-15.941h22.778v22.777H39.716zM23.774 63.91v-8.18h22.778v8.204M7.832 39.789H30.61v22.777H7.832zM39.716 7.905h22.778v22.778H39.716zm-31.884 0H30.61v22.778H7.832zM127.872 35l-63.801.488m63.854-32.87l-63.804.488m34.448-3.1l.488 63.91M66.686.09l.489 63.958m60.686-13.165l-63.869.597m63.984-32.98l-63.789.597M114.745.239l.595 63.65M82.86.149l.598 63.913M127.9 14.74h-8.257V.224M64.187 14.741h14.466V.034m31.883.2v14.507H87.76V.118m40.053 46.507h-8.17V23.847h8.182m-63.82 22.778h14.649V23.847H64.112m23.647 0h22.777v22.778H87.76zm31.883 40.11V55.73h8.261m-49.25 8.316V55.73H64.09M103.7 39.79h22.777v22.777H103.7zM87.758 63.91v-8.18h22.777v8.204m-38.72-24.145h22.779v22.777H71.817zM103.7 7.905h22.778v22.778H103.7zm-31.883 0h22.778v22.778H71.817zM191.857 35l-63.802.488m63.854-32.87l-63.804.488m34.448-3.1l.488 63.91M130.671.09l.488 63.958m60.687-13.165l-63.87.597m63.985-32.98l-63.79.597M178.73.239l.595 63.65M146.845.149l.597 63.913m44.441-49.321h-8.257V.224m-55.455 14.517h14.466V.034m31.884.2v14.507h-22.778V.118m40.054 46.507h-8.17V23.847h8.182m-63.821 22.778h14.649V23.847h-14.54m23.646 0h22.778v22.778h-22.778zm31.883 40.11V55.73h8.262m-49.251 8.316V55.73h-14.562m39.61-15.941h22.777v22.777h-22.777zM151.743 63.91v-8.18h22.778v8.204M135.8 39.789h22.778v22.777H135.8zm31.884-31.884h22.777v22.778h-22.777zm-31.884 0h22.778v22.778H135.8zM255.84 35l-63.802.488m63.854-32.87l-63.804.488m34.448-3.1l.489 63.91M194.654.09l.489 63.958m60.687-13.165l-63.87.597m63.985-32.98l-63.79.597M242.715.239l.595 63.65M210.829.149l.598 63.913m44.44-49.321h-8.256V.224m-55.456 14.517h14.466V.034m31.884.2v14.507h-22.778V.118m40.054 46.507h-8.17V23.847h8.182m-63.82 22.778h14.648V23.847h-14.54m23.646 0h22.778v22.778h-22.778zm31.884 40.11V55.73h8.26m-49.25 8.316V55.73H192.06m39.61-15.941h22.778v22.777h-22.778zM215.727 63.91v-8.18h22.778v8.204m-38.72-24.145h22.778v22.777h-22.778zM231.67 7.905h22.778v22.778h-22.778zm-31.884 0h22.778v22.778h-22.778zM63.888 99.055l-63.801.488m63.854-32.87l-63.804.488m34.448-3.1l.488 63.91M2.702 64.145l.488 63.959m60.687-13.166l-63.87.597m63.985-32.98l-63.79.597m50.559-18.858l.595 63.65m-32.48-63.74l.598 63.913m44.44-49.32h-8.256V64.278M.202 78.796H14.67V64.09m31.883.2v14.507H23.774V64.173m40.054 46.507h-8.17V87.902h8.182M.02 110.68h14.649V87.902H.128m23.646 0h22.778v22.778H23.774zm31.884 40.11v-8.226h8.261M14.67 128.1v-8.315H.106m39.61-15.942h22.778v22.778H39.716zm-15.942 24.121v-8.18h22.778v8.204m-38.72-24.145H30.61v22.778H7.832zM39.716 71.96h22.778v22.778H39.716zm-31.884 0H30.61v22.778H7.832zm120.04 27.096l-63.801.487m63.854-32.87l-63.804.488m34.448-3.1l.488 63.91M66.686 64.145l.489 63.959m60.686-13.166l-63.869.597m63.984-32.98l-63.789.597m50.558-18.858l.595 63.65m-32.48-63.74l.598 63.913m44.441-49.32h-8.257V64.278M64.187 78.796h14.466V64.09m31.883.2v14.507H87.76V64.173m40.053 46.507h-8.17V87.902h8.182m-63.82 22.778h14.649V87.902H64.112m23.647 0h22.777v22.778H87.76zm31.883 40.11v-8.226h8.261m-49.25 8.315v-8.315H64.09m39.61-15.942h22.777v22.778H103.7zm-15.942 24.121v-8.18h22.777v8.204m-38.72-24.145h22.779v22.778H71.817zM103.7 71.96h22.778v22.778H103.7zm-31.883 0h22.778v22.778H71.817zm120.04 27.096l-63.802.487m63.854-32.87l-63.804.488m34.448-3.1l.488 63.91m-32.37-63.826l.488 63.959m60.687-13.166l-63.87.597m63.985-32.98l-63.79.597m50.558-18.858l.595 63.65m-32.479-63.74l.597 63.913m44.441-49.32h-8.257V64.278m-55.455 14.517h14.466V64.09m31.884.2v14.507h-22.778V64.173m40.054 46.507h-8.17V87.902h8.182m-63.821 22.778h14.649V87.902h-14.54m23.646 0h22.778v22.778h-22.778zm31.883 40.11v-8.226h8.262m-49.251 8.315v-8.315h-14.562m39.61-15.942h22.777v22.778h-22.777zm-15.942 24.121v-8.18h22.778v8.204m-38.72-24.145h22.778v22.778H135.8zm31.884-31.884h22.777v22.778h-22.777zm-31.884 0h22.778v22.778H135.8zm120.04 27.096l-63.802.487m63.854-32.87l-63.804.488m34.448-3.1l.489 63.91m-32.372-63.826l.489 63.959m60.687-13.166l-63.87.597m63.985-32.98l-63.79.597m50.559-18.858l.595 63.65m-32.48-63.74l.598 63.913m44.44-49.32h-8.256V64.278m-55.456 14.517h14.466V64.09m31.884.2v14.507h-22.778V64.173m40.054 46.507h-8.17V87.902h8.182m-63.82 22.778h14.648V87.902h-14.54m23.646 0h22.778v22.778h-22.778zm31.884 40.11v-8.226h8.26m-49.25 8.315v-8.315H192.06m39.61-15.942h22.778v22.778h-22.778zm-15.942 24.121v-8.18h22.778v8.204m-38.72-24.145h22.778v22.778h-22.778zM231.67 71.96h22.778v22.778h-22.778zm-31.884 0h22.778v22.778h-22.778zM63.888 163.11l-63.801.488m63.854-32.87l-63.804.488m34.448-3.1l.488 63.91M2.702 128.2l.488 63.959m60.687-13.165l-63.87.597m63.985-32.98l-63.79.596m50.559-18.858l.595 63.65m-32.48-63.74l.598 63.913m44.44-49.32h-8.256v-14.517M.202 142.85H14.67v-14.707m31.883.2v14.507H23.774v-14.623m40.054 46.507h-8.17v-22.778h8.182M.02 174.735h14.649v-22.778H.128m23.646 0h22.778v22.778H23.774zm31.884 40.11v-8.226h8.261m-49.25 8.315v-8.315H.106m39.61-15.942h22.778v22.778H39.716zM23.774 192.02v-8.18h22.778v8.204M7.832 167.9H30.61v22.778H7.832zm31.884-31.884h22.778v22.778H39.716zm-31.884 0H30.61v22.778H7.832zm120.04 27.096l-63.801.487m63.854-32.87l-63.804.488m34.448-3.1l.488 63.91M66.686 128.2l.489 63.959m60.686-13.165l-63.869.597m63.984-32.98l-63.789.596m50.558-18.858l.595 63.65m-32.48-63.74l.598 63.913m44.441-49.32h-8.257v-14.517M64.187 142.85h14.466v-14.707m31.883.2v14.507H87.76v-14.623m40.053 46.507h-8.17v-22.778h8.182m-63.82 22.778h14.649v-22.778H64.112m23.647 0h22.777v22.778H87.76zm31.883 40.11v-8.226h8.261m-49.25 8.315v-8.315H64.09m39.61-15.942h22.777v22.778H103.7zM87.758 192.02v-8.18h22.777v8.204M71.816 167.9h22.779v22.778H71.817zm31.884-31.884h22.778v22.778H103.7zm-31.883 0h22.778v22.778H71.817zm120.04 27.096l-63.802.487m63.854-32.87l-63.804.488m34.448-3.1l.488 63.91m-32.37-63.826l.488 63.959m60.687-13.165l-63.87.597m63.985-32.98l-63.79.596m50.558-18.858l.595 63.65m-32.479-63.74l.597 63.913m44.441-49.32h-8.257v-14.517m-55.455 14.516h14.466v-14.707m31.884.2v14.507h-22.778v-14.623m40.054 46.507h-8.17v-22.778h8.182m-63.821 22.778h14.649v-22.778h-14.54m23.646 0h22.778v22.778h-22.778zm31.883 40.11v-8.226h8.262m-49.251 8.315v-8.315h-14.562m39.61-15.942h22.777v22.778h-22.777zm-15.942 24.121v-8.18h22.778v8.204M135.8 167.9h22.778v22.778H135.8zm31.884-31.884h22.777v22.778h-22.777zm-31.884 0h22.778v22.778H135.8zm120.04 27.096l-63.802.487m63.854-32.87l-63.804.488m34.448-3.1l.489 63.91M194.654 128.2l.489 63.959m60.687-13.165l-63.87.597m63.985-32.98l-63.79.596m50.559-18.858l.595 63.65m-32.48-63.74l.598 63.913m44.44-49.32h-8.256v-14.517m-55.456 14.516h14.466v-14.707m31.884.2v14.507h-22.778v-14.623m40.054 46.507h-8.17v-22.778h8.182m-63.82 22.778h14.648v-22.778h-14.54m23.646 0h22.778v22.778h-22.778zm31.884 40.11v-8.226h8.26m-49.25 8.315v-8.315H192.06m39.61-15.942h22.778v22.778h-22.778zm-15.942 24.121v-8.18h22.778v8.204m-38.72-24.145h22.778v22.778h-22.778zm31.884-31.884h22.778v22.778h-22.778zm-31.884 0h22.778v22.778h-22.778zM63.888 227.166l-63.801.488m63.854-32.87l-63.804.487m34.448-3.099l.488 63.91M2.702 192.256l.488 63.958m60.687-13.165l-63.87.597m63.985-32.98l-63.79.596m50.559-18.857l.595 63.65m-32.48-63.74l.598 63.912m44.44-49.32h-8.256V192.39M.202 206.907H14.67v-14.708m31.883.201v14.507H23.774v-14.624m40.054 46.507h-8.17v-22.778h8.182M.02 238.79h14.649v-22.778H.128m23.646 0h22.778v22.778H23.774zm31.884 40.11v-8.226h8.261m-49.25 8.316v-8.316H.106m39.61-15.942h22.778v22.778H39.716zm-15.942 24.122v-8.18h22.778v8.204m-38.72-24.146H30.61v22.778H7.832zm31.884-31.883h22.778v22.778H39.716zm-31.884 0H30.61v22.778H7.832zm120.04 27.095l-63.801.488m63.854-32.87l-63.804.487m34.448-3.099l.488 63.91m-32.371-63.826l.489 63.958m60.686-13.165l-63.869.597m63.984-32.98l-63.789.596m50.558-18.857l.595 63.65m-32.48-63.74l.598 63.912m44.441-49.32h-8.257V192.39m-55.455 14.517h14.466v-14.708m31.883.201v14.507H87.76v-14.624m40.053 46.507h-8.17v-22.778h8.182m-63.82 22.778h14.649v-22.778H64.112m23.647 0h22.777v22.778H87.76zm31.883 40.11v-8.226h8.261m-49.25 8.316v-8.316H64.09m39.61-15.942h22.777v22.778H103.7zm-15.942 24.122v-8.18h22.777v8.204m-38.72-24.146h22.779v22.778H71.817zm31.884-31.883h22.778v22.778H103.7zm-31.883 0h22.778v22.778H71.817zm120.04 27.095l-63.802.488m63.854-32.87l-63.804.487m34.448-3.099l.488 63.91m-32.37-63.826l.488 63.958m60.687-13.165l-63.87.597m63.985-32.98l-63.79.596m50.558-18.857l.595 63.65m-32.479-63.74l.597 63.912m44.441-49.32h-8.257V192.39m-55.455 14.517h14.466v-14.708m31.884.201v14.507h-22.778v-14.624m40.054 46.507h-8.17v-22.778h8.182m-63.821 22.778h14.649v-22.778h-14.54m23.646 0h22.778v22.778h-22.778zm31.883 40.11v-8.226h8.262m-49.251 8.316v-8.316h-14.562m39.61-15.942h22.777v22.778h-22.777zm-15.942 24.122v-8.18h22.778v8.204m-38.72-24.146h22.778v22.778H135.8zm31.884-31.883h22.777v22.778h-22.777zm-31.884 0h22.778v22.778H135.8zm120.04 27.095l-63.802.488m63.854-32.87l-63.804.487m34.448-3.099l.489 63.91m-32.372-63.826l.489 63.958m60.687-13.165l-63.87.597m63.985-32.98l-63.79.596m50.559-18.857l.595 63.65m-32.48-63.74l.598 63.912m44.44-49.32h-8.256V192.39m-55.456 14.517h14.466v-14.708m31.884.201v14.507h-22.778v-14.624m40.054 46.507h-8.17v-22.778h8.182m-63.82 22.778h14.648v-22.778h-14.54m23.646 0h22.778v22.778h-22.778zm31.884 40.11v-8.226h8.26m-49.25 8.316v-8.316H192.06m39.61-15.942h22.778v22.778h-22.778zm-15.942 24.122v-8.18h22.778v8.204m-38.72-24.146h22.778v22.778h-22.778zm31.884-31.883h22.778v22.778h-22.778zm-31.884 0h22.778v22.778h-22.778z"/>
    </g>
</svg>
