<?xml version="1.0" encoding="UTF-8" standalone="no"?>
<svg
   cursor="default"
   version="1.1"
   viewBox="0 0 256 256"
   id="svg191538"
   sodipodi:docname="china01.svg"
   inkscape:version="1.3.1 (9b9bdc1480, 2023-11-25, custom)"
   xml:space="preserve"
   xmlns:inkscape="http://www.inkscape.org/namespaces/inkscape"
   xmlns:sodipodi="http://sodipodi.sourceforge.net/DTD/sodipodi-0.dtd"
   xmlns="http://www.w3.org/2000/svg"
   xmlns:svg="http://www.w3.org/2000/svg"><defs
     id="defs191542"><linearGradient
       id="swatch12"><stop
         style="stop-color:#f4d7d7;stop-opacity:1;"
         offset="0"
         id="stop12" /></linearGradient><inkscape:path-effect
       effect="tiling"
       id="path-effect1"
       is_visible="true"
       lpeversion="1"
       unit="px"
       seed="1;1"
       lpesatellites=""
       num_rows="4"
       num_cols="4"
       gapx="0"
       gapy="0"
       offset="0"
       offset_type="false"
       scale="0"
       rotate="0"
       mirrorrowsx="false"
       mirrorrowsy="false"
       mirrorcolsx="false"
       mirrorcolsy="false"
       mirrortrans="false"
       shrink_interp="false"
       split_items="false"
       link_styles="false"
       interpolate_scalex="false"
       interpolate_scaley="true"
       interpolate_rotatex="false"
       interpolate_rotatey="true"
       random_scale="false"
       random_rotate="false"
       random_gap_y="false"
       random_gap_x="false"
       transformorigin="" /></defs><sodipodi:namedview
     id="namedview191540"
     pagecolor="#ffffff"
     bordercolor="#666666"
     borderopacity="1.0"
     inkscape:pageshadow="2"
     inkscape:pageopacity="0.0"
     inkscape:pagecheckerboard="0"
     showgrid="false"
     inkscape:zoom="3.1191982"
     inkscape:cx="115.41428"
     inkscape:cy="97.460944"
     inkscape:window-width="1854"
     inkscape:window-height="1010"
     inkscape:window-x="0"
     inkscape:window-y="0"
     inkscape:window-maximized="1"
     inkscape:current-layer="layer3"
     inkscape:showpageshadow="2"
     inkscape:deskcolor="#d1d1d1" /><g
     inkscape:groupmode="layer"
     id="layer4"
     inkscape:label="Light" /><g
     inkscape:groupmode="layer"
     id="layer3"
     inkscape:label="Medium"
     style="display:inline"><rect
       style="display:inline;fill:#e9c6af;fill-opacity:1;stroke:none;stroke-width:15.565;stroke-linecap:round;stroke-linejoin:round;stroke-dasharray:none;stroke-opacity:1;paint-order:stroke markers fill"
       id="rect27"
       width="256"
       height="256"
       x="0"
       y="0" /><path
       id="path24"
       style="display:inline;fill:none;stroke:#de8787;stroke-width:1.68687;stroke-linecap:butt;stroke-linejoin:miter;stroke-dasharray:none;stroke-opacity:1"
       d="M 63.888477,35.000437 0.08650998,35.48797 M 63.940794,2.6182232 0.1367047,3.1057744 M 34.584597,0.0064448 35.072952,63.9159 M 2.7016046,0.08991405 3.1903355,64.048421 M 63.877039,50.883204 0.00788345,51.480206 M 63.992117,18.500317 0.20286628,19.096571 M 50.760973,0.23887127 51.355924,63.888699 M 18.8765,0.14862752 19.473911,64.061668 M 63.914876,14.741039 H 55.65791 V 0.22420726 M 0.20242269,14.741035 H 14.668516 V 0.03362889 m 31.883631,0.2007249 V 14.741037 H 23.774278 V 0.11766866 M 63.828235,46.624667 H 55.65791 V 23.846798 h 8.182269 M 0.01956451,46.624662 H 14.668517 V 23.846794 H 0.12764716 m 23.64663084,2e-6 H 46.552147 V 46.624665 H 23.774278 Z m 31.883632,40.11047 v -8.226838 h 8.261245 m -49.250639,8.31544 V 55.73042 H 0.10647178 M 39.71609,39.788608 H 62.49396 V 62.566477 H 39.71609 Z M 23.774278,63.910024 v -8.179601 h 22.777869 v 8.203488 M 7.832463,39.788608 H 30.610332 V 62.566477 H 7.832463 Z M 39.71609,7.9049803 H 62.49396 V 30.68285 H 39.71609 Z m -31.8836265,5e-7 H 30.610332 V 30.68285 H 7.8324635 Z M 127.87271,35.000437 64.070744,35.48797 M 127.92503,2.6182232 64.120938,3.1057744 M 98.568831,0.0064448 99.057186,63.9159 M 66.685838,0.08991405 67.174569,64.048421 M 127.86127,50.883204 63.992117,51.480206 M 127.97635,18.500317 64.1871,19.096571 M 114.74521,0.23887127 115.34016,63.888699 M 82.860734,0.14862752 83.458145,64.061668 M 127.89911,14.741039 h -8.25697 V 0.22420726 M 64.186656,14.741035 H 78.65275 V 0.03362889 m 31.88363,0.2007249 V 14.741037 H 87.758512 V 0.11766866 M 127.81247,46.624667 h -8.17033 V 23.846798 h 8.18227 M 64.003798,46.624662 H 78.652751 V 23.846794 h -14.54087 m 23.646631,2e-6 H 110.53638 V 46.624665 H 87.758512 Z m 31.883628,40.11047 v -8.226838 h 8.26125 m -49.25064,8.31544 V 55.73042 H 64.090705 M 103.70032,39.788608 h 22.77787 V 62.566477 H 103.70032 Z M 87.758512,63.910024 v -8.179601 h 22.777868 v 8.203488 M 71.816697,39.788608 H 94.594566 V 62.566477 H 71.816697 Z M 103.70032,7.9049803 h 22.77787 V 30.68285 h -22.77787 z m -31.883623,5e-7 H 94.594566 V 30.68285 H 71.816697 Z M 191.85694,35.000437 128.05498,35.48797 M 191.90926,2.6182232 128.10517,3.1057744 M 162.55306,0.0064448 163.04142,63.9159 M 130.67007,0.08991405 131.1588,64.048421 m 60.68671,-13.165217 -63.86916,0.597002 m 63.98423,-32.979889 -63.78925,0.596254 M 178.72944,0.23887127 179.32439,63.888699 M 146.84497,0.14862752 147.44238,64.061668 m 44.44096,-49.320629 h -8.25696 V 0.22420726 M 128.17089,14.741035 h 14.46609 V 0.03362889 m 31.88363,0.2007249 V 14.741037 H 151.74275 V 0.11766866 M 191.7967,46.624667 h -8.17032 V 23.846798 h 8.18227 m -63.82062,22.777864 h 14.64895 V 23.846794 h -14.54087 m 23.64664,2e-6 h 22.77786 v 22.777869 h -22.77786 z m 31.88363,40.11047 v -8.226838 h 8.26124 m -49.25064,8.31544 V 55.73042 h -14.56204 m 39.60962,-15.941812 h 22.77787 v 22.777869 h -22.77787 z m -15.94181,24.121416 v -8.179601 h 22.77786 v 8.203488 M 135.80093,39.788608 H 158.5788 V 62.566477 H 135.80093 Z M 167.68456,7.9049803 h 22.77787 V 30.68285 h -22.77787 z m -31.88363,5e-7 H 158.5788 V 30.68285 H 135.80093 Z M 255.84118,35.000437 192.03921,35.48797 M 255.89349,2.6182232 192.08941,3.1057744 M 226.5373,0.0064448 227.02565,63.9159 M 194.65431,0.08991405 195.14304,64.048421 m 60.6867,-13.165217 -63.86916,0.597002 m 63.98424,-32.979889 -63.78925,0.596254 M 242.71367,0.23887127 243.30862,63.888699 M 210.8292,0.14862752 211.42661,64.061668 m 44.44097,-49.320629 h -8.25697 V 0.22420726 M 192.15512,14.741035 h 14.4661 V 0.03362889 m 31.88363,0.2007249 V 14.741037 H 215.72698 V 0.11766866 M 255.78094,46.624667 h -8.17033 V 23.846798 h 8.18227 m -63.82061,22.777864 h 14.64895 V 23.846794 h -14.54087 m 23.64663,2e-6 h 22.77787 v 22.777869 h -22.77787 z m 31.88363,40.11047 v -8.226838 h 8.26125 m -49.25064,8.31544 V 55.73042 h -14.56205 m 39.60962,-15.941812 h 22.77787 v 22.777869 h -22.77787 z m -15.94181,24.121416 v -8.179601 h 22.77787 v 8.203488 M 199.78516,39.788608 h 22.77787 V 62.566477 H 199.78516 Z M 231.66879,7.9049803 h 22.77787 V 30.68285 h -22.77787 z m -31.88363,5e-7 h 22.77787 V 30.68285 H 199.78516 Z M 63.888477,99.05566 0.08650998,99.543193 M 63.940794,66.673446 0.1367047,67.160998 m 34.4478923,-3.09933 0.488355,63.909452 M 2.7016046,64.145137 3.1903355,128.10364 m 60.6867035,-13.16521 -63.86915555,0.597 M 63.992117,82.55554 0.20286628,83.151794 M 50.760973,64.294094 51.355924,127.94392 M 18.8765,64.203851 19.473911,128.11689 M 63.914876,78.796262 H 55.65791 V 64.27943 M 0.20242269,78.796258 H 14.668516 V 64.088852 m 31.883631,0.200725 V 78.79626 H 23.774278 V 64.172892 M 63.828235,110.67989 H 55.65791 V 87.902021 h 8.182269 M 0.01956451,110.67989 H 14.668517 V 87.902017 H 0.12764716 m 23.64663084,2e-6 H 46.552147 V 110.67989 H 23.774278 Z M 55.65791,128.01249 v -8.22684 h 8.261245 m -49.250639,8.31544 v -8.31545 H 0.10647178 M 39.71609,103.84383 H 62.49396 V 126.6217 H 39.71609 Z m -15.941812,24.12142 v -8.1796 h 22.777869 v 8.20348 M 7.832463,103.84383 H 30.610332 V 126.6217 H 7.832463 Z M 39.71609,71.960204 H 62.49396 V 94.738073 H 39.71609 Z m -31.8836265,0 H 30.610332 V 94.738073 H 7.8324635 Z M 127.87271,99.05566 64.070744,99.543193 M 127.92503,66.673446 64.120938,67.160998 m 34.447893,-3.09933 0.488355,63.909452 M 66.685838,64.145137 67.174569,128.10364 m 60.686701,-13.16521 -63.869153,0.597 M 127.97635,82.55554 64.1871,83.151794 m 50.55811,-18.8577 0.59495,63.649826 M 82.860734,64.203851 83.458145,128.11689 M 127.89911,78.796262 h -8.25697 V 64.27943 M 64.186656,78.796258 H 78.65275 V 64.088852 m 31.88363,0.200725 V 78.79626 H 87.758512 V 64.172892 m 40.053958,46.506998 h -8.17033 V 87.902021 h 8.18227 M 64.003798,110.67989 H 78.652751 V 87.902017 h -14.54087 m 23.646631,2e-6 H 110.53638 V 110.67989 H 87.758512 Z m 31.883628,40.110471 v -8.22684 h 8.26125 m -49.25064,8.31544 v -8.31545 H 64.090705 m 39.609615,-15.94181 h 22.77787 v 22.77787 h -22.77787 z m -15.941808,24.12142 v -8.1796 h 22.777868 v 8.20348 M 71.816697,103.84383 H 94.594566 V 126.6217 H 71.816697 Z M 103.70032,71.960204 h 22.77787 v 22.777869 h -22.77787 z m -31.883623,0 H 94.594566 V 94.738073 H 71.816697 Z M 191.85694,99.05566 128.05498,99.543193 m 63.85428,-32.869747 -63.80409,0.487552 m 34.44789,-3.09933 0.48836,63.909452 m -32.37135,-63.825983 0.48873,63.958503 m 60.68671,-13.16521 -63.86916,0.597 m 63.98423,-32.97989 -63.78925,0.596254 m 50.55811,-18.8577 0.59495,63.649826 m -32.47942,-63.740069 0.59741,63.913039 m 44.44096,-49.320628 h -8.25696 V 64.27943 m -55.45549,14.516828 h 14.46609 V 64.088852 m 31.88363,0.200725 V 78.79626 H 151.74275 V 64.172892 m 40.05395,46.506998 h -8.17032 V 87.902021 h 8.18227 m -63.82062,22.777869 h 14.64895 V 87.902017 h -14.54087 m 23.64664,2e-6 h 22.77786 v 22.777871 h -22.77786 z m 31.88363,40.110471 v -8.22684 h 8.26124 m -49.25064,8.31544 v -8.31545 h -14.56204 m 39.60962,-15.94181 h 22.77787 v 22.77787 h -22.77787 z m -15.94181,24.12142 v -8.1796 h 22.77786 v 8.20348 m -38.71968,-24.1453 h 22.77787 v 22.77787 h -22.77787 z m 31.88363,-31.883626 h 22.77787 v 22.777869 h -22.77787 z m -31.88363,0 h 22.77787 v 22.777869 h -22.77787 z m 120.04025,27.095456 -63.80197,0.487533 m 63.85428,-32.869747 -63.80408,0.487552 m 34.44789,-3.09933 0.48835,63.909452 m -32.37134,-63.825983 0.48873,63.958503 m 60.6867,-13.16521 -63.86916,0.597 m 63.98424,-32.97989 -63.78925,0.596254 m 50.5581,-18.8577 0.59495,63.649826 m -32.47942,-63.740069 0.59741,63.913039 m 44.44097,-49.320628 h -8.25697 V 64.27943 m -55.45549,14.516828 h 14.4661 V 64.088852 m 31.88363,0.200725 V 78.79626 H 215.72698 V 64.172892 m 40.05396,46.506998 h -8.17033 V 87.902021 h 8.18227 m -63.82061,22.777869 h 14.64895 V 87.902017 h -14.54087 m 23.64663,2e-6 h 22.77787 v 22.777871 h -22.77787 z m 31.88363,40.110471 v -8.22684 h 8.26125 m -49.25064,8.31544 v -8.31545 h -14.56205 m 39.60962,-15.94181 h 22.77787 v 22.77787 h -22.77787 z m -15.94181,24.12142 v -8.1796 h 22.77787 v 8.20348 m -38.71969,-24.1453 h 22.77787 v 22.77787 h -22.77787 z m 31.88363,-31.883626 h 22.77787 v 22.777869 h -22.77787 z m -31.88363,0 h 22.77787 V 94.738073 H 199.78516 Z M 63.888477,163.11088 0.08650998,163.59842 M 63.940794,130.72867 0.1367047,131.21622 m 34.4478923,-3.09933 0.488355,63.90946 M 2.7016046,128.20036 3.1903355,192.15887 m 60.6867035,-13.16522 -63.86915555,0.597 M 63.992117,146.61076 0.20286628,147.20702 m 50.55810672,-18.8577 0.594951,63.64983 M 18.8765,128.25907 19.473911,192.17211 M 63.914876,142.85149 H 55.65791 V 128.33465 M 0.20242269,142.85148 H 14.668516 v -14.7074 m 31.883631,0.20072 v 14.50668 H 23.774278 v -14.62336 m 40.053957,46.50699 H 55.65791 v -22.77787 h 8.182269 M 0.01956451,174.73511 H 14.668517 V 151.95724 H 0.12764716 m 23.64663084,0 h 22.777869 v 22.77787 H 23.774278 Z m 31.883632,40.11047 v -8.22684 h 8.261245 m -49.250639,8.31544 v -8.31544 H 0.10647178 M 39.71609,167.89905 h 22.77787 v 22.77787 H 39.71609 Z m -15.941812,24.12142 v -8.1796 h 22.777869 v 8.20349 M 7.832463,167.89905 h 22.777869 v 22.77787 H 7.832463 Z M 39.71609,136.01543 H 62.49396 V 158.7933 H 39.71609 Z m -31.8836265,0 H 30.610332 V 158.7933 H 7.8324635 Z m 120.0402465,27.09545 -63.801966,0.48754 m 63.854286,-32.86975 -63.804092,0.48755 m 34.447893,-3.09933 0.488355,63.90946 m -32.371348,-63.82599 0.488731,63.95851 m 60.686701,-13.16522 -63.869153,0.597 m 63.984233,-32.97989 -63.78925,0.59626 m 50.55811,-18.8577 0.59495,63.64983 m -32.479426,-63.74008 0.597411,63.91304 m 44.440965,-49.32062 h -8.25697 V 128.33465 M 64.186656,142.85148 H 78.65275 v -14.7074 m 31.88363,0.20072 v 14.50668 H 87.758512 v -14.62336 m 40.053958,46.50699 h -8.17033 v -22.77787 h 8.18227 m -63.820612,22.77787 h 14.648953 v -22.77787 h -14.54087 m 23.646631,0 h 22.777868 v 22.77787 H 87.758512 Z m 31.883628,40.11047 v -8.22684 h 8.26125 m -49.25064,8.31544 v -8.31544 H 64.090705 m 39.609615,-15.94182 h 22.77787 v 22.77787 h -22.77787 z m -15.941808,24.12142 v -8.1796 h 22.777868 v 8.20349 M 71.816697,167.89905 h 22.777869 v 22.77787 H 71.816697 Z m 31.883623,-31.88362 h 22.77787 v 22.77787 h -22.77787 z m -31.883623,0 H 94.594566 V 158.7933 H 71.816697 Z m 120.040243,27.09545 -63.80196,0.48754 m 63.85428,-32.86975 -63.80409,0.48755 m 34.44789,-3.09933 0.48836,63.90946 m -32.37135,-63.82599 0.48873,63.95851 m 60.68671,-13.16522 -63.86916,0.597 m 63.98423,-32.97989 -63.78925,0.59626 m 50.55811,-18.8577 0.59495,63.64983 m -32.47942,-63.74008 0.59741,63.91304 m 44.44096,-49.32062 h -8.25696 v -14.51684 m -55.45549,14.51683 h 14.46609 v -14.7074 m 31.88363,0.20072 v 14.50668 h -22.77786 v -14.62336 m 40.05395,46.50699 h -8.17032 v -22.77787 h 8.18227 m -63.82062,22.77787 h 14.64895 v -22.77787 h -14.54087 m 23.64664,0 h 22.77786 v 22.77787 h -22.77786 z m 31.88363,40.11047 v -8.22684 h 8.26124 m -49.25064,8.31544 v -8.31544 h -14.56204 m 39.60962,-15.94182 h 22.77787 v 22.77787 h -22.77787 z m -15.94181,24.12142 v -8.1796 h 22.77786 v 8.20349 m -38.71968,-24.14531 h 22.77787 v 22.77787 h -22.77787 z m 31.88363,-31.88362 h 22.77787 v 22.77787 h -22.77787 z m -31.88363,0 h 22.77787 v 22.77787 h -22.77787 z m 120.04025,27.09545 -63.80197,0.48754 m 63.85428,-32.86975 -63.80408,0.48755 m 34.44789,-3.09933 0.48835,63.90946 m -32.37134,-63.82599 0.48873,63.95851 m 60.6867,-13.16522 -63.86916,0.597 m 63.98424,-32.97989 -63.78925,0.59626 m 50.5581,-18.8577 0.59495,63.64983 m -32.47942,-63.74008 0.59741,63.91304 m 44.44097,-49.32062 h -8.25697 v -14.51684 m -55.45549,14.51683 h 14.4661 v -14.7074 m 31.88363,0.20072 v 14.50668 h -22.77787 v -14.62336 m 40.05396,46.50699 h -8.17033 v -22.77787 h 8.18227 m -63.82061,22.77787 h 14.64895 v -22.77787 h -14.54087 m 23.64663,0 h 22.77787 v 22.77787 h -22.77787 z m 31.88363,40.11047 v -8.22684 h 8.26125 m -49.25064,8.31544 v -8.31544 h -14.56205 m 39.60962,-15.94182 h 22.77787 v 22.77787 h -22.77787 z m -15.94181,24.12142 v -8.1796 h 22.77787 v 8.20349 m -38.71969,-24.14531 h 22.77787 v 22.77787 h -22.77787 z m 31.88363,-31.88362 h 22.77787 v 22.77787 h -22.77787 z m -31.88363,0 h 22.77787 V 158.7933 H 199.78516 Z M 63.888477,227.16611 0.08650998,227.65364 M 63.940794,194.78389 0.1367047,195.27144 m 34.4478923,-3.09933 0.488355,63.90946 M 2.7016046,192.25558 3.1903355,256.21409 M 63.877039,243.04887 0.00788345,243.64588 M 63.992117,210.66599 0.20286628,211.26224 m 50.55810672,-18.8577 0.594951,63.64983 M 18.8765,192.3143 19.473911,256.22734 M 63.914876,206.90671 H 55.65791 V 192.38988 M 0.20242269,206.9067 H 14.668516 v -14.7074 m 31.883631,0.20072 v 14.50669 H 23.774278 v -14.62337 m 40.053957,46.507 H 55.65791 v -22.77787 h 8.182269 M 0.01956451,238.79033 H 14.668517 V 216.01246 H 0.12764716 m 23.64663084,1e-5 h 22.777869 v 22.77786 H 23.774278 Z m 31.883632,40.11047 v -8.22684 h 8.261245 m -49.250639,8.31544 v -8.31545 H 0.10647178 M 39.71609,231.95428 h 22.77787 v 22.77787 H 39.71609 Z m -15.941812,24.12141 v -8.1796 h 22.777869 v 8.20349 M 7.832463,231.95428 h 22.777869 v 22.77787 H 7.832463 Z M 39.71609,200.07065 h 22.77787 v 22.77787 H 39.71609 Z m -31.8836265,0 H 30.610332 v 22.77787 H 7.8324635 Z m 120.0402465,27.09546 -63.801966,0.48753 m 63.854286,-32.86975 -63.804092,0.48755 m 34.447893,-3.09933 0.488355,63.90946 m -32.371348,-63.82599 0.488731,63.95851 m 60.686701,-13.16522 -63.869153,0.59701 m 63.984233,-32.97989 -63.78925,0.59625 m 50.55811,-18.8577 0.59495,63.64983 m -32.479426,-63.74007 0.597411,63.91304 m 44.440965,-49.32063 h -8.25697 V 192.38988 M 64.186656,206.9067 H 78.65275 v -14.7074 m 31.88363,0.20072 v 14.50669 H 87.758512 v -14.62337 m 40.053958,46.507 h -8.17033 v -22.77787 h 8.18227 m -63.820612,22.77786 h 14.648953 v -22.77787 h -14.54087 m 23.646631,1e-5 h 22.777868 v 22.77786 H 87.758512 Z m 31.883628,40.11047 v -8.22684 h 8.26125 m -49.25064,8.31544 v -8.31545 H 64.090705 m 39.609615,-15.94181 h 22.77787 v 22.77787 h -22.77787 z m -15.941808,24.12141 v -8.1796 h 22.777868 v 8.20349 m -38.719683,-24.1453 h 22.777869 v 22.77787 H 71.816697 Z m 31.883623,-31.88363 h 22.77787 v 22.77787 h -22.77787 z m -31.883623,0 h 22.777869 v 22.77787 H 71.816697 Z m 120.040243,27.09546 -63.80196,0.48753 m 63.85428,-32.86975 -63.80409,0.48755 m 34.44789,-3.09933 0.48836,63.90946 m -32.37135,-63.82599 0.48873,63.95851 m 60.68671,-13.16522 -63.86916,0.59701 m 63.98423,-32.97989 -63.78925,0.59625 m 50.55811,-18.8577 0.59495,63.64983 m -32.47942,-63.74007 0.59741,63.91304 m 44.44096,-49.32063 h -8.25696 v -14.51683 m -55.45549,14.51682 h 14.46609 v -14.7074 m 31.88363,0.20072 v 14.50669 h -22.77786 v -14.62337 m 40.05395,46.507 h -8.17032 v -22.77787 h 8.18227 m -63.82062,22.77786 h 14.64895 v -22.77787 h -14.54087 m 23.64664,1e-5 h 22.77786 v 22.77786 h -22.77786 z m 31.88363,40.11047 v -8.22684 h 8.26124 m -49.25064,8.31544 v -8.31545 h -14.56204 m 39.60962,-15.94181 h 22.77787 v 22.77787 h -22.77787 z m -15.94181,24.12141 v -8.1796 h 22.77786 v 8.20349 m -38.71968,-24.1453 h 22.77787 v 22.77787 h -22.77787 z m 31.88363,-31.88363 h 22.77787 v 22.77787 h -22.77787 z m -31.88363,0 h 22.77787 v 22.77787 h -22.77787 z m 120.04025,27.09546 -63.80197,0.48753 m 63.85428,-32.86975 -63.80408,0.48755 m 34.44789,-3.09933 0.48835,63.90946 m -32.37134,-63.82599 0.48873,63.95851 m 60.6867,-13.16522 -63.86916,0.59701 m 63.98424,-32.97989 -63.78925,0.59625 m 50.5581,-18.8577 0.59495,63.64983 m -32.47942,-63.74007 0.59741,63.91304 m 44.44097,-49.32063 h -8.25697 v -14.51683 m -55.45549,14.51682 h 14.4661 v -14.7074 m 31.88363,0.20072 v 14.50669 h -22.77787 v -14.62337 m 40.05396,46.507 h -8.17033 v -22.77787 h 8.18227 m -63.82061,22.77786 h 14.64895 v -22.77787 h -14.54087 m 23.64663,1e-5 h 22.77787 v 22.77786 h -22.77787 z m 31.88363,40.11047 v -8.22684 h 8.26125 m -49.25064,8.31544 v -8.31545 h -14.56205 m 39.60962,-15.94181 h 22.77787 v 22.77787 h -22.77787 z m -15.94181,24.12141 v -8.1796 h 22.77787 v 8.20349 m -38.71969,-24.1453 h 22.77787 v 22.77787 h -22.77787 z m 31.88363,-31.88363 h 22.77787 v 22.77787 h -22.77787 z m -31.88363,0 h 22.77787 v 22.77787 h -22.77787 z"
       sodipodi:nodetypes="ccccccccccccccccccccccccccccccccccccccccccccccccccccccccccccccccccccc"
       inkscape:path-effect="#path-effect1"
       inkscape:original-d="M 63.888477,35.000437 0.08650998,35.48797 M 63.940794,2.6182232 0.1367047,3.1057744 M 34.584597,0.0064448 35.072952,63.9159 M 2.7016046,0.08991405 3.1903355,64.048421 M 63.877039,50.883204 0.00788345,51.480206 M 63.992117,18.500317 0.20286628,19.096571 M 50.760973,0.23887127 51.355924,63.888699 M 18.8765,0.14862752 19.473911,64.061668 M 63.914876,14.741039 H 55.65791 V 0.22420726 M 0.20242269,14.741035 H 14.668516 V 0.03362889 m 31.883631,0.2007249 V 14.741037 H 23.774278 V 0.11766866 M 63.828235,46.624667 H 55.65791 V 23.846798 h 8.182269 M 0.01956451,46.624662 H 14.668517 V 23.846794 H 0.12764716 m 23.64663084,2e-6 H 46.552147 V 46.624665 H 23.774278 Z m 31.883632,40.11047 v -8.226838 h 8.261245 m -49.250639,8.31544 V 55.73042 H 0.10647178 M 39.71609,39.788608 H 62.49396 V 62.566477 H 39.71609 Z M 23.774278,63.910024 v -8.179601 h 22.777869 v 8.203488 M 7.832463,39.788608 H 30.610332 V 62.566477 H 7.832463 Z M 39.71609,7.9049803 H 62.49396 V 30.68285 H 39.71609 Z m -31.8836265,5e-7 H 30.610332 V 30.68285 H 7.8324635 Z" /></g><g
     inkscape:groupmode="layer"
     id="layer5"
     inkscape:label="Medium 2" /><g
     inkscape:groupmode="layer"
     id="layer2"
     inkscape:label="Dark"
     style="display:inline" /><g
     inkscape:groupmode="layer"
     id="layer1"
     inkscape:label="Thread" /></svg>
