<svg xmlns="http://www.w3.org/2000/svg" cursor="default" viewBox="0 0 256 256">
    <defs>
        <linearGradient id="linearGradient924" x1="18.12" x2="21.466" y1="241.29" y2="228.73" gradientTransform="scale(1 -1) rotate(-89.503 -.246 -.024)" gradientUnits="userSpaceOnUse">
            <stop offset="0" stop-color="#917c6f"/>
            <stop offset="1" stop-color="#ac9d93"/>
        </linearGradient>
        <linearGradient id="innoGrad4">
            <stop offset="0" stop-color="#ffb380"/>
            <stop offset="1" stop-color="#fca"/>
        </linearGradient>
    </defs>
    <path fill="#ffd5d5" fill-opacity=".994" stroke="#ffd5d5" stroke-linecap="round" stroke-linejoin="round" stroke-width="7.873" d="M-.083 1.212h256.036v254.815H-.083z" paint-order="stroke markers fill"/>
    <path style="-inkscape-stroke:none" fill="#ff8080" d="M15.412-4.775l-5.03 4.248-4.636-4.198-.67.743L9.611.123l-4.85 4.096.645.763L10.36.8l4.77 4.316.67-.74L11.13.148l4.926-4.158zm11.295 0l-5.03 4.248-4.636-4.198-.67.743L20.906.123l-4.85 4.096.645.763L21.654.8l4.77 4.316.67-.74L22.426.148l4.926-4.158zm11.295 0l-5.03 4.248-4.636-4.198-.67.743L32.201.123l-4.85 4.096.645.763L32.95.8l4.77 4.316.67-.74L33.72.148l4.925-4.158zm11.295 0l-5.03 4.248-4.636-4.198-.67.743L43.496.123l-4.85 4.096.645.763L44.244.8l4.77 4.316.67-.74L45.016.148 49.94-4.01zm11.295 0l-5.03 4.248-4.636-4.198-.67.743L54.79.123l-4.85 4.096.645.763L55.539.8l4.77 4.316.67-.74L56.31.148l4.925-4.158zm11.295 0l-5.03 4.248-4.636-4.198-.67.743L66.086.123l-4.85 4.096.645.763L66.834.8l4.77 4.316.67-.74L67.604.148l4.926-4.158zm11.295 0l-5.03 4.248-4.636-4.198-.67.743L77.38.123l-4.85 4.096.645.763L78.129.8l4.77 4.316.67-.74L78.9.148l4.926-4.158zm11.295 0l-5.03 4.248-4.636-4.198-.67.743L88.676.123l-4.85 4.096.645.763L89.424.8l4.77 4.316.67-.74L90.194.148l4.926-4.158zm11.294 0l-5.029 4.248-4.637-4.198-.67.743L99.972.123l-4.85 4.096.645.763L100.719.8l4.77 4.316.67-.74L101.49.148l4.926-4.158zm11.295 0l-5.029 4.248-4.637-4.198-.67.743 4.536 4.105-4.85 4.096.645.763L112.014.8l4.77 4.316.67-.74-4.669-4.227 4.926-4.158zm11.295 0l-5.029 4.248-4.637-4.198-.67.743 4.536 4.105-4.85 4.096.644.763L123.31.8l4.77 4.316.67-.74L124.08.148l4.926-4.158zm11.295 0l-5.03 4.248-4.636-4.198-.67.743 4.535 4.105-4.85 4.096.645.763L134.604.8l4.769 4.316.67-.74-4.668-4.227 4.926-4.158zm11.295 0l-5.03 4.248-4.636-4.198-.67.743L145.15.123l-4.85 4.096.645.763L145.898.8l4.77 4.316.67-.74L146.67.148l4.926-4.158zm11.295 0l-5.03 4.248-4.636-4.198-.67.743 4.535 4.105-4.85 4.096.645.763L157.193.8l4.77 4.316.67-.74-4.668-4.227 4.926-4.158zm11.295 0l-5.03 4.248-4.636-4.198-.67.743L167.74.123l-4.85 4.096.645.763L168.488.8l4.77 4.316.67-.74L169.26.148l4.926-4.158zm11.295 0l-5.03 4.248-4.636-4.198-.67.743 4.535 4.105-4.85 4.096.645.763L179.783.8l4.77 4.316.67-.74-4.668-4.227 4.925-4.158zm11.295 0L191.1-.527l-4.636-4.198-.67.743L190.33.123l-4.85 4.096.645.763L191.078.8l4.77 4.316.67-.74L191.85.148l4.925-4.158zm11.295 0l-5.03 4.248-4.636-4.198-.67.743 4.535 4.105-4.85 4.096.645.763L202.373.8l4.77 4.316.67-.74-4.668-4.227 4.925-4.158zm11.295 0l-5.03 4.248-4.636-4.198-.67.743L212.92.123l-4.85 4.096.645.763L213.668.8l4.77 4.316.67-.74-4.669-4.227 4.926-4.158zm11.295 0l-5.03 4.248-4.636-4.198-.67.743 4.535 4.105-4.85 4.096.645.763L224.963.8l4.77 4.316.67-.74-4.669-4.227 4.926-4.158zM15.412 5.115l-5.03 4.248-4.636-4.197-.67.742 4.535 4.106-4.85 4.095.645.764 4.953-4.184 4.77 4.317.67-.74-4.668-4.227 4.926-4.158zm11.295 0l-5.03 4.248-4.636-4.197-.67.742 4.535 4.106-4.85 4.095.645.764 4.953-4.184 4.77 4.317.67-.74-4.668-4.227 4.926-4.158zm11.295 0l-5.03 4.248-4.636-4.197-.67.742 4.535 4.106-4.85 4.095.645.764 4.953-4.184 4.77 4.317.67-.74-4.668-4.227 4.925-4.158zm11.295 0l-5.03 4.248-4.636-4.197-.67.742 4.535 4.106-4.85 4.095.645.764 4.953-4.184 4.77 4.317.67-.74-4.668-4.227 4.925-4.158zm11.295 0l-5.03 4.248-4.636-4.197-.67.742 4.535 4.106-4.85 4.095.645.764 4.953-4.184 4.77 4.317.67-.74-4.668-4.227 4.925-4.158zm11.295 0l-5.03 4.248-4.636-4.197-.67.742 4.535 4.106-4.85 4.095.645.764 4.953-4.184 4.77 4.317.67-.74-4.669-4.227 4.926-4.158zm11.295 0l-5.03 4.248-4.636-4.197-.67.742 4.535 4.106-4.85 4.095.645.764 4.953-4.184 4.77 4.317.67-.74-4.669-4.227 4.926-4.158zm11.295 0l-5.03 4.248-4.636-4.197-.67.742 4.535 4.106-4.85 4.095.645.764 4.953-4.184 4.77 4.317.67-.74-4.669-4.227 4.926-4.158zm11.294 0l-5.029 4.248-4.637-4.197-.67.742 4.536 4.106-4.85 4.095.645.764 4.953-4.184 4.77 4.317.67-.74-4.669-4.227 4.926-4.158zm11.295 0l-5.029 4.248-4.637-4.197-.67.742 4.536 4.106-4.85 4.095.645.764 4.953-4.184 4.77 4.317.67-.74-4.669-4.227 4.926-4.158zm11.295 0l-5.029 4.248-4.637-4.197-.67.742 4.536 4.106-4.85 4.095.644.764 4.954-4.184 4.77 4.317.669-.74-4.668-4.227 4.926-4.158zm11.295 0l-5.03 4.248-4.636-4.197-.67.742 4.535 4.106-4.85 4.095.645.764 4.954-4.184 4.769 4.317.67-.74-4.668-4.227 4.926-4.158zm11.295 0l-5.03 4.248-4.636-4.197-.67.742 4.535 4.106-4.85 4.095.645.764 4.953-4.184 4.77 4.317.67-.74-4.668-4.227 4.926-4.158zm11.295 0l-5.03 4.248-4.636-4.197-.67.742 4.535 4.106-4.85 4.095.645.764 4.953-4.184 4.77 4.317.67-.74-4.668-4.227 4.926-4.158zm11.295 0l-5.03 4.248-4.636-4.197-.67.742 4.535 4.106-4.85 4.095.645.764 4.953-4.184 4.77 4.317.67-.74-4.668-4.227 4.926-4.158zm11.295 0l-5.03 4.248-4.636-4.197-.67.742 4.535 4.106-4.85 4.095.645.764 4.953-4.184 4.77 4.317.67-.74-4.668-4.227 4.925-4.158zm11.295 0l-5.03 4.248-4.636-4.197-.67.742 4.535 4.106-4.85 4.095.645.764 4.953-4.184 4.77 4.317.67-.74-4.668-4.227 4.925-4.158zm11.295 0l-5.03 4.248-4.636-4.197-.67.742 4.535 4.106-4.85 4.095.645.764 4.953-4.184 4.77 4.317.67-.74-4.668-4.227 4.925-4.158zm11.295 0l-5.03 4.248-4.636-4.197-.67.742 4.535 4.106-4.85 4.095.645.764 4.953-4.184 4.77 4.317.67-.74-4.669-4.227 4.926-4.158zm11.295 0l-5.03 4.248-4.636-4.197-.67.742 4.535 4.106-4.85 4.095.645.764 4.953-4.184 4.77 4.317.67-.74-4.669-4.227 4.926-4.158zm-214.604 9.89l-5.03 4.249-4.636-4.197-.67.742 4.535 4.105L4.761 24l.645.764 4.953-4.184 4.77 4.316.67-.74-4.668-4.226 4.926-4.159zm11.295 0l-5.03 4.249-4.636-4.197-.67.742 4.535 4.105L16.056 24l.645.764 4.953-4.184 4.77 4.316.67-.74-4.668-4.226 4.926-4.159zm11.295 0l-5.03 4.249-4.636-4.197-.67.742 4.535 4.105L27.351 24l.645.764 4.953-4.184 4.77 4.316.67-.74-4.668-4.226 4.925-4.159zm11.295 0l-5.03 4.249-4.636-4.197-.67.742 4.535 4.105L38.646 24l.645.764 4.953-4.184 4.77 4.316.67-.74-4.668-4.226 4.925-4.159zm11.295 0l-5.03 4.249-4.636-4.197-.67.742 4.535 4.105L49.941 24l.645.764 4.953-4.184 4.77 4.316.67-.74-4.668-4.226 4.925-4.159zm11.295 0l-5.03 4.249-4.636-4.197-.67.742 4.535 4.105L61.236 24l.645.764 4.953-4.184 4.77 4.316.67-.74-4.669-4.226 4.926-4.159zm11.295 0l-5.03 4.249-4.636-4.197-.67.742 4.535 4.105L72.53 24l.645.764 4.953-4.184 4.77 4.316.67-.74L78.9 19.93l4.926-4.159zm11.295 0l-5.03 4.249-4.636-4.197-.67.742 4.535 4.105L83.826 24l.645.764 4.953-4.184 4.77 4.316.67-.74-4.669-4.226 4.926-4.159zm11.294 0l-5.029 4.249-4.637-4.197-.67.742 4.536 4.105L95.12 24l.645.764 4.953-4.184 4.77 4.316.67-.74-4.669-4.226 4.926-4.159zm11.295 0l-5.029 4.249-4.637-4.197-.67.742 4.536 4.105-4.85 4.096.645.764 4.953-4.184 4.77 4.316.67-.74-4.669-4.226 4.926-4.159zm11.295 0l-5.029 4.249-4.637-4.197-.67.742 4.536 4.105L117.71 24l.644.764 4.954-4.184 4.77 4.316.669-.74-4.668-4.226 4.926-4.159zm11.295 0l-5.03 4.249-4.636-4.197-.67.742 4.535 4.105-4.85 4.096.645.764 4.954-4.184 4.769 4.316.67-.74-4.668-4.226 4.926-4.159zm11.295 0l-5.03 4.249-4.636-4.197-.67.742 4.535 4.105L140.3 24l.645.764 4.953-4.184 4.77 4.316.67-.74-4.668-4.226 4.926-4.159zm11.295 0l-5.03 4.249-4.636-4.197-.67.742 4.535 4.105-4.85 4.096.645.764 4.953-4.184 4.77 4.316.67-.74-4.668-4.226 4.926-4.159zm11.295 0l-5.03 4.249-4.636-4.197-.67.742 4.535 4.105L162.89 24l.645.764 4.953-4.184 4.77 4.316.67-.74-4.668-4.226 4.926-4.159zm11.295 0l-5.03 4.249-4.636-4.197-.67.742 4.535 4.105-4.85 4.096.645.764 4.953-4.184 4.77 4.316.67-.74-4.668-4.226 4.925-4.159zm11.295 0l-5.03 4.249-4.636-4.197-.67.742 4.535 4.105L185.48 24l.645.764 4.953-4.184 4.77 4.316.67-.74-4.668-4.226 4.925-4.159zm11.295 0l-5.03 4.249-4.636-4.197-.67.742 4.535 4.105-4.85 4.096.645.764 4.953-4.184 4.77 4.316.67-.74-4.668-4.226 4.925-4.159zm11.295 0l-5.03 4.249-4.636-4.197-.67.742 4.535 4.105L208.07 24l.645.764 4.953-4.184 4.77 4.316.67-.74-4.669-4.226 4.926-4.159zm11.295 0l-5.03 4.249-4.636-4.197-.67.742 4.535 4.105-4.85 4.096.645.764 4.953-4.184 4.77 4.316.67-.74-4.669-4.226 4.926-4.159zM15.412 24.897l-5.03 4.249-4.636-4.198-.67.742 4.535 4.106-4.85 4.096.645.763 4.953-4.183 4.77 4.316.67-.74-4.668-4.227 4.926-4.158zm11.295 0l-5.03 4.249-4.636-4.198-.67.742 4.535 4.106-4.85 4.096.645.763 4.953-4.183 4.77 4.316.67-.74-4.668-4.227 4.926-4.158zm11.295 0l-5.03 4.249-4.636-4.198-.67.742 4.535 4.106-4.85 4.096.645.763 4.953-4.183 4.77 4.316.67-.74-4.668-4.227 4.925-4.158zm11.295 0l-5.03 4.249-4.636-4.198-.67.742 4.535 4.106-4.85 4.096.645.763 4.953-4.183 4.77 4.316.67-.74-4.668-4.227 4.925-4.158zm11.295 0l-5.03 4.249-4.636-4.198-.67.742 4.535 4.106-4.85 4.096.645.763 4.953-4.183 4.77 4.316.67-.74-4.668-4.227 4.925-4.158zm11.295 0l-5.03 4.249-4.636-4.198-.67.742 4.535 4.106-4.85 4.096.645.763 4.953-4.183 4.77 4.316.67-.74-4.669-4.227 4.926-4.158zm11.295 0l-5.03 4.249-4.636-4.198-.67.742 4.535 4.106-4.85 4.096.645.763 4.953-4.183 4.77 4.316.67-.74L78.9 29.82l4.926-4.158zm11.295 0l-5.03 4.249-4.636-4.198-.67.742 4.535 4.106-4.85 4.096.645.763 4.953-4.183 4.77 4.316.67-.74-4.669-4.227 4.926-4.158zm11.294 0l-5.029 4.249-4.637-4.198-.67.742 4.536 4.106-4.85 4.096.645.763 4.953-4.183 4.77 4.316.67-.74-4.669-4.227 4.926-4.158zm11.295 0l-5.029 4.249-4.637-4.198-.67.742 4.536 4.106-4.85 4.096.645.763 4.953-4.183 4.77 4.316.67-.74-4.669-4.227 4.926-4.158zm11.295 0l-5.029 4.249-4.637-4.198-.67.742 4.536 4.106-4.85 4.096.644.763 4.954-4.183 4.77 4.316.669-.74-4.668-4.227 4.926-4.158zm11.295 0l-5.03 4.249-4.636-4.198-.67.742 4.535 4.106-4.85 4.096.645.763 4.954-4.183 4.769 4.316.67-.74-4.668-4.227 4.926-4.158zm11.295 0l-5.03 4.249-4.636-4.198-.67.742 4.535 4.106-4.85 4.096.645.763 4.953-4.183 4.77 4.316.67-.74-4.668-4.227 4.926-4.158zm11.295 0l-5.03 4.249-4.636-4.198-.67.742 4.535 4.106-4.85 4.096.645.763 4.953-4.183 4.77 4.316.67-.74-4.668-4.227 4.926-4.158zm11.295 0l-5.03 4.249-4.636-4.198-.67.742 4.535 4.106-4.85 4.096.645.763 4.953-4.183 4.77 4.316.67-.74-4.668-4.227 4.926-4.158zm11.295 0l-5.03 4.249-4.636-4.198-.67.742 4.535 4.106-4.85 4.096.645.763 4.953-4.183 4.77 4.316.67-.74-4.668-4.227 4.925-4.158zm11.295 0l-5.03 4.249-4.636-4.198-.67.742 4.535 4.106-4.85 4.096.645.763 4.953-4.183 4.77 4.316.67-.74-4.668-4.227 4.925-4.158zm11.295 0l-5.03 4.249-4.636-4.198-.67.742 4.535 4.106-4.85 4.096.645.763 4.953-4.183 4.77 4.316.67-.74-4.668-4.227 4.925-4.158zm11.295 0l-5.03 4.249-4.636-4.198-.67.742 4.535 4.106-4.85 4.096.645.763 4.953-4.183 4.77 4.316.67-.74-4.669-4.227 4.926-4.158zm11.295 0l-5.03 4.249-4.636-4.198-.67.742 4.535 4.106-4.85 4.096.645.763 4.953-4.183 4.77 4.316.67-.74-4.669-4.227 4.926-4.158zM15.412 34.787l-5.03 4.248-4.636-4.197-.67.742 4.535 4.106-4.85 4.095.645.764 4.953-4.184 4.77 4.317.67-.74-4.668-4.227 4.926-4.158zm11.295 0l-5.03 4.248-4.636-4.197-.67.742 4.535 4.106-4.85 4.095.645.764 4.953-4.184 4.77 4.317.67-.74-4.668-4.227 4.926-4.158zm11.295 0l-5.03 4.248-4.636-4.197-.67.742 4.535 4.106-4.85 4.095.645.764 4.953-4.184 4.77 4.317.67-.74-4.668-4.227 4.925-4.158zm11.295 0l-5.03 4.248-4.636-4.197-.67.742 4.535 4.106-4.85 4.095.645.764 4.953-4.184 4.77 4.317.67-.74-4.668-4.227 4.925-4.158zm11.295 0l-5.03 4.248-4.636-4.197-.67.742 4.535 4.106-4.85 4.095.645.764 4.953-4.184 4.77 4.317.67-.74-4.668-4.227 4.925-4.158zm11.295 0l-5.03 4.248-4.636-4.197-.67.742 4.535 4.106-4.85 4.095.645.764 4.953-4.184 4.77 4.317.67-.74-4.669-4.227 4.926-4.158zm11.295 0l-5.03 4.248-4.636-4.197-.67.742 4.535 4.106-4.85 4.095.645.764 4.953-4.184 4.77 4.317.67-.74L78.9 39.71l4.926-4.158zm11.295 0l-5.03 4.248-4.636-4.197-.67.742 4.535 4.106-4.85 4.095.645.764 4.953-4.184 4.77 4.317.67-.74-4.669-4.227 4.926-4.158zm11.294 0l-5.029 4.248-4.637-4.197-.67.742 4.536 4.106-4.85 4.095.645.764 4.953-4.184 4.77 4.317.67-.74-4.669-4.227 4.926-4.158zm11.295 0l-5.029 4.248-4.637-4.197-.67.742 4.536 4.106-4.85 4.095.645.764 4.953-4.184 4.77 4.317.67-.74-4.669-4.227 4.926-4.158zm11.295 0l-5.029 4.248-4.637-4.197-.67.742 4.536 4.106-4.85 4.095.644.764 4.954-4.184 4.77 4.317.669-.74-4.668-4.227 4.926-4.158zm11.295 0l-5.03 4.248-4.636-4.197-.67.742 4.535 4.106-4.85 4.095.645.764 4.954-4.184 4.769 4.317.67-.74-4.668-4.227 4.926-4.158zm11.295 0l-5.03 4.248-4.636-4.197-.67.742 4.535 4.106-4.85 4.095.645.764 4.953-4.184 4.77 4.317.67-.74-4.668-4.227 4.926-4.158zm11.295 0l-5.03 4.248-4.636-4.197-.67.742 4.535 4.106-4.85 4.095.645.764 4.953-4.184 4.77 4.317.67-.74-4.668-4.227 4.926-4.158zm11.295 0l-5.03 4.248-4.636-4.197-.67.742 4.535 4.106-4.85 4.095.645.764 4.953-4.184 4.77 4.317.67-.74-4.668-4.227 4.926-4.158zm11.295 0l-5.03 4.248-4.636-4.197-.67.742 4.535 4.106-4.85 4.095.645.764 4.953-4.184 4.77 4.317.67-.74-4.668-4.227 4.925-4.158zm11.295 0l-5.03 4.248-4.636-4.197-.67.742 4.535 4.106-4.85 4.095.645.764 4.953-4.184 4.77 4.317.67-.74-4.668-4.227 4.925-4.158zm11.295 0l-5.03 4.248-4.636-4.197-.67.742 4.535 4.106-4.85 4.095.645.764 4.953-4.184 4.77 4.317.67-.74-4.668-4.227 4.925-4.158zm11.295 0l-5.03 4.248-4.636-4.197-.67.742 4.535 4.106-4.85 4.095.645.764 4.953-4.184 4.77 4.317.67-.74-4.669-4.227 4.926-4.158zm11.295 0l-5.03 4.248-4.636-4.197-.67.742 4.535 4.106-4.85 4.095.645.764 4.953-4.184 4.77 4.317.67-.74-4.669-4.227 4.926-4.158zm-214.604 9.89l-5.03 4.249-4.636-4.197-.67.742 4.535 4.105-4.85 4.096.645.764 4.953-4.184 4.77 4.316.67-.74-4.668-4.226 4.926-4.159zm11.295 0l-5.03 4.249-4.636-4.197-.67.742 4.535 4.105-4.85 4.096.645.764 4.953-4.184 4.77 4.316.67-.74-4.668-4.226 4.926-4.159zm11.295 0l-5.03 4.249-4.636-4.197-.67.742 4.535 4.105-4.85 4.096.645.764 4.953-4.184 4.77 4.316.67-.74-4.668-4.226 4.925-4.159zm11.295 0l-5.03 4.249-4.636-4.197-.67.742 4.535 4.105-4.85 4.096.645.764 4.953-4.184 4.77 4.316.67-.74-4.668-4.226 4.925-4.159zm11.295 0l-5.03 4.249-4.636-4.197-.67.742 4.535 4.105-4.85 4.096.645.764 4.953-4.184 4.77 4.316.67-.74-4.668-4.226 4.925-4.159zm11.295 0l-5.03 4.249-4.636-4.197-.67.742 4.535 4.105-4.85 4.096.645.764 4.953-4.184 4.77 4.316.67-.74-4.669-4.226 4.926-4.159zm11.295 0l-5.03 4.249-4.636-4.197-.67.742 4.535 4.105-4.85 4.096.645.764 4.953-4.184 4.77 4.316.67-.74-4.669-4.226 4.926-4.159zm11.295 0l-5.03 4.249-4.636-4.197-.67.742 4.535 4.105-4.85 4.096.645.764 4.953-4.184 4.77 4.316.67-.74-4.669-4.226 4.926-4.159zm11.294 0l-5.029 4.249-4.637-4.197-.67.742 4.536 4.105-4.85 4.096.645.764 4.953-4.184 4.77 4.316.67-.74-4.669-4.226 4.926-4.159zm11.295 0l-5.029 4.249-4.637-4.197-.67.742 4.536 4.105-4.85 4.096.645.764 4.953-4.184 4.77 4.316.67-.74-4.669-4.226 4.926-4.159zm11.295 0l-5.029 4.249-4.637-4.197-.67.742 4.536 4.105-4.85 4.096.644.764 4.954-4.184 4.77 4.316.669-.74-4.668-4.226 4.926-4.159zm11.295 0l-5.03 4.249-4.636-4.197-.67.742 4.535 4.105-4.85 4.096.645.764 4.954-4.184 4.769 4.316.67-.74-4.668-4.226 4.926-4.159zm11.295 0l-5.03 4.249-4.636-4.197-.67.742 4.535 4.105-4.85 4.096.645.764 4.953-4.184 4.77 4.316.67-.74-4.668-4.226 4.926-4.159zm11.295 0l-5.03 4.249-4.636-4.197-.67.742 4.535 4.105-4.85 4.096.645.764 4.953-4.184 4.77 4.316.67-.74-4.668-4.226 4.926-4.159zm11.295 0l-5.03 4.249-4.636-4.197-.67.742 4.535 4.105-4.85 4.096.645.764 4.953-4.184 4.77 4.316.67-.74-4.668-4.226 4.926-4.159zm11.295 0l-5.03 4.249-4.636-4.197-.67.742 4.535 4.105-4.85 4.096.645.764 4.953-4.184 4.77 4.316.67-.74-4.668-4.226 4.925-4.159zm11.295 0l-5.03 4.249-4.636-4.197-.67.742 4.535 4.105-4.85 4.096.645.764 4.953-4.184 4.77 4.316.67-.74-4.668-4.226 4.925-4.159zm11.295 0l-5.03 4.249-4.636-4.197-.67.742 4.535 4.105-4.85 4.096.645.764 4.953-4.184 4.77 4.316.67-.74-4.668-4.226 4.925-4.159zm11.295 0l-5.03 4.249-4.636-4.197-.67.742 4.535 4.105-4.85 4.096.645.764 4.953-4.184 4.77 4.316.67-.74-4.669-4.226 4.926-4.159zm11.295 0l-5.03 4.249-4.636-4.197-.67.742 4.535 4.105-4.85 4.096.645.764 4.953-4.184 4.77 4.316.67-.74-4.669-4.226 4.926-4.159zM15.412 54.569l-5.03 4.248-4.636-4.197-.67.742 4.535 4.106-4.85 4.096.645.763 4.953-4.183 4.77 4.316.67-.74-4.668-4.227 4.926-4.158zm11.295 0l-5.03 4.248-4.636-4.197-.67.742 4.535 4.106-4.85 4.096.645.763 4.953-4.183 4.77 4.316.67-.74-4.668-4.227 4.926-4.158zm11.295 0l-5.03 4.248-4.636-4.197-.67.742 4.535 4.106-4.85 4.096.645.763 4.953-4.183 4.77 4.316.67-.74-4.668-4.227 4.925-4.158zm11.295 0l-5.03 4.248-4.636-4.197-.67.742 4.535 4.106-4.85 4.096.645.763 4.953-4.183 4.77 4.316.67-.74-4.668-4.227 4.925-4.158zm11.295 0l-5.03 4.248-4.636-4.197-.67.742 4.535 4.106-4.85 4.096.645.763 4.953-4.183 4.77 4.316.67-.74-4.668-4.227 4.925-4.158zm11.295 0l-5.03 4.248-4.636-4.197-.67.742 4.535 4.106-4.85 4.096.645.763 4.953-4.183 4.77 4.316.67-.74-4.669-4.227 4.926-4.158zm11.295 0l-5.03 4.248-4.636-4.197-.67.742 4.535 4.106-4.85 4.096.645.763 4.953-4.183 4.77 4.316.67-.74-4.669-4.227 4.926-4.158zm11.295 0l-5.03 4.248-4.636-4.197-.67.742 4.535 4.106-4.85 4.096.645.763 4.953-4.183 4.77 4.316.67-.74-4.669-4.227 4.926-4.158zm11.294 0l-5.029 4.248-4.637-4.197-.67.742 4.536 4.106-4.85 4.096.645.763 4.953-4.183 4.77 4.316.67-.74-4.669-4.227 4.926-4.158zm11.295 0l-5.029 4.248-4.637-4.197-.67.742 4.536 4.106-4.85 4.096.645.763 4.953-4.183 4.77 4.316.67-.74-4.669-4.227 4.926-4.158zm11.295 0l-5.029 4.248-4.637-4.197-.67.742 4.536 4.106-4.85 4.096.644.763 4.954-4.183 4.77 4.316.669-.74-4.668-4.227 4.926-4.158zm11.295 0l-5.03 4.248-4.636-4.197-.67.742 4.535 4.106-4.85 4.096.645.763 4.954-4.183 4.769 4.316.67-.74-4.668-4.227 4.926-4.158zm11.295 0l-5.03 4.248-4.636-4.197-.67.742 4.535 4.106-4.85 4.096.645.763 4.953-4.183 4.77 4.316.67-.74-4.668-4.227 4.926-4.158zm11.295 0l-5.03 4.248-4.636-4.197-.67.742 4.535 4.106-4.85 4.096.645.763 4.953-4.183 4.77 4.316.67-.74-4.668-4.227 4.926-4.158zm11.295 0l-5.03 4.248-4.636-4.197-.67.742 4.535 4.106-4.85 4.096.645.763 4.953-4.183 4.77 4.316.67-.74-4.668-4.227 4.926-4.158zm11.295 0l-5.03 4.248-4.636-4.197-.67.742 4.535 4.106-4.85 4.096.645.763 4.953-4.183 4.77 4.316.67-.74-4.668-4.227 4.925-4.158zm11.295 0l-5.03 4.248-4.636-4.197-.67.742 4.535 4.106-4.85 4.096.645.763 4.953-4.183 4.77 4.316.67-.74-4.668-4.227 4.925-4.158zm11.295 0l-5.03 4.248-4.636-4.197-.67.742 4.535 4.106-4.85 4.096.645.763 4.953-4.183 4.77 4.316.67-.74-4.668-4.227 4.925-4.158zm11.295 0l-5.03 4.248-4.636-4.197-.67.742 4.535 4.106-4.85 4.096.645.763 4.953-4.183 4.77 4.316.67-.74-4.669-4.227 4.926-4.158zm11.295 0l-5.03 4.248-4.636-4.197-.67.742 4.535 4.106-4.85 4.096.645.763 4.953-4.183 4.77 4.316.67-.74-4.669-4.227 4.926-4.158zM15.412 64.46l-5.03 4.248-4.636-4.197-.67.742 4.535 4.105-4.85 4.096.645.764 4.953-4.184 4.77 4.317.67-.74-4.668-4.227 4.926-4.158zm11.295 0l-5.03 4.248-4.636-4.197-.67.742 4.535 4.105-4.85 4.096.645.764 4.953-4.184 4.77 4.317.67-.74-4.668-4.227 4.926-4.158zm11.295 0l-5.03 4.248-4.636-4.197-.67.742 4.535 4.105-4.85 4.096.645.764 4.953-4.184 4.77 4.317.67-.74-4.668-4.227 4.925-4.158zm11.295 0l-5.03 4.248-4.636-4.197-.67.742 4.535 4.105-4.85 4.096.645.764 4.953-4.184 4.77 4.317.67-.74-4.668-4.227 4.925-4.158zm11.295 0l-5.03 4.248-4.636-4.197-.67.742 4.535 4.105-4.85 4.096.645.764 4.953-4.184 4.77 4.317.67-.74-4.668-4.227 4.925-4.158zm11.295 0l-5.03 4.248-4.636-4.197-.67.742 4.535 4.105-4.85 4.096.645.764 4.953-4.184 4.77 4.317.67-.74-4.669-4.227 4.926-4.158zm11.295 0l-5.03 4.248-4.636-4.197-.67.742 4.535 4.105-4.85 4.096.645.764 4.953-4.184 4.77 4.317.67-.74-4.669-4.227 4.926-4.158zm11.295 0l-5.03 4.248-4.636-4.197-.67.742 4.535 4.105-4.85 4.096.645.764 4.953-4.184 4.77 4.317.67-.74-4.669-4.227 4.926-4.158zm11.294 0l-5.029 4.248-4.637-4.197-.67.742 4.536 4.105-4.85 4.096.645.764 4.953-4.184 4.77 4.317.67-.74-4.669-4.227 4.926-4.158zm11.295 0l-5.029 4.248-4.637-4.197-.67.742 4.536 4.105-4.85 4.096.645.764 4.953-4.184 4.77 4.317.67-.74-4.669-4.227 4.926-4.158zm11.295 0l-5.029 4.248-4.637-4.197-.67.742 4.536 4.105-4.85 4.096.644.764 4.954-4.184 4.77 4.317.669-.74-4.668-4.227 4.926-4.158zm11.295 0l-5.03 4.248-4.636-4.197-.67.742 4.535 4.105-4.85 4.096.645.764 4.954-4.184 4.769 4.317.67-.74-4.668-4.227 4.926-4.158zm11.295 0l-5.03 4.248-4.636-4.197-.67.742 4.535 4.105-4.85 4.096.645.764 4.953-4.184 4.77 4.317.67-.74-4.668-4.227 4.926-4.158zm11.295 0l-5.03 4.248-4.636-4.197-.67.742 4.535 4.105-4.85 4.096.645.764 4.953-4.184 4.77 4.317.67-.74-4.668-4.227 4.926-4.158zm11.295 0l-5.03 4.248-4.636-4.197-.67.742 4.535 4.105-4.85 4.096.645.764 4.953-4.184 4.77 4.317.67-.74-4.668-4.227 4.926-4.158zm11.295 0l-5.03 4.248-4.636-4.197-.67.742 4.535 4.105-4.85 4.096.645.764 4.953-4.184 4.77 4.317.67-.74-4.668-4.227 4.925-4.158zm11.295 0l-5.03 4.248-4.636-4.197-.67.742 4.535 4.105-4.85 4.096.645.764 4.953-4.184 4.77 4.317.67-.74-4.668-4.227 4.925-4.158zm11.295 0l-5.03 4.248-4.636-4.197-.67.742 4.535 4.105-4.85 4.096.645.764 4.953-4.184 4.77 4.317.67-.74-4.668-4.227 4.925-4.158zm11.295 0l-5.03 4.248-4.636-4.197-.67.742 4.535 4.105-4.85 4.096.645.764 4.953-4.184 4.77 4.317.67-.74-4.669-4.227 4.926-4.158zm11.295 0l-5.03 4.248-4.636-4.197-.67.742 4.535 4.105-4.85 4.096.645.764 4.953-4.184 4.77 4.317.67-.74-4.669-4.227 4.926-4.158zM50.894 177.029l-5.03 4.248-4.636-4.197-.67.742 4.535 4.105-4.85 4.096.645.764 4.953-4.184 4.77 4.317.67-.74-4.668-4.227 4.926-4.158zm11.295 0l-5.03 4.248-4.636-4.197-.67.742 4.535 4.105-4.85 4.096.645.764 4.953-4.184 4.77 4.317.67-.74-4.668-4.227 4.926-4.158zm11.295 0l-5.03 4.248-4.636-4.197-.67.742 4.535 4.105-4.85 4.096.645.764 4.953-4.184 4.77 4.317.67-.74-4.668-4.227 4.926-4.158zm11.295 0l-5.03 4.248-4.636-4.197-.67.742 4.535 4.105-4.85 4.096.645.764 4.953-4.184 4.77 4.317.67-.74-4.668-4.227 4.926-4.158zm11.295 0l-5.03 4.248-4.636-4.197-.67.742 4.535 4.105-4.85 4.096.645.764 4.953-4.184 4.77 4.317.67-.74-4.668-4.227 4.925-4.158zm11.295 0l-5.03 4.248-4.636-4.197-.67.742 4.535 4.105-4.85 4.096.645.764 4.953-4.184 4.77 4.317.67-.74-4.668-4.227 4.925-4.158zm11.295 0l-5.03 4.248-4.636-4.197-.67.742 4.535 4.105-4.85 4.096.645.764 4.953-4.184 4.77 4.317.67-.74-4.669-4.227 4.926-4.158zm11.295 0l-5.03 4.248-4.636-4.197-.67.742 4.535 4.105-4.85 4.096.645.764 4.953-4.184 4.77 4.317.67-.74-4.669-4.227 4.926-4.158zm11.295 0l-5.03 4.248-4.636-4.197-.67.742 4.535 4.105-4.85 4.096.645.764 4.953-4.184 4.77 4.317.67-.74-4.669-4.227 4.926-4.158zm11.295 0l-5.03 4.248-4.637-4.197-.67.742 4.536 4.105-4.85 4.096.645.764 4.953-4.184 4.77 4.317.67-.74-4.669-4.227 4.926-4.158zm11.294 0l-5.029 4.248-4.637-4.197-.67.742 4.536 4.105-4.85 4.096.645.764 4.953-4.184 4.77 4.317.67-.74-4.669-4.227 4.926-4.158zm11.295 0l-5.029 4.248-4.637-4.197-.67.742 4.536 4.105-4.85 4.096.644.764 4.954-4.184 4.77 4.317.67-.74-4.669-4.227 4.926-4.158zm11.295 0l-5.029 4.248-4.637-4.197-.67.742 4.535 4.105-4.85 4.096.645.764 4.954-4.184 4.77 4.317.669-.74-4.668-4.227 4.926-4.158zm11.295 0l-5.03 4.248-4.636-4.197-.67.742 4.535 4.105-4.85 4.096.645.764 4.953-4.184 4.77 4.317.67-.74-4.668-4.227 4.926-4.158zm11.295 0l-5.03 4.248-4.636-4.197-.67.742 4.535 4.105-4.85 4.096.645.764 4.953-4.184 4.77 4.317.67-.74-4.668-4.227 4.926-4.158zm11.295 0l-5.03 4.248-4.636-4.197-.67.742 4.535 4.105-4.85 4.096.645.764 4.953-4.184 4.77 4.317.67-.74-4.668-4.227 4.926-4.158zm11.295 0l-5.03 4.248-4.636-4.197-.67.742 4.535 4.105-4.85 4.096.645.764 4.953-4.184 4.77 4.317.67-.74-4.668-4.227 4.925-4.158zm11.295 0l-5.03 4.248-4.636-4.197-.67.742 4.535 4.105-4.85 4.096.645.764 4.953-4.184 4.77 4.317.67-.74-4.668-4.227 4.925-4.158zm11.295 0l-5.03 4.248-4.636-4.197-.67.742 4.535 4.105-4.85 4.096.645.764 4.953-4.184 4.77 4.317.67-.74-4.668-4.227 4.925-4.158zm11.295 0l-5.03 4.248-4.636-4.197-.67.742 4.535 4.105-4.85 4.096.645.764 4.953-4.184 4.77 4.317.67-.74-4.669-4.227 4.926-4.158zm-214.604 9.89l-5.03 4.249-4.636-4.198-.67.743 4.535 4.105-4.85 4.096.645.763 4.953-4.183 4.77 4.316.67-.74-4.668-4.227 4.926-4.158zm11.295 0l-5.03 4.249-4.636-4.198-.67.743 4.535 4.105-4.85 4.096.645.763 4.953-4.183 4.77 4.316.67-.74-4.668-4.227 4.926-4.158zm11.295 0l-5.03 4.249-4.636-4.198-.67.743 4.535 4.105-4.85 4.096.645.763 4.953-4.183 4.77 4.316.67-.74-4.668-4.227 4.926-4.158zm11.295 0l-5.03 4.249-4.636-4.198-.67.743 4.535 4.105-4.85 4.096.645.763 4.953-4.183 4.77 4.316.67-.74-4.668-4.227 4.926-4.158zm11.295 0l-5.03 4.249-4.636-4.198-.67.743 4.535 4.105-4.85 4.096.645.763 4.953-4.183 4.77 4.316.67-.74-4.668-4.227 4.925-4.158zm11.295 0l-5.03 4.249-4.636-4.198-.67.743 4.535 4.105-4.85 4.096.645.763 4.953-4.183 4.77 4.316.67-.74-4.668-4.227 4.925-4.158zm11.295 0l-5.03 4.249-4.636-4.198-.67.743 4.535 4.105-4.85 4.096.645.763 4.953-4.183 4.77 4.316.67-.74-4.669-4.227 4.926-4.158zm11.295 0l-5.03 4.249-4.636-4.198-.67.743 4.535 4.105-4.85 4.096.645.763 4.953-4.183 4.77 4.316.67-.74-4.669-4.227 4.926-4.158zm11.295 0l-5.03 4.249-4.636-4.198-.67.743 4.535 4.105-4.85 4.096.645.763 4.953-4.183 4.77 4.316.67-.74-4.669-4.227 4.926-4.158zm11.295 0l-5.03 4.249-4.637-4.198-.67.743 4.536 4.105-4.85 4.096.645.763 4.953-4.183 4.77 4.316.67-.74-4.669-4.227 4.926-4.158zm11.294 0l-5.029 4.249-4.637-4.198-.67.743 4.536 4.105-4.85 4.096.645.763 4.953-4.183 4.77 4.316.67-.74-4.669-4.227 4.926-4.158zm11.295 0l-5.029 4.249-4.637-4.198-.67.743 4.536 4.105-4.85 4.096.644.763 4.954-4.183 4.77 4.316.67-.74-4.669-4.227 4.926-4.158zm11.295 0l-5.029 4.249-4.637-4.198-.67.743 4.535 4.105-4.85 4.096.645.763 4.954-4.183 4.77 4.316.669-.74-4.668-4.227 4.926-4.158zm11.295 0l-5.03 4.249-4.636-4.198-.67.743 4.535 4.105-4.85 4.096.645.763 4.953-4.183 4.77 4.316.67-.74-4.668-4.227 4.926-4.158zm11.295 0l-5.03 4.249-4.636-4.198-.67.743 4.535 4.105-4.85 4.096.645.763 4.953-4.183 4.77 4.316.67-.74-4.668-4.227 4.926-4.158zm11.295 0l-5.03 4.249-4.636-4.198-.67.743 4.535 4.105-4.85 4.096.645.763 4.953-4.183 4.77 4.316.67-.74-4.668-4.227 4.926-4.158zm11.295 0l-5.03 4.249-4.636-4.198-.67.743 4.535 4.105-4.85 4.096.645.763 4.953-4.183 4.77 4.316.67-.74-4.668-4.227 4.925-4.158zm11.295 0l-5.03 4.249-4.636-4.198-.67.743 4.535 4.105-4.85 4.096.645.763 4.953-4.183 4.77 4.316.67-.74-4.668-4.227 4.925-4.158zm11.295 0l-5.03 4.249-4.636-4.198-.67.743 4.535 4.105-4.85 4.096.645.763 4.953-4.183 4.77 4.316.67-.74-4.668-4.227 4.925-4.158zm11.295 0l-5.03 4.249-4.636-4.198-.67.743 4.535 4.105-4.85 4.096.645.763 4.953-4.183 4.77 4.316.67-.74-4.669-4.227 4.926-4.158zM50.894 196.81l-5.03 4.248-4.636-4.197-.67.742 4.535 4.106-4.85 4.095.645.764 4.953-4.184 4.77 4.317.67-.74-4.668-4.227 4.926-4.158zm11.295 0l-5.03 4.248-4.636-4.197-.67.742 4.535 4.106-4.85 4.095.645.764 4.953-4.184 4.77 4.317.67-.74-4.668-4.227 4.926-4.158zm11.295 0l-5.03 4.248-4.636-4.197-.67.742 4.535 4.106-4.85 4.095.645.764 4.953-4.184 4.77 4.317.67-.74-4.668-4.227 4.926-4.158zm11.295 0l-5.03 4.248-4.636-4.197-.67.742 4.535 4.106-4.85 4.095.645.764 4.953-4.184 4.77 4.317.67-.74-4.668-4.227 4.926-4.158zm11.295 0l-5.03 4.248-4.636-4.197-.67.742 4.535 4.106-4.85 4.095.645.764 4.953-4.184 4.77 4.317.67-.74-4.668-4.227 4.925-4.158zm11.295 0l-5.03 4.248-4.636-4.197-.67.742 4.535 4.106-4.85 4.095.645.764 4.953-4.184 4.77 4.317.67-.74-4.668-4.227 4.925-4.158zm11.295 0l-5.03 4.248-4.636-4.197-.67.742 4.535 4.106-4.85 4.095.645.764 4.953-4.184 4.77 4.317.67-.74-4.669-4.227 4.926-4.158zm11.295 0l-5.03 4.248-4.636-4.197-.67.742 4.535 4.106-4.85 4.095.645.764 4.953-4.184 4.77 4.317.67-.74-4.669-4.227 4.926-4.158zm11.295 0l-5.03 4.248-4.636-4.197-.67.742 4.535 4.106-4.85 4.095.645.764 4.953-4.184 4.77 4.317.67-.74-4.669-4.227 4.926-4.158zm11.295 0l-5.03 4.248-4.637-4.197-.67.742 4.536 4.106-4.85 4.095.645.764 4.953-4.184 4.77 4.317.67-.74-4.669-4.227 4.926-4.158zm11.294 0l-5.029 4.248-4.637-4.197-.67.742 4.536 4.106-4.85 4.095.645.764 4.953-4.184 4.77 4.317.67-.74-4.669-4.227 4.926-4.158zm11.295 0l-5.029 4.248-4.637-4.197-.67.742 4.536 4.106-4.85 4.095.644.764 4.954-4.184 4.77 4.317.67-.74-4.669-4.227 4.926-4.158zm11.295 0l-5.029 4.248-4.637-4.197-.67.742 4.535 4.106-4.85 4.095.645.764 4.954-4.184 4.77 4.317.669-.74-4.668-4.227 4.926-4.158zm11.295 0l-5.03 4.248-4.636-4.197-.67.742 4.535 4.106-4.85 4.095.645.764 4.953-4.184 4.77 4.317.67-.74-4.668-4.227 4.926-4.158zm11.295 0l-5.03 4.248-4.636-4.197-.67.742 4.535 4.106-4.85 4.095.645.764 4.953-4.184 4.77 4.317.67-.74-4.668-4.227 4.926-4.158zm11.295 0l-5.03 4.248-4.636-4.197-.67.742 4.535 4.106-4.85 4.095.645.764 4.953-4.184 4.77 4.317.67-.74-4.668-4.227 4.926-4.158zm11.295 0l-5.03 4.248-4.636-4.197-.67.742 4.535 4.106-4.85 4.095.645.764 4.953-4.184 4.77 4.317.67-.74-4.668-4.227 4.925-4.158zm11.295 0l-5.03 4.248-4.636-4.197-.67.742 4.535 4.106-4.85 4.095.645.764 4.953-4.184 4.77 4.317.67-.74-4.668-4.227 4.925-4.158zm11.295 0l-5.03 4.248-4.636-4.197-.67.742 4.535 4.106-4.85 4.095.645.764 4.953-4.184 4.77 4.317.67-.74-4.668-4.227 4.925-4.158zm11.295 0l-5.03 4.248-4.636-4.197-.67.742 4.535 4.106-4.85 4.095.645.764 4.953-4.184 4.77 4.317.67-.74-4.669-4.227 4.926-4.158zM50.894 206.7l-5.03 4.249-4.636-4.197-.67.742 4.535 4.105-4.85 4.096.645.764 4.953-4.184 4.77 4.316.67-.74-4.668-4.226 4.926-4.159zm11.295 0l-5.03 4.249-4.636-4.197-.67.742 4.535 4.105-4.85 4.096.645.764 4.953-4.184 4.77 4.316.67-.74-4.668-4.226 4.926-4.159zm11.295 0l-5.03 4.249-4.636-4.197-.67.742 4.535 4.105-4.85 4.096.645.764 4.953-4.184 4.77 4.316.67-.74-4.668-4.226 4.926-4.159zm11.295 0l-5.03 4.249-4.636-4.197-.67.742 4.535 4.105-4.85 4.096.645.764 4.953-4.184 4.77 4.316.67-.74-4.668-4.226 4.926-4.159zm11.295 0l-5.03 4.249-4.636-4.197-.67.742 4.535 4.105-4.85 4.096.645.764 4.953-4.184 4.77 4.316.67-.74-4.668-4.226 4.925-4.159zm11.295 0l-5.03 4.249-4.636-4.197-.67.742 4.535 4.105-4.85 4.096.645.764 4.953-4.184 4.77 4.316.67-.74-4.668-4.226 4.925-4.159zm11.295 0l-5.03 4.249-4.636-4.197-.67.742 4.535 4.105-4.85 4.096.645.764 4.953-4.184 4.77 4.316.67-.74-4.669-4.226 4.926-4.159zm11.295 0l-5.03 4.249-4.636-4.197-.67.742 4.535 4.105-4.85 4.096.645.764 4.953-4.184 4.77 4.316.67-.74-4.669-4.226 4.926-4.159zm11.295 0l-5.03 4.249-4.636-4.197-.67.742 4.535 4.105-4.85 4.096.645.764 4.953-4.184 4.77 4.316.67-.74-4.669-4.226 4.926-4.159zm11.295 0l-5.03 4.249-4.637-4.197-.67.742 4.536 4.105-4.85 4.096.645.764 4.953-4.184 4.77 4.316.67-.74-4.669-4.226 4.926-4.159zm11.294 0l-5.029 4.249-4.637-4.197-.67.742 4.536 4.105-4.85 4.096.645.764 4.953-4.184 4.77 4.316.67-.74-4.669-4.226 4.926-4.159zm11.295 0l-5.029 4.249-4.637-4.197-.67.742 4.536 4.105-4.85 4.096.644.764 4.954-4.184 4.77 4.316.67-.74-4.669-4.226 4.926-4.159zm11.295 0l-5.029 4.249-4.637-4.197-.67.742 4.535 4.105-4.85 4.096.645.764 4.954-4.184 4.77 4.316.669-.74-4.668-4.226 4.926-4.159zm11.295 0l-5.03 4.249-4.636-4.197-.67.742 4.535 4.105-4.85 4.096.645.764 4.953-4.184 4.77 4.316.67-.74-4.668-4.226 4.926-4.159zm11.295 0l-5.03 4.249-4.636-4.197-.67.742 4.535 4.105-4.85 4.096.645.764 4.953-4.184 4.77 4.316.67-.74-4.668-4.226 4.926-4.159zm11.295 0l-5.03 4.249-4.636-4.197-.67.742 4.535 4.105-4.85 4.096.645.764 4.953-4.184 4.77 4.316.67-.74-4.668-4.226 4.926-4.159zm11.295 0l-5.03 4.249-4.636-4.197-.67.742 4.535 4.105-4.85 4.096.645.764 4.953-4.184 4.77 4.316.67-.74-4.668-4.226 4.925-4.159zm11.295 0l-5.03 4.249-4.636-4.197-.67.742 4.535 4.105-4.85 4.096.645.764 4.953-4.184 4.77 4.316.67-.74-4.668-4.226 4.925-4.159zm11.295 0l-5.03 4.249-4.636-4.197-.67.742 4.535 4.105-4.85 4.096.645.764 4.953-4.184 4.77 4.316.67-.74-4.668-4.226 4.925-4.159zm11.295 0l-5.03 4.249-4.636-4.197-.67.742 4.535 4.105-4.85 4.096.645.764 4.953-4.184 4.77 4.316.67-.74-4.669-4.226 4.926-4.159zm-214.604 9.891l-5.03 4.249-4.636-4.198-.67.742 4.535 4.106-4.85 4.096.645.763 4.953-4.183 4.77 4.316.67-.74-4.668-4.227 4.926-4.158zm11.295 0l-5.03 4.249-4.636-4.198-.67.742 4.535 4.106-4.85 4.096.645.763 4.953-4.183 4.77 4.316.67-.74-4.668-4.227 4.926-4.158zm11.295 0l-5.03 4.249-4.636-4.198-.67.742 4.535 4.106-4.85 4.096.645.763 4.953-4.183 4.77 4.316.67-.74-4.668-4.227 4.926-4.158zm11.295 0l-5.03 4.249-4.636-4.198-.67.742 4.535 4.106-4.85 4.096.645.763 4.953-4.183 4.77 4.316.67-.74-4.668-4.227 4.926-4.158zm11.295 0l-5.03 4.249-4.636-4.198-.67.742 4.535 4.106-4.85 4.096.645.763 4.953-4.183 4.77 4.316.67-.74-4.668-4.227 4.925-4.158zm11.295 0l-5.03 4.249-4.636-4.198-.67.742 4.535 4.106-4.85 4.096.645.763 4.953-4.183 4.77 4.316.67-.74-4.668-4.227 4.925-4.158zm11.295 0l-5.03 4.249-4.636-4.198-.67.742 4.535 4.106-4.85 4.096.645.763 4.953-4.183 4.77 4.316.67-.74-4.669-4.227 4.926-4.158zm11.295 0l-5.03 4.249-4.636-4.198-.67.742 4.535 4.106-4.85 4.096.645.763 4.953-4.183 4.77 4.316.67-.74-4.669-4.227 4.926-4.158zm11.295 0l-5.03 4.249-4.636-4.198-.67.742 4.535 4.106-4.85 4.096.645.763 4.953-4.183 4.77 4.316.67-.74-4.669-4.227 4.926-4.158zm11.295 0l-5.03 4.249-4.637-4.198-.67.742 4.536 4.106-4.85 4.096.645.763 4.953-4.183 4.77 4.316.67-.74-4.669-4.227 4.926-4.158zm11.294 0l-5.029 4.249-4.637-4.198-.67.742 4.536 4.106-4.85 4.096.645.763 4.953-4.183 4.77 4.316.67-.74-4.669-4.227 4.926-4.158zm11.295 0l-5.029 4.249-4.637-4.198-.67.742 4.536 4.106-4.85 4.096.644.763 4.954-4.183 4.77 4.316.67-.74-4.669-4.227 4.926-4.158zm11.295 0l-5.029 4.249-4.637-4.198-.67.742 4.535 4.106-4.85 4.096.645.763 4.954-4.183 4.77 4.316.669-.74-4.668-4.227 4.926-4.158zm11.295 0l-5.03 4.249-4.636-4.198-.67.742 4.535 4.106-4.85 4.096.645.763 4.953-4.183 4.77 4.316.67-.74-4.668-4.227 4.926-4.158zm11.295 0l-5.03 4.249-4.636-4.198-.67.742 4.535 4.106-4.85 4.096.645.763 4.953-4.183 4.77 4.316.67-.74-4.668-4.227 4.926-4.158zm11.295 0l-5.03 4.249-4.636-4.198-.67.742 4.535 4.106-4.85 4.096.645.763 4.953-4.183 4.77 4.316.67-.74-4.668-4.227 4.926-4.158zm11.295 0l-5.03 4.249-4.636-4.198-.67.742 4.535 4.106-4.85 4.096.645.763 4.953-4.183 4.77 4.316.67-.74-4.668-4.227 4.925-4.158zm11.295 0l-5.03 4.249-4.636-4.198-.67.742 4.535 4.106-4.85 4.096.645.763 4.953-4.183 4.77 4.316.67-.74-4.668-4.227 4.925-4.158zm11.295 0l-5.03 4.249-4.636-4.198-.67.742 4.535 4.106-4.85 4.096.645.763 4.953-4.183 4.77 4.316.67-.74-4.668-4.227 4.925-4.158zm11.295 0l-5.03 4.249-4.636-4.198-.67.742 4.535 4.106-4.85 4.096.645.763 4.953-4.183 4.77 4.316.67-.74-4.669-4.227 4.926-4.158zm-214.604 9.891l-5.03 4.248-4.636-4.197-.67.742 4.535 4.106-4.85 4.095.645.764 4.953-4.184 4.77 4.317.67-.74-4.668-4.227 4.926-4.158zm11.295 0l-5.03 4.248-4.636-4.197-.67.742 4.535 4.106-4.85 4.095.645.764 4.953-4.184 4.77 4.317.67-.74-4.668-4.227 4.926-4.158zm11.295 0l-5.03 4.248-4.636-4.197-.67.742 4.535 4.106-4.85 4.095.645.764 4.953-4.184 4.77 4.317.67-.74-4.668-4.227 4.926-4.158zm11.295 0l-5.03 4.248-4.636-4.197-.67.742 4.535 4.106-4.85 4.095.645.764 4.953-4.184 4.77 4.317.67-.74-4.668-4.227 4.926-4.158zm11.295 0l-5.03 4.248-4.636-4.197-.67.742 4.535 4.106-4.85 4.095.645.764 4.953-4.184 4.77 4.317.67-.74-4.668-4.227 4.925-4.158zm11.295 0l-5.03 4.248-4.636-4.197-.67.742 4.535 4.106-4.85 4.095.645.764 4.953-4.184 4.77 4.317.67-.74-4.668-4.227 4.925-4.158zm11.295 0l-5.03 4.248-4.636-4.197-.67.742 4.535 4.106-4.85 4.095.645.764 4.953-4.184 4.77 4.317.67-.74-4.669-4.227 4.926-4.158zm11.295 0l-5.03 4.248-4.636-4.197-.67.742 4.535 4.106-4.85 4.095.645.764 4.953-4.184 4.77 4.317.67-.74-4.669-4.227 4.926-4.158zm11.295 0l-5.03 4.248-4.636-4.197-.67.742 4.535 4.106-4.85 4.095.645.764 4.953-4.184 4.77 4.317.67-.74-4.669-4.227 4.926-4.158zm11.295 0l-5.03 4.248-4.637-4.197-.67.742 4.536 4.106-4.85 4.095.645.764 4.953-4.184 4.77 4.317.67-.74-4.669-4.227 4.926-4.158zm11.294 0l-5.029 4.248-4.637-4.197-.67.742 4.536 4.106-4.85 4.095.645.764 4.953-4.184 4.77 4.317.67-.74-4.669-4.227 4.926-4.158zm11.295 0l-5.029 4.248-4.637-4.197-.67.742 4.536 4.106-4.85 4.095.644.764 4.954-4.184 4.77 4.317.67-.74-4.669-4.227 4.926-4.158zm11.295 0l-5.029 4.248-4.637-4.197-.67.742 4.535 4.106-4.85 4.095.645.764 4.954-4.184 4.77 4.317.669-.74-4.668-4.227 4.926-4.158zm11.295 0l-5.03 4.248-4.636-4.197-.67.742 4.535 4.106-4.85 4.095.645.764 4.953-4.184 4.77 4.317.67-.74-4.668-4.227 4.926-4.158zm11.295 0l-5.03 4.248-4.636-4.197-.67.742 4.535 4.106-4.85 4.095.645.764 4.953-4.184 4.77 4.317.67-.74-4.668-4.227 4.926-4.158zm11.295 0l-5.03 4.248-4.636-4.197-.67.742 4.535 4.106-4.85 4.095.645.764 4.953-4.184 4.77 4.317.67-.74-4.668-4.227 4.926-4.158zm11.295 0l-5.03 4.248-4.636-4.197-.67.742 4.535 4.106-4.85 4.095.645.764 4.953-4.184 4.77 4.317.67-.74-4.668-4.227 4.925-4.158zm11.295 0l-5.03 4.248-4.636-4.197-.67.742 4.535 4.106-4.85 4.095.645.764 4.953-4.184 4.77 4.317.67-.74-4.668-4.227 4.925-4.158zm11.295 0l-5.03 4.248-4.636-4.197-.67.742 4.535 4.106-4.85 4.095.645.764 4.953-4.184 4.77 4.317.67-.74-4.668-4.227 4.925-4.158zm11.295 0l-5.03 4.248-4.636-4.197-.67.742 4.535 4.106-4.85 4.095.645.764 4.953-4.184 4.77 4.317.67-.74-4.669-4.227 4.926-4.158zm-214.604 9.89l-5.03 4.249-4.636-4.197-.67.742 4.535 4.105-4.85 4.096.645.764 4.953-4.184 4.77 4.316.67-.74-4.668-4.226 4.926-4.159zm11.295 0l-5.03 4.249-4.636-4.197-.67.742 4.535 4.105-4.85 4.096.645.764 4.953-4.184 4.77 4.316.67-.74-4.668-4.226 4.926-4.159zm11.295 0l-5.03 4.249-4.636-4.197-.67.742 4.535 4.105-4.85 4.096.645.764 4.953-4.184 4.77 4.316.67-.74-4.668-4.226 4.926-4.159zm11.295 0l-5.03 4.249-4.636-4.197-.67.742 4.535 4.105-4.85 4.096.645.764 4.953-4.184 4.77 4.316.67-.74-4.668-4.226 4.926-4.159zm11.295 0l-5.03 4.249-4.636-4.197-.67.742 4.535 4.105-4.85 4.096.645.764 4.953-4.184 4.77 4.316.67-.74-4.668-4.226 4.925-4.159zm11.295 0l-5.03 4.249-4.636-4.197-.67.742 4.535 4.105-4.85 4.096.645.764 4.953-4.184 4.77 4.316.67-.74-4.668-4.226 4.925-4.159zm11.295 0l-5.03 4.249-4.636-4.197-.67.742 4.535 4.105-4.85 4.096.645.764 4.953-4.184 4.77 4.316.67-.74-4.669-4.226 4.926-4.159zm11.295 0l-5.03 4.249-4.636-4.197-.67.742 4.535 4.105-4.85 4.096.645.764 4.953-4.184 4.77 4.316.67-.74-4.669-4.226 4.926-4.159zm11.295 0l-5.03 4.249-4.636-4.197-.67.742 4.535 4.105-4.85 4.096.645.764 4.953-4.184 4.77 4.316.67-.74-4.669-4.226 4.926-4.159zm11.295 0l-5.03 4.249-4.637-4.197-.67.742 4.536 4.105-4.85 4.096.645.764 4.953-4.184 4.77 4.316.67-.74-4.669-4.226 4.926-4.159zm11.294 0l-5.029 4.249-4.637-4.197-.67.742 4.536 4.105-4.85 4.096.645.764 4.953-4.184 4.77 4.316.67-.74-4.669-4.226 4.926-4.159zm11.295 0l-5.029 4.249-4.637-4.197-.67.742 4.536 4.105-4.85 4.096.644.764 4.954-4.184 4.77 4.316.67-.74-4.669-4.226 4.926-4.159zm11.295 0l-5.029 4.249-4.637-4.197-.67.742 4.535 4.105-4.85 4.096.645.764 4.954-4.184 4.77 4.316.669-.74-4.668-4.226 4.926-4.159zm11.295 0l-5.03 4.249-4.636-4.197-.67.742 4.535 4.105-4.85 4.096.645.764 4.953-4.184 4.77 4.316.67-.74-4.668-4.226 4.926-4.159zm11.295 0l-5.03 4.249-4.636-4.197-.67.742 4.535 4.105-4.85 4.096.645.764 4.953-4.184 4.77 4.316.67-.74-4.668-4.226 4.926-4.159zm11.295 0l-5.03 4.249-4.636-4.197-.67.742 4.535 4.105-4.85 4.096.645.764 4.953-4.184 4.77 4.316.67-.74-4.668-4.226 4.926-4.159zm11.295 0l-5.03 4.249-4.636-4.197-.67.742 4.535 4.105-4.85 4.096.645.764 4.953-4.184 4.77 4.316.67-.74-4.668-4.226 4.925-4.159zm11.295 0l-5.03 4.249-4.636-4.197-.67.742 4.535 4.105-4.85 4.096.645.764 4.953-4.184 4.77 4.316.67-.74-4.668-4.226 4.925-4.159zm11.295 0l-5.03 4.249-4.636-4.197-.67.742 4.535 4.105-4.85 4.096.645.764 4.953-4.184 4.77 4.316.67-.74-4.668-4.226 4.925-4.159zm11.295 0l-5.03 4.249-4.636-4.197-.67.742 4.535 4.105-4.85 4.096.645.764 4.953-4.184 4.77 4.316.67-.74-4.669-4.226 4.926-4.159zm-214.604 9.891l-5.03 4.248-4.636-4.197-.67.742 4.535 4.106-4.85 4.095.645.764 4.953-4.183 4.77 4.316.67-.74-4.668-4.227 4.926-4.158zm11.295 0l-5.03 4.248-4.636-4.197-.67.742 4.535 4.106-4.85 4.095.645.764 4.953-4.183 4.77 4.316.67-.74-4.668-4.227 4.926-4.158zm11.295 0l-5.03 4.248-4.636-4.197-.67.742 4.535 4.106-4.85 4.095.645.764 4.953-4.183 4.77 4.316.67-.74-4.668-4.227 4.926-4.158zm11.295 0l-5.03 4.248-4.636-4.197-.67.742 4.535 4.106-4.85 4.095.645.764 4.953-4.183 4.77 4.316.67-.74-4.668-4.227 4.926-4.158zm11.295 0l-5.03 4.248-4.636-4.197-.67.742 4.535 4.106-4.85 4.095.645.764 4.953-4.183 4.77 4.316.67-.74-4.668-4.227 4.925-4.158zm11.295 0l-5.03 4.248-4.636-4.197-.67.742 4.535 4.106-4.85 4.095.645.764 4.953-4.183 4.77 4.316.67-.74-4.668-4.227 4.925-4.158zm11.295 0l-5.03 4.248-4.636-4.197-.67.742 4.535 4.106-4.85 4.095.645.764 4.953-4.183 4.77 4.316.67-.74-4.669-4.227 4.926-4.158zm11.295 0l-5.03 4.248-4.636-4.197-.67.742 4.535 4.106-4.85 4.095.645.764 4.953-4.183 4.77 4.316.67-.74-4.669-4.227 4.926-4.158zm11.295 0l-5.03 4.248-4.636-4.197-.67.742 4.535 4.106-4.85 4.095.645.764 4.953-4.183 4.77 4.316.67-.74-4.669-4.227 4.926-4.158zm11.295 0l-5.03 4.248-4.637-4.197-.67.742 4.536 4.106-4.85 4.095.645.764 4.953-4.183 4.77 4.316.67-.74-4.669-4.227 4.926-4.158zm11.294 0l-5.029 4.248-4.637-4.197-.67.742 4.536 4.106-4.85 4.095.645.764 4.953-4.183 4.77 4.316.67-.74-4.669-4.227 4.926-4.158zm11.295 0l-5.029 4.248-4.637-4.197-.67.742 4.536 4.106-4.85 4.095.644.764 4.954-4.183 4.77 4.316.67-.74-4.669-4.227 4.926-4.158zm11.295 0l-5.029 4.248-4.637-4.197-.67.742 4.535 4.106-4.85 4.095.645.764 4.954-4.183 4.77 4.316.669-.74-4.668-4.227 4.926-4.158zm11.295 0l-5.03 4.248-4.636-4.197-.67.742 4.535 4.106-4.85 4.095.645.764 4.953-4.183 4.77 4.316.67-.74-4.668-4.227 4.926-4.158zm11.295 0l-5.03 4.248-4.636-4.197-.67.742 4.535 4.106-4.85 4.095.645.764 4.953-4.183 4.77 4.316.67-.74-4.668-4.227 4.926-4.158zm11.295 0l-5.03 4.248-4.636-4.197-.67.742 4.535 4.106-4.85 4.095.645.764 4.953-4.183 4.77 4.316.67-.74-4.668-4.227 4.926-4.158zm11.295 0l-5.03 4.248-4.636-4.197-.67.742 4.535 4.106-4.85 4.095.645.764 4.953-4.183 4.77 4.316.67-.74-4.668-4.227 4.925-4.158zm11.295 0l-5.03 4.248-4.636-4.197-.67.742 4.535 4.106-4.85 4.095.645.764 4.953-4.183 4.77 4.316.67-.74-4.668-4.227 4.925-4.158zm11.295 0l-5.03 4.248-4.636-4.197-.67.742 4.535 4.106-4.85 4.095.645.764 4.953-4.183 4.77 4.316.67-.74-4.668-4.227 4.925-4.158zm11.295 0l-5.03 4.248-4.636-4.197-.67.742 4.535 4.106-4.85 4.095.645.764 4.953-4.183 4.77 4.316.67-.74-4.669-4.227 4.926-4.158z" color="#000"/>
    <g fill="#f55" stroke="#ffd5d5" paint-order="markers stroke fill">
        <path stroke-width="5.8" d="M141.688 127.184c-8.38.427-15.06 7.394-15.06 15.899v.199.201c0 8.505 6.68 15.471 15.06 15.898h.031v-1.916c-.09-.005-1.244-1.052 1.025-1.515l-.023-.006c.073-.69-.104-1.17.014-1.531-.883-.096-1.785.275-1.72-1.141.047-1.065.402-.35 1.694-.815-.078-.298.1-.752-.12-.828-1.482-.51-1.165-1.023-1.132-2.588-1.14.054-1.416.011-1.814-.002-.377-.012.025.464.03.913.003.428-6.442.081-7.186.011-.237 1.61 2.216 3.671 4.402 4.776 3.48-.55-4.398-3.259 2.543-2.625.271 2.111.17 4.144.111 5.058-6.144-1.326-10.773-6.105-10.992-12.617l6.262-.025s1.644 2.53-2.602 1.746c-2.168-2.433-1.794 4.387.588 2.316 4.689.03 5.181.079 5.213.096v-.022l.098-5.384-.098-5.383v-.022c-.032.017-.524.067-5.213.096-2.382-2.07-2.756 4.75-.588 2.316 4.246-.785 2.602 1.746 2.602 1.746l-6.262-.025c.219-6.512 4.848-11.291 10.992-12.617.058.914.16 2.947-.11 5.058-6.942.634.935-2.075-2.544-2.625-2.186 1.105-4.64 3.166-4.402 4.776.744-.07 7.19-.417 7.185.012-.004.448-.406.924-.029.912.398-.013.673-.055 1.814-.002-.033-1.565-.35-2.078 1.131-2.588.221-.076.043-.53.121-.828-1.292-.464-1.647.25-1.695-.815-.064-1.416.838-1.045 1.72-1.14-.117-.363.06-.841-.013-1.532l.023-.006c-2.27-.463-1.116-1.51-1.025-1.515v-1.916h-.031zm2.082 0v1.916c.09.005 1.244 1.053-1.025 1.516l.023.006c-.073.69.104 1.169-.014 1.531.883.095 1.785-.276 1.72 1.14-.047 1.065-.402.351-1.694.815.078.299-.1.752.12.828 1.482.51 1.165 1.024 1.132 2.588 1.14-.053 1.416-.01 1.814.002.377.012-.025-.463-.03-.912-.003-.429 6.442-.082 7.186-.012.237-1.61-2.216-3.67-4.402-4.775-3.48.55 4.398 3.258-2.543 2.625-.271-2.112-.17-4.144-.111-5.059 6.144 1.326 10.773 6.106 10.992 12.618l-6.262.025s-1.644-2.531 2.602-1.746c2.169 2.433 1.794-4.387-.588-2.317-4.689-.029-5.181-.078-5.213-.095v.021l-.1 5.383.1 5.385v.021c.032-.017.524-.066 5.213-.095 2.382 2.07 2.757-4.75.588-2.317-4.246.785-2.602-1.746-2.602-1.746l6.262.026c-.219 6.511-4.848 11.291-10.992 12.617-.058-.915-.16-2.947.111-5.059 6.941-.633-.936 2.076 2.543 2.625 2.186-1.105 4.64-3.165 4.402-4.775-.744.07-7.19.417-7.185-.012.004-.449.406-.924.029-.912-.398.013-.673.055-1.814.002.033 1.564.35 2.078-1.131 2.588-.221.076-.043.529-.121.828 1.292.464 1.647-.25 1.695.814.064 1.417-.838 1.046-1.72 1.141.117.362-.06.84.013 1.531l-.023.006c2.27.463 1.116 1.51 1.025 1.516v1.916h.031c8.38-.427 15.06-7.394 15.06-15.899l-.001-.2.002-.2c0-8.505-6.68-15.471-15.06-15.898h-.032zm-1.117 12.188a1.006 1.006 0 00-.967 1.254 1.006 1.006 0 00-.92 1.134 1.008 1.008 0 00-.761.971c0 .203.061.392.168.55a.993.993 0 00-.168.554c0 .465.327.862.761.97a1.006 1.006 0 00.92 1.135 1.006 1.006 0 001.059 1.25 1.006 1.006 0 001.059-1.25 1.006 1.006 0 00.919-1.135c.434-.108.762-.505.762-.97a.993.993 0 00-.168-.553.987.987 0 00.168-.551c0-.466-.328-.862-.762-.97a1.006 1.006 0 00-.92-1.135 1.006 1.006 0 00-1.059-1.25.931.931 0 00-.091-.004z" color="#000"/>
        <path stroke-width="7.4" d="M129.298 163.5s-27.218-.42-31.577 5.814c7.962.58 33.22-1.549 25.156 2.462-21.302 10.593-40.883 8.502-40.883 8.502s27.953-1.813 34.062-8.69c2.876-3.237-23.514 3.178-25.187-1.77 5.758-8.94 38.43-6.318 38.43-6.318z"/>
        <path stroke-width="6.7" d="M131.824 172.379s15.748-4.465 32.124-2.728c14.602 1.55 29.984 9.958 30.75.627.882-3.65-33.891-2.666-34.936-8.064 5.291-12.542 29.405.127 44.52-2.733.665-12.967-38.43-6.356-38.43-6.356s48.302-10.736 48.604 5.57c.209 11.24-46.261-5.694-47.256 3.166 0 0 35.811 1.46 34.761 8.693-1.737 11.96-20.408 5.474-38.048 2.765-16.495-2.534-32.089-.94-32.089-.94z"/>
        <path stroke-width="6.7" d="M131.824 172.379s15.748-4.465 32.124-2.728c14.602 1.55 29.984 9.958 30.75.627.882-3.65-33.891-2.666-34.936-8.064 5.291-12.542 29.405.127 44.52-2.733.665-12.967-38.43-6.356-38.43-6.356s48.302-10.736 48.604 5.57c.209 11.24-46.261-5.694-47.256 3.166 0 0 35.811 1.46 34.761 8.693-1.737 11.96-20.408 5.474-38.048 2.765-16.495-2.534-32.089-.94-32.089-.94z"/>
    </g>
    <path fill="#f55" stroke="#ffd5d5" stroke-width="7.4" d="M122.034 58.56s-27.22-.419-31.578 5.814c7.962.58 33.22-1.548 25.156 2.462-21.301 10.593-40.883 8.503-40.883 8.503s27.953-1.814 34.062-8.69c2.876-3.237-23.514 3.177-25.187-1.772 5.758-8.94 38.43-6.317 38.43-6.317z" paint-order="markers stroke fill"/>
    <path style="-inkscape-stroke:none" fill="#f55" stroke="#ffd5d5" stroke-width=".542" d="M134.76 66.721c-11.754-.07-23.367 6.217-20.407 11.66.016.029.035.05.052.078l-1.782 1.89-.446-2.538c5.254-1.126-4.507-17.91-8.084-19.704 1.984 5.8 1.579 20.203 7.721 19.758.032-.002.06-.008.091-.011.058.445.253 1.924.394 2.54-.339-.31-1.678-.526-2.287-.61.474-4.586-11.273-5.458-14.742-2.97 5.812 1.479 13.8 7.504 14.697 3.27a.13.14 23.218 01-.101-.003s-2.148-1.032-4.974-1.95c-2.827-.919-6.333-1.717-9.011-1.263a.13.14 23.218 01-.145-.115.13.14 23.218 01.117-.159c2.763-.468 6.287.346 9.13 1.27 1.421.462 2.672.952 3.568 1.327a34.19 34.19 0 011.436.636.13.14 23.218 01.057.183.13.14 23.218 01-.075.072c.531.105 1.541.318 2.122.52-4.498 2.263-6.718 6.643-8.703 10.442-.153.117.411.42.587.404 2.218-5.41 4.542-8.195 8.427-10.261.02.654.126 1.748.603 2.08-3.751 2.912 2.915 6.99 6.142 10.63-.274-5.065-3.047-12.751-5.891-10.817l-.028.02c-.49-.758-.47-2.072-.47-2.098l.007-.004 2.274.22c-.6 4.359 13.79 3.192 20.301 5.18-3.452-5.732-18.985-10.01-20.248-5.463l-2.33-.278 1.795-1.969c2.355 2.94 10.268-5.79 20.203-11.967zm-.64.075a.13.14 23.218 01.124.14.13.14 23.218 01-.14.139c-1.212-.003-3.059.71-5.12 1.794-2.06 1.084-4.342 2.535-6.467 3.986a143.968 143.968 0 00-7.872 5.806.13.14 23.218 01-.184-.023.13.14 23.218 01.032-.195s3.63-2.91 7.89-5.82c2.13-1.454 4.419-2.908 6.495-4 2.076-1.093 3.933-1.83 5.242-1.827zm-29.615-8.387c.692.542 1.472 1.996 2.31 3.895.836 1.9 1.71 4.239 2.503 6.515 1.586 4.552 2.85 8.85 2.85 8.85a.13.14 23.218 01-.087.179.13.14 23.218 01-.165-.083s-1.263-4.293-2.846-8.837c-.792-2.272-1.664-4.607-2.496-6.495-.832-1.888-1.644-3.335-2.234-3.797a.13.14 23.218 01-.02-.194.13.14 23.218 01.185-.033zm27.695 25.88c.163.071.322.142.477.216.827.392 1.534.824 2.071 1.3a.13.14 23.218 01.01.196.13.14 23.218 01-.186.021c-2.046-1.814-6.916-3.044-11.257-3.792-4.34-.748-8.159-1.032-8.159-1.032a.13.14 23.218 01-.113-.148.13.14 23.218 01.147-.13s3.828.285 8.182 1.035c3.061.528 6.38 1.275 8.828 2.335zm-18.984-1.188a.13.14 23.218 01.089.047s1.192 1.502 2.494 3.475c1.301 1.973 2.716 4.411 3.162 6.329a.13.14 23.218 01-.097.173.13.14 23.218 01-.16-.093c-.428-1.84-1.83-4.278-3.125-6.24-1.295-1.963-2.48-3.458-2.48-3.458a.13.14 23.218 01.02-.197.13.14 23.218 01.097-.035zM187.395 120.717c-10.83 4.568-19.024 14.925-14.158 18.76.026.02.052.033.079.052l-.892 2.44-1.411-2.158c4.384-3.107-11.203-14.683-15.197-14.92 4.11 4.546 9.415 17.943 14.885 15.113.028-.015.052-.031.079-.046.228.386.991 1.668 1.363 2.178-.433-.15-1.749.179-2.343.342-1.371-4.402-12.51-.573-14.718 3.083 5.924-.933 15.641 1.454 14.796-2.79a.13.14 0 01-.094.038s-2.38-.102-5.34.168-6.497.92-8.78 2.392a.13.14 0 01-.177-.048.13.14 0 01.045-.193c2.354-1.519 5.913-2.16 8.89-2.431a46.872 46.872 0 013.803-.187c.97-.008 1.57.017 1.57.017a.13.14 0 01.124.146.13.14 0 01-.04.096c.53-.112 1.542-.316 2.155-.359-3.24 3.853-3.555 8.754-3.882 13.028-.093.167.544.224.7.14-.095-5.847.943-9.322 3.699-12.753.275.594.804 1.557 1.374 1.674-2.3 4.155 5.434 5.275 9.836 7.348-2.25-4.547-7.828-10.517-9.68-7.619-.006.01-.01.02-.017.03-.75-.504-1.25-1.719-1.259-1.743l.005-.007 2.176-.694c1.167 4.242 13.932-2.503 20.7-3.243-5.433-3.907-21.394-1.715-20.762 2.962l-2.251.662.874-2.516c3.323 1.774 7.152-9.37 13.848-18.963zm-.56.32a.13.14 0 01.17.08.13.14 0 01-.074.183c-1.115.475-2.53 1.858-3.997 3.667-1.467 1.81-2.991 4.042-4.372 6.213-2.762 4.342-4.946 8.439-4.946 8.439a.13.14 0 01-.178.052.13.14 0 01-.048-.192s2.188-4.105 4.957-8.459c1.385-2.176 2.914-4.415 4.391-6.238 1.478-1.822 2.894-3.231 4.098-3.744zm-30.522 3.968c.85.225 2.14 1.254 3.658 2.67 1.518 1.415 3.243 3.22 4.87 5a213.809 213.809 0 016.108 7.01.13.14 0 01-.01.198.13.14 0 01-.184-.011s-2.853-3.448-6.1-7c-1.623-1.775-3.345-3.577-4.854-4.984s-2.826-2.417-3.55-2.61a.13.14 0 01-.096-.17.13.14 0 01.158-.103zm35.655 12.866c.177.001.352.003.524.01.914.034 1.734.153 2.415.379a.13.14 0 01.087.176.13.14 0 01-.163.092c-2.596-.86-7.556-.07-11.84.953a96.091 96.091 0 00-7.905 2.268.13.14 0 01-.163-.091.13.14 0 01.085-.177s3.63-1.247 7.927-2.275c3.021-.722 6.366-1.343 9.033-1.334zm-17.915 6.393a.13.14 0 01.1.008s1.688.91 3.662 2.21c1.974 1.3 4.235 2.983 5.402 4.569a.13.14 0 01-.022.198.13.14 0 01-.183-.023c-1.12-1.522-3.368-3.21-5.332-4.503-1.964-1.293-3.643-2.2-3.643-2.2a.13.14 0 01-.059-.189.13.14 0 01.075-.07z" color="#000" paint-order="markers stroke fill"/>
    <path style="-inkscape-stroke:none" fill="#f55" stroke="#ffd5d5" stroke-width=".655" d="M128.857 180.777c14.29 1.572 29.02-4.456 25.942-11.32-.017-.036-.039-.065-.056-.1l2.348-2.028.3 3.082c-6.5.68 3.761 21.925 7.94 24.515-1.857-7.164.02-24.286-7.494-24.533-.039-.001-.074.002-.112.002-.027-.538-.123-2.326-.235-3.078.382.412 1.99.839 2.724 1.017-1.018 5.407 13.186 7.933 17.645 5.404-6.928-2.497-16.066-10.691-17.562-5.757a.16.168 28.496 01.122.016s2.513 1.502 5.863 2.955c3.35 1.452 7.538 2.847 10.839 2.645a.16.168 28.496 01.165.155.16.168 28.496 01-.158.175c-3.405.209-7.613-1.208-10.982-2.67a59.468 59.468 0 01-4.212-2.033c-1.054-.56-1.687-.939-1.687-.939a.16.168 28.496 01-.05-.226.16.168 28.496 01.098-.076c-.637-.193-1.845-.574-2.532-.889 5.688-2.13 8.81-7.07 11.589-11.349.196-.12-.46-.553-.675-.555-3.218 6.17-6.312 9.195-11.236 11.168.04-.782.015-2.1-.534-2.556 4.843-2.998-2.874-8.703-6.45-13.452-.153 6.074 2.482 15.589 6.127 13.643l.036-.021c.523.966.373 2.53.37 2.561-.003 0-.006.004-.009.004l-2.744-.55c1.148-5.12-16.467-5.55-24.195-8.743 3.648 7.27 22.13 14.336 24.103 9.073l2.807.627-2.373 2.12c-2.581-3.803-13.044 5.605-25.722 11.713zm.786-.008a.16.168 28.496 01-.137-.182.16.168 28.496 01.183-.148c1.474.157 3.789-.46 6.4-1.492 2.61-1.032 5.524-2.473 8.248-3.934 5.448-2.922 10.133-5.926 10.133-5.926a.16.168 28.496 01.221.05.16.168 28.496 01-.057.228s-4.694 3.01-10.156 5.94c-2.73 1.465-5.653 2.91-8.284 3.95-2.63 1.04-4.96 1.683-6.55 1.514zm35.216 13.746c-.79-.734-1.6-2.566-2.435-4.936-.836-2.37-1.674-5.27-2.42-8.085-1.492-5.627-2.616-10.913-2.616-10.913a.16.168 28.496 01.123-.2.16.168 28.496 01.193.119s1.123 5.278 2.612 10.896c.745 2.809 1.582 5.703 2.413 8.059.83 2.356 1.68 4.185 2.352 4.81a.16.168 28.496 01.006.234.16.168 28.496 01-.229.016zm-31.2-34.36c-.192-.105-.38-.21-.56-.318-.969-.571-1.787-1.176-2.394-1.812a.16.168 28.496 01.007-.235.16.168 28.496 01.228 0c2.315 2.421 8.12 4.504 13.328 5.945a121.03 121.03 0 009.824 2.262.16.168 28.496 01.124.19.16.168 28.496 01-.191.137s-4.629-.824-9.853-2.269c-3.673-1.016-7.638-2.327-10.513-3.9zm22.976 3.818a.16.168 28.496 01-.103-.068s-1.306-1.942-2.7-4.459c-1.394-2.517-2.88-5.602-3.24-7.945a.16.168 28.496 01.136-.194.16.168 28.496 01.185.131c.345 2.249 1.815 5.332 3.202 7.836a67.39 67.39 0 002.685 4.436.16.168 28.496 01-.044.232.16.168 28.496 01-.121.03z" color="#000" paint-order="markers stroke fill"/>
    <path style="-inkscape-stroke:none" fill="#f55" stroke="#ffd5d5" stroke-width=".542" d="M88.745 142.335c2.858 11.402 11.839 21.084 16.373 16.863.024-.023.04-.048.063-.07l2.274 1.254-2.347 1.064c-2.4-4.808-16.224 8.824-17.07 12.735 5.121-3.365 19.173-6.558 17.213-12.397-.01-.03-.023-.056-.034-.085.417-.167 1.801-.724 2.362-1.014-.215.405-.091 1.756-.022 2.368-4.559.681-2.48 12.276.795 15.016-.015-5.997 3.831-15.234-.492-15.048a.14.13 8.803 01.022.098s-.465 2.338-.65 5.304c-.186 2.966-.086 6.56 1.02 9.041a.14.13 8.803 01-.075.169.14.13 8.803 01-.184-.074c-1.14-2.56-1.229-6.175-1.042-9.158a46.87 46.87 0 01.397-3.786c.14-.961.258-1.55.258-1.55a.14.13 8.803 01.163-.1.14.13 8.803 01.089.055c-.03-.541-.076-1.572-.025-2.185 3.311 3.792 8.106 4.853 12.28 5.83.151.118.305-.504.245-.67-5.792-.801-9.067-2.359-12.036-5.607.628-.181 1.662-.557 1.864-1.102 3.755 2.908 6.045-4.563 8.767-8.595-4.837 1.526-11.591 6.125-9.01 8.399.009.009.017.014.027.021-.613.664-1.89.972-1.915.978l-.006-.006-.354-2.257c4.372-.504-.341-14.15-.037-20.952-4.692 4.771-4.968 20.88-.25 20.97l.31 2.327-2.352-1.249c2.261-3.013-8.165-8.502-16.62-16.587zm.232.602a.14.13 8.803 01.104-.155.14.13 8.803 01.17.1c.299 1.176 1.449 2.786 3.012 4.512 1.564 1.726 3.536 3.575 5.47 5.272a143.961 143.961 0 007.583 6.178.14.13 8.803 01.024.184.14.13 8.803 01-.196.018s-3.722-2.79-7.6-6.193c-1.94-1.701-3.918-3.555-5.493-5.294-1.575-1.739-2.751-3.354-3.074-4.622zm-.75 30.77c.352-.805 1.566-1.923 3.197-3.206 1.631-1.284 3.68-2.712 5.687-4.047 4.013-2.67 7.862-4.964 7.862-4.964a.14.13 8.803 01.194.04.14.13 8.803 01-.039.18s-3.843 2.293-7.85 4.957c-2.003 1.332-4.047 2.759-5.669 4.034-1.621 1.276-2.82 2.423-3.121 3.11a.14.13 8.803 01-.184.068.14.13 8.803 01-.078-.172zm18.17-33.266c.029-.175.058-.347.09-.516.174-.898.417-1.69.745-2.33a.14.13 8.803 01.187-.058.14.13 8.803 01.066.175c-1.247 2.434-1.226 7.457-.87 11.847a96.093 96.093 0 001.032 8.159.14.13 8.803 01-.116.147.14.13 8.803 01-.162-.11s-.677-3.779-1.034-8.183c-.252-3.096-.354-6.496.063-9.13zm3.576 18.682a.14.13 8.803 01.023-.097s1.159-1.529 2.745-3.28c1.587-1.753 3.596-3.73 5.342-4.64a.14.13 8.803 01.192.052.14.13 8.803 01-.05.177c-1.676.874-3.688 2.838-5.266 4.58-1.579 1.744-2.731 3.264-2.731 3.264a.14.13 8.803 01-.197.03.14.13 8.803 01-.058-.086z" color="#000" paint-order="markers stroke fill"/>
</svg>
