<svg xmlns="http://www.w3.org/2000/svg" cursor="default" viewBox="0 0 256 256">
    <defs>
        <linearGradient id="linearGradient924" x1="18.12" x2="21.466" y1="241.29" y2="228.73" gradientTransform="scale(1 -1) rotate(-89.503 -.246 -.024)" gradientUnits="userSpaceOnUse">
            <stop offset="0" stop-color="#917c6f"/>
            <stop offset="1" stop-color="#ac9d93"/>
        </linearGradient>
        <linearGradient id="innoGrad4">
            <stop offset="0" stop-color="#ffb380"/>
            <stop offset="1" stop-color="#fca"/>
        </linearGradient>
    </defs>
    <path fill="#ffd5d5" fill-opacity=".994" stroke="#ffd5d5" stroke-linecap="round" stroke-linejoin="round" stroke-width="7.873" d="M-.083 1.212h256.036v254.815H-.083z" paint-order="stroke markers fill"/>
    <path style="-inkscape-stroke:none" fill="#f55" d="M15.412-4.775l-5.03 4.248-4.636-4.198-.67.743L9.611.123 4.761 4.22l.645.763L10.36.8l4.77 4.316.67-.74L11.13.148l4.926-4.158-.645-.765zm11.295 0l-5.03 4.248-4.636-4.198-.67.743L20.906.123l-4.85 4.096.645.763L21.654.8l4.77 4.316.67-.74L22.426.148l4.926-4.158-.645-.765zm11.295 0l-5.03 4.248-4.636-4.198-.67.743L32.201.123l-4.85 4.096.645.763L32.95.8l4.77 4.316.67-.74L33.72.148l4.925-4.158-.644-.765zm11.295 0l-5.03 4.248-4.636-4.198-.67.743L43.496.123l-4.85 4.096.645.763L44.244.8l4.77 4.316.67-.74L45.016.148 49.94-4.01l-.644-.765zm11.295 0l-5.03 4.248-4.636-4.198-.67.743L54.79.123l-4.85 4.096.645.763L55.539.8l4.77 4.316.67-.74L56.31.148l4.925-4.158-.644-.765zm11.295 0l-5.03 4.248-4.636-4.198-.67.743L66.086.123l-4.85 4.096.645.763L66.834.8l4.77 4.316.67-.74L67.604.148l4.926-4.158-.644-.765zm11.295 0l-5.03 4.248-4.636-4.198-.67.743L77.38.123 72.53 4.22l.645.763L78.129.8l4.77 4.316.67-.74L78.9.148l4.926-4.158-.644-.765zm11.295 0l-5.03 4.248-4.636-4.198-.67.743L88.676.123l-4.85 4.096.645.763L89.424.8l4.77 4.316.67-.74L90.194.148l4.926-4.158-.644-.765zm11.294 0l-5.029 4.248-4.637-4.198-.67.743L99.972.123 95.12 4.22l.645.763L100.719.8l4.77 4.316.67-.74L101.49.148l4.926-4.158-.645-.765zm11.295 0l-5.029 4.248-4.637-4.198-.67.743 4.536 4.105-4.85 4.096.645.763L112.014.8l4.77 4.316.67-.74-4.669-4.227 4.926-4.158-.645-.765zm11.295 0l-5.029 4.248-4.637-4.198-.67.743 4.536 4.105-4.85 4.096.644.763L123.31.8l4.77 4.316.669-.74L124.08.148l4.926-4.158-.645-.765zm11.295 0l-5.03 4.248-4.636-4.198-.67.743 4.535 4.105-4.85 4.096.645.763L134.604.8l4.769 4.316.67-.74-4.668-4.227 4.926-4.158-.645-.765zm11.295 0l-5.03 4.248-4.636-4.198-.67.743L145.15.123 140.3 4.22l.645.763L145.898.8l4.77 4.316.67-.74L146.67.148l4.926-4.158-.645-.765zm11.295 0l-5.03 4.248-4.636-4.198-.67.743 4.535 4.105-4.85 4.096.645.763L157.193.8l1.37 1.238c.17-.295.34-.6.511-.885l-1.11-1.004 4.891-4.127.032-.035-.64-.761zm11.295 0l-.56.472c.19.234.378.563.568.83l.637-.537-.645-.765zm11.295 0l-5.03 4.248-4.636-4.198-.67.743 4.535 4.105-2.521 2.129c.128.32.255.645.382.984L179.783.8l4.77 4.316.67-.74-4.668-4.227 4.925-4.158-.644-.765zm11.295 0L191.1-.527l-4.636-4.198-.67.743L190.33.123l-4.85 4.096.645.763L191.078.8l4.77 4.316.67-.74L191.85.148l4.925-4.158-.644-.765zm11.295 0l-5.03 4.248-4.636-4.198-.67.743 4.535 4.105-4.85 4.096.645.763L202.373.8l4.77 4.316.67-.74-4.668-4.227 4.925-4.158-.644-.765zm11.295 0l-5.03 4.248-4.636-4.198-.67.743L212.92.123l-4.85 4.096.645.763L213.668.8l4.77 4.316.67-.74-4.669-4.227 4.926-4.158-.644-.765zm11.295 0l-5.03 4.248-4.636-4.198-.67.743 4.535 4.105-4.85 4.096.645.763L224.963.8l4.77 4.316.67-.74-4.669-4.227 4.926-4.158-.644-.765zM15.412 5.115l-5.03 4.248-4.636-4.197-.67.742 4.535 4.106-4.85 4.095.645.764 4.953-4.184 4.77 4.317.67-.74-4.668-4.227 4.926-4.158-.645-.766zm11.295 0l-5.03 4.248-4.636-4.197-.67.742 4.535 4.106-4.85 4.095.645.764 4.953-4.184 4.77 4.317.67-.74-4.668-4.227 4.926-4.158-.645-.766zm11.295 0l-5.03 4.248-4.636-4.197-.67.742 4.535 4.106-4.85 4.095.645.764 4.953-4.184 4.77 4.317.67-.74-4.668-4.227 4.925-4.158-.644-.766zm11.295 0l-5.03 4.248-4.636-4.197-.67.742 4.535 4.106-4.85 4.095.645.764 4.953-4.184 4.77 4.317.67-.74-4.668-4.227 4.925-4.158-.644-.766zm11.295 0l-5.03 4.248-4.636-4.197-.67.742 4.535 4.106-4.85 4.095.645.764 4.953-4.184 4.77 4.317.67-.74-4.668-4.227 4.925-4.158-.644-.766zm11.295 0l-5.03 4.248-4.636-4.197-.67.742 4.535 4.106-4.85 4.095.645.764 4.953-4.184 4.77 4.317.67-.74-4.669-4.227 4.926-4.158-.644-.766zm11.295 0l-5.03 4.248-4.636-4.197-.67.742 4.535 4.106-4.85 4.095.645.764 4.953-4.184 4.77 4.317.67-.74-4.669-4.227 4.926-4.158-.644-.766zm11.295 0l-5.03 4.248-4.636-4.197-.67.742 4.535 4.106-4.85 4.095.645.764 4.953-4.184 4.77 4.317.67-.74-4.669-4.227 4.926-4.158-.644-.766zm11.294 0l-5.029 4.248-4.637-4.197-.67.742 4.536 4.106-4.85 4.095.645.764 4.953-4.184 4.77 4.317.67-.74-4.669-4.227 4.926-4.158-.645-.766zm11.295 0l-5.029 4.248-4.637-4.197-.67.742 4.536 4.106-4.85 4.095.645.764 4.953-4.184 4.77 4.317.67-.74-4.669-4.227 4.926-4.158-.645-.766zm11.295 0l-5.029 4.248-4.637-4.197-.67.742 4.536 4.106-4.85 4.095.644.764 4.954-4.184 4.77 4.317.669-.74-4.668-4.227 4.926-4.158-.645-.766zm11.295 0l-5.03 4.248-4.636-4.197-.67.742 4.535 4.106-4.85 4.095.645.764 4.954-4.184 4.769 4.317.67-.74-4.668-4.227 4.926-4.158-.645-.766zm11.295 0l-5.03 4.248-4.636-4.197-.67.742 4.535 4.106-4.85 4.095.645.764 4.953-4.184 4.77 4.317.67-.74-4.668-4.227 4.926-4.158-.645-.766zm33.885 0l-5.03 4.248-1.26-1.14c.26.894.515 1.875.77 2.861l.467-.395 4.77 4.317.67-.74-4.668-4.227 4.925-4.158-.644-.766zm11.295 0l-5.03 4.248-4.636-4.197-.67.742 4.535 4.106-4.85 4.095.645.764 4.953-4.184 4.77 4.317.67-.74-4.668-4.227 4.925-4.158-.644-.766zm11.295 0l-5.03 4.248-4.636-4.197-.67.742 4.535 4.106-4.85 4.095.645.764 4.953-4.184 4.77 4.317.67-.74-4.668-4.227 4.925-4.158-.644-.766zm11.295 0l-5.03 4.248-4.636-4.197-.67.742 4.535 4.106-4.85 4.095.645.764 4.953-4.184 4.77 4.317.67-.74-4.669-4.227 4.926-4.158-.644-.766zm11.295 0l-5.03 4.248-4.636-4.197-.67.742 4.535 4.106-4.85 4.095.645.764 4.953-4.184 4.77 4.317.67-.74-4.669-4.227 4.926-4.158-.644-.766zm-77.436.051l-.67.742 3.246 2.938c.145-.32.287-.64.434-.955l-3.01-2.725zm1 7.268l-1.984 1.675.644.764.565-.477c.259-.656.506-1.309.775-1.962zM15.412 15.006l-5.03 4.248-4.636-4.197-.67.742 4.535 4.105L4.761 24l.645.764 4.953-4.184 4.77 4.316.67-.74-4.668-4.226 4.926-4.159-.645-.765zm11.295 0l-5.03 4.248-4.636-4.197-.67.742 4.535 4.105L16.056 24l.645.764 4.953-4.184 4.77 4.316.67-.74-4.668-4.226 4.926-4.159-.645-.765zm11.295 0l-5.03 4.248-4.636-4.197-.67.742 4.535 4.105L27.351 24l.645.764 4.953-4.184 4.77 4.316.67-.74-4.668-4.226 4.925-4.159-.644-.765zm11.295 0l-5.03 4.248-4.636-4.197-.67.742 4.535 4.105L38.646 24l.645.764 4.953-4.184 4.77 4.316.67-.74-4.668-4.226 4.925-4.159-.644-.765zm11.295 0l-5.03 4.248-4.636-4.197-.67.742 4.535 4.105L49.941 24l.645.764 4.953-4.184 4.77 4.316.67-.74-4.668-4.226 4.925-4.159-.644-.765zm11.295 0l-5.03 4.248-4.636-4.197-.67.742 4.535 4.105L61.236 24l.645.764 4.953-4.184 4.77 4.316.67-.74-4.669-4.226 4.926-4.159-.644-.765zm11.295 0l-5.03 4.248-4.636-4.197-.67.742 4.535 4.105L72.53 24l.645.764 4.953-4.184 4.77 4.316.67-.74L78.9 19.93l4.926-4.159-.644-.765zm11.295 0l-5.03 4.248-4.636-4.197-.67.742 4.535 4.105L83.826 24l.645.764 4.953-4.184 4.77 4.316.67-.74-4.669-4.226 4.926-4.159-.644-.765zm11.294 0l-5.029 4.248-4.637-4.197-.67.742 4.536 4.105L95.12 24l.645.764 4.953-4.184 4.77 4.316.67-.74-4.669-4.226 4.926-4.159-.645-.765zm11.295 0l-5.029 4.248-4.637-4.197-.67.742 4.536 4.105-4.85 4.096.645.764 4.953-4.184 4.77 4.316.67-.74-4.669-4.226 4.926-4.159-.645-.765zm11.295 0l-5.029 4.248-4.637-4.197-.67.742 4.536 4.105L117.71 24l.644.764 4.954-4.184 1.798 1.629a8.944 8.944 0 011.541.047l-2.568-2.326 4.926-4.159-.645-.765zm11.295 0l-5.03 4.248-4.636-4.197-.67.742 4.535 4.105-3.826 3.23c.357.13.71.25 1.076.401l3.499-2.955 4.769 4.316.67-.74-4.668-4.226 4.926-4.159-.645-.765zm11.295 0l-5.03 4.248-4.636-4.197-.67.742 4.535 4.105L140.3 24l.645.764 4.953-4.184 3.493 3.16c.116-.348.226-.677.347-1.033l-3.068-2.777 4.926-4.159-.645-.765zm33.885 0l-3.877 3.275c.076.377.155.727.23 1.114l4.291-3.624-.644-.765zm11.295 0l-5.03 4.248-4.636-4.197-.67.742 4.535 4.105L185.48 24l.645.764 4.953-4.184 4.77 4.316.67-.74-4.668-4.226 4.925-4.159-.644-.765zm11.295 0l-5.03 4.248-4.636-4.197-.67.742 4.535 4.105-4.85 4.096.645.764 4.953-4.184 4.77 4.316.67-.74-4.668-4.226 4.925-4.159-.644-.765zm11.295 0l-5.03 4.248-4.636-4.197-.67.742 4.535 4.105L208.07 24l.645.764 4.953-4.184 4.77 4.316.67-.74-4.669-4.226 4.926-4.159-.644-.765zm11.295 0l-5.03 4.248-4.636-4.197-.67.742 4.535 4.105-4.85 4.096.645.764 4.953-4.184 4.77 4.316.67-.74-4.669-4.226 4.926-4.159-.644-.765zm-77.5.121l-.606.672.252.228c.115-.3.237-.6.354-.9zm28.957 5.635c.094.5.184 1.082.277 1.597l2.803 2.537.67-.74-3.75-3.394zm-166.06 4.134l-5.03 4.249-4.637-4.198-.67.742 4.535 4.106-4.85 4.096.645.763 4.953-4.183 4.77 4.316.67-.74-4.668-4.227 4.926-4.158-.645-.766zm11.294 0l-5.03 4.249-4.636-4.198-.67.742 4.535 4.106-4.85 4.096.645.763 4.953-4.183 4.77 4.316.67-.74-4.668-4.227 4.926-4.158-.645-.766zm11.295 0l-5.03 4.249-4.636-4.198-.67.742 4.535 4.106-4.85 4.096.645.763 4.953-4.183 4.77 4.316.67-.74-4.668-4.227 4.925-4.158-.644-.766zm11.295 0l-5.03 4.249-4.636-4.198-.67.742 4.535 4.106-4.85 4.096.645.763 4.953-4.183 4.77 4.316.67-.74-4.668-4.227 4.925-4.158-.644-.766zm11.295 0l-5.03 4.249-4.636-4.198-.67.742 4.535 4.106-4.85 4.096.645.763 4.953-4.183 4.77 4.316.67-.74-4.668-4.227 4.925-4.158-.644-.766zm11.295 0l-5.03 4.249-4.636-4.198-.67.742 4.535 4.106-4.85 4.096.645.763 4.953-4.183 4.77 4.316.67-.74-4.669-4.227 4.926-4.158-.644-.766zm11.295 0l-5.03 4.249-4.636-4.198-.67.742 4.535 4.106-4.85 4.096.645.763 4.953-4.183 4.77 4.316.67-.74L78.9 29.82l4.926-4.158-.644-.766zm11.295 0l-5.03 4.249-4.636-4.198-.67.742 4.535 4.106-4.85 4.096.645.763 4.953-4.183 4.77 4.316.67-.74-4.669-4.227 4.926-4.158-.644-.766zm11.294 0l-5.029 4.249-4.637-4.198-.67.742 4.536 4.106-4.85 4.096.645.763 4.953-4.183 4.77 4.316.67-.74-4.669-4.227 4.926-4.158-.645-.766zm11.295 0l-5.029 4.249-4.637-4.198-.67.742 4.536 4.106-4.85 4.096.645.763 4.953-4.183 2.039 1.845c.165-.298.328-.597.504-.892l-1.772-1.604 4.926-4.158-.645-.766zm22.59 0l-2.03 1.715c.324.157.656.317.987.475l1.688-1.424-.645-.766zm45.18 0l-2.316 1.956c.064.398.133.738.197 1.144l2.763-2.334-.644-.766zm11.295 0l-5.03 4.249-4.636-4.198-.67.742 4.535 4.106-4.85 4.096.645.763 4.953-4.183 4.77 4.316.67-.74-4.668-4.227 4.925-4.158-.644-.766zm11.295 0l-5.03 4.249-4.636-4.198-.67.742 4.535 4.106-4.85 4.096.645.763 4.953-4.183 4.77 4.316.67-.74-4.668-4.227 4.925-4.158-.644-.766zm11.295 0l-5.03 4.249-4.636-4.198-.67.742 4.535 4.106-4.85 4.096.645.763 4.953-4.183 4.77 4.316.67-.74-4.669-4.227 4.926-4.158-.644-.766zm11.295 0l-5.03 4.249-4.636-4.198-.67.742 4.535 4.106-4.85 4.096.645.763 4.953-4.183 4.77 4.316.67-.74-4.669-4.227 4.926-4.158-.644-.766zm-111.32.051l-.67.742.454.413c.223-.248.45-.493.68-.735l-.465-.42zm22.59 0l-.67.742 4.534 4.106-.06.05c.696.253 1.405.497 2.137.725l.058-.193-.615-.557 1.05-.888c.177-.574.369-1.163.565-1.784l-2.363 1.997-4.637-4.198zm-21.837.877c1.984 5.799 1.579 20.203 7.72 19.758.033-.002.06-.008.09-.012.058.445.255 1.924.395 2.54-.338-.31-1.677-.525-2.287-.61.475-4.586-11.272-5.458-14.742-2.969 5.812 1.478 13.801 7.504 14.697 3.27a.13.14 23.218 01-.101-.004s-2.146-1.033-4.973-1.951c-2.826-.919-6.334-1.716-9.012-1.262a.13.14 23.218 01-.144-.115.13.14 23.218 01.117-.158c2.763-.469 6.286.345 9.129 1.27 1.421.46 2.672.952 3.568 1.327a35.34 35.34 0 011.438.635.13.14 23.218 01.054.184.13.14 23.218 01-.074.072c.532.105 1.543.317 2.123.52-2.593 1.304-4.428 3.314-5.898 5.51-9.203-.347-29.39-.292-33.805 6.562 1.673 4.948 28.064-1.466 25.188 1.771-6.11 6.876-34.063 8.692-34.063 8.692s19.582 2.088 40.883-8.504c8.065-4.01-17.193-1.882-25.154-2.461 3.205-4.584 18.743-5.569 26.757-5.77-.993 1.526-1.821 3.129-2.61 4.64-.153.118.41.422.585.405.828-2.019 1.67-3.672 2.604-5.059 2.563-.055 4.24-.03 4.24-.03s-1.595-.123-4.06-.225c1.526-2.188 3.3-3.701 5.644-4.948.019.654.126 1.749.603 2.08-3.751 2.913 2.913 6.99 6.141 10.631-.274-5.065-3.047-12.75-5.89-10.816l-.028.02c-.49-.76-.471-2.072-.47-2.098l.007-.004 2.274.219c-.6 4.359 13.79 3.191 20.3 5.18-3.452-5.733-18.985-10.01-20.248-5.462l-2.33-.279 1.795-1.969a.13.14 23.218 01-.096-.05.13.14 23.218 01.032-.196s3.63-2.909 7.89-5.818c2.13-1.455 4.42-2.91 6.496-4.002 2.077-1.093 3.932-1.83 5.24-1.826a.13.14 23.218 01.126.14.13.14 23.218 01-.141.139c-1.213-.003-3.058.71-5.12 1.795-2.06 1.084-4.34 2.533-6.466 3.984-4.25 2.902-7.873 5.807-7.873 5.807a.13.14 23.218 01-.088.027c2.355 2.94 10.268-5.79 20.203-11.966-11.755-.072-23.366 6.215-20.406 11.658.016.03.034.052.05.08l-1.78 1.89-.446-2.539c5.254-1.126-4.507-17.91-8.084-19.703zm.315.278a.13.14 23.218 01.097.023c.693.542 1.472 1.995 2.309 3.895.837 1.899 1.71 4.24 2.504 6.515a213.36 213.36 0 012.85 8.852.13.14 23.218 01-.088.177.13.14 23.218 01-.165-.084s-1.262-4.292-2.845-8.835c-.792-2.272-1.664-4.609-2.496-6.497-.832-1.888-1.645-3.335-2.235-3.796a.13.14 23.218 01-.02-.194.13.14 23.218 01.089-.056zm63.54 6.209c.069.51.145 1.025.208 1.533l1.04.943.67-.74-1.917-1.736zM15.413 34.787l-5.03 4.248-4.636-4.197-.67.742 4.535 4.106-4.85 4.095.645.764 4.953-4.184 4.77 4.317.67-.74-4.668-4.227 4.926-4.158-.645-.766zm11.295 0l-5.03 4.248-4.636-4.197-.67.742 4.535 4.106-4.85 4.095.645.764 4.953-4.184 4.77 4.317.67-.74-4.668-4.227 4.926-4.158-.645-.766zm11.295 0l-5.03 4.248-4.636-4.197-.67.742 4.535 4.106-4.85 4.095.645.764 4.953-4.184 4.77 4.317.67-.74-4.668-4.227 4.925-4.158-.644-.766zm11.295 0l-5.03 4.248-4.636-4.197-.67.742 4.535 4.106-4.85 4.095.645.764 4.953-4.184 4.77 4.317.67-.74-4.668-4.227 4.925-4.158-.644-.766zm11.295 0l-5.03 4.248-4.636-4.197-.67.742 4.535 4.106-4.85 4.095.645.764 4.953-4.184 4.77 4.317.67-.74-4.668-4.227 4.925-4.158-.644-.766zm11.295 0l-5.03 4.248-4.636-4.197-.67.742 4.535 4.106-4.85 4.095.645.764 4.953-4.184 4.77 4.317.67-.74-4.669-4.227 4.926-4.158-.644-.766zm11.295 0l-5.03 4.248-4.636-4.197-.67.742 4.535 4.106-4.85 4.095.645.764 4.953-4.184 4.77 4.317.67-.74L78.9 39.71l4.926-4.158-.644-.766zm11.295 0l-5.03 4.248-4.636-4.197-.67.742 4.535 4.106-4.85 4.095.645.764 4.953-4.184 4.77 4.317.67-.74-4.669-4.227 4.926-4.158-.644-.766zm11.294 0l-5.029 4.248-4.637-4.197-.67.742 4.536 4.106-4.85 4.095.645.764 4.953-4.184 4.77 4.317.67-.74-4.669-4.227 4.926-4.158-.645-.766zm79.065 0l-1.076.908c.046.408.077.804.12 1.21l1.6-1.352-.644-.766zm11.295 0l-5.03 4.248-4.636-4.197-.67.742 4.535 4.106-4.85 4.095.645.764 4.953-4.184 4.77 4.317.67-.74-4.668-4.227 4.925-4.158-.644-.766zm11.295 0l-5.03 4.248-4.636-4.197-.67.742 4.535 4.106-4.85 4.095.645.764 4.953-4.184 4.77 4.317.67-.74-4.668-4.227 4.925-4.158-.644-.766zm11.295 0l-5.03 4.248-4.636-4.197-.67.742 4.535 4.106-4.85 4.095.645.764 4.953-4.184 4.77 4.317.67-.74-4.669-4.227 4.926-4.158-.644-.766zm11.295 0l-5.03 4.248-4.636-4.197-.67.742 4.535 4.106-4.85 4.095.645.764 4.953-4.184 4.77 4.317.67-.74-4.669-4.227 4.926-4.158-.644-.766zm-122.616.05l-.67.743 4.426 4.006c.09-.361.185-.722.291-1.084l-4.047-3.664zm3.7 4.987l-4.684 3.957.645.764 3.714-3.137c.09-.526.199-1.054.325-1.584zm73.359 3.422c.033.478.043.938.072 1.412l.022.02.67-.74-.764-.692zM15.412 44.678l-5.03 4.248-4.636-4.197-.67.742 4.535 4.105-4.85 4.096.645.764 4.953-4.184 4.77 4.316.67-.74-4.668-4.226 4.926-4.159-.645-.765zm11.295 0l-5.03 4.248-4.636-4.197-.67.742 4.535 4.105-4.85 4.096.645.764 4.953-4.184 4.77 4.316.67-.74-4.668-4.226 4.926-4.159-.645-.765zm11.295 0l-5.03 4.248-4.636-4.197-.67.742 4.535 4.105-4.85 4.096.645.764 4.953-4.184 4.77 4.316.67-.74-4.668-4.226 4.925-4.159-.644-.765zm11.295 0l-5.03 4.248-4.636-4.197-.67.742 4.535 4.105-4.85 4.096.645.764 4.953-4.184 4.77 4.316.67-.74-4.668-4.226 4.925-4.159-.644-.765zm11.295 0l-5.03 4.248-4.636-4.197-.67.742 4.535 4.105-4.85 4.096.645.764 4.953-4.184 4.77 4.316.67-.74-4.668-4.226 4.925-4.159-.644-.765zm11.295 0l-5.03 4.248-4.636-4.197-.67.742 4.535 4.105-4.85 4.096.645.764 4.953-4.184 4.77 4.316.67-.74-4.669-4.226 4.926-4.159-.644-.765zm11.295 0l-5.03 4.248-4.636-4.197-.67.742 4.535 4.105-4.85 4.096.645.764 4.953-4.184 4.77 4.316.67-.74-4.669-4.226 4.926-4.159-.644-.765zm11.295 0l-5.03 4.248-4.636-4.197-.67.742 4.535 4.105-4.85 4.096.645.764 4.953-4.184 4.148 3.756c.33-.168.635-.318.96-.48l-4.337-3.926 4.926-4.159-.644-.765zm11.294 0l-5.029 4.248-4.637-4.197-.67.742 4.536 4.105-3.565 3.01c1.353-.668 2.58-1.277 3.735-1.846l.578-.488.146.133.96-.48-.335-.303 4.926-4.159-.645-.765zm79.065 0l-.291.246c.025.424.037.838.059 1.26l.876-.74-.644-.766zm11.295 0l-5.03 4.248-4.636-4.197-.67.742 4.535 4.105-4.85 4.096.645.764 4.953-4.184 4.77 4.316.67-.74-4.668-4.226 4.925-4.159-.644-.765zm11.295 0l-5.03 4.248-4.636-4.197-.67.742 4.535 4.105-4.85 4.096.645.764 4.953-4.184 4.77 4.316.67-.74-4.668-4.226 4.925-4.159-.644-.765zm11.295 0l-5.03 4.248-4.636-4.197-.67.742 4.535 4.105-4.85 4.096.645.764 4.953-4.184 4.77 4.316.67-.74-4.669-4.226 4.926-4.159-.644-.765zm11.295 0l-5.03 4.248-4.636-4.197-.67.742 4.535 4.105-4.85 4.096.645.764 4.953-4.184 4.77 4.316.67-.74-4.669-4.226 4.926-4.159-.644-.765zm-122.616.05l-.67.743 1.198 1.084c.31-.17.619-.338.931-.506l-1.459-1.32zm23.145 3.909s3.827.285 8.182 1.035c3.061.527 6.38 1.274 8.828 2.334.163.07.323.14.478.215.827.391 1.533.824 2.07 1.3a.13.14 23.218 01.01.196.13.14 23.218 01-.185.021c-2.047-1.814-6.917-3.045-11.258-3.793-4.34-.747-8.158-1.03-8.158-1.03a.13.14 23.218 01-.114-.15.13.14 23.218 01.147-.128zm-1.973 2.181a.13.14 23.218 01.088.045s1.193 1.504 2.494 3.477c1.302 1.973 2.716 4.41 3.162 6.328a.13.14 23.218 01-.097.174.13.14 23.218 01-.158-.094c-.43-1.84-1.83-4.277-3.125-6.24-1.296-1.963-2.48-3.457-2.48-3.457a.13.14 23.218 01.019-.197.13.14 23.218 01.097-.036zm56.252 2.65l.004.796.395-.436-.399-.36zm-169.412 1.1l-5.03 4.248-4.636-4.197-.67.742 4.535 4.106-4.85 4.096.645.763 4.953-4.183 4.77 4.316.67-.74-4.668-4.227 4.926-4.158-.645-.766zm11.295 0l-5.03 4.248-4.636-4.197-.67.742 4.535 4.106-4.85 4.096.645.763 4.953-4.183 4.77 4.316.67-.74-4.668-4.227 4.926-4.158-.645-.766zm11.295 0l-5.03 4.248-4.636-4.197-.67.742 4.535 4.106-4.85 4.096.645.763 4.953-4.183 4.77 4.316.67-.74-4.668-4.227 4.925-4.158-.644-.766zm11.295 0l-5.03 4.248-4.636-4.197-.67.742 4.535 4.106-4.85 4.096.645.763 4.953-4.183 4.77 4.316.67-.74-4.668-4.227 4.925-4.158-.644-.766zm11.295 0l-5.03 4.248-4.636-4.197-.67.742 4.535 4.106-4.85 4.096.645.763 4.953-4.183 4.77 4.316.67-.74-4.668-4.227 4.925-4.158-.644-.766zm11.295 0l-5.03 4.248-4.636-4.197-.67.742 4.535 4.106-4.85 4.096.645.763 4.953-4.183 4.77 4.316.67-.74-4.669-4.227 4.926-4.158-.644-.766zm11.295 0l-5.03 4.248-4.636-4.197-.67.742 4.535 4.106-4.85 4.096.645.763 4.953-4.183 2.11 1.91c.266-.207.534-.412.81-.615L78.9 59.492l4.926-4.158-.644-.766zm101.654 0l-.008.006c0 .435.009.875.006 1.307l.646-.547-.644-.766zm11.295 0l-5.03 4.248-4.636-4.197-.67.742 4.535 4.106-4.85 4.096.645.763 4.953-4.183 4.77 4.316.67-.74-4.668-4.227 4.925-4.158-.644-.766zm11.295 0l-5.03 4.248-4.636-4.197-.67.742 4.535 4.106-4.85 4.096.645.763 4.953-4.183 4.77 4.316.67-.74-4.668-4.227 4.925-4.158-.644-.766zm11.295 0l-5.03 4.248-4.636-4.197-.67.742 4.535 4.106-4.85 4.096.645.763 4.953-4.183 4.77 4.316.67-.74-4.669-4.227 4.926-4.158-.644-.766zm11.295 0l-5.03 4.248-4.636-4.197-.67.742 4.535 4.106-4.85 4.096.645.763 4.953-4.183 4.77 4.316.67-.74-4.669-4.227 4.926-4.158-.644-.766zM84.81 54.62l-.67.742 2.607 2.362c.301-.178.6-.36.902-.534l-2.84-2.57zm99.806 8.55c-.023.425-.032.863-.058 1.284l.664-.734-.606-.55zM15.412 64.46l-5.03 4.248-4.636-4.197-.67.742 4.535 4.105-4.85 4.096.645.764 4.953-4.184 4.77 4.317.67-.74-4.668-4.227 4.926-4.158-.645-.766zm11.295 0l-5.03 4.248-4.636-4.197-.67.742 4.535 4.105-4.85 4.096.645.764 4.953-4.184 4.77 4.317.67-.74-4.668-4.227 4.926-4.158-.645-.766zm11.295 0l-5.03 4.248-4.636-4.197-.67.742 4.535 4.105-4.85 4.096.645.764 4.953-4.184 4.77 4.317.67-.74-4.668-4.227 4.925-4.158-.644-.766zm11.295 0l-5.03 4.248-4.636-4.197-.67.742 4.535 4.105-4.85 4.096.645.764 4.953-4.184 4.77 4.317.67-.74-4.668-4.227 4.925-4.158-.644-.766zm11.295 0l-5.03 4.248-4.636-4.197-.67.742 4.535 4.105-4.85 4.096.645.764 4.953-4.184 4.77 4.317.67-.74-4.668-4.227 4.925-4.158-.644-.766zm11.295 0l-5.03 4.248-4.636-4.197-.67.742 4.535 4.105-4.85 4.096.645.764 4.953-4.184 4.77 4.317.67-.74-4.669-4.227 4.926-4.158-.644-.766zm112.949 0l-.299.254c-.03.477-.084.935-.119 1.408l1.062-.896-.644-.766zm11.295 0l-5.03 4.248-4.636-4.197-.67.742 4.535 4.105-4.85 4.096.645.764 4.953-4.184 4.77 4.317.67-.74-4.668-4.227 4.925-4.158-.644-.766zm11.295 0l-5.03 4.248-4.636-4.197-.67.742 4.535 4.105-4.85 4.096.645.764 4.953-4.184 4.77 4.317.67-.74-4.668-4.227 4.925-4.158-.644-.766zm11.295 0l-5.03 4.248-4.636-4.197-.67.742 4.535 4.105-4.85 4.096.645.764 4.953-4.184 4.77 4.317.67-.74-4.669-4.227 4.926-4.158-.644-.766zm11.295 0l-5.03 4.248-4.636-4.197-.67.742 4.535 4.105-4.85 4.096.645.764 4.953-4.184 4.77 4.317.67-.74-4.669-4.227 4.926-4.158-.644-.766zm-156.5.05l-.67.743 2.158 1.953c.194-.266.395-.532.611-.795l-2.1-1.9zm110.31 7.837c-.047.406-.104.804-.154 1.207l.88.797.67-.74-1.396-1.264zm-110.543.472l-.752.635.645.764.627-.53a3.255 3.255 0 01-.52-.869zm114.112 47.899c-10.831 4.569-19.024 14.925-14.159 18.76.027.02.054.033.08.052l-.892 2.44-1.41-2.158c4.384-3.107-11.203-14.682-15.198-14.92 4.11 4.547 9.416 17.943 14.885 15.113.028-.015.051-.032.078-.047.229.386.992 1.67 1.364 2.18-.434-.15-1.748.179-2.342.342-1.372-4.402-12.512-.574-14.719 3.082 5.924-.933 15.64 1.455 14.795-2.79a.13.14 0 01-.094.038s-2.38-.103-5.34.168c-2.96.27-6.497.92-8.779 2.392a.13.14 0 01-.178-.049.13.14 0 01.045-.191c2.354-1.52 5.914-2.16 8.89-2.432a46.907 46.907 0 013.804-.187c.97-.008 1.57.017 1.57.017a.13.14 0 01.125.147.13.14 0 01-.041.096c.53-.113 1.54-.317 2.154-.36-3.24 3.853-3.554 8.754-3.88 13.028-.052.09.114.145.3.166-3.139 5.886-6.201 8.826-11.012 10.753.04-.782.015-2.1-.535-2.556 4.843-2.998-2.873-8.703-6.449-13.451-.153 6.073 2.482 15.588 6.127 13.642l.035-.02c.524.967.374 2.53.371 2.561-.003 0-.007.004-.01.004l-2.744-.549c1.149-5.121-16.466-5.55-24.195-8.744 3.649 7.27 22.13 14.337 24.104 9.074l2.806.627-2.37 2.12c-2.583-3.804-13.046 5.604-25.724 11.712 14.291 1.572 29.019-4.457 25.942-11.32-.017-.037-.039-.064-.057-.1l2.35-2.029.299 3.084c-6.5.679 3.76 21.923 7.94 24.514-1.858-7.165.02-24.287-7.493-24.533-.039-.001-.076.002-.113.002-.028-.538-.123-2.327-.235-3.079.383.412 1.99.84 2.723 1.018-1.018 5.407 13.187 7.933 17.646 5.404-6.927-2.497-16.066-10.692-17.562-5.758a.16.168 28.496 01.123.016s2.513 1.503 5.863 2.955c3.35 1.453 7.537 2.847 10.838 2.645a.16.168 28.496 01.164.156.16.168 28.496 01-.156.174c-3.405.209-7.613-1.207-10.983-2.668a59.507 59.507 0 01-4.212-2.033c-1.054-.561-1.686-.94-1.686-.94a.16.168 28.496 01-.05-.226.16.168 28.496 01.097-.077c-.637-.193-1.844-.573-2.531-.888 5.687-2.13 8.809-7.07 11.588-11.348.158-.097-.23-.388-.502-.502-.05-5.643.999-9.054 3.7-12.418.276.594.806 1.555 1.376 1.672-2.3 4.155 5.432 5.276 9.834 7.35-2.25-4.547-7.827-10.518-9.678-7.62l-.018.03c-.75-.504-1.25-1.718-1.26-1.742l.007-.008 2.175-.694c1.168 4.243 13.932-2.504 20.7-3.244-5.433-3.906-21.394-1.714-20.762 2.963l-2.252.662.875-2.515c3.323 1.773 7.152-9.37 13.848-18.963zm-.56.32a.13.14 0 01.169.08.13.14 0 01-.072.182c-1.116.475-2.532 1.859-3.998 3.668-1.467 1.809-2.99 4.042-4.372 6.213-2.761 4.342-4.947 8.44-4.947 8.44a.13.14 0 01-.178.05.13.14 0 01-.046-.191s2.188-4.106 4.957-8.46c1.384-2.176 2.913-4.413 4.39-6.236 1.478-1.822 2.894-3.233 4.098-3.746zm-30.523 3.967c.85.225 2.14 1.254 3.659 2.67 1.518 1.415 3.243 3.22 4.869 5a213.774 213.774 0 016.11 7.012.13.14 0 01-.01.197.13.14 0 01-.186-.012s-2.851-3.446-6.098-6.998c-1.623-1.776-3.346-3.577-4.855-4.984-1.51-1.407-2.825-2.418-3.549-2.61a.13.14 0 01-.096-.172.13.14 0 01.156-.103zm-14.625 2.18c-8.38.427-15.06 7.393-15.06 15.898v.4c0 8.505 6.68 15.472 15.06 15.899h.032v-1.916c-.09-.005-1.245-1.053 1.025-1.516l-.023-.006c.073-.69-.105-1.169.013-1.53-.882-.096-1.784.275-1.72-1.142.048-1.064.402-.35 1.695-.814-.078-.299.1-.752-.121-.828-1.482-.51-1.165-1.024-1.131-2.588-1.141.053-1.417.01-1.814-.002-.377-.012.025.464.029.912.004.43-6.441.082-7.186.012-.237 1.61 2.217 3.67 4.403 4.775 3.479-.55-4.399-3.258 2.543-2.625.271 2.112.169 4.144.111 5.059-6.144-1.326-10.774-6.105-10.992-12.617l6.262-.026s1.643 2.532-2.602 1.746c-2.169-2.433-1.794 4.387.588 2.317 4.688.029 5.181.079 5.213.096v-.022l.097-5.385-.097-5.383v-.021c-.032.017-.525.066-5.213.096-2.382-2.07-2.757 4.75-.588 2.316 4.245-.785 2.601 1.746 2.601 1.746l-6.261-.025c.218-6.512 4.848-11.292 10.992-12.617.058.914.16 2.947-.111 5.058-6.942.634.936-2.075-2.543-2.625-2.186 1.105-4.64 3.165-4.403 4.776.745-.07 7.19-.418 7.186.011-.004.449-.406.924-.03.912.398-.012.674-.055 1.815-.002-.034-1.564-.35-2.077 1.13-2.587.222-.076.044-.53.122-.829-1.293-.464-1.647.25-1.695-.814-.064-1.417.838-1.045 1.72-1.14-.118-.363.06-.841-.013-1.532l.023-.006c-2.27-.463-1.116-1.51-1.025-1.515v-1.916h-.031zm1.057 3.431l.024.006c-.074.69.104 1.17-.014 1.531.883.096 1.784-.276 1.72 1.141-.047 1.064-.402.35-1.695.814.078.3-.1.753.121.829 1.482.51 1.165 1.023 1.131 2.587 1.141-.053 1.417-.01 1.815.002.377.012-.026-.463-.03-.912-.004-.429 6.442-.082 7.186-.011.237-1.61-2.217-3.671-4.402-4.776-3.48.55 4.398 3.259-2.543 2.625-.272-2.111-.17-4.144-.112-5.058 6.144 1.325 10.774 6.105 10.992 12.617l-6.261.025s-1.644-2.531 2.601-1.746c2.17 2.433 1.794-4.387-.588-2.316-4.688-.03-5.18-.08-5.212-.096v.021l-.1 5.383.1 5.385v.022c.031-.017.524-.067 5.212-.096 2.382 2.07 2.757-4.75.588-2.317-4.245.786-2.601-1.746-2.601-1.746l4.89.02c.789-.835 1.951-1.598 3.256-2.268-.407-8.134-6.907-14.682-15.021-15.095h-.031v1.914c.09.005 1.244 1.052-1.026 1.515zm-35.086 6.26c-4.692 4.77-4.969 20.877-.25 20.969l.31 2.326-2.353-1.248a.14.13 8.803 01-.025.105.14.13 8.803 01-.197.02s-3.722-2.791-7.6-6.193c-1.94-1.702-3.917-3.557-5.492-5.295-1.575-1.74-2.752-3.353-3.074-4.621a.14.13 8.803 01.105-.157.14.13 8.803 01.168.102c.3 1.175 1.45 2.786 3.014 4.512 1.563 1.726 3.536 3.574 5.47 5.271 3.869 3.394 7.582 6.178 7.582 6.178a.14.13 8.803 01.05.078c2.26-3.013-8.164-8.503-16.62-16.588 2.858 11.403 11.837 21.085 16.371 16.863.025-.023.041-.047.065-.07l2.273 1.256-2.348 1.064c-2.399-4.808-16.223 8.824-17.07 12.735 5.122-3.366 19.173-6.559 17.213-12.397-.01-.03-.022-.057-.033-.086.417-.166 1.8-.724 2.361-1.013-.215.405-.091 1.755-.021 2.367-4.56.682-2.48 12.275.795 15.015-.016-5.997 3.83-15.233-.493-15.047a.14.13 8.803 01.024.098s-.467 2.337-.653 5.303c-.185 2.966-.084 6.562 1.022 9.043a.14.13 8.803 01-.074.168.14.13 8.803 01-.184-.074c-1.141-2.56-1.23-6.175-1.043-9.159.094-1.491.256-2.824.397-3.785.14-.96.257-1.55.257-1.55a.14.13 8.803 01.165-.1.14.13 8.803 01.087.055c-.03-.542-.076-1.571-.025-2.184 3.312 3.792 8.108 4.851 12.281 5.828.152.118.304-.502.244-.668-5.792-.801-9.066-2.359-12.035-5.607.629-.182 1.661-.558 1.864-1.104 3.754 2.909 6.045-4.561 8.767-8.594-4.837 1.527-11.59 6.126-9.01 8.399l.026.021c-.613.664-1.89.97-1.914.977l-.006-.006-.354-2.256c4.372-.504-.341-14.15-.037-20.951zm-.347.654a.14.13 8.803 01.107.008.14.13 8.803 01.066.176c-1.247 2.434-1.225 7.455-.869 11.846a96.236 96.236 0 001.031 8.16.14.13 8.803 01-.115.146.14.13 8.803 01-.162-.111s-.677-3.778-1.035-8.182c-.251-3.096-.352-6.497.064-9.13.028-.176.057-.348.09-.516.174-.899.417-1.692.744-2.33a.14.13 8.803 01.079-.067zm84.656.342c.178 0 .354.003.525.01.915.034 1.735.153 2.416.379a.13.14 0 01.086.176.13.14 0 01-.162.093c-2.596-.86-7.558-.073-11.842.951a95.637 95.637 0 00-7.904 2.27.13.14 0 01-.162-.092.13.14 0 01.084-.178s3.63-1.246 7.928-2.273c3.021-.722 6.364-1.345 9.03-1.336zm-49.315 1.5a1.006 1.006 0 00-.966 1.254 1.006 1.006 0 00-.92 1.135 1.008 1.008 0 00-.762.97c0 .203.062.393.168.551a.993.993 0 00-.168.553c0 .466.327.862.762.97a1.006 1.006 0 00.92 1.135 1.006 1.006 0 001.059 1.25 1.006 1.006 0 001.059-1.25 1.006 1.006 0 00.919-1.134c.434-.109.761-.505.761-.971a.993.993 0 00-.168-.553.987.987 0 00.168-.55c0-.466-.327-.863-.761-.971a1.006 1.006 0 00-.92-1.135 1.006 1.006 0 00-1.059-1.25.932.932 0 00-.092-.004zm31.4 4.893a.13.14 0 01.1.007s1.688.911 3.662 2.211c1.975 1.3 4.236 2.983 5.403 4.569a.13.14 0 01-.022.197.13.14 0 01-.183-.021c-1.12-1.523-3.368-3.211-5.332-4.504-1.964-1.294-3.643-2.2-3.643-2.2a.13.14 0 01-.058-.189.13.14 0 01.074-.07zm-15.345 1.326c-.637.003-1.25.025-1.853.062a12.734 12.734 0 01-3.596 7.573c.393.428.772.856 1.166 1.287a15.886 15.886 0 004.283-8.922zm-12.861 3.45c-.398.012-.674.054-1.815.001.034 1.564.351 2.078-1.13 2.588-.221.076-.044.53-.122.828 1.293.464 1.648-.25 1.696.814.063 1.417-.838 1.046-1.721 1.141.118.362-.06.84.014 1.531-.01.002-.015.006-.024.008 2.27.463 1.116 1.51 1.026 1.516v1.916h.03c2.61-.133 5.053-.901 7.182-2.15-.145-.628-.29-1.257-.396-1.901a15.09 15.09 0 01-4.64 1.84c-.059-.915-.16-2.947.11-5.059 6.942-.633-.936 2.076 2.544 2.625a13.588 13.588 0 001.783-1.092c-.123-1.146-.202-2.275-.176-3.302l.006-.25c-2.096.085-4.4.132-4.397-.143.004-.448.407-.924.03-.912zm48.716.618c-3.772.02-7.662.313-11.347.71.222.372.434.742.62 1.105 10.169-.2 20.796 1.193 20.446 8.007-10.507 1.99-25.36-3.52-35.219-2.853-1.753 2.687-3.718 5.529-6.402 7.762 8.525 3.025 32.775 2.832 32.037 5.888-.597 7.274-10.083 3.772-21.15 1.139 1.507.82 3.004 1.586 4.396 2.088l.512.184-.473.267c-1.165.66-2.89.97-4.828 1.012 14.394 2.764 27.374 5.453 28.807-4.412 1.05-7.233-34.762-8.694-34.762-8.694.995-8.86 47.466 8.074 47.258-3.168-.132-7.133-9.452-9.09-19.895-9.035zm-41.56.305c-.234.022-1.453.071-2.438.115l.092.121c.448.594.965 1.205 1.514 1.826.579-.7.927-1.417.832-2.062zm27.154.756a182.787 182.787 0 00-10.922 1.728c-.005.064-.005.137-.01.201 3.068-.413 7.79-.956 13.065-1.14a68.627 68.627 0 00-2.133-.79zm-61.967.377a.14.13 8.803 01.086.062.14.13 8.803 01-.05.178c-1.676.873-3.687 2.837-5.266 4.58-1.579 1.743-2.732 3.264-2.732 3.264a.14.13 8.803 01-.196.029.14.13 8.803 01-.058-.086.14.13 8.803 01.023-.098s1.16-1.527 2.746-3.279c1.587-1.752 3.594-3.73 5.34-4.64a.14.13 8.803 01.107-.01zm32.54.21a.16.168 28.496 01.183.132c.345 2.248 1.817 5.331 3.203 7.835a67.125 67.125 0 002.686 4.436.16.168 28.496 01-.045.232.16.168 28.496 01-.121.032.16.168 28.496 01-.104-.067s-1.305-1.942-2.699-4.459c-1.394-2.517-2.879-5.603-3.238-7.945a.16.168 28.496 01.135-.195zm17.421 1.348c-1.31.26-2.298.471-2.298.471s.932-.144 2.287-.336l.011-.135zm-.683 4.147c-3.549.535-6.298 2.077-7.705 5.414.123.635.727 1.18 1.672 1.656 2.284-1.636 4.174-3.861 6.033-7.07zm-36.528.988c2.315 2.422 8.12 4.505 13.329 5.945a120.817 120.817 0 009.824 2.262.16.168 28.496 01.125.192.16.168 28.496 01-.192.136s-4.63-.824-9.853-2.27c-3.673-1.015-7.637-2.327-10.512-3.9h-.002a16.407 16.407 0 01-.558-.316c-.969-.572-1.787-1.177-2.395-1.813a.16.168 28.496 01.006-.234.16.168 28.496 01.228-.002zm-25.86 3.684a.14.13 8.803 01.089.058.14.13 8.803 01-.04.18s-3.844 2.292-7.85 4.957c-2.004 1.332-4.047 2.757-5.669 4.033-1.621 1.276-2.82 2.423-3.12 3.11a.14.13 8.803 01-.184.068.14.13 8.803 01-.078-.172c.352-.805 1.566-1.923 3.197-3.207 1.631-1.284 3.68-2.712 5.687-4.047a213.819 213.819 0 017.862-4.963.14.13 8.803 01.105-.017zm13.577 1.668c-1.98.003-4.13.066-6.31.177.557.32 1.155.601 1.78.86 7.727-.783 15.173-.678 15.173-.678s-4.596-.37-10.643-.36zm-8.107.267c-.333.023-.663.064-.996.09.196.254.355.542.447.889.024.09.03.197.049.293a81.167 81.167 0 012.166-.297 16.67 16.67 0 01-1.666-.975zm-4.744.465c-.11.014-.214.035-.323.049-.201.677-.596 1.315-1.146 1.904.2-.054.41-.103.615-.154.037-.148.062-.307.108-.447.17-.53.428-.979.746-1.352zm48.787 5.191a.16.168 28.496 01.1.073.16.168 28.496 01-.057.228s-4.695 3.01-10.156 5.94c-2.731 1.465-5.655 2.91-8.286 3.95-2.63 1.04-4.959 1.684-6.55 1.515a.16.168 28.496 01-.137-.182.16.168 28.496 01.183-.149c1.475.157 3.788-.46 6.399-1.492 2.61-1.032 5.526-2.472 8.25-3.933 5.448-2.923 10.133-5.928 10.133-5.928a.16.168 28.496 01.12-.022zm-38.283.194c-2.04-.014-4.278.02-6.522.058a98.126 98.126 0 01-.275 1.622c4.444-.41 7.645-.589 6.545.65-1.434 1.614-4.095 2.939-7.291 4.037-.067.562-.086 1.083-.112 1.611 4.509-1.275 9.313-3.02 14.223-5.46 4.032-2.006-.266-2.477-6.568-2.518zm38.927.004l-.199.172c.37.86.484 1.716.354 2.546.053-.157.01-.4.082-.54.326-.638.908-1.037 1.652-1.19l-.096-.982c-.6-.007-1.2-.012-1.793-.006zm2.655.01c.02.31.058.707.068.91 1.845.109 3.172 1.209 4.084 2.877.623.084 1.244.163 1.871.26.117.017.235.042.352.06-.947-.39-1.81-.837-2.504-1.365-.965-.735-1.57-1.641-1.721-2.653-.72-.036-1.44-.074-2.15-.09zm-58.946.078c-1.588.77-3.268 1.494-4.894 2.19 2.796.442 6.99.17 10.986-.186-.097-.515-.214-1.028-.27-1.54-.015-.146-.001-.278-.013-.423-2.24.03-4.21.022-5.809-.041zm48.91.289c-9.26.833-16.03 2.74-16.03 2.74s4.916-.476 12.044-.477c.471-.283 1.062-.652 1.51-.914.89-.52 1.69-.943 2.476-1.35zm9.657.742a.16.168 28.496 01.191.119s1.124 5.279 2.613 10.896c.745 2.81 1.582 5.703 2.413 8.06.83 2.355 1.68 4.184 2.353 4.81a.16.168 28.496 01.006.234.16.168 28.496 01-.229.016c-.79-.734-1.6-2.567-2.435-4.938-.836-2.37-1.674-5.27-2.42-8.084-1.492-5.627-2.617-10.912-2.617-10.912a.16.168 28.496 01.125-.201zm-122.764.18l-5.03 4.248-4.636-4.198-.67.743 4.535 4.105-4.85 4.096.645.763 4.953-4.183 4.77 4.316.67-.74-4.668-4.227 4.926-4.158-.645-.765zm11.295 0l-5.03 4.248-4.636-4.198-.67.743 4.535 4.105-4.85 4.096.645.763 4.953-4.183 4.77 4.316.67-.74-4.668-4.227 4.925-4.158-.644-.765zm11.295 0l-5.03 4.248-4.636-4.198-.67.743 4.535 4.105-4.85 4.096.645.763 4.953-4.183 4.77 4.316.67-.74-4.668-4.227 4.925-4.158-.644-.765zm11.295 0l-5.03 4.248-4.636-4.198-.67.743 4.535 4.105-4.85 4.096.645.763 4.953-4.183 4.77 4.316.67-.74-4.668-4.227 4.925-4.158-.644-.765zm11.295 0l-5.03 4.248-4.636-4.198-.67.743 4.535 4.105-4.85 4.096.645.763 4.953-4.183 4.77 4.316.132-.146.416-.703-4.547-4.118 4.926-4.158-.644-.765zm146.834 0l-5.03 4.248-4.273-3.87c-.149.317-.3.627-.453.938l3.955 3.582-4.85 4.096.645.763 4.953-4.183 4.77 4.316.67-.74-4.669-4.227 4.926-4.158-.644-.765zm11.295 0l-5.03 4.248-4.636-4.198-.67.743 4.535 4.105-4.85 4.096.645.763 4.953-4.183 4.77 4.316.67-.74-4.669-4.227 4.926-4.158-.644-.765zm11.295 0l-5.03 4.248-4.636-4.198-.67.743 4.535 4.105-4.85 4.096.645.763 4.953-4.183 4.77 4.316.67-.74-4.669-4.227 4.926-4.158-.644-.765zm-167.795.05l-.67.743 1.431 1.294c.239-.223.49-.45.745-.673l-1.506-1.364zm73.822 1.438c-.018.105-.072.206-.098.31h.018c.03-.1.048-.21.08-.31zm-48.668 4.226c-10.384 3.06-24.717 4.004-24.717 4.004s11.024 1.175 25.527-2.713c-.294-.36-.552-.824-.81-1.29zm106.986 1.483c-.183.284-.355.57-.545.853l2.032 1.84.67-.74-2.157-1.953zm-96.595.87l-2 .382-.645.545.645.763 2-1.69zm-3.385.645l-1.229.235 1.041.943.67-.74-.482-.438zm-78.969 1.178l-5.03 4.248-4.636-4.197-.67.742 4.535 4.106-4.85 4.095.645.764 4.953-4.184 4.77 4.317.67-.74-4.668-4.227 4.926-4.158-.645-.766zm11.295 0l-5.03 4.248-4.636-4.197-.67.742 4.535 4.106-4.85 4.095.645.764 4.953-4.184 4.77 4.317.67-.74-4.668-4.227 4.925-4.158-.644-.766zm11.295 0l-5.03 4.248-4.636-4.197-.67.742 4.535 4.106-4.85 4.095.645.764 4.953-4.184 4.77 4.317.67-.74-4.668-4.227 4.925-4.158-.644-.766zm11.295 0l-5.03 4.248-4.636-4.197-.67.742 4.535 4.106-4.85 4.095.645.764 4.953-4.184 4.77 4.317.67-.74-4.668-4.227 4.925-4.158-.644-.766zm45.18 0l-5.03 4.248-4.092-3.705-1.195.229-.02.021 4.536 4.106-4.85 4.095.645.764 4.953-4.184 4.77 4.317.67-.74-4.669-4.227 4.926-4.158-.644-.766zm101.654 0l-5.03 4.248-1.107-1.002c-.213.255-.434.505-.652.758l.988.895-4.85 4.095.645.764 4.953-4.184 4.77 4.317.67-.74-4.668-4.227 4.925-4.158-.644-.766zm11.295 0l-5.03 4.248-4.636-4.197-.67.742 4.535 4.106-4.85 4.095.645.764 4.953-4.184 4.77 4.317.67-.74-4.669-4.227 4.926-4.158-.644-.766zm11.295 0l-5.03 4.248-4.636-4.197-.67.742 4.535 4.106-4.85 4.095.645.764 4.953-4.184 4.77 4.317.67-.74-4.669-4.227 4.926-4.158-.644-.766zm11.295 0l-5.03 4.248-4.636-4.197-.67.742 4.535 4.106-4.85 4.095.645.764 4.953-4.184 4.77 4.317.67-.74-4.669-4.227 4.926-4.158-.644-.766zm-179.09.051l-.67.742 4.535 4.106-4.85 4.095.645.764 4.953-4.184 4.77 4.317.67-.74-3.614-3.272-.547.104.23-.391-.738-.668 2.262-1.91 1.545-2.613-4.555 3.847-4.636-4.197zm45.18 0l-.67.742 4.535 4.106-4.85 4.095.645.764 4.953-4.184 4.77 4.317.67-.74-4.669-4.227 3.076-2.598c-.178-.285-.351-.575-.525-.865l-3.299 2.787-4.637-4.197zm-12.385.805l-2.004.38-3.565 3.012-2.129-1.926-1.23.235 2.588 2.342-4.85 4.095.645.764 4.953-4.184 4.77 4.317.67-.74-4.669-4.227 4.82-4.068zm-14.59 2.779l-2 .383-.274.23-.164-.148-1.23.234.623.565-4.85 4.095.645.764 4.953-4.184 4.77 4.317.67-.74-4.669-4.227 1.526-1.29zm54.816.83c-.577.002-1.16.052-1.746.107l.36.327-4.85 4.095.644.764 4.954-4.184 4.77 4.317.669-.74-4.668-4.227.512-.434c-.215-.008-.429-.026-.645-.025zm-10.078 1.441c-.444.06-.888.11-1.328.145l4.242 3.84.67-.74-3.584-3.245zm-3.992.166l-3.461 2.922.644.764 4.305-3.637c-.5.01-.996-.007-1.488-.049zm21.558.87l-2.43 2.052.645.764 2.604-2.2c-.27-.213-.541-.42-.819-.616zm53.366 1.826c-.243.23-.5.446-.746.672l.498.45.67-.74-.422-.382zm-169.389 1.123l-5.03 4.248-4.636-4.197-.67.742 4.535 4.105-4.85 4.096.645.764 4.953-4.184 4.77 4.316.67-.74-4.668-4.226 4.926-4.159-.645-.765zm11.295 0l-5.03 4.248-4.636-4.197-.67.742 4.535 4.105-4.85 4.096.645.764 4.953-4.184 4.77 4.316.67-.74-4.668-4.226 4.925-4.159-.644-.765zm11.295 0l-5.03 4.248-4.636-4.197-.67.742 4.535 4.105-4.85 4.096.645.764 4.953-4.184 4.77 4.316.67-.74-4.668-4.226 4.925-4.159-.644-.765zm11.295 0l-5.03 4.248-4.636-4.197-.67.742 4.535 4.105-4.85 4.096.645.764 4.953-4.184 4.77 4.316.67-.74-4.668-4.226 4.925-4.159-.644-.765zm11.295 0l-5.03 4.248-4.636-4.197-.67.742 4.535 4.105-4.85 4.096.645.764 4.953-4.184 4.77 4.316.67-.74-4.669-4.226 4.926-4.159-.644-.765zm11.295 0l-5.03 4.248-4.636-4.197-.67.742 4.535 4.105-4.85 4.096.645.764 4.953-4.184 4.77 4.316.67-.74-4.669-4.226 4.926-4.159-.644-.765zm11.295 0l-5.03 4.248-4.636-4.197-.67.742 4.535 4.105-4.85 4.096.645.764 4.953-4.184 4.77 4.316.67-.74-4.669-4.226 4.926-4.159-.644-.765zm11.294 0l-5.029 4.248-4.637-4.197-.67.742 4.536 4.105-4.85 4.096.645.764 4.953-4.184 4.77 4.316.67-.74-4.669-4.226 4.926-4.159-.644-.765zm11.295 0l-5.029 4.248-4.637-4.197-.67.742 4.536 4.105-4.85 4.096.645.764 4.953-4.184 4.77 4.316.67-.74-4.669-4.226 4.926-4.159-.645-.765zm11.295 0l-5.029 4.248-4.637-4.197-.67.742 4.536 4.105-4.85 4.096.644.764 4.954-4.184 4.77 4.316.67-.74-4.669-4.226 4.926-4.159-.645-.765zm11.295 0l-5.029 4.248-4.637-4.197-.67.742 4.535 4.105-4.85 4.096.645.764 4.954-4.184 4.77 4.316.669-.74-4.668-4.226 4.926-4.159-.645-.765zm56.475 0l-5.03 4.248-.68-.615c-.273.204-.554.396-.831.595l.74.67-4.85 4.096.645.764 4.953-4.184 4.77 4.316.67-.74-4.668-4.226 4.925-4.159-.644-.765zm11.295 0l-5.03 4.248-4.636-4.197-.67.742 4.535 4.105-4.85 4.096.645.764 4.953-4.184 4.77 4.316.67-.74-4.668-4.226 4.925-4.159-.644-.765zm11.295 0l-5.03 4.248-4.636-4.197-.67.742 4.535 4.105-4.85 4.096.645.764 4.953-4.184 4.77 4.316.67-.74-4.669-4.226 4.926-4.159-.644-.765zm11.295 0l-5.03 4.248-4.636-4.197-.67.742 4.535 4.105-4.85 4.096.645.764 4.953-4.184 4.77 4.316.67-.74-4.669-4.226 4.926-4.159-.644-.765zm11.295 0l-5.03 4.248-4.636-4.197-.67.742 4.535 4.105-4.85 4.096.645.764 4.953-4.184 4.77 4.316.67-.74-4.669-4.226 4.926-4.159-.644-.765zm-100.026.05l-.67.743 4.535 4.105-4.85 4.096.645.764 4.953-4.184 4.77 4.316.67-.74-4.668-4.226 2.19-1.85c-.216-.254-.43-.51-.647-.762l-2.291 1.936-4.637-4.197zm11.705 7.766l-1.394 1.178.644.764 1.438-1.215c-.232-.235-.46-.483-.688-.727zm30.826.06c-.309.17-.617.343-.93.507l1.667 1.507.67-.74-1.407-1.273zm-157.109 2.014l-5.03 4.248-4.636-4.197-.67.742 4.535 4.106-4.85 4.096.645.763 4.953-4.183 4.77 4.316.67-.74-4.668-4.227 4.926-4.158-.645-.766zm11.295 0l-5.03 4.248-4.636-4.197-.67.742 4.535 4.106-4.85 4.096.645.763 4.953-4.183 4.77 4.316.67-.74-4.668-4.227 4.925-4.158-.644-.766zm11.295 0l-5.03 4.248-4.636-4.197-.67.742 4.535 4.106-4.85 4.096.645.763 4.953-4.183 4.77 4.316.67-.74-4.668-4.227 4.925-4.158-.644-.766zm11.295 0l-5.03 4.248-4.636-4.197-.67.742 4.535 4.106-4.85 4.096.645.763 4.953-4.183 4.77 4.316.67-.74-4.668-4.227 4.925-4.158-.644-.766zm11.295 0l-5.03 4.248-4.636-4.197-.67.742 4.535 4.106-4.85 4.096.645.763 4.953-4.183 4.77 4.316.67-.74-4.669-4.227 4.926-4.158-.644-.766zm11.295 0l-5.03 4.248-4.636-4.197-.67.742 4.535 4.106-4.85 4.096.645.763 4.953-4.183.547.494c.176-.297.355-.584.54-.858l-.316-.287 4.926-4.158-.644-.766zm11.295 0l-4.102 3.465c.282.2.55.41.797.635l3.95-3.334-.645-.766zm11.294 0l-5.029 4.248-4.637-4.197-.67.742 4.536 4.106-4.85 4.096.645.763 4.953-4.183 4.77 4.316.67-.74-4.669-4.227 4.926-4.158-.644-.766zm11.295 0l-5.029 4.248-4.637-4.197-.67.742 4.536 4.106-4.85 4.096.645.763 4.953-4.183 4.77 4.316.67-.74-4.669-4.227 4.926-4.158-.645-.766zm11.295 0l-5.029 4.248-4.637-4.197-.67.742 4.536 4.106-4.85 4.096.644.763 4.954-4.183 4.77 4.316.67-.74-4.669-4.227 4.926-4.158-.645-.766zm11.295 0l-5.029 4.248-4.637-4.197-.67.742 4.535 4.106-4.85 4.096.645.763 4.954-4.183 4.77 4.316.669-.74-4.668-4.227 4.926-4.158-.645-.766zm11.295 0l-5.03 4.248-4.636-4.197-.67.742 4.535 4.106-4.85 4.096.645.763 4.953-4.183 4.77 4.316.67-.74-4.668-4.227 4.926-4.158-.645-.766zm33.885 0l-5.03 4.248-3.286-2.974c-.36.126-.716.257-1.077.373l3.592 3.252-4.85 4.096.645.763 4.953-4.183 4.77 4.316.67-.74-4.668-4.227 4.925-4.158-.644-.766zm11.295 0l-5.03 4.248-4.636-4.197-.67.742 4.535 4.106-4.85 4.096.645.763 4.953-4.183 4.77 4.316.67-.74-4.668-4.227 4.925-4.158-.644-.766zm11.295 0l-5.03 4.248-4.636-4.197-.67.742 4.535 4.106-4.85 4.096.645.763 4.953-4.183 4.77 4.316.67-.74-4.668-4.227 4.925-4.158-.644-.766zm11.295 0l-5.03 4.248-4.636-4.197-.67.742 4.535 4.106-4.85 4.096.645.763 4.953-4.183 4.77 4.316.67-.74-4.669-4.227 4.926-4.158-.644-.766zm11.295 0l-5.03 4.248-4.636-4.197-.67.742 4.535 4.106-4.85 4.096.645.763 4.953-4.183 4.77 4.316.67-.74-4.669-4.227 4.926-4.158-.644-.766zm11.295 0l-5.03 4.248-4.636-4.197-.67.742 4.535 4.106-4.85 4.096.645.763 4.953-4.183 4.77 4.316.67-.74-4.669-4.227 4.926-4.158-.644-.766zm-156.5.051l-.67.742 1.025.93a8.87 8.87 0 011.752.236l-2.107-1.908zm67.77 0l-.67.742 4.534 4.106-4.85 4.096.645.763 4.953-4.183 4.77 4.316.67-.74-4.668-4.227 2.262-1.908c-.373-.114-.748-.222-1.106-.375l-1.904 1.607-4.637-4.197zm19.454 2.53c-.672.153-1.346.282-2.021.398l-1.502 1.27-1.035-.938c-.447.044-.892.112-1.338.139l1.601 1.449-4.85 4.096.645.763 4.953-4.183 4.77 4.316.67-.74-4.668-4.227 2.775-2.343zm-84.687 5.613c.625 6.016-3.34 19.743 3.127 20.719.033.005.063.008.095.011-.05.44-.21 1.903-.216 2.526-.275-.374-1.607-.887-2.217-1.108 1.62-4.291-10.322-7.809-14.526-6.213 5.651 2.745 12.435 10.348 14.405 6.49a.132.145 62.605 01-.104-.025s-1.969-1.48-4.668-3.006c-2.699-1.526-6.13-3.092-9.014-3.267a.132.145 62.605 01-.12-.145.132.145 62.605 01.16-.125c2.974.182 6.42 1.768 9.134 3.303a50.265 50.265 0 013.366 2.088c.834.565 1.33.937 1.33.937a.132.145 62.605 01.013.188.132.145 62.605 01-.095.053c.524.222 1.517.655 2.068.982-5.211 1.145-8.587 4.841-11.576 8.033-.187.078.322.497.508.522 3.627-4.685 6.716-6.826 11.246-7.922-.142.632-.3 1.705.113 2.133-4.6 1.937 1.294 7.373 3.738 11.603.963-4.922-.014-12.93-3.433-11.724l-.034.013c-.32-.84.023-2.096.03-2.12a.048.048 0 01.01-.003l2.298.729c-1.694 4.045 13.484 6.211 19.733 9.605-2.162-6.287-17.18-13.938-19.608-9.863l-2.343-.799 2.341-1.48a.132.145 62.605 01-.086-.07.132.145 62.605 01.08-.18s4.473-1.963 9.598-3.782c2.563-.909 5.29-1.783 7.707-2.357 2.418-.574 4.52-.856 5.873-.555a.132.145 62.605 01.094.162.132.145 62.605 01-.178.102c-1.254-.28-3.34-.017-5.74.553-2.4.57-5.118 1.44-7.674 2.347a159.787 159.787 0 00-9.576 3.774.132.145 62.605 01-.098.006c1.713 3.358 12.051-3.21 23.854-6.87-12.147-2.751-25.711.63-23.988 6.528.01.032.023.057.033.088l-2.309 1.406.164-2.537c5.715.118-.255-18.213-3.515-20.75zm6.476.015c.195.498.372.999.53 1.506l.51-.564-1.04-.942zm-6.219.323a.132.145 62.605 01.096.045c.583.678 1.031 2.252 1.43 4.265.398 2.014.726 4.458.986 6.822.52 4.73.772 9.143.772 9.143a.132.145 62.605 01-.135.15.132.145 62.605 01-.15-.117s-.25-4.408-.77-9.129c-.26-2.36-.588-4.799-.984-6.8-.397-2.002-.88-3.575-1.377-4.153a.132.145 62.605 01.027-.191.132.145 62.605 01.105-.035zm-60.898 1.359l-5.03 4.248-4.636-4.197-.67.742 4.535 4.105-4.85 4.096.645.764 4.953-4.184 4.77 4.317.67-.74-4.668-4.227 4.926-4.158-.645-.766zm11.295 0l-5.03 4.248-4.636-4.197-.67.742 4.535 4.105-4.85 4.096.645.764 4.953-4.184 4.77 4.317.67-.74-4.668-4.227 4.925-4.158-.644-.766zm11.295 0l-5.03 4.248-4.636-4.197-.67.742 4.535 4.105-4.85 4.096.645.764 4.953-4.184 4.77 4.317.67-.74-4.668-4.227 4.925-4.158-.644-.766zm11.295 0l-5.03 4.248-4.636-4.197-.67.742 4.535 4.105-4.85 4.096.645.764 4.953-4.184 4.77 4.317.67-.74-4.668-4.227 4.925-4.158-.644-.766zm11.295 0l-5.03 4.248-4.636-4.197-.67.742 4.535 4.105-4.85 4.096.645.764 4.953-4.184 4.766 4.315c.203-.267.399-.538.59-.815l-4.585-4.15 4.926-4.158-.644-.766zm22.59 0l-.053.045c.106.353.206.702.303 1.053l.394-.332-.644-.766zm11.294 0l-5.029 4.248-4.637-4.197-.67.742 4.536 4.105-2.807 2.37c.232.251.49.47.78.65l2.775-2.344 2.904 2.63c.45-.048.894-.088 1.342-.134l-3.475-3.146 4.926-4.158-.644-.766zm11.295 0l-5.029 4.248-4.637-4.197-.67.742 4.536 4.105-3.442 2.907a58.602 58.602 0 011.678-.11l2.512-2.12 2.507 2.269c.673.093 1.318.225 1.934.402l-3.67-3.322 4.926-4.158-.645-.766zm11.295 0l-5.029 4.248-4.637-4.197-.67.742 4.536 4.105-4.608 3.891c.328.152.643.32.945.51l4.41-3.725 4.77 4.317.67-.74-4.668-4.227 4.926-4.158-.645-.766zm11.295 0l-5.029 4.248-4.637-4.197-.67.742 4.535 4.105-4.85 4.096.645.764 4.954-4.184 4.77 4.317.669-.74-4.668-4.227 4.926-4.158-.645-.766zm11.295 0l-5.03 4.248-4.636-4.197-.67.742 4.535 4.105-4.85 4.096.645.764 4.953-4.184 4.77 4.317.67-.74-4.668-4.227 4.926-4.158-.645-.766zm11.295 0l-5.03 4.248-4.636-4.197-.67.742 4.535 4.105-4.85 4.096.645.764 4.953-4.184 4.77 4.317.67-.74-4.668-4.227 4.926-4.158-.645-.766zm11.295 0l-5.03 4.248-4.636-4.197-.67.742 4.535 4.105-4.85 4.096.645.764 4.953-4.184 4.77 4.317.67-.74-4.668-4.227 4.926-4.158-.645-.766zm11.295 0l-5.03 4.248-4.636-4.197-.67.742 4.535 4.105-4.85 4.096.645.764 4.953-4.184 4.77 4.317.67-.74-4.668-4.227 4.925-4.158-.644-.766zm11.295 0l-5.03 4.248-4.636-4.197-.67.742 4.535 4.105-4.85 4.096.645.764 4.953-4.184 4.77 4.317.67-.74-4.668-4.227 4.925-4.158-.644-.766zm11.295 0l-5.03 4.248-4.636-4.197-.67.742 4.535 4.105-4.85 4.096.645.764 4.953-4.184 4.77 4.317.67-.74-4.668-4.227 4.925-4.158-.644-.766zm11.295 0l-5.03 4.248-4.636-4.197-.67.742 4.535 4.105-4.85 4.096.645.764 4.953-4.184 4.77 4.317.67-.74-4.669-4.227 4.926-4.158-.644-.766zm11.295 0l-5.03 4.248-4.636-4.197-.67.742 4.535 4.105-4.85 4.096.645.764 4.953-4.184 4.77 4.317.67-.74-4.669-4.227 4.926-4.158-.644-.766zm11.295 0l-5.03 4.248-4.636-4.197-.67.742 4.535 4.105-4.85 4.096.645.764 4.953-4.184 4.77 4.317.67-.74-4.669-4.227 4.926-4.158-.644-.766zm-167.795.05l-.67.743 2.549 2.309c.145-.324.284-.644.425-.965l-2.304-2.086zm-46.809 9.84l-5.03 4.249-4.636-4.198-.67.743 4.535 4.105-4.85 4.096.645.763 4.953-4.183 4.77 4.316.67-.74-4.668-4.226 4.926-4.159-.645-.765zm11.295 0l-5.03 4.249-4.636-4.198-.67.743 4.535 4.105-4.85 4.096.645.763 4.953-4.183 4.77 4.316.67-.74-4.668-4.226 4.925-4.159-.644-.765zm11.295 0l-5.03 4.249-4.636-4.198-.67.743 4.535 4.105-4.85 4.096.645.763 4.953-4.183 4.77 4.316.67-.74-4.668-4.226 4.925-4.159-.644-.765zm11.295 0l-5.03 4.249-4.636-4.198-.67.743 4.535 4.105-4.85 4.096.645.763 4.953-4.183 4.77 4.316.67-.74-4.668-4.226 4.925-4.159-.644-.765zm67.77 0l-5.03 4.249-1.521-1.377c.132.464.184.969.171 1.504l.579.523-.706.596c-.087.53-.207 1.073-.378 1.627l1.832-1.547 4.77 4.316.67-.74-4.669-4.226 4.926-4.159-.645-.765zm11.294 0l-5.029 4.249-4.637-4.198-.67.743 4.535 4.105-4.85 4.096.645.763 4.954-4.183 4.77 4.316.669-.74-4.668-4.226 4.926-4.159-.645-.765zm11.295 0l-5.03 4.249-4.636-4.198-.67.743 4.535 4.105-4.85 4.096.645.763 4.953-4.183 4.77 4.316.67-.74-4.668-4.226 4.926-4.159-.645-.765zm11.295 0l-5.03 4.249-4.636-4.198-.67.743 4.535 4.105-4.85 4.096.645.763 4.953-4.183 4.77 4.316.67-.74-4.668-4.226 4.926-4.159-.645-.765zm11.295 0l-5.03 4.249-4.636-4.198-.67.743 4.535 4.105-4.85 4.096.645.763 4.953-4.183 4.77 4.316.67-.74-4.668-4.226 4.926-4.159-.645-.765zm11.295 0l-5.03 4.249-4.636-4.198-.67.743 4.535 4.105-4.85 4.096.645.763 4.953-4.183 4.77 4.316.67-.74-4.668-4.226 4.925-4.159-.644-.765zm11.295 0l-5.03 4.249-4.636-4.198-.67.743 4.535 4.105-4.85 4.096.645.763 4.953-4.183 4.77 4.316.67-.74-4.668-4.226 4.925-4.159-.644-.765zm11.295 0l-5.03 4.249-4.636-4.198-.67.743 4.535 4.105-4.85 4.096.645.763 4.953-4.183 4.77 4.316.67-.74-4.668-4.226 4.925-4.159-.644-.765zm11.295 0l-5.03 4.249-4.636-4.198-.67.743 4.535 4.105-4.85 4.096.645.763 4.953-4.183 4.77 4.316.67-.74-4.669-4.226 4.926-4.159-.644-.765zm11.295 0l-5.03 4.249-4.636-4.198-.67.743 4.535 4.105-4.85 4.096.645.763 4.953-4.183 4.77 4.316.67-.74-4.669-4.226 4.926-4.159-.644-.765zm11.295 0l-5.03 4.249-4.636-4.198-.67.743 4.535 4.105-4.85 4.096.645.763 4.953-4.183 4.77 4.316.67-.74-4.669-4.226 4.926-4.159-.644-.765zm-179.09.051l-.67.743 4.535 4.105-4.85 4.096.645.763 4.953-4.183.947.857c.055-.38.14-.755.244-1.127l-.42-.38.803-.678a8.46 8.46 0 011.75-2.572c.288-.293.56-.6.826-.913l-4.127 3.487-4.636-4.198zm-35.514 9.84l-5.03 4.248-4.636-4.197-.67.742 4.535 4.106-4.85 4.095.645.764 4.953-4.183 4.77 4.316.67-.74-4.668-4.227 4.926-4.158-.645-.766zm11.295 0l-5.03 4.248-4.636-4.197-.67.742 4.535 4.106-4.85 4.095.645.764 4.953-4.183 4.77 4.316.67-.74-4.668-4.227 4.925-4.158-.644-.766zm11.295 0l-5.03 4.248-4.636-4.197-.67.742 4.535 4.106-4.85 4.095.645.764 4.953-4.183 4.77 4.316.67-.74-4.668-4.227 4.925-4.158-.644-.766zm11.295 0l-5.03 4.248-4.636-4.197-.67.742 4.535 4.106-4.85 4.095.645.764 4.953-4.183 4.77 4.316.67-.74-4.668-4.227 4.925-4.158-.644-.766zm67.77 0l-5.03 4.248-3.498-3.166c-.161.31-.324.613-.488.907l3.215 2.91-4.85 4.095.644.764 4.954-4.183 4.77 4.316.67-.74-4.669-4.227 4.926-4.158-.645-.766zm11.294 0l-5.029 4.248-4.637-4.197-.67.742 4.535 4.106-4.85 4.095.645.764 4.954-4.183 4.77 4.316.669-.74-4.668-4.227 4.926-4.158-.645-.766zm11.295 0l-5.03 4.248-4.636-4.197-.67.742 4.535 4.106-4.85 4.095.645.764 4.953-4.183 4.77 4.316.67-.74-4.668-4.227 4.926-4.158-.645-.766zm11.295 0l-5.03 4.248-4.636-4.197-.67.742 4.535 4.106-4.85 4.095.645.764 4.953-4.183 4.77 4.316.67-.74-4.668-4.227 4.926-4.158-.645-.766zm11.295 0l-5.03 4.248-4.636-4.197-.67.742 4.535 4.106-4.85 4.095.645.764 4.953-4.183 4.77 4.316.67-.74-4.668-4.227 4.926-4.158-.645-.766zm11.295 0l-5.03 4.248-4.636-4.197-.67.742 4.535 4.106-4.85 4.095.645.764 4.953-4.183 4.77 4.316.67-.74-4.668-4.227 4.925-4.158-.644-.766zm11.295 0l-5.03 4.248-4.636-4.197-.67.742 4.535 4.106-4.85 4.095.645.764 4.953-4.183 4.77 4.316.67-.74-4.668-4.227 4.925-4.158-.644-.766zm11.295 0l-5.03 4.248-4.636-4.197-.67.742 4.535 4.106-4.85 4.095.645.764 4.953-4.183 4.77 4.316.67-.74-4.668-4.227 4.925-4.158-.644-.766zm11.295 0l-5.03 4.248-4.636-4.197-.67.742 4.535 4.106-4.85 4.095.645.764 4.953-4.183 4.77 4.316.67-.74-4.669-4.227 4.926-4.158-.644-.766zm11.295 0l-5.03 4.248-4.636-4.197-.67.742 4.535 4.106-4.85 4.095.645.764 4.953-4.183 4.77 4.316.67-.74-4.669-4.227 4.926-4.158-.644-.766zm11.295 0l-5.03 4.248-4.636-4.197-.67.742 4.535 4.106-4.85 4.095.645.764 4.953-4.183 4.77 4.316.67-.74-4.669-4.227 4.926-4.158-.644-.766zm-179.09.051l-.67.742 4.535 4.106-4.85 4.095.645.764 4.953-4.183 4.77 4.316.505-.559a36.632 36.632 0 01-.564-.841l-3.94-3.567 1.397-1.18c-.135-.324-.27-.646-.389-.978l-1.756 1.482-4.636-4.197zm30.994 2.893s3.892 1.146 8.213 2.859c3.038 1.205 6.289 2.68 8.56 4.256.152.105.3.21.442.316.76.565 1.383 1.14 1.822 1.72a.132.145 62.605 01-.037.19.132.145 62.605 01-.2-.023c-1.67-2.208-6.406-4.499-10.714-6.207-4.308-1.708-8.19-2.854-8.19-2.854a.132.145 62.605 01-.08-.167.132.145 62.605 01.184-.09zm-2.58 1.642a.132.145 62.605 01.08.065s.865 1.714 1.726 3.904c.862 2.19 1.725 4.851 1.715 6.793a.132.145 62.605 01-.144.144.132.145 62.605 01-.14-.126c.01-1.864-.843-4.523-1.7-6.702-.857-2.179-1.715-3.882-1.715-3.882a.132.145 62.605 01.07-.184.132.145 62.605 01.108-.012zm25.664 3.52l-.217 1.15.701.635.67-.74-1.154-1.045zm-89.592 1.785l-5.03 4.248-4.636-4.197-.67.742 4.535 4.105-4.85 4.096.645.764 4.953-4.184 4.77 4.317.67-.74-4.668-4.227 4.926-4.158-.645-.766zm11.295 0l-5.03 4.248-4.636-4.197-.67.742 4.535 4.105-4.85 4.096.645.764 4.953-4.184 4.77 4.317.67-.74-4.668-4.227 4.925-4.158-.644-.766zm11.295 0l-5.03 4.248-4.636-4.197-.67.742 4.535 4.105-4.85 4.096.645.764 4.953-4.184 4.77 4.317.67-.74-4.668-4.227 4.925-4.158-.644-.766zm11.295 0l-5.03 4.248-4.636-4.197-.67.742 4.535 4.105-4.85 4.096.645.764 4.953-4.184 4.77 4.317.67-.74-4.668-4.227 4.925-4.158-.644-.766zm11.295 0l-5.03 4.248-4.636-4.197-.67.742 4.535 4.105-4.85 4.096.645.764 4.953-4.184 1.004.908.87-.56-1.103-.998 4.926-4.158-.644-.766zm45.18 0l-1.315 1.11-.295 1.558 2.254-1.902-.645-.766zm11.294 0l-5.029 4.248-4.637-4.197-.67.742 4.536 4.105-4.85 4.096.644.764 4.954-4.184 4.77 4.317.67-.74-4.669-4.227 4.926-4.158-.645-.766zm11.295 0l-5.029 4.248-4.637-4.197-.67.742 4.535 4.105-4.85 4.096.645.764 4.954-4.184 4.77 4.317.669-.74-4.668-4.227 4.926-4.158-.645-.766zm11.295 0l-5.03 4.248-4.636-4.197-.67.742 4.535 4.105-4.85 4.096.645.764 4.953-4.184 4.77 4.317.67-.74-4.668-4.227 4.926-4.158-.645-.766zm11.295 0l-5.03 4.248-4.636-4.197-.67.742 4.535 4.105-4.85 4.096.645.764 4.953-4.184 4.77 4.317.67-.74-4.668-4.227 4.926-4.158-.645-.766zm11.295 0l-5.03 4.248-4.636-4.197-.67.742 4.535 4.105-4.85 4.096.645.764 4.953-4.184 4.77 4.317.67-.74-4.668-4.227 4.926-4.158-.645-.766zm11.295 0l-5.03 4.248-4.636-4.197-.67.742 4.535 4.105-4.85 4.096.645.764 4.953-4.184 4.77 4.317.67-.74-4.668-4.227 4.925-4.158-.644-.766zm11.295 0l-5.03 4.248-4.636-4.197-.67.742 4.535 4.105-4.85 4.096.645.764 4.953-4.184 4.77 4.317.67-.74-4.668-4.227 4.925-4.158-.644-.766zm11.295 0l-5.03 4.248-4.636-4.197-.67.742 4.535 4.105-4.85 4.096.645.764 4.953-4.184 4.77 4.317.67-.74-4.668-4.227 4.925-4.158-.644-.766zm11.295 0l-5.03 4.248-4.636-4.197-.67.742 4.535 4.105-4.85 4.096.645.764 4.953-4.184 4.77 4.317.67-.74-4.669-4.227 4.926-4.158-.644-.766zm11.295 0l-5.03 4.248-4.636-4.197-.67.742 4.535 4.105-4.85 4.096.645.764 4.953-4.184 4.77 4.317.67-.74-4.669-4.227 4.926-4.158-.644-.766zm11.295 0l-5.03 4.248-4.636-4.197-.67.742 4.535 4.105-4.85 4.096.645.764 4.953-4.184 4.77 4.317.67-.74-4.669-4.227 4.926-4.158-.644-.766zm-168.329.64l-.136.153.85.77a40.496 40.496 0 01-.714-.922zm41.721 6.02l-.219 1.15 2.3 2.08.67-.74-2.75-2.49zm-45.437 1.115l2.338 2.116.67-.74-1.422-1.288-1.586-.088zm4.416.246l-1.15.973.644.764 1.959-1.655-1.453-.082zm7.623.428l1.593 1.442.67-.74-.675-.614-1.588-.088zm2.97.166l-.449.38.645.763 1.256-1.06-1.452-.083zm9.07.508l.848.768.62-.686-1.467-.082zm1.98.111l.44.524.555-.469-.996-.055zm10.06.563l.103.094.075-.082-.178-.012z" color="#000"/>
</svg>
