<svg xmlns="http://www.w3.org/2000/svg" cursor="default" viewBox="0 0 256 256">
    <defs>
        <marker id="ColoredTriangle" markerHeight="1" markerWidth="1" orient="auto-start-reverse" overflow="visible" preserveAspectRatio="xMidYMid" refX="0" refY="0" viewBox="0 0 1 1">
            <path fill="context-fill" fill-rule="evenodd" stroke="context-stroke" stroke-width="1" d="M2.885 0L-1.44 2.5v-5z"/>
        </marker>
        <linearGradient id="linearGradient924" x1="18.12" x2="21.466" y1="241.29" y2="228.73" gradientTransform="scale(1 -1) rotate(-89.503 -.246 -.024)" gradientUnits="userSpaceOnUse">
            <stop offset="0" stop-color="#917c6f"/>
            <stop offset="1" stop-color="#ac9d93"/>
        </linearGradient>
        <linearGradient id="innoGrad4">
            <stop offset="0" stop-color="#ffb380"/>
            <stop offset="1" stop-color="#fca"/>
        </linearGradient>
    </defs>
    <path fill="#008000" stroke="#000" stroke-linejoin="round" stroke-width="3.71" d="M127.928 26.048A100.961 102.502 0 0026.965 128.55a100.961 102.502 0 00100.963 102.502 100.961 102.502 0 00100.96-102.502 100.961 102.502 0 00-100.96-102.502zm-.104 85.266a17.604 17.104 0 0117.604 17.103 17.604 17.104 0 01-17.604 17.106 17.604 17.104 0 01-17.603-17.106 17.604 17.104 0 0117.603-17.103z"/>
    <path fill="none" stroke="#000" stroke-linejoin="round" stroke-width="1.601" marker-end="url(#ColoredTriangle)" marker-mid="url(#ColoredTriangle)" d="M228.613 127.219h-83.627m53.679-70.86l-59.534 60.164m-11.337-89.785l-.094 85.266M56.923 56.359l59.338 60.148M26.975 127.22l83.423-.025"/>
    <ellipse cx="128.208" cy="128.868" fill="none" stroke="#000" stroke-linejoin="round" stroke-width="1.152" rx="9.776" ry="9.876"/>
</svg>
