<?xml version="1.0" encoding="UTF-8" standalone="no"?>
<svg
   cursor="default"
   version="1.1"
   viewBox="0 0 256 256"
   id="svg34"
   sodipodi:docname="maw.svg"
   inkscape:version="1.3.1 (9b9bdc1480, 2023-11-25, custom)"
   xmlns:inkscape="http://www.inkscape.org/namespaces/inkscape"
   xmlns:sodipodi="http://sodipodi.sourceforge.net/DTD/sodipodi-0.dtd"
   xmlns:xlink="http://www.w3.org/1999/xlink"
   xmlns="http://www.w3.org/2000/svg"
   xmlns:svg="http://www.w3.org/2000/svg">
  <sodipodi:namedview
     id="namedview34"
     pagecolor="#ffffff"
     bordercolor="#666666"
     borderopacity="1.0"
     inkscape:showpageshadow="2"
     inkscape:pageopacity="0.0"
     inkscape:pagecheckerboard="0"
     inkscape:deskcolor="#d1d1d1"
     inkscape:zoom="3.0546875"
     inkscape:cx="72.511509"
     inkscape:cy="126.69054"
     inkscape:window-width="1854"
     inkscape:window-height="1010"
     inkscape:window-x="0"
     inkscape:window-y="0"
     inkscape:window-maximized="1"
     inkscape:current-layer="svg34"
     showgrid="false" />
  <defs
     id="defs18">
    <inkscape:path-effect
       effect="rough_hatches"
       id="path-effect27"
       is_visible="true"
       lpeversion="1.2"
       direction="130.23338,84.722658 , 44.619617,0"
       dist_rdm="0;1"
       growth="0"
       do_bend="true"
       bender="130.23338,89.722658 , 5,0"
       bottom_edge_variation="0;1"
       top_edge_variation="0;1"
       bottom_tgt_variation="0;1"
       top_tgt_variation="0;1"
       scale_bf="1"
       scale_bb="1"
       scale_tf="1"
       scale_tb="1"
       top_smth_variation="0;1"
       bottom_smth_variation="0;1"
       fat_output="true"
       stroke_width_top="1"
       stroke_width_bottom="1"
       front_thickness="1"
       back_thickness="0.25" />
    <inkscape:path-effect
       effect="rough_hatches"
       id="path-effect25"
       is_visible="true"
       lpeversion="1.2"
       direction="130.33594,169.64062 , 44.499022,0"
       dist_rdm="0;1"
       growth="0"
       do_bend="true"
       bender="130.33594,174.64062 , 5,0"
       bottom_edge_variation="0;1"
       top_edge_variation="0;1"
       bottom_tgt_variation="0;1"
       top_tgt_variation="0;1"
       scale_bf="0"
       scale_bb="0"
       scale_tf="0.3"
       scale_tb="1.2"
       top_smth_variation="0;1"
       bottom_smth_variation="0;1"
       fat_output="true"
       stroke_width_top="1"
       stroke_width_bottom="1"
       front_thickness="1"
       back_thickness="0.25" />
    <inkscape:path-effect
       effect="rough_hatches"
       id="path-effect22"
       is_visible="true"
       lpeversion="1.2"
       direction="130.23338,125.46803 , 44.619244,0"
       dist_rdm="0;1"
       growth="0"
       do_bend="true"
       bender="130.23338,130.46803 , 5,0"
       bottom_edge_variation="0;1"
       top_edge_variation="0;1"
       bottom_tgt_variation="0;1"
       top_tgt_variation="0;1"
       scale_bf="0"
       scale_bb="0"
       scale_tf="0"
       scale_tb="0"
       top_smth_variation="0;1"
       bottom_smth_variation="0;1"
       fat_output="true"
       stroke_width_top="0"
       stroke_width_bottom="0"
       front_thickness="0"
       back_thickness="0" />
    <linearGradient
       id="linearGradient924"
       x1="18.12"
       x2="21.466"
       y1="241.29"
       y2="228.73"
       gradientTransform="matrix(.0086692 .99996 .99996 -.0086692 -.22047 .26984)"
       gradientUnits="userSpaceOnUse">
      <stop
         stop-color="#917c6f"
         offset="0"
         id="stop1" />
      <stop
         stop-color="#ac9d93"
         offset="1"
         id="stop2" />
    </linearGradient>
    <linearGradient
       id="innoGrad4">
      <stop
         stop-color="#ffb380"
         offset="0"
         id="stop3" />
      <stop
         stop-color="#fca"
         offset="1"
         id="stop4" />
    </linearGradient>
    <linearGradient
       id="innoGrad5"
       x1="149.74"
       x2="147.34"
       y1="110.12"
       y2="107.69"
       gradientTransform="matrix(.0086692 .99996 .99996 -.0086692 -.22047 .26984)"
       gradientUnits="userSpaceOnUse">
      <stop
         stop-color="#916f6f"
         offset="0"
         id="stop5" />
      <stop
         stop-color="#ac9393"
         offset="1"
         id="stop6" />
    </linearGradient>
    <linearGradient
       id="linearGradient1284"
       x1="30"
       x2="30.714"
       y1="226.18"
       y2="225.42"
       gradientTransform="matrix(.0086692 .99996 .99996 -.0086692 -.22047 .26984)"
       gradientUnits="userSpaceOnUse"
       xlink:href="#innoGrad4" />
    <linearGradient
       id="linearGradient1292"
       x1="37.634"
       x2="38.214"
       y1="219.17"
       y2="218.59"
       gradientTransform="matrix(.0086692 .99996 .99996 -.0086692 -.22047 .26984)"
       gradientUnits="userSpaceOnUse"
       xlink:href="#innoGrad4" />
    <linearGradient
       id="linearGradient1306"
       x1="40.045"
       x2="40.938"
       y1="216.76"
       y2="215.78"
       gradientTransform="matrix(.0086692 .99996 .99996 -.0086692 -.22047 .26984)"
       gradientUnits="userSpaceOnUse"
       xlink:href="#innoGrad4" />
    <linearGradient
       id="linearGradient1314"
       x1="42.455"
       x2="43.348"
       y1="214.21"
       y2="213.32"
       gradientTransform="matrix(.0086692 .99996 .99996 -.0086692 -.22047 .26984)"
       gradientUnits="userSpaceOnUse"
       xlink:href="#innoGrad4" />
    <linearGradient
       id="linearGradient1322"
       x1="50.58"
       x2="51.071"
       y1="206.49"
       y2="206.04"
       gradientTransform="matrix(.0086692 .99996 .99996 -.0086692 -.22047 .26984)"
       gradientUnits="userSpaceOnUse"
       xlink:href="#innoGrad4" />
    <linearGradient
       id="innoGrad3"
       x1="27.009"
       x2="54.821"
       y1="229.57"
       y2="202.83"
       gradientTransform="matrix(.0086692 .99996 .99996 -.0086692 -.22047 .26984)"
       gradientUnits="userSpaceOnUse">
      <stop
         stop-color="#f95"
         offset="0"
         id="stop7" />
      <stop
         stop-color="#ff7f2a"
         offset=".088"
         id="stop8" />
      <stop
         stop-color="#f95"
         offset=".265"
         id="stop9" />
      <stop
         stop-color="#ff7f2a"
         offset=".446"
         id="stop10" />
      <stop
         stop-color="#ff7f2a"
         offset=".601"
         id="stop11" />
      <stop
         stop-color="#f95"
         offset=".733"
         id="stop12" />
      <stop
         stop-color="#ff7f2a"
         offset=".863"
         id="stop13" />
      <stop
         stop-color="#f95"
         offset="1"
         id="stop14" />
    </linearGradient>
    <linearGradient
       id="linearGradient903"
       x1="200.1"
       x2="191.22"
       y1="65.966"
       y2="57.051"
       gradientUnits="userSpaceOnUse">
      <stop
         stop-color="#916f6f"
         offset="0"
         id="stop15" />
      <stop
         stop-color="#ac9393"
         offset="1"
         id="stop16" />
    </linearGradient>
    <linearGradient
       id="linearGradient943"
       x1="185.93"
       x2="178.95"
       y1="77.051"
       y2="70.746"
       gradientUnits="userSpaceOnUse"
       xlink:href="#linearGradient924" />
    <linearGradient
       id="linearGradient951"
       x1="181.93"
       x2="175.36"
       y1="82.508"
       y2="76.271"
       gradientUnits="userSpaceOnUse"
       xlink:href="#linearGradient924" />
    <linearGradient
       id="linearGradient938"
       x1="18.12"
       x2="21.466"
       y1="241.29"
       y2="228.73"
       gradientTransform="matrix(.0086692 .99996 .99996 -.0086692 -.22047 .26984)"
       gradientUnits="userSpaceOnUse">
      <stop
         stop-color="#fd5"
         offset="0"
         id="stop17" />
      <stop
         stop-color="#fea"
         offset="1"
         id="stop18" />
    </linearGradient>
  </defs>
  <g
     inkscape:groupmode="layer"
     id="layer1"
     inkscape:label="Layer 1"
     style="display:none;fill:#ff0000">
    <rect
       style="fill:#ff0000;fill-opacity:1;stroke:#000000;stroke-width:5.58907;stroke-linejoin:round;stroke-dasharray:none"
       id="rect4"
       width="234.22482"
       height="172.65952"
       x="6.7664566"
       y="41.968075" />
  </g>
  <ellipse
     style="display:inline;fill:#921313;fill-opacity:1;stroke:#000000;stroke-width:3.00094;stroke-linejoin:round;stroke-dasharray:none"
     id="path1"
     cx="128.54922"
     cy="128.2321"
     rx="90.068413"
     ry="80.152817" />
  <path
     id="path3"
     style="display:inline;fill:none;fill-opacity:1;stroke:#000000;stroke-width:3.00094;stroke-linecap:butt;stroke-linejoin:miter;stroke-dasharray:none;stroke-opacity:1"
     d="m 210.93734,140.1023 4.86061,6.99361 v 0 M 50.672634,124.19949 40.835038,120.17263 v 0 M 211.76873,96.393889 c 0,0 -0.18724,6.344421 -0.95055,12.021731 -0.76392,5.68189 -2.08082,10.67579 -3.96125,8.00192 -2.04108,-2.90231 -2.88135,-11.60447 -3.91741,-20.132094 -1.04245,-8.580239 -2.28333,-17.015385 -4.64197,-19.646722 -2.53297,-2.825812 -3.62942,3.874978 -4.7246,11.011273 -1.09474,7.133404 -2.19997,14.726003 -4.17461,13.669363 -2.13026,-1.13991 -3.10495,-10.477593 -4.32372,-19.867127 -1.22208,-9.414955 -2.68815,-18.870526 -5.06207,-20.373311 -2.53596,-1.605365 -3.43369,6.931693 -4.39672,15.73682 -0.96253,8.800623 -2.01007,17.855805 -3.98758,17.264173 -2.16468,-0.647631 -3.19832,-10.70867 -4.5378,-20.815328 -1.33947,-10.106658 -2.98708,-20.258935 -5.32253,-21.089041 -2.52638,-0.89797 -3.26673,8.735838 -4.13155,18.519004 -0.86482,9.783167 -1.86246,19.715693 -3.84328,19.41516 -2.16831,-0.328979 -3.2518,-10.765098 -4.65982,-21.201852 -1.40802,-10.436754 -3.1406,-20.874143 -5.45284,-21.20566 -2.50127,-0.358621 -3.15718,9.868942 -3.96957,20.170306 -0.8124,10.301363 -1.78546,20.676527 -3.76655,20.613109 -2.1686,-0.06942 -3.30274,-10.532132 -4.18857,-20.977489 -0.88567,-10.44357 -1.52236,-20.873358 -1.52236,-20.873358 0,0 0.58859,10.677767 1.44331,21.370357 0.85487,10.694356 1.97511,21.407068 4.26861,21.48049 2.48101,0.07943 3.71858,-10.259602 4.54616,-20.546899 0.82758,-10.287297 1.24808,-20.522863 3.24488,-20.236516 2.1858,0.313449 3.8417,10.741356 5.23605,21.177886 1.39434,10.43653 2.52667,20.881684 4.8195,21.229626 2.48028,0.376388 3.74292,-9.465653 4.62408,-19.22254 0.88116,-9.756888 1.38557,-19.428623 3.40184,-18.711624 2.20711,0.784864 3.77859,10.918475 5.10534,21.02711 1.32675,10.108636 2.41002,20.192296 4.69856,20.877259 2.47563,0.74096 3.78716,-8.152001 4.76644,-16.908846 0.97993,-8.762656 1.64264,-17.371762 3.6623,-16.092147 2.24334,1.421337 3.63525,10.844416 4.84604,20.262728 1.20753,9.392934 2.23351,18.77176 4.48556,19.97771 2.46618,1.32062 3.83305,-5.984772 4.94366,-13.043619 1.11142,-7.064016 1.97213,-13.890203 3.98878,-11.637017 2.22687,2.488064 3.39682,10.84071 4.43036,19.413211 1.02717,8.519685 1.92046,17.295435 4.07546,20.365605 2.34836,3.34565 3.68876,-1.88901 4.34683,-7.99462 0.65709,-6.0964 0.60159,-13.029031 0.60159,-13.029031 z m -90.43514,-49.34124 c 0,0 0.47249,10.387863 0.15912,20.81798 -0.31335,10.42949 -1.41483,20.899981 -3.39563,21.063983 -2.16829,0.179525 -3.26213,-9.984013 -4.66032,-20.055972 -1.39819,-10.071959 -3.09559,-20.052339 -5.35941,-19.506498 -2.4489,0.590466 -3.13713,10.920821 -3.98745,21.208168 -0.85032,10.287347 -1.86045,20.531685 -3.84245,20.950118 -2.169598,0.458037 -3.226798,-9.067782 -4.552393,-18.445719 -1.324823,-9.372468 -2.899817,-18.61346 -5.156667,-17.558424 -2.405072,1.124329 -3.230218,11.077423 -4.168562,20.905354 -0.939399,9.838976 -2.013327,19.585926 -4.001605,20.353193 -2.163912,0.835043 -3.172588,-7.65827 -4.387656,-15.93653 -1.21375,-8.269279 -2.62914,-16.321371 -4.872403,-14.558983 -2.397871,1.883853 -3.397114,11.238285 -4.473293,20.436869 -1.080053,9.231696 -2.236616,18.317072 -4.271667,19.828362 -2.199174,1.63318 -3.120601,-5.35682 -4.193546,-11.944217 -1.073219,-6.589082 -2.284837,-12.74183 -4.553596,-9.442593 -2.426195,3.52818 -3.585252,13.541835 -4.295002,22.51818 -0.713483,9.02354 -0.983313,17.15424 -0.983313,17.15424 0,0 0.523017,-8.24128 1.359291,-17.19475 0.832134,-8.909139 1.988276,-18.667533 3.924485,-21.47767 2.150098,-3.12057 3.289263,3.08239 4.351719,9.648533 1.06233,6.565367 2.037185,13.466467 4.366623,11.738277 2.548787,-1.89092 3.961001,-11.164044 5.046614,-20.399103 1.081737,-9.202084 1.837917,-18.363501 3.752566,-19.866128 2.124122,-1.667022 3.46522,6.410203 4.666438,14.667166 1.202564,8.266213 2.261496,16.711998 4.552557,15.828347 2.491414,-0.960925 3.8254,-10.822283 4.7737,-20.670048 0.9483,-9.847766 1.511568,-19.68194 3.452024,-20.588499 2.136196,-0.998004 3.635617,8.256533 4.946841,17.621129 1.312015,9.370237 2.418423,18.867454 4.713735,18.383014 2.48296,-0.524045 3.75477,-10.827883 4.61653,-21.118576 0.86175,-10.290694 1.31414,-20.568242 3.27014,-21.03971 2.14114,-0.516092 3.76236,9.469463 5.14645,19.536571 1.38409,10.067109 2.52647,20.215773 4.82,20.025899 2.48104,-0.205396 3.59586,-10.925887 3.7839,-21.595029 0.18805,-10.669524 -0.54777,-21.286934 -0.54777,-21.286934 z m -79.737525,73.695241 -0.811913,12.00724 z m 169.153285,19.59324 c 0,0 -0.80862,7.88491 -1.75334,15.67207 -0.9445,7.78536 -2.01953,15.46937 -1.77182,15.06396 0.0619,-0.10136 -1.82333,-4.26315 -3.95659,-8.26291 -2.13267,-3.99868 -4.50874,-7.83857 -5.22353,-7.29069 -2.82049,2.16187 -4.97104,11.47956 -6.53776,20.12143 -1.5713,8.66717 -2.57164,16.73441 -2.31572,16.52186 0.064,-0.0531 -1.60677,-6.90035 -3.62333,-13.66164 -2.01655,-6.76129 -4.37515,-13.43665 -5.10085,-13.14609 -2.87322,1.15041 -5.13565,10.87888 -6.85451,20.25041 -1.72104,9.38337 -2.91433,18.44533 -2.65859,18.32194 0.0639,-0.0308 -1.4076,-8.39749 -3.29944,-16.71601 -1.89184,-8.31853 -4.20141,-16.58893 -4.93041,-16.4273 -2.91598,0.64652 -5.21834,10.59758 -7.0324,20.37145 -1.81405,9.77386 -3.12912,19.37053 -2.87557,19.30826 0.0634,-0.0156 -1.26967,-9.279 -3.07355,-18.52177 -1.80388,-9.24276 -4.07737,-18.46485 -4.80724,-18.39773 -2.91948,0.26848 -5.25763,10.15923 -7.10988,19.97984 -1.85225,9.8206 -3.21427,19.57106 -2.96353,19.55895 0.0627,-0.003 -1.20301,-9.72888 -2.96748,-19.45861 -1.76447,-9.72972 -4.02797,-19.46331 -4.75797,-19.4818 -2.92,-0.074 -5.26096,9.4334 -7.09836,18.96811 -1.83741,9.53471 -3.17291,19.09676 -2.92503,19.13215 0.062,0.009 -1.20893,-9.83748 -2.98619,-19.71235 -1.77726,-9.87486 -4.06266,-19.77827 -4.79298,-19.88357 -2.92127,-0.42119 -5.23591,8.36783 -7.01007,17.28349 -1.77417,8.91566 -3.015181,17.95796 -2.769703,18.04332 0.06137,0.0213 -1.284539,-9.65808 -3.126867,-19.39573 -1.842328,-9.73764 -4.184645,-19.53351 -4.916581,-19.74506 -2.918932,-0.84365 -5.193739,6.80784 -6.863706,14.71553 -1.669429,7.90515 -2.754798,16.05887 -2.510709,16.20693 0.06102,0.037 -1.425275,-9.27046 -3.387081,-18.68285 -1.961806,-9.41239 -4.405282,-18.92972 -5.143099,-19.31242 -2.950095,-1.5302 -5.163735,4.35891 -6.69939,10.69563 -1.535507,6.33612 -2.413673,13.11801 -2.16816,13.37035 0.06138,0.0631 -1.624292,-9.41939 -3.807155,-19.20964 -2.197473,-9.85579 -4.837014,-19.82278 -5.664955,-21.05639 -3.144617,-4.68539 -5.450956,-3.61563 -6.883001,-1.18019 -1.434696,2.43994 -2.047692,6.31046 -1.76563,7.24912 0.07116,0.23681 -1.191641,-3.92686 -2.528842,-8.14972 -1.336793,-4.22159 -3.103376,-8.5075 -3.103376,-8.5075 0,0 1.705652,4.29894 3.016779,8.65229 1.311465,4.35446 2.580426,8.76813 2.651209,9.00493 0.283129,0.94723 1.178225,-2.50613 2.617868,-5.22823 1.434428,-2.71224 3.441086,-4.7228 6.040408,-0.8407 0.64818,0.96807 3.26989,11.00303 5.441214,20.81175 2.171323,9.80872 3.905626,19.39119 3.966904,19.45428 0.245111,0.25233 1.388915,-6.3985 2.940225,-12.79525 1.55174,-6.39852 3.52511,-12.53763 5.965571,-11.27073 0.610972,0.31717 2.977697,9.79748 4.926135,19.20775 1.948438,9.41027 3.482698,18.7505 3.543662,18.78752 0.243854,0.14805 1.594405,-7.93321 3.281167,-15.87616 1.686763,-7.94296 3.717096,-15.7476 6.14239,-15.0463 0.606324,0.17533 2.871297,9.94985 4.699104,19.68588 1.827807,9.73603 3.220805,19.43357 3.282141,19.45491 0.245342,0.0854 1.752068,-8.92088 3.543628,-17.86119 1.79157,-8.94031 3.8718,-17.81469 6.29229,-17.46562 0.60512,0.0873 2.8127,9.98183 4.57468,19.85678 1.76199,9.87495 3.07961,19.73029 3.14156,19.73914 0.24783,0.0354 1.84954,-9.52032 3.70349,-19.06956 1.85396,-9.54924 3.96056,-19.09201 6.38045,-19.0307 0.60498,0.0153 2.79054,9.75194 4.53944,19.48397 1.7489,9.73203 3.06143,19.45947 3.12412,19.45644 0.25076,-0.0121 1.87907,-9.78555 3.74628,-19.6116 1.8672,-9.82604 3.97006,-19.70468 6.38997,-19.92719 0.60498,-0.0556 2.80099,9.18203 4.58957,18.42971 1.78858,9.24767 3.16913,18.50536 3.23254,18.48979 0.25365,-0.0623 1.8344,-9.71429 3.66115,-19.4847 1.82676,-9.77041 3.89238,-19.6592 6.30989,-20.19501 0.60438,-0.13395 2.8378,8.1673 4.71535,16.49433 1.87755,8.32702 3.39784,16.67983 3.46183,16.64898 0.25594,-0.12339 1.71323,-9.28486 3.44397,-18.65629 1.72871,-9.36042 3.7507,-18.96385 6.13042,-19.91606 0.60182,-0.24081 2.88711,6.48769 4.89155,13.26311 2.00444,6.77542 3.72596,13.59775 3.79003,13.54462 0.25626,-0.21256 1.51682,-8.46706 3.09361,-17.12158 1.57264,-8.63178 3.48007,-17.73181 5.81811,-19.52171 0.59378,-0.45457 2.90303,3.48732 5.02823,7.51294 2.12594,4.02703 4.06508,8.14201 4.12717,8.04066 0.24834,-0.40542 1.32199,-8.33942 2.13874,-16.17208 0.8169,-7.83401 1.38155,-15.56395 1.38155,-15.56395 z m 7.96253,-11.58511 c 1e-5,44.26718 -40.55006,78.89962 -90.29347,78.89962 -49.743412,0 -90.068414,-35.88564 -90.068412,-80.15282 m 0,0 c 2e-6,-44.267177 40.325003,-80.152814 90.068412,-80.152814 49.74341,10e-7 90.06841,35.885638 90.06841,80.152814"
     sodipodi:nodetypes="cccccccssssssssssssssssssscsssssssssssssssssssccssssssssssssssssscssssssssssssssssscccccssssssssssssssssssssscssssssssssssssssscsssssssssssssssssssssssssssssssssssssssccsccsc" />
  <path
     style="fill:#f9f9f9;fill-opacity:1;stroke:#000000;stroke-width:0.347333;stroke-linejoin:round;stroke-dasharray:none"
     d="m 60.486379,178.05748 c -9.863931,-10.33135 -16.641151,-23.23669 -19.33813,-36.8241 -0.483601,-2.43639 -0.535925,-2.81417 -0.36391,-2.62743 0.241888,0.26259 2.770842,8.37506 4.363972,13.99891 0.386706,1.36509 1.294397,1.87642 2.363095,1.33122 0.561113,-0.28626 0.822499,-0.72765 1.679372,-2.83586 0.950753,-2.33919 1.857843,-4.05652 2.487934,-4.71023 0.720878,-0.7479 0.925619,-0.73204 1.751239,0.1356 0.57328,0.60246 0.70343,0.82995 1.009789,1.76505 1.516413,4.62857 4.455359,16.81331 6.551449,27.16203 0.417807,2.06278 0.740013,3.77015 0.716013,3.79415 -0.024,0.024 -0.57337,-0.5112 -1.220823,-1.18934 z"
     id="path5" />
  <path
     style="fill:#f9f9f9;fill-opacity:1;stroke:#000000;stroke-width:0.347333;stroke-linejoin:round;stroke-dasharray:none"
     d="m 78.298965,192.45313 c -2.214842,-1.3958 -4.98983,-3.27462 -6.587082,-4.45981 -2.489185,-1.84703 -4.755562,-3.71406 -4.755562,-3.91761 0,-0.29128 1.489469,-7.16481 2.080827,-9.6025 0.693348,-2.8581 1.396472,-5.31386 1.936684,-6.76412 0.62494,-1.67772 1.506894,-3.3565 1.763357,-3.3565 0.128844,0 1.126351,3.59558 2.02291,7.2917 1.32368,5.45697 2.728065,12.05302 3.831956,17.99777 0.283697,1.52778 0.543137,2.89498 0.576532,3.03821 0.08069,0.34608 0.01114,0.32792 -0.869622,-0.22714 z"
     id="path6" />
  <path
     style="fill:#f9f9f9;fill-opacity:1;stroke:#000000;stroke-width:0.347333;stroke-linejoin:round;stroke-dasharray:none"
     d="m 94.965707,200.41464 c -4.153695,-1.51031 -10.300973,-4.23939 -10.300973,-4.5731 0,-0.21588 2.082128,-10.55075 2.543133,-12.62312 0.732007,-3.29062 1.356526,-5.66589 2.024867,-7.70128 0.642252,-1.95594 1.422291,-3.716 1.577849,-3.56023 0.211687,0.21198 1.383268,5.0709 2.520017,10.45132 1.200712,5.68317 3.443522,18.05032 3.348465,18.46388 -0.02564,0.11156 -0.487702,-0.0118 -1.713358,-0.45747 z"
     id="path7" />
  <path
     style="fill:#f9f9f9;fill-opacity:1;stroke:#000000;stroke-width:0.347333;stroke-linejoin:round;stroke-dasharray:none"
     d="m 111.68299,204.81194 c -2.73799,-0.47362 -3.97687,-0.73321 -7.02359,-1.47166 -2.27371,-0.55109 -2.39823,-0.5953 -2.34398,-0.83221 0.0315,-0.13762 0.50205,-2.59255 1.04565,-5.45541 2.19734,-11.57233 3.61453,-17.42337 4.90668,-20.25788 0.29835,-0.65449 0.39045,-0.77285 0.47924,-0.61591 0.15251,0.26957 1.02394,3.90016 1.71744,7.15529 1.1072,5.19693 2.42091,12.38296 3.3643,18.40286 0.25439,1.62327 0.48208,3.06859 0.50597,3.21182 0.0557,0.3341 0.0776,0.33524 -2.65171,-0.1369 z"
     id="path8" />
  <path
     style="fill:#f9f9f9;fill-opacity:1;stroke:#000000;stroke-width:0.347333;stroke-linejoin:round;stroke-dasharray:none"
     d="m 124.76908,206.14058 c -3.67968,-0.14835 -4.68752,-0.24102 -4.68752,-0.43103 0,-0.20028 0.8877,-4.99708 1.92392,-10.39617 1.64827,-8.58806 2.84386,-13.51183 4.00036,-16.47452 0.25692,-0.65818 0.50989,-1.15297 0.56215,-1.09955 0.3104,0.31728 2.28999,9.46423 3.57797,16.5324 0.58677,3.2201 1.99529,11.76372 1.9473,11.81171 -0.0945,0.0945 -5.37473,0.13575 -7.32418,0.0572 z"
     id="path9" />
  <path
     style="fill:#f9f9f9;fill-opacity:1;stroke:#000000;stroke-width:0.347333;stroke-linejoin:round;stroke-dasharray:none"
     d="m 137.95845,205.52886 c 0.0318,-0.14395 0.58161,-3.09284 1.22182,-6.55308 2.15146,-11.62835 3.15941,-16.14786 4.41051,-19.77618 0.5723,-1.65974 0.78812,-2.10294 0.91299,-1.87489 0.14117,0.25784 1.0835,4.04529 1.79482,7.21386 1.1289,5.02861 2.44417,11.84872 3.63304,18.83843 l 0.0919,0.54044 -0.4744,0.11672 c -1.98858,0.48926 -7.30561,1.30624 -10.98046,1.68717 -0.64853,0.0672 -0.66635,0.0616 -0.61024,-0.19247 z"
     id="path10" />
  <path
     style="fill:#f9f9f9;fill-opacity:1;stroke:#000000;stroke-width:0.347333;stroke-linejoin:round;stroke-dasharray:none"
     d="m 156.01668,202.17105 c 0.0328,-0.14323 0.50378,-2.70834 1.04649,-5.70026 1.74438,-9.61642 3.00289,-15.53416 3.98755,-18.75008 0.47943,-1.56583 1.15465,-3.29863 1.28539,-3.29863 0.0587,0 0.10675,0.027 0.10675,0.06 0,0.033 0.28826,1.06164 0.64058,2.28589 1.21456,4.22035 3.12578,12.28256 4.44669,18.75775 0.25757,1.26263 0.46831,2.38977 0.46831,2.50476 0,0.24606 -1.60113,0.93423 -5.29949,2.27772 -2.0896,0.75909 -6.35241,2.12327 -6.6348,2.12327 -0.059,0 -0.0803,-0.11719 -0.0475,-0.26042 z"
     id="path11" />
  <path
     style="fill:#f9f9f9;fill-opacity:1;stroke:#000000;stroke-width:0.347333;stroke-linejoin:round;stroke-dasharray:none"
     d="m 174.24847,195.10897 c 0,-0.0916 0.39253,-2.34869 0.87229,-5.0158 1.65147,-9.18092 2.92472,-15.07526 3.93966,-18.23816 0.49069,-1.52914 1.07569,-2.98851 1.19798,-2.98851 0.047,0 0.14245,0.16928 0.21203,0.37616 0.0696,0.20689 0.44587,1.28673 0.8362,2.39965 1.12088,3.19582 2.12199,6.41279 3.54404,11.38839 0.72554,2.53855 1.31915,4.65921 1.31915,4.71257 0,0.25631 -4.94332,3.55975 -7.98614,5.33685 -2.73901,1.59966 -3.93521,2.21638 -3.93521,2.02885 z"
     id="path12" />
  <path
     style="fill:#f9f9f9;fill-opacity:1;stroke:#000000;stroke-width:0.347333;stroke-linejoin:round;stroke-dasharray:none"
     d="m 192.65168,182.20568 c 0.001,-0.66713 1.99733,-11.22384 2.79591,-14.78594 0.94325,-4.20735 2.42535,-8.73847 2.8583,-8.73847 0.21608,0 2.58985,4.18839 4.82565,8.51462 l 1.14044,2.20672 -0.74534,1.03404 c -1.07706,1.49423 -3.22595,4.15864 -4.75108,5.89087 -1.36297,1.54806 -5.85597,6.08071 -6.02751,6.08071 -0.0532,0 -0.0966,-0.0911 -0.0964,-0.20255 z"
     id="path13" />
  <path
     style="fill:#f9f9f9;fill-opacity:1;stroke:#000000;stroke-width:0.347333;stroke-linejoin:round;stroke-dasharray:none"
     d="m 210.59123,158.2065 c 0,-0.0956 0.17967,-1.96802 0.39927,-4.1609 0.21961,-2.19288 0.51479,-5.32589 0.65597,-6.96224 0.14118,-1.63635 0.29306,-2.95271 0.3375,-2.92524 0.2269,0.14023 2.54246,3.65387 2.54246,3.85794 0,0.65109 -2.10772,6.48794 -3.32347,9.20359 -0.45179,1.00918 -0.61173,1.26719 -0.61173,0.98685 z"
     id="path14" />
  <path
     style="fill:#f9f9f9;fill-opacity:1;stroke:#000000;stroke-width:0.347333;stroke-linejoin:round;stroke-dasharray:none"
     d="m 207.42585,114.3813 c -1.01635,-2.71851 -1.55201,-5.76907 -2.7386,-15.596132 -0.82914,-6.866746 -1.11685,-8.905082 -1.93592,-13.715339 -0.0635,-0.373128 -0.0532,-0.392122 0.13055,-0.240702 0.27582,0.227251 2.96763,4.27963 3.96553,5.969894 0.92496,1.566711 2.27975,4.05544 2.96129,5.43984 l 0.45584,0.92593 -0.0726,1.793989 c -0.1316,3.25026 -0.54162,7.59447 -0.99954,10.59033 -0.3801,2.48671 -1.15152,5.61345 -1.38493,5.61345 -0.0492,0 -0.22094,-0.35157 -0.38159,-0.78126 z"
     id="path15" />
  <path
     style="fill:#f9f9f9;fill-opacity:1;stroke:#000000;stroke-width:0.347333;stroke-linejoin:round;stroke-dasharray:none"
     d="m 189.46834,98.918505 c -0.27792,-0.665158 -0.81669,-2.861048 -1.14022,-4.647246 -0.42141,-2.326556 -0.67858,-4.108158 -1.40341,-9.722266 -1.1676,-9.043483 -1.95683,-14.087632 -2.66935,-17.060244 -0.15868,-0.662031 -0.26832,-1.223888 -0.24364,-1.248572 0.0247,-0.02468 0.71567,0.459027 1.53552,1.074913 2.90803,2.184556 5.68564,4.551359 8.07628,6.881799 l 1.49303,1.455426 -0.30143,0.514352 c -0.99276,1.694016 -1.57725,4.276935 -2.91829,12.896235 -0.91361,5.872059 -1.732,9.766631 -2.13755,10.172177 -0.072,0.07205 -0.17567,-0.0407 -0.29094,-0.316574 z"
     id="path16" />
  <path
     style="fill:#f9f9f9;fill-opacity:1;stroke:#000000;stroke-width:0.347333;stroke-linejoin:round;stroke-dasharray:none"
     d="m 171.58442,91.60921 c -0.26014,-0.673978 -0.80167,-2.913028 -1.09171,-4.513909 -0.38192,-2.107991 -0.72684,-4.504732 -1.57401,-10.93755 -1.35725,-10.305993 -2.11635,-14.908752 -3.09776,-18.783126 -0.34275,-1.353112 -0.34353,-1.36345 -0.0968,-1.28745 0.54047,0.166445 3.81734,1.649674 5.74042,2.598317 1.55314,0.766153 5.12764,2.668576 5.29593,2.818599 0.013,0.01158 -0.1307,0.468775 -0.31931,1.01598 -0.77983,2.262439 -1.24391,5.167752 -2.25238,14.100645 -0.95194,8.432235 -1.41051,11.595133 -2.03855,14.060625 -0.31568,1.239291 -0.39529,1.369825 -0.56588,0.927869 z"
     id="path17" />
  <path
     style="fill:#f9f9f9;fill-opacity:1;stroke:#000000;stroke-width:0.347333;stroke-linejoin:round;stroke-dasharray:none"
     d="m 153.54187,87.124236 c -0.57362,-1.73418 -1.21913,-5.285591 -1.97226,-10.850743 -0.25413,-1.877902 -0.70098,-5.185209 -0.993,-7.349571 -1.13245,-8.393539 -2.1501,-14.093364 -3.06667,-17.1763 -0.18106,-0.608992 -0.30904,-1.127412 -0.28441,-1.152044 0.21149,-0.211485 11.28442,2.637722 11.28182,2.902956 -1.7e-4,0.01749 -0.15138,0.630761 -0.33602,1.362825 -0.68238,2.705594 -1.02962,5.378877 -1.80785,13.918166 -0.68792,7.548476 -0.9259,9.886142 -1.28132,12.586583 -0.36406,2.766115 -1.0852,6.481511 -1.25802,6.481511 -0.0237,0 -0.15067,-0.325522 -0.28227,-0.723383 z"
     id="path18" />
  <path
     style="fill:#f9f9f9;fill-opacity:1;stroke:#000000;stroke-width:0.347333;stroke-linejoin:round;stroke-dasharray:none"
     d="m 135.60779,85.386654 c -0.84771,-2.744574 -1.64933,-8.857029 -2.50054,-19.06691 -0.35079,-4.207496 -0.92907,-12.008902 -1.19541,-16.12677 l -0.0886,-1.369759 1.33405,0.0748 c 2.95158,0.165492 7.1226,0.544288 7.23541,0.657091 0.0345,0.03452 -0.0639,0.604527 -0.21869,1.266679 -0.65181,2.788075 -0.99643,5.748839 -1.74998,15.034994 -0.77478,9.547783 -1.06003,12.425732 -1.57163,15.856553 -0.26625,1.785481 -0.77211,4.17594 -0.91534,4.325495 -0.0532,0.05552 -0.20134,-0.237961 -0.32928,-0.652173 z"
     id="path19" />
  <path
     style="fill:#f9f9f9;fill-opacity:1;stroke:#000000;stroke-width:0.347333;stroke-linejoin:round;stroke-dasharray:none"
     d="m 117.61648,85.625324 c -0.6183,-2.212136 -1.14763,-5.23832 -1.99007,-11.377303 -1.9895,-14.49769 -2.91381,-19.543451 -4.21523,-23.010679 -0.23238,-0.619094 -0.2966,-0.917217 -0.20372,-0.945715 0.94368,-0.289559 8.5533,-1.229489 8.70728,-1.075512 0.0372,0.03724 0.11774,2.351301 0.1789,5.142364 0.24743,11.291423 -0.2688,22.811996 -1.29575,28.91736 -0.25758,1.531332 -0.65087,3.189346 -0.79069,3.333286 -0.0494,0.05089 -0.22525,-0.391818 -0.39072,-0.983801 z"
     id="path20" />
  <path
     style="fill:#f9f9f9;fill-opacity:1;stroke:#000000;stroke-width:0.347333;stroke-linejoin:round;stroke-dasharray:none"
     d="M 99.676066,88.281649 C 99.012483,85.898528 98.73266,84.271695 97.511065,75.694786 95.682075,62.853316 94.793497,58.559708 93.432625,55.987772 93.238348,55.620605 93.100167,55.30008 93.125556,55.275495 c 0.07733,-0.07488 3.651235,-1.328907 5.312389,-1.864034 2.703635,-0.870957 6.337845,-1.857363 6.445695,-1.749511 0.0288,0.0288 -0.082,0.651362 -0.24617,1.383465 -0.64738,2.886444 -1.02161,6.016706 -1.74447,14.591484 -0.81884,9.713416 -1.12999,12.804342 -1.63258,16.217646 -0.39919,2.71113 -1.00919,5.49771 -1.20348,5.49771 -0.0455,0 -0.216912,-0.481773 -0.380874,-1.070606 z"
     id="path21" />
  <path
     style="fill:#f9f9f9;fill-opacity:1;stroke:#000000;stroke-width:0.347333;stroke-linejoin:round;stroke-dasharray:none"
     d="M 81.725913,93.852116 C 81.127435,91.873304 80.67741,89.386741 79.686108,82.581392 77.984676,70.900954 77.00777,67.007173 75.367081,65.366485 c -0.310836,-0.310836 -0.546555,-0.582223 -0.52382,-0.603082 0.214029,-0.196369 4.262495,-2.696034 5.712658,-3.527196 1.852089,-1.061526 6.883845,-3.638399 6.958594,-3.56365 0.02179,0.0218 -0.0617,0.393939 -0.185538,0.826987 -0.77591,2.713218 -1.280756,6.339632 -2.200457,15.806347 -0.94835,9.76161 -1.418211,13.641709 -2.035008,16.805025 -0.311107,1.595549 -0.80954,3.442612 -0.973966,3.60926 -0.05694,0.05772 -0.227173,-0.317682 -0.393631,-0.86806 z"
     id="path22" />
  <path
     style="fill:#f9f9f9;fill-opacity:1;stroke:#000000;stroke-width:0.347333;stroke-linejoin:round;stroke-dasharray:none"
     d="m 63.495875,104.1382 c -0.441419,-1.33849 -0.810843,-3.15581 -1.573064,-7.738422 -0.41707,-2.507497 -0.917936,-5.360162 -1.113036,-6.339255 -1.041387,-5.226124 -2.126507,-7.189778 -3.973089,-7.189778 -0.659742,0 -1.167376,0.203827 -1.723327,0.691959 -0.234087,0.20553 -0.425612,0.336427 -0.425612,0.290881 0,-0.137435 1.817675,-2.418156 3.349184,-4.202377 2.74613,-3.199265 6.166936,-6.559503 9.613838,-9.443618 2.002468,-1.675518 2.534442,-2.086432 2.607078,-2.013795 0.02996,0.02996 -0.0722,0.42689 -0.227012,0.882069 -0.154817,0.455179 -0.439362,1.518664 -0.632324,2.3633 -0.68038,2.978185 -1.062309,5.669123 -2.501362,17.623738 -0.807899,6.711447 -1.53466,11.168678 -2.204106,13.517818 -0.378441,1.32797 -0.737986,2.28086 -0.860616,2.28086 -0.05389,0 -0.205342,-0.32552 -0.336552,-0.72338 z"
     id="path23" />
  <path
     style="fill:#f9f9f9;fill-opacity:1;stroke:#000000;stroke-width:0.347333;stroke-linejoin:round;stroke-dasharray:none"
     d="m 45.085749,120.37199 c -2.002727,-0.82251 -3.64675,-1.48476 -3.653384,-1.47166 -0.0066,0.0131 -0.172691,0.41445 -0.369014,0.89188 -0.302553,0.73576 -0.402829,0.87364 -0.657978,0.90468 -0.165564,0.0201 -0.301025,0.0172 -0.301025,-0.007 0,-0.0238 0.10341,-0.87361 0.2298,-1.88849 1.480761,-11.89004 5.876552,-23.057247 13.110431,-33.306146 0.441273,-0.625191 0.825021,-1.114004 0.852775,-1.086252 0.02775,0.02775 -0.155109,0.435106 -0.406359,0.905229 -1.437712,2.69015 -2.580664,8.02317 -3.420271,15.959009 -0.515741,4.8747 -0.869031,9.73009 -1.404304,19.29985 -0.04848,0.86666 -0.117394,1.30074 -0.206089,1.29805 -0.07329,-0.002 -1.771854,-0.67701 -3.774582,-1.49952 z"
     id="path24" />
</svg>
