<svg xmlns="http://www.w3.org/2000/svg" cursor="default" viewBox="0 0 256 256">
    <defs>
        <linearGradient id="linearGradient924" x1="18.12" x2="21.466" y1="241.29" y2="228.73" gradientTransform="scale(1 -1) rotate(-89.503 -.246 -.024)" gradientUnits="userSpaceOnUse">
            <stop offset="0" stop-color="#917c6f"/>
            <stop offset="1" stop-color="#ac9d93"/>
        </linearGradient>
        <linearGradient id="innoGrad4">
            <stop offset="0" stop-color="#ffb380"/>
            <stop offset="1" stop-color="#fca"/>
        </linearGradient>
    </defs>
    <ellipse cx="128.549" cy="128.232" fill="#921313" stroke="#000" stroke-linejoin="round" stroke-width="3.001" rx="90.068" ry="80.153"/>
    <path fill="none" stroke="#000" stroke-width="3.001" d="M210.937 140.102l4.86 6.994v0M50.674 124.199l-9.838-4.026v0m170.934-23.78s-.188 6.345-.95 12.023c-.765 5.682-2.082 10.675-3.962 8.002-2.041-2.903-2.881-11.605-3.917-20.133-1.043-8.58-2.284-17.015-4.642-19.646-2.533-2.826-3.63 3.875-4.725 11.011-1.095 7.133-2.2 14.726-4.175 13.67-2.13-1.14-3.105-10.478-4.323-19.868-1.222-9.415-2.689-18.87-5.062-20.373-2.536-1.605-3.434 6.932-4.397 15.737-.963 8.8-2.01 17.856-3.988 17.264-2.164-.648-3.198-10.709-4.538-20.815-1.339-10.107-2.987-20.26-5.322-21.09-2.526-.897-3.267 8.736-4.132 18.52-.864 9.783-1.862 19.715-3.843 19.415-2.168-.33-3.252-10.765-4.66-21.202-1.408-10.437-3.14-20.874-5.453-21.206-2.5-.358-3.157 9.87-3.97 20.17-.812 10.302-1.785 20.677-3.766 20.614-2.168-.07-3.302-10.533-4.188-20.978a1014.194 1014.194 0 01-1.523-20.873s.589 10.678 1.444 21.37c.855 10.694 1.975 21.407 4.268 21.48 2.481.08 3.719-10.259 4.546-20.546.828-10.288 1.249-20.523 3.245-20.237 2.186.314 3.842 10.742 5.236 21.178 1.395 10.437 2.527 20.882 4.82 21.23 2.48.376 3.743-9.466 4.624-19.223.881-9.757 1.386-19.428 3.402-18.711 2.207.784 3.778 10.918 5.105 21.027 1.327 10.108 2.41 20.192 4.699 20.877 2.475.74 3.787-8.152 4.766-16.909.98-8.763 1.643-17.372 3.662-16.092 2.244 1.421 3.636 10.844 4.846 20.263 1.208 9.393 2.234 18.771 4.486 19.977 2.466 1.321 3.833-5.984 4.944-13.043 1.111-7.064 1.972-13.89 3.988-11.637 2.227 2.488 3.397 10.84 4.43 19.413 1.028 8.52 1.921 17.295 4.076 20.366 2.349 3.345 3.69-1.89 4.347-7.995.657-6.096.602-13.03.602-13.03zm-90.435-49.34s.472 10.388.159 20.818c-.314 10.43-1.415 20.9-3.396 21.064-2.168.18-3.262-9.984-4.66-20.056-1.398-10.072-3.096-20.053-5.36-19.507-2.449.59-3.137 10.921-3.987 21.208-.85 10.288-1.86 20.532-3.843 20.95-2.17.458-3.226-9.067-4.552-18.445-1.325-9.373-2.9-18.614-5.157-17.559-2.405 1.125-3.23 11.078-4.168 20.906-.94 9.839-2.013 19.586-4.002 20.353-2.164.835-3.172-7.658-4.387-15.937-1.214-8.269-2.63-16.321-4.873-14.559-2.398 1.884-3.397 11.239-4.473 20.437-1.08 9.232-2.237 18.317-4.272 19.829-2.199 1.633-3.12-5.357-4.193-11.945-1.074-6.589-2.285-12.741-4.554-9.442-2.426 3.528-3.585 13.542-4.295 22.518-.713 9.023-.983 17.154-.983 17.154s.523-8.241 1.359-17.195c.832-8.909 1.988-18.667 3.925-21.477 2.15-3.12 3.289 3.082 4.351 9.648 1.063 6.566 2.037 13.467 4.367 11.739 2.549-1.891 3.96-11.164 5.046-20.4 1.082-9.202 1.838-18.363 3.753-19.866 2.124-1.667 3.465 6.41 4.666 14.667 1.203 8.267 2.262 16.712 4.553 15.829 2.491-.961 3.825-10.822 4.774-20.67.948-9.848 1.511-19.682 3.452-20.589 2.136-.998 3.635 8.257 4.947 17.621 1.312 9.37 2.418 18.868 4.713 18.383 2.483-.524 3.755-10.827 4.617-21.118.862-10.29 1.314-20.568 3.27-21.04 2.141-.516 3.762 9.47 5.146 19.537 1.385 10.067 2.527 20.215 4.82 20.026 2.482-.206 3.596-10.926 3.784-21.595.188-10.67-.547-21.287-.547-21.287zm-79.738 73.695l-.812 12.007zM210.75 140.34s-.808 7.885-1.753 15.672c-.944 7.786-2.02 15.47-1.772 15.064.062-.101-1.823-4.263-3.956-8.263-2.133-3.998-4.51-7.838-5.224-7.29-2.82 2.161-4.971 11.48-6.538 20.121-1.571 8.667-2.571 16.734-2.315 16.522.064-.053-1.607-6.9-3.624-13.662-2.016-6.761-4.375-13.436-5.1-13.146-2.874 1.15-5.136 10.879-6.855 20.25-1.721 9.384-2.914 18.446-2.659 18.322.064-.03-1.407-8.397-3.3-16.716-1.891-8.318-4.2-16.588-4.93-16.427-2.916.647-5.218 10.598-7.032 20.372-1.814 9.773-3.13 19.37-2.876 19.308.064-.016-1.27-9.28-3.073-18.522-1.804-9.243-4.077-18.465-4.807-18.398-2.92.269-5.258 10.16-7.11 19.98-1.852 9.82-3.214 19.571-2.964 19.56.063-.004-1.203-9.73-2.967-19.46-1.765-9.73-4.028-19.463-4.758-19.481-2.92-.074-5.261 9.433-7.099 18.968-1.837 9.535-3.172 19.097-2.925 19.132.062.009-1.208-9.837-2.986-19.712-1.777-9.875-4.062-19.779-4.793-19.884-2.921-.421-5.236 8.368-7.01 17.284-1.774 8.915-3.015 17.958-2.77 18.043.062.021-1.284-9.658-3.126-19.396-1.843-9.737-4.185-19.533-4.917-19.745-2.919-.844-5.194 6.808-6.864 14.716-1.67 7.905-2.754 16.059-2.51 16.207.06.037-1.426-9.27-3.387-18.683-1.962-9.413-4.406-18.93-5.144-19.313-2.95-1.53-5.163 4.36-6.699 10.696-1.535 6.336-2.414 13.118-2.168 13.37.061.063-1.624-9.42-3.807-19.21-2.198-9.855-4.837-19.822-5.665-21.056-3.145-4.685-5.451-3.615-6.883-1.18-1.435 2.44-2.048 6.31-1.766 7.25.071.236-1.191-3.928-2.529-8.15-1.336-4.222-3.103-8.508-3.103-8.508s1.706 4.299 3.017 8.652c1.311 4.355 2.58 8.768 2.65 9.005.284.947 1.18-2.506 2.619-5.228 1.434-2.712 3.44-4.723 6.04-.84.648.967 3.27 11.002 5.441 20.811 2.172 9.809 3.906 19.391 3.967 19.454.245.253 1.39-6.398 2.94-12.795 1.552-6.398 3.526-12.538 5.966-11.27.611.316 2.978 9.797 4.926 19.207 1.949 9.41 3.483 18.75 3.544 18.788.244.148 1.594-7.934 3.281-15.877 1.687-7.943 3.717-15.747 6.142-15.046.607.175 2.872 9.95 4.7 19.686 1.827 9.736 3.22 19.434 3.282 19.455.245.085 1.752-8.921 3.543-17.861 1.792-8.94 3.872-17.815 6.293-17.466.605.087 2.812 9.982 4.574 19.857s3.08 19.73 3.142 19.739c.248.035 1.85-9.52 3.703-19.07 1.854-9.549 3.96-19.092 6.38-19.03.606.015 2.791 9.752 4.54 19.484 1.75 9.732 3.062 19.46 3.124 19.456.251-.012 1.88-9.785 3.747-19.611s3.97-19.705 6.39-19.928c.605-.055 2.8 9.182 4.59 18.43 1.788 9.248 3.168 18.505 3.232 18.49.253-.062 1.834-9.714 3.66-19.485 1.828-9.77 3.893-19.659 6.31-20.195.605-.134 2.839 8.167 4.716 16.494 1.878 8.328 3.398 16.68 3.462 16.65.256-.124 1.713-9.285 3.444-18.657 1.729-9.36 3.75-18.964 6.13-19.916.602-.24 2.887 6.488 4.892 13.263 2.004 6.776 3.726 13.598 3.79 13.545.256-.213 1.517-8.467 3.094-17.122 1.572-8.632 3.48-17.732 5.818-19.521.593-.455 2.903 3.487 5.028 7.512 2.126 4.028 4.065 8.143 4.127 8.041.248-.405 1.322-8.34 2.139-16.172.817-7.834 1.381-15.564 1.381-15.564zm7.963-11.585c0 44.267-40.55 78.9-90.294 78.9-49.743 0-90.068-35.886-90.068-80.153m0 0c0-44.267 40.325-80.153 90.068-80.153 49.744 0 90.069 35.886 90.069 80.153"/>
    <path fill="#f9f9f9" stroke="#000" stroke-linejoin="round" stroke-width=".347" d="M60.486 178.057c-9.864-10.33-16.64-23.236-19.338-36.824-.483-2.436-.536-2.814-.364-2.627.242.263 2.771 8.375 4.364 13.999.387 1.365 1.295 1.876 2.363 1.331.562-.286.823-.728 1.68-2.836.95-2.339 1.858-4.056 2.488-4.71.72-.748.925-.732 1.751.136.573.602.703.83 1.01 1.765 1.516 4.628 4.455 16.813 6.551 27.162.418 2.062.74 3.77.716 3.794-.024.024-.573-.511-1.22-1.19zM78.299 192.453c-2.215-1.396-4.99-3.274-6.587-4.46-2.49-1.847-4.756-3.714-4.756-3.917 0-.292 1.49-7.165 2.081-9.603.693-2.858 1.397-5.314 1.937-6.764.625-1.678 1.507-3.356 1.763-3.356.129 0 1.127 3.595 2.023 7.291 1.324 5.457 2.728 12.053 3.832 17.998.284 1.528.543 2.895.577 3.038.08.346.01.328-.87-.227zM94.966 200.415c-4.154-1.51-10.301-4.24-10.301-4.573 0-.216 2.082-10.551 2.543-12.624.732-3.29 1.356-5.665 2.025-7.7.642-1.957 1.422-3.717 1.578-3.561.211.212 1.383 5.07 2.52 10.451 1.2 5.683 3.443 18.05 3.348 18.464-.026.112-.488-.012-1.713-.457zM111.683 204.812c-2.738-.474-3.977-.733-7.024-1.472-2.273-.55-2.398-.595-2.344-.832.032-.138.502-2.592 1.046-5.455 2.197-11.573 3.615-17.424 4.907-20.258.298-.655.39-.773.479-.616.152.27 1.024 3.9 1.717 7.155 1.108 5.197 2.421 12.383 3.365 18.403.254 1.623.482 3.069.506 3.212.055.334.077.335-2.652-.137zM124.77 206.14c-3.68-.148-4.688-.24-4.688-.43 0-.2.887-4.998 1.923-10.397 1.649-8.588 2.844-13.511 4-16.474.258-.658.51-1.153.563-1.1.31.318 2.29 9.465 3.578 16.533.587 3.22 1.995 11.763 1.947 11.811-.094.095-5.374.136-7.324.058zM137.958 205.529c.032-.144.582-3.093 1.222-6.553 2.152-11.629 3.16-16.148 4.41-19.776.573-1.66.789-2.103.914-1.875.14.258 1.083 4.045 1.795 7.214 1.128 5.028 2.444 11.848 3.633 18.838l.092.54-.475.117c-1.988.49-7.305 1.306-10.98 1.687-.649.068-.667.062-.61-.192zM156.017 202.171c.032-.143.503-2.708 1.046-5.7 1.745-9.617 3.003-15.534 3.988-18.75.48-1.566 1.154-3.299 1.285-3.299.059 0 .107.027.107.06s.288 1.062.64 2.286c1.215 4.22 3.126 12.283 4.447 18.758.258 1.262.468 2.39.468 2.504 0 .247-1.6.935-5.299 2.278-2.09.76-6.352 2.123-6.635 2.123-.059 0-.08-.117-.047-.26zM174.248 195.109c0-.092.393-2.349.873-5.016 1.651-9.18 2.924-15.075 3.94-18.238.49-1.53 1.075-2.988 1.197-2.988.047 0 .143.169.212.376.07.207.446 1.286.837 2.4 1.12 3.195 2.122 6.412 3.544 11.388.725 2.538 1.319 4.659 1.319 4.712 0 .257-4.944 3.56-7.986 5.337-2.74 1.6-3.936 2.216-3.936 2.029zM192.652 182.206c0-.667 1.997-11.224 2.796-14.786.943-4.208 2.425-8.739 2.858-8.739.216 0 2.59 4.189 4.826 8.515l1.14 2.207-.745 1.034c-1.077 1.494-3.226 4.158-4.751 5.89-1.363 1.549-5.856 6.081-6.028 6.081-.053 0-.097-.09-.096-.202zM210.591 158.207c0-.096.18-1.969.4-4.161.22-2.193.514-5.326.655-6.963.142-1.636.294-2.952.338-2.925.227.14 2.542 3.654 2.542 3.858 0 .651-2.107 6.488-3.323 9.204-.452 1.009-.612 1.267-.612.987zM207.426 114.381c-1.016-2.718-1.552-5.769-2.739-15.596-.829-6.867-1.117-8.905-1.936-13.715-.063-.373-.053-.392.13-.24.277.226 2.969 4.279 3.966 5.969.925 1.567 2.28 4.055 2.962 5.44l.456.926-.073 1.794c-.132 3.25-.542 7.594-1 10.59-.38 2.487-1.151 5.614-1.385 5.614-.049 0-.22-.352-.381-.782zM189.468 98.919c-.278-.666-.816-2.862-1.14-4.648-.421-2.326-.678-4.108-1.403-9.722-1.168-9.043-1.957-14.088-2.67-17.06-.158-.662-.268-1.224-.243-1.249.024-.025.715.46 1.535 1.075 2.908 2.185 5.686 4.551 8.077 6.882l1.493 1.455-.302.515c-.993 1.694-1.577 4.277-2.918 12.896-.914 5.872-1.732 9.767-2.138 10.172-.072.072-.175-.04-.29-.316zM171.584 91.61c-.26-.675-.801-2.914-1.091-4.515-.382-2.108-.727-4.504-1.574-10.937-1.358-10.306-2.117-14.909-3.098-18.783-.343-1.353-.344-1.364-.097-1.288.54.167 3.817 1.65 5.74 2.598 1.554.767 5.128 2.67 5.296 2.82.013.01-.13.468-.319 1.015-.78 2.263-1.244 5.168-2.252 14.1-.952 8.433-1.41 11.596-2.039 14.061-.315 1.24-.395 1.37-.566.928zM153.542 87.124c-.574-1.734-1.22-5.285-1.972-10.85-.255-1.878-.701-5.186-.993-7.35-1.133-8.394-2.15-14.093-3.067-17.176-.181-.61-.31-1.128-.284-1.152.211-.212 11.284 2.637 11.281 2.903 0 .017-.151.63-.336 1.362-.682 2.706-1.03 5.38-1.808 13.919-.687 7.548-.925 9.886-1.28 12.586-.365 2.766-1.086 6.482-1.259 6.482-.024 0-.15-.326-.282-.724zM135.608 85.387c-.848-2.745-1.65-8.857-2.5-19.067-.352-4.208-.93-12.01-1.196-16.127l-.089-1.37 1.334.075c2.952.166 7.123.544 7.236.657.034.035-.064.605-.219 1.267-.652 2.788-.996 5.749-1.75 15.035-.775 9.548-1.06 12.426-1.572 15.856-.266 1.786-.772 4.176-.915 4.326-.053.055-.201-.238-.33-.652zM117.616 85.625c-.618-2.212-1.147-5.238-1.99-11.377-1.99-14.498-2.913-19.543-4.215-23.01-.232-.62-.296-.918-.204-.946.944-.29 8.554-1.23 8.708-1.076.037.037.117 2.351.179 5.142.247 11.292-.27 22.812-1.296 28.918-.258 1.531-.651 3.19-.79 3.333-.05.051-.226-.392-.392-.984zM99.676 88.282c-.664-2.383-.943-4.01-2.165-12.587-1.829-12.842-2.718-17.135-4.078-19.707-.195-.367-.333-.688-.307-.713.077-.074 3.65-1.328 5.312-1.864 2.704-.87 6.338-1.857 6.446-1.749.028.029-.082.651-.247 1.383-.647 2.887-1.021 6.017-1.744 14.592-.819 9.713-1.13 12.804-1.633 16.218-.399 2.71-1.009 5.497-1.203 5.497-.046 0-.217-.482-.38-1.07zM81.726 93.852c-.599-1.979-1.049-4.465-2.04-11.27-1.701-11.681-2.678-15.575-4.319-17.216-.31-.31-.546-.582-.524-.603.214-.196 4.263-2.696 5.713-3.527 1.852-1.061 6.884-3.638 6.959-3.563.021.021-.062.393-.186.827-.776 2.713-1.28 6.34-2.2 15.806-.949 9.762-1.419 13.642-2.035 16.805-.312 1.595-.81 3.443-.974 3.61-.057.057-.228-.319-.394-.869zM63.496 104.138c-.442-1.338-.811-3.156-1.573-7.738-.417-2.508-.918-5.36-1.113-6.34-1.042-5.226-2.127-7.19-3.973-7.19-.66 0-1.168.205-1.724.693-.234.205-.425.336-.425.29 0-.137 1.817-2.418 3.349-4.202 2.746-3.2 6.167-6.56 9.614-9.443 2.002-1.676 2.534-2.087 2.607-2.014.03.03-.072.427-.227.882-.155.455-.44 1.519-.632 2.363-.68 2.978-1.063 5.67-2.502 17.624-.808 6.711-1.535 11.169-2.204 13.518-.378 1.328-.738 2.28-.86 2.28-.054 0-.206-.325-.337-.723zM45.086 120.372c-2.003-.823-3.647-1.485-3.654-1.472l-.369.892c-.302.736-.402.874-.658.905-.165.02-.3.017-.3-.007s.103-.874.23-1.889c1.48-11.89 5.876-23.057 13.11-33.306.44-.625.825-1.114.852-1.086.028.028-.155.435-.406.905-1.438 2.69-2.58 8.023-3.42 15.96-.516 4.874-.87 9.73-1.405 19.3-.048.866-.117 1.3-.206 1.297-.073-.002-1.772-.677-3.774-1.5z"/>
</svg>
