<svg xmlns="http://www.w3.org/2000/svg" width="256" height="256">
    <defs>
        <clipPath id="clipPath50259" clipPathUnits="userSpaceOnUse">
            <path fill="#767676" stroke-width=".32" d="M82.157 172.773c-5.71-1.063-12.339-1.122-18.637-2.366-7.407-1.392-14.621-2.494-22.08-3.677a167.718 167.718 0 01-18.096-3.996c-5.871-1.136-10.157-2.438-7.961-9.59.562-3.193.844-8.783 1.06-10.952.483-3.022 1.363-2.49 1.76-4.715.36-2.017-.806-2.377-.42-5.052 2.812-6.927 4.454-15.56 6.872-22.666 1.645-7.594.855-15.497 2.044-23.188-.023-7.121 1.61-15.47-.587-21.888C21.3 70.13 12.958 65.869 8.236 62.33c-4.56-7.21 1.587-16.043 1.005-24.012.44-9.152 4.375-18.197 11.84-23.773 7.061-5.566 16.67-5.742 24.999-8.515 5.23-3.332 8.071-.6 7.955 5.227 3.484 7.702 13.183 7.304 20.35 7.203 6.622-1.09 13.26-5.261 14.392-12.322 9.221 4.705 18.886 8.952 28.36 13.296 6.838 3.099 9.868 10.542 13.147 16.785 3.324 8.286 3.135 17.4 5.997 25.858 1.988 5.49-.057 11.429-6.521 12.803-4.95 1.909-13.67 6.344-17.553.944-2.588 6.601-3.863 13.724-5.495 20.578-2.547 9.012-4.793 18.306-6.368 27.48.365 7.178 5.12 13.761 2.659 21.107-2.68 6.568 1.393 13.865-1.079 20.451-4.336 5.857-12.11 6.915-18.476 6.79.046 1.164 1.934.793-1.29.543z"/>
        </clipPath>
    </defs>
    <g>
        <path fill="#afc6e9" stroke="#000" stroke-linecap="round" stroke-linejoin="round" stroke-width=".64" d="M112.168 44.013c10.445 6.933 22.09 9.658 37.193 1.49L147.089 71.8l-35.333-.51"/>
    </g>
    <g>
        <path fill="#d7e3f4" stroke="#000" stroke-width=".64" d="M124.212 209.455c-13.991-2.586-27.272-4.075-40.176-7.673-5.872-1.137-10.157-2.438-7.962-9.591.562-3.192.844-8.782 1.06-10.952.484-3.022 1.363-2.49 1.76-4.714.36-2.017-.805-2.377-.419-5.053 2.812-6.926 4.454-15.56 6.871-22.665 1.646-7.594.856-15.497 2.045-23.188-.023-7.121 1.61-15.47-.587-21.888-4.812 5.446-13.154 1.186-17.876-2.353-4.56-7.21 1.587-16.043 1.005-24.012.44-9.152 4.375-18.198 11.84-23.774 7.061-5.565 16.67-5.741 24.999-8.514 2.494-1.052 5.304-1.197 5.304-1.197s.778 2.85 2.65 6.424c3.485 7.702 13.184 7.304 20.35 7.203 6.623-1.09 13.26-5.262 14.392-12.322 9.222 4.704 18.887 8.952 28.361 13.296 6.837 3.099 9.868 10.541 13.147 16.785 3.324 8.286 3.135 17.4 5.997 25.858 1.988 5.489-.057 11.429-6.521 12.803-4.95 1.909-13.67 6.343-17.553.944-2.588 6.601-3.863 13.723-5.496 20.577-2.546 9.012-4.792 18.307-6.368 27.48.366 7.178 5.12 13.762 2.66 21.108-2.68 6.567 1.393 13.865-1.079 20.45-11.214 10.673-25.846 7.36-38.404 4.968z"/>
        <path fill="#afc6e9" d="M86.916 20.35c-.205.057-.73.366-1.928 1.53-6.556 3.269-13.14 5.556-21.23 4.231-3.09-.506-12.426-7.124-8.784-2.135 2.32 3.401 8.97 2.91 11.255 5.459-1.803-.118-9.09-2.478.74 1.383 3.539.924 6.556.253 9.027-1.672 1.074-2.65 9.372-4.169 10.98-8.755.037.013.065-.018.051-.037-.01-.015-.043-.024-.111-.004zM14.391 31.006c3.044 6.523 2.751 12.668 6.85 18.273-2.988-.653-6.35-6.147-8.503-9.244-.22 3.556 6.036 8.58 8.722 12.46.497.716 3.18 6.315 3.18 6.315 2.425-33.802 1.47-2.65-8.677-25.37-1.087-1.864-1.52-2.507-1.572-2.434zM11.615 42.32c.077 4.689 6.55 9.611 10.192 13.4 1.351 2.175.695 3.378.547 5.727 3.077 2.274-4.768.994-.514 4.463.741.291 1.541.29 2.277.088 8.933 2.854-12.393 14.563 13.301 9.777 8.769-2.117 6.52-3.474 6.52-3.474-5.319-1.822-9.375-3.14-12.68-4.985-2.246 1.022-7.338-9.563-7.016-12.217.18-1.894-1.768-3.033.398 3.711-2.527-7.542-9.684-9.479-13.025-16.49zm109.584.942c-3.54-.663-7.463 10.581-8.383 8.357-3.003 9.739-2.501-.095-5.019-2.747.397 7.814 2.297 21.348-2.701 22.678-12.061 3.207-14.286 2.842-13.572 2.953 0 0 4.417 4.416 6.735 3.64 3.364.508 5.756.342 10.813.154 1.355 7.373 1.649-5.378 3.823-1.494-.434-7.054-4.227-12.043 1.562-16.852-5.052 2.8-3.99-1.268-.396-2.521.147-3.394 4.363-10.234 7.138-14.168zM10.385 44.736c.08 4.194.768 4.629 4.271 8.944 4.225 3.884-3.666-6.128-4.271-8.944zm-.5 5.846c.487 1.952 2.318 5.543 4.502 5.979 4.425 1.566-4.05-3.399-2.936-4.215-.943-1.395-1.424-1.86-1.566-1.764zm113.898 2.29c-2.592 1.22-8.367 8.074-12.219 11.288 4.485-.28 8.717-7.736 12.22-11.289zm-14.842 27.464c-3.996 6.855-10.549 11.868-16.129 17.635 3.228-1.274 6.268-4.24 9.168-6.409 2.973-3.953 9.092-9.511 6.961-11.226zm-2.765 11.836c-1.092-.427-6.147 9.876-7.772 12.922-2.337 7.95-9.472 12.31-14.244 18.65 4.857-3.475 8.604-8.44 12.72-12.648 3.92-5.808 5.479-12.863 9.46-18.69-.036-.129-.091-.206-.164-.234zm-77.477 4.656c-.438.346.79 6.672 2.953 8.711 3.848 7.666 8.344 15.435 15.782 20.22.381 1.669 1.496-.06.502-.3-7.281-7.327-13.599-15.586-17.737-25.098-.702-2.323-1.155-3.342-1.39-3.52-.045-.032-.08-.036-.11-.013zm10.2 5.139c-2.373 1.26 7.695 3.033 10.062 4.3 1.636-1.07-7.828-3.363-10.063-4.3zm11.658 4.681v0zm-25.905 6.745c-.28-.172-.17.328.62 1.892 2.894 5.03 5.021 10.667 8.007 15.834-.002-1.725-2.268-5.983-3.43-8.672-.018-1.983-4.358-8.54-5.197-9.054zm36.27 8.295c-1.375.04-2.655.238-3.516.652-4.905 1.813 6.781.886 9.739 1.658 2.882-1.137-2.1-2.432-6.223-2.31zM22.58 124.08c-.412-.09-.283.629 1.26 3.03 3.166 1.281-.354-2.831-1.26-3.03zm-.646.106c-.023-.069-.056.069-.1.615.133 1.638.166-.41.1-.615zm15.412 2.529c3.975 4.76 10.231 4.863 15.744 6.379 1.615 1.203 4.954-.395 2.453-.854-4.75-3.841-12.461-2.773-18.197-5.525zM23.52 130.87c-3.002 2.25 7.001 4.786 8.777 7.772 5.546 3.485 9.605 9.174 15.922 11.11.317-.044 2.452.773 2.18.01-6.155-3.631-11.107-8.692-16.307-13.442-3.653-2.183-7.091-5.655-10.572-5.45zm69.689.535c-2.67-.094-6.092.526-8.076 1.074-8.695 1.816 8.288.549 1.267 4.215 3.413-1.253 6.478-3.965 10.33-4.177-.587-.741-1.919-1.055-3.521-1.112zm7.91.557c-3.641-.02-8.436 6.635-12.35 8.75.657.598 1.678.125 2.41.144 5.004-.62 8.828-2.735 8.96-6.136.391 1.104 2.53-1.229.98-2.758zm-12.068 2.435c.05-.017.126.019.228.163-.306.43-.382-.109-.228-.163zm-16.776.291a21.396 21.396 0 00-1.64.018c-6.529.187-.028.747.931 2.809 1.5 1.347 7.19 2.505 10.682 3.578 4.248.705-1.14-2.81-2.295-2.975-1.92-2.189-4.068-3.325-7.678-3.43zm6.24.112s-.002 0-.003.002l.02.017-.01-.013-.006-.006zm.13.168l-.102.037c.054.028.093.028.12-.01a.912.912 0 00-.018-.027zm-8.475.709c.051-.018.128.018.23.162-.306.43-.383-.108-.23-.162zm-50.016.347c-3.667.418 3.53 3.343 5.469 7.104 2.86 1.02-4.775-6.027-5.469-7.104zm50.795 1.254c-.002 0-.006.006-.008.006l.016.016.027.031c-.012-.018-.016-.046-.035-.053zm29.194.75c-.08.072-.139.137-.15.186.115.052.17-.074.15-.186zm-4.715 5.18c-2.977.026-7.607 2.19-10.143 2.978-5.354 2.3-11.885 3.883-15.482 7.325 1.528.367 6.735-.214 8.586-1.903 6.477-2.198 12.634-5.697 19.324-7.584-.486-.596-1.293-.825-2.285-.816zm-60.096 6.768c-.614.068.002 1.549 1.867 3.04 3.03 4.343 6.678 9.158 12.24 11.198.268.036.546.067.817.1 7.46-.868 14.946-.517 22.357-.887 6.732-.02 1.352-1.632-2.412-1.25-4.883 1.082-10.11-4.286-2.139-3.496 2.325-1.707 8.731.911 4.19-2.182-6.958-1.203-12.787 3.393-18.945 4.184-1.433.487-3.611-.096-5.07-.493-4.647-1.534-7.328-5.922-10.477-8.511-1.25-1.279-2.06-1.745-2.428-1.704zm-18.422 3.857c-3.787.43 5.7 3.437 7.873 3.322 2.547-1.705-6.788-1.098-7.873-3.322zm84.91 2.084c-.979.015-5.109 4.011-7.263 5.326 2.522 1.395 5.887-1.464 7.002-3.767.563-1.127.588-1.564.261-1.559zm-85.857.578c-1.118.208 1.247 2.912 2.6 2.916l.513.08c6.196.743 3.009-1.33-.666-2.18-1.313-.677-2.074-.885-2.447-.816z" clip-path="url(#clipPath50259)" transform="translate(60.692 39.048)"/>
    </g>
    <g fill="none">
        <path stroke="#5f8dd3" stroke-width=".64" d="M107.605 44.945s2.039 5.718 3.911 9.293c3.485 7.702 16.195 8.055 23.361 7.954 6.832-.178 17.609-6.384 18.445-14.73"/>
        <path stroke="#000" stroke-linecap="round" stroke-width=".6" d="M86.678 104.45l-1.759-6.445-.825-6.24M172.66 115.344c-.392-2.91-1.049-5.94-1.8-9.293"/>
    </g>
</svg>
