<svg xmlns="http://www.w3.org/2000/svg" viewBox="0 0 256 256">
    <defs>
        <clipPath id="clipPath2621" clipPathUnits="userSpaceOnUse">
            <path fill="#ff8080" stroke="#000" stroke-width=".64" d="M57.18 168.918c-13.99-2.587-17.584-2.487-30.487-6.085-5.872-1.137-10.157-2.438-7.962-9.591.562-3.193.844-8.783 1.06-10.952.484-3.022 1.363-2.49 1.76-4.714.36-2.018-.805-2.378-.419-5.053 2.812-6.926 1.105-15.658 3.523-22.764 1.645-7.594.855-15.497 2.044-23.188-.023-7.121 1.61-15.47-.587-21.888C21.3 70.13 12.958 65.869 8.236 62.33c-4.56-7.21 1.587-16.043 1.005-24.012.44-9.152 4.375-18.197 11.84-23.773 7.061-5.566 16.67-5.742 24.999-8.515 2.494-1.052 5.304-1.196 5.304-1.196s.779 2.848 2.65 6.423c3.485 7.702 13.184 7.304 20.351 7.203 6.622-1.09 13.26-5.261 14.392-12.322 9.221 4.705 18.886 8.952 28.36 13.296 6.838 3.099 9.868 10.542 13.147 16.785 3.324 8.286 3.135 17.4 5.997 25.858 1.988 5.49-.057 11.429-6.521 12.803-4.95 1.909-13.67 6.344-17.553.944-2.588 6.601-3.863 13.724-5.495 20.578-2.547 9.012-.097 13.474-1.672 22.648.365 7.177 4.727 16.31 2.266 23.656-2.68 6.567 1.393 13.865-1.079 20.45-11.214 10.673-36.488 8.154-49.047 5.762z"/>
        </clipPath>
    </defs>
    <g>
        <path fill="#f55" stroke="#000" stroke-linecap="round" stroke-linejoin="round" stroke-width=".881" d="M105.437 12.19c14.379 9.543 30.407 13.295 51.198 2.05l-3.127 36.2-48.638-.702"/>
    </g>
    <g>
        <path fill="#ff8080" stroke="#000" stroke-width=".881" d="M113.29 237.88c-19.26-3.56-24.206-3.423-41.97-8.375-8.082-1.565-13.981-3.357-10.959-13.203.774-4.394 1.162-12.09 1.459-15.075.666-4.16 1.877-3.428 2.423-6.49.496-2.777-1.108-3.273-.577-6.956 3.87-9.534 1.522-21.554 4.85-31.336 2.264-10.453 1.178-21.332 2.814-31.92-.031-9.802 2.215-21.296-.809-30.13-6.624 7.497-18.106 1.632-24.607-3.238-6.277-9.926 2.185-22.085 1.384-33.055.606-12.599 6.022-25.05 16.3-32.726 9.718-7.661 22.946-7.903 34.41-11.721 3.434-1.448 7.303-1.647 7.303-1.647s1.071 3.922 3.648 8.842c4.797 10.603 18.148 10.055 28.014 9.916 9.115-1.5 18.252-7.243 19.81-16.962 12.695 6.476 26 12.323 39.041 18.303 9.412 4.266 13.584 14.511 18.098 23.105 4.575 11.407 4.315 23.953 8.255 35.596 2.736 7.556-.079 15.732-8.977 17.624-6.815 2.628-18.819 8.732-24.163 1.3-3.563 9.087-5.317 18.891-7.565 28.326-3.505 12.405-.132 18.548-2.3 31.177.502 9.88 6.506 22.452 3.118 32.563-3.688 9.041 1.919 19.087-1.485 28.153-15.437 14.69-50.228 11.223-67.516 7.93z"/>
        <path fill="#f55" d="M86.916 20.35c-6.862 4.918-16.223 7.59-24.571 5.32-2.215-1.169-11.518-6.157-6.315-.587 2.367 2.048 9.908 2.645 9.31 4.22-21.021-4.682 5.095 4.03 7.647 1.462 4.344-3.708 10.95-5.286 14.04-10.411l-.111-.004zM14.391 31.006c1.76 5.312 5.35 15.673 5.715 17.816-3.037-.966-6.863-9.645-7.166-7.39 2.612 5.853 8.918 10.184 10.928 16.444 1.836 4.158.846-6.846 1.512-8.929.222-3.761 1.865-8.707-3.44-6.711-3.937-2.586-4.836-7.684-7.55-11.23zm8.252 27.512c-.534 2.803.992 7.347-2.38 8.449 1.5 2.855 9.112-.79 5.213 4.641-4.547 8.12 8.6 4.78 12.732 3.971 2.944-.136 9.329-3.495 2.868-4.256-4.756-2.236-11.149-2.581-13.709-7.694-2.197-2.128-2.795-8.87-3.757-9.456.007 2.324 2.006 6.803-.118 2.05-.012-8.95-4.11-10.043-.85 2.295zm98.556-15.256c-5.05 2.332-7.58 8.253-10.08 12.41-1.845-.799-3.413-10.828-3.304-3.595-.494 6.63-1.03 13.94-5.266 19.366-4.499 3.005-13.038 2.82-16.632 3.458 3.343 6.017 12.127 6.62 12.71 13.856 2.602 10.798 3.033 22.06 6.083 32.73 6.302 3.059 11.91-3.19 11.886-9.278 1.85-14.821-3.354-29.168-5.255-43.662-2.488-3.515 6.074-10.409.417-7.633-1.725-2.308 3.983-4.049 3.465-7.482 1.613-3.593 3.732-6.942 5.976-10.17zm-12.258 37.074c-4.08 6.959-10.604 11.91-16.129 17.635 6.879-3.414 12.37-9.24 16.359-15.713.29-.575.355-1.49-.23-1.922zm-2.765 11.836c-4.562 5.099-7.312 11.882-9.722 18.299-1.291 4.213-7.75 11.636-7.659 12.605 4.25-4.73 6.603-10.856 10.431-15.933 1.658-5.297 6.129-9.647 6.95-14.971zm-77.477 4.656c.065 6.441 4.637 11.602 8.277 16.528 4.113 4.793 8.944 8.963 14.237 12.404 1.8-.05-6.545-6.676-8.414-8.954-5.857-5.693-11.401-12.101-13.99-19.964l-.11-.014zm10.2 5.139c.86 2.46 8.033 3.447 10.19 3.847-3.011-2.05-6.847-2.491-10.19-3.847zm11.658 4.681v.012zm-25.905 6.745c2.1 6.196 8.368 10.945 11.814 16.752 1.39.897-2.478-6.97-3.6-9.226-2.367-2.87-5.27-5.273-8.214-7.526zm40.05 8.295c-2.863-.405-7.078 2.334-1.596 1.871 2.188.09 12.536.96 6.136-1.494a20.774 20.774 0 00-4.54-.377zm-23.577 5.027c4.625 4.98 12.281 5.808 18.514 6.575-1.934-4.662-12.31-3.85-17.416-6.102zM27.3 130.87c.424 4.783 9.698 6.245 12.716 10.706 4.093 3.255 8.868 8.67 14.163 8.187-9.36-5.135-15.38-15.132-25.575-18.807l-1.304-.086zm69.69.535c-2.275.005-11.07.737-9.646 2.24 1.95-.068 6.973 1.358 2.837 3.05 2.774-1.704 8.739-3.684 9.757-4.657-.899-.493-1.947-.582-2.949-.633zm-4.44 9.307c6.131 1.262 11.682-3.211 13.067-8.983-4.85 1.557-8.814 6.05-13.067 8.983zm-16.494-6.024c-3.276-.491-6.248.537-1.293 2.122 3.113 2.486 9.785 4.558 12.71 3.695-2.605-4.298-9.831-1.863-11.417-5.817zm-2.106.989c.683.143-.385.605 0 0zm-50.015.347c-2.495 1.24 6.11 6.758 5.918 6.575-1.713-2.413-4.031-4.31-5.918-6.575zm50.795 1.254c-.025.015.112.12 0 0zm24.478 5.93c-7.478 1.349-14.48 4.745-21.519 7.542-3.754 1.452-5.133 4.009.066 2.58 8.06-2.533 15.558-6.913 23.738-9.306l-.952-.635zm-60.096 6.768c2.45 4.832 6.94 10.367 12.11 13.35 7.983 1.83 16.84-.37 25.172.1 7.533-.786-3.478-1.342-5.928-1.45-8.78-4.683 8.414-2.56 6.293-4.962-7.531-2.85-14.578 4.331-22.197 3.754-7.002-.505-9.971-7.733-15.45-10.792zm-18.421 3.857c-2.636 2.607 13.857 4.194 5.298 1.855-1.78-.404-4.031-.325-5.298-1.855zm84.91 2.084c-2.986 1.38-10.705 7.804-3.235 4.83 1.357-.976 3.722-3.136 3.235-4.83zm-85.858.578c-.537 3.924 10.961 3.783 3.785 1.185-1.2-.45-2.668-.66-3.785-1.185z" clip-path="url(#clipPath2621)" transform="matrix(1.37657 0 0 1.37657 34.577 5.354)"/>
        <path fill="none" stroke="#000" stroke-width=".881" d="M113.29 237.88c-19.26-3.56-24.206-3.423-41.97-8.375-8.082-1.565-13.981-3.357-10.959-13.203.774-4.394 1.162-12.09 1.459-15.075.666-4.16 1.877-3.428 2.423-6.49.496-2.777-1.108-3.273-.577-6.956 3.87-9.534 1.522-21.554 4.85-31.336 2.264-10.453 1.178-21.332 2.814-31.92-.031-9.802 2.215-21.296-.809-30.13-6.624 7.497-18.106 1.632-24.607-3.238-6.277-9.926 2.185-22.085 1.384-33.055.606-12.599 6.022-25.05 16.3-32.726 9.718-7.661 22.946-7.903 34.41-11.721 3.434-1.448 7.303-1.647 7.303-1.647s1.071 3.922 3.648 8.842c4.797 10.603 18.148 10.055 28.014 9.916 9.115-1.5 18.252-7.243 19.81-16.962 12.695 6.476 26 12.323 39.041 18.303 9.412 4.266 13.584 14.511 18.098 23.105 4.575 11.407 4.315 23.953 8.255 35.596 2.736 7.556-.079 15.732-8.977 17.624-6.815 2.628-18.819 8.732-24.163 1.3-3.563 9.087-5.317 18.891-7.565 28.326-3.505 12.405-.132 18.548-2.3 31.177.502 9.88 6.506 22.452 3.118 32.563-3.688 9.041 1.919 19.087-1.485 28.153-15.437 14.69-50.228 11.223-67.516 7.93z"/>
    </g>
    <g fill="none">
        <path stroke="#ff2a2a" stroke-width=".881" d="M99.156 13.472s2.806 7.872 5.384 12.793c4.796 10.603 22.293 11.088 32.158 10.95 9.405-.247 24.24-8.79 25.39-20.278"/>
        <path stroke="#000" stroke-linecap="round" stroke-width=".826" d="M70.35 95.385l-2.423-8.871-1.135-8.591M188.71 110.38c-.54-4.004-1.445-8.176-2.48-12.791"/>
    </g>
</svg>
