<svg xmlns="http://www.w3.org/2000/svg" xmlns:xlink="http://www.w3.org/1999/xlink" viewBox="0 0 64 64">
    <defs>
        <linearGradient id="linearGradient6">
            <stop offset="0" stop-color="#fff"/>
            <stop offset="1" stop-color="#ff2a2a"/>
        </linearGradient>
        <radialGradient id="radialGradient7" cx="32.117" cy="32.068" r="30.811" fx="32.117" fy="32.068" gradientTransform="matrix(.9868 -.00715 .00726 1.00203 .191 .165)" gradientUnits="userSpaceOnUse" xlink:href="#linearGradient6"/>
    </defs>
    <path style="-inkscape-stroke:hairline" fill="url(#radialGradient7)" stroke="#ffe680" stroke-linecap="round" stroke-linejoin="round" stroke-width=".984" d="M3.008 1.193h58.218a1.702 1.702 45 011.702 1.702V61.24a1.702 1.702 135 01-1.702 1.702H3.008a1.702 1.702 45 01-1.702-1.702V2.895a1.702 1.702 135 011.702-1.702z" paint-order="stroke markers fill" vector-effect="non-scaling-stroke"/>
    <path fill="#fff" d="M38.264 26.55L56.753-3.877l-19.12 24.621 3.342-28.5-8.593 26.943L27.026.715l-3.16-.327-.026 16.578L2.121-5.522-8.047 2.512l24.61 20.807-26.858 12.321 31.93-3.03L-.817 57.882l33.044-25.089 13.657 18.61 4.356 31.713-11.174-13.507 10.688 7.52.437-18.07c.476.679 14.95 23.99 15.565 14.37 28.134 40.058 23.51 4.792 23.464 2.022l8.1-14.045L58.997 49.46l35.48-18.012-37.982 12.927 13.88-19.946L50.54 45.796l-5.873-1.654z"/>
    <g fill="#ff8080">
        <path stroke="#000" stroke-linejoin="round" stroke-width="4" d="M35.713 65.523s1.61-11.186 2.01-11.316c1.019-.33 3.03-.94 4.594-2.423 2.176-2.064 8.078-6.152 7.292-8.859-2.014-6.943-2.373.404-2.827-.075-.688-.725 2.16-1.77 1.178-3.771-3.158-6.436-2.517.906-3.205.181-.689-.726 5.558.846.15-5.386-4.621-5.326-4.286 1.025-4.968.307-.688-.725 5.779.381.787-4.79-1.39-1.438-2.715-1.103-4.203 1.687-.938 1.758-5.14 5.707-5.14 5.707l-.263-3.68c-.1-1.41-2.953 1.62-4.143 2.75-2.43 11.107-1.783 19.254-5.14 30.182"/>
        <path d="M31.38 36.785l-.708-.293c-1.307-.54-1.745-.002-3.568-1.495-1.45 1.377-.69 3.942-.373 5.88.418 2.551.184 4.278 2.937 7.18 3.117 3.287 7.645 5.153 7.645 5.153s3.553-.203 5.73-2.267c2.176-2.065 8.825-4.397 7.165-8.71-1.103-2.864-2.972 1.096-3.426.617-.688-.725 3.684-1.779 1.936-4.482-2.397-3.709-3.388.462-4.076-.263-.688-.726 3.53-1.604.575-4.57-3.902-3.916-4.598 1.364-5.28.646-.688-.725 3.414-2.411 1.05-4.223-2.922-2.239-3.22-2.177-4.709.613-.937 1.758-4.898 6.214-4.898 6.214z"/>
    </g>
    <path fill="#fff" d="M33.45 33.037c-3.77 5.022-7.982-1.222-10.07-1.601-2.254-.409.116-8.262.116-8.262l8.3 1.27s7.986.158 1.654 8.593z"/>
</svg>
