<svg xmlns="http://www.w3.org/2000/svg" xmlns:xlink="http://www.w3.org/1999/xlink" cursor="default" viewBox="0 0 256 256">
    <defs>
        <linearGradient id="linearGradient23">
            <stop offset="0" stop-color="#ff7f2a"/>
            <stop offset="1" stop-color="#ffe6d5"/>
        </linearGradient>
        <linearGradient id="linearGradient924" x1="18.12" x2="21.466" y1="241.29" y2="228.73" gradientTransform="scale(1 -1) rotate(-89.503 -.246 -.024)" gradientUnits="userSpaceOnUse">
            <stop offset="0" stop-color="#917c6f"/>
            <stop offset="1" stop-color="#ac9d93"/>
        </linearGradient>
        <linearGradient id="innoGrad4">
            <stop offset="0" stop-color="#ffb380"/>
            <stop offset="1" stop-color="#fca"/>
        </linearGradient>
        <linearGradient id="linearGradient24" x1="124.558" x2="132.088" y1="140.425" y2="119.331" gradientUnits="userSpaceOnUse" xlink:href="#linearGradient23"/>
    </defs>
    <path fill="#404040" stroke="#525252" stroke-linecap="round" stroke-linejoin="round" stroke-width="1.349" d="M-.212.389h254.971v255.299H-.212z"/>
    <g>
        <path d="M56.077 173.288c-2.259.367-4.1 2.673-3.555 4.975.178.643.478 1.142.238 1.797l-.248 3.039c-2.624 1.143-4.1 3.807-5.412 6.206-2.136 4.176-3.683 8.626-5.026 13.11.222.671-.084 1.69.734 1.968.591.517 1.223.685 1.924.265 1.184-.204 1.29-1.643 1.765-2.54.38-.907.772-1.81 1.205-2.693-.252 1.29-.474 2.63-1.125 3.789.109.39-.54 1.393-.065 1.858.458.69 1.015 1.272 1.825 1.522 5.152 2.364 11.413 3.122 16.638.555 1.927-.947 3.734-2.27 5.081-3.933.248-.798.733-1.637.167-2.417-1.657-3.27-2.423-6.869-3.343-10.388-.749-2.872-2.72-5.3-5.233-6.835-.678-.275-1.079-.684-.848-1.447.078-.75-.06-1.605.134-2.291 1.536-1.997.545-5.156-1.729-6.114-.951-.499-2.078-.604-3.127-.426z"/>
        <path fill="#ffe680" stroke="#ffe680" stroke-linecap="round" stroke-linejoin="round" stroke-width="1.39895841" d="M57.115 175.188a2.641 2.28 1.646 00-2.705 2.203 2.641 2.28 1.646 002.574 2.353 2.641 2.28 1.646 002.707-2.203 2.641 2.28 1.646 00-2.576-2.353zm-2.326 4.58l-.363 4.472 1.84.143c-.758.183-1.526.399-2.258.418-4.926.128-10.016 18.181-10.016 18.181s4.82-12.856 6.164-7.502c-.484 7.143-1.918 8.823-1.918 8.823s12.011 6.839 20.32-2.354c-4.79-9.839-1.564-13.234-9.37-17.523a2.297 2.297 0 00-.452-.184l.123-4.28-4.07-.194z"/>
    </g>
    <path fill="#ffe680" stroke="#000" stroke-width="1.99997553" d="M32.336 101.754c-2.96 7.014-2.315 12.817.177 18.052 2.491 5.236 6.786 9.927 11.132 14.917s8.744 10.276 11.49 16.651c2.748 6.375 3.864 13.84 1.622 23.27l.85.202c2.28-9.596 1.142-17.292-1.67-23.817-2.811-6.525-7.277-11.88-11.632-16.88-4.355-5-8.593-9.653-11.003-14.718-2.41-5.066-3.037-10.521-.16-17.337z" color="#000" paint-order="stroke markers fill"/>
    <ellipse cx="41.669" cy="153.479" fill="#ff8080" stroke="#000" stroke-linecap="round" stroke-linejoin="round" stroke-width=".75" rx="3.581" ry="3.567" transform="rotate(1.65 -1258.556 881.072) scale(.87401)"/>
    <g>
        <path fill="#ff7f2a" stroke="#000" stroke-linejoin="round" d="M11.899 100.61s1.337 4.679 6.615 7.4c2.448 1.263 5.497 2.977 7.71 3.4 14.683 2.804 37.301 10.65 47.239 18.083 1.787 1.337 161.106 44.636 169.708 46.55 3.9.868 10.076.962 10.076.962L73.252 122.789s-22.762-14.377-51.8-17.77c-2.555-.298-7.728-2.81-9.553-4.409z" transform="matrix(1.13883 -.11376 -.48252 1.79633 44.234 -99.003)"/>
        <path fill="url(#linearGradient24)" stroke="#000" stroke-linejoin="round" d="M12.017 99.807c5.906-11.674 28.468-11.303 28.468-11.303s12.755.257 19.45 2.62c63.203 22.307 125.505 50.587 188.153 76.658 0 0 1.658 1.3 1.49 1.535-1.26 1.76-.66 3.744 2.923 5.032.565.204 3.308 2.212 1.403 2.59-6.764 1.344-180.652-54.15-180.652-54.15s-22.762-14.377-51.8-17.77c-3.569-.417-10.63-2.851-9.435-5.212z" transform="matrix(1.13883 -.11376 -.48252 1.79633 44.234 -99.003)"/>
        <path fill="#f95" stroke="#000" stroke-linecap="round" stroke-linejoin="round" d="M29.523 98.982c6.97-5.783 16.95-6.234 21.068-5.906.126-10.29-32.803-3.995-21.068 5.906z" transform="matrix(1.13883 -.11376 -.48252 1.79633 44.234 -99.003)"/>
        <path fill="none" stroke="#fff" stroke-linecap="round" d="M38.228 87.923l210.949 82.637M44.4 87.739l205.222 83.487M33.953 89.195l215.822 82.885M29.896 90.86l220.422 81.86M26.574 93.362L251 173.239" transform="matrix(1.13883 -.11376 -.48252 1.79633 44.234 -99.003)"/>
    </g>
</svg>
