<svg xmlns="http://www.w3.org/2000/svg" cursor="default" viewBox="0 0 256 256">
    <defs>
        <linearGradient id="linearGradient924" x1="18.12" x2="21.466" y1="241.29" y2="228.73" gradientTransform="scale(1 -1) rotate(-89.503 -.246 -.024)" gradientUnits="userSpaceOnUse">
            <stop offset="0" stop-color="#917c6f"/>
            <stop offset="1" stop-color="#ac9d93"/>
        </linearGradient>
        <linearGradient id="innoGrad4">
            <stop offset="0" stop-color="#ffb380"/>
            <stop offset="1" stop-color="#fca"/>
        </linearGradient>
    </defs>
    <path fill="#ff2a2a" stroke="#000" d="M72.348 146.66c-1.81 13.238 11.834 28.54 24.88 31.427 53.65-22.097 84.675-35.897 140.112-70.384 4.441-21.467-20.472-47.744-42.23-50.414-40.745 3.328-73.672 45.115-122.762 89.37z"/>
    <path fill="#faa" stroke="#000" d="M83.478 170.558c-2.297 13.977-16.206 15.436-33.718 25.861-18.214-3.494-36.53-31.087-28.481-47.795 21.368-4.913 28.708-4.908 43.212-5.893.109-.007.231-.05.327 0 9.854 5.257 20.471 16.807 18.66 27.827z"/>
    <path fill="#faa" stroke="#000" d="M176.777 54.997c-43.894 20.639-26.366 22.589-110.322 87.08-2.087 9.938 7.56 26.764 17.35 29.463 71.376-42.95 71.633-45.913 122.108-77.586 8.75-13.122 9.566-26.886 6.875-46.813-16.512 4.712-20.637 4.92-36.01 7.856z"/>
    <path fill="#fca" stroke="#000" stroke-linecap="round" stroke-linejoin="round" d="M18.006 168.398c-1.816 0-3.267 1.414-4.233 3.346-.966 1.932-1.529 4.498-1.529 7.324 0 2.827.563 5.395 1.53 7.327.965 1.931 2.416 3.345 4.232 3.345 1.815 0 3.266-1.414 4.232-3.345.966-1.932 1.528-4.5 1.528-7.327 0-2.826-.562-5.392-1.528-7.324-.966-1.932-2.417-3.346-4.232-3.346zm0 1.7c.896 0 1.9.783 2.71 2.406.812 1.622 1.35 3.967 1.35 6.564s-.538 4.942-1.35 6.565c-.81 1.622-1.814 2.406-2.71 2.406-.897 0-1.902-.784-2.713-2.406-.811-1.623-1.348-3.968-1.348-6.565 0-2.597.537-4.942 1.348-6.564.811-1.623 1.816-2.406 2.713-2.406z" overflow="visible" paint-order="markers stroke fill"/>
    <path fill="#fca" stroke="#000" d="M73.985 164.665c-1.737 8.034-14.914 17.602-27.172 19.97-14.025-3.258-15.9-24.305-19.314-36.666-2.266-2.365-.589-6.53-9.167-3.273-4.783 14.075 9.129 46.235 29.136 51.723 15.243-5.017 29.541-13.43 36.992-22.588.396-4.623-5.84-8.969-10.475-9.166z"/>
    <path fill="#fca" stroke="#000" d="M200.348 84.46L74.967 163.683s-.851-.3-.982 0c-.03 7.095 4.375 8.642 8.511 9.166 40.617-25.855 81.569-48.495 125.054-80.204 8.288-13.111 5.892-46.16 5.892-46.16s-.726-7.002-10.148-4.91c-1.475.328-10.995 10.084-6.587 8.889 11.313-3.069 7.439 19.312 3.64 33.996z"/>
</svg>
