<svg xmlns="http://www.w3.org/2000/svg" cursor="default" viewBox="0 0 256 256">
    <defs>
        <linearGradient id="linearGradient924" x1="18.12" x2="21.466" y1="241.29" y2="228.73" gradientTransform="scale(1 -1) rotate(-89.503 -.246 -.024)" gradientUnits="userSpaceOnUse">
            <stop offset="0" stop-color="#917c6f"/>
            <stop offset="1" stop-color="#ac9d93"/>
        </linearGradient>
        <linearGradient id="innoGrad4">
            <stop offset="0" stop-color="#ffb380"/>
            <stop offset="1" stop-color="#fca"/>
        </linearGradient>
    </defs>
    <g>
        <path fill="#ff8080" stroke="#000" d="M144.55 229.866l13.065-2.535-8.279-139.767-11.987-.873-.964 4.026zM101.567 90.544l-11.24 135.253 15.702 1.3L115.04 87.56l-14.322 1.79z"/>
        <path fill="#ff8080" stroke="#000" stroke-linecap="round" stroke-linejoin="round" d="M105.655 78.465c4.995 1.048 15.307.3 15.307.3l-11.526 10.91s-6.434-.524-9.545-1.322c-8.586-2.203-17.154-4.614-24.845-9.485.387-6.39-.254-10.896.473-15.555 24.592-20.674 82.15-23.293 101.528 2.538.706 5.067 1.684 9.82-.864 13.745-5.046 3.947-9.099 6.04-14.086 7.724-4.81 1.624-15.037 2.4-15.037 2.4l-7.58-9.079s7.119-2.511 10.669-3.792c5.806-2.096 11.499-1.371 17.39-6.37-30.612-20.28-68.16-7.798-80.657.181 4.86 2.47 12.14 6.414 18.773 7.805z"/>
        <path fill="#ff8080" stroke="#000" stroke-linecap="round" stroke-linejoin="round" d="M100.467 89.465c5.19.913 15.077 3.467 19.386 2.253 5.693-6.546 6.588-10.426 16.902-14.825-.136-1.497-2.5-.934-3.982-1.187-2.59-.444-6.42.741-6.42.741l-9.583.534c-3.066 7.161-6.696 9.07-16.303 12.484z"/>
        <path fill="#ff8080" stroke="#000" stroke-linecap="round" stroke-linejoin="round" d="M104.74 77.488s1.415-1.266 2.285-1.59c5.416.272 11.593-1.088 17.245-1.827 4.307.925 11.412 6.666 11.412 6.666s6.326-3.267 6.383-3.317l.056-.05s10.513 8.525 19.921 9.934c-4.29 2.61-11.19 4.13-15.961 4.578-6.308-.433-11.747-2.061-11.747-2.061l-8.327-1.354-17.155-9.94z"/>
        <path fill="#ff8080" stroke="#000" stroke-linecap="round" stroke-linejoin="round" d="M137.207 74.611c3.538-.24 7.926-1.171 11.537-.58.9.332 2.09 1.982 2.09 1.982s-9.128 12.995-16.078 15.933c-4.933 1.315-11.892 2.366-17.715.29 8.776-8.094 14.827-10.757 20.166-17.625z"/>
        <path fill="#f55" stroke="#f55" d="M168.523 70.316c2.848-.85 8.19-1.868 7.367-4.724-18.711-22.808-73.585-23.385-99.14-1.913-1.192 3.283 5.843 5.511 9.136 6.673 34.887-19.669 67.509-11.743 82.637-.036z"/>
        <path fill="none" stroke="#000" stroke-width=".5" d="M86.958 70.867s-11.173-3.073-11.3-7.613c2.5-1.93 3.731-2.833 3.731-2.833M166.926 71.089s8.885-1.554 10-5.822c-2.501-1.93-3.276-3.694-3.276-3.694"/>
    </g>
    <path fill="#f55" d="M101.908 90.406l12.359 1.776-.19 2.116-12.22-1.336zM137.161 91.329v2.58l12.198.015-.208-2.218-2.643.58z"/>
</svg>
