<?xml version="1.0" encoding="UTF-8" standalone="no"?>
<svg
   cursor="default"
   version="1.1"
   viewBox="0 0 256 256"
   id="svg34"
   sodipodi:docname="Dadai.svg"
   inkscape:version="1.3.1 (9b9bdc1480, 2023-11-25, custom)"
   xml:space="preserve"
   xmlns:inkscape="http://www.inkscape.org/namespaces/inkscape"
   xmlns:sodipodi="http://sodipodi.sourceforge.net/DTD/sodipodi-0.dtd"
   xmlns:xlink="http://www.w3.org/1999/xlink"
   xmlns="http://www.w3.org/2000/svg"
   xmlns:svg="http://www.w3.org/2000/svg"><sodipodi:namedview
     id="namedview34"
     pagecolor="#ffffff"
     bordercolor="#666666"
     borderopacity="1.0"
     inkscape:showpageshadow="2"
     inkscape:pageopacity="0.0"
     inkscape:pagecheckerboard="0"
     inkscape:deskcolor="#d1d1d1"
     inkscape:zoom="1.9807739"
     inkscape:cx="117.37836"
     inkscape:cy="146.40742"
     inkscape:window-width="1854"
     inkscape:window-height="1010"
     inkscape:window-x="0"
     inkscape:window-y="0"
     inkscape:window-maximized="1"
     inkscape:current-layer="svg34"
     showgrid="false" /><defs
     id="defs18"><inkscape:path-effect
       effect="curvestitching"
       id="path-effect2"
       is_visible="true"
       lpeversion="1"
       count="5"
       startpoint_edge_variation="0;1"
       startpoint_spacing_variation="0;1"
       endpoint_edge_variation="0;1"
       endpoint_spacing_variation="0;1"
       strokepath="M0,0 L1,0"
       prop_scale="1"
       scale_y_rel="false" /><inkscape:path-effect
       effect="rough_hatches"
       id="path-effect27"
       is_visible="true"
       lpeversion="1.2"
       direction="130.23338,84.722658 , 44.619617,0"
       dist_rdm="0;1"
       growth="0"
       do_bend="true"
       bender="130.23338,89.722658 , 5,0"
       bottom_edge_variation="0;1"
       top_edge_variation="0;1"
       bottom_tgt_variation="0;1"
       top_tgt_variation="0;1"
       scale_bf="1"
       scale_bb="1"
       scale_tf="1"
       scale_tb="1"
       top_smth_variation="0;1"
       bottom_smth_variation="0;1"
       fat_output="true"
       stroke_width_top="1"
       stroke_width_bottom="1"
       front_thickness="1"
       back_thickness="0.25" /><inkscape:path-effect
       effect="rough_hatches"
       id="path-effect25"
       is_visible="true"
       lpeversion="1.2"
       direction="130.33594,169.64062 , 44.499022,0"
       dist_rdm="0;1"
       growth="0"
       do_bend="true"
       bender="130.33594,174.64062 , 5,0"
       bottom_edge_variation="0;1"
       top_edge_variation="0;1"
       bottom_tgt_variation="0;1"
       top_tgt_variation="0;1"
       scale_bf="0"
       scale_bb="0"
       scale_tf="0.3"
       scale_tb="1.2"
       top_smth_variation="0;1"
       bottom_smth_variation="0;1"
       fat_output="true"
       stroke_width_top="1"
       stroke_width_bottom="1"
       front_thickness="1"
       back_thickness="0.25" /><inkscape:path-effect
       effect="rough_hatches"
       id="path-effect22"
       is_visible="true"
       lpeversion="1.2"
       direction="130.23338,125.46803 , 44.619244,0"
       dist_rdm="0;1"
       growth="0"
       do_bend="true"
       bender="130.23338,130.46803 , 5,0"
       bottom_edge_variation="0;1"
       top_edge_variation="0;1"
       bottom_tgt_variation="0;1"
       top_tgt_variation="0;1"
       scale_bf="0"
       scale_bb="0"
       scale_tf="0"
       scale_tb="0"
       top_smth_variation="0;1"
       bottom_smth_variation="0;1"
       fat_output="true"
       stroke_width_top="0"
       stroke_width_bottom="0"
       front_thickness="0"
       back_thickness="0" /><linearGradient
       id="linearGradient924"
       x1="18.12"
       x2="21.466"
       y1="241.29"
       y2="228.73"
       gradientTransform="matrix(.0086692 .99996 .99996 -.0086692 -.22047 .26984)"
       gradientUnits="userSpaceOnUse"><stop
         stop-color="#917c6f"
         offset="0"
         id="stop1" /><stop
         stop-color="#ac9d93"
         offset="1"
         id="stop2" /></linearGradient><linearGradient
       id="innoGrad4"><stop
         stop-color="#ffb380"
         offset="0"
         id="stop3" /><stop
         stop-color="#fca"
         offset="1"
         id="stop4" /></linearGradient><linearGradient
       id="innoGrad5"
       x1="149.74"
       x2="147.34"
       y1="110.12"
       y2="107.69"
       gradientTransform="matrix(.0086692 .99996 .99996 -.0086692 -.22047 .26984)"
       gradientUnits="userSpaceOnUse"><stop
         stop-color="#916f6f"
         offset="0"
         id="stop5" /><stop
         stop-color="#ac9393"
         offset="1"
         id="stop6" /></linearGradient><linearGradient
       id="linearGradient1284"
       x1="30"
       x2="30.714"
       y1="226.18"
       y2="225.42"
       gradientTransform="matrix(.0086692 .99996 .99996 -.0086692 -.22047 .26984)"
       gradientUnits="userSpaceOnUse"
       xlink:href="#innoGrad4" /><linearGradient
       id="linearGradient1292"
       x1="37.634"
       x2="38.214"
       y1="219.17"
       y2="218.59"
       gradientTransform="matrix(.0086692 .99996 .99996 -.0086692 -.22047 .26984)"
       gradientUnits="userSpaceOnUse"
       xlink:href="#innoGrad4" /><linearGradient
       id="linearGradient1306"
       x1="40.045"
       x2="40.938"
       y1="216.76"
       y2="215.78"
       gradientTransform="matrix(.0086692 .99996 .99996 -.0086692 -.22047 .26984)"
       gradientUnits="userSpaceOnUse"
       xlink:href="#innoGrad4" /><linearGradient
       id="linearGradient1314"
       x1="42.455"
       x2="43.348"
       y1="214.21"
       y2="213.32"
       gradientTransform="matrix(.0086692 .99996 .99996 -.0086692 -.22047 .26984)"
       gradientUnits="userSpaceOnUse"
       xlink:href="#innoGrad4" /><linearGradient
       id="linearGradient1322"
       x1="50.58"
       x2="51.071"
       y1="206.49"
       y2="206.04"
       gradientTransform="matrix(.0086692 .99996 .99996 -.0086692 -.22047 .26984)"
       gradientUnits="userSpaceOnUse"
       xlink:href="#innoGrad4" /><linearGradient
       id="innoGrad3"
       x1="27.009"
       x2="54.821"
       y1="229.57"
       y2="202.83"
       gradientTransform="matrix(.0086692 .99996 .99996 -.0086692 -.22047 .26984)"
       gradientUnits="userSpaceOnUse"><stop
         stop-color="#f95"
         offset="0"
         id="stop7" /><stop
         stop-color="#ff7f2a"
         offset=".088"
         id="stop8" /><stop
         stop-color="#f95"
         offset=".265"
         id="stop9" /><stop
         stop-color="#ff7f2a"
         offset=".446"
         id="stop10" /><stop
         stop-color="#ff7f2a"
         offset=".601"
         id="stop11" /><stop
         stop-color="#f95"
         offset=".733"
         id="stop12" /><stop
         stop-color="#ff7f2a"
         offset=".863"
         id="stop13" /><stop
         stop-color="#f95"
         offset="1"
         id="stop14" /></linearGradient><linearGradient
       id="linearGradient903"
       x1="200.1"
       x2="191.22"
       y1="65.966"
       y2="57.051"
       gradientUnits="userSpaceOnUse"><stop
         stop-color="#916f6f"
         offset="0"
         id="stop15" /><stop
         stop-color="#ac9393"
         offset="1"
         id="stop16" /></linearGradient><linearGradient
       id="linearGradient943"
       x1="185.93"
       x2="178.95"
       y1="77.051"
       y2="70.746"
       gradientUnits="userSpaceOnUse"
       xlink:href="#linearGradient924" /><linearGradient
       id="linearGradient951"
       x1="181.93"
       x2="175.36"
       y1="82.508"
       y2="76.271"
       gradientUnits="userSpaceOnUse"
       xlink:href="#linearGradient924" /><linearGradient
       id="linearGradient938"
       x1="18.12"
       x2="21.466"
       y1="241.29"
       y2="228.73"
       gradientTransform="matrix(.0086692 .99996 .99996 -.0086692 -.22047 .26984)"
       gradientUnits="userSpaceOnUse"><stop
         stop-color="#fd5"
         offset="0"
         id="stop17" /><stop
         stop-color="#fea"
         offset="1"
         id="stop18" /></linearGradient></defs><g
     inkscape:groupmode="layer"
     id="layer1"
     inkscape:label="Layer 1"
     style="display:inline"><path
       style="fill:#ff8080;stroke:#000000;stroke-width:1px;stroke-linecap:butt;stroke-linejoin:miter;stroke-opacity:1"
       d="m 144.54972,229.86596 13.06505,-2.53511 -8.27881,-139.766434 -11.9873,-0.873632 -0.96336,4.026006 z"
       id="path13" /><path
       style="fill:#ff8080;stroke:#000000;stroke-width:1px;stroke-linecap:butt;stroke-linejoin:miter;stroke-opacity:1"
       d="m 101.56719,90.544233 -11.239886,135.252337 15.701726,1.30059 9.01143,-139.536688 -14.32225,1.789665 z"
       id="path12" /><path
       style="display:inline;fill:#ff8080;stroke:#000000;stroke-width:1px;stroke-linecap:round;stroke-linejoin:round;stroke-opacity:1"
       d="m 105.65505,78.465343 c 4.99449,1.047935 15.30678,0.300204 15.30678,0.300204 l -11.52575,10.909066 c 0,0 -6.43376,-0.523738 -9.54504,-1.321982 -8.586503,-2.202989 -17.153872,-4.613988 -24.845038,-9.484454 0.386928,-6.391034 -0.253638,-10.89667 0.473364,-15.555445 24.591724,-20.673285 82.149494,-23.292669 101.527244,2.538622 0.70641,5.066306 1.68442,9.820543 -0.86354,13.744275 -5.04629,3.947696 -9.09862,6.041122 -14.08653,7.724825 -4.80898,1.623306 -15.03641,2.399822 -15.03641,2.399822 l -7.5797,-9.078907 c 0,0 7.1181,-2.511672 10.66809,-3.792787 5.80656,-2.09546 11.4993,-1.370656 17.38967,-6.368934 -30.61153,-20.280341 -68.159959,-7.798425 -80.656287,0.180393 4.860386,2.470332 12.140536,6.413659 18.773147,7.805302 z"
       id="path1"
       sodipodi:nodetypes="ccccccccccccccc" /><path
       style="display:inline;fill:#ff8080;stroke:#000000;stroke-width:1px;stroke-linecap:round;stroke-linejoin:round;stroke-opacity:1"
       d="m 100.46706,89.465349 c 5.19082,0.912197 15.07687,3.466855 19.38614,2.252277 5.69315,-6.545618 6.58782,-10.425734 16.90143,-14.824285 -0.1358,-1.497016 -2.49972,-0.933966 -3.98131,-1.187705 -2.58995,-0.443557 -6.41958,0.741469 -6.41958,0.741469 l -9.58392,0.533494 c -3.06571,7.161672 -6.69596,9.070648 -16.30276,12.48475 z"
       id="path7"
       sodipodi:nodetypes="ccccccc" /><path
       style="display:inline;fill:#ff8080;stroke:#000000;stroke-width:1px;stroke-linecap:round;stroke-linejoin:round;stroke-opacity:1"
       d="m 104.73951,77.488324 c 0,0 1.41536,-1.26676 2.28499,-1.59099 5.41642,0.272328 11.5937,-1.087736 17.24545,-1.826542 4.30726,0.925109 11.41227,6.665973 11.41227,6.665973 0,0 6.32598,-3.266978 6.3825,-3.317163 l 0.0565,-0.05018 c 0,0 10.51324,8.525856 19.92106,9.93476 -4.29102,2.609658 -11.19022,4.129506 -15.96163,4.577615 -6.30808,-0.433059 -11.7471,-2.061147 -11.7471,-2.061147 l -8.32704,-1.354083 -17.15457,-9.940185 z"
       id="path6"
       sodipodi:nodetypes="ccccsccccccc" /><path
       style="display:inline;fill:#ff8080;fill-opacity:1;stroke:#000000;stroke-width:1px;stroke-linecap:round;stroke-linejoin:round;stroke-opacity:1"
       d="m 137.20675,74.611068 c 3.53784,-0.239177 7.92585,-1.171394 11.53705,-0.580967 0.90057,0.333278 2.08967,1.982974 2.08967,1.982974 0,0 -9.1278,12.995086 -16.07718,15.933412 -4.933,1.314905 -11.89194,2.365322 -17.71565,0.290257 8.77672,-8.094373 14.82779,-10.757443 20.16611,-17.625676 z"
       id="path8"
       sodipodi:nodetypes="cccccc" /><path
       style="fill:#ff5555;stroke:#ff5555;stroke-width:1px;stroke-linecap:butt;stroke-linejoin:miter;stroke-opacity:1"
       d="m 168.52271,70.315691 c 2.84787,-0.84993 8.19088,-1.867778 7.367,-4.7233 -18.71114,-22.808174 -73.58448,-23.384995 -99.139949,-1.913347 -1.191429,3.282744 5.842923,5.511147 9.136413,6.672541 34.887186,-19.668549 67.508596,-11.742216 82.636536,-0.03589 z"
       id="path9"
       sodipodi:nodetypes="ccccc" /><path
       style="fill:none;stroke:#000000;stroke-width:0.5;stroke-linecap:butt;stroke-linejoin:miter;stroke-opacity:1;stroke-dasharray:none"
       d="m 86.957597,70.867121 c 0,0 -11.172221,-3.073402 -11.300113,-7.613475 2.500594,-1.929775 3.73161,-2.832174 3.73161,-2.832174"
       id="path10"
       sodipodi:nodetypes="ccc" /><path
       style="fill:none;stroke:#000000;stroke-width:0.5;stroke-linecap:butt;stroke-linejoin:miter;stroke-dasharray:none;stroke-opacity:1"
       d="m 166.92579,71.088842 c 0,0 8.88528,-1.553426 9.99941,-5.821577 -2.50059,-1.929775 -3.27562,-3.693958 -3.27562,-3.693958"
       id="path11"
       sodipodi:nodetypes="ccc" /></g><path
     style="fill:#ff5555;stroke:none;stroke-width:0.80637px;stroke-linecap:butt;stroke-linejoin:miter;stroke-opacity:1"
     d="m 101.90761,90.406493 12.35904,1.775682 -0.18981,2.116136 -12.22001,-1.336169 z"
     id="path14" /><path
     style="fill:#ff5555;stroke:none;stroke-width:0.875222px;stroke-linecap:butt;stroke-linejoin:miter;stroke-opacity:1"
     d="m 137.16131,91.328629 v 2.580552 l 12.19733,0.01473 -0.20756,-2.218375 -2.64308,0.581219 z"
     id="path15" /></svg>
