<svg xmlns="http://www.w3.org/2000/svg" cursor="default" viewBox="0 0 256 256">
    <defs>
        <linearGradient id="linearGradient924" x1="18.12" x2="21.466" y1="241.29" y2="228.73" gradientTransform="scale(1 -1) rotate(-89.503 -.246 -.024)" gradientUnits="userSpaceOnUse">
            <stop offset="0" stop-color="#917c6f"/>
            <stop offset="1" stop-color="#ac9d93"/>
        </linearGradient>
        <linearGradient id="innoGrad4">
            <stop offset="0" stop-color="#ffb380"/>
            <stop offset="1" stop-color="#fca"/>
        </linearGradient>
    </defs>
    <g>
        <path fill="#ff2a2a" stroke="#ff8080" stroke-width="2" d="M111.862 68.306l29.665.603 2.984 56.904-42.703.076z"/>
        <path fill="#ff2a2a" d="M122.437 97.512l-8.704-32.62s-48.34-7.113-49.416-12.229l-1.076-5.116-1.119 71.415 47.652 16.734zm11.126 0l8.704-32.62s48.34-7.113 49.416-12.229l1.076-5.116 1.119 71.415-47.652 16.734z"/>
        <path fill="none" stroke="#000" stroke-width="2" d="M64.22 47.34l-1.978.191-.05 3.2c.24.696.517 1.362.966 2.04l-1.017 65.094-.996-.293-.034 2.094 49.293 17.31 13.076-39.433-.076-.29-8.873-33.257-.652-.096s-12.068-1.774-24.256-4.185c-6.094-1.206-12.219-2.574-16.846-3.944-2.313-.684-4.255-1.372-5.593-2.015-.67-.321-1.188-.636-1.506-.893-.319-.256-.39-.444-.381-.406L64.22 47.34zm127.56 0l-1.077 5.117c.008-.038-.062.15-.38.406-.32.257-.837.572-1.507.893-1.338.643-3.28 1.33-5.593 2.015-4.627 1.37-10.752 2.738-16.846 3.944-12.188 2.411-24.256 4.185-24.256 4.185l-.652.096-8.873 33.258-.076.289 13.076 39.434 49.293-17.311-.034-2.094-.996.293-1.017-65.094c.45-.678.725-1.344.967-2.04l-.051-3.2-1.979-.191z" color="#000"/>
        <path style="-inkscape-stroke:none" fill="#ff8080" d="M64.22 47.34l-1.978.192-.051 3.2c.55 1.592 1.112 3.011 4.125 4.828 1.435.865 3.523 1.429 5.892 2.13 4.74 1.403 10.9 2.775 17.026 3.987 11.922 2.358 23.075 4 23.699 4.092 2.199 3.254 7.046 27.772 8.764 31.603l-12.504 37.06-46.059-16.175.002-.096-1.992-.588-.033 2.094 49.293 17.31 13.076-39.433-.076-.29-8.873-33.257-.653-.096s-12.068-1.774-24.255-4.185c-6.094-1.206-12.22-2.574-16.846-3.944-2.314-.684-4.255-1.373-5.594-2.015-.67-.322-1.187-.636-1.506-.893-.318-.257-.389-.444-.38-.406zm127.56 0l1.978.192.051 3.2c-.55 1.592-1.112 3.011-4.125 4.828-1.435.865-3.523 1.429-5.892 2.13-4.74 1.403-10.9 2.775-17.026 3.987-11.922 2.358-23.075 4-23.699 4.092-2.198 3.254-7.045 27.772-8.764 31.603l12.504 37.06 46.059-16.175-.002-.096 1.992-.588.033 2.094-49.293 17.31-13.076-39.433.076-.29 8.873-33.257.653-.096s12.068-1.774 24.256-4.185c6.093-1.206 12.218-2.574 16.845-3.944 2.314-.684 4.255-1.373 5.594-2.015.67-.322 1.187-.636 1.506-.893.318-.257.389-.444.38-.406z" color="#000"/>
        <path fill="#ffe680" stroke="#000" d="M63.436 66.977s44.575 8.439 61.677 21.317c.039 16.75-2.23 30.793-2.23 30.793l-60.06-16.936z"/>
        <path fill="#ffe680" stroke="#000" d="M101.854 93.883c8.274 15.883 18.563 30.994 18.563 30.994l73.408-26.635-1.251-33.712s-54.13 10.06-90.72 29.353z"/>
        <path fill="#ffb380" stroke="#000" stroke-linecap="round" stroke-linejoin="round" stroke-width="2.2" d="M126.468 81.962c-7.294 0-13.293 6-13.293 13.295 0 7.294 5.999 13.293 13.293 13.293 7.295 0 13.295-5.999 13.295-13.293 0-7.295-6-13.295-13.295-13.295zm0 8c2.971 0 5.295 2.324 5.295 5.295 0 2.97-2.324 5.293-5.295 5.293-2.97 0-5.293-2.322-5.293-5.293s2.322-5.295 5.293-5.295z" color="#000" paint-order="stroke markers fill"/>
        <path fill="#ff8080" stroke="#000" stroke-linecap="round" stroke-linejoin="round" d="M159.283 94.906c-.525-1.38-.105-4.142-.349-6.096 17.738-5.27 30.494-16.854 34.196-16.11 2.24.45-.22 3.709.045 6.857.243 2.89 1.917 5.487.66 6.74-2.63 2.619-15.269 5.042-34.552 8.61zm-62.566 0c.525-1.38.105-4.142.349-6.096C79.328 83.54 66.572 71.956 62.87 72.7c-2.24.45.22 3.709-.045 6.857-.243 2.89-1.917 5.487-.66 6.74 2.63 2.619 15.269 5.042 34.552 8.61z"/>
        <path fill="#ff8080" stroke="#000" d="M153.133 110.556s1.646-9.87 4.906-4.998l3.26 4.872 8.116 107.871-5.264 5.22-6.114-5.518zm-50.266 0s-1.646-9.87-4.906-4.998l-3.26 4.872L86.586 218.3l5.264 5.22 6.114-5.518z"/>
        <path fill="#ffb380" stroke="#000" d="M157.457 89.761l-4.26 4.069s-3.409-3.247-3.409-.121v3.126s-5.313-10.175-7.555-5.567l-2.242 4.607-.162 3.537 7.599.835-.167-3.289 2.977 2.779 2.844-2.96 2.84 2.148 4.058-3.939zm-58.914 0l4.26 4.069s3.409-3.247 3.409-.121v3.126s5.313-10.175 7.555-5.567l2.242 4.607.162 3.537-7.599.835.167-3.289-2.977 2.779-2.844-2.96-2.84 2.148-4.058-3.939z"/>
        <path style="-inkscape-stroke:none" d="M156.449 99.53l-1 .014.06 4.29 1-.013zm-56.898 0l1 .014-.06 4.29-1-.013z" color="#000"/>
    </g>
</svg>
