<svg xmlns="http://www.w3.org/2000/svg" xmlns:xlink="http://www.w3.org/1999/xlink" cursor="default" viewBox="0 0 256 256">
    <defs>
        <linearGradient id="linearGradient35">
            <stop offset="0" stop-color="#ffe6d5"/>
            <stop offset="1" stop-color="#ff7f2a"/>
        </linearGradient>
        <linearGradient id="linearGradient24">
            <stop offset="0" stop-color="#ff7f2a"/>
            <stop offset="1" stop-color="#ffe6d5"/>
        </linearGradient>
        <linearGradient id="linearGradient21">
            <stop offset="0" stop-color="#ffd42a"/>
            <stop offset=".509" stop-color="#ffe680"/>
            <stop offset="1" stop-color="#ffd42a"/>
        </linearGradient>
        <linearGradient id="linearGradient7">
            <stop offset="0" stop-color="#ff2a2a"/>
            <stop offset=".361" stop-color="#faa"/>
            <stop offset="1" stop-color="#ff8080"/>
        </linearGradient>
        <linearGradient id="linearGradient924" x1="18.12" x2="21.466" y1="241.29" y2="228.73" gradientTransform="scale(1 -1) rotate(-89.503 -.246 -.024)" gradientUnits="userSpaceOnUse">
            <stop offset="0" stop-color="#917c6f"/>
            <stop offset="1" stop-color="#ac9d93"/>
        </linearGradient>
        <linearGradient id="innoGrad4">
            <stop offset="0" stop-color="#ffb380"/>
            <stop offset="1" stop-color="#fca"/>
        </linearGradient>
        <linearGradient id="linearGradient23" x1="144.331" x2="143.552" y1="113.558" y2="61.952" gradientUnits="userSpaceOnUse" xlink:href="#linearGradient21"/>
        <linearGradient id="linearGradient26" x1="130.448" x2="132.993" y1="153.175" y2="150.129" gradientUnits="userSpaceOnUse" xlink:href="#linearGradient24"/>
        <linearGradient id="linearGradient28" x1="154.868" x2="161.336" y1="157.2" y2="147.269" gradientUnits="userSpaceOnUse" xlink:href="#linearGradient24"/>
        <linearGradient id="linearGradient30" x1="181.546" x2="183.798" y1="144.511" y2="142.519" gradientUnits="userSpaceOnUse" xlink:href="#linearGradient24"/>
        <linearGradient id="linearGradient32" x1="199.797" x2="214.025" y1="149.783" y2="116.883" gradientUnits="userSpaceOnUse" xlink:href="#linearGradient24"/>
        <linearGradient id="linearGradient34" x1="76.834" x2="104.583" y1="139.324" y2="140.474" gradientUnits="userSpaceOnUse" xlink:href="#linearGradient35"/>
        <linearGradient id="linearGradient36" x1="88.607" x2="193.103" y1="143.823" y2="143.823" gradientUnits="userSpaceOnUse" xlink:href="#linearGradient7"/>
    </defs>
    <g transform="translate(-9.256 .221)">
        <path fill="url(#linearGradient32)" stroke="#000" d="M102.735 133.357c-.193-4.855 76.993 16.734 126.372-1.228 14.972-5.446-57.416 7.743 7.752-23.19 12.768-6.06 12.763 39.363-11.43 40.83-55.552 3.366-122.495-11.413-122.694-16.412z"/>
        <path fill="url(#linearGradient23)" stroke="#000" d="M98.214 135.31c-17.527-44-19.696-57.585-8.325-69.83 14.407-15.512 84-15.447 102.727.17 12.22 10.19 1.93 43.25-11.794 71.345-10.813 22.135-75.977 14.965-82.608-1.684z"/>
        <path fill="#ffd42a" d="M145.526 54.418c21.114 8.66 16.702 60.718 15.116 68.865-3.79 4.166-10.337 11.982-16.88.7 1.05-15.148 8.556-65.902-16.218-68.657 16.182 2.391 15.54 42.033 14.186 69.332-3.278 3.449-9.85 1.796-14.277.05-.801-.315-1.494-1-1.88-1.769 2.332-8.277 4.168-60.687-20.08-64.559 20.53 3.857 19.708 58.9 18.55 65.823-2.472 1.994-7.007-.295-9.156-2.633 7.825-35.54-18.844-73.924-23.762-39.7 5.726-22.628 29.23 6.838 21.734 40.325 10.546 10.915 31.02 13.117 44.973 7.142 2.734-1.17 4.272-4.526 4.959-7.42 2.454-10.333 9.45-58.075-17.265-67.5zM91.125 81.87c-1.525 6.025-1.793 15.73.125 30.054-1.228-13.37-1.114-23.172-.125-30.054zm14.367-23.49c-.766-.145-.002.27-.828.274.821.022.06-.397.828-.275zm61.389-1.736c28.11 19.82 6.771 78.554 6.771 78.554l16.963-5.016-11.91-6.287s16.963-55.942-11.824-67.251z"/>
        <path fill="#faa" stroke="#000" d="M89.124 111.999c.323 17.824-.163 33.607.288 45.276 24.192 24.306 78.72 25.483 102.874 1.138 1.04-15.414-.811-27.818-.87-45.93-23.72 15.119-74.391 18.29-102.292-.484z"/>
        <path fill="url(#linearGradient36)" d="M91.21 118.56c.126 12.144-.152 24.29.128 36.432.111.516-.224 1.402.404 1.757 7.5 7.087 17.098 11.601 26.982 14.283 12.588 3.371 25.912 3.956 38.759 1.787.997-.167 1.76-.323 2.774-.524 10.053-2.096 19.935-6.048 27.835-12.737.776-.65 1.526-1.33 2.246-2.04.11-1.676.157-3.193.214-4.893.258-10.236-.61-20.385-.95-30.64a401.304 401.304 0 01-.153-6.02c-8.743 4.752-18.438 7.5-28.203 9.192-13.711 2.299-27.811 2.462-41.54.221-9.945-1.658-19.778-4.641-28.526-9.733l.03 2.916z"/>
        <ellipse cx="133.404" cy="171.881" fill="#fca" fill-opacity=".994" stroke="#000" stroke-linecap="round" stroke-linejoin="round" rx="14.586" ry="15.952" transform="rotate(-9.001)"/>
        <ellipse cx="131.831" cy="150.906" fill="#fca" fill-opacity=".994" stroke="#000" stroke-linecap="round" stroke-linejoin="round" rx="6.272" ry="5.993"/>
        <ellipse cx="182.904" cy="142.308" fill="#fca" fill-opacity=".994" stroke="#000" stroke-linecap="round" stroke-linejoin="round" rx="5.5" ry="5.253"/>
        <path fill="url(#linearGradient34)" stroke="#000" d="M102.528 137.995c1.97 2.058 2.174 6.705 0 8.546-65.684-11.085-21.018-2.546-69.167-11.558 21.926-2.015 14.42 1.484 69.167 3.012z"/>
        <path fill="url(#linearGradient26)" fill-opacity=".994" d="M131.084 146.98c-2.1.306-3.852 2.37-3.46 4.524.367 2.48 3.243 3.968 5.545 3.175 2.15-.57 3.559-3.123 2.647-5.208-.74-1.823-2.828-2.834-4.732-2.49z"/>
        <path fill="url(#linearGradient28)" fill-opacity=".994" d="M155.007 135.45c-3.393 1.03-6.192 3.64-7.633 6.857-2.145 4.63-1.632 10.326 1.19 14.562 2.174 3.309 5.865 5.723 9.873 5.899 3.785.263 7.547-1.599 9.847-4.577 2.457-3.114 3.386-7.273 2.806-11.17-.736-5.313-4.584-10.28-9.874-11.657-2.03-.558-4.192-.497-6.21.086z"/>
        <path fill="url(#linearGradient30)" d="M182.217 139.129c-1.833.284-3.289 2.268-2.646 4.087.667 2.288 3.866 3.061 5.616 1.523 1.522-1.108 1.609-3.598.13-4.784-.836-.747-2.006-1.035-3.1-.826z"/>
    </g>
</svg>
