<?xml version="1.0" encoding="UTF-8" standalone="no"?>
<svg
   cursor="default"
   version="1.1"
   viewBox="0 0 256 256"
   id="svg34"
   sodipodi:docname="guan2.svg"
   inkscape:version="1.4.1-rc (832c77b156, 2025-02-28)"
   width="100%"
   height="100%"
   xmlns:inkscape="http://www.inkscape.org/namespaces/inkscape"
   xmlns:sodipodi="http://sodipodi.sourceforge.net/DTD/sodipodi-0.dtd"
   xmlns:xlink="http://www.w3.org/1999/xlink"
   xmlns="http://www.w3.org/2000/svg"
   xmlns:svg="http://www.w3.org/2000/svg">
  <sodipodi:namedview
     id="namedview34"
     pagecolor="#ffffff"
     bordercolor="#666666"
     borderopacity="1.0"
     inkscape:showpageshadow="2"
     inkscape:pageopacity="0.0"
     inkscape:pagecheckerboard="0"
     inkscape:deskcolor="#d1d1d1"
     inkscape:zoom="2.1599903"
     inkscape:cx="129.63021"
     inkscape:cy="106.94493"
     inkscape:window-width="1854"
     inkscape:window-height="1010"
     inkscape:window-x="0"
     inkscape:window-y="0"
     inkscape:window-maximized="1"
     inkscape:current-layer="g4"
     showgrid="false" />
  <defs
     id="defs18">
    <linearGradient
       id="linearGradient27"
       inkscape:collect="always">
      <stop
         style="stop-color:#ffccaa;stop-opacity:1;"
         offset="0"
         id="stop27" />
      <stop
         style="stop-color:#ffb380;stop-opacity:1;"
         offset="1"
         id="stop28" />
    </linearGradient>
    <inkscape:path-effect
       effect="mirror_symmetry"
       start_point="111.10258,302.82613"
       end_point="111.10258,-9.2386159"
       center_point="111.10258,146.79376"
       id="path-effect14"
       is_visible="true"
       lpeversion="1.2"
       lpesatellites=""
       mode="vertical"
       discard_orig_path="false"
       fuse_paths="false"
       oposite_fuse="false"
       split_items="false"
       split_open="false"
       link_styles="false" />
    <inkscape:path-effect
       effect="mirror_symmetry"
       start_point="107.11706,301.97959"
       end_point="107.11706,-10.085152"
       center_point="107.11706,145.94722"
       id="path-effect10"
       is_visible="true"
       lpeversion="1.2"
       lpesatellites=""
       mode="vertical"
       discard_orig_path="false"
       fuse_paths="false"
       oposite_fuse="false"
       split_items="false"
       split_open="false"
       link_styles="false" />
    <inkscape:path-effect
       effect="mirror_symmetry"
       start_point="128,-1.2243846e-06"
       end_point="128,256"
       center_point="128,128"
       id="path-effect3"
       is_visible="true"
       lpeversion="1.2"
       lpesatellites=""
       mode="vertical"
       discard_orig_path="false"
       fuse_paths="false"
       oposite_fuse="false"
       split_items="false"
       split_open="false"
       link_styles="false" />
    <inkscape:path-effect
       effect="mirror_symmetry"
       start_point="132.25575,2.7735698"
       end_point="132.25575,258.77357"
       center_point="132.25575,130.77357"
       id="path-effect1"
       is_visible="true"
       lpeversion="1.2"
       lpesatellites=""
       mode="vertical"
       discard_orig_path="false"
       fuse_paths="false"
       oposite_fuse="false"
       split_items="false"
       split_open="false"
       link_styles="false" />
    <inkscape:path-effect
       effect="curvestitching"
       id="path-effect2"
       is_visible="true"
       lpeversion="1"
       count="5"
       startpoint_edge_variation="0;1"
       startpoint_spacing_variation="0;1"
       endpoint_edge_variation="0;1"
       endpoint_spacing_variation="0;1"
       strokepath="M 0,0 H 1"
       prop_scale="1"
       scale_y_rel="false" />
    <inkscape:path-effect
       effect="rough_hatches"
       id="path-effect27"
       is_visible="true"
       lpeversion="1.2"
       direction="130.23338,84.722658 , 44.619617,0"
       dist_rdm="0;1"
       growth="0"
       do_bend="true"
       bender="130.23338,89.722658 , 5,0"
       bottom_edge_variation="0;1"
       top_edge_variation="0;1"
       bottom_tgt_variation="0;1"
       top_tgt_variation="0;1"
       scale_bf="1"
       scale_bb="1"
       scale_tf="1"
       scale_tb="1"
       top_smth_variation="0;1"
       bottom_smth_variation="0;1"
       fat_output="true"
       stroke_width_top="1"
       stroke_width_bottom="1"
       front_thickness="1"
       back_thickness="0.25" />
    <inkscape:path-effect
       effect="rough_hatches"
       id="path-effect25"
       is_visible="true"
       lpeversion="1.2"
       direction="130.33594,169.64062 , 44.499022,0"
       dist_rdm="0;1"
       growth="0"
       do_bend="true"
       bender="130.33594,174.64062 , 5,0"
       bottom_edge_variation="0;1"
       top_edge_variation="0;1"
       bottom_tgt_variation="0;1"
       top_tgt_variation="0;1"
       scale_bf="0"
       scale_bb="0"
       scale_tf="0.3"
       scale_tb="1.2"
       top_smth_variation="0;1"
       bottom_smth_variation="0;1"
       fat_output="true"
       stroke_width_top="1"
       stroke_width_bottom="1"
       front_thickness="1"
       back_thickness="0.25" />
    <inkscape:path-effect
       effect="rough_hatches"
       id="path-effect22"
       is_visible="true"
       lpeversion="1.2"
       direction="130.23338,125.46803 , 44.619244,0"
       dist_rdm="0;1"
       growth="0"
       do_bend="true"
       bender="130.23338,130.46803 , 5,0"
       bottom_edge_variation="0;1"
       top_edge_variation="0;1"
       bottom_tgt_variation="0;1"
       top_tgt_variation="0;1"
       scale_bf="0"
       scale_bb="0"
       scale_tf="0"
       scale_tb="0"
       top_smth_variation="0;1"
       bottom_smth_variation="0;1"
       fat_output="true"
       stroke_width_top="0"
       stroke_width_bottom="0"
       front_thickness="0"
       back_thickness="0" />
    <linearGradient
       id="linearGradient924"
       x1="18.120001"
       x2="21.466"
       y1="241.28999"
       y2="228.73"
       gradientTransform="matrix(0.0086692,0.99996,0.99996,-0.0086692,-0.22047,0.26984)"
       gradientUnits="userSpaceOnUse">
      <stop
         stop-color="#917c6f"
         offset="0"
         id="stop1" />
      <stop
         stop-color="#ac9d93"
         offset="1"
         id="stop2" />
    </linearGradient>
    <linearGradient
       id="innoGrad4">
      <stop
         stop-color="#ffb380"
         offset="0"
         id="stop3" />
      <stop
         stop-color="#fca"
         offset="1"
         id="stop4" />
    </linearGradient>
    <linearGradient
       id="innoGrad5"
       x1="149.74001"
       x2="147.34"
       y1="110.12"
       y2="107.69"
       gradientTransform="matrix(0.0086692,0.99996,0.99996,-0.0086692,-0.22047,0.26984)"
       gradientUnits="userSpaceOnUse">
      <stop
         stop-color="#916f6f"
         offset="0"
         id="stop5" />
      <stop
         stop-color="#ac9393"
         offset="1"
         id="stop6" />
    </linearGradient>
    <linearGradient
       id="linearGradient1284"
       x1="30"
       x2="30.714001"
       y1="226.17999"
       y2="225.42"
       gradientTransform="matrix(0.0086692,0.99996,0.99996,-0.0086692,-0.22047,0.26984)"
       gradientUnits="userSpaceOnUse"
       xlink:href="#innoGrad4" />
    <linearGradient
       id="linearGradient1292"
       x1="37.633999"
       x2="38.214001"
       y1="219.17"
       y2="218.59"
       gradientTransform="matrix(0.0086692,0.99996,0.99996,-0.0086692,-0.22047,0.26984)"
       gradientUnits="userSpaceOnUse"
       xlink:href="#innoGrad4" />
    <linearGradient
       id="linearGradient1306"
       x1="40.044998"
       x2="40.938"
       y1="216.75999"
       y2="215.78"
       gradientTransform="matrix(0.0086692,0.99996,0.99996,-0.0086692,-0.22047,0.26984)"
       gradientUnits="userSpaceOnUse"
       xlink:href="#innoGrad4" />
    <linearGradient
       id="linearGradient1314"
       x1="42.455002"
       x2="43.348"
       y1="214.21001"
       y2="213.32001"
       gradientTransform="matrix(0.0086692,0.99996,0.99996,-0.0086692,-0.22047,0.26984)"
       gradientUnits="userSpaceOnUse"
       xlink:href="#innoGrad4" />
    <linearGradient
       id="linearGradient1322"
       x1="50.580002"
       x2="51.070999"
       y1="206.49001"
       y2="206.03999"
       gradientTransform="matrix(0.0086692,0.99996,0.99996,-0.0086692,-0.22047,0.26984)"
       gradientUnits="userSpaceOnUse"
       xlink:href="#innoGrad4" />
    <linearGradient
       id="innoGrad3"
       x1="27.009001"
       x2="54.820999"
       y1="229.57001"
       y2="202.83"
       gradientTransform="matrix(0.0086692,0.99996,0.99996,-0.0086692,-0.22047,0.26984)"
       gradientUnits="userSpaceOnUse">
      <stop
         stop-color="#f95"
         offset="0"
         id="stop7" />
      <stop
         stop-color="#ff7f2a"
         offset=".088"
         id="stop8" />
      <stop
         stop-color="#f95"
         offset=".265"
         id="stop9" />
      <stop
         stop-color="#ff7f2a"
         offset=".446"
         id="stop10" />
      <stop
         stop-color="#ff7f2a"
         offset=".601"
         id="stop11" />
      <stop
         stop-color="#f95"
         offset=".733"
         id="stop12" />
      <stop
         stop-color="#ff7f2a"
         offset=".863"
         id="stop13" />
      <stop
         stop-color="#f95"
         offset="1"
         id="stop14" />
    </linearGradient>
    <linearGradient
       id="linearGradient903"
       x1="200.10001"
       x2="191.22"
       y1="65.966003"
       y2="57.050999"
       gradientUnits="userSpaceOnUse">
      <stop
         stop-color="#916f6f"
         offset="0"
         id="stop15" />
      <stop
         stop-color="#ac9393"
         offset="1"
         id="stop16" />
    </linearGradient>
    <linearGradient
       id="linearGradient943"
       x1="185.92999"
       x2="178.95"
       y1="77.051003"
       y2="70.746002"
       gradientUnits="userSpaceOnUse"
       xlink:href="#linearGradient924" />
    <linearGradient
       id="linearGradient951"
       x1="181.92999"
       x2="175.36"
       y1="82.508003"
       y2="76.271004"
       gradientUnits="userSpaceOnUse"
       xlink:href="#linearGradient924" />
    <linearGradient
       id="linearGradient938"
       x1="18.120001"
       x2="21.466"
       y1="241.28999"
       y2="228.73"
       gradientTransform="matrix(0.0086692,0.99996,0.99996,-0.0086692,-0.22047,0.26984)"
       gradientUnits="userSpaceOnUse">
      <stop
         stop-color="#fd5"
         offset="0"
         id="stop17" />
      <stop
         stop-color="#fea"
         offset="1"
         id="stop18" />
    </linearGradient>
    <linearGradient
       inkscape:collect="always"
       xlink:href="#linearGradient21"
       id="linearGradient23"
       x1="144.33098"
       y1="113.55816"
       x2="143.55203"
       y2="61.952026"
       gradientUnits="userSpaceOnUse"
       gradientTransform="matrix(1.1803871,0,0,-1.2190029,-54.390099,216.50514)" />
    <linearGradient
       id="linearGradient21"
       inkscape:collect="always">
      <stop
         style="stop-color:#ffd42a;stop-opacity:1;"
         offset="0"
         id="stop23" />
      <stop
         style="stop-color:#ffe680;stop-opacity:1;"
         offset="0.50935441"
         id="stop24" />
      <stop
         style="stop-color:#ffd42a;stop-opacity:1;"
         offset="1"
         id="stop22" />
    </linearGradient>
    <linearGradient
       inkscape:collect="always"
       xlink:href="#linearGradient27"
       id="linearGradient28"
       x1="170.74945"
       y1="96.078903"
       x2="187.32194"
       y2="95.514548"
       gradientUnits="userSpaceOnUse" />
    <linearGradient
       inkscape:collect="always"
       xlink:href="#linearGradient27"
       id="linearGradient30"
       x1="42.854256"
       y1="96.078903"
       x2="26.403875"
       y2="96.078903"
       gradientUnits="userSpaceOnUse" />
  </defs>
  <g
     id="g4"
     transform="matrix(0.81313263,0,0,-0.82034258,37.658866,248.42117)"
     style="display:inline;stroke:#000000;stroke-width:4.89758;stroke-dasharray:none;stroke-opacity:1">
    <path
       style="display:inline;stroke:#000000;stroke-width:1.2244px;stroke-dasharray:none;stroke-opacity:1;fill:#ffaaaa;stroke-linecap:butt;stroke-linejoin:miter"
       d="M -2.4726055,93.450155 219.57773,92.885794 219.00837,103.0442 -4.1806848,97.400639 Z"
       id="path20" />
    <path
       style="fill:#ff8080;stroke:#000000;stroke-width:2.2;stroke-linecap:round;stroke-linejoin:round;stroke-dasharray:none;stroke-opacity:1;paint-order:markers stroke fill"
       d="m 126.76025,181.55635 c -2.31089,-0.18803 -5.49179,-0.89628 -7.07684,-1.57571 -0.81118,-0.34771 -1.00454,-0.56679 -1.25529,-1.42228 -0.49748,-1.6972 -2.20329,-5.11231 -3.63868,-7.28476 -1.68785,-2.55457 -6.04131,-6.97112 -8.42322,-8.54531 -3.39257,-2.24212 -7.213134,-3.83023 -10.879678,-4.5224 -1.76705,-0.33359 -6.812835,-0.35585 -8.394194,-0.037 -1.075454,0.21682 -1.105784,0.20738 -1.236645,-0.38497 -1.203232,-5.44649 -2.998975,-10.65401 -4.879079,-14.14897 -3.214705,-5.97587 -7.752586,-10.50095 -12.561813,-12.52636 -0.833998,-0.35124 -1.550653,-0.80469 -1.592565,-1.00767 -0.10937,-0.52967 3.489352,-7.78956 5.683724,-11.46609 13.750605,-23.03821 35.01908,-35.4594 59.32333,-34.645936 6.30812,0.211132 11.51706,1.092908 16.84916,2.852241 15.58895,5.143597 27.83505,15.576675 36.3677,30.983515 2.28569,4.12712 5.46169,11.59468 5.1475,12.10304 -0.0849,0.13736 -0.86137,0.50639 -1.72552,0.82005 -2.77707,1.00803 -5.15631,2.60891 -7.80002,5.24828 -3.35982,3.35431 -5.68954,7.02595 -7.7213,12.16878 -0.86479,2.18897 -2.26121,6.9356 -2.68527,9.12762 l -0.24631,1.27315 -2.93132,-0.0828 c -1.62678,-0.046 -3.71097,0.0421 -4.68319,0.19779 -8.63624,1.38341 -16.75773,7.69434 -21.05425,16.36053 -0.62024,1.25103 -1.30867,2.83268 -1.52985,3.51478 -0.3603,1.11109 -0.51114,1.2884 -1.44907,1.70329 -2.44517,1.08162 -7.42177,1.63781 -11.60731,1.29726 z"
       id="path13"
       transform="matrix(1.2298117,0,0,-1.2190029,-46.313313,302.82613)" />
    <path
       id="hair"
       style="display:inline;fill:url(#linearGradient23);stroke:#000000;stroke-width:1.2244px;stroke-linecap:butt;stroke-linejoin:miter;stroke-dasharray:none;stroke-opacity:1"
       d="M 110.43003 150.81028 C 85.004477 150.8459 60.216841 146.13992 51.713726 136.6846 C 38.291591 121.75943 40.851523 105.19962 61.54021 51.561536 C 63.789495 45.729972 71.743792 40.852805 82.240438 37.502527 L 113.10823 73.132173 L 141.20174 36.104959 C 149.53422 38.815155 156.0572 43.178332 159.05082 49.506849 C 175.25106 83.754128 187.39736 124.05531 172.97268 136.47747 C 161.91963 145.99606 135.85558 150.77466 110.43003 150.81028 z " />
    <path
       id="hair_stripes"
       style="display:inline;fill:#ffd42a;stroke:none;stroke-width:1.2244px;stroke-linecap:butt;stroke-linejoin:miter;stroke-dasharray:none;stroke-opacity:1"
       d="m 117.38674,150.16981 c 24.92271,-10.55725 19.715,-74.016094 17.84347,-83.946603 -4.4732,-5.07927 -12.20278,-14.60621 -19.92594,-0.85473 1.24092,18.466709 10.09995,80.336313 -19.143398,83.694493 19.101598,-2.91506 18.344538,-51.238878 16.745728,-84.515893 -3.87003,-4.2045 -11.6271,-2.1896 -16.852789,-0.0619 -0.945738,0.38507 -1.763534,1.21908 -2.220143,2.15706 2.753559,10.089799 4.921291,73.977193 -23.702271,78.697113 24.23426,-4.70139 23.263804,-71.799034 21.897105,-80.237523 -2.91774,-2.4306 -4.353091,43.268013 -13.200966,2.44752 12.448008,-13.30598 36.616154,-15.98984 53.085144,-8.70681 3.22756,1.42732 5.04235,5.5171 5.85352,9.0449 2.89654,12.597119 11.15573,70.793643 -20.37946,82.282373 z M 53.172554,116.70468 c -1.799707,-7.34528 -2.116721,-19.176298 0.147549,-36.636734 -1.44958,16.297326 -1.314835,28.247234 -0.147549,36.636734 z m 16.958843,28.63467 c -0.903814,0.17533 -0.0026,-0.32991 -0.977883,-0.33445 0.969699,-0.0272 0.07098,0.48399 0.977883,0.33445 z m 72.462393,2.1157 c 33.17987,-24.16191 7.99297,-95.757503 7.99297,-95.757503 l 20.02279,6.11406 -14.0586,7.66401 c 0,0 20.02314,68.193583 -13.95716,81.979433 z"
       sodipodi:nodetypes="cccccsccccsscccccccccccc" />
    <path
       style="display:inline;stroke:#000000;stroke-width:1.2244px;stroke-dasharray:none;stroke-opacity:1;fill:#ffccaa;stroke-linecap:butt;stroke-linejoin:miter"
       d="m 103.713,151.86097 c -14.921497,20.37033 -35.92181,8.78275 -33.022867,19.47027 5.243439,19.33096 30.397327,-0.5253 33.022867,-19.47027 z m 14.77916,0 c 14.9215,20.37033 35.92181,8.78275 33.02287,19.47027 -5.24344,19.33096 -30.39733,-0.5253 -33.02287,-19.47027 z"
       id="path14"
       sodipodi:nodetypes="ccc"
       inkscape:path-effect="#path-effect14"
       inkscape:original-d="m 103.713,151.86097 c -14.921497,20.37033 -35.92181,8.78275 -33.022867,19.47027 5.243439,19.33096 30.397327,-0.5253 33.022867,-19.47027 z" />
    <g
       id="g30">
      <ellipse
         style="display:inline;stroke:#000000;stroke-width:2.2;stroke-dasharray:none;stroke-opacity:1;opacity:1;fill:#ffffff;stroke-linecap:round;stroke-linejoin:round;paint-order:markers stroke fill"
         id="path15"
         transform="scale(1,-1)"
         cx="111.25702"
         cy="-182.05402"
         rx="12.952934"
         ry="13.26236" />
      <path
         style="fill:#efefef;stroke:#e1e1e1;stroke-width:1.2244px;stroke-linecap:butt;stroke-linejoin:miter;stroke-opacity:1;fill-opacity:1"
         d="m 112.65229,192.11125 c 0,0 -13.35171,-7.56605 -10.45571,-12.15006 3.02436,-4.7872 11.64959,4.92578 14.88602,0.27682 -0.67058,-4.69556 -7.69106,-8.50302 -7.69106,-8.50302 0,0 14.52914,9.16438 11.49552,14.10697 -2.54874,4.15258 -12.16483,-6.91435 -14.88602,-2.87071 -2.11682,3.14555 6.65125,9.14 6.65125,9.14 z"
         id="path16"
         sodipodi:nodetypes="ccccccc" />
    </g>
    <path
       style="baseline-shift:baseline;display:inline;overflow:visible;opacity:1;fill:#ffaaaa;stroke:#000000;stroke-width:2.69367;stroke-dasharray:none;stroke-opacity:1;paint-order:markers stroke fill;enable-background:accumulate;stop-color:#000000;stop-opacity:1"
       d="m 140.29297,67.900391 c -9.51815,0.09439 -19.11524,0.966618 -27.80664,1.287109 -23.657608,0.872362 -53.083404,-0.870396 -70.406252,16.496094 -7.34783,7.366343 -8.307162,17.454776 -8.333984,27.865236 -0.02682,10.41046 0.828559,21.31715 -2.257813,30.82226 l -0.164062,0.50586 0.210937,0.48633 c 17.102041,39.74228 50.431553,59.08445 82.916014,58.69141 32.48446,-0.39305 63.38511,-20.82065 76.98947,-59.34273 l -1.20074,-2.18089 0.22366,-1.9812 c -9.88101,-16.33356 -11.27726,-24.06755 -11.45965,-33.19831 -0.1824,-9.130758 2.46961,-16.575946 4.09765,-25.791013 l 0.12891,-0.728516 -0.52735,-0.519531 c -8.62502,-8.488933 -20.47979,-11.436456 -32.95507,-12.197266 -3.11882,-0.190202 -6.28237,-0.246306 -9.45508,-0.214843 z m 0.0312,2.820312 c 3.11988,-0.0323 6.21642,0.01996 9.25195,0.205078 11.86868,0.723815 22.6949,3.490012 30.58985,10.908203 -1.59751,8.611724 -4.16655,16.161337 -3.97852,25.574216 0.1911,9.56679 3.36736,20.97604 13.08789,37.21289 -13.36094,37.9886 -43.67288,56.94727 -74.85742,57.32458 -31.239623,0.37799 -62.360756,-16.63473 -80.115236,-57.30895 3.100605,-10.07857 2.233891,-21.03742 2.259766,-31.08008 0.02638,-10.24055 0.985053,-19.343613 7.509766,-25.884765 C 60.184409,71.519139 88.725615,72.879982 112.58984,72 c 8.80098,-0.324532 18.37473,-1.182383 27.73438,-1.279297 z"
       id="path11"
       sodipodi:nodetypes="sssscccscccscccsscscscscssscc" />
    <g
       id="path5"
       style="display:inline;stroke:#000000;stroke-width:4.89758;stroke-dasharray:none;stroke-opacity:1;opacity:1"
       transform="translate(3.9855183,0.84653658)">
      <path
         id="path17"
         style="baseline-shift:baseline;display:inline;overflow:visible;vector-effect:none;fill:url(#linearGradient28);fill-opacity:1;stroke:none;enable-background:accumulate;stop-color:#000000;stop-opacity:1"
         d="m 187.07404,142.00451 c -22.71759,-3.35618 -26.57306,-35.31537 -26.57306,-35.31537 l 7.0474,-57.664555 c 0,0 15.87024,6.883168 19.52566,13.966154 0.82843,54.574721 -0.74828,-0.114173 0,79.013771 z" />
      <path
         id="path27"
         style="baseline-shift:baseline;display:inline;overflow:visible;vector-effect:none;fill:url(#linearGradient30);fill-opacity:1;stroke:none;enable-background:accumulate;stop-color:#000000;stop-opacity:1"
         d="m 27.160088,142.00451 c 0.748272,-79.127944 -0.828434,-24.43905 0,-79.013771 3.65542,-7.082986 19.525663,-13.966154 19.525663,-13.966154 l 7.047397,57.664555 c 0,0 -3.855469,31.95919 -26.57306,35.31537 z" />
      <path
         id="path18"
         style="baseline-shift:baseline;display:inline;overflow:visible;fill:#ffaaaa;stroke:#000000;stroke-width:2.69367;stroke-dasharray:none;stroke-opacity:1;paint-order:markers stroke fill;enable-background:accumulate;stop-color:#000000;stop-opacity:1"
         d="m 27.77739,141.23311 c 10.638305,-1.90237 16.955387,-10.27028 20.630571,-18.39694 3.737785,-8.26509 4.694581,-16.0745 4.705471,-16.1637 L 46.188541,49.969791 c -0.614212,0.271447 -3.586085,1.554883 -7.583038,3.909381 -4.347808,2.561178 -9.092847,6.033548 -10.832911,9.299659 -1.236387,1.017664 -1.150974,-0.287011 -1.07403,-0.943468 2.378505,-4.590394 6.940305,-6.788526 11.284826,-9.410915 4.460934,-2.627817 8.45976,-4.361744 8.45976,-4.361744 l 0.751818,-0.326179 7.155486,58.550235 -0.0096,0.0738 c 0,0 -0.971195,8.07338 -4.818363,16.58034 -3.847167,8.50696 -10.641733,17.5523 -22.273523,19.27072 -1.721225,0.32094 -1.312698,-1.63753 0.528424,-1.37851 z m 158.67935,0 c -10.63831,-1.90237 -16.95539,-10.27028 -20.63058,-18.39694 -3.73778,-8.26509 -4.69458,-16.0745 -4.70547,-16.1637 l 6.92489,-56.702679 c 0.61422,0.271447 3.58609,1.554883 7.58304,3.909381 4.34781,2.561178 9.09285,6.033548 10.83291,9.299659 1.23639,1.017664 1.15098,-0.287011 1.07403,-0.943468 -2.3785,-4.590394 -6.9403,-6.788526 -11.28482,-9.410915 -4.46094,-2.627817 -8.45976,-4.361744 -8.45976,-4.361744 l -0.75182,-0.326179 -7.15549,58.550235 0.01,0.0738 c 0,0 0.9712,8.07338 4.81837,16.58034 3.84716,8.50696 10.64173,17.5523 22.27352,19.27072 1.72122,0.32094 1.3127,-1.63753 -0.52842,-1.37851 z"
         sodipodi:nodetypes="csccsccsccccscc" />
      <path
         style="display:inline;fill:none;stroke:#000000;stroke-width:1.2244px;stroke-linecap:butt;stroke-linejoin:miter;stroke-opacity:1"
         d="M 27.134106,140.29168 V 63.680392 M 187.10002,140.29168 V 63.680392"
         id="path19" />
    </g>
    <path
       style="display:inline;stroke:#000000;stroke-width:1.2244px;stroke-dasharray:none;stroke-opacity:1;fill:#ffaaaa;stroke-linecap:butt;stroke-linejoin:miter"
       d="m 95.93608,85.606554 c 7.19062,-6.390421 25.96966,-6.620237 32.40915,-0.598592 1.61661,-5.935636 -9.70007,-9.609465 -15.90263,-9.577437 -6.47946,0.03346 -18.343945,4.01707 -16.50652,10.176029 z"
       id="path4"
       sodipodi:nodetypes="cccc" />
    <path
       style="display:inline;fill:#ffccaa;stroke:#000000;stroke-width:1.15691;stroke-linecap:round;stroke-linejoin:round;stroke-dasharray:none;stroke-opacity:1;paint-order:markers stroke fill"
       d="m 144.12359,36.443034 c -13.1046,1.255548 -23.94368,11.252957 -27.55949,25.419465 -0.62914,2.464909 -1.20267,6.470016 -1.20267,8.398552 V 71.5397 l -1.66071,0.0012 c -0.91339,9.99e-4 -2.13628,0.05839 -2.71754,0.127556 l -1.05681,0.125825 v -0.933536 c 0,-4.414571 -1.58124,-10.953522 -3.74222,-15.475279 -1.11454,-2.332159 -3.41144,-5.760617 -5.27105,-7.867871 C 91.570912,36.931415 76.230684,33.959364 62.983158,40.168977 51.01178,45.780364 42.371507,57.238979 40.15623,70.441707 c -0.408073,2.432057 -0.464934,7.895226 -0.105912,10.176029 1.197976,7.610528 4.689805,14.03744 10.016102,18.435212 9.340074,7.711832 21.863473,7.926442 32.427449,0.55572 2.310939,-1.6124 6.0483,-5.333979 7.750212,-7.717496 2.56883,-3.597619 4.463318,-7.929857 5.409806,-12.370856 0.584062,-2.740489 0.637854,-7.60019 0.113266,-10.230871 C 93.66153,58.730807 85.65034,51.577223 75.906843,51.55522 c -6.084782,-0.01377 -11.388207,2.391452 -16.003278,7.257748 -8.450797,8.910826 -8.724079,21.740856 -0.610331,28.653663 1.987404,1.693243 5.660881,3.027832 8.334151,3.027832 6.057084,0 12.166198,-4.581988 14.232663,-10.674845 0.653731,-1.927512 0.863107,-4.670585 0.498382,-6.529686 -0.55847,-2.846762 -2.528493,-5.496131 -4.941844,-6.646004 -1.049565,-0.500072 -1.445605,-0.57654 -3.023039,-0.583671 -1.651863,-0.0073 -1.935565,0.05047 -3.152077,0.643792 -2.528831,1.233375 -4.399562,3.871687 -4.388666,6.18939 0.01008,2.132828 1.762664,4.077979 2.819878,3.129619 0.435422,-0.390581 0.907779,-1.746746 1.100823,-3.160509 l 0.132609,-0.971167 1.076751,0.0885 c 4.358339,0.358253 4.018371,6.894961 -0.472286,9.080853 -1.579926,0.769044 -3.658467,0.78416 -5.266565,0.03828 -2.282533,-1.05868 -4.036782,-3.54363 -4.416154,-6.255594 -0.993323,-7.100838 5.530944,-14.290834 12.953713,-14.275499 7.992779,0.01658 13.963023,7.83202 12.802499,16.759437 -0.619752,4.767508 -2.740857,8.937936 -6.36542,12.515368 -6.670984,6.584262 -16.189584,7.89653 -23.502529,3.240122 C 53.378191,90.320743 50.377443,86.05722 48.90947,80.570171 48.319613,78.365372 48.159346,72.95551 48.608093,70.397092 50.691777,58.517494 60.515256,48.459537 71.981511,46.465773 c 2.207107,-0.383779 6.108304,-0.419203 8.152607,-0.07399 3.210239,0.54203 6.991431,2.089371 9.66236,3.954044 1.720199,1.200937 4.620772,4.004436 5.824917,5.629989 2.194993,2.963189 3.741739,6.210783 4.704035,9.876727 0.75646,2.881881 0.99058,5.068846 0.91295,8.528327 l -0.0685,3.05214 1.67137,-0.657969 c 2.1705,-0.85446 5.21689,-1.578524 7.80238,-1.854445 3.36689,-0.359313 7.60063,0.330411 11.4624,1.867366 1.36834,0.544577 1.70164,0.618595 1.6289,0.361703 -0.24972,-0.881876 -0.3233,-4.973995 -0.12589,-7.00127 0.69871,-7.175381 3.22312,-12.853228 7.82978,-17.610533 3.18091,-3.28492 6.6637,-5.323934 11.08318,-6.488679 1.6606,-0.437659 2.37271,-0.510385 5.14797,-0.525781 2.43874,-0.01353 3.63624,0.07192 4.93182,0.351622 13.41628,2.897033 23.55273,16.703204 22.33792,30.424959 -0.79403,8.96885 -6.09952,16.014017 -13.78269,18.302061 -1.58384,0.471656 -2.1535,0.539287 -4.52924,0.537702 -3.32182,-0.0024 -5.01897,-0.395384 -7.95131,-1.841987 -3.56635,-1.759374 -6.35296,-4.249285 -8.5858,-7.671624 -2.1851,-3.349198 -3.15563,-6.348762 -3.33338,-10.302208 -0.18117,-4.029901 0.67956,-7.194543 2.7526,-10.120503 2.41641,-3.410612 5.70091,-5.245991 9.46852,-5.291046 2.07089,-0.02475 3.46805,0.280115 5.33443,1.164026 5.08006,2.405898 8.35251,8.113964 7.54999,13.169303 -0.45004,2.834913 -1.94713,5.023487 -4.18244,6.114263 -2.54186,1.240347 -5.13168,0.749162 -7.05644,-1.338319 -2.06902,-2.243941 -2.22847,-5.936471 -0.31015,-7.182353 0.68973,-0.447959 1.84162,-0.716481 2.43898,-0.568567 0.39344,0.0974 0.45291,0.241825 0.45291,1.099577 0,1.328554 0.35913,2.659535 0.83207,3.083785 0.53038,0.475764 1.26085,0.197064 2.06271,-0.786989 0.54616,-0.670256 0.63086,-0.944032 0.69765,-2.254997 0.0687,-1.350618 0.0161,-1.612655 -0.55526,-2.76315 -0.72233,-1.454356 -2.27379,-2.980084 -3.7755,-3.712876 -0.80433,-0.392506 -1.28631,-0.475057 -2.7844,-0.476922 -1.57072,-0.0024 -1.96194,0.0707 -2.94134,0.546186 -1.2457,0.604784 -2.82891,2.141166 -3.66409,3.555697 -1.19658,2.026641 -1.629,5.310257 -1.05365,8.001097 0.66834,3.12573 1.95866,5.385786 4.53847,7.949337 1.55944,1.549596 2.22892,2.056385 3.62386,2.743122 2.20305,1.084571 3.67427,1.441776 5.93832,1.441776 3.26027,0 6.0693,-1.070151 8.4248,-3.209562 3.42764,-3.113211 5.11513,-6.880418 5.3103,-11.854949 0.0591,-1.509138 0.005,-3.219704 -0.12998,-4.090364 -1.38764,-8.960623 -8.4625,-16.973823 -16.82359,-19.054917 -2.46583,-0.613744 -4.48378,-0.765644 -6.64519,-0.500206 -8.79546,1.080146 -15.60749,8.164955 -17.33733,18.031576 -0.40637,2.317849 -0.2797,8.048516 0.22772,10.302866 0.96055,4.267413 3.03691,8.946823 5.48772,12.367394 1.65464,2.309377 5.22441,5.884627 7.42686,7.438234 3.41944,2.412074 7.60247,4.169814 11.54246,4.850194 2.74143,0.47341 7.05623,0.30639 9.66236,-0.37402 8.40465,-2.19429 15.28968,-8.923669 18.22858,-17.816503 1.24498,-3.76717 1.5885,-6.055336 1.58472,-10.555663 -0.005,-5.458731 -0.71659,-9.264117 -2.63191,-14.066854 -4.88809,-12.257099 -15.38621,-21.631475 -27.0504,-24.154848 -1.71731,-0.371515 -5.72107,-0.808686 -6.93947,-0.75772 -0.33215,0.0139 -1.3845,0.100081 -2.33856,0.191457 z"
       id="path6" />
    <path
       id="path3"
       style="display:inline;stroke:#000000;stroke-width:1.20358;stroke-dasharray:none;stroke-opacity:1;baseline-shift:baseline;overflow:visible;opacity:1;fill:#ffaaaa;fill-opacity:1;fill-rule:evenodd;enable-background:accumulate;stop-color:#000000;stop-opacity:1"
       d="M 67.011131,109.7528 C 49.635375,110.45213 35.823615,96.095081 35.237693,77.618031 34.538591,55.57184 51.945549,35.405201 72.45449,32.510609 c 18.731951,-2.643791 34.71951,9.188328 40.03711,26.699219 4.95815,-17.889005 20.63012,-30.063998 39.03516,-27.384767 19.90036,2.896911 36.79166,23.076007 36.11328,45.140626 -0.60649,19.726171 -15.81633,34.764313 -34.25,31.822273 -16.28212,-2.59866 -30.07723,-19.243155 -29.25586,-37.347663 0.7147,-15.753292 13.02374,-27.740748 27.85547,-25.046876 12.66121,2.299642 23.37055,15.422989 22.38281,29.570312 -0.82223,11.776679 -10.25106,20.729932 -21.48828,18.244141 -9.03571,-1.99879 -16.68606,-11.642382 -15.47266,-21.83789 0.92758,-7.793934 7.54145,-13.760605 15.20117,-11.361329 2.70271,0.846577 5.14437,2.782872 6.79298,5.326173 1.6486,2.5433 2.47406,5.825301 1.63476,8.945312 -0.51671,1.920818 -1.7046,3.51914 -3.34375,4.460938 -1.63915,0.941797 -3.9948,1.07109 -6.00391,-0.46875 -1.31158,-1.005234 -1.80539,-2.175876 -2.07031,-3.660156 -0.13246,-0.74214 -0.17316,-1.672558 0.34766,-2.548829 0.52081,-0.876269 1.61485,-1.28927 2.54296,-1.21289 0,0 -0.0769,6.121809 3.14649,4.117186 0.74641,-0.464193 1.47934,-1.429808 1.70312,-2.261717 0.48528,-1.803972 0.0533,-3.562839 -0.99218,-5.175781 -1.04553,-1.612944 -2.73223,-2.947664 -4.43945,-3.482423 -5.28378,-1.655051 -10.05662,2.663776 -10.72657,8.292969 -0.91586,7.695411 5.03783,15.194756 12.05078,16.746094 8.95837,1.981686 16.63683,-5.313335 17.30469,-14.878906 0.81694,-11.700998 -8.18975,-22.734485 -18.80274,-24.66211 -12.59611,-2.287817 -23.19158,8.027056 -23.80468,21.541016 -0.71164,15.685693 11.37611,30.267949 25.59375,32.537109 16.22207,2.58907 29.7344,-10.767695 30.27148,-28.236328 0.60452,-19.662329 -14.57157,-37.797794 -32.39648,-40.392578 -19.84292,-2.888546 -36.27822,13.518589 -36.72852,34.945312 -1.39138,0.02417 -2.76428,-0.09187 -4.15346,0.140834 C 110.07449,49.636994 93.047349,33.727032 72.563865,36.618031 54.162722,39.215133 38.49446,57.365007 39.118553,77.045765 39.673046,94.531715 53.623411,107.90317 70.372459,105.31139 85.052949,103.0397 97.533091,88.441419 96.798241,72.737171 96.165076,59.206033 85.225602,48.875926 72.216209,51.166859 61.253706,53.097337 51.950381,64.148266 52.794334,75.868031 c 0.690048,9.582533 8.625061,16.889849 17.882813,14.904296 7.249205,-1.55477 13.402053,-9.068614 12.455077,-16.783202 -0.69303,-5.645801 -5.631092,-9.97912 -11.099609,-8.31836 -1.768719,0.537152 -3.514517,1.876013 -4.597656,3.496094 -1.083134,1.620079 -1.532616,3.392963 -1.029297,5.207031 0.233133,0.840262 0.967764,1.855362 1.771484,2.277344 2.911471,1.528629 3.259766,-4.115235 3.259766,-4.115235 0.950466,-0.07583 2.066155,0.33415 2.597657,1.201173 0.531501,0.867023 0.49117,1.790189 0.355468,2.527343 -0.271402,1.474309 -0.781138,2.641009 -2.121094,3.636719 -2.061924,1.532197 -4.480369,1.402775 -6.164063,0.464844 -1.683694,-0.937932 -2.904925,-2.530895 -3.435546,-4.44336 -0.862855,-3.109915 -0.01201,-6.379852 1.683594,-8.916016 1.695606,-2.536163 4.208571,-4.468315 6.988281,-5.312499 7.88149,-2.393567 14.687901,3.560563 15.642578,11.337891 1.249159,10.176329 -6.630118,19.805421 -15.933594,21.80078 C 59.478086,97.314798 49.768117,88.371888 48.921287,76.612172 47.903876,62.483613 58.937229,49.377711 71.979881,47.080922 c 15.27985,-2.690756 27.960923,9.283417 28.697269,25.019531 0.84629,18.085953 -13.369353,34.712467 -30.146488,37.308597 -1.187194,0.1837 -2.361147,0.29713 -3.519531,0.34375 z"
       sodipodi:nodetypes="ssscssssssssssssssscssssssssssssccsssssssssssscsssssssssssssss" />
    <ellipse
       style="fill:#ffaaaa;fill-opacity:1;stroke:#000000;stroke-width:2.69367;stroke-linecap:round;stroke-linejoin:round;stroke-dasharray:none;stroke-opacity:1;paint-order:markers stroke fill"
       id="path21"
       cx="233.81174"
       cy="-96.836288"
       transform="scale(1,-1)"
       rx="15.372715"
       ry="15.801961" />
    <g
       id="g31"
       transform="matrix(0.59485284,0,0,0.59589228,-5.1498342,51.277381)"
       style="stroke-width:8.22608">
      <ellipse
         style="display:inline;opacity:1;fill:#ffffff;stroke:#000000;stroke-width:3.69517;stroke-linecap:round;stroke-linejoin:round;stroke-dasharray:none;stroke-opacity:1;paint-order:markers stroke fill"
         id="ellipse30"
         transform="scale(1,-1)"
         cx="111.25702"
         cy="-182.05402"
         rx="12.952934"
         ry="13.26236" />
      <path
         style="fill:#efefef;fill-opacity:1;stroke:#e1e1e1;stroke-width:2.05653px;stroke-linecap:butt;stroke-linejoin:miter;stroke-opacity:1"
         d="m 112.65229,192.11125 c 0,0 -13.35171,-7.56605 -10.45571,-12.15006 3.02436,-4.7872 11.64959,4.92578 14.88602,0.27682 -0.67058,-4.69556 -7.69106,-8.50302 -7.69106,-8.50302 0,0 14.52914,9.16438 11.49552,14.10697 -2.54874,4.15258 -12.16483,-6.91435 -14.88602,-2.87071 -2.11682,3.14555 6.65125,9.14 6.65125,9.14 z"
         id="path30"
         sodipodi:nodetypes="ccccccc" />
    </g>
    <g
       id="g32"
       transform="matrix(0.59485284,0,0,0.59589228,95.057495,50.713025)"
       style="stroke-width:8.22608">
      <ellipse
         style="display:inline;opacity:1;fill:#ffffff;stroke:#000000;stroke-width:3.69517;stroke-linecap:round;stroke-linejoin:round;stroke-dasharray:none;stroke-opacity:1;paint-order:markers stroke fill"
         id="ellipse32"
         transform="scale(1,-1)"
         cx="111.25702"
         cy="-182.05402"
         rx="12.952934"
         ry="13.26236" />
      <path
         style="fill:#efefef;fill-opacity:1;stroke:#e1e1e1;stroke-width:2.05653px;stroke-linecap:butt;stroke-linejoin:miter;stroke-opacity:1"
         d="m 112.65229,192.11125 c 0,0 -13.35171,-7.56605 -10.45571,-12.15006 3.02436,-4.7872 11.64959,4.92578 14.88602,0.27682 -0.67058,-4.69556 -7.69106,-8.50302 -7.69106,-8.50302 0,0 14.52914,9.16438 11.49552,14.10697 -2.54874,4.15258 -12.16483,-6.91435 -14.88602,-2.87071 -2.11682,3.14555 6.65125,9.14 6.65125,9.14 z"
         id="path32"
         sodipodi:nodetypes="ccccccc" />
    </g>
  </g>
</svg>
