<svg xmlns="http://www.w3.org/2000/svg" xmlns:xlink="http://www.w3.org/1999/xlink" cursor="default" viewBox="0 0 256 256">
    <defs>
        <linearGradient id="linearGradient27">
            <stop offset="0" stop-color="#fca"/>
            <stop offset="1" stop-color="#ffb380"/>
        </linearGradient>
        <linearGradient id="linearGradient924" x1="18.12" x2="21.466" y1="241.29" y2="228.73" gradientTransform="scale(1 -1) rotate(-89.503 -.246 -.024)" gradientUnits="userSpaceOnUse">
            <stop offset="0" stop-color="#917c6f"/>
            <stop offset="1" stop-color="#ac9d93"/>
        </linearGradient>
        <linearGradient id="innoGrad4">
            <stop offset="0" stop-color="#ffb380"/>
            <stop offset="1" stop-color="#fca"/>
        </linearGradient>
        <linearGradient id="linearGradient23" x1="144.331" x2="143.552" y1="113.558" y2="61.952" gradientTransform="matrix(1.18039 0 0 -1.219 -54.39 216.505)" gradientUnits="userSpaceOnUse" xlink:href="#linearGradient21"/>
        <linearGradient id="linearGradient21">
            <stop offset="0" stop-color="#ffd42a"/>
            <stop offset=".509" stop-color="#ffe680"/>
            <stop offset="1" stop-color="#ffd42a"/>
        </linearGradient>
        <linearGradient id="linearGradient28" x1="170.749" x2="187.322" y1="96.079" y2="95.515" gradientUnits="userSpaceOnUse" xlink:href="#linearGradient27"/>
        <linearGradient id="linearGradient30" x1="42.854" x2="26.404" y1="96.079" y2="96.079" gradientUnits="userSpaceOnUse" xlink:href="#linearGradient27"/>
    </defs>
    <g stroke="#000" stroke-width="4.898" transform="matrix(.81313 0 0 -.82034 37.659 248.421)">
        <path fill="#faa" stroke-width="1.224" d="M-2.473 93.45l222.05-.564-.569 10.158L-4.18 97.401z"/>
        <path fill="#ff8080" stroke-linecap="round" stroke-linejoin="round" stroke-width="2.2" d="M126.76 181.556c-2.31-.188-5.492-.896-7.077-1.575-.81-.348-1.004-.567-1.255-1.423-.497-1.697-2.203-5.112-3.639-7.284-1.687-2.555-6.04-6.972-8.423-8.546-3.392-2.242-7.213-3.83-10.88-4.522-1.767-.334-6.812-.356-8.394-.037-1.075.217-1.105.207-1.236-.385-1.204-5.447-3-10.654-4.88-14.149-3.214-5.976-7.752-10.501-12.561-12.526-.834-.352-1.55-.805-1.593-1.008-.11-.53 3.49-7.79 5.684-11.466 13.75-23.038 35.02-35.46 59.323-34.646 6.308.211 11.517 1.093 16.85 2.852 15.588 5.144 27.835 15.577 36.367 30.984 2.286 4.127 5.462 11.594 5.148 12.103-.085.137-.862.506-1.726.82-2.777 1.008-5.156 2.609-7.8 5.248-3.36 3.354-5.69 7.026-7.721 12.169-.865 2.189-2.261 6.935-2.685 9.127l-.247 1.274-2.931-.083c-1.627-.046-3.711.042-4.683.198-8.637 1.383-16.758 7.694-21.055 16.36-.62 1.251-1.308 2.833-1.53 3.515-.36 1.111-.51 1.288-1.448 1.703-2.446 1.082-7.422 1.638-11.608 1.297z" paint-order="markers stroke fill" transform="matrix(1.22981 0 0 -1.219 -46.313 302.826)"/>
        <path fill="url(#linearGradient23)" stroke-width="1.224" d="M110.43 150.81c-25.426.036-50.213-4.67-58.716-14.125-13.422-14.926-10.862-31.485 9.826-85.123 2.25-5.832 10.204-10.71 20.7-14.06l30.868 35.63 28.094-37.027c8.332 2.71 14.855 7.073 17.849 13.402 16.2 34.247 28.346 74.548 13.922 86.97-11.053 9.52-37.117 14.298-62.543 14.333z"/>
        <path fill="#ffd42a" stroke="none" d="M117.387 150.17c24.922-10.557 19.715-74.016 17.843-83.947-4.473-5.08-12.203-14.606-19.926-.855 1.241 18.467 10.1 80.337-19.143 83.695 19.101-2.915 18.344-51.239 16.746-84.516-3.87-4.204-11.627-2.19-16.853-.062-.946.385-1.764 1.22-2.22 2.157 2.753 10.09 4.921 73.977-23.703 78.697 24.235-4.701 23.264-71.799 21.898-80.237-2.918-2.43-4.354 43.268-13.201 2.447 12.448-13.306 36.616-15.99 53.085-8.706 3.227 1.427 5.042 5.517 5.853 9.044 2.897 12.598 11.156 70.794-20.38 82.283zm-64.214-33.465c-1.8-7.346-2.117-19.177.147-36.637-1.45 16.297-1.315 28.247-.147 36.637zm16.958 28.634c-.903.176-.002-.33-.977-.334.97-.027.07.484.977.334zm72.463 2.116c33.18-24.162 7.993-95.757 7.993-95.757l20.023 6.114-14.06 7.664s20.024 68.193-13.956 81.979z"/>
        <ellipse cx="111.257" cy="-182.054" fill="#fff" stroke-linecap="round" stroke-linejoin="round" stroke-width="2.2" paint-order="markers stroke fill" rx="12.953" ry="13.262" transform="scale(1 -1)"/>
        <path fill="#fca" stroke-width="1.224" d="M103.713 151.861c-14.921 20.37-35.922 8.783-33.023 19.47 5.244 19.331 30.397-.525 33.023-19.47zm14.78 0c14.92 20.37 35.921 8.783 33.022 19.47-5.243 19.331-30.397-.525-33.023-19.47z"/>
        <path fill="#efefef" stroke="#e1e1e1" stroke-width="1.224" d="M112.652 192.111s-13.351-7.566-10.455-12.15c3.024-4.787 11.65 4.926 14.886.277-.671-4.696-7.691-8.503-7.691-8.503s14.529 9.164 11.495 14.107c-2.549 4.153-12.165-6.914-14.886-2.87-2.117 3.145 6.651 9.14 6.651 9.14z"/>
        <path fill="#faa" stroke-width="2.694" d="M140.293 67.9c-9.518.095-19.115.967-27.807 1.287-23.657.873-53.083-.87-70.406 16.497-7.348 7.366-8.307 17.454-8.334 27.865-.027 10.41.829 21.317-2.258 30.822l-.164.506.211.486c17.102 39.743 50.432 59.085 82.916 58.692 32.485-.393 63.385-20.821 76.99-59.343l-1.201-2.18.224-1.982c-9.881-16.334-11.278-24.068-11.46-33.198-.182-9.131 2.47-16.576 4.098-25.791l.128-.729-.527-.52c-8.625-8.488-20.48-11.436-32.955-12.197a133.84 133.84 0 00-9.455-.215zm.031 2.82c3.12-.032 6.217.02 9.252.206 11.869.724 22.695 3.49 30.59 10.908-1.598 8.612-4.167 16.161-3.979 25.574.192 9.567 3.368 20.976 13.088 37.213-13.36 37.989-43.673 56.947-74.857 57.325-31.24.378-62.36-16.635-80.115-57.31 3.1-10.078 2.234-21.037 2.26-31.08.026-10.24.985-19.343 7.51-25.884C60.183 71.519 88.725 72.88 112.59 72c8.8-.325 18.375-1.182 27.734-1.28z" overflow="visible" paint-order="markers stroke fill"/>
        <g>
            <path fill="url(#linearGradient28)" stroke="none" d="M187.074 142.005c-22.718-3.357-26.573-35.316-26.573-35.316l7.047-57.664s15.87 6.883 19.526 13.966c.828 54.574-.748-.114 0 79.014z" overflow="visible" transform="translate(3.986 .847)"/>
            <path fill="url(#linearGradient30)" stroke="none" d="M27.16 142.005c.748-79.128-.828-24.44 0-79.014 3.656-7.083 19.526-13.966 19.526-13.966l7.047 57.664s-3.855 31.96-26.573 35.316z" overflow="visible" transform="translate(3.986 .847)"/>
            <path fill="#faa" stroke-width="2.694" d="M31.763 142.08c10.638-1.903 16.955-10.27 20.63-18.397 3.738-8.265 4.695-16.075 4.706-16.164l-6.925-56.703c-.614.272-3.586 1.555-7.583 3.91-4.348 2.56-9.093 6.033-10.833 9.3-1.236 1.017-1.15-.288-1.074-.944 2.379-4.59 6.94-6.789 11.285-9.411 4.46-2.628 8.46-4.362 8.46-4.362l.751-.326 7.156 58.55-.01.074s-.97 8.073-4.818 16.58c-3.847 8.507-10.642 17.553-22.274 19.271-1.72.321-1.312-1.637.529-1.378zm158.68 0c-10.64-1.903-16.956-10.27-20.631-18.397-3.738-8.265-4.695-16.075-4.706-16.164l6.925-56.703c.614.272 3.586 1.555 7.583 3.91 4.348 2.56 9.093 6.033 10.833 9.3 1.236 1.017 1.151-.288 1.074-.944-2.378-4.59-6.94-6.789-11.285-9.411-4.46-2.628-8.46-4.362-8.46-4.362l-.751-.326-7.156 58.55.01.074s.971 8.073 4.819 16.58c3.847 8.507 10.641 17.553 22.273 19.271 1.721.321 1.313-1.637-.528-1.378z" overflow="visible" paint-order="markers stroke fill"/>
            <path fill="none" stroke-width="1.224" d="M31.12 141.138V64.527m159.966 76.611V64.527"/>
        </g>
        <path fill="#faa" stroke-width="1.224" d="M95.936 85.607c7.19-6.39 25.97-6.62 32.41-.599 1.616-5.936-9.7-9.61-15.903-9.577-6.48.033-18.344 4.017-16.507 10.176z"/>
        <path fill="#fca" stroke-linecap="round" stroke-linejoin="round" stroke-width="1.157" d="M144.124 36.443c-13.105 1.256-23.944 11.253-27.56 25.42-.629 2.464-1.203 6.47-1.203 8.398v1.279h-1.66c-.914.002-2.137.06-2.718.128l-1.057.126v-.933c0-4.415-1.58-10.954-3.742-15.476-1.114-2.332-3.411-5.76-5.27-7.867-9.343-10.587-24.683-13.559-37.93-7.349-11.972 5.611-20.612 17.07-22.828 30.273-.408 2.432-.465 7.895-.106 10.176 1.198 7.61 4.69 14.037 10.016 18.435 9.34 7.712 21.864 7.926 32.428.556 2.31-1.613 6.048-5.334 7.75-7.718 2.569-3.597 4.463-7.93 5.41-12.37.584-2.741.638-7.6.113-10.232-2.105-10.558-10.117-17.712-19.86-17.734-6.085-.014-11.388 2.392-16.003 7.258-8.451 8.91-8.725 21.74-.61 28.654 1.987 1.693 5.66 3.027 8.333 3.027 6.057 0 12.167-4.582 14.233-10.674.654-1.928.863-4.671.498-6.53-.558-2.847-2.528-5.496-4.941-6.646-1.05-.5-1.446-.577-3.023-.584-1.652-.007-1.936.05-3.153.644-2.528 1.233-4.4 3.872-4.388 6.19.01 2.132 1.762 4.077 2.82 3.13.435-.392.907-1.748 1.1-3.161l.133-.972 1.077.089c4.358.358 4.018 6.895-.472 9.08-1.58.77-3.659.785-5.267.039-2.283-1.059-4.037-3.544-4.416-6.256-.993-7.1 5.53-14.29 12.954-14.275 7.992.017 13.963 7.832 12.802 16.76-.62 4.767-2.74 8.937-6.365 12.515-6.671 6.584-16.19 7.896-23.503 3.24-4.338-2.762-7.339-7.026-8.807-12.513-.59-2.205-.75-7.614-.3-10.173 2.083-11.88 11.906-21.937 23.373-23.931 2.207-.384 6.108-.42 8.152-.074 3.21.542 6.992 2.09 9.662 3.954 1.72 1.2 4.621 4.004 5.825 5.63 2.195 2.963 3.742 6.21 4.704 9.877.757 2.881.991 5.068.913 8.528l-.068 3.052 1.671-.658c2.17-.854 5.217-1.578 7.803-1.854 3.367-.36 7.6.33 11.462 1.867 1.368.545 1.702.619 1.629.362-.25-.882-.323-4.974-.126-7.002.699-7.175 3.223-12.853 7.83-17.61 3.18-3.285 6.664-5.324 11.083-6.489 1.66-.437 2.373-.51 5.148-.526 2.439-.013 3.636.072 4.932.352 13.416 2.897 23.553 16.703 22.338 30.425-.794 8.969-6.1 16.014-13.783 18.302-1.584.472-2.153.54-4.53.538-3.321-.003-5.018-.396-7.95-1.842-3.567-1.76-6.353-4.25-8.586-7.672-2.185-3.35-3.156-6.349-3.334-10.302-.18-4.03.68-7.195 2.753-10.12 2.416-3.411 5.7-5.247 9.468-5.292 2.071-.024 3.468.28 5.335 1.164 5.08 2.406 8.352 8.114 7.55 13.17-.45 2.835-1.947 5.023-4.183 6.114-2.541 1.24-5.131.75-7.056-1.338-2.07-2.244-2.229-5.937-.31-7.183.69-.448 1.841-.716 2.439-.568.393.097.453.242.453 1.1 0 1.328.359 2.659.832 3.083.53.476 1.26.197 2.062-.787.547-.67.631-.944.698-2.255.069-1.35.016-1.613-.555-2.763-.722-1.454-2.274-2.98-3.776-3.713-.804-.392-1.286-.475-2.784-.477-1.57-.002-1.962.07-2.941.546-1.246.605-2.83 2.142-3.664 3.556-1.197 2.027-1.63 5.31-1.054 8.001.668 3.126 1.959 5.386 4.538 7.95 1.56 1.55 2.23 2.056 3.624 2.743 2.203 1.084 3.674 1.441 5.939 1.441 3.26 0 6.069-1.07 8.424-3.21 3.428-3.112 5.115-6.88 5.31-11.854.06-1.51.006-3.22-.13-4.09-1.387-8.961-8.462-16.974-16.823-19.055-2.466-.614-4.484-.766-6.645-.5-8.796 1.08-15.608 8.164-17.337 18.031-.407 2.318-.28 8.048.227 10.303.96 4.267 3.037 8.947 5.488 12.367 1.655 2.31 5.224 5.885 7.427 7.438 3.42 2.413 7.602 4.17 11.542 4.85 2.742.474 7.057.307 9.663-.373 8.404-2.195 15.29-8.924 18.228-17.817 1.245-3.767 1.589-6.055 1.585-10.556-.005-5.458-.717-9.264-2.632-14.066-4.888-12.257-15.386-21.632-27.05-24.155-1.718-.372-5.721-.809-6.94-.758-.332.014-1.384.1-2.338.191z" paint-order="markers stroke fill"/>
        <path fill="#faa" fill-rule="evenodd" stroke-width="1.204" d="M67.011 109.753c-17.376.7-31.187-13.658-31.773-32.135-.7-22.046 16.708-42.213 37.216-45.107 18.732-2.644 34.72 9.188 40.038 26.699 4.958-17.89 20.63-30.064 39.035-27.385 19.9 2.897 36.791 23.076 36.113 45.14-.606 19.727-15.816 34.765-34.25 31.823-16.282-2.599-30.077-19.243-29.256-37.348.715-15.753 13.024-27.74 27.856-25.047 12.66 2.3 23.37 15.423 22.382 29.57-.822 11.777-10.25 20.73-21.488 18.245-9.036-1.999-16.686-11.643-15.472-21.838.927-7.794 7.541-13.76 15.2-11.361 2.703.846 5.145 2.783 6.794 5.326 1.648 2.543 2.474 5.825 1.634 8.945-.516 1.921-1.704 3.52-3.343 4.461-1.64.942-3.995 1.071-6.004-.469-1.312-1.005-1.806-2.176-2.07-3.66-.133-.742-.174-1.672.347-2.549.52-.876 1.615-1.289 2.543-1.213 0 0-.077 6.122 3.147 4.118.746-.465 1.479-1.43 1.703-2.262.485-1.804.053-3.563-.992-5.176-1.046-1.613-2.733-2.948-4.44-3.482-5.284-1.655-10.057 2.663-10.727 8.293-.915 7.695 5.038 15.194 12.051 16.746 8.959 1.981 16.637-5.314 17.305-14.88.817-11.7-8.19-22.734-18.803-24.661-12.596-2.288-23.191 8.027-23.804 21.54-.712 15.686 11.376 30.269 25.593 32.538 16.222 2.589 29.735-10.768 30.272-28.236.604-19.663-14.572-37.798-32.397-40.393-19.843-2.889-36.278 13.519-36.728 34.945-1.392.024-2.765-.092-4.154.141-.465-21.444-17.492-37.354-37.975-34.463-18.401 2.597-34.07 20.747-33.445 40.428.554 17.486 14.504 30.857 31.253 28.265 14.68-2.271 27.161-16.87 26.426-32.574-.633-13.531-11.572-23.861-24.582-21.57-10.962 1.93-20.266 12.981-19.422 24.701.69 9.583 8.625 16.89 17.883 14.904 7.25-1.554 13.402-9.068 12.455-16.783-.693-5.646-5.63-9.979-11.1-8.318-1.768.537-3.514 1.876-4.597 3.496-1.083 1.62-1.533 3.393-1.03 5.207.234.84.968 1.855 1.772 2.277 2.912 1.529 3.26-4.115 3.26-4.115.95-.076 2.066.334 2.598 1.201.531.867.49 1.79.355 2.528-.271 1.474-.781 2.64-2.121 3.636-2.062 1.532-4.48 1.403-6.164.465-1.684-.938-2.905-2.53-3.436-4.443-.863-3.11-.012-6.38 1.684-8.916 1.696-2.536 4.208-4.469 6.988-5.313 7.882-2.393 14.688 3.56 15.643 11.338 1.249 10.176-6.63 19.806-15.934 21.8-11.572 2.483-21.282-6.46-22.129-18.22-1.017-14.128 10.016-27.234 23.059-29.531 15.28-2.69 27.96 9.283 28.697 25.02.846 18.085-13.37 34.712-30.146 37.308a31.216 31.216 0 01-3.52.344z" overflow="visible"/>
        <ellipse cx="233.812" cy="-96.836" fill="#faa" stroke-linecap="round" stroke-linejoin="round" stroke-width="2.694" paint-order="markers stroke fill" rx="15.373" ry="15.802" transform="scale(1 -1)"/>
    </g>
</svg>
