<svg xmlns="http://www.w3.org/2000/svg" xmlns:xlink="http://www.w3.org/1999/xlink" cursor="default" viewBox="0 0 256 256">
    <defs>
        <linearGradient id="linearGradient110">
            <stop offset="0" stop-color="#faa"/>
            <stop offset="1" stop-color="#fff"/>
        </linearGradient>
        <linearGradient id="linearGradient108">
            <stop offset="0" stop-color="#faa"/>
            <stop offset="1" stop-color="#fff"/>
        </linearGradient>
        <linearGradient id="linearGradient106">
            <stop offset="0" stop-color="#faa"/>
            <stop offset="1" stop-color="#fff"/>
        </linearGradient>
        <linearGradient id="linearGradient119">
            <stop offset="0" stop-color="#faa"/>
            <stop offset="1" stop-color="#ffd5d5"/>
        </linearGradient>
        <linearGradient id="linearGradient19">
            <stop offset="0" stop-color="#cbdde2"/>
            <stop offset="1" stop-color="#fff"/>
        </linearGradient>
        <linearGradient id="linearGradient924" x1="18.12" x2="21.466" y1="241.29" y2="228.73" gradientTransform="scale(1 -1) rotate(-89.503 -.246 -.024)" gradientUnits="userSpaceOnUse">
            <stop offset="0" stop-color="#917c6f"/>
            <stop offset="1" stop-color="#ac9d93"/>
        </linearGradient>
        <linearGradient id="innoGrad4">
            <stop offset="0" stop-color="#ffb380"/>
            <stop offset="1" stop-color="#fca"/>
        </linearGradient>
        <linearGradient id="linearGradient20" x1="183.652" x2="192.818" y1="63.182" y2="48.45" gradientUnits="userSpaceOnUse" xlink:href="#linearGradient19"/>
        <linearGradient id="linearGradient120" x1="163.45" x2="170.204" y1="140.096" y2="140.096" gradientUnits="userSpaceOnUse" xlink:href="#linearGradient119"/>
        <linearGradient id="linearGradient85" x1="168.921" x2="170.885" y1="119.161" y2="183.98" gradientUnits="userSpaceOnUse" xlink:href="#linearGradient106"/>
        <linearGradient id="linearGradient91" x1="163.45" x2="170.204" y1="140.096" y2="140.096" gradientUnits="userSpaceOnUse" xlink:href="#linearGradient119"/>
        <linearGradient id="linearGradient92" x1="168.921" x2="170.885" y1="119.161" y2="183.98" gradientUnits="userSpaceOnUse" xlink:href="#linearGradient108"/>
        <linearGradient id="linearGradient93" x1="163.45" x2="170.204" y1="140.096" y2="140.096" gradientUnits="userSpaceOnUse" xlink:href="#linearGradient119"/>
        <linearGradient id="linearGradient94" x1="163.45" x2="170.204" y1="140.096" y2="140.096" gradientUnits="userSpaceOnUse" xlink:href="#linearGradient119"/>
        <linearGradient id="linearGradient95" x1="168.921" x2="170.885" y1="119.161" y2="183.98" gradientUnits="userSpaceOnUse" xlink:href="#linearGradient110"/>
        <linearGradient id="linearGradient96" x1="163.45" x2="170.204" y1="140.096" y2="140.096" gradientUnits="userSpaceOnUse" xlink:href="#linearGradient119"/>
    </defs>
    <g fill="url(#linearGradient120)" transform="translate(47.795 18.987)">
        <path stroke="#000" d="M168.102 76.44v125.708"/>
        <path fill="url(#linearGradient85)" d="M167.388 62.368c-.304.38-1.74 2.148-3.693 4.963-2.105 3.033-4.398 6.765-5.36 9.582 1.691 3.44 5.444 4.731 9.278 4.469 3.824-.262 7.56-2.125 9.04-4.662-.403-2.37-2.728-6.103-5.038-9.188-2.155-2.876-3.89-4.79-4.227-5.164zm3.576 19.438a15.94 15.94 0 01-3.283.574c-1.074.073-2.158.03-3.209-.14-.146.207-.296.421-.449.642-2.105 3.033-4.4 6.763-5.361 9.58 1.69 3.44 5.443 4.733 9.277 4.47 3.824-.261 7.562-2.125 9.043-4.661-.403-2.37-2.73-6.102-5.041-9.188a80.61 80.61 0 00-.977-1.277zm.432 15.517a15.94 15.94 0 01-3.389.606c-1.108.076-2.228.03-3.31-.156-.113.16-.229.325-.346.494-2.105 3.033-4.4 6.765-5.361 9.582 1.69 3.439 5.444 4.73 9.277 4.468 3.824-.261 7.56-2.125 9.041-4.662-.403-2.37-2.729-6.102-5.039-9.187-.3-.4-.592-.783-.873-1.145zm-.486 15.604a15.99 15.99 0 01-2.575.389c-1.404.096-2.829-.005-4.17-.336-.153.217-.31.442-.47.673-2.105 3.034-4.398 6.765-5.36 9.582 1.691 3.44 5.444 4.732 9.278 4.47 3.824-.263 7.56-2.126 9.04-4.663-.403-2.37-2.728-6.103-5.038-9.187a80.28 80.28 0 00-.705-.928zm-.754 15.408c-.81.186-1.642.31-2.475.367-.996.068-2 .036-2.978-.105-.317.44-.654.916-1.008 1.426-2.105 3.033-4.398 6.763-5.36 9.58 1.691 3.44 5.444 4.733 9.278 4.47 3.824-.261 7.562-2.124 9.043-4.662-.403-2.37-2.73-6.102-5.041-9.187a80.608 80.608 0 00-1.46-1.889zm1.32 16.004a15.901 15.901 0 01-3.795.73 13.821 13.821 0 01-3.715-.232c-2.09 3.018-4.352 6.707-5.304 9.498 1.69 3.44 5.443 4.731 9.277 4.469 3.823-.262 7.562-2.124 9.043-4.66-.403-2.37-2.73-6.104-5.041-9.19-.158-.21-.312-.415-.465-.615zm0 14.834a15.926 15.926 0 01-3.469.629c-1.51.103-3.042-.021-4.47-.414-2.061 2.99-4.265 6.605-5.202 9.351 1.691 3.44 5.444 4.732 9.278 4.47 3.824-.263 7.56-2.126 9.04-4.663-.403-2.37-2.728-6.103-5.038-9.188l-.139-.185zm.06 14.281c-1.23.405-2.54.662-3.855.752-1.079.074-2.17.031-3.224-.142l-.106.152c-2.105 3.033-4.4 6.765-5.361 9.582 1.69 3.44 5.444 4.731 9.277 4.469 3.824-.262 7.56-2.126 9.041-4.662-.403-2.37-2.729-6.103-5.039-9.188a80.43 80.43 0 00-.732-.963z" overflow="visible"/>
        <path fill="#000" d="M167.345 60.786l-.367.455s-1.931 2.39-4.103 5.52c-2.173 3.13-4.59 6.984-5.584 10.043l-.061.185.08.178c1.852 4.038 6.194 5.499 10.371 5.213 4.177-.286 8.309-2.247 9.975-5.334l.078-.145-.024-.162c-.403-2.838-2.911-6.621-5.296-9.806-2.386-3.185-4.676-5.713-4.676-5.713zm.043 1.582c.336.375 2.072 2.288 4.227 5.164 2.31 3.085 4.635 6.818 5.039 9.188-1.481 2.537-5.217 4.4-9.041 4.662-3.834.262-7.587-1.03-9.278-4.469.962-2.817 3.255-6.549 5.36-9.582 1.954-2.815 3.39-4.584 3.693-4.963zm4.588 19.11c-.33.12-.669.23-1.012.328.313.4.64.827.977 1.277 2.311 3.086 4.638 6.818 5.041 9.188-1.48 2.536-5.219 4.4-9.043 4.662-3.834.262-7.587-1.03-9.277-4.471.96-2.817 3.256-6.547 5.361-9.58.153-.22.303-.435.45-.643-.36-.058-.717-.133-1.067-.222l-.205.295c-2.173 3.13-4.59 6.982-5.584 10.04l-.06.186.081.178c1.852 4.037 6.192 5.499 10.37 5.213 4.177-.286 8.308-2.245 9.974-5.332l.078-.145-.023-.164c-.404-2.838-2.91-6.62-5.295-9.805a79.34 79.34 0 00-.766-1.005zm.426 15.511c-.33.123-.665.234-1.006.334.281.362.573.744.873 1.145 2.31 3.085 4.636 6.817 5.04 9.187-1.482 2.537-5.218 4.4-9.042 4.662-3.833.263-7.586-1.03-9.277-4.468.96-2.817 3.256-6.549 5.361-9.582.117-.17.233-.333.346-.494a12.136 12.136 0 01-1.06-.23c-.037.05-.072.101-.108.153-2.172 3.13-4.59 6.984-5.584 10.043l-.06.186.081.178c1.852 4.037 6.192 5.498 10.37 5.213 4.177-.286 8.308-2.246 9.974-5.333l.078-.146-.023-.162c-.404-2.838-2.91-6.622-5.295-9.807-.224-.299-.448-.593-.668-.879zm-.451 15.653a15.6 15.6 0 01-1.041.285c.229.297.464.606.705.928 2.31 3.084 4.635 6.817 5.039 9.187-1.481 2.537-5.217 4.4-9.041 4.662-3.834.263-7.587-1.03-9.278-4.469.962-2.817 3.255-6.548 5.36-9.582.16-.231.317-.456.47-.673a11.29 11.29 0 01-1.01-.3l-.28.403c-2.173 3.13-4.59 6.984-5.584 10.043l-.061.186.08.177c1.852 4.038 6.194 5.5 10.371 5.213 4.177-.286 8.309-2.247 9.975-5.334l.078-.144-.024-.162c-.403-2.839-2.911-6.622-5.296-9.807l-.463-.613zm-.742 15.414c-.346.105-.698.198-1.053.279.453.57.944 1.202 1.459 1.889 2.31 3.085 4.638 6.817 5.04 9.187-1.48 2.538-5.218 4.4-9.042 4.662-3.834.263-7.587-1.03-9.278-4.47.962-2.817 3.255-6.547 5.36-9.58.354-.51.691-.987 1.008-1.426a12.44 12.44 0 01-1.082-.205c-.244.341-.494.696-.746 1.06-2.173 3.13-4.59 6.982-5.584 10.041l-.061.186.08.178c1.852 4.037 6.194 5.498 10.371 5.212 4.177-.286 8.309-2.245 9.975-5.332l.078-.144-.024-.164c-.403-2.839-2.911-6.62-5.296-9.805a81.636 81.636 0 00-1.206-1.568zm1.251 15.926c-.321.13-.65.249-.984.357.153.2.307.405.465.615 2.311 3.086 4.638 6.82 5.041 9.19-1.481 2.536-5.22 4.398-9.043 4.66-3.834.262-7.586-1.03-9.277-4.469.952-2.791 3.215-6.48 5.304-9.498-.35-.072-.696-.161-1.035-.264-2.1 3.056-4.361 6.72-5.314 9.653l-.06.185.081.178c1.852 4.037 6.192 5.499 10.37 5.213 4.177-.286 8.308-2.247 9.974-5.334l.078-.145-.023-.162c-.404-2.838-2.91-6.622-5.295-9.806-.094-.126-.188-.25-.282-.373zm.012 14.855c-.326.123-.658.235-.996.336l.139.185c2.31 3.085 4.635 6.818 5.039 9.188-1.481 2.537-5.217 4.4-9.041 4.662-3.834.263-7.587-1.03-9.278-4.469.937-2.746 3.141-6.36 5.202-9.351a11.057 11.057 0 01-.993-.324c-2.082 3.038-4.31 6.66-5.253 9.566l-.061.186.08.175c1.852 4.038 6.194 5.501 10.371 5.215 4.177-.286 8.309-2.247 9.975-5.334l.078-.144-.024-.162c-.4-2.816-2.87-6.56-5.238-9.729zm.049 14.256c-.32.131-.65.251-.984.361.237.307.482.63.732.963 2.31 3.085 4.636 6.818 5.04 9.188-1.482 2.536-5.218 4.4-9.042 4.662-3.834.262-7.586-1.03-9.277-4.47.96-2.816 3.256-6.548 5.361-9.581l.106-.152c-.36-.06-.714-.133-1.063-.223-2.137 3.094-4.476 6.852-5.45 9.848l-.06.185.082.178c1.852 4.037 6.192 5.499 10.37 5.213 4.177-.286 8.308-2.247 9.974-5.334l.078-.145-.023-.162c-.404-2.838-2.91-6.622-5.295-9.807a77.474 77.474 0 00-.55-.724z" overflow="visible"/>
    </g>
    <g fill="#fca" stroke="#000" transform="translate(47.795 18.987)">
        <path d="M161.719 216.061c2.803 3.763 11.35 3.82 14.076 0-.093-7.055.074-22.11-7.529-21.933-7.628.155-6.85 14.506-6.547 21.933z"/>
        <path stroke-linecap="round" stroke-width=".6" d="M163.52 218.271v-6.384M165.074 218.844v-10.476M172.358 219.008v-11.785M174.404 217.944v-5.156"/>
        <ellipse cx="168.288" cy="193.693" stroke-linecap="round" stroke-linejoin="round" paint-order="markers stroke fill" rx="2.546" ry="2.257"/>
    </g>
    <path fill="none" stroke="#000" d="M184.962 92.972V66.128M199.366 84.133v-18.66"/>
    <path fill="#fea" stroke="#000" stroke-linecap="round" stroke-linejoin="round" d="M192.272 58.732c-6.694.26-13.149 1.323-18.58 3.841-6.146 2.85-17.427 9.817-31.74 19-14.314 9.184-31.34 20.466-47.694 31.436-32.707 21.94-62.722 42.629-62.722 42.629-2.274 1.567-20.034 16.303-18.466 18.576 1.567 2.274 21.868-8.774 24.141-10.342 0 0 29.975-20.662 62.618-42.558 16.321-10.949 33.31-22.205 47.523-31.325 14.214-9.12 25.972-16.222 30.547-18.343 6.862-3.183 21.2-3.311 33.3-1.993 12.1 1.319 22.06 3.635 22.06 3.635a5 5 0 102.27-9.738s-10.477-2.447-23.245-3.838c-6.384-.696-13.318-1.24-20.012-.98z" overflow="visible"/>
    <path fill="#fca" stroke="#000" d="M202.967 51.396c20.3-5.916 48.777.765 45.504 44.195-31.5-8.747-61.472-24.35-45.504-44.195z"/>
    <path fill="#fca" stroke="#000" d="M194.67 42.266c2.027-17.966 14.926-37.997 43.11-20.432-15.179 21.688-34.51 39.81-43.11 20.432z"/>
    <ellipse cx="188.726" cy="53.033" fill="url(#linearGradient20)" stroke="#000" stroke-linecap="round" stroke-linejoin="round" stroke-width="2" paint-order="markers stroke fill" rx="11.949" ry="11.13"/>
    <ellipse cx="186.17" cy="60.764" fill="#fff" paint-order="markers stroke fill" rx=".752" ry=".694"/>
    <ellipse cx="183.103" cy="58.334" fill="#fff" paint-order="markers stroke fill" rx="1.852" ry="1.852"/>
    <path fill="#fff" d="M187.744 45.013c5.868-.78 10.55 3.517 10.476 8.675-2.873-3.623-5.784-5.837-10.476-8.675z"/>
    <path fill="none" stroke="#000" d="M196.747 43.54l24.88-15.714M201.003 54.67l21.278 11.785"/>
    <g fill="url(#linearGradient96)" transform="translate(17.678 29.463)">
        <path fill="url(#linearGradient94)" stroke="#000" d="M168.102 76.44v125.708"/>
        <path fill="url(#linearGradient95)" d="M167.388 62.368c-.304.38-1.74 2.148-3.693 4.963-2.105 3.033-4.398 6.765-5.36 9.582 1.691 3.44 5.444 4.731 9.278 4.469 3.824-.262 7.56-2.125 9.04-4.662-.403-2.37-2.728-6.103-5.038-9.188-2.155-2.876-3.89-4.79-4.227-5.164zm3.576 19.438a15.94 15.94 0 01-3.283.574c-1.074.073-2.158.03-3.209-.14-.146.207-.296.421-.449.642-2.105 3.033-4.4 6.763-5.361 9.58 1.69 3.44 5.443 4.733 9.277 4.47 3.824-.261 7.562-2.125 9.043-4.661-.403-2.37-2.73-6.102-5.041-9.188a80.61 80.61 0 00-.977-1.277zm.432 15.517a15.94 15.94 0 01-3.389.606c-1.108.076-2.228.03-3.31-.156-.113.16-.229.325-.346.494-2.105 3.033-4.4 6.765-5.361 9.582 1.69 3.439 5.444 4.73 9.277 4.468 3.824-.261 7.56-2.125 9.041-4.662-.403-2.37-2.729-6.102-5.039-9.187-.3-.4-.592-.783-.873-1.145zm-.486 15.604a15.99 15.99 0 01-2.575.389c-1.404.096-2.829-.005-4.17-.336-.153.217-.31.442-.47.673-2.105 3.034-4.398 6.765-5.36 9.582 1.691 3.44 5.444 4.732 9.278 4.47 3.824-.263 7.56-2.126 9.04-4.663-.403-2.37-2.728-6.103-5.038-9.187a80.28 80.28 0 00-.705-.928zm-.754 15.408c-.81.186-1.642.31-2.475.367-.996.068-2 .036-2.978-.105-.317.44-.654.916-1.008 1.426-2.105 3.033-4.398 6.763-5.36 9.58 1.691 3.44 5.444 4.733 9.278 4.47 3.824-.261 7.562-2.124 9.043-4.662-.403-2.37-2.73-6.102-5.041-9.187a80.608 80.608 0 00-1.46-1.889zm1.32 16.004a15.901 15.901 0 01-3.795.73 13.821 13.821 0 01-3.715-.232c-2.09 3.018-4.352 6.707-5.304 9.498 1.69 3.44 5.443 4.731 9.277 4.469 3.823-.262 7.562-2.124 9.043-4.66-.403-2.37-2.73-6.104-5.041-9.19-.158-.21-.312-.415-.465-.615zm0 14.834a15.926 15.926 0 01-3.469.629c-1.51.103-3.042-.021-4.47-.414-2.061 2.99-4.265 6.605-5.202 9.351 1.691 3.44 5.444 4.732 9.278 4.47 3.824-.263 7.56-2.126 9.04-4.663-.403-2.37-2.728-6.103-5.038-9.188l-.139-.185zm.06 14.281c-1.23.405-2.54.662-3.855.752-1.079.074-2.17.031-3.224-.142l-.106.152c-2.105 3.033-4.4 6.765-5.361 9.582 1.69 3.44 5.443 4.731 9.277 4.469 3.824-.262 7.56-2.126 9.041-4.662-.403-2.37-2.729-6.103-5.039-9.188a80.43 80.43 0 00-.732-.963z" overflow="visible"/>
        <path fill="#000" d="M167.345 60.786l-.367.455s-1.931 2.39-4.103 5.52c-2.173 3.13-4.59 6.984-5.584 10.043l-.061.185.08.178c1.852 4.038 6.194 5.499 10.371 5.213 4.177-.286 8.309-2.247 9.975-5.334l.078-.145-.024-.162c-.403-2.838-2.911-6.621-5.296-9.806-2.386-3.185-4.676-5.713-4.676-5.713zm.043 1.582c.336.375 2.072 2.288 4.227 5.164 2.31 3.085 4.635 6.818 5.039 9.188-1.481 2.537-5.217 4.4-9.041 4.662-3.834.262-7.587-1.03-9.278-4.469.962-2.817 3.255-6.549 5.36-9.582 1.954-2.815 3.39-4.584 3.693-4.963zm4.588 19.11c-.33.12-.669.23-1.012.328.313.4.64.827.977 1.277 2.311 3.086 4.638 6.818 5.041 9.188-1.48 2.536-5.219 4.4-9.043 4.662-3.834.262-7.587-1.03-9.277-4.471.96-2.817 3.256-6.547 5.361-9.58.153-.22.303-.435.45-.643-.36-.058-.717-.133-1.067-.222l-.205.295c-2.173 3.13-4.59 6.982-5.584 10.04l-.06.186.081.178c1.852 4.037 6.192 5.499 10.37 5.213 4.177-.286 8.308-2.245 9.974-5.332l.078-.145-.023-.164c-.404-2.838-2.91-6.62-5.295-9.805a79.34 79.34 0 00-.766-1.005zm.426 15.511c-.33.123-.665.234-1.006.334.281.362.573.744.873 1.145 2.31 3.085 4.636 6.817 5.04 9.187-1.482 2.537-5.218 4.4-9.042 4.662-3.833.263-7.586-1.03-9.277-4.468.96-2.817 3.256-6.549 5.361-9.582.117-.17.233-.333.346-.494a12.136 12.136 0 01-1.06-.23c-.037.05-.072.101-.108.153-2.172 3.13-4.59 6.984-5.584 10.043l-.06.186.081.178c1.852 4.037 6.192 5.498 10.37 5.213 4.177-.286 8.308-2.246 9.974-5.333l.078-.146-.023-.162c-.404-2.838-2.91-6.622-5.295-9.807-.224-.299-.448-.593-.668-.879zm-.451 15.653a15.6 15.6 0 01-1.041.285c.229.297.464.606.705.928 2.31 3.084 4.635 6.817 5.039 9.187-1.481 2.537-5.217 4.4-9.041 4.662-3.834.263-7.587-1.03-9.278-4.469.962-2.817 3.255-6.548 5.36-9.582.16-.231.317-.456.47-.673a11.29 11.29 0 01-1.01-.3l-.28.403c-2.173 3.13-4.59 6.984-5.584 10.043l-.061.186.08.177c1.852 4.038 6.194 5.5 10.371 5.213 4.177-.286 8.309-2.247 9.975-5.334l.078-.144-.024-.162c-.403-2.839-2.911-6.622-5.296-9.807l-.463-.613zm-.742 15.414c-.346.105-.698.198-1.053.279.453.57.944 1.202 1.459 1.889 2.31 3.085 4.638 6.817 5.04 9.187-1.48 2.538-5.218 4.4-9.042 4.662-3.834.263-7.587-1.03-9.278-4.47.962-2.817 3.255-6.547 5.36-9.58.354-.51.691-.987 1.008-1.426a12.44 12.44 0 01-1.082-.205c-.244.341-.494.696-.746 1.06-2.173 3.13-4.59 6.982-5.584 10.041l-.061.186.08.178c1.852 4.037 6.194 5.498 10.371 5.212 4.177-.286 8.309-2.245 9.975-5.332l.078-.144-.024-.164c-.403-2.839-2.911-6.62-5.296-9.805a81.636 81.636 0 00-1.206-1.568zm1.251 15.926c-.321.13-.65.249-.984.357.153.2.307.405.465.615 2.311 3.086 4.638 6.82 5.041 9.19-1.481 2.536-5.22 4.398-9.043 4.66-3.834.262-7.586-1.03-9.277-4.469.952-2.791 3.215-6.48 5.304-9.498-.35-.072-.696-.161-1.035-.264-2.1 3.056-4.361 6.72-5.314 9.653l-.06.185.081.178c1.852 4.037 6.192 5.499 10.37 5.213 4.177-.286 8.308-2.247 9.974-5.334l.078-.145-.023-.162c-.404-2.838-2.91-6.622-5.295-9.806-.094-.126-.188-.25-.282-.373zm.012 14.855c-.326.123-.658.235-.996.336l.139.185c2.31 3.085 4.635 6.818 5.039 9.188-1.481 2.537-5.217 4.4-9.041 4.662-3.834.263-7.587-1.03-9.278-4.469.937-2.746 3.141-6.36 5.202-9.351a11.057 11.057 0 01-.993-.324c-2.082 3.038-4.31 6.66-5.253 9.566l-.061.186.08.175c1.852 4.038 6.194 5.501 10.371 5.215 4.177-.286 8.309-2.247 9.975-5.334l.078-.144-.024-.162c-.4-2.816-2.87-6.56-5.238-9.729zm.049 14.256c-.32.131-.65.251-.984.361.237.307.482.63.732.963 2.31 3.085 4.636 6.818 5.04 9.188-1.482 2.536-5.218 4.4-9.042 4.662-3.834.262-7.586-1.03-9.277-4.47.96-2.816 3.256-6.548 5.361-9.581l.106-.152c-.36-.06-.714-.133-1.063-.223-2.137 3.094-4.476 6.852-5.45 9.848l-.06.185.082.178c1.852 4.037 6.192 5.499 10.37 5.213 4.177-.286 8.308-2.247 9.974-5.334l.078-.145-.023-.162c-.404-2.838-2.91-6.622-5.295-9.807a77.474 77.474 0 00-.55-.724z" overflow="visible"/>
    </g>
    <g fill="url(#linearGradient93)" transform="translate(31.427 12.44)">
        <path fill="url(#linearGradient91)" stroke="#000" d="M168.102 76.44v125.708"/>
        <path fill="url(#linearGradient92)" d="M167.388 62.368c-.304.38-1.74 2.148-3.693 4.963-2.105 3.033-4.398 6.765-5.36 9.582 1.691 3.44 5.444 4.731 9.278 4.469 3.824-.262 7.56-2.125 9.04-4.662-.403-2.37-2.728-6.103-5.038-9.188-2.155-2.876-3.89-4.79-4.227-5.164zm3.576 19.438a15.94 15.94 0 01-3.283.574c-1.074.073-2.158.03-3.209-.14-.146.207-.296.421-.449.642-2.105 3.033-4.4 6.763-5.361 9.58 1.69 3.44 5.443 4.733 9.277 4.47 3.824-.261 7.562-2.125 9.043-4.661-.403-2.37-2.73-6.102-5.041-9.188a80.61 80.61 0 00-.977-1.277zm.432 15.517a15.94 15.94 0 01-3.389.606c-1.108.076-2.228.03-3.31-.156-.113.16-.229.325-.346.494-2.105 3.033-4.4 6.765-5.361 9.582 1.69 3.439 5.444 4.73 9.277 4.468 3.824-.261 7.56-2.125 9.041-4.662-.403-2.37-2.729-6.102-5.039-9.187-.3-.4-.592-.783-.873-1.145zm-.486 15.604a15.99 15.99 0 01-2.575.389c-1.404.096-2.829-.005-4.17-.336-.153.217-.31.442-.47.673-2.105 3.034-4.398 6.765-5.36 9.582 1.691 3.44 5.444 4.732 9.278 4.47 3.824-.263 7.56-2.126 9.04-4.663-.403-2.37-2.728-6.103-5.038-9.187a80.28 80.28 0 00-.705-.928zm-.754 15.408c-.81.186-1.642.31-2.475.367-.996.068-2 .036-2.978-.105-.317.44-.654.916-1.008 1.426-2.105 3.033-4.398 6.763-5.36 9.58 1.691 3.44 5.444 4.733 9.278 4.47 3.824-.261 7.562-2.124 9.043-4.662-.403-2.37-2.73-6.102-5.041-9.187a80.608 80.608 0 00-1.46-1.889zm1.32 16.004a15.901 15.901 0 01-3.795.73 13.821 13.821 0 01-3.715-.232c-2.09 3.018-4.352 6.707-5.304 9.498 1.69 3.44 5.443 4.731 9.277 4.469 3.823-.262 7.562-2.124 9.043-4.66-.403-2.37-2.73-6.104-5.041-9.19-.158-.21-.312-.415-.465-.615zm0 14.834a15.926 15.926 0 01-3.469.629c-1.51.103-3.042-.021-4.47-.414-2.061 2.99-4.265 6.605-5.202 9.351 1.691 3.44 5.444 4.732 9.278 4.47 3.824-.263 7.56-2.126 9.04-4.663-.403-2.37-2.728-6.103-5.038-9.188l-.139-.185zm.06 14.281c-1.23.405-2.54.662-3.855.752-1.079.074-2.17.031-3.224-.142l-.106.152c-2.105 3.033-4.4 6.765-5.361 9.582 1.69 3.44 5.443 4.731 9.277 4.469 3.824-.262 7.56-2.126 9.041-4.662-.403-2.37-2.729-6.103-5.039-9.188a80.43 80.43 0 00-.732-.963z" overflow="visible"/>
        <path fill="#000" d="M167.345 60.786l-.367.455s-1.931 2.39-4.103 5.52c-2.173 3.13-4.59 6.984-5.584 10.043l-.061.185.08.178c1.852 4.038 6.194 5.499 10.371 5.213 4.177-.286 8.309-2.247 9.975-5.334l.078-.145-.024-.162c-.403-2.838-2.911-6.621-5.296-9.806-2.386-3.185-4.676-5.713-4.676-5.713zm.043 1.582c.336.375 2.072 2.288 4.227 5.164 2.31 3.085 4.635 6.818 5.039 9.188-1.481 2.537-5.217 4.4-9.041 4.662-3.834.262-7.587-1.03-9.278-4.469.962-2.817 3.255-6.549 5.36-9.582 1.954-2.815 3.39-4.584 3.693-4.963zm4.588 19.11c-.33.12-.669.23-1.012.328.313.4.64.827.977 1.277 2.311 3.086 4.638 6.818 5.041 9.188-1.48 2.536-5.219 4.4-9.043 4.662-3.834.262-7.587-1.03-9.277-4.471.96-2.817 3.256-6.547 5.361-9.58.153-.22.303-.435.45-.643-.36-.058-.717-.133-1.067-.222l-.205.295c-2.173 3.13-4.59 6.982-5.584 10.04l-.06.186.081.178c1.852 4.037 6.192 5.499 10.37 5.213 4.177-.286 8.308-2.245 9.974-5.332l.078-.145-.023-.164c-.404-2.838-2.91-6.62-5.295-9.805a79.34 79.34 0 00-.766-1.005zm.426 15.511c-.33.123-.665.234-1.006.334.281.362.573.744.873 1.145 2.31 3.085 4.636 6.817 5.04 9.187-1.482 2.537-5.218 4.4-9.042 4.662-3.833.263-7.586-1.03-9.277-4.468.96-2.817 3.256-6.549 5.361-9.582.117-.17.233-.333.346-.494a12.136 12.136 0 01-1.06-.23c-.037.05-.072.101-.108.153-2.172 3.13-4.59 6.984-5.584 10.043l-.06.186.081.178c1.852 4.037 6.192 5.498 10.37 5.213 4.177-.286 8.308-2.246 9.974-5.333l.078-.146-.023-.162c-.404-2.838-2.91-6.622-5.295-9.807-.224-.299-.448-.593-.668-.879zm-.451 15.653a15.6 15.6 0 01-1.041.285c.229.297.464.606.705.928 2.31 3.084 4.635 6.817 5.039 9.187-1.481 2.537-5.217 4.4-9.041 4.662-3.834.263-7.587-1.03-9.278-4.469.962-2.817 3.255-6.548 5.36-9.582.16-.231.317-.456.47-.673a11.29 11.29 0 01-1.01-.3l-.28.403c-2.173 3.13-4.59 6.984-5.584 10.043l-.061.186.08.177c1.852 4.038 6.194 5.5 10.371 5.213 4.177-.286 8.309-2.247 9.975-5.334l.078-.144-.024-.162c-.403-2.839-2.911-6.622-5.296-9.807l-.463-.613zm-.742 15.414c-.346.105-.698.198-1.053.279.453.57.944 1.202 1.459 1.889 2.31 3.085 4.638 6.817 5.04 9.187-1.48 2.538-5.218 4.4-9.042 4.662-3.834.263-7.587-1.03-9.278-4.47.962-2.817 3.255-6.547 5.36-9.58.354-.51.691-.987 1.008-1.426a12.44 12.44 0 01-1.082-.205c-.244.341-.494.696-.746 1.06-2.173 3.13-4.59 6.982-5.584 10.041l-.061.186.08.178c1.852 4.037 6.194 5.498 10.371 5.212 4.177-.286 8.309-2.245 9.975-5.332l.078-.144-.024-.164c-.403-2.839-2.911-6.62-5.296-9.805a81.636 81.636 0 00-1.206-1.568zm1.251 15.926c-.321.13-.65.249-.984.357.153.2.307.405.465.615 2.311 3.086 4.638 6.82 5.041 9.19-1.481 2.536-5.22 4.398-9.043 4.66-3.834.262-7.586-1.03-9.277-4.469.952-2.791 3.215-6.48 5.304-9.498-.35-.072-.696-.161-1.035-.264-2.1 3.056-4.361 6.72-5.314 9.653l-.06.185.081.178c1.852 4.037 6.192 5.499 10.37 5.213 4.177-.286 8.308-2.247 9.974-5.334l.078-.145-.023-.162c-.404-2.838-2.91-6.622-5.295-9.806-.094-.126-.188-.25-.282-.373zm.012 14.855c-.326.123-.658.235-.996.336l.139.185c2.31 3.085 4.635 6.818 5.039 9.188-1.481 2.537-5.217 4.4-9.041 4.662-3.834.263-7.587-1.03-9.278-4.469.937-2.746 3.141-6.36 5.202-9.351a11.057 11.057 0 01-.993-.324c-2.082 3.038-4.31 6.66-5.253 9.566l-.061.186.08.175c1.852 4.038 6.194 5.501 10.371 5.215 4.177-.286 8.309-2.247 9.975-5.334l.078-.144-.024-.162c-.4-2.816-2.87-6.56-5.238-9.729zm.049 14.256c-.32.131-.65.251-.984.361.237.307.482.63.732.963 2.31 3.085 4.636 6.818 5.04 9.188-1.482 2.536-5.218 4.4-9.042 4.662-3.834.262-7.586-1.03-9.277-4.47.96-2.816 3.256-6.548 5.361-9.581l.106-.152c-.36-.06-.714-.133-1.063-.223-2.137 3.094-4.476 6.852-5.45 9.848l-.06.185.082.178c1.852 4.037 6.192 5.499 10.37 5.213 4.177-.286 8.308-2.247 9.974-5.334l.078-.145-.023-.162c-.404-2.838-2.91-6.622-5.295-9.807a77.474 77.474 0 00-.55-.724z" overflow="visible"/>
    </g>
    <g fill="#fca" stroke="#000" transform="translate(18.005 31.427)">
        <path d="M161.719 216.061c2.803 3.763 11.35 3.82 14.076 0-.093-7.055.074-22.11-7.529-21.933-7.628.155-6.85 14.506-6.547 21.933z"/>
        <path stroke-linecap="round" stroke-width=".6" d="M163.52 218.271v-6.384M165.074 218.844v-10.476M172.358 219.008v-11.785M174.404 217.944v-5.156"/>
        <ellipse cx="168.288" cy="193.693" stroke-linecap="round" stroke-linejoin="round" paint-order="markers stroke fill" rx="2.546" ry="2.257"/>
    </g>
    <g fill="#fca" stroke="#000" transform="translate(31.754 13.422)">
        <path d="M161.719 216.061c2.803 3.763 11.35 3.82 14.076 0-.093-7.055.074-22.11-7.529-21.933-7.628.155-6.85 14.506-6.547 21.933z"/>
        <path stroke-linecap="round" stroke-width=".6" d="M163.52 218.271v-6.384M165.074 218.844v-10.476M172.358 219.008v-11.785M174.404 217.944v-5.156"/>
        <ellipse cx="168.288" cy="193.693" stroke-linecap="round" stroke-linejoin="round" paint-order="markers stroke fill" rx="2.546" ry="2.257"/>
    </g>
</svg>
