<?xml version="1.0" encoding="UTF-8" standalone="no"?>
<svg
   cursor="default"
   version="1.1"
   viewBox="0 0 256 256"
   id="svg34"
   sodipodi:docname="step_shake_pin.svg"
   inkscape:version="1.4.1-rc (832c77b156, 2025-02-28)"
   width="100%"
   height="100%"
   xmlns:inkscape="http://www.inkscape.org/namespaces/inkscape"
   xmlns:sodipodi="http://sodipodi.sourceforge.net/DTD/sodipodi-0.dtd"
   xmlns:xlink="http://www.w3.org/1999/xlink"
   xmlns="http://www.w3.org/2000/svg"
   xmlns:svg="http://www.w3.org/2000/svg">
  <sodipodi:namedview
     id="namedview34"
     pagecolor="#ffffff"
     bordercolor="#666666"
     borderopacity="1.0"
     inkscape:showpageshadow="2"
     inkscape:pageopacity="0.0"
     inkscape:pagecheckerboard="0"
     inkscape:deskcolor="#d1d1d1"
     inkscape:zoom="3.0546875"
     inkscape:cx="139.29412"
     inkscape:cy="121.78005"
     inkscape:window-width="1854"
     inkscape:window-height="1010"
     inkscape:window-x="0"
     inkscape:window-y="0"
     inkscape:window-maximized="1"
     inkscape:current-layer="svg34"
     showgrid="false" />
  <defs
     id="defs18">
    <linearGradient
       id="linearGradient110"
       inkscape:collect="always">
      <stop
         style="stop-color:#ffaaaa;stop-opacity:1;"
         offset="0"
         id="stop109" />
      <stop
         style="stop-color:#ffffff;stop-opacity:1;"
         offset="1"
         id="stop110" />
    </linearGradient>
    <linearGradient
       id="linearGradient108"
       inkscape:collect="always">
      <stop
         style="stop-color:#ffaaaa;stop-opacity:1;"
         offset="0"
         id="stop107" />
      <stop
         style="stop-color:#ffffff;stop-opacity:1;"
         offset="1"
         id="stop108" />
    </linearGradient>
    <linearGradient
       id="linearGradient106"
       inkscape:collect="always">
      <stop
         style="stop-color:#ffaaaa;stop-opacity:1;"
         offset="0"
         id="stop105" />
      <stop
         style="stop-color:#ffffff;stop-opacity:1;"
         offset="1"
         id="stop106" />
    </linearGradient>
    <linearGradient
       id="linearGradient119"
       inkscape:collect="always">
      <stop
         style="stop-color:#ffaaaa;stop-opacity:1;"
         offset="0"
         id="stop119" />
      <stop
         style="stop-color:#ffd5d5;stop-opacity:1;"
         offset="1"
         id="stop120" />
    </linearGradient>
    <linearGradient
       id="linearGradient19"
       inkscape:collect="always">
      <stop
         style="stop-color:#cbdde2;stop-opacity:1;"
         offset="0"
         id="stop19" />
      <stop
         style="stop-color:#ffffff;stop-opacity:1;"
         offset="1"
         id="stop20" />
    </linearGradient>
    <inkscape:path-effect
       effect="curvestitching"
       id="path-effect2"
       is_visible="true"
       lpeversion="1"
       count="5"
       startpoint_edge_variation="0;1"
       startpoint_spacing_variation="0;1"
       endpoint_edge_variation="0;1"
       endpoint_spacing_variation="0;1"
       strokepath="M 0,0 H 1"
       prop_scale="1"
       scale_y_rel="false" />
    <inkscape:path-effect
       effect="rough_hatches"
       id="path-effect27"
       is_visible="true"
       lpeversion="1.2"
       direction="130.23338,84.722658 , 44.619617,0"
       dist_rdm="0;1"
       growth="0"
       do_bend="true"
       bender="130.23338,89.722658 , 5,0"
       bottom_edge_variation="0;1"
       top_edge_variation="0;1"
       bottom_tgt_variation="0;1"
       top_tgt_variation="0;1"
       scale_bf="1"
       scale_bb="1"
       scale_tf="1"
       scale_tb="1"
       top_smth_variation="0;1"
       bottom_smth_variation="0;1"
       fat_output="true"
       stroke_width_top="1"
       stroke_width_bottom="1"
       front_thickness="1"
       back_thickness="0.25" />
    <inkscape:path-effect
       effect="rough_hatches"
       id="path-effect25"
       is_visible="true"
       lpeversion="1.2"
       direction="130.33594,169.64062 , 44.499022,0"
       dist_rdm="0;1"
       growth="0"
       do_bend="true"
       bender="130.33594,174.64062 , 5,0"
       bottom_edge_variation="0;1"
       top_edge_variation="0;1"
       bottom_tgt_variation="0;1"
       top_tgt_variation="0;1"
       scale_bf="0"
       scale_bb="0"
       scale_tf="0.3"
       scale_tb="1.2"
       top_smth_variation="0;1"
       bottom_smth_variation="0;1"
       fat_output="true"
       stroke_width_top="1"
       stroke_width_bottom="1"
       front_thickness="1"
       back_thickness="0.25" />
    <inkscape:path-effect
       effect="rough_hatches"
       id="path-effect22"
       is_visible="true"
       lpeversion="1.2"
       direction="130.23338,125.46803 , 44.619244,0"
       dist_rdm="0;1"
       growth="0"
       do_bend="true"
       bender="130.23338,130.46803 , 5,0"
       bottom_edge_variation="0;1"
       top_edge_variation="0;1"
       bottom_tgt_variation="0;1"
       top_tgt_variation="0;1"
       scale_bf="0"
       scale_bb="0"
       scale_tf="0"
       scale_tb="0"
       top_smth_variation="0;1"
       bottom_smth_variation="0;1"
       fat_output="true"
       stroke_width_top="0"
       stroke_width_bottom="0"
       front_thickness="0"
       back_thickness="0" />
    <linearGradient
       id="linearGradient924"
       x1="18.120001"
       x2="21.466"
       y1="241.28999"
       y2="228.73"
       gradientTransform="matrix(0.0086692,0.99996,0.99996,-0.0086692,-0.22047,0.26984)"
       gradientUnits="userSpaceOnUse">
      <stop
         stop-color="#917c6f"
         offset="0"
         id="stop1" />
      <stop
         stop-color="#ac9d93"
         offset="1"
         id="stop2" />
    </linearGradient>
    <linearGradient
       id="innoGrad4">
      <stop
         stop-color="#ffb380"
         offset="0"
         id="stop3" />
      <stop
         stop-color="#fca"
         offset="1"
         id="stop4" />
    </linearGradient>
    <linearGradient
       id="innoGrad5"
       x1="149.74001"
       x2="147.34"
       y1="110.12"
       y2="107.69"
       gradientTransform="matrix(0.0086692,0.99996,0.99996,-0.0086692,-0.22047,0.26984)"
       gradientUnits="userSpaceOnUse">
      <stop
         stop-color="#916f6f"
         offset="0"
         id="stop5" />
      <stop
         stop-color="#ac9393"
         offset="1"
         id="stop6" />
    </linearGradient>
    <linearGradient
       id="linearGradient1284"
       x1="30"
       x2="30.714001"
       y1="226.17999"
       y2="225.42"
       gradientTransform="matrix(0.0086692,0.99996,0.99996,-0.0086692,-0.22047,0.26984)"
       gradientUnits="userSpaceOnUse"
       xlink:href="#innoGrad4" />
    <linearGradient
       id="linearGradient1292"
       x1="37.633999"
       x2="38.214001"
       y1="219.17"
       y2="218.59"
       gradientTransform="matrix(0.0086692,0.99996,0.99996,-0.0086692,-0.22047,0.26984)"
       gradientUnits="userSpaceOnUse"
       xlink:href="#innoGrad4" />
    <linearGradient
       id="linearGradient1306"
       x1="40.044998"
       x2="40.938"
       y1="216.75999"
       y2="215.78"
       gradientTransform="matrix(0.0086692,0.99996,0.99996,-0.0086692,-0.22047,0.26984)"
       gradientUnits="userSpaceOnUse"
       xlink:href="#innoGrad4" />
    <linearGradient
       id="linearGradient1314"
       x1="42.455002"
       x2="43.348"
       y1="214.21001"
       y2="213.32001"
       gradientTransform="matrix(0.0086692,0.99996,0.99996,-0.0086692,-0.22047,0.26984)"
       gradientUnits="userSpaceOnUse"
       xlink:href="#innoGrad4" />
    <linearGradient
       id="linearGradient1322"
       x1="50.580002"
       x2="51.070999"
       y1="206.49001"
       y2="206.03999"
       gradientTransform="matrix(0.0086692,0.99996,0.99996,-0.0086692,-0.22047,0.26984)"
       gradientUnits="userSpaceOnUse"
       xlink:href="#innoGrad4" />
    <linearGradient
       id="innoGrad3"
       x1="27.009001"
       x2="54.820999"
       y1="229.57001"
       y2="202.83"
       gradientTransform="matrix(0.0086692,0.99996,0.99996,-0.0086692,-0.22047,0.26984)"
       gradientUnits="userSpaceOnUse">
      <stop
         stop-color="#f95"
         offset="0"
         id="stop7" />
      <stop
         stop-color="#ff7f2a"
         offset=".088"
         id="stop8" />
      <stop
         stop-color="#f95"
         offset=".265"
         id="stop9" />
      <stop
         stop-color="#ff7f2a"
         offset=".446"
         id="stop10" />
      <stop
         stop-color="#ff7f2a"
         offset=".601"
         id="stop11" />
      <stop
         stop-color="#f95"
         offset=".733"
         id="stop12" />
      <stop
         stop-color="#ff7f2a"
         offset=".863"
         id="stop13" />
      <stop
         stop-color="#f95"
         offset="1"
         id="stop14" />
    </linearGradient>
    <linearGradient
       id="linearGradient903"
       x1="200.10001"
       x2="191.22"
       y1="65.966003"
       y2="57.050999"
       gradientUnits="userSpaceOnUse">
      <stop
         stop-color="#916f6f"
         offset="0"
         id="stop15" />
      <stop
         stop-color="#ac9393"
         offset="1"
         id="stop16" />
    </linearGradient>
    <linearGradient
       id="linearGradient943"
       x1="185.92999"
       x2="178.95"
       y1="77.051003"
       y2="70.746002"
       gradientUnits="userSpaceOnUse"
       xlink:href="#linearGradient924" />
    <linearGradient
       id="linearGradient951"
       x1="181.92999"
       x2="175.36"
       y1="82.508003"
       y2="76.271004"
       gradientUnits="userSpaceOnUse"
       xlink:href="#linearGradient924" />
    <linearGradient
       id="linearGradient938"
       x1="18.120001"
       x2="21.466"
       y1="241.28999"
       y2="228.73"
       gradientTransform="matrix(0.0086692,0.99996,0.99996,-0.0086692,-0.22047,0.26984)"
       gradientUnits="userSpaceOnUse">
      <stop
         stop-color="#fd5"
         offset="0"
         id="stop17" />
      <stop
         stop-color="#fea"
         offset="1"
         id="stop18" />
    </linearGradient>
    <linearGradient
       inkscape:collect="always"
       xlink:href="#linearGradient19"
       id="linearGradient20"
       x1="183.65218"
       y1="63.181583"
       x2="192.81841"
       y2="48.450127"
       gradientUnits="userSpaceOnUse" />
    <linearGradient
       inkscape:collect="always"
       xlink:href="#linearGradient119"
       id="linearGradient120"
       x1="163.45003"
       y1="140.09602"
       x2="170.20419"
       y2="140.09602"
       gradientUnits="userSpaceOnUse" />
    <linearGradient
       inkscape:collect="always"
       xlink:href="#linearGradient106"
       id="linearGradient85"
       gradientUnits="userSpaceOnUse"
       x1="168.92072"
       y1="119.16113"
       x2="170.8849"
       y2="183.97954" />
    <linearGradient
       inkscape:collect="always"
       xlink:href="#linearGradient119"
       id="linearGradient91"
       gradientUnits="userSpaceOnUse"
       x1="163.45003"
       y1="140.09602"
       x2="170.20419"
       y2="140.09602" />
    <linearGradient
       inkscape:collect="always"
       xlink:href="#linearGradient108"
       id="linearGradient92"
       gradientUnits="userSpaceOnUse"
       x1="168.92072"
       y1="119.16113"
       x2="170.8849"
       y2="183.97954" />
    <linearGradient
       inkscape:collect="always"
       xlink:href="#linearGradient119"
       id="linearGradient93"
       gradientUnits="userSpaceOnUse"
       x1="163.45003"
       y1="140.09602"
       x2="170.20419"
       y2="140.09602" />
    <linearGradient
       inkscape:collect="always"
       xlink:href="#linearGradient119"
       id="linearGradient94"
       gradientUnits="userSpaceOnUse"
       x1="163.45003"
       y1="140.09602"
       x2="170.20419"
       y2="140.09602" />
    <linearGradient
       inkscape:collect="always"
       xlink:href="#linearGradient110"
       id="linearGradient95"
       gradientUnits="userSpaceOnUse"
       x1="168.92072"
       y1="119.16113"
       x2="170.8849"
       y2="183.97954" />
    <linearGradient
       inkscape:collect="always"
       xlink:href="#linearGradient119"
       id="linearGradient96"
       gradientUnits="userSpaceOnUse"
       x1="163.45003"
       y1="140.09602"
       x2="170.20419"
       y2="140.09602" />
  </defs>
  <g
     id="g3"
     transform="translate(47.795397,18.987212)"
     style="fill:url(#linearGradient120)">
    <path
       style="display:inline;fill:url(#linearGradient120);stroke:#000000;stroke-width:1px;stroke-linecap:butt;stroke-linejoin:miter;stroke-opacity:1"
       d="M 168.1023,76.439898 V 202.14834"
       id="path11" />
    <path
       id="path85"
       style="baseline-shift:baseline;display:inline;overflow:visible;vector-effect:none;enable-background:accumulate;stop-color:#000000;stop-opacity:1;fill:url(#linearGradient85);fill-opacity:1"
       d="M 167.3882 62.368257 C 167.08442 62.747353 165.6489 64.515637 163.69484 67.331147 C 161.58961 70.364473 159.29653 74.096154 158.33546 76.913179 C 160.02645 80.352323 163.77925 81.644371 167.61281 81.381929 C 171.43682 81.120143 175.1729 79.256658 176.65382 76.719819 C 176.25032 74.349824 173.92519 70.617065 171.61476 67.532319 C 169.4602 64.655673 167.72431 62.74291 167.3882 62.368257 z M 170.96437 81.805757 C 169.90392 82.109273 168.79387 82.303802 167.68117 82.379976 C 166.60732 82.453496 165.5227 82.410855 164.47218 82.239351 C 164.32587 82.446802 164.17595 82.661498 164.02296 82.881929 C 161.91774 85.915244 159.6227 89.644985 158.66163 92.462007 C 160.35224 95.902342 164.10483 97.195191 167.93898 96.93271 C 171.76303 96.67092 175.50107 94.807484 176.98195 92.270601 C 176.57941 89.900718 174.25198 86.168683 171.94093 83.083101 C 171.60369 82.632844 171.27733 82.206665 170.96437 81.805757 z M 171.39601 97.323335 C 170.30361 97.644236 169.15718 97.850087 168.00734 97.928804 C 166.89875 98.004694 165.77877 97.958284 164.69679 97.772554 C 164.58354 97.933708 164.46821 98.097942 164.35109 98.266694 C 162.24588 101.3 159.95084 105.03171 158.98976 107.84873 C 160.68076 111.28787 164.43353 112.57992 168.2671 112.31748 C 172.09116 112.05569 175.82725 110.19226 177.30812 107.65537 C 176.90462 105.28537 174.57949 101.55262 172.26906 98.467866 C 171.96901 98.067263 171.67717 97.685001 171.39601 97.323335 z M 170.90968 112.92685 C 170.06832 113.12547 169.20242 113.25617 168.33546 113.31552 C 166.93061 113.41172 165.50639 113.31052 164.16554 112.97958 C 164.01206 113.19696 163.85568 113.42166 163.69484 113.65341 C 161.58961 116.68673 159.29653 120.41841 158.33546 123.23544 C 160.02645 126.67458 163.77925 127.96663 167.61281 127.70419 C 171.43682 127.4424 175.1729 125.57892 176.65382 123.04208 C 176.25032 120.67208 173.92519 116.93932 171.61476 113.85458 C 171.37372 113.53277 171.13886 113.22374 170.90968 112.92685 z M 170.15577 128.33505 C 169.34535 128.52106 168.51446 128.6452 167.68117 128.70224 C 166.68545 128.77044 165.68113 128.73844 164.70265 128.59677 C 164.3864 129.03607 164.04875 129.51262 163.69484 130.02255 C 161.58963 133.05585 159.29654 136.78561 158.33546 139.60263 C 160.02609 143.0429 163.77869 144.33581 167.61281 144.07333 C 171.43733 143.81151 175.17526 141.94859 176.65577 139.41123 C 176.25321 137.04134 173.92581 133.3093 171.61476 130.22373 C 171.10029 129.53684 170.60914 128.90438 170.15577 128.33505 z M 171.47609 144.33896 C 170.26356 144.73199 168.97428 144.9809 167.68117 145.06943 C 166.4337 145.15483 165.17247 145.08533 163.96632 144.83701 C 161.87695 147.85518 159.61394 151.54368 158.66163 154.33505 C 160.3526 157.77425 164.10539 159.06624 167.93898 158.8038 C 171.7624 158.54205 175.50056 156.67989 176.98195 154.14365 C 176.57941 151.77377 174.25198 148.03977 171.94093 144.95419 C 171.78343 144.7439 171.62873 144.53872 171.47609 144.33896 z M 171.47609 159.17294 C 170.35991 159.50757 169.18505 159.72123 168.00734 159.80185 C 166.49635 159.90529 164.96476 159.78085 163.53663 159.38779 C 161.476 162.37815 159.2724 165.99306 158.33546 168.73935 C 160.02645 172.1785 163.77925 173.47055 167.61281 173.2081 C 171.43682 172.94632 175.1729 171.08283 176.65382 168.54599 C 176.25032 166.176 173.92519 162.44324 171.61476 159.35849 C 171.56806 159.29619 171.52236 159.23438 171.47609 159.17294 z M 171.53663 173.45419 C 170.30618 173.85913 168.99623 174.11612 167.68117 174.20615 C 166.60223 174.28005 165.51173 174.23735 164.45656 174.06357 C 164.42136 174.11407 164.38656 174.16474 164.35109 174.21591 C 162.24586 177.24923 159.95083 180.98091 158.98976 183.79794 C 160.68076 187.23708 164.43353 188.52913 168.2671 188.26669 C 172.09111 188.0049 175.8272 186.14142 177.30812 183.60458 C 176.90462 181.23458 174.57949 177.50182 172.26906 174.41708 C 172.01894 174.08314 171.77393 173.76126 171.53663 173.45419 z " />
    <path
       id="path70"
       style="baseline-shift:baseline;display:inline;overflow:visible;vector-effect:none;fill:#000000;enable-background:accumulate;stop-color:#000000;stop-opacity:1"
       d="m 167.34523,60.786225 -0.36719,0.455079 c 0,0 -1.93124,2.389601 -4.10352,5.519531 -2.17228,3.12993 -4.58985,6.983901 -5.58398,10.042969 l -0.0606,0.185546 0.0801,0.177735 c 1.85169,4.03748 6.19381,5.498863 10.3711,5.21289 4.17729,-0.285972 8.30847,-2.247221 9.9746,-5.333984 l 0.0781,-0.144531 -0.0234,-0.16211 c -0.40345,-2.838398 -2.91144,-6.621754 -5.29687,-9.80664 -2.38543,-3.184887 -4.67578,-5.712891 -4.67578,-5.712891 z m 0.043,1.582032 c 0.33611,0.374653 2.072,2.287416 4.22656,5.164062 2.31043,3.084746 4.63556,6.817505 5.03906,9.1875 -1.48092,2.536839 -5.217,4.400324 -9.04101,4.66211 -3.83356,0.262442 -7.58636,-1.029606 -9.27735,-4.46875 0.96107,-2.817025 3.25415,-6.548706 5.35938,-9.582032 1.95406,-2.81551 3.38958,-4.583794 3.69336,-4.96289 z m 4.58786,19.109375 c -0.33101,0.12043 -0.66893,0.230013 -1.01172,0.328125 0.31296,0.400908 0.63932,0.827086 0.97656,1.277343 2.31105,3.085583 4.63848,6.817618 5.04102,9.1875 -1.48088,2.536883 -5.21892,4.40032 -9.04297,4.66211 -3.83415,0.262481 -7.58674,-1.030368 -9.27735,-4.470703 0.96107,-2.817022 3.25611,-6.546763 5.36133,-9.580078 0.15299,-0.220431 0.30291,-0.435128 0.44922,-0.642579 -0.36009,-0.05879 -0.71617,-0.132859 -1.06641,-0.222656 -0.068,0.09729 -0.13649,0.196107 -0.20507,0.294922 -2.17227,3.12993 -4.58986,6.981947 -5.58399,10.041016 l -0.0605,0.185547 0.082,0.177734 c 1.85169,4.037481 6.19185,5.498864 10.36914,5.212891 4.17729,-0.285972 8.30848,-2.245269 9.97461,-5.332032 l 0.0781,-0.144531 -0.0234,-0.164062 c -0.40345,-2.838399 -2.90949,-6.619801 -5.29492,-9.804688 -0.25752,-0.343832 -0.51308,-0.679653 -0.76562,-1.005859 z m 0.42578,15.511718 c -0.32904,0.122355 -0.66476,0.233786 -1.00586,0.333985 0.28116,0.361666 0.573,0.743928 0.87305,1.144531 2.31043,3.084754 4.63556,6.817504 5.03906,9.187504 -1.48087,2.53689 -5.21696,4.40032 -9.04102,4.66211 -3.83357,0.26244 -7.58634,-1.02961 -9.27734,-4.46875 0.96108,-2.81702 3.25612,-6.54873 5.36133,-9.582036 0.11712,-0.168752 0.23245,-0.332986 0.3457,-0.49414 -0.35811,-0.06147 -0.71258,-0.138079 -1.06055,-0.230469 -0.0359,0.05149 -0.0714,0.102391 -0.10742,0.154297 -2.17228,3.129938 -4.58985,6.983908 -5.58398,10.042968 l -0.0606,0.18555 0.082,0.17773 c 1.85169,4.03748 6.19185,5.49886 10.36914,5.21289 4.17729,-0.28598 8.30848,-2.24527 9.97461,-5.33203 l 0.0781,-0.14648 -0.0234,-0.16211 c -0.40344,-2.8384 -2.90949,-6.62175 -5.29492,-9.806643 -0.22408,-0.299172 -0.44736,-0.592878 -0.66797,-0.878907 z m -0.45117,15.65234 c -0.34185,0.10615 -0.68935,0.20214 -1.04102,0.28516 0.22918,0.29689 0.46404,0.60592 0.70508,0.92773 2.31043,3.08474 4.63556,6.8175 5.03906,9.1875 -1.48092,2.53684 -5.217,4.40032 -9.04101,4.66211 -3.83356,0.26244 -7.58636,-1.02961 -9.27735,-4.46875 0.96107,-2.81703 3.25415,-6.54871 5.35938,-9.58203 0.16084,-0.23175 0.31722,-0.45645 0.4707,-0.67383 -0.34296,-0.0846 -0.67928,-0.18375 -1.00977,-0.29882 -0.0931,0.13274 -0.1871,0.26668 -0.28125,0.40234 -2.17228,3.12993 -4.58985,6.9839 -5.58398,10.04297 l -0.0606,0.18555 0.0801,0.17773 c 1.85169,4.03748 6.19381,5.49887 10.3711,5.21289 4.17729,-0.28597 8.30847,-2.24722 9.9746,-5.33398 l 0.0781,-0.14453 -0.0234,-0.16211 c -0.40345,-2.8384 -2.91144,-6.62175 -5.29687,-9.80664 -0.1552,-0.20722 -0.30911,-0.41215 -0.46289,-0.61329 z m -0.74219,15.41407 c -0.3454,0.10505 -0.69764,0.19779 -1.05274,0.27929 0.45337,0.56933 0.94452,1.20179 1.45899,1.88868 2.31105,3.08557 4.63845,6.81761 5.04101,9.1875 -1.48051,2.53736 -5.21844,4.40028 -9.04296,4.6621 -3.83412,0.26248 -7.58672,-1.03043 -9.27735,-4.4707 0.96108,-2.81702 3.25417,-6.54678 5.35938,-9.58008 0.35391,-0.50993 0.69156,-0.98648 1.00781,-1.42578 -0.3649,-0.0528 -0.72639,-0.12094 -1.08203,-0.20508 -0.24351,0.34151 -0.49341,0.69646 -0.7461,1.06055 -2.17228,3.12994 -4.58985,6.98195 -5.58398,10.04102 l -0.0606,0.18554 0.0801,0.17774 c 1.85169,4.03748 6.19381,5.49886 10.3711,5.21289 4.17729,-0.28597 8.30847,-2.24527 9.9746,-5.33203 l 0.0781,-0.14453 -0.0234,-0.16407 c -0.40345,-2.8384 -2.91144,-6.61979 -5.29687,-9.80468 -0.40836,-0.54522 -0.81331,-1.07094 -1.20508,-1.56836 z m 1.25195,15.92578 c -0.32142,0.13004 -0.64985,0.24899 -0.98437,0.35742 0.15264,0.19976 0.30734,0.40494 0.46484,0.61523 2.31105,3.08558 4.63848,6.81958 5.04102,9.18946 -1.48139,2.53624 -5.21955,4.3984 -9.04297,4.66015 -3.83359,0.26244 -7.58638,-1.02955 -9.27735,-4.46875 0.95231,-2.79137 3.21532,-6.47987 5.30469,-9.49804 -0.3503,-0.0721 -0.69603,-0.161 -1.03515,-0.26368 -2.09925,3.05551 -4.36139,6.71963 -5.31446,9.65235 l -0.0605,0.18555 0.082,0.17773 c 1.85169,4.03748 6.19185,5.49887 10.36914,5.21289 4.17729,-0.28597 8.30848,-2.24722 9.97461,-5.33398 l 0.0781,-0.14454 -0.0234,-0.1621 c -0.40345,-2.8384 -2.90949,-6.62176 -5.29492,-9.80665 -0.094,-0.12554 -0.18764,-0.24965 -0.28125,-0.37304 z m 0.0117,14.85547 c -0.32573,0.12308 -0.65826,0.23465 -0.99609,0.33593 0.0463,0.0614 0.092,0.1232 0.13867,0.18555 2.31043,3.08475 4.63556,6.81751 5.03906,9.1875 -1.48092,2.53684 -5.217,4.40033 -9.04101,4.66211 -3.83356,0.26245 -7.58636,-1.0296 -9.27735,-4.46875 0.93694,-2.74629 3.14054,-6.3612 5.20117,-9.35156 -0.3365,-0.0926 -0.66888,-0.20136 -0.99218,-0.32422 -2.08253,3.03811 -4.30974,6.66106 -5.25391,9.56641 l -0.0606,0.18554 0.0801,0.17578 c 1.85169,4.03748 6.19381,5.50082 10.3711,5.21485 4.17729,-0.28597 8.30847,-2.24723 9.9746,-5.33399 l 0.0781,-0.14453 -0.0234,-0.16211 c -0.40019,-2.81549 -2.87028,-6.55985 -5.23828,-9.72851 z m 0.0488,14.25586 c -0.32078,0.13155 -0.65028,0.25138 -0.98438,0.36132 0.2373,0.30707 0.48231,0.62895 0.73243,0.96289 2.31043,3.08474 4.63556,6.8175 5.03906,9.1875 -1.48092,2.53684 -5.21701,4.40032 -9.04102,4.66211 -3.83357,0.26244 -7.58634,-1.02961 -9.27734,-4.46875 0.96107,-2.81703 3.2561,-6.54871 5.36133,-9.58203 0.0355,-0.0512 0.0703,-0.10186 0.10547,-0.15234 -0.35895,-0.0591 -0.71341,-0.1327 -1.0625,-0.22266 -2.13671,3.09401 -4.47559,6.85166 -5.44922,9.84766 l -0.0606,0.18555 0.082,0.17773 c 1.85169,4.03748 6.19185,5.49887 10.36914,5.21289 4.17729,-0.28597 8.30848,-2.24722 9.97461,-5.33398 l 0.0781,-0.14453 -0.0234,-0.16211 c -0.40344,-2.8384 -2.90949,-6.62175 -5.29492,-9.80664 -0.1841,-0.2458 -0.36686,-0.48751 -0.54883,-0.72461 z" />
  </g>
  <g
     id="g120"
     style="fill:#ffccaa"
     transform="translate(47.795397,18.987212)">
    <path
       style="fill:#ffccaa;stroke:#000000;stroke-width:1px;stroke-linecap:butt;stroke-linejoin:miter;stroke-opacity:1"
       d="m 161.71867,216.06138 c 2.80352,3.76263 11.35015,3.81876 14.07673,0 -0.093,-7.05511 0.074,-22.1112 -7.52942,-21.9335 -7.62838,0.15485 -6.8503,14.5057 -6.54731,21.9335 z"
       id="path12"
       sodipodi:nodetypes="cccc" />
    <path
       style="fill:#ffccaa;stroke:#000000;stroke-width:0.6;stroke-linecap:round;stroke-linejoin:miter;stroke-dasharray:none;stroke-opacity:1"
       d="m 163.51918,218.2711 v -6.38363"
       id="path13" />
    <path
       style="fill:#ffccaa;stroke:#000000;stroke-width:0.6;stroke-linecap:round;stroke-linejoin:miter;stroke-dasharray:none;stroke-opacity:1"
       d="m 165.07417,218.84399 v -10.4757"
       id="path14" />
    <path
       style="fill:#ffccaa;stroke:#000000;stroke-width:0.6;stroke-linecap:round;stroke-linejoin:miter;stroke-dasharray:none;stroke-opacity:1"
       d="M 172.35806,219.00768 V 207.22251"
       id="path15" />
    <path
       style="fill:#ffccaa;stroke:#000000;stroke-width:0.6;stroke-linecap:round;stroke-linejoin:miter;stroke-dasharray:none;stroke-opacity:1"
       d="m 174.40409,217.94373 v -5.15601"
       id="path16" />
    <ellipse
       style="fill:#ffccaa;stroke:#000000;stroke-width:1;stroke-linecap:round;stroke-linejoin:round;stroke-dasharray:none;paint-order:markers stroke fill"
       id="path17"
       cx="168.2878"
       cy="193.69301"
       rx="2.5463078"
       ry="2.2569547" />
  </g>
  <path
     style="fill:none;stroke:#000000;stroke-width:1px;stroke-linecap:butt;stroke-linejoin:miter;stroke-opacity:1"
     d="M 184.96164,92.971867 V 66.127877"
     id="path50" />
  <path
     style="fill:none;stroke:#000000;stroke-width:1px;stroke-linecap:butt;stroke-linejoin:miter;stroke-opacity:1"
     d="M 199.36573,84.132992 V 65.473146"
     id="path51" />
  <path
     style="baseline-shift:baseline;display:inline;overflow:visible;opacity:1;vector-effect:none;fill:#ffeeaa;stroke:#000000;stroke-linecap:round;stroke-linejoin:round;stroke-opacity:1;enable-background:accumulate;stop-color:#000000;stop-opacity:1"
     d="m 192.27203,58.731573 c -6.69398,0.259816 -13.14906,1.323161 -18.58008,3.841797 -6.14581,2.850124 -17.42699,9.816491 -31.74023,19 -14.31325,9.183509 -31.33956,20.46561 -47.693363,31.43555 -32.707609,21.93988 -62.722656,42.6289 -62.722656,42.6289 -2.274105,1.56717 -20.033606,16.30276 -18.465998,18.57656 1.567165,2.27411 21.867979,-8.77457 24.141779,-10.34218 0,0 29.974426,-20.66222 62.617187,-42.5586 16.321381,-10.94819 33.309821,-22.204631 47.523441,-31.324214 14.21361,-9.119583 25.97143,-16.221886 30.54687,-18.34375 6.86245,-3.182464 21.20092,-3.310606 33.30078,-1.992188 12.09986,1.318419 22.0586,3.634766 22.0586,3.634766 2.68977,0.627723 5.37899,-1.044406 6.00586,-3.734375 0.62649,-2.689117 -1.04536,-5.377012 -3.73438,-6.003907 0,0 -10.47785,-2.446643 -23.24609,-3.83789 -6.38413,-0.695624 -13.31774,-1.240285 -20.01172,-0.980469 z"
     id="path2"
     sodipodi:nodetypes="sssscccsssscccss" />
  <path
     style="fill:#ffccaa;stroke:#000000;stroke-width:1px;stroke-linecap:butt;stroke-linejoin:miter;stroke-opacity:1"
     d="M 202.96675,51.39642 C 223.2665,45.480133 251.7442,52.161208 248.47059,95.590793 216.97112,86.844016 186.99865,71.240438 202.96675,51.39642 Z"
     id="path3"
     sodipodi:nodetypes="ccc" />
  <path
     style="fill:#ffccaa;stroke:#000000;stroke-width:1px;stroke-linecap:butt;stroke-linejoin:miter;stroke-opacity:1"
     d="m 194.66918,42.266336 c 2.02744,-17.96646 14.92723,-37.9975574 43.11111,-20.432142 -15.17928,21.688064 -34.50982,39.810468 -43.11111,20.432142 z"
     id="path18"
     sodipodi:nodetypes="ccc" />
  <ellipse
     style="fill:url(#linearGradient20);stroke:#000000;stroke-width:2;stroke-linecap:round;stroke-linejoin:round;stroke-dasharray:none;stroke-opacity:1;paint-order:markers stroke fill;fill-opacity:1"
     id="path19"
     cx="188.72635"
     cy="53.033249"
     rx="11.948849"
     ry="11.130435" />
  <ellipse
     style="fill:#ffffff;fill-opacity:1;stroke:none;stroke-width:2;stroke-linecap:round;stroke-linejoin:round;stroke-dasharray:none;stroke-opacity:1;paint-order:markers stroke fill"
     id="path20"
     cx="186.16983"
     cy="60.76416"
     rx="0.7523182"
     ry="0.69444758" />
  <ellipse
     style="fill:#ffffff;fill-opacity:1;stroke:none;stroke-width:2;stroke-linecap:round;stroke-linejoin:round;stroke-dasharray:none;stroke-opacity:1;paint-order:markers stroke fill"
     id="ellipse20"
     cx="183.10269"
     cy="58.333599"
     rx="1.8518602"
     ry="1.8518603" />
  <path
     style="fill:#ffffff;stroke:none;stroke-width:1px;stroke-linecap:butt;stroke-linejoin:miter;stroke-opacity:1"
     d="m 187.74425,45.012787 c 5.86802,-0.779977 10.54964,3.516731 10.47569,8.675192 -2.87294,-3.623192 -5.78365,-5.836757 -10.47569,-8.675192 z"
     id="path21"
     sodipodi:nodetypes="ccc" />
  <path
     style="fill:none;stroke:#000000;stroke-width:1px;stroke-linecap:butt;stroke-linejoin:miter;stroke-opacity:1"
     d="M 196.7468,43.539642 221.6266,27.826087"
     id="path52" />
  <path
     style="fill:none;stroke:#000000;stroke-width:1px;stroke-linecap:butt;stroke-linejoin:miter;stroke-opacity:1"
     d="m 201.00256,54.670077 21.27877,11.785166"
     id="path53" />
  <g
     id="g88"
     transform="translate(17.67775,29.462915)"
     style="fill:url(#linearGradient96)">
    <path
       style="display:inline;fill:url(#linearGradient94);stroke:#000000;stroke-width:1px;stroke-linecap:butt;stroke-linejoin:miter;stroke-opacity:1"
       d="M 168.1023,76.439898 V 202.14834"
       id="path86" />
    <path
       id="path87"
       style="baseline-shift:baseline;display:inline;overflow:visible;vector-effect:none;fill:url(#linearGradient95);fill-opacity:1;enable-background:accumulate;stop-color:#000000;stop-opacity:1"
       d="m 167.3882,62.368257 c -0.30378,0.379096 -1.7393,2.14738 -3.69336,4.96289 -2.10523,3.033326 -4.39831,6.765007 -5.35938,9.582032 1.69099,3.439144 5.44379,4.731192 9.27735,4.46875 3.82401,-0.261786 7.56009,-2.125271 9.04101,-4.66211 -0.4035,-2.369995 -2.72863,-6.102754 -5.03906,-9.1875 -2.15456,-2.876646 -3.89045,-4.789409 -4.22656,-5.164062 z m 3.57617,19.4375 c -1.06045,0.303516 -2.1705,0.498045 -3.2832,0.574219 -1.07385,0.07352 -2.15847,0.03088 -3.20899,-0.140625 -0.14631,0.207451 -0.29623,0.422147 -0.44922,0.642578 -2.10522,3.033315 -4.40026,6.763056 -5.36133,9.580078 1.69061,3.440335 5.4432,4.733184 9.27735,4.470703 3.82405,-0.26179 7.56209,-2.125226 9.04297,-4.662109 -0.40254,-2.369883 -2.72997,-6.101918 -5.04102,-9.1875 -0.33724,-0.450257 -0.6636,-0.876436 -0.97656,-1.277344 z m 0.43164,15.517578 c -1.0924,0.320901 -2.23883,0.526752 -3.38867,0.605469 -1.10859,0.07589 -2.22857,0.02948 -3.31055,-0.15625 -0.11325,0.161154 -0.22858,0.325388 -0.3457,0.49414 -2.10521,3.033306 -4.40025,6.765016 -5.36133,9.582036 1.691,3.43914 5.44377,4.73119 9.27734,4.46875 3.82406,-0.26179 7.56015,-2.12522 9.04102,-4.66211 -0.4035,-2.37 -2.72863,-6.10275 -5.03906,-9.187504 -0.30005,-0.400603 -0.59189,-0.782865 -0.87305,-1.144531 z m -0.48633,15.603515 c -0.84136,0.19862 -1.70726,0.32932 -2.57422,0.38867 -1.40485,0.0962 -2.82907,-0.005 -4.16992,-0.33594 -0.15348,0.21738 -0.30986,0.44208 -0.4707,0.67383 -2.10523,3.03332 -4.39831,6.765 -5.35938,9.58203 1.69099,3.43914 5.44379,4.73119 9.27735,4.46875 3.82401,-0.26179 7.56009,-2.12527 9.04101,-4.66211 -0.4035,-2.37 -2.72863,-6.10276 -5.03906,-9.1875 -0.24104,-0.32181 -0.4759,-0.63084 -0.70508,-0.92773 z m -0.75391,15.4082 c -0.81042,0.18601 -1.64131,0.31015 -2.4746,0.36719 -0.99572,0.0682 -2.00004,0.0362 -2.97852,-0.10547 -0.31625,0.4393 -0.6539,0.91585 -1.00781,1.42578 -2.10521,3.0333 -4.3983,6.76306 -5.35938,9.58008 1.69063,3.44027 5.44323,4.73318 9.27735,4.4707 3.82452,-0.26182 7.56245,-2.12474 9.04296,-4.6621 -0.40256,-2.36989 -2.72996,-6.10193 -5.04101,-9.1875 -0.51447,-0.68689 -1.00562,-1.31935 -1.45899,-1.88868 z m 1.32032,16.00391 c -1.21253,0.39303 -2.50181,0.64194 -3.79492,0.73047 -1.24747,0.0854 -2.5087,0.0159 -3.71485,-0.23242 -2.08937,3.01817 -4.35238,6.70667 -5.30469,9.49804 1.69097,3.4392 5.44376,4.73119 9.27735,4.46875 3.82342,-0.26175 7.56158,-2.12391 9.04297,-4.66015 -0.40254,-2.36988 -2.72997,-6.10388 -5.04102,-9.18946 -0.1575,-0.21029 -0.3122,-0.41547 -0.46484,-0.61523 z m 0,14.83398 c -1.11618,0.33463 -2.29104,0.54829 -3.46875,0.62891 -1.51099,0.10344 -3.04258,-0.021 -4.47071,-0.41406 -2.06063,2.99036 -4.26423,6.60527 -5.20117,9.35156 1.69099,3.43915 5.44379,4.7312 9.27735,4.46875 3.82401,-0.26178 7.56009,-2.12527 9.04101,-4.66211 -0.4035,-2.36999 -2.72863,-6.10275 -5.03906,-9.1875 -0.0467,-0.0623 -0.0924,-0.12411 -0.13867,-0.18555 z m 0.0605,14.28125 c -1.23045,0.40494 -2.5404,0.66193 -3.85546,0.75196 -1.07894,0.0739 -2.16944,0.0312 -3.22461,-0.14258 -0.0352,0.0505 -0.07,0.10117 -0.10547,0.15234 -2.10523,3.03332 -4.40026,6.765 -5.36133,9.58203 1.691,3.43914 5.44377,4.73119 9.27734,4.46875 3.82401,-0.26179 7.5601,-2.12527 9.04102,-4.66211 -0.4035,-2.37 -2.72863,-6.10276 -5.03906,-9.1875 -0.25012,-0.33394 -0.49513,-0.65582 -0.73243,-0.96289 z" />
    <path
       id="path88"
       style="baseline-shift:baseline;display:inline;overflow:visible;vector-effect:none;fill:#000000;enable-background:accumulate;stop-color:#000000;stop-opacity:1"
       d="m 167.34523,60.786225 -0.36719,0.455079 c 0,0 -1.93124,2.389601 -4.10352,5.519531 -2.17228,3.12993 -4.58985,6.983901 -5.58398,10.042969 l -0.0606,0.185546 0.0801,0.177735 c 1.85169,4.03748 6.19381,5.498863 10.3711,5.21289 4.17729,-0.285972 8.30847,-2.247221 9.9746,-5.333984 l 0.0781,-0.144531 -0.0234,-0.16211 c -0.40345,-2.838398 -2.91144,-6.621754 -5.29687,-9.80664 -2.38543,-3.184887 -4.67578,-5.712891 -4.67578,-5.712891 z m 0.043,1.582032 c 0.33611,0.374653 2.072,2.287416 4.22656,5.164062 2.31043,3.084746 4.63556,6.817505 5.03906,9.1875 -1.48092,2.536839 -5.217,4.400324 -9.04101,4.66211 -3.83356,0.262442 -7.58636,-1.029606 -9.27735,-4.46875 0.96107,-2.817025 3.25415,-6.548706 5.35938,-9.582032 1.95406,-2.81551 3.38958,-4.583794 3.69336,-4.96289 z m 4.58786,19.109375 c -0.33101,0.12043 -0.66893,0.230013 -1.01172,0.328125 0.31296,0.400908 0.63932,0.827086 0.97656,1.277343 2.31105,3.085583 4.63848,6.817618 5.04102,9.1875 -1.48088,2.536883 -5.21892,4.40032 -9.04297,4.66211 -3.83415,0.262481 -7.58674,-1.030368 -9.27735,-4.470703 0.96107,-2.817022 3.25611,-6.546763 5.36133,-9.580078 0.15299,-0.220431 0.30291,-0.435128 0.44922,-0.642579 -0.36009,-0.05879 -0.71617,-0.132859 -1.06641,-0.222656 -0.068,0.09729 -0.13649,0.196107 -0.20507,0.294922 -2.17227,3.12993 -4.58986,6.981947 -5.58399,10.041016 l -0.0605,0.185547 0.082,0.177734 c 1.85169,4.037481 6.19185,5.498864 10.36914,5.212891 4.17729,-0.285972 8.30848,-2.245269 9.97461,-5.332032 l 0.0781,-0.144531 -0.0234,-0.164062 c -0.40345,-2.838399 -2.90949,-6.619801 -5.29492,-9.804688 -0.25752,-0.343832 -0.51308,-0.679653 -0.76562,-1.005859 z m 0.42578,15.511718 c -0.32904,0.122355 -0.66476,0.233786 -1.00586,0.333985 0.28116,0.361666 0.573,0.743928 0.87305,1.144531 2.31043,3.084754 4.63556,6.817504 5.03906,9.187504 -1.48087,2.53689 -5.21696,4.40032 -9.04102,4.66211 -3.83357,0.26244 -7.58634,-1.02961 -9.27734,-4.46875 0.96108,-2.81702 3.25612,-6.54873 5.36133,-9.582036 0.11712,-0.168752 0.23245,-0.332986 0.3457,-0.49414 -0.35811,-0.06147 -0.71258,-0.138079 -1.06055,-0.230469 -0.0359,0.05149 -0.0714,0.102391 -0.10742,0.154297 -2.17228,3.129938 -4.58985,6.983908 -5.58398,10.042968 l -0.0606,0.18555 0.082,0.17773 c 1.85169,4.03748 6.19185,5.49886 10.36914,5.21289 4.17729,-0.28598 8.30848,-2.24527 9.97461,-5.33203 l 0.0781,-0.14648 -0.0234,-0.16211 c -0.40344,-2.8384 -2.90949,-6.62175 -5.29492,-9.806643 -0.22408,-0.299172 -0.44736,-0.592878 -0.66797,-0.878907 z m -0.45117,15.65234 c -0.34185,0.10615 -0.68935,0.20214 -1.04102,0.28516 0.22918,0.29689 0.46404,0.60592 0.70508,0.92773 2.31043,3.08474 4.63556,6.8175 5.03906,9.1875 -1.48092,2.53684 -5.217,4.40032 -9.04101,4.66211 -3.83356,0.26244 -7.58636,-1.02961 -9.27735,-4.46875 0.96107,-2.81703 3.25415,-6.54871 5.35938,-9.58203 0.16084,-0.23175 0.31722,-0.45645 0.4707,-0.67383 -0.34296,-0.0846 -0.67928,-0.18375 -1.00977,-0.29882 -0.0931,0.13274 -0.1871,0.26668 -0.28125,0.40234 -2.17228,3.12993 -4.58985,6.9839 -5.58398,10.04297 l -0.0606,0.18555 0.0801,0.17773 c 1.85169,4.03748 6.19381,5.49887 10.3711,5.21289 4.17729,-0.28597 8.30847,-2.24722 9.9746,-5.33398 l 0.0781,-0.14453 -0.0234,-0.16211 c -0.40345,-2.8384 -2.91144,-6.62175 -5.29687,-9.80664 -0.1552,-0.20722 -0.30911,-0.41215 -0.46289,-0.61329 z m -0.74219,15.41407 c -0.3454,0.10505 -0.69764,0.19779 -1.05274,0.27929 0.45337,0.56933 0.94452,1.20179 1.45899,1.88868 2.31105,3.08557 4.63845,6.81761 5.04101,9.1875 -1.48051,2.53736 -5.21844,4.40028 -9.04296,4.6621 -3.83412,0.26248 -7.58672,-1.03043 -9.27735,-4.4707 0.96108,-2.81702 3.25417,-6.54678 5.35938,-9.58008 0.35391,-0.50993 0.69156,-0.98648 1.00781,-1.42578 -0.3649,-0.0528 -0.72639,-0.12094 -1.08203,-0.20508 -0.24351,0.34151 -0.49341,0.69646 -0.7461,1.06055 -2.17228,3.12994 -4.58985,6.98195 -5.58398,10.04102 l -0.0606,0.18554 0.0801,0.17774 c 1.85169,4.03748 6.19381,5.49886 10.3711,5.21289 4.17729,-0.28597 8.30847,-2.24527 9.9746,-5.33203 l 0.0781,-0.14453 -0.0234,-0.16407 c -0.40345,-2.8384 -2.91144,-6.61979 -5.29687,-9.80468 -0.40836,-0.54522 -0.81331,-1.07094 -1.20508,-1.56836 z m 1.25195,15.92578 c -0.32142,0.13004 -0.64985,0.24899 -0.98437,0.35742 0.15264,0.19976 0.30734,0.40494 0.46484,0.61523 2.31105,3.08558 4.63848,6.81958 5.04102,9.18946 -1.48139,2.53624 -5.21955,4.3984 -9.04297,4.66015 -3.83359,0.26244 -7.58638,-1.02955 -9.27735,-4.46875 0.95231,-2.79137 3.21532,-6.47987 5.30469,-9.49804 -0.3503,-0.0721 -0.69603,-0.161 -1.03515,-0.26368 -2.09925,3.05551 -4.36139,6.71963 -5.31446,9.65235 l -0.0605,0.18555 0.082,0.17773 c 1.85169,4.03748 6.19185,5.49887 10.36914,5.21289 4.17729,-0.28597 8.30848,-2.24722 9.97461,-5.33398 l 0.0781,-0.14454 -0.0234,-0.1621 c -0.40345,-2.8384 -2.90949,-6.62176 -5.29492,-9.80665 -0.094,-0.12554 -0.18764,-0.24965 -0.28125,-0.37304 z m 0.0117,14.85547 c -0.32573,0.12308 -0.65826,0.23465 -0.99609,0.33593 0.0463,0.0614 0.092,0.1232 0.13867,0.18555 2.31043,3.08475 4.63556,6.81751 5.03906,9.1875 -1.48092,2.53684 -5.217,4.40033 -9.04101,4.66211 -3.83356,0.26245 -7.58636,-1.0296 -9.27735,-4.46875 0.93694,-2.74629 3.14054,-6.3612 5.20117,-9.35156 -0.3365,-0.0926 -0.66888,-0.20136 -0.99218,-0.32422 -2.08253,3.03811 -4.30974,6.66106 -5.25391,9.56641 l -0.0606,0.18554 0.0801,0.17578 c 1.85169,4.03748 6.19381,5.50082 10.3711,5.21485 4.17729,-0.28597 8.30847,-2.24723 9.9746,-5.33399 l 0.0781,-0.14453 -0.0234,-0.16211 c -0.40019,-2.81549 -2.87028,-6.55985 -5.23828,-9.72851 z m 0.0488,14.25586 c -0.32078,0.13155 -0.65028,0.25138 -0.98438,0.36132 0.2373,0.30707 0.48231,0.62895 0.73243,0.96289 2.31043,3.08474 4.63556,6.8175 5.03906,9.1875 -1.48092,2.53684 -5.21701,4.40032 -9.04102,4.66211 -3.83357,0.26244 -7.58634,-1.02961 -9.27734,-4.46875 0.96107,-2.81703 3.2561,-6.54871 5.36133,-9.58203 0.0355,-0.0512 0.0703,-0.10186 0.10547,-0.15234 -0.35895,-0.0591 -0.71341,-0.1327 -1.0625,-0.22266 -2.13671,3.09401 -4.47559,6.85166 -5.44922,9.84766 l -0.0606,0.18555 0.082,0.17773 c 1.85169,4.03748 6.19185,5.49887 10.36914,5.21289 4.17729,-0.28597 8.30848,-2.24722 9.97461,-5.33398 l 0.0781,-0.14453 -0.0234,-0.16211 c -0.40344,-2.8384 -2.90949,-6.62175 -5.29492,-9.80664 -0.1841,-0.2458 -0.36686,-0.48751 -0.54883,-0.72461 z" />
  </g>
  <g
     id="g91"
     transform="translate(31.427111,12.439897)"
     style="fill:url(#linearGradient93)">
    <path
       style="display:inline;fill:url(#linearGradient91);stroke:#000000;stroke-width:1px;stroke-linecap:butt;stroke-linejoin:miter;stroke-opacity:1"
       d="M 168.1023,76.439898 V 202.14834"
       id="path89" />
    <path
       id="path90"
       style="baseline-shift:baseline;display:inline;overflow:visible;vector-effect:none;fill:url(#linearGradient92);fill-opacity:1;enable-background:accumulate;stop-color:#000000;stop-opacity:1"
       d="m 167.3882,62.368257 c -0.30378,0.379096 -1.7393,2.14738 -3.69336,4.96289 -2.10523,3.033326 -4.39831,6.765007 -5.35938,9.582032 1.69099,3.439144 5.44379,4.731192 9.27735,4.46875 3.82401,-0.261786 7.56009,-2.125271 9.04101,-4.66211 -0.4035,-2.369995 -2.72863,-6.102754 -5.03906,-9.1875 -2.15456,-2.876646 -3.89045,-4.789409 -4.22656,-5.164062 z m 3.57617,19.4375 c -1.06045,0.303516 -2.1705,0.498045 -3.2832,0.574219 -1.07385,0.07352 -2.15847,0.03088 -3.20899,-0.140625 -0.14631,0.207451 -0.29623,0.422147 -0.44922,0.642578 -2.10522,3.033315 -4.40026,6.763056 -5.36133,9.580078 1.69061,3.440335 5.4432,4.733184 9.27735,4.470703 3.82405,-0.26179 7.56209,-2.125226 9.04297,-4.662109 -0.40254,-2.369883 -2.72997,-6.101918 -5.04102,-9.1875 -0.33724,-0.450257 -0.6636,-0.876436 -0.97656,-1.277344 z m 0.43164,15.517578 c -1.0924,0.320901 -2.23883,0.526752 -3.38867,0.605469 -1.10859,0.07589 -2.22857,0.02948 -3.31055,-0.15625 -0.11325,0.161154 -0.22858,0.325388 -0.3457,0.49414 -2.10521,3.033306 -4.40025,6.765016 -5.36133,9.582036 1.691,3.43914 5.44377,4.73119 9.27734,4.46875 3.82406,-0.26179 7.56015,-2.12522 9.04102,-4.66211 -0.4035,-2.37 -2.72863,-6.10275 -5.03906,-9.187504 -0.30005,-0.400603 -0.59189,-0.782865 -0.87305,-1.144531 z m -0.48633,15.603515 c -0.84136,0.19862 -1.70726,0.32932 -2.57422,0.38867 -1.40485,0.0962 -2.82907,-0.005 -4.16992,-0.33594 -0.15348,0.21738 -0.30986,0.44208 -0.4707,0.67383 -2.10523,3.03332 -4.39831,6.765 -5.35938,9.58203 1.69099,3.43914 5.44379,4.73119 9.27735,4.46875 3.82401,-0.26179 7.56009,-2.12527 9.04101,-4.66211 -0.4035,-2.37 -2.72863,-6.10276 -5.03906,-9.1875 -0.24104,-0.32181 -0.4759,-0.63084 -0.70508,-0.92773 z m -0.75391,15.4082 c -0.81042,0.18601 -1.64131,0.31015 -2.4746,0.36719 -0.99572,0.0682 -2.00004,0.0362 -2.97852,-0.10547 -0.31625,0.4393 -0.6539,0.91585 -1.00781,1.42578 -2.10521,3.0333 -4.3983,6.76306 -5.35938,9.58008 1.69063,3.44027 5.44323,4.73318 9.27735,4.4707 3.82452,-0.26182 7.56245,-2.12474 9.04296,-4.6621 -0.40256,-2.36989 -2.72996,-6.10193 -5.04101,-9.1875 -0.51447,-0.68689 -1.00562,-1.31935 -1.45899,-1.88868 z m 1.32032,16.00391 c -1.21253,0.39303 -2.50181,0.64194 -3.79492,0.73047 -1.24747,0.0854 -2.5087,0.0159 -3.71485,-0.23242 -2.08937,3.01817 -4.35238,6.70667 -5.30469,9.49804 1.69097,3.4392 5.44376,4.73119 9.27735,4.46875 3.82342,-0.26175 7.56158,-2.12391 9.04297,-4.66015 -0.40254,-2.36988 -2.72997,-6.10388 -5.04102,-9.18946 -0.1575,-0.21029 -0.3122,-0.41547 -0.46484,-0.61523 z m 0,14.83398 c -1.11618,0.33463 -2.29104,0.54829 -3.46875,0.62891 -1.51099,0.10344 -3.04258,-0.021 -4.47071,-0.41406 -2.06063,2.99036 -4.26423,6.60527 -5.20117,9.35156 1.69099,3.43915 5.44379,4.7312 9.27735,4.46875 3.82401,-0.26178 7.56009,-2.12527 9.04101,-4.66211 -0.4035,-2.36999 -2.72863,-6.10275 -5.03906,-9.1875 -0.0467,-0.0623 -0.0924,-0.12411 -0.13867,-0.18555 z m 0.0605,14.28125 c -1.23045,0.40494 -2.5404,0.66193 -3.85546,0.75196 -1.07894,0.0739 -2.16944,0.0312 -3.22461,-0.14258 -0.0352,0.0505 -0.07,0.10117 -0.10547,0.15234 -2.10523,3.03332 -4.40026,6.765 -5.36133,9.58203 1.691,3.43914 5.44377,4.73119 9.27734,4.46875 3.82401,-0.26179 7.5601,-2.12527 9.04102,-4.66211 -0.4035,-2.37 -2.72863,-6.10276 -5.03906,-9.1875 -0.25012,-0.33394 -0.49513,-0.65582 -0.73243,-0.96289 z" />
    <path
       id="path91"
       style="baseline-shift:baseline;display:inline;overflow:visible;vector-effect:none;fill:#000000;enable-background:accumulate;stop-color:#000000;stop-opacity:1"
       d="m 167.34523,60.786225 -0.36719,0.455079 c 0,0 -1.93124,2.389601 -4.10352,5.519531 -2.17228,3.12993 -4.58985,6.983901 -5.58398,10.042969 l -0.0606,0.185546 0.0801,0.177735 c 1.85169,4.03748 6.19381,5.498863 10.3711,5.21289 4.17729,-0.285972 8.30847,-2.247221 9.9746,-5.333984 l 0.0781,-0.144531 -0.0234,-0.16211 c -0.40345,-2.838398 -2.91144,-6.621754 -5.29687,-9.80664 -2.38543,-3.184887 -4.67578,-5.712891 -4.67578,-5.712891 z m 0.043,1.582032 c 0.33611,0.374653 2.072,2.287416 4.22656,5.164062 2.31043,3.084746 4.63556,6.817505 5.03906,9.1875 -1.48092,2.536839 -5.217,4.400324 -9.04101,4.66211 -3.83356,0.262442 -7.58636,-1.029606 -9.27735,-4.46875 0.96107,-2.817025 3.25415,-6.548706 5.35938,-9.582032 1.95406,-2.81551 3.38958,-4.583794 3.69336,-4.96289 z m 4.58786,19.109375 c -0.33101,0.12043 -0.66893,0.230013 -1.01172,0.328125 0.31296,0.400908 0.63932,0.827086 0.97656,1.277343 2.31105,3.085583 4.63848,6.817618 5.04102,9.1875 -1.48088,2.536883 -5.21892,4.40032 -9.04297,4.66211 -3.83415,0.262481 -7.58674,-1.030368 -9.27735,-4.470703 0.96107,-2.817022 3.25611,-6.546763 5.36133,-9.580078 0.15299,-0.220431 0.30291,-0.435128 0.44922,-0.642579 -0.36009,-0.05879 -0.71617,-0.132859 -1.06641,-0.222656 -0.068,0.09729 -0.13649,0.196107 -0.20507,0.294922 -2.17227,3.12993 -4.58986,6.981947 -5.58399,10.041016 l -0.0605,0.185547 0.082,0.177734 c 1.85169,4.037481 6.19185,5.498864 10.36914,5.212891 4.17729,-0.285972 8.30848,-2.245269 9.97461,-5.332032 l 0.0781,-0.144531 -0.0234,-0.164062 c -0.40345,-2.838399 -2.90949,-6.619801 -5.29492,-9.804688 -0.25752,-0.343832 -0.51308,-0.679653 -0.76562,-1.005859 z m 0.42578,15.511718 c -0.32904,0.122355 -0.66476,0.233786 -1.00586,0.333985 0.28116,0.361666 0.573,0.743928 0.87305,1.144531 2.31043,3.084754 4.63556,6.817504 5.03906,9.187504 -1.48087,2.53689 -5.21696,4.40032 -9.04102,4.66211 -3.83357,0.26244 -7.58634,-1.02961 -9.27734,-4.46875 0.96108,-2.81702 3.25612,-6.54873 5.36133,-9.582036 0.11712,-0.168752 0.23245,-0.332986 0.3457,-0.49414 -0.35811,-0.06147 -0.71258,-0.138079 -1.06055,-0.230469 -0.0359,0.05149 -0.0714,0.102391 -0.10742,0.154297 -2.17228,3.129938 -4.58985,6.983908 -5.58398,10.042968 l -0.0606,0.18555 0.082,0.17773 c 1.85169,4.03748 6.19185,5.49886 10.36914,5.21289 4.17729,-0.28598 8.30848,-2.24527 9.97461,-5.33203 l 0.0781,-0.14648 -0.0234,-0.16211 c -0.40344,-2.8384 -2.90949,-6.62175 -5.29492,-9.806643 -0.22408,-0.299172 -0.44736,-0.592878 -0.66797,-0.878907 z m -0.45117,15.65234 c -0.34185,0.10615 -0.68935,0.20214 -1.04102,0.28516 0.22918,0.29689 0.46404,0.60592 0.70508,0.92773 2.31043,3.08474 4.63556,6.8175 5.03906,9.1875 -1.48092,2.53684 -5.217,4.40032 -9.04101,4.66211 -3.83356,0.26244 -7.58636,-1.02961 -9.27735,-4.46875 0.96107,-2.81703 3.25415,-6.54871 5.35938,-9.58203 0.16084,-0.23175 0.31722,-0.45645 0.4707,-0.67383 -0.34296,-0.0846 -0.67928,-0.18375 -1.00977,-0.29882 -0.0931,0.13274 -0.1871,0.26668 -0.28125,0.40234 -2.17228,3.12993 -4.58985,6.9839 -5.58398,10.04297 l -0.0606,0.18555 0.0801,0.17773 c 1.85169,4.03748 6.19381,5.49887 10.3711,5.21289 4.17729,-0.28597 8.30847,-2.24722 9.9746,-5.33398 l 0.0781,-0.14453 -0.0234,-0.16211 c -0.40345,-2.8384 -2.91144,-6.62175 -5.29687,-9.80664 -0.1552,-0.20722 -0.30911,-0.41215 -0.46289,-0.61329 z m -0.74219,15.41407 c -0.3454,0.10505 -0.69764,0.19779 -1.05274,0.27929 0.45337,0.56933 0.94452,1.20179 1.45899,1.88868 2.31105,3.08557 4.63845,6.81761 5.04101,9.1875 -1.48051,2.53736 -5.21844,4.40028 -9.04296,4.6621 -3.83412,0.26248 -7.58672,-1.03043 -9.27735,-4.4707 0.96108,-2.81702 3.25417,-6.54678 5.35938,-9.58008 0.35391,-0.50993 0.69156,-0.98648 1.00781,-1.42578 -0.3649,-0.0528 -0.72639,-0.12094 -1.08203,-0.20508 -0.24351,0.34151 -0.49341,0.69646 -0.7461,1.06055 -2.17228,3.12994 -4.58985,6.98195 -5.58398,10.04102 l -0.0606,0.18554 0.0801,0.17774 c 1.85169,4.03748 6.19381,5.49886 10.3711,5.21289 4.17729,-0.28597 8.30847,-2.24527 9.9746,-5.33203 l 0.0781,-0.14453 -0.0234,-0.16407 c -0.40345,-2.8384 -2.91144,-6.61979 -5.29687,-9.80468 -0.40836,-0.54522 -0.81331,-1.07094 -1.20508,-1.56836 z m 1.25195,15.92578 c -0.32142,0.13004 -0.64985,0.24899 -0.98437,0.35742 0.15264,0.19976 0.30734,0.40494 0.46484,0.61523 2.31105,3.08558 4.63848,6.81958 5.04102,9.18946 -1.48139,2.53624 -5.21955,4.3984 -9.04297,4.66015 -3.83359,0.26244 -7.58638,-1.02955 -9.27735,-4.46875 0.95231,-2.79137 3.21532,-6.47987 5.30469,-9.49804 -0.3503,-0.0721 -0.69603,-0.161 -1.03515,-0.26368 -2.09925,3.05551 -4.36139,6.71963 -5.31446,9.65235 l -0.0605,0.18555 0.082,0.17773 c 1.85169,4.03748 6.19185,5.49887 10.36914,5.21289 4.17729,-0.28597 8.30848,-2.24722 9.97461,-5.33398 l 0.0781,-0.14454 -0.0234,-0.1621 c -0.40345,-2.8384 -2.90949,-6.62176 -5.29492,-9.80665 -0.094,-0.12554 -0.18764,-0.24965 -0.28125,-0.37304 z m 0.0117,14.85547 c -0.32573,0.12308 -0.65826,0.23465 -0.99609,0.33593 0.0463,0.0614 0.092,0.1232 0.13867,0.18555 2.31043,3.08475 4.63556,6.81751 5.03906,9.1875 -1.48092,2.53684 -5.217,4.40033 -9.04101,4.66211 -3.83356,0.26245 -7.58636,-1.0296 -9.27735,-4.46875 0.93694,-2.74629 3.14054,-6.3612 5.20117,-9.35156 -0.3365,-0.0926 -0.66888,-0.20136 -0.99218,-0.32422 -2.08253,3.03811 -4.30974,6.66106 -5.25391,9.56641 l -0.0606,0.18554 0.0801,0.17578 c 1.85169,4.03748 6.19381,5.50082 10.3711,5.21485 4.17729,-0.28597 8.30847,-2.24723 9.9746,-5.33399 l 0.0781,-0.14453 -0.0234,-0.16211 c -0.40019,-2.81549 -2.87028,-6.55985 -5.23828,-9.72851 z m 0.0488,14.25586 c -0.32078,0.13155 -0.65028,0.25138 -0.98438,0.36132 0.2373,0.30707 0.48231,0.62895 0.73243,0.96289 2.31043,3.08474 4.63556,6.8175 5.03906,9.1875 -1.48092,2.53684 -5.21701,4.40032 -9.04102,4.66211 -3.83357,0.26244 -7.58634,-1.02961 -9.27734,-4.46875 0.96107,-2.81703 3.2561,-6.54871 5.36133,-9.58203 0.0355,-0.0512 0.0703,-0.10186 0.10547,-0.15234 -0.35895,-0.0591 -0.71341,-0.1327 -1.0625,-0.22266 -2.13671,3.09401 -4.47559,6.85166 -5.44922,9.84766 l -0.0606,0.18555 0.082,0.17773 c 1.85169,4.03748 6.19185,5.49887 10.36914,5.21289 4.17729,-0.28597 8.30848,-2.24722 9.97461,-5.33398 l 0.0781,-0.14453 -0.0234,-0.16211 c -0.40344,-2.8384 -2.90949,-6.62175 -5.29492,-9.80664 -0.1841,-0.2458 -0.36686,-0.48751 -0.54883,-0.72461 z" />
  </g>
  <g
     id="g100"
     style="fill:#ffccaa"
     transform="translate(18.005116,31.42711)">
    <path
       style="fill:#ffccaa;stroke:#000000;stroke-width:1px;stroke-linecap:butt;stroke-linejoin:miter;stroke-opacity:1"
       d="m 161.71867,216.06138 c 2.80352,3.76263 11.35015,3.81876 14.07673,0 -0.093,-7.05511 0.074,-22.1112 -7.52942,-21.9335 -7.62838,0.15485 -6.8503,14.5057 -6.54731,21.9335 z"
       id="path96"
       sodipodi:nodetypes="cccc" />
    <path
       style="fill:#ffccaa;stroke:#000000;stroke-width:0.6;stroke-linecap:round;stroke-linejoin:miter;stroke-dasharray:none;stroke-opacity:1"
       d="m 163.51918,218.2711 v -6.38363"
       id="path97" />
    <path
       style="fill:#ffccaa;stroke:#000000;stroke-width:0.6;stroke-linecap:round;stroke-linejoin:miter;stroke-dasharray:none;stroke-opacity:1"
       d="m 165.07417,218.84399 v -10.4757"
       id="path98" />
    <path
       style="fill:#ffccaa;stroke:#000000;stroke-width:0.6;stroke-linecap:round;stroke-linejoin:miter;stroke-dasharray:none;stroke-opacity:1"
       d="M 172.35806,219.00768 V 207.22251"
       id="path99" />
    <path
       style="fill:#ffccaa;stroke:#000000;stroke-width:0.6;stroke-linecap:round;stroke-linejoin:miter;stroke-dasharray:none;stroke-opacity:1"
       d="m 174.40409,217.94373 v -5.15601"
       id="path100" />
    <ellipse
       style="fill:#ffccaa;stroke:#000000;stroke-width:1;stroke-linecap:round;stroke-linejoin:round;stroke-dasharray:none;paint-order:markers stroke fill"
       id="ellipse100"
       cx="168.2878"
       cy="193.69301"
       rx="2.5463078"
       ry="2.2569547" />
  </g>
  <g
     id="g105"
     style="fill:#ffccaa"
     transform="translate(31.754476,13.421995)">
    <path
       style="fill:#ffccaa;stroke:#000000;stroke-width:1px;stroke-linecap:butt;stroke-linejoin:miter;stroke-opacity:1"
       d="m 161.71867,216.06138 c 2.80352,3.76263 11.35015,3.81876 14.07673,0 -0.093,-7.05511 0.074,-22.1112 -7.52942,-21.9335 -7.62838,0.15485 -6.8503,14.5057 -6.54731,21.9335 z"
       id="path101"
       sodipodi:nodetypes="cccc" />
    <path
       style="fill:#ffccaa;stroke:#000000;stroke-width:0.6;stroke-linecap:round;stroke-linejoin:miter;stroke-dasharray:none;stroke-opacity:1"
       d="m 163.51918,218.2711 v -6.38363"
       id="path102" />
    <path
       style="fill:#ffccaa;stroke:#000000;stroke-width:0.6;stroke-linecap:round;stroke-linejoin:miter;stroke-dasharray:none;stroke-opacity:1"
       d="m 165.07417,218.84399 v -10.4757"
       id="path103" />
    <path
       style="fill:#ffccaa;stroke:#000000;stroke-width:0.6;stroke-linecap:round;stroke-linejoin:miter;stroke-dasharray:none;stroke-opacity:1"
       d="M 172.35806,219.00768 V 207.22251"
       id="path104" />
    <path
       style="fill:#ffccaa;stroke:#000000;stroke-width:0.6;stroke-linecap:round;stroke-linejoin:miter;stroke-dasharray:none;stroke-opacity:1"
       d="m 174.40409,217.94373 v -5.15601"
       id="path105" />
    <ellipse
       style="fill:#ffccaa;stroke:#000000;stroke-width:1;stroke-linecap:round;stroke-linejoin:round;stroke-dasharray:none;paint-order:markers stroke fill"
       id="ellipse105"
       cx="168.2878"
       cy="193.69301"
       rx="2.5463078"
       ry="2.2569547" />
  </g>
</svg>
