<svg xmlns="http://www.w3.org/2000/svg" cursor="default" viewBox="0 0 256 256">
    <defs>
        <linearGradient id="linearGradient924" x1="18.12" x2="21.466" y1="241.29" y2="228.73" gradientTransform="scale(1 -1) rotate(-89.503 -.246 -.024)" gradientUnits="userSpaceOnUse">
            <stop offset="0" stop-color="#917c6f"/>
            <stop offset="1" stop-color="#ac9d93"/>
        </linearGradient>
        <linearGradient id="innoGrad4">
            <stop offset="0" stop-color="#ffb380"/>
            <stop offset="1" stop-color="#fca"/>
        </linearGradient>
    </defs>
    <path fill="#f55" stroke="#000" d="M128.428 15.81c-5.27.127-10.505.985-14.307 2.71-6.499 5.024-12.3 17.282-7.06 23.609 9.08 10.963 34.718 7.538 42.476-4.397 3.87-5.953-.775-16.188-6.596-20.255-3.94-1.19-9.244-1.793-14.513-1.666zM75.457 120.69a8.123 8.123 0 00-.805.029c-3.072.263-1.985 2.236-4.861 7.869 2.176 7.812 14.123 15.663 21.645 11.111 5.02-6.46-7.539-18.893-15.979-19.01zm100.3 2.921c-.968.011-1.882.196-2.609.578-2.044 1.078-.695 4.652-1.736 6.715-2.124 4.213-12.152 7.566-8.912 10.994 1.915 5.946 21.037-6.249 19.908-14.351-.34-2.439-3.744-3.969-6.65-3.936zm-29.077 95.432c-21.461-.186-49.85 7.451-66.639 13.715-2.205.823-5.954 2.727-5.074 4.91 2.04 5.377 74.976 8.933 96.41 1.636.404-13.932-8.005-20.117-24.697-20.261z"/>
    <path fill="#faa" stroke="#000" d="M143.059 17.593c7.948 4.207 8.03 2.502 23.243 11.215 11.775 16.57 11.055 68.158 16.04 99.028-10.537.252-5.59 11.311-20.132 14.404-.792-11.147-9.542-64.532-9.542-64.532s1.155 14.519-2.622 21.24c3.416 3.537 6.762 12.193 6.762 12.193s13.466 99.729 15.55 127.509c-44.238-10.359-84.172 13.803-97.391-.655 2.985-31.645 15.04-84.228 24.388-135.53 1.072-1.966 4.911-4.583 4.911-4.583l-4.91-9.166 1.473-14.404s-6.514 55.198-9.658 65.31C79.188 138.93 76.488 123.365 70.056 128c4.713-30.714 21.606-98.864 21.606-98.864v0s14.317-8.605 23.57-10.947c-5.244 20.428 32.21 18.713 27.827-.596z"/>
    <path d="M107.687 94.607c-1.449-1.369-.265-7.71-1.778-5.774-.667 1.284-.355 7.85 1.11 6.568l.668-.794zm3.469 1.042c-.51-1.962.571-7.149-.049-6.94-1.639 2.076-1.114 6.477-1.05 8.249l1.099-1.309zm-4.609 7.546c-.183 3.229-1.798 7.329-2.407 9.7 2.074-2.569 2.346-6.169 3.309-9.258.564-2.514.53-2.14-.902-.442zm-5.049-29.017c.854-2.705 2.438-7.736 1.42-9.276-1.61 2.561-.566 6.551-2.327 9.405-1.033 2.34.041.555.907-.129zm52.088 2.779c-.343-5.554-.497-11.18-.091-16.735-.568-1.733 2.438-6.556 1.805-5.922-4.068 3.404-3.63 9.38-3.706 14.187-.026 3.516.792 8.074.728 11.589l1.264-3.12zM89.496 47.99c-.335 3.738.727-4.822.13-.765-.825 4.721-2.969 9.949-.183 14.428a79.78 79.78 0 019.038 19.663c.655 2.355 1.471 4.262 1.558.917-2.629-6.761-4.67-13.84-8.622-20.006-1.666-2.79-3.608-5.911-2.947-9.303-.247 1.86-.464 3.053 0 .45.578-2.076 1.505-7.226 1.369-7.82zm2.315-15.159c-.142 11.886 2.126 23.714 5.81 34.984.796 2.009 1.284 7.622 1.107 7.358.415-2.912.214-1.678-.043.207-.137.923.922-4.67.129-5.913-1.244-6.512-3.971-12.657-4.843-19.264-1.3-6.67-1.996-13.47-1.753-20.271zm9.028 17.011c.346 5.3 1.565 10.53 1.56 15.872.37 2.161-.444 8.746.102 4.265-.186 1.251-1.27 5.387-.942 5.154 2.375-8.73.69-17.82-.305-26.612.108-3.867-.22.557-.415 1.321zm64.005 4.63c.05 2.369-.119 6.277.176 2.938-1.43 6.683-3.755 13.875-9.293 18.278-2.037 1.499-3.78.295-3.266 3.38-.433.865 1.744-4.833 2.945-6.331.807-2.328 3.526-3.604 3.446-6.182-1.545.446-3.895 5.352-5.169 7.641-.985 1.757-2.647 7.628 1.007 4.322 5.986-4.225 8.501-11.718 9.977-18.596.557-2.33.649-6.499.548-8.113l-.371 2.663zm.694-22.107c.121 1.832-.232 6.995.23 2.558.173-1.04-1.176 4.107-1.814 5.422-3.2 8.428-6.236 17.051-10.882 24.786-.973 4.006 1.11-.152 1.951-1.793 4.073-8.188 7.273-16.79 10.21-25.437.786-2.027.784-7.382.646-7.972l-.34 2.436z"/>
    <path fill="#faa" stroke="#000" d="M108.913 20.139c2.94 36.963 48.693 13.043 39.93 0-1.077-.972-3.775-1.644-5.787-1.968 4.901 13.928-31.494 21.33-27.546-.347-2.06 1.137-4.39 1.183-6.597 2.315z"/>
</svg>
