<?xml version="1.0" encoding="UTF-8" standalone="no"?>
<svg
   cursor="default"
   viewBox="0 0 256 256"
   version="1.1"
   id="svg10"
   sodipodi:docname="zhiduo_opt.svg"
   inkscape:version="1.4.1-rc (d9e8dc1fe0, 2025-03-10)"
   xmlns:inkscape="http://www.inkscape.org/namespaces/inkscape"
   xmlns:sodipodi="http://sodipodi.sourceforge.net/DTD/sodipodi-0.dtd"
   xmlns="http://www.w3.org/2000/svg"
   xmlns:svg="http://www.w3.org/2000/svg">
  <defs
     id="defs10" />
  <sodipodi:namedview
     id="namedview10"
     pagecolor="#ffffff"
     bordercolor="#666666"
     borderopacity="1.0"
     inkscape:showpageshadow="2"
     inkscape:pageopacity="0.0"
     inkscape:pagecheckerboard="0"
     inkscape:deskcolor="#d1d1d1"
     inkscape:zoom="3.0390625"
     inkscape:cx="128.16452"
     inkscape:cy="128"
     inkscape:window-width="1854"
     inkscape:window-height="1010"
     inkscape:window-x="0"
     inkscape:window-y="0"
     inkscape:window-maximized="1"
     inkscape:current-layer="svg10" />
  <path
     fill="#f55"
     stroke="#000"
     d="M153.896 144.294l16.868 94.444s-60.489 15.156-81.097-1.22c-11.467-19.635 54.377-53.542 54.377-53.542z"
     id="path1" />
  <path
     fill="#f55"
     stroke="#000"
     d="M89.66 134.03L71.67 237.254l34.72 3.57-9.653-58.92z"
     id="path2" />
  <g
     inkscape:groupmode="layer"
     id="layer2"
     inkscape:label="patternLayer">
    <path
       fill="#ff8080"
       stroke="#000"
       stroke-width=".772"
       d="M135.305 18.501c.244-.242.083-.828.404-.949 8.833 3.922 18.372 5.357 25.5 11.54 16.806 6.937 18.172 84.472 24.008 114.99-5.016 7.363-19.316 9.924-26.356 4.462-1.84-28.276-1.776-38.04-6.983-83.522 3.784 70.967 7.853 127.224 10.589 176.691-10.148-4.478-69.131 14.551-85.436-2.55.698-45.337 14.823-99.093 14.3-167.87-2.571 10.64-4.676 42.954-8.167 81.365-6 4.713-18.162 2.986-22.669-3.17 2.907-15.72 6.228-117.213 20.171-118.885 9.998-4.588 16.849-9.511 27.554-12.682 4.392.33 6.657 6.844 11.042 7.255 5.767.541 11.93-2.596 16.043-6.675z"
       id="path3" />
  </g>
  <path
     fill="none"
     stroke="#000"
     stroke-width=".771"
     d="M90.306 99.387l1.985 145.06 7.093 2.141"
     id="path4" />
  <path
     fill="#ffb380"
     stroke="#000"
     stroke-width=".771"
     d="M111.716 6.911l-6.69 11.827 15.563 26.107 6.975-12.566z"
     id="path5" />
  <path
     fill="#ffb380"
     stroke="#000"
     stroke-width=".771"
     d="M130.605 6.467l6.69 11.826-46.619 82.033 1.294-26.841zM91.4 74.54L80.56 85.082l4.018 4.161z"
     id="path6" />
  <path
     fill="#ffb380"
     stroke="#000"
     stroke-width=".771"
     d="M90.99 98.862l-7.026 8.55s2.666 15.217 7.025-8.55zm-.054-23.796l-5.807 17.65 5.343 3.202z"
     id="path7" />
  <path
     fill="#ffb380"
     stroke="#000"
     stroke-width=".771"
     d="M91.352 98.833l1.078 19.986-5.844-.836z"
     id="path8" />
  <path
     fill="#fff"
     stroke="#000"
     stroke-width=".771"
     d="M111.56 6.701l12.562 19.918-3.707 6.212L107.98 13.05z"
     id="path9" />
  <path
     fill="#fff"
     stroke="#000"
     stroke-width=".772"
     d="M130.605 6.467L101.01 57.8l5.526 3.918 27.649-48.905z"
     id="path10" />
</svg>
