<svg xmlns="http://www.w3.org/2000/svg" cursor="default" viewBox="0 0 256 256">
    <defs>
        <linearGradient id="linearGradient924" x1="18.12" x2="21.466" y1="241.29" y2="228.73" gradientTransform="scale(1 -1) rotate(-89.503 -.246 -.024)" gradientUnits="userSpaceOnUse">
            <stop offset="0" stop-color="#917c6f"/>
            <stop offset="1" stop-color="#ac9d93"/>
        </linearGradient>
        <linearGradient id="innoGrad4">
            <stop offset="0" stop-color="#ffb380"/>
            <stop offset="1" stop-color="#fca"/>
        </linearGradient>
    </defs>
    <g>
        <path fill="#f55" stroke="#000" stroke-width=".343" d="M114.545 50.718l7.807 51.459s-22.526 2.767-29.603-2.856c-3.937-6.742 18.413-34.978 18.413-34.978z" transform="matrix(2.35512 0 0 2.31254 -110.816 7.128)"/>
        <path fill="#f55" stroke="#000" d="M89.66 134.03L72.614 289.022l23.31 2.623.813-109.74z" transform="matrix(.80869 0 0 .79407 34.497 9.835)"/>
        <path fill="#ff8080" stroke="#000" stroke-width=".617" d="M81.13 129.33c-.229 7.593 7.063 17.102 15.646 16.851 8.297-.242 10.815-4.317 11.237-12.701-1.124-7.405-5.274-20.611-9.957-20.996-5.366-.441-8.952-.548-16.926 16.847z"/>
        <path fill="#f55" d="M82.725 125.253l-.591 4.703 4.905-2.35 14.564-1.085 3.689 1.523-3.065-13.316s-13.679-1.218-13.376-1.514l.302-.295-4.296 6.656z"/>
        <path fill="#ff8080" stroke="#000" stroke-width=".264" d="M126.105 53.114c.097 3.283-2.999 7.395-6.643 7.287-3.523-.105-4.593-1.867-4.772-5.493.477-3.202 2.24-8.912 4.228-9.079 2.278-.19 3.8-.237 7.187 7.285z" transform="matrix(2.35512 0 0 2.31254 -110.816 7.128)"/>
        <path fill="#f55" d="M161.855 127.687l-.59 4.703 4.905-2.351 14.564-1.085 5.082 1.147-4.46-12.94s-13.678-1.218-13.375-1.513l.303-.296-4.297 6.657z"/>
        <path fill="#ff8080" stroke="#000" stroke-linecap="round" stroke-linejoin="round" stroke-width=".265" d="M108.161 7.524c.084-.083.029-.285.14-.326 3.032 1.346 6.308 1.839 8.755 3.962 5.77 2.382 7.335 37.73 9.036 41.835-1.508-3.668-5.999-5.703-10.28-1.523-.633-9.71-.984-11.955-1.96-27.974 1.3 24.368 4.55 64.067 5.489 81.053-3.485-1.538-25.461 3.33-31.06-2.542.24-15.567 4.96-52.742 4.78-76.358-.112 3.807.348 12.243-.85 25.432-2.54-3.644-7.805-3.878-10.74 1.658C83.824 46 84.611 12.253 89.4 11.68c3.433-1.575 5.785-3.266 9.461-4.355 1.508.114 2.286 2.35 3.791 2.492 1.98.185 4.097-.892 5.51-2.292z" transform="matrix(2.35512 0 0 2.31254 -110.816 7.128)"/>
        <path fill="none" stroke="#000" stroke-width=".265" d="M92.71 35.298l-.154 69.114 3.823.495" transform="matrix(2.35512 0 0 2.31254 -110.816 7.128)"/>
        <path fill="#ffb380" stroke="#000" stroke-width=".265" d="M100.061 3.544l-2.297 4.061 5.344 8.964 2.395-4.314z" transform="matrix(2.35512 0 0 2.31254 -110.816 7.128)"/>
        <path fill="#ffb380" stroke="#000" stroke-width=".265" d="M106.547 3.391l2.298 4.061L92.837 35.62l.444-9.216zM93.086 26.766l-3.723 3.62 1.38 1.429z" transform="matrix(2.35512 0 0 2.31254 -110.816 7.128)"/>
        <path fill="#ffb380" stroke="#000" stroke-width=".265" d="M92.944 35.117l-2.412 2.937s.916 5.224 2.412-2.937zM92.926 26.947l-1.994 6.06 1.835 1.1z" transform="matrix(2.35512 0 0 2.31254 -110.816 7.128)"/>
        <path fill="#ffb380" stroke="#000" stroke-width=".265" d="M93.069 35.107l.37 6.863-2.007-.287z" transform="matrix(2.35512 0 0 2.31254 -110.816 7.128)"/>
        <path fill="#fff" stroke="#000" stroke-width=".771" d="M111.56 6.701l12.562 19.918-3.707 6.212L107.98 13.05z" transform="matrix(.80869 0 0 .79407 34.497 9.835)"/>
        <path fill="#fff" stroke="#000" stroke-width=".265" d="M106.547 3.391L96.385 21.018l1.898 1.346 9.494-16.793z" transform="matrix(2.35512 0 0 2.31254 -110.816 7.128)"/>
    </g>
</svg>
