<svg xmlns="http://www.w3.org/2000/svg" cursor="default" viewBox="0 0 256 256">
    <defs>
        <linearGradient id="linearGradient924" x1="18.12" x2="21.466" y1="241.29" y2="228.73" gradientTransform="scale(1 -1) rotate(-89.503 -.246 -.024)" gradientUnits="userSpaceOnUse">
            <stop offset="0" stop-color="#917c6f"/>
            <stop offset="1" stop-color="#ac9d93"/>
        </linearGradient>
        <linearGradient id="innoGrad4">
            <stop offset="0" stop-color="#ffb380"/>
            <stop offset="1" stop-color="#fca"/>
        </linearGradient>
    </defs>
    <path fill="#ffd5d5" stroke="#000" stroke-width=".851" d="M100.001 21.846c.837-1.414 15.653 2.775 31.14 3.18 11.321.298 24.454-4.172 29.17-3.125 3.78 3.999.493 5.844.46 8.222 3.708 2.635 19.137 129.686 19.218 207.834-4.684 4.915-34.144 5.542-39.197 1.007-7.951-60.85-7.225-149.077-7.225-149.077s-8.508 112.008-10.356 149.8c-5.608 4.663-31.014 3.894-35.845-1.57-.37-1.429 4.305-200.815 13.009-207.833.523.117-4.317-2.722-.374-8.438z"/>
    <path fill="#faa" d="M101.02 28.929c-.456.461-.567 1.958-.105 2.414 15.92 4.247 43.748 4.17 59.506-.862-.3.233.227-1.139-.24-1.576-16.362 3.544-42.537 3.476-59.16.024zM116.511 241.786l13.303-153.62h7.887l8.55 152.733s-3.857.006-4.93-1.313c-4.98-37.493-7.167-136.438-8.224-147.247-1.514 14.158-8.833 110.958-9.942 147.339-1.634 2.015-6.644 2.108-6.644 2.108z"/>
    <path fill="none" stroke="#f55" d="M131.086 32.5l-1.15 31.71v0z"/>
    <path fill="#ff2a2a" stroke="#f55" d="M131.644 32.69l2.733 30.862z"/>
</svg>
