<svg xmlns="http://www.w3.org/2000/svg" cursor="default" viewBox="0 0 256 256">
    <defs>
        <linearGradient id="linearGradient924" x1="18.12" x2="21.466" y1="241.29" y2="228.73" gradientTransform="scale(1 -1) rotate(-89.503 -.246 -.024)" gradientUnits="userSpaceOnUse">
            <stop offset="0" stop-color="#917c6f"/>
            <stop offset="1" stop-color="#ac9d93"/>
        </linearGradient>
        <linearGradient id="innoGrad4">
            <stop offset="0" stop-color="#ffb380"/>
            <stop offset="1" stop-color="#fca"/>
        </linearGradient>
    </defs>
    <g stroke="#000" stroke-width=".265">
        <path fill="#ffd5d5" stroke-width="1.15646795" d="M142.4 26.977c.365-.363.123-1.241.605-1.422 13.236 5.877 27.53 8.026 38.21 17.293 25.186 10.394 27.233 126.58 35.978 172.31-7.517 11.035-28.945 14.872-39.494 6.688-2.757-42.371-2.662-57.002-10.464-125.158 2.48 46.507 4.684 93.154 7.48 125.407-19.028 19.217-80.98 18.274-105.706 2.534 1.436-28.426 7.825-75.312 7.496-118.544-3.853 15.944-7.008 64.367-12.239 121.925-8.99 7.063-27.215 4.475-33.969-4.75 4.356-23.557 9.332-175.643 30.226-178.15 14.982-6.874 25.248-14.251 41.29-19.003 6.58.495 9.976 10.256 16.546 10.872 8.642.81 17.878-3.89 24.04-10.002z"/>
        <path fill="none" stroke-width="1.15646795" d="M74.97 148.184l2.07 81.666 11.245 2.376"/>
        <path fill="#ffd5d5" stroke-width="1.15646795" d="M107.051 9.61L97.026 27.331l23.321 39.12 10.453-18.83z"/>
        <path fill="#ffd5d5" stroke-width="1.15646795" d="M135.357 8.943l10.024 17.722L75.523 149.59l1.938-40.22zM76.609 110.95l-16.244 15.798 6.02 6.235z"/>
        <path fill="#ffd5d5" stroke-width="1.15646795" d="M75.993 147.397L65.465 160.21s3.996 22.801 10.528-12.813zM75.912 111.739l-8.701 26.448 8.006 4.799z"/>
        <path fill="#ffd5d5" stroke-width="1.15646795" d="M76.536 147.353l1.615 29.949-8.757-1.253z"/>
    </g>
</svg>
