<svg xmlns="http://www.w3.org/2000/svg" cursor="default" viewBox="0 0 256 256">
    <defs>
        <linearGradient id="linearGradient924" x1="18.12" x2="21.466" y1="241.29" y2="228.73" gradientTransform="scale(1 -1) rotate(-89.503 -.246 -.024)" gradientUnits="userSpaceOnUse">
            <stop offset="0" stop-color="#917c6f"/>
            <stop offset="1" stop-color="#ac9d93"/>
        </linearGradient>
        <linearGradient id="innoGrad4">
            <stop offset="0" stop-color="#ffb380"/>
            <stop offset="1" stop-color="#fca"/>
        </linearGradient>
    </defs>
    <g stroke="#000">
        <g fill="#faa" transform="translate(77.986)">
            <path d="M81.841 93.3c15.83-21.832 10.365-63.39-12.112-67.438-25.952-4.673-16.698 45.81-40.266 68.092-4.097-2.63 1.87 1.17-2.619-1.31 26.878-38.618 13.965-76.801 41.903-73.33C94.153 22.473 104.98 72.706 89.37 93.3c-.989 1.305-6.251 1.022-7.53 0z"/>
            <ellipse cx="26.844" cy="96.737" stroke-linecap="round" stroke-linejoin="round" stroke-width=".8" rx="7.529" ry="7.366"/>
            <path d="M21.14 104.217c-6.002-.599-9.191 7.697-20.654 15.136-.01 4.614 5.78 7.284 10.465 9.833 2.771-4.682 3.79-6.825 5.689-8.92-1.416 3.171-1.384 4.85-3.203 9.572 7.94 2.963 13.823 3.678 19.658 1.44-.978-1.6-.497-5.653-1.82-8.849 5.619 11.863 3.565 8.71 7.238 6.121.554-.174-3.713-7.476-5.905-11.02-1.96-3.17-.988-8.343-6.791-12.508-1.348-.828-3.137-1.167-4.677-.805z"/>
        </g>
        <path fill="#ffb380" d="M156.868 92.89l-3.697 97.38 24.3 1.201-5.5-97.949z"/>
        <path fill="#ff2a2a" d="M152.953 190.69l24.552.819-.655-15.223h-22.915zM157.045 93.463l15.222.327.491 12.113h-16.695z"/>
    </g>
</svg>
