<?xml version="1.0" encoding="UTF-8" standalone="no"?>
<svg
   cursor="default"
   version="1.1"
   viewBox="0 0 256 256"
   id="svg34"
   sodipodi:docname="folding_fan_maple.svg"
   inkscape:version="1.4.1-rc (d9e8dc1fe0, 2025-03-10)"
   width="100%"
   height="100%"
   xmlns:inkscape="http://www.inkscape.org/namespaces/inkscape"
   xmlns:sodipodi="http://sodipodi.sourceforge.net/DTD/sodipodi-0.dtd"
   xmlns:xlink="http://www.w3.org/1999/xlink"
   xmlns="http://www.w3.org/2000/svg"
   xmlns:svg="http://www.w3.org/2000/svg">
  <sodipodi:namedview
     id="namedview34"
     pagecolor="#ffffff"
     bordercolor="#666666"
     borderopacity="1.0"
     inkscape:showpageshadow="2"
     inkscape:pageopacity="0.0"
     inkscape:pagecheckerboard="0"
     inkscape:deskcolor="#d1d1d1"
     inkscape:zoom="2.1599902"
     inkscape:cx="124.07463"
     inkscape:cy="112.50051"
     inkscape:window-width="1854"
     inkscape:window-height="1010"
     inkscape:window-x="0"
     inkscape:window-y="0"
     inkscape:window-maximized="1"
     inkscape:current-layer="svg34"
     showgrid="false" />
  <defs
     id="defs18">
    <inkscape:path-effect
       effect="copy_rotate"
       starting_point="133.95987,100.30911"
       origin="118.20924,100.30911"
       id="path-effect4"
       is_visible="true"
       lpeversion="1.2"
       lpesatellites=""
       method="normal"
       num_copies="7"
       starting_angle="0"
       rotation_angle="40"
       gap="-0.1"
       copies_to_360="true"
       mirror_copies="false"
       split_items="true"
       link_styles="false" />
    <inkscape:path-effect
       effect="copy_rotate"
       starting_point="158.78714,185.78013"
       origin="131.3848,185.78013"
       id="path-effect3"
       is_visible="true"
       lpeversion="1.2"
       lpesatellites=""
       method="normal"
       num_copies="18"
       starting_angle="0"
       rotation_angle="20"
       gap="-0.01"
       copies_to_360="true"
       mirror_copies="false"
       split_items="true"
       link_styles="false" />
    <inkscape:path-effect
       effect="copy_rotate"
       starting_point="141.09463,208.38982"
       origin="115.2311,208.38982"
       id="path-effect1"
       is_visible="true"
       lpeversion="1.2"
       lpesatellites=""
       method="normal"
       num_copies="37"
       starting_angle="0"
       rotation_angle="18"
       gap="-0.01"
       copies_to_360="true"
       mirror_copies="true"
       split_items="false"
       link_styles="false" />
    <inkscape:path-effect
       effect="curvestitching"
       id="path-effect2"
       is_visible="true"
       lpeversion="1"
       count="5"
       startpoint_edge_variation="0;1"
       startpoint_spacing_variation="0;1"
       endpoint_edge_variation="0;1"
       endpoint_spacing_variation="0;1"
       strokepath="M 0,0 H 1"
       prop_scale="1"
       scale_y_rel="false" />
    <inkscape:path-effect
       effect="rough_hatches"
       id="path-effect27"
       is_visible="true"
       lpeversion="1.2"
       direction="130.23338,84.722658 , 44.619617,0"
       dist_rdm="0;1"
       growth="0"
       do_bend="true"
       bender="130.23338,89.722658 , 5,0"
       bottom_edge_variation="0;1"
       top_edge_variation="0;1"
       bottom_tgt_variation="0;1"
       top_tgt_variation="0;1"
       scale_bf="1"
       scale_bb="1"
       scale_tf="1"
       scale_tb="1"
       top_smth_variation="0;1"
       bottom_smth_variation="0;1"
       fat_output="true"
       stroke_width_top="1"
       stroke_width_bottom="1"
       front_thickness="1"
       back_thickness="0.25" />
    <inkscape:path-effect
       effect="rough_hatches"
       id="path-effect25"
       is_visible="true"
       lpeversion="1.2"
       direction="130.33594,169.64062 , 44.499022,0"
       dist_rdm="0;1"
       growth="0"
       do_bend="true"
       bender="130.33594,174.64062 , 5,0"
       bottom_edge_variation="0;1"
       top_edge_variation="0;1"
       bottom_tgt_variation="0;1"
       top_tgt_variation="0;1"
       scale_bf="0"
       scale_bb="0"
       scale_tf="0.3"
       scale_tb="1.2"
       top_smth_variation="0;1"
       bottom_smth_variation="0;1"
       fat_output="true"
       stroke_width_top="1"
       stroke_width_bottom="1"
       front_thickness="1"
       back_thickness="0.25" />
    <inkscape:path-effect
       effect="rough_hatches"
       id="path-effect22"
       is_visible="true"
       lpeversion="1.2"
       direction="130.23338,125.46803 , 44.619244,0"
       dist_rdm="0;1"
       growth="0"
       do_bend="true"
       bender="130.23338,130.46803 , 5,0"
       bottom_edge_variation="0;1"
       top_edge_variation="0;1"
       bottom_tgt_variation="0;1"
       top_tgt_variation="0;1"
       scale_bf="0"
       scale_bb="0"
       scale_tf="0"
       scale_tb="0"
       top_smth_variation="0;1"
       bottom_smth_variation="0;1"
       fat_output="true"
       stroke_width_top="0"
       stroke_width_bottom="0"
       front_thickness="0"
       back_thickness="0" />
    <linearGradient
       id="linearGradient924"
       x1="18.120001"
       x2="21.466"
       y1="241.28999"
       y2="228.73"
       gradientTransform="matrix(0.0086692,0.99996,0.99996,-0.0086692,-0.22047,0.26984)"
       gradientUnits="userSpaceOnUse">
      <stop
         stop-color="#917c6f"
         offset="0"
         id="stop1" />
      <stop
         stop-color="#ac9d93"
         offset="1"
         id="stop2" />
    </linearGradient>
    <linearGradient
       id="innoGrad4">
      <stop
         stop-color="#ffb380"
         offset="0"
         id="stop3" />
      <stop
         stop-color="#fca"
         offset="1"
         id="stop4" />
    </linearGradient>
    <linearGradient
       id="innoGrad5"
       x1="149.74001"
       x2="147.34"
       y1="110.12"
       y2="107.69"
       gradientTransform="matrix(0.0086692,0.99996,0.99996,-0.0086692,-0.22047,0.26984)"
       gradientUnits="userSpaceOnUse">
      <stop
         stop-color="#916f6f"
         offset="0"
         id="stop5" />
      <stop
         stop-color="#ac9393"
         offset="1"
         id="stop6" />
    </linearGradient>
    <linearGradient
       id="linearGradient1284"
       x1="30"
       x2="30.714001"
       y1="226.17999"
       y2="225.42"
       gradientTransform="matrix(0.0086692,0.99996,0.99996,-0.0086692,-0.22047,0.26984)"
       gradientUnits="userSpaceOnUse"
       xlink:href="#innoGrad4" />
    <linearGradient
       id="linearGradient1292"
       x1="37.633999"
       x2="38.214001"
       y1="219.17"
       y2="218.59"
       gradientTransform="matrix(0.0086692,0.99996,0.99996,-0.0086692,-0.22047,0.26984)"
       gradientUnits="userSpaceOnUse"
       xlink:href="#innoGrad4" />
    <linearGradient
       id="linearGradient1306"
       x1="40.044998"
       x2="40.938"
       y1="216.75999"
       y2="215.78"
       gradientTransform="matrix(0.0086692,0.99996,0.99996,-0.0086692,-0.22047,0.26984)"
       gradientUnits="userSpaceOnUse"
       xlink:href="#innoGrad4" />
    <linearGradient
       id="linearGradient1314"
       x1="42.455002"
       x2="43.348"
       y1="214.21001"
       y2="213.32001"
       gradientTransform="matrix(0.0086692,0.99996,0.99996,-0.0086692,-0.22047,0.26984)"
       gradientUnits="userSpaceOnUse"
       xlink:href="#innoGrad4" />
    <linearGradient
       id="linearGradient1322"
       x1="50.580002"
       x2="51.070999"
       y1="206.49001"
       y2="206.03999"
       gradientTransform="matrix(0.0086692,0.99996,0.99996,-0.0086692,-0.22047,0.26984)"
       gradientUnits="userSpaceOnUse"
       xlink:href="#innoGrad4" />
    <linearGradient
       id="innoGrad3"
       x1="27.009001"
       x2="54.820999"
       y1="229.57001"
       y2="202.83"
       gradientTransform="matrix(0.0086692,0.99996,0.99996,-0.0086692,-0.22047,0.26984)"
       gradientUnits="userSpaceOnUse">
      <stop
         stop-color="#f95"
         offset="0"
         id="stop7" />
      <stop
         stop-color="#ff7f2a"
         offset=".088"
         id="stop8" />
      <stop
         stop-color="#f95"
         offset=".265"
         id="stop9" />
      <stop
         stop-color="#ff7f2a"
         offset=".446"
         id="stop10" />
      <stop
         stop-color="#ff7f2a"
         offset=".601"
         id="stop11" />
      <stop
         stop-color="#f95"
         offset=".733"
         id="stop12" />
      <stop
         stop-color="#ff7f2a"
         offset=".863"
         id="stop13" />
      <stop
         stop-color="#f95"
         offset="1"
         id="stop14" />
    </linearGradient>
    <linearGradient
       id="linearGradient903"
       x1="200.10001"
       x2="191.22"
       y1="65.966003"
       y2="57.050999"
       gradientUnits="userSpaceOnUse">
      <stop
         stop-color="#916f6f"
         offset="0"
         id="stop15" />
      <stop
         stop-color="#ac9393"
         offset="1"
         id="stop16" />
    </linearGradient>
    <linearGradient
       id="linearGradient943"
       x1="185.92999"
       x2="178.95"
       y1="77.051003"
       y2="70.746002"
       gradientUnits="userSpaceOnUse"
       xlink:href="#linearGradient924" />
    <linearGradient
       id="linearGradient951"
       x1="181.92999"
       x2="175.36"
       y1="82.508003"
       y2="76.271004"
       gradientUnits="userSpaceOnUse"
       xlink:href="#linearGradient924" />
    <linearGradient
       id="linearGradient938"
       x1="18.120001"
       x2="21.466"
       y1="241.28999"
       y2="228.73"
       gradientTransform="matrix(0.0086692,0.99996,0.99996,-0.0086692,-0.22047,0.26984)"
       gradientUnits="userSpaceOnUse">
      <stop
         stop-color="#fd5"
         offset="0"
         id="stop17" />
      <stop
         stop-color="#fea"
         offset="1"
         id="stop18" />
    </linearGradient>
  </defs>
  <g
     id="g9"
     transform="matrix(-0.55732878,0.33622675,-0.33613588,-0.55747944,175.55453,187.39098)"
     style="stroke-width:1.53625">
    <path
       style="fill:#ffaaaa;stroke:#000000;stroke-width:1.53625px;stroke-linecap:butt;stroke-linejoin:miter;stroke-opacity:1"
       d="M 81.841432,93.299234 C 97.67021,71.468133 92.206232,29.909315 69.728901,25.861893 43.777352,21.18888 53.031159,71.672515 29.462916,93.953965 25.36567,91.32401 31.332788,95.12377 26.843991,92.644501 53.722376,54.025658 40.809117,15.842558 68.746804,19.314578 c 25.406377,3.157435 36.233436,53.390373 20.62404,73.984656 -0.98872,1.304469 -6.250871,1.022028 -7.529412,0 z"
       id="path7"
       sodipodi:nodetypes="caccacc" />
    <ellipse
       style="fill:#ffaaaa;stroke:#000000;stroke-width:1.229;stroke-linecap:round;stroke-linejoin:round;stroke-opacity:1"
       id="path8"
       cx="93.102448"
       cy="67.756493"
       rx="7.5294118"
       ry="7.3657289" />
    <path
       style="fill:#ffaaaa;stroke:#000000;stroke-width:1.53625px;stroke-linecap:butt;stroke-linejoin:miter;stroke-opacity:1"
       d="m 87.398542,75.237191 c -6.001662,-0.5991 -9.191528,7.69657 -20.653757,15.13622 -0.0099,4.61306 5.780245,7.28384 10.464599,9.832799 2.771577,-4.682089 3.790615,-6.825679 5.688619,-8.920579 -1.415597,3.17158 -1.383673,4.84954 -3.202638,9.571819 7.939215,2.96319 13.822841,3.67876 19.657802,1.44036 -0.978139,-1.59914 -0.496403,-5.652589 -1.820577,-8.848879 5.61984,11.862749 3.56603,8.709309 7.2392,6.12111 0.5532,-0.17423 -3.71365,-7.47616 -5.905693,-11.02103 -1.959475,-3.16883 -0.987472,-8.34185 -6.790909,-12.507 -1.347456,-0.82852 -3.136868,-1.16698 -4.676646,-0.80482 z"
       id="path7-6"
       sodipodi:nodetypes="ccccccccscc" />
  </g>
  <path
     style="fill:#ffeeaa;stroke:none;stroke-width:0.9;stroke-linecap:round;stroke-linejoin:round;stroke-dasharray:none"
     d="m 143.70599,146.39187 c -6.2076,-4.51363 -11.52357,-8.30698 -11.81326,-8.42967 -1.83966,-0.77912 -4.03773,0.4925 -4.26,2.46448 -0.14769,1.31033 0.0607,1.86519 1.06175,2.82704 0.66901,0.64282 0.86668,0.92834 0.73433,1.0607 -0.13236,0.13236 -0.61341,-0.13082 -1.78706,-0.97768 -11.56482,-8.3447 -21.57525,-15.72325 -21.57525,-15.90282 0,-0.12378 0.0737,-0.24809 0.16368,-0.27625 0.09,-0.0282 4.16787,2.86067 9.06187,6.41963 8.53229,6.20474 8.9109,6.45933 9.20717,6.19122 0.16993,-0.15379 0.30896,-0.34722 0.30896,-0.42984 0,-0.0826 -3.0294,-4.31414 -6.73201,-9.40337 -3.70261,-5.08924 -6.74097,-9.36649 -6.75192,-9.505 -0.011,-0.13852 0.0639,-0.28158 0.16634,-0.31791 0.10243,-0.0363 3.12238,3.98032 6.71099,8.92589 l 6.52476,8.99195 0.4634,-0.23846 c 0.25486,-0.13115 0.43248,-0.32555 0.39471,-0.432 -0.0378,-0.10645 -1.6786,-5.15216 -3.64628,-11.21271 -2.95026,-9.08697 -3.53634,-11.04465 -3.34237,-11.16454 0.12937,-0.0799 0.2777,-0.0932 0.32963,-0.0294 0.0519,0.0638 1.63617,4.88425 3.52055,10.71217 l 3.42614,10.59623 0.53197,0.002 0.53197,0.002 v -11.94884 c 0,-11.83973 0.003,-11.94885 0.32737,-11.94885 0.32422,0 0.32736,0.10912 0.32736,11.37596 0,9.71126 0.034,11.37595 0.23214,11.37595 0.12768,0 0.34134,0.0419 0.47481,0.0931 0.19218,0.0737 0.58906,-0.97337 1.90771,-5.03325 5.68622,-17.50687 5.7423,-17.67064 6.02937,-17.60759 0.15218,0.0334 0.26529,0.13005 0.25136,0.21472 -0.0139,0.0847 -1.58749,4.96429 -3.49681,10.84358 -3.3174,10.21515 -3.45795,10.69998 -3.16649,10.92297 0.16775,0.12835 0.392,0.21623 0.49834,0.1953 0.10634,-0.0209 3.2634,-4.27336 7.0157,-9.44983 3.75231,-5.17647 6.91255,-9.50753 7.02277,-9.62458 0.16417,-0.17435 0.23513,-0.17097 0.39251,0.0187 0.15545,0.18731 -1.07342,1.9713 -6.43861,9.34716 -3.6469,5.01362 -6.63073,9.17386 -6.63073,9.24497 0,0.0711 0.14336,0.25903 0.31857,0.4176 0.30539,0.27637 0.34096,0.27259 0.85934,-0.0912 0.29742,-0.20875 4.55509,-3.2957 9.46148,-6.85988 4.90639,-3.56418 9.00444,-6.53084 9.10677,-6.59257 0.10233,-0.0617 0.27223,-0.008 0.37756,0.11848 0.15754,0.18983 -1.43534,1.41235 -8.98401,6.89515 -5.04653,3.66543 -9.17551,6.7508 -9.17551,6.85638 0,0.10558 0.0956,0.32275 0.2125,0.48258 0.19837,0.27128 0.95624,0.0489 11.39021,-3.3427 8.2081,-2.66805 11.2261,-3.58492 11.35987,-3.45115 0.1145,0.1145 0.12441,0.2366 0.0267,0.32869 -0.0855,0.0806 -4.86957,1.67101 -10.6312,3.53428 -5.76164,1.86328 -10.54029,3.44924 -10.61922,3.52437 -0.0789,0.0751 -0.0961,0.32565 -0.0381,0.55671 l 0.10544,0.4201 11.73917,0.042 c 11.03084,0.0395 11.7425,0.0593 11.79432,0.32845 0.0521,0.27057 -0.57184,0.28644 -11.26133,0.28644 h -11.31649 l 0.0513,0.52539 c 0.0496,0.50814 0.0997,0.54073 1.52443,0.9924 1.89718,0.60142 12.02171,3.88572 16.77406,5.44134 2.02369,0.66243 3.70552,1.28267 3.7374,1.37831 0.0319,0.0956 -0.0499,0.2153 -0.18182,0.26591 -0.13188,0.0506 -4.89616,-1.4225 -10.58729,-3.27357 -5.69112,-1.85107 -10.40208,-3.36559 -10.46878,-3.36559 -0.12304,0 -0.55284,0.82857 -0.46639,0.89912 0.0259,0.0211 4.23123,3.07426 9.34524,6.78476 7.685,5.57588 9.26473,6.78668 9.10528,6.97881 -0.1061,0.12785 -0.20572,0.23246 -0.22136,0.23246 -0.0157,0 -5.10739,-3.69297 -11.315,-8.2066 z"
     id="path246" />
  <path
     style="display:inline;fill:#ffaaaa;stroke:none;stroke-width:0.9;stroke-linecap:round;stroke-linejoin:round;stroke-dasharray:none"
     d="m 177.69688,181.79803 -23.63304,-23.24108 1.08328,-1.52912 c 0.59581,-0.84101 1.01683,-1.71335 0.93561,-1.93854 -0.0846,-0.23444 0.0389,-0.34312 0.28889,-0.25428 0.25996,0.0924 0.80464,-0.45169 1.34643,-1.34491 0.76452,-1.26044 1.02599,-1.46486 1.63683,-1.27974 2.06642,0.62623 2.49575,-0.096 0.57259,-0.9632 -1.47087,-0.66326 -1.52008,-0.82445 -0.84021,-2.75141 0.26321,-0.74601 0.39476,-1.57476 0.29234,-1.84167 -0.10242,-0.26691 -0.0368,-0.48528 0.14592,-0.48528 0.18267,0 0.52091,-0.73657 0.75164,-1.63683 0.41121,-1.60447 0.44417,-1.63683 1.66708,-1.63683 1.85534,0 1.64148,-0.8393 -0.30444,-1.19481 l -1.55201,-0.28355 -0.003,-4.08403 -0.003,-4.08403 0.96354,-0.16912 c 0.52994,-0.093 0.93506,-0.2796 0.90025,-0.41464 -0.0348,-0.13504 -0.0633,-0.38821 -0.0633,-0.56262 0,-0.17439 -0.18414,-0.2608 -0.40921,-0.19201 -0.22506,0.0688 -0.87802,0.20582 -1.45102,0.30449 -1.00978,0.17388 -1.05923,0.12694 -1.60791,-1.52666 -0.31134,-0.93833 -0.97078,-2.68813 -1.46542,-3.88843 l -0.89933,-2.18236 0.95225,-0.39444 c 0.52368,-0.21694 0.95219,-0.5285 0.95219,-0.69236 0,-0.60365 -1.01229,-0.66026 -1.86112,-0.10408 -0.87361,0.57241 -0.87439,0.57213 -1.87983,-0.69426 -0.55322,-0.69681 -1.70559,-2.04472 -2.56084,-2.99537 -0.85524,-0.95064 -1.55498,-1.84142 -1.55498,-1.97951 0,-0.13808 0.2295,-0.57872 0.51001,-0.9792 0.81003,-1.15647 0.20586,-1.5628 -0.83746,-0.56323 l -0.91037,0.87218 -3.06395,-1.82331 c -1.68518,-1.00282 -3.28205,-1.94988 -3.54859,-2.10459 -0.40421,-0.2346 -0.4171,-0.42951 -0.0777,-1.17444 0.39228,-0.86096 0.30087,-1.49883 -0.21478,-1.49883 -0.13608,0 -0.48642,0.50119 -0.77853,1.11376 l -0.53111,1.11375 -2.37183,-0.6227 c -1.30451,-0.34249 -2.60277,-0.62353 -2.88502,-0.62454 -0.28226,-9.8e-4 -1.03618,-0.14711 -1.67539,-0.32468 -1.08954,-0.30268 -1.15381,-0.39466 -1.02812,-1.47132 0.10387,-0.88974 0.0163,-1.14846 -0.38892,-1.14846 -0.35397,0 -0.58838,0.40889 -0.7253,1.26511 l -0.2023,1.26512 -2.99338,0.2622 c -5.19424,0.45496 -5.27008,0.44676 -5.38853,-0.58271 -0.0702,-0.61016 -0.2934,-0.90026 -0.69262,-0.90026 -0.51073,0 -0.55658,0.17744 -0.34494,1.33483 0.1981,1.08329 0.14355,1.37032 -0.28948,1.52322 -0.29346,0.10361 -1.91336,0.75511 -3.59977,1.44778 -1.68641,0.69266 -3.19954,1.25939 -3.36251,1.25939 -0.16298,0 -0.46413,-0.36829 -0.66922,-0.81841 -0.36789,-0.80744 -1.2499,-1.14248 -1.2499,-0.4748 0,0.189 0.22992,0.78824 0.51094,1.33166 0.28101,0.54342 0.46515,1.11046 0.4092,1.26009 -0.056,0.14963 -1.47666,1.3323 -3.15715,2.62816 l -3.05543,2.3561 -0.79545,-0.7473 c -0.61302,-0.5759 -0.88441,-0.65833 -1.18332,-0.35942 -0.29892,0.29891 -0.13954,0.64408 0.69492,1.50502 l 1.08279,1.11716 -1.01795,1.47954 c -0.55988,0.81376 -1.01796,1.63715 -1.01796,1.82978 0,0.19262 -0.13379,0.35022 -0.29731,0.35022 -0.16351,0 -0.71594,0.66385 -1.22762,1.47522 -0.61794,0.97989 -1.09222,1.41361 -1.41251,1.29173 -2.34814,-0.89355 -58.26712,-27.88723 -58.272658,-28.12987 -0.0069,-0.30387 4.876896,-12.963226 5.103906,-13.229813 0.0596,-0.06999 3.67575,2.546587 8.035885,5.814617 5.681451,4.258393 8.026005,5.840401 8.275128,5.583711 0.429948,-0.443005 0.101771,-0.726088 -8.773259,-7.56773 l -6.829309,-5.264627 5.109714,-5.109714 5.109714,-5.109715 6.305786,6.299565 c 3.468182,3.464763 6.488547,6.299567 6.711923,6.299567 1.029499,0 -0.02321,-1.266476 -5.895654,-7.092843 l -6.30179,-6.252347 4.211958,-5.108378 c 2.316577,-2.809608 4.32459,-5.038768 4.46225,-4.953689 0.137661,0.08508 2.735374,3.691092 5.772697,8.013362 5.004338,7.121438 6.340818,8.690519 6.340818,7.444365 0,-0.231064 -2.503657,-4.087829 -5.563682,-8.570585 l -5.563683,-8.150465 6.266583,-3.214582 c 3.446618,-1.76802 6.36909,-3.214582 6.494377,-3.214582 0.125289,0 1.89715,3.719693 3.937473,8.265985 2.04032,4.546291 3.795629,8.370336 3.900684,8.497877 0.105054,0.127541 0.376735,0.117108 0.603731,-0.02318 0.306126,-0.189196 -0.481932,-2.236033 -3.051216,-7.924987 -1.905167,-4.218452 -3.659202,-8.064478 -3.897855,-8.546726 l -0.433917,-0.876815 5.568409,-3.542622 c 3.062625,-1.948443 5.639461,-3.542623 5.726298,-3.542623 0.08684,0 0.814928,2.136062 1.617972,4.746803 3.835007,12.467812 4.391277,14.076727 4.866907,14.076727 0.26363,0 0.47745,-0.184144 0.47516,-0.409207 -0.002,-0.225064 -1.24268,-4.607188 -2.756411,-9.738052 -1.513733,-5.130864 -2.727199,-9.349262 -2.696597,-9.374218 0.124828,-0.101795 13.968678,-2.281705 13.968678,-2.199565 0,0.04894 0.81024,3.957412 1.80052,8.685486 0.99028,4.728075 1.80051,8.711399 1.80051,8.851833 0,0.140434 0.24099,0.255334 0.53554,0.255334 0.67447,0 0.62434,-0.351905 -1.48058,-10.393862 -0.87748,-4.186189 -1.55572,-7.611253 -1.50719,-7.611253 0.0485,0 2.86668,-0.735445 6.26256,-1.634322 3.39587,-0.898877 6.36027,-1.63545 6.58753,-1.636829 0.32839,-0.002 0.36823,2.002925 0.19408,9.767353 -0.16924,7.545975 -0.12794,9.826215 0.18147,10.017436 0.22032,0.136167 0.4995,0.148662 0.62039,0.02777 0.1209,-0.120895 0.34739,-4.665569 0.50332,-10.099277 0.15593,-5.433708 0.30502,-9.900999 0.3313,-9.927314 0.0498,-0.04982 11.36201,1.670271 13.22426,2.010826 0.6252,0.114332 1.06394,0.391495 1.06394,0.672119 0,0.262654 -0.88389,4.380185 -1.96419,9.150067 -1.08031,4.769882 -1.9642,8.894088 -1.9642,9.164901 0,0.270813 0.22098,0.492388 0.49105,0.492388 0.27008,0 0.49105,-0.114892 0.49105,-0.255316 0,-0.602559 4.16628,-18.424174 4.35012,-18.608016 0.19272,-0.192726 12.68739,0.436223 12.90055,0.64938 0.0558,0.05578 -1.3038,4.203867 -3.0213,9.217963 -2.90475,8.480176 -3.47724,10.868888 -2.30724,9.627 0.24216,-0.25703 1.88836,-4.540449 3.65824,-9.518707 l 3.21797,-9.051378 6.1507,3.078592 c 3.38289,1.693226 6.1507,3.171031 6.1507,3.284011 0,0.112981 -1.93065,3.661692 -4.29034,7.886026 -3.22743,5.777775 -4.19729,7.773656 -3.91475,8.056191 0.46472,0.46472 0.0521,1.112002 5.12127,-8.033242 l 4.11967,-7.432201 1.6918,0.654006 c 3.82194,1.477468 11.19242,4.365636 11.28771,4.423162 0.0563,0.03397 -2.55856,3.587583 -5.81074,7.896915 -3.25218,4.309333 -5.91306,8.007538 -5.91306,8.218234 0,1.179963 1.40355,-0.261807 5.76179,-5.918707 2.6703,-3.465985 5.38396,-6.978548 6.03035,-7.805697 l 1.17527,-1.503907 4.664,4.549207 4.664,4.549206 -7.07171,6.906907 c -4.95289,4.837457 -6.9684,7.010216 -6.72691,7.251707 0.39828,0.398277 0.92387,-0.07 8.90605,-7.934813 l 5.45398,-5.373792 5.34909,4.354499 c 2.94199,2.394974 5.54513,4.533373 5.78476,4.751997 0.35147,0.320675 -1.11955,1.494068 -7.61126,6.071292 -7.11337,5.015554 -8.89835,6.526105 -7.71173,6.526105 0.32579,0 6.5393,-4.100564 13.31605,-8.787825 l 3.33922,-2.309634 3.28993,6.335273 c 1.80947,3.484399 3.28994,6.481167 3.28994,6.659486 0,0.178317 -0.18415,0.399475 -0.40921,0.491461 -0.22506,0.09199 -4.06746,1.654068 -8.53865,3.471285 -9.39805,3.81964 -9.10619,3.67943 -8.77488,4.2155 0.18723,0.30294 2.56811,-0.52875 9.19101,-3.210595 4.91608,-1.990695 9.06039,-3.576284 9.2096,-3.523529 0.5449,0.192665 6.90373,10.486354 6.63627,10.742824 -0.15168,0.14545 -4.25327,1.47964 -9.11465,2.96486 -4.86138,1.48522 -9.02926,2.84674 -9.26196,3.02559 -0.27262,0.20953 -0.31043,0.43783 -0.10631,0.64195 0.20411,0.20411 3.61445,-0.64126 9.58932,-2.37705 5.0999,-1.48159 9.41008,-2.71539 9.57816,-2.74177 0.24027,-0.0377 2.54147,12.52677 2.34162,12.78519 -0.028,0.0362 -4.14635,0.79761 -9.15183,1.69193 -5.00549,0.89432 -9.18904,1.71418 -9.29678,1.82192 -0.10774,0.10774 -0.0522,0.33953 0.12331,0.51509 0.25956,0.25956 14.0701,-1.90605 17.67326,-2.77132 0.63895,-0.15343 0.80431,0.28708 2.42429,6.45796 0.95621,3.64245 1.80745,6.88408 1.89166,7.20362 0.1451,0.55065 -0.37039,0.56928 -9.87186,0.35686 -8.99199,-0.20104 -10.02496,-0.17111 -10.02496,0.29049 0,0.72809 1.14631,0.83914 11.21228,1.0862 7.28305,0.17875 8.75703,0.29387 8.75703,0.68395 0,0.65328 -1.96729,13.31834 -2.08743,13.43848 -0.0538,0.0538 -4.22767,-0.71308 -9.27532,-1.70412 -9.8482,-1.93358 -10.57075,-2.02782 -10.57075,-1.3788 0,0.29421 3.00426,1.00549 9.86247,2.33498 l 9.86246,1.91189 -0.20017,2.65735 c -0.1101,1.46153 -0.29761,4.5356 -0.4167,6.83125 -0.11909,2.29565 -0.27303,4.17391 -0.3421,4.17391 -0.0691,0 -4.19484,-1.39949 -9.16837,-3.10997 -4.97353,-1.71049 -9.24127,-3.10998 -9.48387,-3.10998 -0.2426,0 -0.44109,0.20096 -0.44109,0.44658 0,0.50058 -0.16877,0.43226 10.62764,4.30201 4.31476,1.54653 7.89581,2.86267 7.95789,2.92475 0.0621,0.0621 -1.33212,2.98733 -3.09822,6.50056 l -3.21109,6.38769 -7.36573,-4.03981 c -4.92067,-2.6988 -7.4744,-3.93082 -7.69309,-3.71145 -0.45872,0.46013 -0.0513,0.72091 7.65797,4.90166 3.71037,2.01214 6.78148,3.68545 6.8247,3.71847 0.1085,0.0829 -4.53698,12.0693 -4.78812,12.35447 -0.11138,0.12646 -3.15732,-2.0096 -6.76875,-4.74681 -8.6542,-6.55925 -9.25371,-6.96392 -9.68222,-6.53541 -0.36722,0.36722 1.17413,1.66077 10.60296,8.89836 2.65576,2.03857 4.82865,3.80088 4.82865,3.91626 0,0.11538 -2.24655,2.44205 -4.99233,5.17039 l -4.99233,4.9606 z"
     id="fan_background" />
  <path
     id="path207"
     style="fill:none;stroke:#000000;stroke-width:1px;stroke-linecap:butt;stroke-linejoin:miter;stroke-opacity:1"
     d="m 105.02348,127.54291 22.02535,16.00201 0.0527,0.16016 0.10352,-0.0469 0.42969,0.3125 0.51953,0.71485 0.20508,-0.1875 1.0957,0.79492 0.83008,-1.45703 -1.46485,-1.0625 -0.48828,-0.67383 -0.26172,-0.80273 v -0.8418 l 0.25977,-0.79883 0.49219,-0.67578 0.67968,-0.49414 0.79883,-0.25977 h 0.8418 l 0.79687,0.25977 23.60157,17.14648 -2.17188,2.99219 0.22861,0.22451 m -18.19845,-46.33424 -1.9e-4,5.7e-4 m 0,0 -7.3288,22.55252 v -22.83008 m 0,0 V 112.125 h 2.2168 m 0,0 h 0.71875 m 0,0 h 0.76172 l 0.53515,-3.59375 -0.35937,2.70508 3.19336,0.84375 c 0.13326,0.0486 0.25375,0.0924 0.36719,0.11328 l -0.10461,0.32191 m -8.99305,-0.0817 v 23.74023 L 119.3366,114.4197 m 0,0 -0.0222,-0.0681 0.98631,-0.32037 m 0,0 0.0118,-0.004 m 0,0 2.51952,-0.81839 -0.002,-0.0136 m 0,0 -0.57779,-3.44341 0.47071,2.5586 3.29882,-0.18555 c 0.14177,0.005 0.27045,0.008 0.38477,-0.008 v 0.31641 m 17.53033,2.91338 -6.8e-4,9.3e-4 m 0,0 -13.94176,19.18725 7.05114,-21.69715 m 0,0 0.0407,-0.12512 3.51562,1.14258 1.60938,-3.22852 -1.16797,2.4375 2.77734,1.78907 c 0.11171,0.0874 0.213,0.16584 0.31446,0.2207 l -0.19819,0.27276 m -26.12426,-0.22972 7.34979,22.61712 -13.47966,-18.55137 m 0,0 -0.007,-0.009 0.11315,-0.0822 m 0,0 0.0101,-0.007 m 0,0 2.86893,-2.08428 -0.0303,-0.0581 m 0,0 -1.60646,-3.08449 1.25586,2.32227 3.07812,-1.19531 c 0.1364,-0.039 0.25927,-0.0752 0.36329,-0.125 l 0.0838,0.25788 m 33.38857,5.54838 -19.21066,13.95545 13.41595,-18.46295 m 0,0 0.0723,-0.0996 1.74965,1.27196 m 0,0 0.93407,0.67904 m 0,0 0.30651,0.22283 2.48047,-2.52539 -1.81641,1.9082 2.08789,2.56055 c 0.0792,0.11768 0.15289,0.22312 0.23242,0.30664 l -0.25223,0.18322 m -40.75495,-0.34969 14.01695,19.28952 -18.5625,-13.48438 2.17383,-2.99023 -0.0956,-0.0939 m 0,0 -2.49425,-2.44911 1.9746,1.87891 2.5586,-2.08789 c 0.11768,-0.0792 0.22312,-0.15094 0.30664,-0.23047 l 0.12172,0.16751 m 42.71303,2.52529 0.0459,0.0632 m 0,0 1.39473,1.91978 0.0256,-0.0133 m 0,0 3.11115,-1.62144 -2.31641,1.25391 1.19531,3.08008 c 0.039,0.1364 0.0752,0.25927 0.125,0.36328 l -0.2479,0.0805 m 0,0 -22.62905,7.35111 18.48664,-13.43121 m 0,0 0.0759,-0.0551 0.73319,1.00921 m 4.22857,7.05888 0.01,0.0294 m 0,0 0.99354,3.05878 0.088,-0.0147 m 0,0 3.50572,-0.58683 -2.69336,0.49414 0.18359,3.29687 c -0.005,0.14176 -0.008,0.26851 0.008,0.38282 h -0.19726 m 0,0 h -23.85743 l 21.78097,-7.07706 m 0,0 0.0394,-0.0128 0.13949,0.42942 m 2.24716,12.04759 3.4278,0.51127 -2.69922,-0.35937 -0.84375,3.19336 c -0.0487,0.13325 -0.0905,0.25375 -0.11133,0.36719 l -0.11337,-0.0368 m 0,0 -22.76553,-7.39677 h 22.94531 v 3.69727 l 0.16009,0.0239 m -1.67397,8.91794 3.01583,1.50154 -2.4414,-1.16797 -1.78907,2.77539 c -0.0874,0.1117 -0.16584,0.213 -0.2207,0.31445 l -0.0294,-0.0214 m 0,0 -19.43545,-14.11927 v 0 l 21.82617,7.09179 -1.14258,3.51758 0.21659,0.10784" />
  <path
     id="path254"
     style="display:inline;fill:#ffccaa;stroke:none;stroke-width:0.8;stroke-linecap:butt;stroke-linejoin:miter;stroke-dasharray:none;stroke-opacity:1"
     d="m 96.935872,60.581762 c 0,0 2.693691,20.501378 8.437498,28.986328 -2.67641,-0.83636 -6.150197,-1.259299 -9.685545,-1.443359 -8.044869,-0.41884 -16.408203,0.40039 -16.408203,0.40039 0,0 15.097581,9.031331 24.220698,10.056641 -6.327179,4.076918 -14.318354,16.355468 -14.318355,16.355468 0,0 14.193085,-5.23275 19.310545,-10.67774 0.42263,5.60742 2.75195,12.90039 2.75195,12.9004 0,0 3.04145,-9.66447 2.65235,-15.29883 a 6.5434904,5.9083966 0 0 0 1.25195,-0.14649 h 0.002 l 2.70117,7.46094 1.14649,-0.49023 -2.60938,-7.34961 a 6.5434904,5.9083966 0 0 0 1.53907,-0.88281 c 3.91061,3.39505 12.625,6.54882 12.625,6.54882 0,0 -4.20923,-6.37358 -8.18946,-9.736324 7.16005,-0.36804 20.47071,-8.314453 20.47071,-8.314453 0,0 -12.88433,-1.193513 -20.14453,0.773437 4.83305,-8.20046 7.10937,-26.162109 7.10937,-26.162109 0,0 -11.57187,11.994362 -15.35742,20.894531 -3.65925,-9.672626 -17.505858,-23.875 -17.505858,-23.875 z" />
  <path
     id="path10"
     style="display:inline;fill:#ffccaa;stroke:none;stroke-width:0.799998;stroke-linecap:butt;stroke-linejoin:miter;stroke-dasharray:none;stroke-opacity:1"
     d="m 198.58152,96.220389 c 0,0 -10.63602,-3.040404 -16.02773,-2.018768 0.98268,-1.140093 1.93297,-2.760993 2.77922,-4.463106 1.92566,-3.873241 3.3119,-8.16706 3.3119,-8.16706 0,0 -7.65983,5.512393 -10.11364,9.78753 -0.64768,-3.984878 -4.96411,-10.536448 -4.96411,-10.536448 0,0 -0.46704,8.105397 1.11062,11.785864 -2.84194,-0.986325 -6.91865,-1.39257 -6.91866,-1.392574 0,0 4.09205,3.556766 6.94003,4.565336 a 3.1606575,3.5135469 23.466154 0 0 -0.19577,0.647862 l -4e-4,9.17e-4 -4.23865,-0.258862 -0.005,0.669126 4.16439,0.280358 a 3.1606575,3.5135469 23.466154 0 0 0.10412,0.94612 c -2.50212,1.202938 -5.91297,4.823356 -5.91297,4.823356 0,0 4.02753,-0.71555 6.52868,-1.95966 -1.35036,3.60505 -0.29712,11.85387 -0.29712,11.85387 0,0 3.34057,-6.09187 3.92776,-10.08684 2.99058,4.12734 11.31766,9.0747 11.31766,9.0747 0,0 -3.41137,-8.25469 -6.96927,-12.015132 5.52878,0.258092 15.45857,-3.536609 15.45857,-3.536609 z" />
  <path
     id="path9"
     style="display:inline;fill:#ffccaa;stroke:none;stroke-width:0.799998;stroke-linecap:butt;stroke-linejoin:miter;stroke-dasharray:none;stroke-opacity:1"
     d="m 209.04314,131.52319 c 0,0 -10.60939,10.30175 -13.01724,17.21448 -0.6667,-1.88908 -1.91222,-4.05782 -3.32118,-6.15974 -3.20615,-4.78302 -7.25913,-9.21926 -7.25913,-9.21926 0,0 1.28588,12.49932 4.60598,18.15857 -5.04989,-1.87898 -15.51862,-1.20573 -15.51862,-1.20573 0,0 9.0829,5.88672 14.39951,6.4888 -3.03639,2.63789 -6.22309,7.08721 -6.2231,7.08722 0,0 6.84831,-2.38899 9.91452,-5.0192 a 4.6778845,4.2268517 52.547186 0 0 0.6204,0.6539 l 7.2e-4,0.002 -3.12377,4.73389 0.77245,0.44666 3.09922,-4.6338 a 4.6778845,4.2268517 52.547186 0 0 1.16589,0.50359 c -0.27269,3.68872 1.65103,10.02351 1.65103,10.02351 0,0 1.8538,-5.13232 2.07813,-8.84708 3.2786,3.94041 13.54051,8.16258 13.54051,8.16258 0,0 -4.83491,-7.88363 -9.07385,-11.19815 6.77582,-0.73808 18.05714,-7.11028 18.05714,-7.11028 0,0 -11.83967,-1.4974 -18.56821,0.13915 3.98236,-6.22725 6.19949,-20.22022 6.19949,-20.22022 z" />
  <path
     id="fan_linework"
     style="fill:none;stroke:#000000;stroke-width:1px;stroke-linecap:butt;stroke-linejoin:miter;stroke-opacity:1"
     d="m 142.07617,45.832031 -4.41797,19.476563 z m -30.60742,0.654297 3.92773,18.822266 z m 58.59766,7.365234 -8.83789,15.876954 z m -85.933598,4.25586 7.529297,16.695312 z M 194.61914,69.402344 180.21484,83.478516 Z M 60.726562,76.439453 73.330078,89.042969 Z m 153.371098,18.005859 -18.16993,7.365238 z m 9.98437,26.353518 -18.49609,3.27344 z m -18.16992,27.00586 20.13477,3.92969 z m -3.27344,24.71679 15.87891,8.67579 z m -49.04092,-13.67197 47.83389,46.97666 10.88867,-11.00195 c -36.35591,-27.93957 0.20899,-0.28711 0.20899,-0.28711 l 5.38867,-13.80078 0.125,0.0625 6.95508,-13.82813 c -43.2109,-15.33826 0.10937,-0.33789 0.10937,-0.33789 l 0.86133,-14.78906 0.13672,0.0195 2.3418,-15.30273 c -45.8361,-1.23552 0,-0.35352 0,-0.35352 l -3.75196,-14.33203 0.13672,-0.0234 -2.5,-15.27539 c -43.97454,12.98815 -0.10937,-0.33789 -0.10937,-0.33789 l -8,-12.472655 0.125,-0.06445 -7.10157,-13.753906 c -37.80845,25.940441 -0.20703,-0.28711 -0.20703,-0.28711 l -11.46094,-9.388672 0.0977,-0.09961 -11.0039,-10.888672 c -27.94141,36.35352 -0.28711,-0.208984 -0.28711,-0.208984 l -13.80274,-5.388672 0.0625,-0.125 -13.82812,-6.955078 c -15.33927,43.20805 -0.33789,-0.109375 -0.33789,-0.109375 l -14.79297,-0.859375 0.0215,-0.138672 -15.30078,-2.341797 c -1.23349,45.754652 -0.35847,0.156206 -0.35547,0 l -14.33398,3.751953 -0.0234,-0.136719 -15.275391,2.501954 c 12.989001,43.97164 -0.337891,0.109374 -0.337891,0.109374 l -12.472656,7.998047 -0.06445,-0.123047 -13.75586,7.097657 C 95.729267,102.16143 69.5,64.564453 69.5,64.564453 l -9.390625,11.460938 -0.09961,-0.09766 -10.888672,11.001954 c 36.355912,27.939575 -0.207031,0.287109 -0.207032,0.287109 l -5.753906,14.732426 59.748045,28.60547 1.78907,-2.77539 c 0.0874,-0.1117 0.16389,-0.21301 0.21875,-0.31446 l 0.10746,0.0781" />
</svg>
