<svg xmlns="http://www.w3.org/2000/svg" cursor="default" viewBox="0 0 256 256">
    <defs>
        <linearGradient id="linearGradient924" x1="18.12" x2="21.466" y1="241.29" y2="228.73" gradientTransform="scale(1 -1) rotate(-89.503 -.246 -.024)" gradientUnits="userSpaceOnUse">
            <stop offset="0" stop-color="#917c6f"/>
            <stop offset="1" stop-color="#ac9d93"/>
        </linearGradient>
        <linearGradient id="innoGrad4">
            <stop offset="0" stop-color="#ffb380"/>
            <stop offset="1" stop-color="#fca"/>
        </linearGradient>
    </defs>
    <path fill="none" stroke="#000" d="M105.023 127.543l22.026 16.002.053.16.103-.047.43.313.52.715.204-.188 1.096.795.83-1.457-1.465-1.063-.488-.673-.262-.803v-.842l.26-.799.492-.676.68-.494.799-.26h.842l.796.26 23.602 17.147-2.172 2.992.229.224m-18.199-46.334h0m0 0l-7.329 22.553v-22.83m0 0v-.113h2.217m0 0h.719m0 0h.762l.535-3.594-.36 2.705 3.194.844c.133.049.253.092.367.113l-.105.322m-8.993-.081v23.74l-7.07-21.754m0 0l-.022-.068.987-.32m0 0l.012-.005m0 0l2.519-.818-.002-.014m0 0l-.578-3.443.471 2.558 3.299-.185c.142.005.27.008.385-.008v.316m17.53 2.914h0m0 0l-13.943 19.188 7.052-21.697m0 0l.04-.125 3.516 1.142 1.61-3.228-1.169 2.437 2.778 1.79c.111.087.213.165.314.22l-.198.273m-26.124-.23l7.35 22.617-13.48-18.551m0 0l-.007-.01.113-.081m0 0l.01-.007m0 0l2.869-2.085-.03-.058m0 0l-1.607-3.084 1.256 2.322 3.078-1.195c.137-.04.26-.076.363-.125l.084.257m33.389 5.549l-19.21 13.955 13.415-18.463m0 0l.072-.1 1.75 1.273m0 0l.934.679m0 0l.307.223 2.48-2.526-1.816 1.908 2.088 2.56c.079.119.153.224.232.308l-.252.183m-40.755-.35l14.017 19.29L105.9 126.12l2.174-2.99-.095-.094m0 0l-2.495-2.449 1.975 1.879 2.558-2.088c.118-.08.224-.15.307-.23l.122.167m42.713 2.525l.046.064m0 0l1.395 1.92.025-.014m0 0l3.111-1.621-2.316 1.254 1.195 3.08c.04.136.075.259.125.363l-.248.08m0 0l-22.629 7.351 18.487-13.43m0 0l.076-.056.733 1.01m4.229 7.058l.01.03m0 0l.993 3.058.088-.014m0 0l3.506-.587-2.694.494.184 3.297c-.005.142-.008.268.008.383h-.197m0 0h-23.858l21.781-7.077m0 0l.04-.013.14.43m2.246 12.047l3.428.511-2.7-.36-.843 3.194c-.049.133-.09.254-.111.367l-.114-.036m0 0l-22.765-7.397h22.945v3.697l.16.024m-1.674 8.918l3.016 1.501-2.441-1.168-1.79 2.776a2.369 2.369 0 00-.22.314l-.03-.021m0 0l-19.435-14.12v0l21.826 7.092-1.142 3.518.216.108"/>
    <path fill="none" stroke="#000" d="M142.076 45.832l-4.418 19.477zm-30.607.654l3.927 18.823zm58.597 7.366l-8.837 15.877zm-85.933 4.255l7.53 16.696zm110.486 11.295L180.215 83.48zM60.727 76.44L73.33 89.043zm153.37 18.006l-18.17 7.366zm9.985 26.354l-18.496 3.273zm-18.17 27.006l20.135 3.93zm-3.273 24.716l15.879 8.676zm-49.041-13.671l47.834 46.976 10.888-11.002c-36.356-27.94.21-.287.21-.287l5.388-13.8.125.062 6.955-13.828c-43.21-15.339.11-.338.11-.338l.86-14.79.137.02 2.342-15.302c-45.836-1.236 0-.354 0-.354l-3.752-14.332.137-.023-2.5-15.276c-43.975 12.988-.11-.338-.11-.338l-8-12.472.126-.065-7.102-13.754c-37.808 25.94-.207-.287-.207-.287l-11.46-9.389.097-.1-11.004-10.888c-27.941 36.354-.287-.209-.287-.209l-13.803-5.388.063-.125-13.829-6.956c-15.339 43.209-.337-.109-.337-.109l-14.793-.86.021-.138-15.3-2.342c-1.234 45.755-.36.156-.356 0l-14.334 3.752-.024-.137-15.275 2.502c12.99 43.972-.338.11-.338.11L83.608 57.38l-.065-.123-13.756 7.097c25.942 37.806-.287.21-.287.21l-9.39 11.46-.1-.097L49.12 86.93c36.356 27.94-.207.287-.207.287l-5.754 14.732 59.748 28.606 1.79-2.776c.087-.111.163-.213.218-.314l.107.078"/>
    <path fill="#fea" d="M143.706 146.392c-6.208-4.514-11.524-8.307-11.813-8.43-1.84-.779-4.038.493-4.26 2.465-.148 1.31.06 1.865 1.061 2.827.67.643.867.928.735 1.06-.133.133-.614-.13-1.787-.977-11.565-8.345-21.575-15.724-21.575-15.903 0-.124.073-.248.163-.276.09-.029 4.168 2.86 9.062 6.42 8.532 6.204 8.911 6.459 9.207 6.19.17-.153.31-.347.31-.43 0-.082-3.03-4.313-6.733-9.403-3.702-5.089-6.74-9.366-6.752-9.505-.01-.138.064-.281.167-.318.102-.036 3.122 3.98 6.71 8.926l6.525 8.992.464-.238c.255-.131.432-.326.394-.432-.037-.107-1.678-5.152-3.646-11.213-2.95-9.087-3.536-11.045-3.342-11.164.13-.08.278-.094.33-.03.051.064 1.636 4.884 3.52 10.712l3.426 10.597.532.002.532.002v-11.95c0-11.839.003-11.948.327-11.948.325 0 .328.109.328 11.376 0 9.711.034 11.376.232 11.376.128 0 .341.042.475.093.192.074.589-.974 1.907-5.033 5.687-17.507 5.743-17.671 6.03-17.608.152.033.265.13.251.215-.014.084-1.587 4.964-3.497 10.843-3.317 10.215-3.458 10.7-3.166 10.923.168.129.392.217.498.196.107-.021 3.264-4.274 7.016-9.45 3.752-5.177 6.912-9.508 7.023-9.625.164-.174.235-.17.392.019.156.187-1.073 1.971-6.438 9.347-3.647 5.014-6.631 9.174-6.631 9.245 0 .071.143.259.318.418.306.276.341.272.86-.092.297-.208 4.555-3.295 9.461-6.86 4.907-3.564 9.005-6.53 9.107-6.592.102-.062.272-.008.378.118.157.19-1.436 1.413-8.984 6.896-5.047 3.665-9.176 6.75-9.176 6.856 0 .106.096.323.213.483.198.27.956.048 11.39-3.343 8.208-2.668 11.226-3.585 11.36-3.451.114.114.124.236.026.328-.085.081-4.87 1.671-10.63 3.535-5.762 1.863-10.541 3.449-10.62 3.524-.079.075-.096.326-.038.557l.105.42 11.74.042c11.03.04 11.742.06 11.794.328.052.27-.572.287-11.262.287H136.41l.051.525c.05.508.1.54 1.525.993 1.897.6 12.021 3.885 16.774 5.44 2.023.663 3.705 1.284 3.737 1.38.032.095-.05.214-.182.265-.132.05-4.896-1.422-10.587-3.273-5.691-1.852-10.402-3.366-10.469-3.366-.123 0-.553.828-.466.899a9886.6 9886.6 0 009.345 6.785c7.685 5.576 9.265 6.786 9.105 6.979-.106.127-.205.232-.221.232-.016 0-5.107-3.693-11.315-8.207z"/>
    <path fill="#fca" d="M177.697 181.798l-23.633-23.241 1.083-1.53c.596-.84 1.017-1.713.936-1.938-.085-.234.039-.343.289-.254.26.092.804-.452 1.346-1.345.765-1.26 1.026-1.465 1.637-1.28 2.066.627 2.496-.096.572-.963-1.47-.663-1.52-.824-.84-2.751.263-.746.395-1.575.293-1.842-.103-.267-.037-.485.146-.485.182 0 .52-.737.751-1.637.411-1.604.444-1.637 1.667-1.637 1.856 0 1.642-.84-.304-1.195l-1.552-.283-.003-4.084-.003-4.084.963-.17c.53-.092.935-.279.9-.414a2.742 2.742 0 01-.063-.563c0-.174-.184-.26-.409-.192-.225.07-.878.206-1.451.305-1.01.174-1.06.127-1.608-1.527a72.518 72.518 0 00-1.465-3.888l-.9-2.183.953-.394c.523-.217.952-.529.952-.692 0-.604-1.012-.66-1.861-.105-.874.573-.875.573-1.88-.694a79.685 79.685 0 00-2.561-2.995c-.855-.95-1.555-1.842-1.555-1.98 0-.138.23-.578.51-.979.81-1.156.206-1.563-.837-.563l-.91.872-3.065-1.823a889.59 889.59 0 00-3.548-2.105c-.405-.234-.417-.43-.078-1.174.392-.861.3-1.5-.215-1.5-.136 0-.486.502-.778 1.115l-.531 1.113-2.372-.622c-1.305-.343-2.603-.624-2.885-.625-.283 0-1.036-.147-1.676-.324-1.09-.303-1.153-.395-1.028-1.472.104-.89.017-1.148-.389-1.148-.354 0-.588.409-.725 1.265l-.202 1.265-2.994.262c-5.194.455-5.27.447-5.388-.583-.07-.61-.294-.9-.693-.9-.51 0-.556.178-.345 1.335.198 1.083.144 1.37-.29 1.523-.293.104-1.913.755-3.599 1.448-1.686.693-3.2 1.26-3.363 1.26-.163 0-.464-.369-.669-.819-.368-.807-1.25-1.142-1.25-.475 0 .19.23.788.511 1.332.281.543.465 1.11.41 1.26-.057.15-1.477 1.332-3.158 2.628l-3.055 2.356-.796-.747c-.613-.576-.884-.658-1.183-.36-.299.3-.14.645.695 1.506l1.083 1.117-1.018 1.48c-.56.813-1.018 1.636-1.018 1.829 0 .193-.134.35-.297.35-.164 0-.716.664-1.228 1.475-.618.98-1.092 1.414-1.412 1.292-2.349-.893-58.268-27.887-58.273-28.13-.007-.304 4.877-12.963 5.104-13.23.06-.07 3.675 2.547 8.036 5.815 5.681 4.258 8.026 5.84 8.275 5.584.43-.443.102-.726-8.773-7.568l-6.83-5.265 5.11-5.11 5.11-5.109 6.305 6.3c3.469 3.464 6.489 6.3 6.712 6.3 1.03 0-.023-1.267-5.895-7.094l-6.302-6.252 4.212-5.108c2.316-2.81 4.324-5.04 4.462-4.954.138.085 2.735 3.691 5.773 8.013 5.004 7.122 6.34 8.69 6.34 7.445 0-.231-2.503-4.088-5.563-8.571l-5.564-8.15 6.267-3.215c3.446-1.768 6.369-3.215 6.494-3.215s1.897 3.72 3.938 8.266c2.04 4.547 3.795 8.37 3.9 8.498.105.128.377.117.604-.023.306-.19-.482-2.236-3.051-7.925-1.905-4.218-3.66-8.064-3.898-8.547l-.434-.876 5.569-3.543c3.062-1.948 5.639-3.543 5.726-3.543.087 0 .815 2.136 1.618 4.747 3.835 12.468 4.391 14.077 4.867 14.077.263 0 .477-.184.475-.41-.002-.224-1.243-4.607-2.757-9.737-1.513-5.131-2.727-9.35-2.696-9.375.125-.101 13.969-2.281 13.969-2.2 0 .05.81 3.958 1.8 8.686s1.8 8.712 1.8 8.852c0 .14.242.255.536.255.675 0 .624-.351-1.48-10.393-.878-4.187-1.556-7.612-1.508-7.612.049 0 2.867-.735 6.263-1.634 3.396-.899 6.36-1.635 6.587-1.637.329-.002.369 2.003.194 9.768-.169 7.546-.127 9.826.182 10.017.22.136.5.149.62.028.121-.121.348-4.666.504-10.1.156-5.433.305-9.9.331-9.927.05-.05 11.362 1.67 13.224 2.011.625.114 1.064.391 1.064.672 0 .263-.884 4.38-1.964 9.15-1.08 4.77-1.964 8.894-1.964 9.165 0 .27.22.492.49.492s.492-.114.492-.255c0-.602 4.166-18.424 4.35-18.608.193-.193 12.687.436 12.9.65.056.055-1.303 4.203-3.02 9.217-2.905 8.48-3.478 10.87-2.308 9.627.242-.257 1.888-4.54 3.658-9.518l3.218-9.052 6.15 3.079c3.384 1.693 6.152 3.171 6.152 3.284 0 .113-1.931 3.662-4.29 7.886-3.228 5.778-4.198 7.774-3.915 8.056.464.465.052 1.112 5.12-8.033l4.12-7.432 1.692.654c3.822 1.477 11.193 4.365 11.288 4.423.056.034-2.559 3.588-5.81 7.897-3.253 4.31-5.914 8.007-5.914 8.218 0 1.18 1.404-.262 5.762-5.919a2602.11 2602.11 0 016.03-7.805l1.176-1.504 4.664 4.549 4.664 4.55-7.072 6.906c-4.953 4.838-6.969 7.01-6.727 7.252.398.398.924-.07 8.906-7.935l5.454-5.374 5.35 4.355c2.941 2.395 5.544 4.533 5.784 4.752.351.32-1.12 1.494-7.611 6.071-7.114 5.016-8.899 6.526-7.712 6.526.326 0 6.54-4.1 13.316-8.788l3.34-2.31 3.29 6.336c1.809 3.484 3.289 6.481 3.289 6.66 0 .178-.184.399-.41.49-.224.093-4.067 1.655-8.538 3.472-9.398 3.82-9.106 3.68-8.775 4.216.187.303 2.568-.53 9.191-3.211 4.916-1.99 9.06-3.576 9.21-3.523.545.192 6.904 10.486 6.636 10.742-.152.146-4.253 1.48-9.115 2.965-4.86 1.485-9.029 2.847-9.261 3.026-.273.21-.31.438-.107.642.204.204 3.615-.642 9.59-2.377 5.1-1.482 9.41-2.716 9.578-2.742.24-.038 2.541 12.527 2.341 12.785-.028.036-4.146.798-9.152 1.692-5.005.894-9.189 1.714-9.296 1.822-.108.108-.052.34.123.515.26.26 14.07-1.906 17.673-2.771.64-.154.805.287 2.425 6.458l1.891 7.203c.145.551-.37.57-9.872.357-8.992-.2-10.025-.17-10.025.29 0 .729 1.147.84 11.213 1.087 7.283.179 8.757.294 8.757.684 0 .653-1.968 13.318-2.088 13.438-.054.054-4.227-.713-9.275-1.704-9.848-1.933-10.57-2.028-10.57-1.379 0 .295 3.003 1.006 9.862 2.335l9.862 1.912-.2 2.658c-.11 1.461-.298 4.535-.417 6.83-.119 2.296-.273 4.175-.342 4.175s-4.195-1.4-9.168-3.11c-4.974-1.71-9.241-3.11-9.484-3.11a.445.445 0 00-.441.446c0 .501-.169.433 10.627 4.302 4.315 1.547 7.896 2.863 7.958 2.925.062.062-1.332 2.987-3.098 6.5l-3.21 6.388-7.367-4.04c-4.92-2.698-7.474-3.93-7.693-3.71-.458.46-.051.72 7.658 4.9a1014.65 1014.65 0 016.825 3.72c.108.082-4.537 12.069-4.788 12.354-.112.126-3.158-2.01-6.769-4.747-8.654-6.56-9.254-6.964-9.682-6.535-.367.367 1.174 1.66 10.603 8.898 2.656 2.038 4.828 3.8 4.828 3.916 0 .116-2.246 2.442-4.992 5.17l-4.992 4.961z"/>
    <path fill="#faa" d="M135.451 56.846a16.368 15.55 0 00-13.672 15.338 16.368 15.55 0 0016.37 15.55 16.368 15.55 0 0014.154-7.741 16.368 15.55 0 01-2.697.21 16.368 15.55 0 01-16.368-15.548 16.368 15.55 0 012.213-7.809zM174.098 119.161h10.228c2.034 0-2.618 0-4.43.003-.095 0 .192.002.288.004.295.004.59.013.886.021.644.02 1.288.05 1.932.08a54.04 54.04 0 012.056.13c.7.065 1.4.142 2.097.237a27.065 27.065 0 014.055.918c.617.196 1.222.427 1.816.685.56.246 1.104.526 1.643.816.48.267.95.558 1.39.889.368.27.663.613.928.982.211.3.363.634.489.978.095.288.155.587.19.888.03.277-.004.554-.064.825-.066.28-.21.525-.379.756-.19.256-.42.477-.663.684a7.054 7.054 0 01-.945.618c-.358.206-.73.386-1.104.56a20.816 20.816 0 01-2.67.965 40.35 40.35 0 01-1.537.388c-.528.126-1.059.238-1.59.347a33.23 33.23 0 01-1.687.302c-.593.093-1.187.175-1.782.254-.615.079-1.23.162-1.849.223-.669.068-1.34.102-2.012.128-.715.027-1.43.05-2.146.072a819.068 819.068 0 01-6.416.174c-.675.016-1.35.056-2.022.115-.631.051-1.258.138-1.882.245-.577.1-1.143.255-1.705.418-.516.153-1.017.348-1.505.573-.434.208-.852.447-1.256.706-.379.247-.728.534-1.048.853-.301.313-.577.65-.836.997-.24.32-.462.654-.676.993-.2.313-.361.649-.512.987-.145.323-.244.66-.318 1.005a4.551 4.551 0 00-.098 1.007c.01.36.105.706.224 1.041.142.367.368.688.61.995.276.33.59.625.912.91.343.305.72.568 1.102.823.41.277.844.516 1.282.745.49.251.996.467 1.505.674.538.217 1.082.419 1.631.607.561.188 1.127.36 1.701.503.594.138 1.19.267 1.79.381.634.116 1.275.193 1.915.272.642.078 1.284.152 1.926.224.642.074 1.287.115 1.932.16a356.732 356.732 0 003.846.236c.627.04 1.255.063 1.883.086.613.022 1.226.042 1.839.062.606.024 1.213.032 1.82.04 2.279.011 4.558.008 6.837-.003.62-.002 1.24-.018 1.861-.03.64-.024 1.278-.059 1.916-.09.635-.032 1.27-.062 1.904-.092.646-.03 1.292-.058 1.938-.083.68-.027 1.36-.051 2.04-.075a74.19 74.19 0 012.072-.054c-1.134-.005 2.178-.004 1.037-.003-8.2.004-5.73-.013-3.98.01.687.004 1.373.047 2.058.108.751.06 1.499.154 2.247.246.759.09 1.516.192 2.273.299.737.105 1.469.246 2.198.391.706.141 1.404.32 2.094.524.666.2 1.319.442 1.962.707a17.13 17.13 0 011.796.89c.563.312 1.088.685 1.61 1.063.473.352.92.738 1.338 1.153.356.38.676.79.946 1.236.246.412.432.85.57 1.308.127.43.184.876.204 1.324.024.447-.048.886-.146 1.32-.111.438-.28.858-.469 1.267-.197.42-.443.814-.706 1.196-.295.42-.646.796-.992 1.174-.355.386-.729.753-1.115 1.107-.4.36-.817.7-1.243 1.03-.438.334-.884.657-1.333.975a35.475 35.475 0 01-2.912 1.804c-.504.284-1.012.558-1.529.819a32.334 32.334 0 01-3.335 1.43c-.592.219-1.192.418-1.792.614-.605.197-1.215.375-1.824.558h5c.609-.183 1.22-.361 1.824-.558.6-.196 1.2-.395 1.793-.615a32.334 32.334 0 003.334-1.43c.517-.26 1.025-.534 1.53-.818a35.475 35.475 0 002.91-1.804c.45-.318.896-.641 1.334-.974.426-.33.843-.67 1.243-1.031.386-.354.76-.721 1.115-1.107.346-.378.697-.754.992-1.174.263-.382.51-.775.706-1.196.19-.41.358-.829.47-1.267.097-.434.169-.873.145-1.32a5.476 5.476 0 00-.205-1.324 5.767 5.767 0 00-.57-1.308 7.494 7.494 0 00-.945-1.236 12.382 12.382 0 00-1.339-1.153c-.52-.378-1.046-.751-1.609-1.064a17.13 17.13 0 00-1.796-.889 20.887 20.887 0 00-1.962-.707 23.41 23.41 0 00-2.094-.524 40.303 40.303 0 00-2.198-.391c-.757-.107-1.514-.209-2.273-.299-.748-.092-1.496-.186-2.247-.246a24.223 24.223 0 00-2.059-.107c-2.352-.032-4.704-.016-7.056-.008-.691.007-1.382.027-2.073.054-.68.023-1.36.048-2.039.075-.646.025-1.292.052-1.938.083l-1.904.091c-.638.032-1.277.066-1.916.09-.62.013-1.24.029-1.86.03l-.929.004-.304.001c5.093.001 6.244.006 4.395 0a70.78 70.78 0 01-1.82-.04l-1.839-.063a73.061 73.061 0 01-1.883-.086 373.837 373.837 0 01-3.846-.237c-.645-.044-1.29-.085-1.932-.16-.642-.072-1.284-.145-1.926-.223-.64-.079-1.28-.156-1.915-.272a45.342 45.342 0 01-1.79-.381 21.86 21.86 0 01-1.7-.503 32.805 32.805 0 01-1.632-.607 18.99 18.99 0 01-1.505-.674c-.438-.23-.871-.469-1.282-.745a9.946 9.946 0 01-1.102-.824 8.673 8.673 0 01-.912-.91c-.242-.306-.468-.627-.61-.994-.119-.336-.214-.682-.224-1.04-.007-.34.03-.676.098-1.008.074-.344.173-.682.318-1.005.15-.339.313-.674.512-.987.214-.339.435-.672.676-.993.26-.347.535-.684.836-.997.32-.32.669-.606 1.048-.853.404-.26.822-.498 1.256-.706.488-.225.99-.42 1.505-.573a15.823 15.823 0 011.705-.418c.624-.107 1.251-.194 1.882-.245a32.29 32.29 0 012.022-.115 1238.944 1238.944 0 004.256-.11c.72-.02 1.44-.041 2.16-.064.716-.022 1.431-.045 2.146-.072.672-.027 1.343-.06 2.012-.128.618-.06 1.234-.144 1.85-.224a75.545 75.545 0 001.781-.253 33.252 33.252 0 001.686-.302 52.039 52.039 0 001.591-.347 40.35 40.35 0 001.537-.388 20.816 20.816 0 002.67-.965c.374-.175.746-.354 1.104-.56.327-.188.652-.38.945-.619.243-.206.472-.427.663-.684.168-.23.313-.475.38-.756.06-.27.093-.547.063-.824a4.476 4.476 0 00-.19-.888 4.195 4.195 0 00-.489-.979c-.265-.368-.56-.71-.929-.982-.44-.33-.909-.62-1.39-.889-.538-.29-1.082-.57-1.642-.816-.594-.257-1.2-.488-1.816-.684a27.065 27.065 0 00-4.055-.918 48.667 48.667 0 00-2.097-.238 54.123 54.123 0 00-2.056-.13c-.644-.028-1.288-.06-1.932-.079-2.247-.066-4.496-.025-6.744-.028h-10.228zM81.363 113.814h2.223c.383-.011.766-.03 1.15-.046a151.584 151.584 0 012.755-.086 22.234 22.234 0 001.507-.064c.582-.046 1.165-.089 1.747-.128.63-.042 1.261-.077 1.892-.11a248.104 248.104 0 013.925-.168 396.982 396.982 0 016.464-.16c.765-.014 1.53-.026 2.295-.037 2.507-.12 5.01-.398 7.507-.62.84-.073 1.656-.291 2.464-.525.752-.214 1.47-.525 2.153-.903.657-.366 1.236-.846 1.792-1.348.492-.432.928-.903 1.264-1.464.269-.468.442-.982.578-1.502.117-.447.058-.894-.03-1.339-.098-.425-.292-.818-.505-1.195-.21-.384-.48-.726-.76-1.06a6.803 6.803 0 00-1.042-.987c-.44-.334-.909-.627-1.39-.897a10.442 10.442 0 00-1.756-.75 40.635 40.635 0 00-2.254-.626 55.929 55.929 0 00-2.268-.52 63.726 63.726 0 00-2.394-.434 99.185 99.185 0 00-5.1-.662c-.858-.092-1.719-.173-2.579-.251-.86-.074-1.72-.15-2.581-.204a33.52 33.52 0 00-2.652-.056c-.915.008-1.828.057-2.74.107-2.565.166-5.122.42-7.681.653l-.437.039 4.538-.398c.15-.014-.298.024-.447.036-.454.037-.908.07-1.362.104-.884.067-1.768.126-2.653.182a255.082 255.082 0 01-5.079.278c-.864.049-1.727.08-2.59 0a11.163 11.163 0 01-2.223-.485 8.08 8.08 0 01-1.878-.894c-.48-.333-.87-.756-1.21-1.228a4.16 4.16 0 01-.629-1.23 4.484 4.484 0 01-.232-1.259c0-.58.13-1.15.272-1.709.138-.57.324-1.124.545-1.666a9.89 9.89 0 01.923-1.685 12.253 12.253 0 012.447-2.612c.442-.354.908-.676 1.38-.989.491-.314 1.016-.57 1.54-.823a30.816 30.816 0 011.56-.686c.56-.224 1.136-.4 1.714-.572.639-.183 1.287-.331 1.936-.475a57.011 57.011 0 014.166-.727c.698-.097 1.398-.188 2.098-.275.667-.082 1.335-.16 2.003-.23.352-.034.705-.067 1.057-.099l.354-.031c-4.76.418-6.15.526-4.24.376.374-.03.747-.057 1.12-.083l4.981-.436c-.373.027-.746.054-1.12.083-2.379.187-4.756.401-7.132.627-.67.068-1.337.147-2.004.229-.7.087-1.4.178-2.098.275a57.014 57.014 0 00-4.165.727c-.65.144-1.298.292-1.937.475-.578.171-1.155.347-1.714.572-.526.214-1.047.442-1.56.686-.524.253-1.049.509-1.54.823-.472.313-.938.634-1.38.989a12.253 12.253 0 00-2.447 2.612 9.89 9.89 0 00-.923 1.685c-.22.542-.407 1.096-.545 1.666-.142.56-.272 1.13-.272 1.71.019.43.093.848.232 1.257.144.444.348.856.63 1.23.338.473.73.896 1.209 1.23a8.08 8.08 0 001.878.893c.725.23 1.465.406 2.222.484.864.08 1.727.05 2.591 0a254.962 254.962 0 007.732-.459c2.559-.19 5.114-.423 7.67-.653 1.752-.16 4.454-.397-3.658.317-1.497.132 2.844-.26 1.376-.099.913-.049 1.826-.099 2.74-.106a33.5 33.5 0 012.653.056c.861.055 1.721.13 2.581.204.86.078 1.72.159 2.58.25a99.18 99.18 0 015.099.662c.8.132 1.599.273 2.394.434.76.159 1.515.331 2.268.521.756.19 1.51.391 2.254.625.605.204 1.198.44 1.756.75.481.271.95.563 1.39.898.376.298.736.615 1.042.986.28.335.55.677.76 1.06.213.378.407.77.504 1.196.09.445.148.892.03 1.34-.135.52-.308 1.033-.576 1.5-.337.562-.773 1.033-1.265 1.465-.556.502-1.135.982-1.792 1.348-.683.378-1.4.69-2.153.903-.808.234-1.624.451-2.464.525 8.705-.75 4.454-.338 2.455-.252a650.386 650.386 0 00-4.493.08 396.955 396.955 0 00-4.265.116 225.082 225.082 0 00-3.926.17c-.63.033-1.262.067-1.892.11-.583.039-1.165.081-1.747.127-.502.038-1.004.06-1.507.064a151.584 151.584 0 00-2.755.086c-.384.017-.767.035-1.15.046h-2.223z"/>
    <path d="M179.103 184.587c-12.282-12.058-23.238-22.828-24.345-23.933l-2.014-2.008 1.05-1.43c.803-1.09 1.019-1.46.915-1.562-.299-.294-22.733-16.537-23.107-16.73-.83-.43-2.024-.117-2.64.692-.277.362-.316.517-.316 1.253 0 1.02.123 1.218 1.342 2.148.471.36.84.724.82.81-.021.085-.299.612-.618 1.17l-.58 1.015-.582-.427c-.463-.34-.622-.402-.779-.304-.164.103-.26.03-.583-.443-.268-.393-.466-.567-.645-.567-.148 0-.28-.086-.31-.204-.04-.152-21.215-15.684-21.62-15.858-.042-.018-.507.641-1.034 1.464l-.959 1.496-1.173-.55c-.645-.304-7.344-3.508-14.888-7.121l-23.264-11.14c-5.251-2.514-10.395-4.978-11.429-5.475l-1.88-.905v-1.056l.607.276c.334.151 1.389.651 2.344 1.11.954.46 6.085 2.92 11.4 5.469 5.316 2.547 12.269 5.881 15.452 7.408 3.182 1.527 6.255 3 6.828 3.272.573.272 4.32 2.063 8.328 3.979 4.007 1.916 7.318 3.445 7.357 3.397.04-.048.477-.702.972-1.455.494-.752.97-1.394 1.056-1.428.144-.055 22.974 16.438 23.272 16.813.071.089.163.161.206.161.042 0 .285.138.54.307.45.299.468.301.63.087.092-.121.155-.253.141-.294-.013-.04-.32-.314-.681-.607-.447-.363-.757-.737-.97-1.172-.28-.573-.307-.736-.26-1.549.043-.75.111-1.002.39-1.445.367-.581 1.034-1.115 1.658-1.327.543-.185 1.559-.168 2.041.034.47.196 2.448 1.602 11.57 8.223l9.636 6.99c1.608 1.166 2.951 2.164 2.985 2.22.094.15-.302.856-1.16 2.067l-.775 1.09 3.049 3.028c1.676 1.665 12.341 12.154 23.7 23.31l20.65 20.28.654-.673c.36-.37 2.645-2.685 5.079-5.144l4.426-4.471-1.02-.787-5.302-4.088c-7.784-5.998-9.526-7.446-9.398-7.808.092-.258.761-.098 1.43.342.372.245 3.894 2.862 7.828 5.816 3.933 2.953 7.17 5.35 7.194 5.326.024-.024 1.14-2.856 2.482-6.293 1.896-4.86 2.406-6.277 2.296-6.379-.078-.072-3.033-1.707-6.566-3.634-6.214-3.39-7.988-4.41-7.984-4.598a.662.662 0 01.102-.247c.083-.131.178-.133.548-.013.789.257 3.437 1.632 8.992 4.671 2.98 1.631 5.464 2.965 5.518 2.965.094 0 6.632-12.853 6.569-12.913-.016-.015-.55-.21-1.187-.433a2444.34 2444.34 0 01-7.928-2.834c-10.064-3.61-9.773-3.49-9.698-4.01.08-.565-.073-.61 11.538 3.366 4.163 1.426 7.591 2.57 7.617 2.544.027-.026.116-1.108.199-2.403l.15-2.356.016 3.444.016 3.443-3.183 6.366c-1.75 3.5-3.178 6.393-3.171 6.428.03.158-.285.747-.402.749-.112 0-5.147 12.694-5.212 13.138-.013.087-2.627 2.785-5.81 5.995l-5.788 5.836z"/>
    <path d="M199.943 205.057c-.828-.815-10.177-9.991-20.776-20.392-10.599-10.4-20.882-20.509-22.851-22.464l-3.581-3.554.874-1.206c1.02-1.407 1.2-1.714 1.057-1.813a9051.5 9051.5 0 01-7.911-5.75c-12.293-8.94-14.92-10.824-15.338-10.999-.564-.236-.968-.203-1.644.134-.785.392-1.118.92-1.123 1.783-.005.969.199 1.311 1.285 2.16l.966.754-.188.367c-.103.203-.39.72-.64 1.15l-.453.78-.593-.4c-.405-.272-.649-.368-.766-.302-.128.071-.29-.052-.62-.468-.25-.316-.542-.566-.663-.566-.12 0-.244-.072-.278-.16-.068-.176-4.433-3.409-14.46-10.707l-6.568-4.781v-.567c0-.312.026-.567.057-.567.055 0 17.779 12.846 20.928 15.168 2.167 1.597 2.575 1.851 2.728 1.697.218-.217.155-.326-.61-1.059-.9-.86-1.113-1.327-1.11-2.423.004-1.293.592-2.266 1.687-2.794.564-.271 1.738-.36 2.305-.172.236.078 1.973 1.248 3.86 2.6 5.592 4.006 20.08 14.532 20.31 14.755.206.2.206.22-.03.683-.134.262-.584.959-1.001 1.549l-.758 1.073 2.466 2.434c14.893 14.698 44.85 44.035 44.942 44.01.065-.018 2.371-2.302 5.125-5.076l5.009-5.043-5.009-3.864c-9.203-7.1-10.837-8.444-10.71-8.808.09-.254.75-.153 1.282.195.267.175 3.749 2.758 7.738 5.74 3.989 2.983 7.3 5.423 7.36 5.423.2 0 5.015-12.413 4.872-12.556-.023-.023-2.724-1.51-6.002-3.306-8.733-4.783-8.648-4.732-8.494-5.135.061-.159.16-.19.429-.136.532.107 3.64 1.712 9.394 4.852 3.132 1.708 5.253 2.8 5.324 2.741.185-.153 6.493-12.701 6.422-12.774-.034-.035-2.742-1.024-6.018-2.197-8.939-3.202-11.45-4.12-12.126-4.44-.539-.254-.61-.327-.579-.596.029-.248.103-.313.383-.338.343-.03 4.128 1.207 14.018 4.581l4.758 1.624.073-1.004c.309-4.22.767-12.682.69-12.751-.052-.047-1.918-.436-4.146-.865-7.98-1.535-13.21-2.6-14.209-2.89a21.543 21.543 0 00-1.07-.296c-.146 0-.035-.479.125-.54.1-.038.738.017 1.418.122 1.23.19 17.772 3.382 18.048 3.483.08.029.148.041.151.027.13-.473 2.145-14.052 2.094-14.101-.041-.04-3.356-.16-7.367-.268-9.713-.261-11.734-.356-12.255-.574-.445-.186-.574-.565-.235-.695.286-.11 6.8-.083 13.57.057 3.394.07 6.197.1 6.228.07.031-.032-.774-3.227-1.79-7.1-1.272-4.85-1.807-7.069-1.718-7.124.07-.044.104-.105.074-.135-.03-.03-1.93.282-4.22.693-8.84 1.585-13.924 2.365-14.347 2.203-.099-.038-.18-.17-.18-.295 0-.291.136-.321 7.06-1.566 10.744-1.93 11.28-2.02 11.37-1.878.047.073.086.258.087.412.001.154.033.248.072.21.06-.06-2.129-13.737-2.215-13.837-.017-.02-2.341.64-5.164 1.47-10.044 2.946-13.304 3.833-14.092 3.833-.37 0-.448-.342-.134-.596.145-.117 1.313-.55 2.595-.96 2.333-.75 14.202-4.409 15.445-4.763.363-.103.7-.225.748-.27.079-.072-1.998-3.39-5.776-9.227l-1.21-1.869-3.554 1.443c-11.456 4.652-13.903 5.594-14.524 5.594a.42.42 0 01-.43-.412c0-.126 1.661-.836 7.542-3.223 10.708-4.347 10.344-4.193 10.297-4.365a1.494 1.494 0 01-.043-.333c0-.211-6.479-12.842-6.59-12.845-.043-.001-2.335 1.543-5.092 3.432-5.436 3.723-10.549 7.136-11.235 7.5-.328.173-.462.195-.565.092-.423-.423 1.431-1.869 10.721-8.36 2.674-1.868 4.96-3.489 5.082-3.602.215-.202.212-.214-.166-.532-.213-.18-2.734-2.248-5.603-4.596-2.869-2.348-5.255-4.371-5.303-4.496-.108-.28-.497.082-7.691 7.146-5.286 5.191-6.377 6.191-6.753 6.191-.832 0 .372-1.299 9.207-9.934l4.398-4.299-4.288-4.284-4.289-4.284H186.86l5.037 5.028 5.037 5.028 5.382 4.4c2.96 2.42 5.408 4.496 5.44 4.612.031.117 1.63 3.259 3.552 6.982 1.922 3.723 3.546 6.906 3.61 7.073.063.167 1.878 3.056 4.033 6.42 2.52 3.936 3.922 6.23 3.93 6.431.006.173.568 3.767 1.247 7.986l1.235 7.673 1.843 7.125c1.564 6.053 1.824 7.177 1.724 7.466-.065.186-.61 3.594-1.213 7.573-.602 3.979-1.146 7.468-1.21 7.755-.062.286-.303 3.776-.533 7.754-.23 3.979-.462 7.26-.514 7.293-.135.085-5.782 11.286-6.483 12.859-.322.722-.656 1.393-.743 1.49-.225.25-5.147 12.656-5.159 13-.003.077-2.62 2.782-5.816 6.012l-5.811 5.874zM71.168 87.512c-.98-.917-3.812-3.703-6.294-6.191l-4.512-4.525.349-.349.348-.349 5.91 5.933c3.25 3.263 6.028 6.129 6.172 6.37.268.447.255.778-.03.778-.09 0-.963-.75-1.943-1.667z"/>
    <g fill="#faa" stroke="#000" stroke-width="1.536" transform="matrix(-.55733 .33623 -.33614 -.55748 176.198 186.764)">
        <path d="M81.841 93.3c15.83-21.832 10.365-63.39-12.112-67.438-25.952-4.673-16.698 45.81-40.266 68.092-4.097-2.63 1.87 1.17-2.619-1.31 26.878-38.618 13.965-76.801 41.903-73.33C94.153 22.473 104.98 72.706 89.37 93.3c-.989 1.305-6.251 1.022-7.53 0z"/>
        <ellipse cx="93.102" cy="67.756" stroke-linecap="round" stroke-linejoin="round" stroke-width="1.229" rx="7.529" ry="7.366"/>
        <path d="M87.399 75.237c-6.002-.599-9.192 7.697-20.654 15.136-.01 4.613 5.78 7.284 10.464 9.833 2.772-4.682 3.791-6.825 5.689-8.92-1.416 3.171-1.384 4.85-3.203 9.571 7.94 2.964 13.823 3.68 19.658 1.44-.978-1.598-.496-5.652-1.82-8.848 5.62 11.863 3.566 8.71 7.239 6.121.553-.174-3.714-7.476-5.906-11.021-1.96-3.169-.987-8.342-6.79-12.507-1.348-.829-3.138-1.167-4.677-.805z"/>
    </g>
</svg>
