<?xml version="1.0" encoding="UTF-8" standalone="no"?>
<svg
   cursor="default"
   version="1.1"
   viewBox="0 0 256 256"
   id="svg34"
   sodipodi:docname="folding_fan_moon.svg"
   inkscape:version="1.4.1-rc (d9e8dc1fe0, 2025-03-10)"
   width="100%"
   height="100%"
   xmlns:inkscape="http://www.inkscape.org/namespaces/inkscape"
   xmlns:sodipodi="http://sodipodi.sourceforge.net/DTD/sodipodi-0.dtd"
   xmlns:xlink="http://www.w3.org/1999/xlink"
   xmlns="http://www.w3.org/2000/svg"
   xmlns:svg="http://www.w3.org/2000/svg">
  <sodipodi:namedview
     id="namedview34"
     pagecolor="#ffffff"
     bordercolor="#666666"
     borderopacity="1.0"
     inkscape:showpageshadow="2"
     inkscape:pageopacity="0.0"
     inkscape:pagecheckerboard="0"
     inkscape:deskcolor="#d1d1d1"
     inkscape:zoom="3.0546875"
     inkscape:cx="138.31202"
     inkscape:cy="96.245524"
     inkscape:window-width="1854"
     inkscape:window-height="1010"
     inkscape:window-x="0"
     inkscape:window-y="0"
     inkscape:window-maximized="1"
     inkscape:current-layer="svg34"
     showgrid="false" />
  <defs
     id="defs18">
    <inkscape:path-effect
       effect="copy_rotate"
       starting_point="158.78714,185.78013"
       origin="131.3848,185.78013"
       id="path-effect3"
       is_visible="true"
       lpeversion="1.2"
       lpesatellites=""
       method="normal"
       num_copies="18"
       starting_angle="0"
       rotation_angle="20"
       gap="-0.01"
       copies_to_360="true"
       mirror_copies="false"
       split_items="true"
       link_styles="false" />
    <inkscape:path-effect
       effect="copy_rotate"
       starting_point="141.09463,208.38982"
       origin="115.2311,208.38982"
       id="path-effect1"
       is_visible="true"
       lpeversion="1.2"
       lpesatellites=""
       method="normal"
       num_copies="37"
       starting_angle="0"
       rotation_angle="18"
       gap="-0.01"
       copies_to_360="true"
       mirror_copies="true"
       split_items="false"
       link_styles="false" />
    <inkscape:path-effect
       effect="curvestitching"
       id="path-effect2"
       is_visible="true"
       lpeversion="1"
       count="5"
       startpoint_edge_variation="0;1"
       startpoint_spacing_variation="0;1"
       endpoint_edge_variation="0;1"
       endpoint_spacing_variation="0;1"
       strokepath="M 0,0 H 1"
       prop_scale="1"
       scale_y_rel="false" />
    <inkscape:path-effect
       effect="rough_hatches"
       id="path-effect27"
       is_visible="true"
       lpeversion="1.2"
       direction="130.23338,84.722658 , 44.619617,0"
       dist_rdm="0;1"
       growth="0"
       do_bend="true"
       bender="130.23338,89.722658 , 5,0"
       bottom_edge_variation="0;1"
       top_edge_variation="0;1"
       bottom_tgt_variation="0;1"
       top_tgt_variation="0;1"
       scale_bf="1"
       scale_bb="1"
       scale_tf="1"
       scale_tb="1"
       top_smth_variation="0;1"
       bottom_smth_variation="0;1"
       fat_output="true"
       stroke_width_top="1"
       stroke_width_bottom="1"
       front_thickness="1"
       back_thickness="0.25" />
    <inkscape:path-effect
       effect="rough_hatches"
       id="path-effect25"
       is_visible="true"
       lpeversion="1.2"
       direction="130.33594,169.64062 , 44.499022,0"
       dist_rdm="0;1"
       growth="0"
       do_bend="true"
       bender="130.33594,174.64062 , 5,0"
       bottom_edge_variation="0;1"
       top_edge_variation="0;1"
       bottom_tgt_variation="0;1"
       top_tgt_variation="0;1"
       scale_bf="0"
       scale_bb="0"
       scale_tf="0.3"
       scale_tb="1.2"
       top_smth_variation="0;1"
       bottom_smth_variation="0;1"
       fat_output="true"
       stroke_width_top="1"
       stroke_width_bottom="1"
       front_thickness="1"
       back_thickness="0.25" />
    <inkscape:path-effect
       effect="rough_hatches"
       id="path-effect22"
       is_visible="true"
       lpeversion="1.2"
       direction="130.23338,125.46803 , 44.619244,0"
       dist_rdm="0;1"
       growth="0"
       do_bend="true"
       bender="130.23338,130.46803 , 5,0"
       bottom_edge_variation="0;1"
       top_edge_variation="0;1"
       bottom_tgt_variation="0;1"
       top_tgt_variation="0;1"
       scale_bf="0"
       scale_bb="0"
       scale_tf="0"
       scale_tb="0"
       top_smth_variation="0;1"
       bottom_smth_variation="0;1"
       fat_output="true"
       stroke_width_top="0"
       stroke_width_bottom="0"
       front_thickness="0"
       back_thickness="0" />
    <linearGradient
       id="linearGradient924"
       x1="18.120001"
       x2="21.466"
       y1="241.28999"
       y2="228.73"
       gradientTransform="matrix(0.0086692,0.99996,0.99996,-0.0086692,-0.22047,0.26984)"
       gradientUnits="userSpaceOnUse">
      <stop
         stop-color="#917c6f"
         offset="0"
         id="stop1" />
      <stop
         stop-color="#ac9d93"
         offset="1"
         id="stop2" />
    </linearGradient>
    <linearGradient
       id="innoGrad4">
      <stop
         stop-color="#ffb380"
         offset="0"
         id="stop3" />
      <stop
         stop-color="#fca"
         offset="1"
         id="stop4" />
    </linearGradient>
    <linearGradient
       id="innoGrad5"
       x1="149.74001"
       x2="147.34"
       y1="110.12"
       y2="107.69"
       gradientTransform="matrix(0.0086692,0.99996,0.99996,-0.0086692,-0.22047,0.26984)"
       gradientUnits="userSpaceOnUse">
      <stop
         stop-color="#916f6f"
         offset="0"
         id="stop5" />
      <stop
         stop-color="#ac9393"
         offset="1"
         id="stop6" />
    </linearGradient>
    <linearGradient
       id="linearGradient1284"
       x1="30"
       x2="30.714001"
       y1="226.17999"
       y2="225.42"
       gradientTransform="matrix(0.0086692,0.99996,0.99996,-0.0086692,-0.22047,0.26984)"
       gradientUnits="userSpaceOnUse"
       xlink:href="#innoGrad4" />
    <linearGradient
       id="linearGradient1292"
       x1="37.633999"
       x2="38.214001"
       y1="219.17"
       y2="218.59"
       gradientTransform="matrix(0.0086692,0.99996,0.99996,-0.0086692,-0.22047,0.26984)"
       gradientUnits="userSpaceOnUse"
       xlink:href="#innoGrad4" />
    <linearGradient
       id="linearGradient1306"
       x1="40.044998"
       x2="40.938"
       y1="216.75999"
       y2="215.78"
       gradientTransform="matrix(0.0086692,0.99996,0.99996,-0.0086692,-0.22047,0.26984)"
       gradientUnits="userSpaceOnUse"
       xlink:href="#innoGrad4" />
    <linearGradient
       id="linearGradient1314"
       x1="42.455002"
       x2="43.348"
       y1="214.21001"
       y2="213.32001"
       gradientTransform="matrix(0.0086692,0.99996,0.99996,-0.0086692,-0.22047,0.26984)"
       gradientUnits="userSpaceOnUse"
       xlink:href="#innoGrad4" />
    <linearGradient
       id="linearGradient1322"
       x1="50.580002"
       x2="51.070999"
       y1="206.49001"
       y2="206.03999"
       gradientTransform="matrix(0.0086692,0.99996,0.99996,-0.0086692,-0.22047,0.26984)"
       gradientUnits="userSpaceOnUse"
       xlink:href="#innoGrad4" />
    <linearGradient
       id="innoGrad3"
       x1="27.009001"
       x2="54.820999"
       y1="229.57001"
       y2="202.83"
       gradientTransform="matrix(0.0086692,0.99996,0.99996,-0.0086692,-0.22047,0.26984)"
       gradientUnits="userSpaceOnUse">
      <stop
         stop-color="#f95"
         offset="0"
         id="stop7" />
      <stop
         stop-color="#ff7f2a"
         offset=".088"
         id="stop8" />
      <stop
         stop-color="#f95"
         offset=".265"
         id="stop9" />
      <stop
         stop-color="#ff7f2a"
         offset=".446"
         id="stop10" />
      <stop
         stop-color="#ff7f2a"
         offset=".601"
         id="stop11" />
      <stop
         stop-color="#f95"
         offset=".733"
         id="stop12" />
      <stop
         stop-color="#ff7f2a"
         offset=".863"
         id="stop13" />
      <stop
         stop-color="#f95"
         offset="1"
         id="stop14" />
    </linearGradient>
    <linearGradient
       id="linearGradient903"
       x1="200.10001"
       x2="191.22"
       y1="65.966003"
       y2="57.050999"
       gradientUnits="userSpaceOnUse">
      <stop
         stop-color="#916f6f"
         offset="0"
         id="stop15" />
      <stop
         stop-color="#ac9393"
         offset="1"
         id="stop16" />
    </linearGradient>
    <linearGradient
       id="linearGradient943"
       x1="185.92999"
       x2="178.95"
       y1="77.051003"
       y2="70.746002"
       gradientUnits="userSpaceOnUse"
       xlink:href="#linearGradient924" />
    <linearGradient
       id="linearGradient951"
       x1="181.92999"
       x2="175.36"
       y1="82.508003"
       y2="76.271004"
       gradientUnits="userSpaceOnUse"
       xlink:href="#linearGradient924" />
    <linearGradient
       id="linearGradient938"
       x1="18.120001"
       x2="21.466"
       y1="241.28999"
       y2="228.73"
       gradientTransform="matrix(0.0086692,0.99996,0.99996,-0.0086692,-0.22047,0.26984)"
       gradientUnits="userSpaceOnUse">
      <stop
         stop-color="#fd5"
         offset="0"
         id="stop17" />
      <stop
         stop-color="#fea"
         offset="1"
         id="stop18" />
    </linearGradient>
  </defs>
  <path
     id="path207"
     style="fill:none;stroke:#000000;stroke-width:1px;stroke-linecap:butt;stroke-linejoin:miter;stroke-opacity:1"
     d="m 105.02348,127.54291 22.02535,16.00201 0.0527,0.16016 0.10352,-0.0469 0.42969,0.3125 0.51953,0.71485 0.20508,-0.1875 1.0957,0.79492 0.83008,-1.45703 -1.46485,-1.0625 -0.48828,-0.67383 -0.26172,-0.80273 v -0.8418 l 0.25977,-0.79883 0.49219,-0.67578 0.67968,-0.49414 0.79883,-0.25977 h 0.8418 l 0.79687,0.25977 23.60157,17.14648 -2.17188,2.99219 0.22861,0.22451 m -18.19845,-46.33424 -1.9e-4,5.7e-4 m 0,0 -7.3288,22.55252 v -22.83008 m 0,0 V 112.125 h 2.2168 m 0,0 h 0.71875 m 0,0 h 0.76172 l 0.53515,-3.59375 -0.35937,2.70508 3.19336,0.84375 c 0.13326,0.0486 0.25375,0.0924 0.36719,0.11328 l -0.10461,0.32191 m -8.99305,-0.0817 v 23.74023 L 119.3366,114.4197 m 0,0 -0.0222,-0.0681 0.98631,-0.32037 m 0,0 0.0118,-0.004 m 0,0 2.51952,-0.81839 -0.002,-0.0136 m 0,0 -0.57779,-3.44341 0.47071,2.5586 3.29882,-0.18555 c 0.14177,0.005 0.27045,0.008 0.38477,-0.008 v 0.31641 m 17.53033,2.91338 -6.8e-4,9.3e-4 m 0,0 -13.94176,19.18725 7.05114,-21.69715 m 0,0 0.0407,-0.12512 3.51562,1.14258 1.60938,-3.22852 -1.16797,2.4375 2.77734,1.78907 c 0.11171,0.0874 0.213,0.16584 0.31446,0.2207 l -0.19819,0.27276 m -26.12426,-0.22972 7.34979,22.61712 -13.47966,-18.55137 m 0,0 -0.007,-0.009 0.11315,-0.0822 m 0,0 0.0101,-0.007 m 0,0 2.86893,-2.08428 -0.0303,-0.0581 m 0,0 -1.60646,-3.08449 1.25586,2.32227 3.07812,-1.19531 c 0.1364,-0.039 0.25927,-0.0752 0.36329,-0.125 l 0.0838,0.25788 m 33.38857,5.54838 -19.21066,13.95545 13.41595,-18.46295 m 0,0 0.0723,-0.0996 1.74965,1.27196 m 0,0 0.93407,0.67904 m 0,0 0.30651,0.22283 2.48047,-2.52539 -1.81641,1.9082 2.08789,2.56055 c 0.0792,0.11768 0.15289,0.22312 0.23242,0.30664 l -0.25223,0.18322 m -40.75495,-0.34969 14.01695,19.28952 -18.5625,-13.48438 2.17383,-2.99023 -0.0956,-0.0939 m 0,0 -2.49425,-2.44911 1.9746,1.87891 2.5586,-2.08789 c 0.11768,-0.0792 0.22312,-0.15094 0.30664,-0.23047 l 0.12172,0.16751 m 42.71303,2.52529 0.0459,0.0632 m 0,0 1.39473,1.91978 0.0256,-0.0133 m 0,0 3.11115,-1.62144 -2.31641,1.25391 1.19531,3.08008 c 0.039,0.1364 0.0752,0.25927 0.125,0.36328 l -0.2479,0.0805 m 0,0 -22.62905,7.35111 18.48664,-13.43121 m 0,0 0.0759,-0.0551 0.73319,1.00921 m 4.22857,7.05888 0.01,0.0294 m 0,0 0.99354,3.05878 0.088,-0.0147 m 0,0 3.50572,-0.58683 -2.69336,0.49414 0.18359,3.29687 c -0.005,0.14176 -0.008,0.26851 0.008,0.38282 h -0.19726 m 0,0 h -23.85743 l 21.78097,-7.07706 m 0,0 0.0394,-0.0128 0.13949,0.42942 m 2.24716,12.04759 3.4278,0.51127 -2.69922,-0.35937 -0.84375,3.19336 c -0.0487,0.13325 -0.0905,0.25375 -0.11133,0.36719 l -0.11337,-0.0368 m 0,0 -22.76553,-7.39677 h 22.94531 v 3.69727 l 0.16009,0.0239 m -1.67397,8.91794 3.01583,1.50154 -2.4414,-1.16797 -1.78907,2.77539 c -0.0874,0.1117 -0.16584,0.213 -0.2207,0.31445 l -0.0294,-0.0214 m 0,0 -19.43545,-14.11927 v 0 l 21.82617,7.09179 -1.14258,3.51758 0.21659,0.10784" />
  <path
     id="path198"
     style="fill:none;stroke:#000000;stroke-width:1px;stroke-linecap:butt;stroke-linejoin:miter;stroke-opacity:1"
     d="m 142.07617,45.832031 -4.41797,19.476563 z m -30.60742,0.654297 3.92773,18.822266 z m 58.59766,7.365234 -8.83789,15.876954 z m -85.933598,4.25586 7.529297,16.695312 z M 194.61914,69.402344 180.21484,83.478516 Z M 60.726562,76.439453 73.330078,89.042969 Z m 153.371098,18.005859 -18.16993,7.365238 z m 9.98437,26.353518 -18.49609,3.27344 z m -18.16992,27.00586 20.13477,3.92969 z m -3.27344,24.71679 15.87891,8.67579 z m -49.04092,-13.67197 47.83389,46.97666 10.88867,-11.00195 c -36.35591,-27.93957 0.20899,-0.28711 0.20899,-0.28711 l 5.38867,-13.80078 0.125,0.0625 6.95508,-13.82813 c -43.2109,-15.33826 0.10937,-0.33789 0.10937,-0.33789 l 0.86133,-14.78906 0.13672,0.0195 2.3418,-15.30273 c -45.8361,-1.23552 0,-0.35352 0,-0.35352 l -3.75196,-14.33203 0.13672,-0.0234 -2.5,-15.27539 c -43.97454,12.98815 -0.10937,-0.33789 -0.10937,-0.33789 l -8,-12.472655 0.125,-0.06445 -7.10157,-13.753906 c -37.80845,25.940441 -0.20703,-0.28711 -0.20703,-0.28711 l -11.46094,-9.388672 0.0977,-0.09961 -11.0039,-10.888672 c -27.94141,36.35352 -0.28711,-0.208984 -0.28711,-0.208984 l -13.80274,-5.388672 0.0625,-0.125 -13.82812,-6.955078 c -15.33927,43.20805 -0.33789,-0.109375 -0.33789,-0.109375 l -14.79297,-0.859375 0.0215,-0.138672 -15.30078,-2.341797 c -1.23349,45.754652 -0.35847,0.156206 -0.35547,0 l -14.33398,3.751953 -0.0234,-0.136719 -15.275391,2.501954 c 12.989001,43.97164 -0.337891,0.109374 -0.337891,0.109374 l -12.472656,7.998047 -0.06445,-0.123047 -13.75586,7.097657 C 95.729267,102.16143 69.5,64.564453 69.5,64.564453 l -9.390625,11.460938 -0.09961,-0.09766 -10.888672,11.001954 c 36.355912,27.939575 -0.207031,0.287109 -0.207032,0.287109 l -5.753906,14.732426 59.748045,28.60547 1.78907,-2.77539 c 0.0874,-0.1117 0.16389,-0.21301 0.21875,-0.31446 l 0.10746,0.0781" />
  <path
     style="fill:#ffeeaa;stroke:none;stroke-width:0.9;stroke-linecap:round;stroke-linejoin:round;stroke-dasharray:none"
     d="m 143.70599,146.39187 c -6.2076,-4.51363 -11.52357,-8.30698 -11.81326,-8.42967 -1.83966,-0.77912 -4.03773,0.4925 -4.26,2.46448 -0.14769,1.31033 0.0607,1.86519 1.06175,2.82704 0.66901,0.64282 0.86668,0.92834 0.73433,1.0607 -0.13236,0.13236 -0.61341,-0.13082 -1.78706,-0.97768 -11.56482,-8.3447 -21.57525,-15.72325 -21.57525,-15.90282 0,-0.12378 0.0737,-0.24809 0.16368,-0.27625 0.09,-0.0282 4.16787,2.86067 9.06187,6.41963 8.53229,6.20474 8.9109,6.45933 9.20717,6.19122 0.16993,-0.15379 0.30896,-0.34722 0.30896,-0.42984 0,-0.0826 -3.0294,-4.31414 -6.73201,-9.40337 -3.70261,-5.08924 -6.74097,-9.36649 -6.75192,-9.505 -0.011,-0.13852 0.0639,-0.28158 0.16634,-0.31791 0.10243,-0.0363 3.12238,3.98032 6.71099,8.92589 l 6.52476,8.99195 0.4634,-0.23846 c 0.25486,-0.13115 0.43248,-0.32555 0.39471,-0.432 -0.0378,-0.10645 -1.6786,-5.15216 -3.64628,-11.21271 -2.95026,-9.08697 -3.53634,-11.04465 -3.34237,-11.16454 0.12937,-0.0799 0.2777,-0.0932 0.32963,-0.0294 0.0519,0.0638 1.63617,4.88425 3.52055,10.71217 l 3.42614,10.59623 0.53197,0.002 0.53197,0.002 v -11.94884 c 0,-11.83973 0.003,-11.94885 0.32737,-11.94885 0.32422,0 0.32736,0.10912 0.32736,11.37596 0,9.71126 0.034,11.37595 0.23214,11.37595 0.12768,0 0.34134,0.0419 0.47481,0.0931 0.19218,0.0737 0.58906,-0.97337 1.90771,-5.03325 5.68622,-17.50687 5.7423,-17.67064 6.02937,-17.60759 0.15218,0.0334 0.26529,0.13005 0.25136,0.21472 -0.0139,0.0847 -1.58749,4.96429 -3.49681,10.84358 -3.3174,10.21515 -3.45795,10.69998 -3.16649,10.92297 0.16775,0.12835 0.392,0.21623 0.49834,0.1953 0.10634,-0.0209 3.2634,-4.27336 7.0157,-9.44983 3.75231,-5.17647 6.91255,-9.50753 7.02277,-9.62458 0.16417,-0.17435 0.23513,-0.17097 0.39251,0.0187 0.15545,0.18731 -1.07342,1.9713 -6.43861,9.34716 -3.6469,5.01362 -6.63073,9.17386 -6.63073,9.24497 0,0.0711 0.14336,0.25903 0.31857,0.4176 0.30539,0.27637 0.34096,0.27259 0.85934,-0.0912 0.29742,-0.20875 4.55509,-3.2957 9.46148,-6.85988 4.90639,-3.56418 9.00444,-6.53084 9.10677,-6.59257 0.10233,-0.0617 0.27223,-0.008 0.37756,0.11848 0.15754,0.18983 -1.43534,1.41235 -8.98401,6.89515 -5.04653,3.66543 -9.17551,6.7508 -9.17551,6.85638 0,0.10558 0.0956,0.32275 0.2125,0.48258 0.19837,0.27128 0.95624,0.0489 11.39021,-3.3427 8.2081,-2.66805 11.2261,-3.58492 11.35987,-3.45115 0.1145,0.1145 0.12441,0.2366 0.0267,0.32869 -0.0855,0.0806 -4.86957,1.67101 -10.6312,3.53428 -5.76164,1.86328 -10.54029,3.44924 -10.61922,3.52437 -0.0789,0.0751 -0.0961,0.32565 -0.0381,0.55671 l 0.10544,0.4201 11.73917,0.042 c 11.03084,0.0395 11.7425,0.0593 11.79432,0.32845 0.0521,0.27057 -0.57184,0.28644 -11.26133,0.28644 h -11.31649 l 0.0513,0.52539 c 0.0496,0.50814 0.0997,0.54073 1.52443,0.9924 1.89718,0.60142 12.02171,3.88572 16.77406,5.44134 2.02369,0.66243 3.70552,1.28267 3.7374,1.37831 0.0319,0.0956 -0.0499,0.2153 -0.18182,0.26591 -0.13188,0.0506 -4.89616,-1.4225 -10.58729,-3.27357 -5.69112,-1.85107 -10.40208,-3.36559 -10.46878,-3.36559 -0.12304,0 -0.55284,0.82857 -0.46639,0.89912 0.0259,0.0211 4.23123,3.07426 9.34524,6.78476 7.685,5.57588 9.26473,6.78668 9.10528,6.97881 -0.1061,0.12785 -0.20572,0.23246 -0.22136,0.23246 -0.0157,0 -5.10739,-3.69297 -11.315,-8.2066 z"
     id="path246" />
  <path
     style="fill:#ffccaa;stroke:none;stroke-width:0.9;stroke-linecap:round;stroke-linejoin:round;stroke-dasharray:none"
     d="m 177.69688,181.79803 -23.63304,-23.24108 1.08328,-1.52912 c 0.59581,-0.84101 1.01683,-1.71335 0.93561,-1.93854 -0.0846,-0.23444 0.0389,-0.34312 0.28889,-0.25428 0.25996,0.0924 0.80464,-0.45169 1.34643,-1.34491 0.76452,-1.26044 1.02599,-1.46486 1.63683,-1.27974 2.06642,0.62623 2.49575,-0.096 0.57259,-0.9632 -1.47087,-0.66326 -1.52008,-0.82445 -0.84021,-2.75141 0.26321,-0.74601 0.39476,-1.57476 0.29234,-1.84167 -0.10242,-0.26691 -0.0368,-0.48528 0.14592,-0.48528 0.18267,0 0.52091,-0.73657 0.75164,-1.63683 0.41121,-1.60447 0.44417,-1.63683 1.66708,-1.63683 1.85534,0 1.64148,-0.8393 -0.30444,-1.19481 l -1.55201,-0.28355 -0.003,-4.08403 -0.003,-4.08403 0.96354,-0.16912 c 0.52994,-0.093 0.93506,-0.2796 0.90025,-0.41464 -0.0348,-0.13504 -0.0633,-0.38821 -0.0633,-0.56262 0,-0.17439 -0.18414,-0.2608 -0.40921,-0.19201 -0.22506,0.0688 -0.87802,0.20582 -1.45102,0.30449 -1.00978,0.17388 -1.05923,0.12694 -1.60791,-1.52666 -0.31134,-0.93833 -0.97078,-2.68813 -1.46542,-3.88843 l -0.89933,-2.18236 0.95225,-0.39444 c 0.52368,-0.21694 0.95219,-0.5285 0.95219,-0.69236 0,-0.60365 -1.01229,-0.66026 -1.86112,-0.10408 -0.87361,0.57241 -0.87439,0.57213 -1.87983,-0.69426 -0.55322,-0.69681 -1.70559,-2.04472 -2.56084,-2.99537 -0.85524,-0.95064 -1.55498,-1.84142 -1.55498,-1.97951 0,-0.13808 0.2295,-0.57872 0.51001,-0.9792 0.81003,-1.15647 0.20586,-1.5628 -0.83746,-0.56323 l -0.91037,0.87218 -3.06395,-1.82331 c -1.68518,-1.00282 -3.28205,-1.94988 -3.54859,-2.10459 -0.40421,-0.2346 -0.4171,-0.42951 -0.0777,-1.17444 0.39228,-0.86096 0.30087,-1.49883 -0.21478,-1.49883 -0.13608,0 -0.48642,0.50119 -0.77853,1.11376 l -0.53111,1.11375 -2.37183,-0.6227 c -1.30451,-0.34249 -2.60277,-0.62353 -2.88502,-0.62454 -0.28226,-9.8e-4 -1.03618,-0.14711 -1.67539,-0.32468 -1.08954,-0.30268 -1.15381,-0.39466 -1.02812,-1.47132 0.10387,-0.88974 0.0163,-1.14846 -0.38892,-1.14846 -0.35397,0 -0.58838,0.40889 -0.7253,1.26511 l -0.2023,1.26512 -2.99338,0.2622 c -5.19424,0.45496 -5.27008,0.44676 -5.38853,-0.58271 -0.0702,-0.61016 -0.2934,-0.90026 -0.69262,-0.90026 -0.51073,0 -0.55658,0.17744 -0.34494,1.33483 0.1981,1.08329 0.14355,1.37032 -0.28948,1.52322 -0.29346,0.10361 -1.91336,0.75511 -3.59977,1.44778 -1.68641,0.69266 -3.19954,1.25939 -3.36251,1.25939 -0.16298,0 -0.46413,-0.36829 -0.66922,-0.81841 -0.36789,-0.80744 -1.2499,-1.14248 -1.2499,-0.4748 0,0.189 0.22992,0.78824 0.51094,1.33166 0.28101,0.54342 0.46515,1.11046 0.4092,1.26009 -0.056,0.14963 -1.47666,1.3323 -3.15715,2.62816 l -3.05543,2.3561 -0.79545,-0.7473 c -0.61302,-0.5759 -0.88441,-0.65833 -1.18332,-0.35942 -0.29892,0.29891 -0.13954,0.64408 0.69492,1.50502 l 1.08279,1.11716 -1.01795,1.47954 c -0.55988,0.81376 -1.01796,1.63715 -1.01796,1.82978 0,0.19262 -0.13379,0.35022 -0.29731,0.35022 -0.16351,0 -0.71594,0.66385 -1.22762,1.47522 -0.61794,0.97989 -1.09222,1.41361 -1.41251,1.29173 -2.34814,-0.89355 -58.26712,-27.88723 -58.272658,-28.12987 -0.0069,-0.30387 4.876896,-12.963226 5.103906,-13.229813 0.0596,-0.06999 3.67575,2.546587 8.035885,5.814617 5.681451,4.258393 8.026005,5.840401 8.275128,5.583711 0.429948,-0.443005 0.101771,-0.726088 -8.773259,-7.56773 l -6.829309,-5.264627 5.109714,-5.109714 5.109714,-5.109715 6.305786,6.299565 c 3.468182,3.464763 6.488547,6.299567 6.711923,6.299567 1.029499,0 -0.02321,-1.266476 -5.895654,-7.092843 l -6.30179,-6.252347 4.211958,-5.108378 c 2.316577,-2.809608 4.32459,-5.038768 4.46225,-4.953689 0.137661,0.08508 2.735374,3.691092 5.772697,8.013362 5.004338,7.121438 6.340818,8.690519 6.340818,7.444365 0,-0.231064 -2.503657,-4.087829 -5.563682,-8.570585 l -5.563683,-8.150465 6.266583,-3.214582 c 3.446618,-1.76802 6.36909,-3.214582 6.494377,-3.214582 0.125289,0 1.89715,3.719693 3.937473,8.265985 2.04032,4.546291 3.795629,8.370336 3.900684,8.497877 0.105054,0.127541 0.376735,0.117108 0.603731,-0.02318 0.306126,-0.189196 -0.481932,-2.236033 -3.051216,-7.924987 -1.905167,-4.218452 -3.659202,-8.064478 -3.897855,-8.546726 l -0.433917,-0.876815 5.568409,-3.542622 c 3.062625,-1.948443 5.639461,-3.542623 5.726298,-3.542623 0.08684,0 0.814928,2.136062 1.617972,4.746803 3.835007,12.467812 4.391277,14.076727 4.866907,14.076727 0.26363,0 0.47745,-0.184144 0.47516,-0.409207 -0.002,-0.225064 -1.24268,-4.607188 -2.756411,-9.738052 -1.513733,-5.130864 -2.727199,-9.349262 -2.696597,-9.374218 0.124828,-0.101795 13.968678,-2.281705 13.968678,-2.199565 0,0.04894 0.81024,3.957412 1.80052,8.685486 0.99028,4.728075 1.80051,8.711399 1.80051,8.851833 0,0.140434 0.24099,0.255334 0.53554,0.255334 0.67447,0 0.62434,-0.351905 -1.48058,-10.393862 -0.87748,-4.186189 -1.55572,-7.611253 -1.50719,-7.611253 0.0485,0 2.86668,-0.735445 6.26256,-1.634322 3.39587,-0.898877 6.36027,-1.63545 6.58753,-1.636829 0.32839,-0.002 0.36823,2.002925 0.19408,9.767353 -0.16924,7.545975 -0.12794,9.826215 0.18147,10.017436 0.22032,0.136167 0.4995,0.148662 0.62039,0.02777 0.1209,-0.120895 0.34739,-4.665569 0.50332,-10.099277 0.15593,-5.433708 0.30502,-9.900999 0.3313,-9.927314 0.0498,-0.04982 11.36201,1.670271 13.22426,2.010826 0.6252,0.114332 1.06394,0.391495 1.06394,0.672119 0,0.262654 -0.88389,4.380185 -1.96419,9.150067 -1.08031,4.769882 -1.9642,8.894088 -1.9642,9.164901 0,0.270813 0.22098,0.492388 0.49105,0.492388 0.27008,0 0.49105,-0.114892 0.49105,-0.255316 0,-0.602559 4.16628,-18.424174 4.35012,-18.608016 0.19272,-0.192726 12.68739,0.436223 12.90055,0.64938 0.0558,0.05578 -1.3038,4.203867 -3.0213,9.217963 -2.90475,8.480176 -3.47724,10.868888 -2.30724,9.627 0.24216,-0.25703 1.88836,-4.540449 3.65824,-9.518707 l 3.21797,-9.051378 6.1507,3.078592 c 3.38289,1.693226 6.1507,3.171031 6.1507,3.284011 0,0.112981 -1.93065,3.661692 -4.29034,7.886026 -3.22743,5.777775 -4.19729,7.773656 -3.91475,8.056191 0.46472,0.46472 0.0521,1.112002 5.12127,-8.033242 l 4.11967,-7.432201 1.6918,0.654006 c 3.82194,1.477468 11.19242,4.365636 11.28771,4.423162 0.0563,0.03397 -2.55856,3.587583 -5.81074,7.896915 -3.25218,4.309333 -5.91306,8.007538 -5.91306,8.218234 0,1.179963 1.40355,-0.261807 5.76179,-5.918707 2.6703,-3.465985 5.38396,-6.978548 6.03035,-7.805697 l 1.17527,-1.503907 4.664,4.549207 4.664,4.549206 -7.07171,6.906907 c -4.95289,4.837457 -6.9684,7.010216 -6.72691,7.251707 0.39828,0.398277 0.92387,-0.07 8.90605,-7.934813 l 5.45398,-5.373792 5.34909,4.354499 c 2.94199,2.394974 5.54513,4.533373 5.78476,4.751997 0.35147,0.320675 -1.11955,1.494068 -7.61126,6.071292 -7.11337,5.015554 -8.89835,6.526105 -7.71173,6.526105 0.32579,0 6.5393,-4.100564 13.31605,-8.787825 l 3.33922,-2.309634 3.28993,6.335273 c 1.80947,3.484399 3.28994,6.481167 3.28994,6.659486 0,0.178317 -0.18415,0.399475 -0.40921,0.491461 -0.22506,0.09199 -4.06746,1.654068 -8.53865,3.471285 -9.39805,3.81964 -9.10619,3.67943 -8.77488,4.2155 0.18723,0.30294 2.56811,-0.52875 9.19101,-3.210595 4.91608,-1.990695 9.06039,-3.576284 9.2096,-3.523529 0.5449,0.192665 6.90373,10.486354 6.63627,10.742824 -0.15168,0.14545 -4.25327,1.47964 -9.11465,2.96486 -4.86138,1.48522 -9.02926,2.84674 -9.26196,3.02559 -0.27262,0.20953 -0.31043,0.43783 -0.10631,0.64195 0.20411,0.20411 3.61445,-0.64126 9.58932,-2.37705 5.0999,-1.48159 9.41008,-2.71539 9.57816,-2.74177 0.24027,-0.0377 2.54147,12.52677 2.34162,12.78519 -0.028,0.0362 -4.14635,0.79761 -9.15183,1.69193 -5.00549,0.89432 -9.18904,1.71418 -9.29678,1.82192 -0.10774,0.10774 -0.0522,0.33953 0.12331,0.51509 0.25956,0.25956 14.0701,-1.90605 17.67326,-2.77132 0.63895,-0.15343 0.80431,0.28708 2.42429,6.45796 0.95621,3.64245 1.80745,6.88408 1.89166,7.20362 0.1451,0.55065 -0.37039,0.56928 -9.87186,0.35686 -8.99199,-0.20104 -10.02496,-0.17111 -10.02496,0.29049 0,0.72809 1.14631,0.83914 11.21228,1.0862 7.28305,0.17875 8.75703,0.29387 8.75703,0.68395 0,0.65328 -1.96729,13.31834 -2.08743,13.43848 -0.0538,0.0538 -4.22767,-0.71308 -9.27532,-1.70412 -9.8482,-1.93358 -10.57075,-2.02782 -10.57075,-1.3788 0,0.29421 3.00426,1.00549 9.86247,2.33498 l 9.86246,1.91189 -0.20017,2.65735 c -0.1101,1.46153 -0.29761,4.5356 -0.4167,6.83125 -0.11909,2.29565 -0.27303,4.17391 -0.3421,4.17391 -0.0691,0 -4.19484,-1.39949 -9.16837,-3.10997 -4.97353,-1.71049 -9.24127,-3.10998 -9.48387,-3.10998 -0.2426,0 -0.44109,0.20096 -0.44109,0.44658 0,0.50058 -0.16877,0.43226 10.62764,4.30201 4.31476,1.54653 7.89581,2.86267 7.95789,2.92475 0.0621,0.0621 -1.33212,2.98733 -3.09822,6.50056 l -3.21109,6.38769 -7.36573,-4.03981 c -4.92067,-2.6988 -7.4744,-3.93082 -7.69309,-3.71145 -0.45872,0.46013 -0.0513,0.72091 7.65797,4.90166 3.71037,2.01214 6.78148,3.68545 6.8247,3.71847 0.1085,0.0829 -4.53698,12.0693 -4.78812,12.35447 -0.11138,0.12646 -3.15732,-2.0096 -6.76875,-4.74681 -8.6542,-6.55925 -9.25371,-6.96392 -9.68222,-6.53541 -0.36722,0.36722 1.17413,1.66077 10.60296,8.89836 2.65576,2.03857 4.82865,3.80088 4.82865,3.91626 0,0.11538 -2.24655,2.44205 -4.99233,5.17039 l -4.99233,4.9606 z"
     id="path247" />
  <path
     id="path248"
     style="fill:#ffaaaa;stroke:none;stroke-width:0.9;stroke-linecap:round;stroke-linejoin:round;stroke-dasharray:none"
     d="m 135.45122,56.846391 a 16.368286,15.549872 0 0 0 -13.67187,15.33789 16.368286,15.549872 0 0 0 16.36914,15.54883 16.368286,15.549872 0 0 0 14.15429,-7.74023 16.368286,15.549872 0 0 1 -2.69726,0.21093 16.368286,15.549872 0 0 1 -16.36719,-15.54882 16.368286,15.549872 0 0 1 2.21289,-7.8086 z" />
  <path
     style="display:inline;fill:#ffaaaa;stroke:none;stroke-width:0.9;stroke-linecap:round;stroke-linejoin:round;stroke-dasharray:none"
     id="path249"
     d="m 174.09827,119.16113 c 0.12549,0 0.25099,0 0.37648,0 0.17886,0 0.35773,0 0.53659,0 0.21706,0 0.43413,0 0.6512,0 0.25597,0 0.51193,0 0.7679,0 0.29733,0 0.59466,0 0.892,0 0.35566,0 0.71132,0 1.06698,0 0.42399,0 0.84799,0 1.27198,0 0.48143,0 0.96286,0 1.44429,0 0.52888,0 1.05776,0 1.58664,0 0.54465,0 1.0893,0 1.63394,0 2.03404,0 -2.6179,-6e-5 -4.42943,0.003 -0.0957,1.4e-4 0.19145,0.002 0.28717,0.004 0.29548,0.004 0.59074,0.0124 0.88612,0.0211 0.64427,0.019 1.28809,0.0507 1.93199,0.0793 0.68601,0.0322 1.37149,0.0715 2.0558,0.12982 0.70058,0.0653 1.39987,0.14221 2.09697,0.23778 0.70209,0.0964 1.39638,0.2404 2.08838,0.3915 0.66257,0.14778 1.31827,0.32473 1.96637,0.52633 0.61694,0.19648 1.22201,0.42751 1.81604,0.68459 0.55988,0.24656 1.10455,0.52619 1.643,0.8161 0.48034,0.26773 0.95022,0.55809 1.38978,0.88894 0.36836,0.27071 0.66397,0.61324 0.92888,0.98196 0.21116,0.30115 0.36253,0.63445 0.48838,0.97829 0.0951,0.28826 0.15549,0.58698 0.19043,0.88815 0.0299,0.27691 -0.004,0.5542 -0.0638,0.82461 -0.0666,0.28094 -0.21086,0.52535 -0.37913,0.75595 -0.19076,0.25649 -0.42048,0.47734 -0.6628,0.68405 -0.29321,0.23823 -0.61859,0.43096 -0.94519,0.61884 -0.35831,0.20526 -0.73019,0.38518 -1.1041,0.55984 -0.41234,0.18546 -0.83484,0.34722 -1.25783,0.50647 -0.46391,0.17312 -0.93711,0.31862 -1.41196,0.45818 -0.5092,0.14191 -1.02295,0.26666 -1.53727,0.38844 -0.52809,0.12523 -1.05904,0.2377 -1.59074,0.34634 -0.55902,0.11756 -1.12202,0.21342 -1.68624,0.302 -0.59271,0.093 -1.18699,0.17509 -1.78171,0.25391 -0.61587,0.0791 -1.23129,0.1626 -1.84925,0.22371 -0.66895,0.0676 -1.34013,0.10127 -2.0117,0.12804 -0.71528,0.0267 -1.4307,0.0496 -2.14612,0.0721 -0.72002,0.0223 -1.44007,0.0434 -2.16014,0.0638 -0.7147,0.0201 -1.42943,0.0392 -2.14417,0.0577 -0.70392,0.018 -1.40786,0.0354 -2.11182,0.0522 -0.67521,0.0163 -1.34944,0.0563 -2.02221,0.11491 -0.63101,0.0511 -1.25798,0.13786 -1.88163,0.24516 -0.57734,0.0998 -1.14284,0.25506 -1.70495,0.41801 -0.51609,0.15313 -1.01734,0.34794 -1.50579,0.57322 -0.43332,0.20742 -0.85117,0.44633 -1.25528,0.70573 -0.37934,0.24727 -0.7283,0.53364 -1.04823,0.85327 -0.3014,0.31275 -0.57668,0.64924 -0.83658,0.99686 -0.24043,0.32042 -0.46186,0.65395 -0.67516,0.9928 -0.1996,0.31334 -0.36178,0.64842 -0.51268,0.98729 -0.14468,0.32226 -0.24326,0.66032 -0.31804,1.00466 -0.0676,0.33235 -0.10507,0.66841 -0.0977,1.00738 0.0103,0.35866 0.10502,0.70516 0.22441,1.04103 0.14207,0.36634 0.36811,0.68785 0.6099,0.99405 0.27592,0.32986 0.59039,0.62519 0.91168,0.9101 0.34321,0.30582 0.72066,0.56843 1.10208,0.82352 0.41061,0.27639 0.84399,0.51577 1.28213,0.74502 0.48938,0.25102 0.99546,0.46648 1.50442,0.67398 0.53821,0.21718 1.08263,0.41876 1.63157,0.60707 0.56097,0.1882 1.12682,0.3606 1.70122,0.50271 0.59391,0.13839 1.1902,0.26678 1.78921,0.3811 0.63485,0.11582 1.27571,0.19327 1.91594,0.27206 0.64146,0.0783 1.28351,0.15152 1.92569,0.22367 0.6418,0.0744 1.28695,0.11546 1.93137,0.1597 0.64709,0.0438 1.2944,0.0843 1.94172,0.12457 0.63474,0.0392 1.26962,0.0763 1.90455,0.11234 0.62728,0.0392 1.25533,0.0625 1.88335,0.0855 0.61283,0.0223 1.22572,0.0426 1.83862,0.0626 0.60635,0.0236 1.21308,0.032 1.81978,0.0402 2.27916,0.0105 4.55837,0.007 6.83752,-0.004 0.62047,-0.002 1.24079,-0.0176 1.86109,-0.0305 0.63902,-0.0235 1.27757,-0.0581 1.91622,-0.0898 0.63463,-0.0315 1.26931,-0.0618 1.90402,-0.0915 0.64576,-0.0304 1.29167,-0.0574 1.93763,-0.083 0.67974,-0.0269 1.35957,-0.0513 2.03943,-0.0751 0.69051,-0.0264 1.38116,-0.0469 2.07215,-0.054 -1.13356,-0.005 2.17866,-0.004 1.03729,-0.003 -8.19926,0.004 -5.73072,-0.0125 -3.98071,0.0108 0.68802,0.003 1.37385,0.046 2.05878,0.10736 0.75129,0.0599 1.49896,0.1538 2.24675,0.24618 0.75907,0.0899 1.51654,0.19201 2.27341,0.29865 0.73697,0.10535 1.4684,0.24574 2.19823,0.39171 0.70602,0.14086 1.40358,0.31874 2.09342,0.52394 0.66666,0.19985 1.31901,0.44142 1.9621,0.7066 0.61713,0.25731 1.21356,0.56158 1.79607,0.88903 0.5635,0.31266 1.08828,0.68636 1.60941,1.06368 0.47344,0.35205 0.91995,0.73795 1.33828,1.15359 0.35632,0.37975 0.67604,0.79056 0.94621,1.23546 0.24588,0.41179 0.43177,0.84941 0.56918,1.30772 0.12802,0.43097 0.18532,0.87675 0.20496,1.32456 0.0238,0.44715 -0.0477,0.88627 -0.14574,1.3204 -0.11168,0.43785 -0.28014,0.8573 -0.46886,1.26681 -0.19705,0.42035 -0.44306,0.81396 -0.70612,1.19545 -0.29516,0.42026 -0.64593,0.79642 -0.99255,1.17384 -0.35446,0.38605 -0.72827,0.75349 -1.11477,1.10723 -0.40002,0.36048 -0.81746,0.70084 -1.24287,1.03073 -0.43842,0.33298 -0.88383,0.65679 -1.33316,0.97487 -0.46342,0.32196 -0.93887,0.62585 -1.4171,0.92516 -0.48936,0.30771 -0.99096,0.59501 -1.49465,0.87838 -0.50376,0.28387 -1.01257,0.55816 -1.52879,0.81865 -0.53215,0.26665 -1.07391,0.51318 -1.61962,0.7506 -0.56372,0.24631 -1.13851,0.46552 -1.71519,0.67922 -0.59246,0.21952 -1.19222,0.41856 -1.79281,0.61446 -0.6046,0.19715 -1.21516,0.37516 -1.824,0.55855 0,0 5,0 5,0 v 0 c 0.60884,-0.18339 1.2194,-0.3614 1.824,-0.55855 0.60059,-0.1959 1.20035,-0.39494 1.79281,-0.61446 0.57668,-0.2137 1.15147,-0.43291 1.71519,-0.67922 0.54571,-0.23742 1.08747,-0.48395 1.61962,-0.7506 0.51622,-0.26049 1.02503,-0.53478 1.52879,-0.81865 0.50369,-0.28337 1.00529,-0.57067 1.49465,-0.87838 0.47823,-0.29931 0.95368,-0.6032 1.4171,-0.92516 0.44933,-0.31808 0.89474,-0.64189 1.33316,-0.97487 0.42541,-0.32989 0.84285,-0.67025 1.24287,-1.03073 0.3865,-0.35374 0.76031,-0.72118 1.11477,-1.10723 0.34662,-0.37742 0.69739,-0.75358 0.99255,-1.17384 0.26306,-0.38149 0.50907,-0.7751 0.70612,-1.19545 0.18872,-0.40951 0.35718,-0.82896 0.46886,-1.26681 0.098,-0.43413 0.16949,-0.87325 0.14574,-1.3204 -0.0196,-0.44781 -0.0769,-0.89359 -0.20496,-1.32456 -0.13741,-0.45831 -0.3233,-0.89593 -0.56918,-1.30772 -0.27017,-0.4449 -0.58989,-0.85571 -0.94621,-1.23546 -0.41833,-0.41564 -0.86484,-0.80154 -1.33828,-1.15359 -0.52113,-0.37732 -1.04591,-0.75102 -1.60941,-1.06368 -0.58251,-0.32745 -1.17894,-0.63172 -1.79607,-0.88903 -0.64309,-0.26518 -1.29544,-0.50675 -1.9621,-0.7066 -0.68984,-0.2052 -1.3874,-0.38308 -2.09342,-0.52394 -0.72983,-0.14597 -1.46126,-0.28636 -2.19823,-0.39171 -0.75687,-0.10664 -1.51434,-0.20879 -2.27341,-0.29865 -0.74779,-0.0924 -1.49546,-0.18632 -2.24675,-0.24618 -0.68493,-0.0614 -1.37076,-0.10439 -2.05878,-0.10736 -2.35202,-0.0314 -4.70441,-0.0153 -7.05658,-0.008 -0.69099,0.007 -1.38164,0.0276 -2.07215,0.054 -0.67986,0.0238 -1.35969,0.0481 -2.03943,0.0751 -0.64596,0.0256 -1.29187,0.0526 -1.93763,0.083 -0.63471,0.0297 -1.26939,0.06 -1.90402,0.0915 -0.63865,0.0317 -1.2772,0.0663 -1.91622,0.0898 -0.6203,0.013 -1.24062,0.0286 -1.86109,0.0305 -0.30921,0.002 -0.61841,0.003 -0.92762,0.004 -0.10159,3.9e-4 -0.40634,9.6e-4 -0.30475,9.9e-4 5.09311,0.001 6.2447,0.006 4.39485,-9.6e-4 -0.6067,-0.008 -1.21343,-0.0166 -1.81978,-0.0402 -0.6129,-0.02 -1.22579,-0.0403 -1.83862,-0.0626 -0.62802,-0.023 -1.25607,-0.0463 -1.88335,-0.0855 -0.63493,-0.036 -1.26981,-0.0731 -1.90455,-0.11234 -0.64732,-0.0403 -1.29463,-0.0808 -1.94172,-0.12457 -0.64442,-0.0442 -1.28957,-0.0853 -1.93137,-0.1597 -0.64218,-0.0722 -1.28423,-0.1454 -1.92569,-0.22367 -0.64023,-0.0788 -1.28109,-0.15624 -1.91594,-0.27206 -0.59901,-0.11432 -1.1953,-0.24271 -1.78921,-0.3811 -0.5744,-0.14211 -1.14025,-0.31451 -1.70122,-0.50271 -0.54894,-0.18831 -1.09336,-0.38989 -1.63157,-0.60707 -0.50896,-0.2075 -1.01504,-0.42296 -1.50442,-0.67398 -0.43814,-0.22925 -0.87152,-0.46863 -1.28213,-0.74502 -0.38142,-0.25509 -0.75887,-0.5177 -1.10208,-0.82352 -0.32129,-0.28491 -0.63576,-0.58024 -0.91168,-0.9101 -0.24179,-0.3062 -0.46783,-0.62771 -0.6099,-0.99405 -0.11939,-0.33587 -0.21413,-0.68237 -0.22441,-1.04103 -0.007,-0.33897 0.0301,-0.67503 0.0977,-1.00738 0.0748,-0.34434 0.17336,-0.6824 0.31804,-1.00466 0.1509,-0.33887 0.31308,-0.67395 0.51268,-0.98729 0.2133,-0.33885 0.43473,-0.67238 0.67516,-0.9928 0.2599,-0.34762 0.53518,-0.68411 0.83658,-0.99686 0.31993,-0.31963 0.66889,-0.606 1.04823,-0.85327 0.40411,-0.2594 0.82196,-0.49831 1.25528,-0.70573 0.48845,-0.22528 0.9897,-0.42009 1.50579,-0.57322 0.56211,-0.16295 1.12761,-0.31822 1.70495,-0.41801 0.62365,-0.1073 1.25062,-0.19411 1.88163,-0.24516 0.67277,-0.0586 1.347,-0.0986 2.02221,-0.11491 0.70396,-0.0168 1.4079,-0.0342 2.11182,-0.0522 0.71474,-0.0185 1.42947,-0.0376 2.14417,-0.0577 0.72007,-0.0204 1.44012,-0.0415 2.16014,-0.0638 0.71542,-0.0225 1.43084,-0.0454 2.14612,-0.0721 0.67157,-0.0268 1.34275,-0.0604 2.0117,-0.12804 0.61796,-0.0611 1.23338,-0.14458 1.84925,-0.22371 0.59472,-0.0788 1.189,-0.16096 1.78171,-0.25391 0.56422,-0.0886 1.12722,-0.18444 1.68624,-0.302 0.5317,-0.10864 1.06265,-0.22111 1.59074,-0.34634 0.51432,-0.12178 1.02807,-0.24653 1.53727,-0.38844 0.47485,-0.13956 0.94805,-0.28506 1.41196,-0.45818 0.42299,-0.15925 0.84549,-0.32101 1.25783,-0.50647 0.37391,-0.17466 0.74579,-0.35458 1.1041,-0.55984 0.3266,-0.18788 0.65198,-0.38061 0.94519,-0.61884 0.24232,-0.20671 0.47204,-0.42756 0.6628,-0.68405 0.16827,-0.2306 0.31256,-0.47501 0.37913,-0.75595 0.0598,-0.27041 0.0937,-0.5477 0.0638,-0.82461 -0.0349,-0.30117 -0.0953,-0.59989 -0.19043,-0.88815 -0.12585,-0.34384 -0.27722,-0.67714 -0.48838,-0.97829 -0.26491,-0.36872 -0.56052,-0.71125 -0.92888,-0.98196 -0.43956,-0.33085 -0.90944,-0.62121 -1.38978,-0.88894 -0.53845,-0.28991 -1.08312,-0.56954 -1.643,-0.8161 -0.59403,-0.25708 -1.1991,-0.48811 -1.81604,-0.68459 -0.6481,-0.2016 -1.3038,-0.37855 -1.96637,-0.52633 -0.692,-0.1511 -1.38629,-0.2951 -2.08838,-0.3915 -0.6971,-0.0956 -1.39639,-0.17249 -2.09697,-0.23778 -0.68431,-0.0583 -1.36979,-0.0976 -2.0558,-0.12982 -0.6439,-0.0286 -1.28772,-0.0604 -1.93199,-0.0794 -2.24722,-0.0664 -4.49587,-0.0253 -6.74386,-0.0277 -0.54464,0 -1.08929,0 -1.63394,0 -0.52888,0 -1.05776,0 -1.58664,0 -0.48143,0 -0.96286,0 -1.44429,0 -0.42399,0 -0.84799,0 -1.27198,0 -0.35566,0 -0.71132,0 -1.06698,0 -0.29734,0 -0.59467,0 -0.892,0 -0.25597,0 -0.51193,0 -0.7679,0 -0.21707,0 -0.43414,0 -0.6512,0 -0.17886,0 -0.35773,0 -0.53659,0 -0.12549,0 -0.25099,0 -0.37648,0 z" />
  <path
     style="display:inline;fill:#ffaaaa;stroke:none;stroke-width:0.9;stroke-linecap:round;stroke-linejoin:round;stroke-dasharray:none"
     id="path251"
     d="m 81.362736,113.8138 c 0.175446,0 0.350892,0 0.526338,0 0.265733,0 0.531465,0 0.797198,0 0.299877,0 0.599754,0 0.899631,0 0.383275,-0.0108 0.76629,-0.0295 1.149368,-0.0456 0.432162,-0.0177 0.864422,-0.0329 1.296718,-0.0469 0.486137,-0.0151 0.972357,-0.0273 1.458578,-0.0392 0.503385,-0.004 1.005478,-0.0264 1.507333,-0.0645 0.582199,-0.0455 1.164612,-0.0882 1.747255,-0.12764 0.630246,-0.0418 1.260925,-0.0765 1.891664,-0.1099 0.648938,-0.0337 1.298097,-0.063 1.947278,-0.0916 0.659288,-0.0286 1.318729,-0.0535 1.978239,-0.0763 0.699495,-0.0233 1.399074,-0.044 2.098681,-0.0636 0.722186,-0.0197 1.444443,-0.0365 2.166713,-0.0529 0.73279,-0.0167 1.46564,-0.0308 2.1985,-0.0441 0.765,-0.0138 1.53002,-0.0257 2.29506,-0.0367 2.50664,-0.12076 5.01032,-0.39829 7.50635,-0.61942 0.84058,-0.0738 1.6565,-0.29165 2.46411,-0.52531 0.75257,-0.21369 1.47028,-0.52475 2.15361,-0.90276 0.65623,-0.36664 1.23567,-0.84658 1.79169,-1.34801 0.49186,-0.43187 0.92748,-0.90298 1.26443,-1.46426 0.26817,-0.46819 0.44134,-0.9817 0.57721,-1.50161 0.11764,-0.44742 0.0584,-0.89449 -0.0305,-1.33939 -0.0974,-0.42534 -0.29133,-0.81769 -0.50413,-1.19547 -0.20994,-0.3832 -0.48058,-0.72581 -0.75964,-1.05997 -0.30614,-0.37159 -0.66631,-0.68852 -1.04218,-0.98675 -0.43982,-0.33433 -0.90899,-0.6265 -1.38997,-0.89715 -0.55871,-0.31077 -1.15165,-0.54696 -1.75624,-0.75044 -0.74422,-0.23363 -1.49822,-0.434752 -2.25451,-0.625124 -0.75212,-0.189782 -1.50824,-0.362366 -2.26755,-0.520695 -0.79498,-0.161577 -1.59395,-0.302609 -2.39446,-0.433707 -0.83784,-0.132634 -1.67803,-0.250159 -2.51897,-0.361251 -0.8586,-0.111758 -1.71893,-0.209169 -2.57987,-0.3009 -0.85908,-0.09167 -1.71922,-0.172655 -2.57963,-0.250632 -0.86,-0.07372 -1.719966,-0.149283 -2.581414,-0.204001 -0.882841,-0.05935 -1.767418,-0.06641 -2.651759,-0.05579 -0.914514,0.0074 -1.827771,0.0571 -2.740742,0.106377 -2.564012,0.166508 -5.12146,0.420551 -7.680204,0.653243 -0.145761,0.0129 -0.291522,0.0258 -0.437283,0.0387 1.512909,-0.132672 3.025899,-0.264418 4.538726,-0.398015 0.149194,-0.01318 -0.298525,0.02475 -0.447819,0.03675 -0.453745,0.03647 -0.907684,0.07033 -1.361642,0.104011 -0.883819,0.06647 -1.768169,0.125452 -2.652686,0.181755 -0.841736,0.05317 -1.68363,0.103797 -2.525698,0.151407 -0.850738,0.04764 -1.701906,0.087 -2.553069,0.126112 -0.864847,0.04897 -1.727746,0.08039 -2.591014,-2.3e-4 -0.757741,-0.07839 -1.497712,-0.254313 -2.222387,-0.484017 -0.658604,-0.221906 -1.298069,-0.510646 -1.878445,-0.893848 -0.479578,-0.333568 -0.870446,-0.756438 -1.208695,-1.228346 -0.281852,-0.374871 -0.485614,-0.786699 -0.629677,-1.230923 -0.1388,-0.409168 -0.213497,-0.82742 -0.231927,-1.257836 -3.4e-5,-0.57991 0.129842,-1.149764 0.271322,-1.709004 0.138361,-0.569778 0.324475,-1.123961 0.545188,-1.666553 0.249522,-0.593523 0.564658,-1.15179 0.923398,-1.685059 0.345997,-0.505854 0.737835,-0.976531 1.154963,-1.424627 0.400232,-0.428533 0.836682,-0.818411 1.291861,-1.187023 0.441992,-0.354467 0.907883,-0.676346 1.380075,-0.988725 0.490983,-0.314303 1.01553,-0.570333 1.539636,-0.823547 0.513253,-0.243602 1.034033,-0.471125 1.559926,-0.685964 0.55948,-0.224295 1.136421,-0.40033 1.713879,-0.571366 0.639388,-0.183135 1.287877,-0.331521 1.936874,-0.475913 0.679942,-0.148272 1.364684,-0.273143 2.04951,-0.396407 0.702815,-0.124971 1.408903,-0.230217 2.11564,-0.330182 0.698641,-0.09698 1.398112,-0.18784 2.098037,-0.275022 0.667305,-0.08207 1.335055,-0.160352 2.003869,-0.229076 0.351907,-0.03517 0.704031,-0.06813 1.056272,-0.09976 0.117911,-0.01059 0.471706,-0.04164 0.353775,-0.03128 -4.760411,0.418165 -6.150341,0.526352 -4.23913,0.376011 0.373227,-0.02955 0.746639,-0.05657 1.120089,-0.08309 0,0 4.980973,-0.435779 4.980973,-0.435779 v 0 c -0.37345,0.02653 -0.746862,0.05355 -1.120088,0.08309 -2.379397,0.18717 -4.756807,0.400913 -7.132864,0.626585 -0.668814,0.06872 -1.336565,0.147006 -2.003869,0.229076 -0.699926,0.08718 -1.399396,0.17804 -2.098037,0.275022 -0.706738,0.09996 -1.412825,0.205211 -2.115641,0.330182 -0.684825,0.123264 -1.369567,0.248135 -2.04951,0.396406 -0.648997,0.144393 -1.297486,0.292779 -1.936874,0.475913 -0.577458,0.171037 -1.154398,0.347072 -1.713878,0.571367 -0.525894,0.214838 -1.046673,0.442361 -1.559926,0.685964 -0.524106,0.253214 -1.048653,0.509244 -1.539637,0.823547 -0.472191,0.312378 -0.938082,0.634258 -1.380075,0.988725 -0.455179,0.368612 -0.891629,0.75849 -1.291861,1.187023 -0.417128,0.448096 -0.808966,0.918772 -1.154963,1.424627 -0.358739,0.533269 -0.673876,1.091535 -0.923398,1.685059 -0.220713,0.542591 -0.406826,1.096775 -0.545188,1.666553 -0.14148,0.55924 -0.271355,1.129093 -0.271321,1.709003 0.01843,0.430417 0.09313,0.848669 0.231927,1.257837 0.144062,0.444223 0.347825,0.856052 0.629676,1.230923 0.338249,0.471908 0.729118,0.894777 1.208695,1.228346 0.580376,0.383201 1.219842,0.671942 1.878445,0.893848 0.724676,0.229703 1.464646,0.405624 2.222388,0.484017 0.863267,0.08062 1.726167,0.0492 2.591014,2.3e-4 0.851163,-0.03911 1.70233,-0.07847 2.553068,-0.126112 0.842068,-0.04761 1.683963,-0.09824 2.525699,-0.151407 0.884517,-0.0563 1.768866,-0.115286 2.652686,-0.181755 2.558937,-0.189885 5.114347,-0.422592 7.669964,-0.652997 1.751962,-0.159324 4.453875,-0.39687 -3.657868,0.317271 -1.496796,0.131775 2.84439,-0.260981 1.376125,-0.09896 0.912971,-0.04928 1.826229,-0.09894 2.740742,-0.106377 0.884342,-0.01062 1.768919,-0.0036 2.65176,0.05579 0.861447,0.05472 1.721415,0.130284 2.581413,0.204001 0.860414,0.07798 1.720546,0.158961 2.579629,0.250632 0.860938,0.09173 1.721275,0.189142 2.579875,0.3009 0.84094,0.111092 1.68112,0.228616 2.51896,0.361251 0.80051,0.131098 1.59949,0.27213 2.39447,0.433707 0.75931,0.158329 1.51542,0.330909 2.26755,0.520689 0.75628,0.19038 1.51028,0.3915 2.2545,0.62513 0.6046,0.20348 1.19754,0.43967 1.75625,0.75044 0.48098,0.27065 0.95014,0.56282 1.38997,0.89715 0.37586,0.29823 0.73604,0.61516 1.04217,0.98675 0.27906,0.33415 0.54971,0.67676 0.75965,1.05997 0.21279,0.37778 0.40678,0.77013 0.50413,1.19547 0.0889,0.4449 0.14819,0.89196 0.0305,1.33939 -0.13587,0.51991 -0.30904,1.03342 -0.57721,1.50161 -0.33695,0.56128 -0.77257,1.03239 -1.26442,1.46426 -0.55603,0.50143 -1.13546,0.98137 -1.7917,1.34801 -0.68332,0.37801 -1.40103,0.68907 -2.1536,0.90276 -0.80761,0.23366 -1.62353,0.45147 -2.46412,0.52531 8.70555,-0.75025 4.45414,-0.33856 2.45561,-0.25214 -0.76504,0.0111 -1.53007,0.0229 -2.29507,0.0367 -0.73286,0.0133 -1.46571,0.0274 -2.1985,0.0441 -0.72226,0.0165 -1.44452,0.0333 -2.16671,0.0529 -0.69961,0.0196 -1.39919,0.0403 -2.09868,0.0636 -0.65951,0.0228 -1.31895,0.0477 -1.978239,0.0763 -0.649181,0.0286 -1.29834,0.0579 -1.947279,0.0916 -0.630739,0.0334 -1.261418,0.068 -1.891663,0.1099 -0.582643,0.0394 -1.165056,0.0821 -1.747255,0.12764 -0.501855,0.0381 -1.003949,0.0602 -1.507333,0.0645 -0.486222,0.0119 -0.972442,0.0241 -1.458578,0.0392 -0.432296,0.014 -0.864556,0.0292 -1.296718,0.0469 -0.383078,0.0162 -0.766094,0.0348 -1.149368,0.0456 -0.299877,0 -0.599754,0 -0.899631,0 -0.265733,0 -0.531466,0 -0.797199,0 -0.175446,0 -0.350892,0 -0.526338,0 z" />
  <path
     style="display:inline;fill:#000000;stroke:none;stroke-width:0.899999;stroke-linecap:round;stroke-linejoin:round;stroke-dasharray:none"
     d="M 179.1033,184.58712 C 166.82083,172.529 155.86528,161.75931 154.75762,160.65448 l -2.01391,-2.00878 1.05071,-1.42898 c 0.8025,-1.0914 1.01851,-1.46063 0.91438,-1.56296 -0.29853,-0.29338 -22.73276,-16.53713 -23.10652,-16.73054 -0.82939,-0.42918 -2.02414,-0.11587 -2.64072,0.69252 -0.2761,0.36198 -0.31515,0.5172 -0.31515,1.25282 0,1.02119 0.12297,1.21812 1.34121,2.14805 0.47183,0.36017 0.84088,0.72476 0.82011,0.81019 -0.0208,0.0854 -0.29875,0.61216 -0.61774,1.17051 l -0.57997,1.01518 -0.58185,-0.42711 c -0.46364,-0.34035 -0.62187,-0.40212 -0.77888,-0.30406 -0.16464,0.10282 -0.26063,0.0299 -0.58359,-0.44339 -0.26804,-0.3928 -0.46555,-0.56645 -0.64428,-0.56645 -0.14891,0 -0.28028,-0.0862 -0.31113,-0.20418 -0.0398,-0.15234 -21.2144,-15.68394 -21.61979,-15.85819 -0.0412,-0.0177 -0.50639,0.64094 -1.03372,1.46368 l -0.95878,1.49588 -1.17261,-0.55055 c -0.64494,-0.30281 -7.344523,-3.50688 -14.88796,-7.12016 -7.543437,-3.61329 -18.012234,-8.62634 -23.263994,-11.14012 -5.25176,-2.51378 -10.395012,-4.97755 -11.42945,-5.47504 l -1.880795,-0.90451 v -0.52796 -0.52796 l 0.607642,0.27549 c 0.334202,0.15152 1.388895,0.65145 2.34376,1.11096 0.954866,0.45951 6.085097,2.92 11.400515,5.46776 5.315417,2.54776 12.268573,5.88169 15.451458,7.40875 3.182885,1.52705 6.255816,2.99919 6.828735,3.27141 0.572919,0.27222 4.320203,2.06285 8.327298,3.97917 4.007095,1.91633 7.317931,3.44504 7.357411,3.39714 0.0395,-0.0479 0.47666,-0.70254 0.97152,-1.45475 0.49486,-0.75221 0.97035,-1.39475 1.05665,-1.42786 0.14413,-0.0553 22.97412,16.43746 23.27229,16.81228 0.0707,0.0889 0.16294,0.16154 0.20503,0.16154 0.0421,0 0.28524,0.13812 0.54033,0.30693 0.45088,0.29838 0.46844,0.3008 0.63018,0.0868 0.0915,-0.12107 0.15511,-0.25343 0.14135,-0.29413 -0.0138,-0.0407 -0.32045,-0.31372 -0.68155,-0.60669 -0.44702,-0.36269 -0.75643,-0.73687 -0.9696,-1.17257 -0.28007,-0.57244 -0.30752,-0.73567 -0.26046,-1.54865 0.0435,-0.75064 0.11147,-1.00205 0.3909,-1.44494 0.36656,-0.58099 1.03335,-1.11487 1.65764,-1.32722 0.54262,-0.18457 1.55848,-0.16767 2.04106,0.034 0.46971,0.19625 2.44751,1.60185 11.5702,8.22282 3.69215,2.67964 8.02829,5.82554 9.63586,6.99089 1.60758,1.16535 2.9507,2.16386 2.98472,2.2189 0.0935,0.15132 -0.30235,0.85617 -1.16107,2.06724 l -0.7737,1.09117 3.04834,3.02754 c 1.67659,1.66514 12.34139,12.15407 23.69955,23.30874 l 20.65122,20.28121 0.65332,-0.67296 c 0.35935,-0.37012 2.64494,-2.685 5.07911,-5.14416 l 4.42579,-4.4712 -1.01957,-0.78729 c -0.56076,-0.433 -2.94665,-2.27239 -5.30199,-4.08753 -7.7839,-5.99865 -9.52575,-7.44592 -9.39766,-7.80834 0.0912,-0.25806 0.76085,-0.0977 1.43021,0.34253 0.37166,0.24443 3.89379,2.86125 7.82695,5.81516 3.93316,2.95391 7.17075,5.35092 7.19465,5.32669 0.0239,-0.0242 1.14055,-2.85596 2.48146,-6.29275 1.89656,-4.86098 2.40649,-6.27773 2.29613,-6.37944 -0.078,-0.0719 -3.03251,-1.70724 -6.56551,-3.63406 -6.21482,-3.38944 -7.9881,-4.41058 -7.98438,-4.59782 0.001,-0.049 0.0469,-0.16033 0.10199,-0.24734 0.0829,-0.1308 0.17775,-0.13299 0.548,-0.0127 0.78898,0.25641 3.43654,1.63182 8.99179,4.67127 2.98045,1.63069 5.46378,2.9649 5.5185,2.9649 0.0933,0 6.63138,-12.85334 6.56855,-12.91328 -0.016,-0.0153 -0.54995,-0.2101 -1.18652,-0.43296 -0.63658,-0.22286 -4.20431,-1.49818 -7.92828,-2.83405 -10.06368,-3.61006 -9.77287,-3.48981 -9.69842,-4.01018 0.0808,-0.56498 -0.0727,-0.60976 11.53862,3.36631 4.16317,1.4256 7.59094,2.57047 7.61725,2.54415 0.0263,-0.0263 0.11567,-1.10795 0.19856,-2.40364 l 0.15072,-2.35579 0.0156,3.44371 0.0156,3.44372 -3.18305,6.36527 c -1.75068,3.5009 -3.17758,6.39359 -3.17091,6.4282 0.0306,0.15869 -0.28538,0.74762 -0.40201,0.74916 -0.11155,0.001 -5.1467,12.69448 -5.21188,13.13848 -0.0127,0.0868 -2.62753,2.78423 -5.81064,5.99424 l -5.78748,5.83636 z"
     id="path252" />
  <path
     style="display:inline;fill:#000000;stroke:none;stroke-width:0.899999;stroke-linecap:round;stroke-linejoin:round;stroke-dasharray:none"
     d="m 199.94303,205.05723 c -0.82755,-0.81531 -10.17655,-9.99165 -20.77555,-20.39187 -10.59901,-10.40022 -20.88237,-20.50899 -22.85191,-22.46392 l -3.58099,-3.55442 0.87477,-1.20624 c 1.02019,-1.40676 1.19912,-1.71361 1.05682,-1.81243 -0.0571,-0.0397 -3.61718,-2.62734 -7.91129,-5.75041 -12.29312,-8.94068 -14.9195,-10.82408 -15.33769,-10.99881 -0.56395,-0.23564 -0.96799,-0.20264 -1.64411,0.13429 -0.78541,0.39138 -1.11816,0.91956 -1.12305,1.78258 -0.005,0.96859 0.19852,1.31147 1.28503,2.15988 l 0.96547,0.75389 -0.18715,0.36766 c -0.10292,0.20222 -0.39097,0.71911 -0.6401,1.14866 l -0.45297,0.78099 -0.59338,-0.3996 c -0.40448,-0.27239 -0.64845,-0.36878 -0.76639,-0.30278 -0.1277,0.0715 -0.29002,-0.0512 -0.61965,-0.46819 -0.24939,-0.3155 -0.54219,-0.56503 -0.66303,-0.56503 -0.11903,0 -0.2441,-0.0721 -0.27794,-0.16033 -0.0677,-0.1764 -4.43319,-3.40901 -14.45983,-10.70734 l -6.56832,-4.78105 v -0.56688 c 0,-0.31178 0.0259,-0.56688 0.0575,-0.56688 0.0545,0 17.77828,12.84559 20.92822,15.16803 2.16661,1.59744 2.57415,1.85103 2.7278,1.69737 0.21777,-0.21776 0.15512,-0.3264 -0.61063,-1.05898 -0.89899,-0.86003 -1.11285,-1.3272 -1.10947,-2.4235 0.004,-1.29251 0.59158,-2.26558 1.68688,-2.79351 0.5641,-0.27189 1.7375,-0.35954 2.30516,-0.17219 0.23623,0.078 1.97316,1.24772 3.85985,2.59947 5.59202,4.0065 20.07964,14.53185 20.30987,14.75526 0.20647,0.20035 0.20557,0.22066 -0.0303,0.68295 -0.13368,0.26205 -0.58399,0.95912 -1.00067,1.54905 l -0.75761,1.07258 2.46613,2.43399 c 14.89262,14.6985 44.85012,44.03546 44.94138,44.01046 0.0647,-0.0177 2.37118,-2.30175 5.12562,-5.07565 l 5.00809,-5.04345 -5.00809,-3.86364 c -9.20376,-7.10054 -10.83761,-8.44426 -10.71008,-8.80826 0.0889,-0.25374 0.74873,-0.15319 1.28125,0.19526 0.26705,0.17474 3.74931,2.75792 7.73834,5.74037 3.98904,2.98246 7.30089,5.42265 7.35967,5.42265 0.19941,0 5.01557,-12.413 4.8719,-12.55667 -0.0229,-0.0229 -2.72353,-1.51047 -6.0014,-3.30574 -8.73358,-4.78327 -8.64848,-4.73183 -8.49394,-5.13455 0.061,-0.15888 0.15897,-0.18997 0.42874,-0.13602 0.53173,0.10635 3.64064,1.71183 9.39438,4.85139 3.13168,1.70882 5.25281,2.80114 5.3241,2.74174 0.18408,-0.1534 6.49225,-12.70162 6.42186,-12.77439 -0.0343,-0.0355 -2.74265,-1.02435 -6.01854,-2.19751 -8.93844,-3.20102 -11.44943,-4.1203 -12.12596,-4.43936 -0.53868,-0.25404 -0.60985,-0.32739 -0.57871,-0.59643 0.0286,-0.24738 0.10274,-0.31269 0.38274,-0.33731 0.34358,-0.0302 4.12829,1.20655 14.01772,4.5807 l 4.75842,1.62352 0.0734,-1.0035 c 0.30846,-4.21934 0.76613,-12.68252 0.68957,-12.75142 -0.052,-0.0468 -1.91746,-0.4358 -4.14547,-0.86448 -7.97958,-1.53531 -13.21123,-2.59957 -14.20899,-2.89049 -0.55797,-0.16269 -1.03974,-0.29579 -1.07061,-0.29579 -0.14541,0 -0.0344,-0.47857 0.12522,-0.53982 0.0997,-0.0383 0.73776,0.0164 1.41783,0.1214 1.23009,0.19 17.7719,3.3827 18.04791,3.48339 0.0796,0.029 0.14778,0.0414 0.15156,0.0275 0.12875,-0.47301 2.14481,-14.05277 2.09359,-14.10188 -0.0412,-0.0395 -3.35627,-0.16004 -7.3667,-0.2678 -9.71352,-0.26101 -11.73425,-0.35553 -12.25539,-0.57328 -0.44518,-0.186 -0.5735,-0.56521 -0.2352,-0.69503 0.28673,-0.11003 6.80019,-0.0831 13.56954,0.0562 3.39435,0.0698 6.19727,0.10124 6.2287,0.0698 0.0314,-0.0314 -0.77414,-3.22647 -1.79014,-7.1001 -1.27202,-4.84977 -1.80706,-7.06805 -1.71814,-7.12349 0.071,-0.0443 0.10459,-0.10493 0.0746,-0.13478 -0.03,-0.0298 -1.92952,0.28188 -4.2212,0.69272 -8.8398,1.58475 -13.92285,2.36529 -14.34599,2.20291 -0.0987,-0.0379 -0.17954,-0.17052 -0.17954,-0.29473 0,-0.29112 0.13502,-0.32107 7.06022,-1.56583 10.74282,-1.93096 11.27952,-2.01964 11.36981,-1.87857 0.0468,0.0731 0.0858,0.25874 0.0868,0.41258 10e-4,0.15383 0.0331,0.24833 0.0715,0.20999 0.0603,-0.0603 -2.1286,-13.73748 -2.21447,-13.837 -0.0176,-0.0204 -2.3417,0.6407 -5.1647,1.46905 -10.04382,2.94716 -13.30391,3.83423 -14.09131,3.83423 -0.37104,0 -0.44794,-0.34219 -0.13402,-0.59638 0.14474,-0.11721 1.31228,-0.54963 2.59454,-0.96093 2.33295,-0.74834 14.20243,-4.40785 15.44517,-4.76194 0.36268,-0.10334 0.69945,-0.22476 0.74837,-0.26982 0.0785,-0.0723 -1.99872,-3.39012 -5.77685,-9.226845 l -1.20987,-1.869093 -3.55346,1.442807 c -11.45631,4.651581 -13.90327,5.594001 -14.52464,5.594001 -0.23803,0 -0.42934,-0.18386 -0.42934,-0.41261 0,-0.12552 1.66114,-0.83536 7.54168,-3.22269 10.70848,-4.347342 10.34395,-4.192801 10.29669,-4.365206 -0.024,-0.08759 -0.0433,-0.237376 -0.0429,-0.332862 9.2e-4,-0.211258 -6.47833,-12.841387 -6.58946,-12.844837 -0.0433,-0.0013 -2.33496,1.543063 -5.09261,3.432016 -5.43522,3.723048 -10.54851,7.136317 -11.23454,7.499364 -0.32786,0.173507 -0.46253,0.195599 -0.56538,0.09275 -0.42276,-0.422767 1.43172,-1.868781 10.72121,-8.359741 2.67363,-1.868174 4.96039,-3.489419 5.08171,-3.602766 0.21571,-0.201548 0.21206,-0.21327 -0.16577,-0.532072 -0.21249,-0.17929 -2.73364,-2.247131 -5.60255,-4.5952 -2.8689,-2.348071 -5.25555,-4.371645 -5.30365,-4.496832 -0.10757,-0.279938 -0.49717,0.08208 -7.69096,7.146487 -5.28618,5.191101 -6.37718,6.191342 -6.75312,6.191342 -0.83161,0 0.37258,-1.299259 9.20744,-9.934367 l 4.39817,-4.298728 -4.28863,-4.283967 -4.28862,-4.283967 h 0.69864 0.69864 l 5.03675,5.028061 5.03675,5.028061 5.38197,4.400029 c 2.96008,2.420016 5.40801,4.495344 5.43984,4.611841 0.0318,0.116496 1.6303,3.258187 3.55216,6.981535 1.92186,3.723349 3.54623,6.906328 3.60971,7.073287 0.0635,0.166959 1.87858,3.056111 4.03356,6.420332 2.52061,3.93504 3.92234,6.2288 3.9299,6.43083 0.006,0.17272 0.56767,3.76649 1.24713,7.98614 l 1.23536,7.67211 1.84224,7.1258 c 1.56473,6.05237 1.82449,7.17694 1.72441,7.46531 -0.0648,0.18673 -0.61049,3.59473 -1.21263,7.57334 -0.60214,3.9786 -1.14647,7.4682 -1.20963,7.75466 -0.0632,0.28646 -0.30344,3.77606 -0.53394,7.75467 -0.23051,3.9786 -0.46157,7.26047 -0.51347,7.29304 -0.13493,0.0847 -5.78272,11.28574 -6.4835,12.85849 -0.32196,0.7226 -0.65625,1.393 -0.74285,1.48976 -0.22457,0.25092 -5.14733,12.65657 -5.15904,13.0011 -0.003,0.0758 -2.61978,2.78095 -5.816,6.01139 l -5.81131,5.87355 z"
     id="path253" />
  <path
     style="fill:#000000;stroke:none;stroke-width:0.899999;stroke-linecap:round;stroke-linejoin:round;stroke-dasharray:none"
     d="m 71.167952,87.511874 c -0.979586,-0.916723 -3.811698,-3.702818 -6.293583,-6.191323 l -4.512518,-4.524553 0.348755,-0.348755 0.348756,-0.348756 5.909834,5.932437 c 3.250409,3.26284 6.027608,6.129071 6.171556,6.369404 0.268408,0.448133 0.255468,0.778316 -0.0305,0.778316 -0.08868,0 -0.962713,-0.750047 -1.942298,-1.66677 z"
     id="path254" />
  <g
     id="g9"
     transform="matrix(-0.55732878,0.33622675,-0.33613588,-0.55747944,176.19757,186.76404)"
     style="stroke-width:1.53625">
    <path
       style="fill:#ffaaaa;stroke:#000000;stroke-width:1.53625px;stroke-linecap:butt;stroke-linejoin:miter;stroke-opacity:1"
       d="M 81.841432,93.299234 C 97.67021,71.468133 92.206232,29.909315 69.728901,25.861893 43.777352,21.18888 53.031159,71.672515 29.462916,93.953965 25.36567,91.32401 31.332788,95.12377 26.843991,92.644501 53.722376,54.025658 40.809117,15.842558 68.746804,19.314578 c 25.406377,3.157435 36.233436,53.390373 20.62404,73.984656 -0.98872,1.304469 -6.250871,1.022028 -7.529412,0 z"
       id="path7"
       sodipodi:nodetypes="caccacc" />
    <ellipse
       style="fill:#ffaaaa;stroke:#000000;stroke-width:1.229;stroke-linecap:round;stroke-linejoin:round;stroke-opacity:1"
       id="path8"
       cx="93.102448"
       cy="67.756493"
       rx="7.5294118"
       ry="7.3657289" />
    <path
       style="fill:#ffaaaa;stroke:#000000;stroke-width:1.53625px;stroke-linecap:butt;stroke-linejoin:miter;stroke-opacity:1"
       d="m 87.398542,75.237191 c -6.001662,-0.5991 -9.191528,7.69657 -20.653757,15.13622 -0.0099,4.61306 5.780245,7.28384 10.464599,9.832799 2.771577,-4.682089 3.790615,-6.825679 5.688619,-8.920579 -1.415597,3.17158 -1.383673,4.84954 -3.202638,9.571819 7.939215,2.96319 13.822841,3.67876 19.657802,1.44036 -0.978139,-1.59914 -0.496403,-5.652589 -1.820577,-8.848879 5.61984,11.862749 3.56603,8.709309 7.2392,6.12111 0.5532,-0.17423 -3.71365,-7.47616 -5.905693,-11.02103 -1.959475,-3.16883 -0.987472,-8.34185 -6.790909,-12.507 -1.347456,-0.82852 -3.136868,-1.16698 -4.676646,-0.80482 z"
       id="path7-6"
       sodipodi:nodetypes="ccccccccscc" />
  </g>
</svg>
