<svg xmlns="http://www.w3.org/2000/svg" cursor="default" viewBox="0 0 256 256">
    <defs>
        <linearGradient id="linearGradient924" x1="18.12" x2="21.466" y1="241.29" y2="228.73" gradientTransform="scale(1 -1) rotate(-89.503 -.246 -.024)" gradientUnits="userSpaceOnUse">
            <stop offset="0" stop-color="#917c6f"/>
            <stop offset="1" stop-color="#ac9d93"/>
        </linearGradient>
        <linearGradient id="innoGrad4">
            <stop offset="0" stop-color="#ffb380"/>
            <stop offset="1" stop-color="#fca"/>
        </linearGradient>
    </defs>
    <g fill="#faa" stroke="#000" stroke-width="1.536" transform="matrix(-.55733 .33623 -.33614 -.55748 175.555 187.391)">
        <path d="M81.841 93.3c15.83-21.832 10.365-63.39-12.112-67.438-25.952-4.673-16.698 45.81-40.266 68.092-4.097-2.63 1.87 1.17-2.619-1.31 26.878-38.618 13.965-76.801 41.903-73.33C94.153 22.473 104.98 72.706 89.37 93.3c-.989 1.305-6.251 1.022-7.53 0z"/>
        <ellipse cx="93.102" cy="67.756" stroke-linecap="round" stroke-linejoin="round" stroke-width="1.229" rx="7.529" ry="7.366"/>
        <path d="M87.399 75.237c-6.002-.599-9.192 7.697-20.654 15.136-.01 4.613 5.78 7.284 10.464 9.833 2.772-4.682 3.791-6.825 5.689-8.92-1.416 3.171-1.384 4.85-3.203 9.571 7.94 2.964 13.823 3.68 19.658 1.44-.978-1.598-.496-5.652-1.82-8.848 5.62 11.863 3.566 8.71 7.239 6.121.553-.174-3.714-7.476-5.906-11.021-1.96-3.169-.987-8.342-6.79-12.507-1.348-.829-3.138-1.167-4.677-.805z"/>
    </g>
    <path fill="#fea" d="M143.706 146.392c-6.208-4.514-11.524-8.307-11.813-8.43-1.84-.779-4.038.493-4.26 2.465-.148 1.31.06 1.865 1.061 2.827.67.643.867.928.735 1.06-.133.133-.614-.13-1.787-.977-11.565-8.345-21.575-15.724-21.575-15.903 0-.124.073-.248.163-.276.09-.029 4.168 2.86 9.062 6.42 8.532 6.204 8.911 6.459 9.207 6.19.17-.153.31-.347.31-.43 0-.082-3.03-4.313-6.733-9.403-3.702-5.089-6.74-9.366-6.752-9.505-.01-.138.064-.281.167-.318.102-.036 3.122 3.98 6.71 8.926l6.525 8.992.464-.238c.255-.131.432-.326.394-.432-.037-.107-1.678-5.152-3.646-11.213-2.95-9.087-3.536-11.045-3.342-11.164.13-.08.278-.094.33-.03.051.064 1.636 4.884 3.52 10.712l3.426 10.597.532.002.532.002v-11.95c0-11.839.003-11.948.327-11.948.325 0 .328.109.328 11.376 0 9.711.034 11.376.232 11.376.128 0 .341.042.475.093.192.074.589-.974 1.907-5.033 5.687-17.507 5.743-17.671 6.03-17.608.152.033.265.13.251.215-.014.084-1.587 4.964-3.497 10.843-3.317 10.215-3.458 10.7-3.166 10.923.168.129.392.217.498.196.107-.021 3.264-4.274 7.016-9.45 3.752-5.177 6.912-9.508 7.023-9.625.164-.174.235-.17.392.019.156.187-1.073 1.971-6.438 9.347-3.647 5.014-6.631 9.174-6.631 9.245 0 .071.143.259.318.418.306.276.341.272.86-.092.297-.208 4.555-3.295 9.461-6.86 4.907-3.564 9.005-6.53 9.107-6.592.102-.062.272-.008.378.118.157.19-1.436 1.413-8.984 6.896-5.047 3.665-9.176 6.75-9.176 6.856 0 .106.096.323.213.483.198.27.956.048 11.39-3.343 8.208-2.668 11.226-3.585 11.36-3.451.114.114.124.236.026.328-.085.081-4.87 1.671-10.63 3.535-5.762 1.863-10.541 3.449-10.62 3.524-.079.075-.096.326-.038.557l.105.42 11.74.042c11.03.04 11.742.06 11.794.328.052.27-.572.287-11.262.287H136.41l.051.525c.05.508.1.54 1.525.993 1.897.6 12.021 3.885 16.774 5.44 2.023.663 3.705 1.284 3.737 1.38.032.095-.05.214-.182.265-.132.05-4.896-1.422-10.587-3.273-5.691-1.852-10.402-3.366-10.469-3.366-.123 0-.553.828-.466.899a9886.6 9886.6 0 009.345 6.785c7.685 5.576 9.265 6.786 9.105 6.979-.106.127-.205.232-.221.232-.016 0-5.107-3.693-11.315-8.207z"/>
    <path fill="#faa" d="M177.697 181.798l-23.633-23.241 1.083-1.53c.596-.84 1.017-1.713.936-1.938-.085-.234.039-.343.289-.254.26.092.804-.452 1.346-1.345.765-1.26 1.026-1.465 1.637-1.28 2.066.627 2.496-.096.572-.963-1.47-.663-1.52-.824-.84-2.751.263-.746.395-1.575.293-1.842-.103-.267-.037-.485.146-.485.182 0 .52-.737.751-1.637.411-1.604.444-1.637 1.667-1.637 1.856 0 1.642-.84-.304-1.195l-1.552-.283-.003-4.084-.003-4.084.963-.17c.53-.092.935-.279.9-.414a2.742 2.742 0 01-.063-.563c0-.174-.184-.26-.409-.192-.225.07-.878.206-1.451.305-1.01.174-1.06.127-1.608-1.527a72.518 72.518 0 00-1.465-3.888l-.9-2.183.953-.394c.523-.217.952-.529.952-.692 0-.604-1.012-.66-1.861-.105-.874.573-.875.573-1.88-.694a79.685 79.685 0 00-2.561-2.995c-.855-.95-1.555-1.842-1.555-1.98 0-.138.23-.578.51-.979.81-1.156.206-1.563-.837-.563l-.91.872-3.065-1.823a889.59 889.59 0 00-3.548-2.105c-.405-.234-.417-.43-.078-1.174.392-.861.3-1.5-.215-1.5-.136 0-.486.502-.778 1.115l-.531 1.113-2.372-.622c-1.305-.343-2.603-.624-2.885-.625-.283 0-1.036-.147-1.676-.324-1.09-.303-1.153-.395-1.028-1.472.104-.89.017-1.148-.389-1.148-.354 0-.588.409-.725 1.265l-.202 1.265-2.994.262c-5.194.455-5.27.447-5.388-.583-.07-.61-.294-.9-.693-.9-.51 0-.556.178-.345 1.335.198 1.083.144 1.37-.29 1.523-.293.104-1.913.755-3.599 1.448-1.686.693-3.2 1.26-3.363 1.26-.163 0-.464-.369-.669-.819-.368-.807-1.25-1.142-1.25-.475 0 .19.23.788.511 1.332.281.543.465 1.11.41 1.26-.057.15-1.477 1.332-3.158 2.628l-3.055 2.356-.796-.747c-.613-.576-.884-.658-1.183-.36-.299.3-.14.645.695 1.506l1.083 1.117-1.018 1.48c-.56.813-1.018 1.636-1.018 1.829 0 .193-.134.35-.297.35-.164 0-.716.664-1.228 1.475-.618.98-1.092 1.414-1.412 1.292-2.349-.893-58.268-27.887-58.273-28.13-.007-.304 4.877-12.963 5.104-13.23.06-.07 3.675 2.547 8.036 5.815 5.681 4.258 8.026 5.84 8.275 5.584.43-.443.102-.726-8.773-7.568l-6.83-5.265 5.11-5.11 5.11-5.109 6.305 6.3c3.469 3.464 6.489 6.3 6.712 6.3 1.03 0-.023-1.267-5.895-7.094l-6.302-6.252 4.212-5.108c2.316-2.81 4.324-5.04 4.462-4.954.138.085 2.735 3.691 5.773 8.013 5.004 7.122 6.34 8.69 6.34 7.445 0-.231-2.503-4.088-5.563-8.571l-5.564-8.15 6.267-3.215c3.446-1.768 6.369-3.215 6.494-3.215s1.897 3.72 3.938 8.266c2.04 4.547 3.795 8.37 3.9 8.498.105.128.377.117.604-.023.306-.19-.482-2.236-3.051-7.925-1.905-4.218-3.66-8.064-3.898-8.547l-.434-.876 5.569-3.543c3.062-1.948 5.639-3.543 5.726-3.543.087 0 .815 2.136 1.618 4.747 3.835 12.468 4.391 14.077 4.867 14.077.263 0 .477-.184.475-.41-.002-.224-1.243-4.607-2.757-9.737-1.513-5.131-2.727-9.35-2.696-9.375.125-.101 13.969-2.281 13.969-2.2 0 .05.81 3.958 1.8 8.686s1.8 8.712 1.8 8.852c0 .14.242.255.536.255.675 0 .624-.351-1.48-10.393-.878-4.187-1.556-7.612-1.508-7.612.049 0 2.867-.735 6.263-1.634 3.396-.899 6.36-1.635 6.587-1.637.329-.002.369 2.003.194 9.768-.169 7.546-.127 9.826.182 10.017.22.136.5.149.62.028.121-.121.348-4.666.504-10.1.156-5.433.305-9.9.331-9.927.05-.05 11.362 1.67 13.224 2.011.625.114 1.064.391 1.064.672 0 .263-.884 4.38-1.964 9.15-1.08 4.77-1.964 8.894-1.964 9.165 0 .27.22.492.49.492s.492-.114.492-.255c0-.602 4.166-18.424 4.35-18.608.193-.193 12.687.436 12.9.65.056.055-1.303 4.203-3.02 9.217-2.905 8.48-3.478 10.87-2.308 9.627.242-.257 1.888-4.54 3.658-9.518l3.218-9.052 6.15 3.079c3.384 1.693 6.152 3.171 6.152 3.284 0 .113-1.931 3.662-4.29 7.886-3.228 5.778-4.198 7.774-3.915 8.056.464.465.052 1.112 5.12-8.033l4.12-7.432 1.692.654c3.822 1.477 11.193 4.365 11.288 4.423.056.034-2.559 3.588-5.81 7.897-3.253 4.31-5.914 8.007-5.914 8.218 0 1.18 1.404-.262 5.762-5.919a2602.11 2602.11 0 016.03-7.805l1.176-1.504 4.664 4.549 4.664 4.55-7.072 6.906c-4.953 4.838-6.969 7.01-6.727 7.252.398.398.924-.07 8.906-7.935l5.454-5.374 5.35 4.355c2.941 2.395 5.544 4.533 5.784 4.752.351.32-1.12 1.494-7.611 6.071-7.114 5.016-8.899 6.526-7.712 6.526.326 0 6.54-4.1 13.316-8.788l3.34-2.31 3.29 6.336c1.809 3.484 3.289 6.481 3.289 6.66 0 .178-.184.399-.41.49-.224.093-4.067 1.655-8.538 3.472-9.398 3.82-9.106 3.68-8.775 4.216.187.303 2.568-.53 9.191-3.211 4.916-1.99 9.06-3.576 9.21-3.523.545.192 6.904 10.486 6.636 10.742-.152.146-4.253 1.48-9.115 2.965-4.86 1.485-9.029 2.847-9.261 3.026-.273.21-.31.438-.107.642.204.204 3.615-.642 9.59-2.377 5.1-1.482 9.41-2.716 9.578-2.742.24-.038 2.541 12.527 2.341 12.785-.028.036-4.146.798-9.152 1.692-5.005.894-9.189 1.714-9.296 1.822-.108.108-.052.34.123.515.26.26 14.07-1.906 17.673-2.771.64-.154.805.287 2.425 6.458l1.891 7.203c.145.551-.37.57-9.872.357-8.992-.2-10.025-.17-10.025.29 0 .729 1.147.84 11.213 1.087 7.283.179 8.757.294 8.757.684 0 .653-1.968 13.318-2.088 13.438-.054.054-4.227-.713-9.275-1.704-9.848-1.933-10.57-2.028-10.57-1.379 0 .295 3.003 1.006 9.862 2.335l9.862 1.912-.2 2.658c-.11 1.461-.298 4.535-.417 6.83-.119 2.296-.273 4.175-.342 4.175s-4.195-1.4-9.168-3.11c-4.974-1.71-9.241-3.11-9.484-3.11a.445.445 0 00-.441.446c0 .501-.169.433 10.627 4.302 4.315 1.547 7.896 2.863 7.958 2.925.062.062-1.332 2.987-3.098 6.5l-3.21 6.388-7.367-4.04c-4.92-2.698-7.474-3.93-7.693-3.71-.458.46-.051.72 7.658 4.9a1014.65 1014.65 0 016.825 3.72c.108.082-4.537 12.069-4.788 12.354-.112.126-3.158-2.01-6.769-4.747-8.654-6.56-9.254-6.964-9.682-6.535-.367.367 1.174 1.66 10.603 8.898 2.656 2.038 4.828 3.8 4.828 3.916 0 .116-2.246 2.442-4.992 5.17l-4.992 4.961z"/>
    <path fill="none" stroke="#000" d="M105.023 127.543l22.026 16.002.053.16.103-.047.43.313.52.715.204-.188 1.096.795.83-1.457-1.465-1.063-.488-.673-.262-.803v-.842l.26-.799.492-.676.68-.494.799-.26h.842l.796.26 23.602 17.147-2.172 2.992.229.224m-18.199-46.334h0m0 0l-7.329 22.553v-22.83m0 0v-.113h2.217m0 0h.719m0 0h.762l.535-3.594-.36 2.705 3.194.844c.133.049.253.092.367.113l-.105.322m-8.993-.081v23.74l-7.07-21.754m0 0l-.022-.068.987-.32m0 0l.012-.005m0 0l2.519-.818-.002-.014m0 0l-.578-3.443.471 2.558 3.299-.185c.142.005.27.008.385-.008v.316m17.53 2.914h0m0 0l-13.943 19.188 7.052-21.697m0 0l.04-.125 3.516 1.142 1.61-3.228-1.169 2.437 2.778 1.79c.111.087.213.165.314.22l-.198.273m-26.124-.23l7.35 22.617-13.48-18.551m0 0l-.007-.01.113-.081m0 0l.01-.007m0 0l2.869-2.085-.03-.058m0 0l-1.607-3.084 1.256 2.322 3.078-1.195c.137-.04.26-.076.363-.125l.084.257m33.389 5.549l-19.21 13.955 13.415-18.463m0 0l.072-.1 1.75 1.273m0 0l.934.679m0 0l.307.223 2.48-2.526-1.816 1.908 2.088 2.56c.079.119.153.224.232.308l-.252.183m-40.755-.35l14.017 19.29L105.9 126.12l2.174-2.99-.095-.094m0 0l-2.495-2.449 1.975 1.879 2.558-2.088c.118-.08.224-.15.307-.23l.122.167m42.713 2.525l.046.064m0 0l1.395 1.92.025-.014m0 0l3.111-1.621-2.316 1.254 1.195 3.08c.04.136.075.259.125.363l-.248.08m0 0l-22.629 7.351 18.487-13.43m0 0l.076-.056.733 1.01m4.229 7.058l.01.03m0 0l.993 3.058.088-.014m0 0l3.506-.587-2.694.494.184 3.297c-.005.142-.008.268.008.383h-.197m0 0h-23.858l21.781-7.077m0 0l.04-.013.14.43m2.246 12.047l3.428.511-2.7-.36-.843 3.194c-.049.133-.09.254-.111.367l-.114-.036m0 0l-22.765-7.397h22.945v3.697l.16.024m-1.674 8.918l3.016 1.501-2.441-1.168-1.79 2.776a2.369 2.369 0 00-.22.314l-.03-.021m0 0l-19.435-14.12v0l21.826 7.092-1.142 3.518.216.108"/>
    <path fill="#fca" d="M96.936 60.582s2.694 20.501 8.437 28.986c-2.676-.836-6.15-1.26-9.685-1.443-8.045-.42-16.408.4-16.408.4s15.097 9.031 24.22 10.057c-6.327 4.077-14.318 16.355-14.318 16.355s14.193-5.233 19.31-10.678c.423 5.608 2.752 12.9 2.752 12.9s3.042-9.664 2.653-15.298a6.543 5.908 0 001.252-.146h.002l2.7 7.46 1.147-.49-2.609-7.35a6.543 5.908 0 001.54-.882c3.91 3.395 12.624 6.549 12.624 6.549s-4.21-6.374-8.19-9.737c7.16-.368 20.471-8.314 20.471-8.314s-12.884-1.194-20.144.773c4.833-8.2 7.11-26.162 7.11-26.162s-11.573 11.995-15.358 20.895c-3.66-9.673-17.506-23.875-17.506-23.875zM198.582 96.22s-10.636-3.04-16.028-2.018c.982-1.14 1.933-2.761 2.779-4.463 1.926-3.874 3.312-8.168 3.312-8.168s-7.66 5.513-10.114 9.788c-.647-3.985-4.964-10.536-4.964-10.536s-.467 8.105 1.11 11.785c-2.841-.986-6.918-1.392-6.918-1.392s4.092 3.557 6.94 4.565a3.16 3.514 23.466 00-.196.648l-4.239-.258-.005.67 4.165.28a3.16 3.514 23.466 00.104.946c-2.502 1.203-5.913 4.823-5.913 4.823s4.027-.716 6.529-1.96c-1.35 3.605-.298 11.854-.298 11.854s3.341-6.092 3.928-10.087c2.99 4.128 11.318 9.075 11.318 9.075s-3.412-8.255-6.97-12.015c5.53.258 15.46-3.537 15.46-3.537zM209.043 131.523s-10.61 10.302-13.017 17.215c-.667-1.89-1.912-4.058-3.321-6.16-3.206-4.783-7.26-9.22-7.26-9.22s1.286 12.5 4.607 18.16c-5.05-1.88-15.519-1.206-15.519-1.206s9.083 5.886 14.4 6.488c-3.037 2.638-6.224 7.088-6.224 7.088s6.849-2.39 9.915-5.02a4.678 4.227 52.547 00.62.654l.001.002-3.124 4.734.773.447 3.099-4.634a4.678 4.227 52.547 001.166.504c-.273 3.688 1.65 10.023 1.65 10.023s1.855-5.132 2.079-8.847c3.279 3.94 13.54 8.163 13.54 8.163s-4.834-7.884-9.073-11.199c6.775-.738 18.057-7.11 18.057-7.11s-11.84-1.497-18.568.14c3.982-6.228 6.199-20.22 6.199-20.22z"/>
    <path fill="none" stroke="#000" d="M142.076 45.832l-4.418 19.477zm-30.607.654l3.927 18.823zm58.597 7.366l-8.837 15.877zm-85.933 4.255l7.53 16.696zm110.486 11.295L180.215 83.48zM60.727 76.44L73.33 89.043zm153.37 18.006l-18.17 7.366zm9.985 26.354l-18.496 3.273zm-18.17 27.006l20.135 3.93zm-3.273 24.716l15.879 8.676zm-49.041-13.671l47.834 46.976 10.888-11.002c-36.356-27.94.21-.287.21-.287l5.388-13.8.125.062 6.955-13.828c-43.21-15.339.11-.338.11-.338l.86-14.79.137.02 2.342-15.302c-45.836-1.236 0-.354 0-.354l-3.752-14.332.137-.023-2.5-15.276c-43.975 12.988-.11-.338-.11-.338l-8-12.472.126-.065-7.102-13.754c-37.808 25.94-.207-.287-.207-.287l-11.46-9.389.097-.1-11.004-10.888c-27.941 36.354-.287-.209-.287-.209l-13.803-5.388.063-.125-13.829-6.956c-15.339 43.209-.337-.109-.337-.109l-14.793-.86.021-.138-15.3-2.342c-1.234 45.755-.36.156-.356 0l-14.334 3.752-.024-.137-15.275 2.502c12.99 43.972-.338.11-.338.11L83.608 57.38l-.065-.123-13.756 7.097c25.942 37.806-.287.21-.287.21l-9.39 11.46-.1-.097L49.12 86.93c36.356 27.94-.207.287-.207.287l-5.754 14.732 59.748 28.606 1.79-2.776c.087-.111.163-.213.218-.314l.107.078"/>
</svg>
