<svg xmlns="http://www.w3.org/2000/svg" cursor="default" viewBox="0 0 256 256">
    <defs>
        <linearGradient id="linearGradient924" x1="18.12" x2="21.466" y1="241.29" y2="228.73" gradientTransform="scale(1 -1) rotate(-89.503 -.246 -.024)" gradientUnits="userSpaceOnUse">
            <stop offset="0" stop-color="#917c6f"/>
            <stop offset="1" stop-color="#ac9d93"/>
        </linearGradient>
        <linearGradient id="innoGrad4">
            <stop offset="0" stop-color="#ffb380"/>
            <stop offset="1" stop-color="#fca"/>
        </linearGradient>
    </defs>
    <circle cx="127.917" cy="74.015" r="48.25" fill="#fff" stroke="#000" stroke-linecap="round" stroke-linejoin="round" stroke-width="3.5" paint-order="markers stroke fill" transform="rotate(-1.353)"/>
    <path fill="#fca" stroke="#000" stroke-linecap="round" stroke-linejoin="round" stroke-width="3.5" d="M127.201 120.677l7.2-.17 2.196 92.946-7.2.17z" paint-order="markers stroke fill"/>
    <path fill="#449228" stroke="#000" d="M146.863 87.46c-93.133 45.613 74.926.296 6.415-2.64-1.243-.053-5.297 2.093-6.415 2.64z"/>
    <path fill="#fca" stroke="#000" stroke-linecap="round" stroke-linejoin="round" stroke-width="3" d="M121.729 122.91c-16.545-2.511-31.276-13.143-38.847-28.038-10.464-20.585-6.36-45.576 10.095-61.47 12.525-12.099 29.708-17.258 46.642-14.006 24.973 4.796 43.01 27.097 42.464 52.503-.17 7.864-1.658 14.268-4.974 21.402-2.432 5.234-5.352 9.49-9.468 13.806-7.616 7.984-17.323 13.326-28.01 15.414-5.022.982-12.873 1.152-17.902.389zm18.734-4.992c14.274-3.375 26.527-13.26 32.766-26.436 3.59-7.582 5.3-17.867 4.28-25.772-1.552-12.048-6.149-21.284-14.633-29.399-7.163-6.851-14.753-10.81-24.379-12.717-2.992-.593-4.33-.664-10-.528-5.153.124-7.134.3-9.313.83-9.309 2.266-17.086 6.565-23.5 12.99-7.55 7.565-12.104 16.57-13.765 27.228-.636 4.076-.438 11.796.411 16.036 4.183 20.879 21.036 36.292 42.402 38.78 3.44.4 12.12-.158 15.731-1.012z" paint-order="markers stroke fill"/>
    <path fill="#fea" stroke="#000" d="M131.002 223.143c-41.573 78.807-114.65-48.346-62.159-61.248 4.497-.858 2.24-3.46 2.24-3.46-50.284 2.54 21.653 154.994 62.38 63.63-4.043.94 2.492-1.863-2.461 1.078z"/>
    <path fill="#fea" stroke="#000" d="M78.003 165.557c-3.16 5.137 2.91 11.63 4.595 25.19 4.146 2.024 9.077-2.018 13.416-5.118-3.001-4.539-4.484-6.392-5.54-9.014 2.235 2.659 3.758 3.363 7.212 7.062 6.133-5.848 9.347-10.828 9.882-17.055-1.866.182-5.302-2.022-8.756-2.227 13.126.126 9.393.596 8.669-3.838.085-.574-8.348.075-12.494.498-3.706.379-7.935-2.755-14.217.646-1.334.85-2.42 2.312-2.767 3.856z"/>
    <circle cx="-51.5" cy="170.738" r="5" fill="#fea" stroke="#000" stroke-linecap="round" stroke-linejoin="round" stroke-width="2.1" paint-order="markers stroke fill" transform="rotate(-41.656)"/>
    <path d="M119.155 43.793c-.025.142-.078.277-.125.412-.076.2-.165.394-.24.594-.099.244-.19.49-.28.737-.1.27-.186.547-.276.822-.087.279-.17.558-.25.839-.079.274-.15.551-.218.829-.068.275-.122.554-.177.832-.051.284-.082.57-.103.858a14.548 14.548 0 00.003 2.628c.024.274.055.548.093.82.04.285.1.565.172.842.076.296.164.587.259.877a28.37 28.37 0 00.68 1.776c.126.295.259.587.395.877.137.298.286.59.435.881.152.296.307.59.467.881.166.304.341.602.515.9a41.096 41.096 0 001.142 1.838 69.01 69.01 0 001.278 1.89c.229.324.454.649.67.98.228.357.432.728.62 1.106.125.271.064.135.184.41l.999 1.123c-.115-.27-.056-.136-.175-.4a10.3 10.3 0 00-.594-1.075 30.733 30.733 0 00-.661-.972 80.832 80.832 0 01-1.271-1.882 39.966 39.966 0 01-1.119-1.811 30.58 30.58 0 01-.505-.89c-.158-.29-.315-.582-.465-.877a26.166 26.166 0 01-1.494-3.517c-.09-.286-.177-.574-.249-.866a9.097 9.097 0 01-.156-.824 17.932 17.932 0 01-.158-1.686c-.01-.295-.017-.59-.01-.886.008-.299.023-.597.056-.894.027-.284.062-.567.112-.848.053-.28.109-.558.175-.834.07-.278.135-.558.214-.833.079-.282.16-.563.249-.841.087-.272.182-.542.29-.806.094-.24.195-.475.308-.705.096-.181.189-.364.282-.546.063-.11.124-.223.214-.313z"/>
    <ellipse cx="-47.227" cy="253.516" fill="#fea" stroke="#000" stroke-linecap="round" stroke-linejoin="round" stroke-width="2.1" paint-order="markers stroke fill" rx="4.95" ry="4.95" transform="rotate(-41.656)"/>
    <path fill="#faa" stroke="#000" d="M121.359 77.506c-7.907 7.441-21.426-8.843-17.19-21.293 13.726-3.01 25.096 13.853 17.19 21.293zm-6.271-3.543c2.49 10.567-18.372 14.134-27.036 4.24 4.257-13.392 24.545-14.807 27.036-4.24zm-6.205 3.66c10.397 3.126 3.055 22.976-9.845 25.533-9.47-10.383-.552-28.66 9.845-25.534zm.067 7.202c7.906-7.44 21.426 8.843 17.19 21.294-13.726 3.009-25.096-13.853-17.19-21.294zm6.271 3.543c-2.49-10.567 18.372-14.133 27.036-4.24-4.257 13.392-24.545 14.808-27.036 4.24zm6.205-3.659c-10.397-3.127-3.055-22.977 9.845-25.534 9.47 10.383.552 28.66-9.845 25.534z"/>
    <path fill="#faa" stroke="#000" stroke-width=".6" d="M154.781 66.08c-.289 6.512-12.92 5.162-16.306-1.97 4.647-7.04 16.595-4.542 16.306 1.97zm-4.181 1.1c5.493 3.505-1.991 13.773-9.859 13.141-3.772-7.546 4.366-16.647 9.859-13.141zm-1.138 4.172c5.781-3.007 10.928 8.61 6.447 15.11-8.419-.505-12.23-12.104-6.447-15.11zm3.042 3.072c.289-6.512 12.92-5.163 16.306 1.97-4.647 7.04-16.595 4.542-16.306-1.97zm4.181-1.1c-5.493-3.506 1.991-13.773 9.859-13.142 3.772 7.546-4.366 16.647-9.859 13.142zm1.139-4.172c-5.782 3.006-10.929-8.61-6.448-15.111 8.419.505 12.23 12.105 6.448 15.11z"/>
    <ellipse cx="69.93" cy="112.791" fill="#2f8e15" stroke="#000" stroke-linecap="round" stroke-linejoin="round" stroke-width="1.6" paint-order="markers stroke fill" rx="10.312" ry="4.665" transform="rotate(-41.656)"/>
    <path d="M122.918 112.93c.06-.036.122-.067.186-.094.113-.045.231-.075.349-.107l.43-.108c.163-.039.325-.084.488-.125a47.464 47.464 0 011.212-.321c.224-.058.45-.11.675-.164l.702-.163c.243-.06.486-.112.73-.168.255-.06.511-.124.767-.187.288-.07.579-.132.87-.186.303-.059.606-.12.91-.172.325-.058.652-.106.98-.155.333-.053.667-.104 1.001-.155.342-.05.683-.1 1.025-.146.36-.053.721-.086 1.084-.114a30.17 30.17 0 011.037-.053c.276 0 .55.026.823.071.21.035.41.103.605.189.162.067.312.154.457.251.119.081.2.194.272.316.059.108.08.224.089.345.01.127-.007.253-.025.378-.02.139-.06.273-.097.408a.994.994 0 00-.037.356c.014.09.054.17.096.25.04.079.107.125.185.162a1.506 1.506 0 00.596.082c.125-.009.248-.031.37-.055.136-.026.272-.053.406-.083l.484-.122c.196-.047.39-.1.585-.153.21-.059.42-.121.628-.187.229-.07.454-.15.679-.231.244-.1.494-.188.742-.281.264-.102.524-.212.787-.316.294-.107.59-.211.885-.315.196-.068.391-.14.587-.21l1.235-1.1c-.196.072-.392.144-.589.213-.287.1-.574.202-.864.297-.258.096-.51.205-.769.3-.241.087-.483.174-.723.264-.217.077-.436.147-.657.212a11.023 11.023 0 01-1.174.305c-.155.033-.307.073-.462.102-.132.023-.263.048-.394.072-.117.02-.234.035-.352.039a1.744 1.744 0 01-.307-.018 1.011 1.011 0 01-.273-.079.487.487 0 01-.18-.166.888.888 0 01-.108-.238.816.816 0 01.002-.326c.036-.137.076-.273.103-.413.02-.128.04-.257.036-.388a.689.689 0 00-.094-.34.965.965 0 00-.304-.288 2.721 2.721 0 00-1.138-.372 5.407 5.407 0 00-.892-.01c-.352.022-.704.044-1.056.07-.359.03-.717.067-1.075.106-.34.04-.68.092-1.02.141-.33.047-.66.091-.99.145-.323.049-.646.1-.97.146-.299.042-.595.102-.892.158-.283.054-.565.108-.846.164-.252.057-.501.12-.753.174-.24.054-.482.106-.722.162-.232.052-.464.103-.696.157-.223.051-.446.1-.668.157-.207.049-.414.096-.621.147-.183.045-.364.093-.548.136-.157.035-.313.077-.471.11-.137.029-.273.062-.41.09-.103.023-.207.046-.31.073a.611.611 0 00-.166.077zM148.834 105.878c.057-.012.111-.035.166-.055.079-.03.16-.054.24-.081l.298-.1c.13-.043.263-.085.393-.13.153-.053.304-.11.456-.163.159-.058.32-.109.48-.166.17-.065.34-.132.51-.199.181-.072.364-.14.548-.207.2-.072.4-.143.601-.213.216-.072.431-.145.648-.215.225-.073.451-.141.678-.209.243-.075.489-.143.734-.21.262-.07.523-.143.785-.215.273-.072.544-.15.816-.227l.83-.239c.281-.079.56-.165.837-.252.274-.09.55-.175.823-.264.268-.085.535-.175.8-.267a22.474 22.474 0 001.53-.594c.25-.107.496-.218.742-.33.245-.111.485-.23.726-.348a48.421 48.421 0 001.394-.727c.224-.12.445-.245.666-.37.223-.128.444-.26.664-.392.223-.134.444-.272.665-.41.217-.137.433-.275.648-.414.221-.135.428-.29.63-.453.64-.532 1.26-1.087 1.87-1.652.096-.09.19-.181.283-.273l-1.274 1.133c-.094.092-.189.185-.285.275-.474.439-.208.192 1.083-.957.032-.03-.066.057-.1.085-.099.086-.198.17-.3.252-.2.162-.405.315-.625.45-.217.14-.434.28-.652.417a36.99 36.99 0 01-2.683 1.541 34.57 34.57 0 01-1.439.712c-.247.114-.495.227-.745.334a22.007 22.007 0 01-1.535.598 34.21 34.21 0 01-.809.275c-.275.089-.55.174-.824.264-.277.088-.554.174-.835.251-.275.08-.552.156-.828.236-.27.076-.539.15-.81.222l-.77.202c-.238.063-.478.124-.715.193-.225.067-.45.136-.674.206-.213.065-.424.134-.635.203l-.588.201c-.179.063-.358.126-.535.195-.165.065-.331.13-.499.19l-.473.16c-.147.05-.293.102-.44.149-.122.037-.244.075-.367.107a8.167 8.167 0 00-.278.081c-.075.022-.15.043-.224.067-.05.014-.102.024-.15.042zM164.187 83.247c.058 0 .115-.01.173-.016l.237-.02c.106-.01.211-.023.317-.034l.37-.034a4.72 4.72 0 01.435-.017c.172.003.345.02.517.036.184.02.369.041.553.064.19.021.38.05.57.077.195.028.389.057.582.09a25.045 25.045 0 011.233.22c.217.043.432.092.648.14.228.052.456.107.683.164a32.95 32.95 0 012.135.625c.234.08.47.158.704.24.2.073.396.152.592.235l.64-.569c-.194-.085-.39-.166-.588-.239-.233-.086-.47-.16-.706-.239-.24-.08-.48-.156-.722-.228-.237-.072-.474-.148-.712-.215-.231-.065-.463-.128-.695-.186-.226-.058-.45-.12-.677-.17-.214-.049-.428-.101-.644-.143-.208-.042-.416-.085-.625-.121-.2-.034-.4-.072-.6-.106a21.408 21.408 0 00-.58-.091 18.69 18.69 0 00-.57-.08c-.182-.025-.365-.043-.547-.068a11.99 11.99 0 00-.508-.044 4.612 4.612 0 00-.424.006c-.122.012-.244.02-.365.032-.102.008-.204.014-.306.023-.075.004-.151.005-.227.01-.056.006-.113.009-.17.015zM112.178 105.387c-.06.042-.127.074-.19.11a5.15 5.15 0 00-.254.149l-.303.191a22.17 22.17 0 00-.342.22c-.116.078-.232.155-.345.237-.34.276-.697.545-.968.89a1.835 1.835 0 00-.312.662 1.206 1.206 0 00.024.581.638.638 0 00.17.214c.078.072.162.135.25.193.103.073.219.126.334.178.132.057.267.108.404.154.15.047.297.097.446.143.163.051.328.098.493.141.182.051.37.081.555.114.208.034.416.07.625.1.216.036.433.066.65.095.227.03.454.063.68.095.254.033.51.061.765.082.28.022.56.038.84.054.303.015.606.016.909.023.223.005.111.002.335.01l.608-.541-.33-.014a663.39 663.39 0 01-.892-.038 20.716 20.716 0 01-.833-.06 12.144 12.144 0 01-.751-.094c-.225-.034-.45-.07-.675-.1-.216-.03-.433-.06-.648-.097-.207-.034-.413-.068-.619-.105a8.476 8.476 0 01-.545-.123 8.924 8.924 0 01-.485-.148c-.148-.048-.295-.096-.442-.147a4.4 4.4 0 01-.399-.16 2.16 2.16 0 01-.568-.384.657.657 0 01-.165-.218 1.181 1.181 0 01-.05-.265 1.093 1.093 0 01.013-.305 1.82 1.82 0 01.308-.658c.04-.05.037-.05.08-.097l.045-.046c-1.155 1.005-.798.687-.543.486a15.793 15.793 0 01.682-.452l.295-.185c.08-.049.162-.097.246-.142.057-.03.116-.056.17-.091z"/>
</svg>
