<?xml version="1.0" encoding="UTF-8" standalone="no"?>
<svg
   cursor="default"
   version="1.1"
   viewBox="0 0 256 256"
   id="svg34"
   sodipodi:docname="round_fan.svg"
   inkscape:version="1.4.1-rc (d9e8dc1fe0, 2025-03-10)"
   width="100%"
   height="100%"
   xmlns:inkscape="http://www.inkscape.org/namespaces/inkscape"
   xmlns:sodipodi="http://sodipodi.sourceforge.net/DTD/sodipodi-0.dtd"
   xmlns:xlink="http://www.w3.org/1999/xlink"
   xmlns="http://www.w3.org/2000/svg"
   xmlns:svg="http://www.w3.org/2000/svg">
  <sodipodi:namedview
     id="namedview34"
     pagecolor="#ffffff"
     bordercolor="#666666"
     borderopacity="1.0"
     inkscape:showpageshadow="2"
     inkscape:pageopacity="0.0"
     inkscape:pagecheckerboard="0"
     inkscape:deskcolor="#d1d1d1"
     inkscape:zoom="2.1599902"
     inkscape:cx="115.04682"
     inkscape:cy="158.79702"
     inkscape:window-width="1854"
     inkscape:window-height="1010"
     inkscape:window-x="0"
     inkscape:window-y="0"
     inkscape:window-maximized="1"
     inkscape:current-layer="svg34"
     showgrid="false" />
  <defs
     id="defs18">
    <linearGradient
       id="linearGradient2"
       inkscape:collect="always">
      <stop
         style="stop-color:#c5c5c5;stop-opacity:1;"
         offset="0"
         id="stop20" />
      <stop
         style="stop-color:#ffffff;stop-opacity:1;"
         offset="1"
         id="stop19" />
    </linearGradient>
    <inkscape:path-effect
       effect="copy_rotate"
       starting_point="164.84178,95.510577"
       origin="156.28781,95.510577"
       id="path-effect9"
       is_visible="true"
       lpeversion="1.2"
       lpesatellites=""
       method="normal"
       num_copies="6"
       starting_angle="0"
       rotation_angle="60"
       gap="0"
       copies_to_360="true"
       mirror_copies="false"
       split_items="false"
       link_styles="false" />
    <inkscape:path-effect
       effect="curvestitching"
       id="path-effect2"
       is_visible="true"
       lpeversion="1"
       count="5"
       startpoint_edge_variation="0;1"
       startpoint_spacing_variation="0;1"
       endpoint_edge_variation="0;1"
       endpoint_spacing_variation="0;1"
       strokepath="M 0,0 H 1"
       prop_scale="1"
       scale_y_rel="false" />
    <inkscape:path-effect
       effect="rough_hatches"
       id="path-effect27"
       is_visible="true"
       lpeversion="1.2"
       direction="130.23338,84.722658 , 44.619617,0"
       dist_rdm="0;1"
       growth="0"
       do_bend="true"
       bender="130.23338,89.722658 , 5,0"
       bottom_edge_variation="0;1"
       top_edge_variation="0;1"
       bottom_tgt_variation="0;1"
       top_tgt_variation="0;1"
       scale_bf="1"
       scale_bb="1"
       scale_tf="1"
       scale_tb="1"
       top_smth_variation="0;1"
       bottom_smth_variation="0;1"
       fat_output="true"
       stroke_width_top="1"
       stroke_width_bottom="1"
       front_thickness="1"
       back_thickness="0.25" />
    <inkscape:path-effect
       effect="rough_hatches"
       id="path-effect25"
       is_visible="true"
       lpeversion="1.2"
       direction="130.33594,169.64062 , 44.499022,0"
       dist_rdm="0;1"
       growth="0"
       do_bend="true"
       bender="130.33594,174.64062 , 5,0"
       bottom_edge_variation="0;1"
       top_edge_variation="0;1"
       bottom_tgt_variation="0;1"
       top_tgt_variation="0;1"
       scale_bf="0"
       scale_bb="0"
       scale_tf="0.3"
       scale_tb="1.2"
       top_smth_variation="0;1"
       bottom_smth_variation="0;1"
       fat_output="true"
       stroke_width_top="1"
       stroke_width_bottom="1"
       front_thickness="1"
       back_thickness="0.25" />
    <inkscape:path-effect
       effect="rough_hatches"
       id="path-effect22"
       is_visible="true"
       lpeversion="1.2"
       direction="130.23338,125.46803 , 44.619244,0"
       dist_rdm="0;1"
       growth="0"
       do_bend="true"
       bender="130.23338,130.46803 , 5,0"
       bottom_edge_variation="0;1"
       top_edge_variation="0;1"
       bottom_tgt_variation="0;1"
       top_tgt_variation="0;1"
       scale_bf="0"
       scale_bb="0"
       scale_tf="0"
       scale_tb="0"
       top_smth_variation="0;1"
       bottom_smth_variation="0;1"
       fat_output="true"
       stroke_width_top="0"
       stroke_width_bottom="0"
       front_thickness="0"
       back_thickness="0" />
    <linearGradient
       id="linearGradient924"
       x1="18.120001"
       x2="21.466"
       y1="241.28999"
       y2="228.73"
       gradientTransform="matrix(0.0086692,0.99996,0.99996,-0.0086692,-0.22047,0.26984)"
       gradientUnits="userSpaceOnUse">
      <stop
         stop-color="#917c6f"
         offset="0"
         id="stop1" />
      <stop
         stop-color="#ac9d93"
         offset="1"
         id="stop2" />
    </linearGradient>
    <linearGradient
       id="innoGrad4">
      <stop
         stop-color="#ffb380"
         offset="0"
         id="stop3" />
      <stop
         stop-color="#fca"
         offset="1"
         id="stop4" />
    </linearGradient>
    <linearGradient
       id="innoGrad5"
       x1="149.74001"
       x2="147.34"
       y1="110.12"
       y2="107.69"
       gradientTransform="matrix(0.0086692,0.99996,0.99996,-0.0086692,-0.22047,0.26984)"
       gradientUnits="userSpaceOnUse">
      <stop
         stop-color="#916f6f"
         offset="0"
         id="stop5" />
      <stop
         stop-color="#ac9393"
         offset="1"
         id="stop6" />
    </linearGradient>
    <linearGradient
       id="linearGradient1284"
       x1="30"
       x2="30.714001"
       y1="226.17999"
       y2="225.42"
       gradientTransform="matrix(0.0086692,0.99996,0.99996,-0.0086692,-0.22047,0.26984)"
       gradientUnits="userSpaceOnUse"
       xlink:href="#innoGrad4" />
    <linearGradient
       id="linearGradient1292"
       x1="37.633999"
       x2="38.214001"
       y1="219.17"
       y2="218.59"
       gradientTransform="matrix(0.0086692,0.99996,0.99996,-0.0086692,-0.22047,0.26984)"
       gradientUnits="userSpaceOnUse"
       xlink:href="#innoGrad4" />
    <linearGradient
       id="linearGradient1306"
       x1="40.044998"
       x2="40.938"
       y1="216.75999"
       y2="215.78"
       gradientTransform="matrix(0.0086692,0.99996,0.99996,-0.0086692,-0.22047,0.26984)"
       gradientUnits="userSpaceOnUse"
       xlink:href="#innoGrad4" />
    <linearGradient
       id="linearGradient1314"
       x1="42.455002"
       x2="43.348"
       y1="214.21001"
       y2="213.32001"
       gradientTransform="matrix(0.0086692,0.99996,0.99996,-0.0086692,-0.22047,0.26984)"
       gradientUnits="userSpaceOnUse"
       xlink:href="#innoGrad4" />
    <linearGradient
       id="linearGradient1322"
       x1="50.580002"
       x2="51.070999"
       y1="206.49001"
       y2="206.03999"
       gradientTransform="matrix(0.0086692,0.99996,0.99996,-0.0086692,-0.22047,0.26984)"
       gradientUnits="userSpaceOnUse"
       xlink:href="#innoGrad4" />
    <linearGradient
       id="innoGrad3"
       x1="27.009001"
       x2="54.820999"
       y1="229.57001"
       y2="202.83"
       gradientTransform="matrix(0.0086692,0.99996,0.99996,-0.0086692,-0.22047,0.26984)"
       gradientUnits="userSpaceOnUse">
      <stop
         stop-color="#f95"
         offset="0"
         id="stop7" />
      <stop
         stop-color="#ff7f2a"
         offset=".088"
         id="stop8" />
      <stop
         stop-color="#f95"
         offset=".265"
         id="stop9" />
      <stop
         stop-color="#ff7f2a"
         offset=".446"
         id="stop10" />
      <stop
         stop-color="#ff7f2a"
         offset=".601"
         id="stop11" />
      <stop
         stop-color="#f95"
         offset=".733"
         id="stop12" />
      <stop
         stop-color="#ff7f2a"
         offset=".863"
         id="stop13" />
      <stop
         stop-color="#f95"
         offset="1"
         id="stop14" />
    </linearGradient>
    <linearGradient
       id="linearGradient903"
       x1="200.10001"
       x2="191.22"
       y1="65.966003"
       y2="57.050999"
       gradientUnits="userSpaceOnUse">
      <stop
         stop-color="#916f6f"
         offset="0"
         id="stop15" />
      <stop
         stop-color="#ac9393"
         offset="1"
         id="stop16" />
    </linearGradient>
    <linearGradient
       id="linearGradient943"
       x1="185.92999"
       x2="178.95"
       y1="77.051003"
       y2="70.746002"
       gradientUnits="userSpaceOnUse"
       xlink:href="#linearGradient924" />
    <linearGradient
       id="linearGradient951"
       x1="181.92999"
       x2="175.36"
       y1="82.508003"
       y2="76.271004"
       gradientUnits="userSpaceOnUse"
       xlink:href="#linearGradient924" />
    <linearGradient
       id="linearGradient938"
       x1="18.120001"
       x2="21.466"
       y1="241.28999"
       y2="228.73"
       gradientTransform="matrix(0.0086692,0.99996,0.99996,-0.0086692,-0.22047,0.26984)"
       gradientUnits="userSpaceOnUse">
      <stop
         stop-color="#fd5"
         offset="0"
         id="stop17" />
      <stop
         stop-color="#fea"
         offset="1"
         id="stop18" />
    </linearGradient>
    <radialGradient
       inkscape:collect="always"
       xlink:href="#linearGradient2"
       id="radialGradient20"
       cx="193.21619"
       cy="-32.008438"
       fx="193.21619"
       fy="-32.008438"
       r="50"
       gradientUnits="userSpaceOnUse" />
  </defs>
  <circle
     style="display:inline;fill:url(#radialGradient20);stroke:#000000;stroke-width:3.5;stroke-linecap:round;stroke-linejoin:round;paint-order:markers stroke fill"
     id="path1"
     cx="193.21619"
     cy="-32.008438"
     r="48.25"
     transform="rotate(36.794943)" />
  <rect
     style="display:inline;fill:#ffccaa;stroke:#000000;stroke-width:3.5;stroke-linecap:round;stroke-linejoin:round;paint-order:markers stroke fill"
     id="rect1"
     width="7.2020459"
     height="92.97187"
     x="189.61517"
     y="17.623901"
     transform="rotate(36.794943)" />
  <path
     style="fill:#449228;fill-opacity:1;stroke:#000000;stroke-width:1px;stroke-linecap:butt;stroke-linejoin:miter;stroke-opacity:1"
     d="m 177.26556,113.70657 c -101.416824,-21.657384 58.73943,46.51415 6.67526,1.88665 -0.94463,-0.80972 -5.45851,-1.62681 -6.67526,-1.88665 z"
     id="path19"
     sodipodi:nodetypes="sss" />
  <path
     style="fill:#ffccaa;stroke:#000000;stroke-width:3;stroke-linecap:round;stroke-linejoin:round;stroke-dasharray:none;paint-order:markers stroke fill"
     d="m 135.60204,126.05938 c -11.4603,-12.19441 -16.47771,-29.65526 -13.23111,-46.044895 4.48714,-22.65215 23.15107,-39.769703 45.90903,-42.105289 17.32345,-1.777867 34.02325,4.777988 45.33173,17.795903 16.6765,19.197376 17.0854,47.876541 0.96267,67.518871 -4.99021,6.07957 -10.11681,10.19709 -17.13106,13.75911 -5.14563,2.61308 -10.07128,4.15758 -15.97335,5.00861 -10.92132,1.57478 -21.85498,-0.22019 -31.54859,-5.17928 -4.55659,-2.33108 -10.83601,-7.04657 -14.31935,-10.75298 z m 17.81632,7.64664 c 13.31011,6.16282 29.05266,5.95711 42.09707,-0.55007 7.50761,-3.74515 15.20393,-10.7782 19.28552,-17.62351 6.22159,-10.43428 8.31126,-20.537215 6.65166,-32.158902 -1.40135,-9.813189 -4.92428,-17.614835 -11.31626,-25.060185 -1.98702,-2.314476 -2.9956,-3.196389 -7.53834,-6.591605 -4.12916,-3.086064 -5.7957,-4.170543 -7.83675,-5.099511 -8.72,-3.968825 -17.49148,-5.392075 -26.50512,-4.300706 -10.6104,1.284707 -19.75354,5.554432 -27.64352,12.909173 -3.01768,2.812962 -7.63036,9.006625 -9.58123,12.86516 -9.60787,19.002994 -5.8754,41.534416 9.39072,56.688046 2.45863,2.4405 9.62878,7.36289 12.99625,8.92211 z"
     id="path4" />
  <path
     style="fill:#000000;fill-opacity:1;stroke:#000000;stroke-width:0;stroke-linecap:round;stroke-linejoin:round;stroke-dasharray:none;paint-order:normal"
     id="path21"
     d="m 182.44795,62.250672 c -0.10717,0.09597 -0.23237,0.169412 -0.35299,0.246955 -0.18293,0.110337 -0.3729,0.208191 -0.55543,0.3191 -0.22796,0.130436 -0.45202,0.267107 -0.67489,0.405961 -0.24638,0.15154 -0.48454,0.31588 -0.72488,0.476715 -0.24058,0.164961 -0.47839,0.333894 -0.71508,0.504352 -0.2316,0.167607 -0.45892,0.340825 -0.68349,0.517704 -0.22325,0.174949 -0.4382,0.360098 -0.65307,0.545141 -0.21559,0.191913 -0.41676,0.397853 -0.61128,0.610745 -0.20616,0.217787 -0.40351,0.443467 -0.59579,0.673533 -0.18665,0.226296 -0.36625,0.458195 -0.54026,0.694302 -0.16924,0.228419 -0.32723,0.464686 -0.48436,0.701493 -0.1509,0.230312 -0.29516,0.464812 -0.43398,0.702581 -0.1436,0.248229 -0.26946,0.505788 -0.38448,0.768306 -0.12256,0.279083 -0.23368,0.562906 -0.33837,0.849126 -0.10366,0.300538 -0.20416,0.602165 -0.29767,0.906026 -0.0926,0.302252 -0.18131,0.605665 -0.26369,0.910872 -0.0837,0.309556 -0.15952,0.621126 -0.23185,0.933516 -0.0756,0.318779 -0.13875,0.640362 -0.20255,0.96167 -0.0623,0.326531 -0.12202,0.653574 -0.17642,0.981514 -0.0567,0.34108 -0.10364,0.683687 -0.15111,1.026142 -0.0489,0.346815 -0.0897,0.69466 -0.12971,1.042581 -0.0423,0.36866 -0.0755,0.738244 -0.10724,1.107925 -0.0323,0.376634 -0.0613,0.753538 -0.0892,1.130522 -0.0276,0.381691 -0.0519,0.763589 -0.0731,1.145674 -0.0205,0.395187 -0.0436,0.790211 -0.0793,1.184335 -0.0404,0.421006 -0.10876,0.838677 -0.19456,1.252628 -0.0697,0.29001 -0.0333,0.144843 -0.10913,0.435527 0,0 0.0919,1.500063 0.0919,1.500063 v 0 c 0.0764,-0.282128 0.0397,-0.141104 0.10991,-0.42304 0.0918,-0.398938 0.15336,-0.804511 0.19707,-1.211491 0.0358,-0.390205 0.0592,-0.781311 0.08,-1.172578 0.0222,-0.378116 0.0463,-0.756116 0.0738,-1.133889 0.0276,-0.377504 0.0563,-0.754927 0.0891,-1.132021 0.032,-0.360406 0.0672,-0.720531 0.10895,-1.079948 0.0399,-0.345518 0.0825,-0.690718 0.13016,-1.035262 0.0465,-0.33785 0.0942,-0.675542 0.152,-1.011677 0.056,-0.325979 0.11246,-0.651908 0.17673,-0.976385 0.063,-0.319269 0.12812,-0.638101 0.20297,-0.954841 0.0727,-0.310272 0.14879,-0.619729 0.23223,-0.927283 0.084,-0.305012 0.17063,-0.609344 0.26364,-0.911759 0.0942,-0.300088 0.18942,-0.60004 0.29834,-0.895167 0.10569,-0.28107 0.21548,-0.560727 0.33927,-0.834411 0.1185,-0.253501 0.24449,-0.503496 0.38591,-0.745122 0.1396,-0.239907 0.2829,-0.477709 0.43351,-0.710901 0.15565,-0.241073 0.31571,-0.479325 0.48364,-0.712072 0.17415,-0.238879 0.35209,-0.47513 0.53964,-0.703714 0.19056,-0.229655 0.3868,-0.454563 0.59618,-0.667392 0.19655,-0.20684 0.3995,-0.408237 0.61203,-0.598674 0.21419,-0.186406 0.4302,-0.370834 0.65295,-0.546986 0.22638,-0.176181 0.45019,-0.355815 0.68314,-0.523359 0.23578,-0.172772 0.47292,-0.343817 0.71487,-0.507824 0.23667,-0.159975 0.47782,-0.313249 0.72625,-0.454436 0.22091,-0.130204 0.44661,-0.252693 0.67743,-0.364496 0.18764,-0.08234 0.37325,-0.169175 0.55936,-0.254925 0.11679,-0.04752 0.23485,-0.09905 0.36114,-0.114162 z" />
  <path
     style="fill:#ffaaaa;stroke:#000000;stroke-width:1px;stroke-linecap:butt;stroke-linejoin:miter;stroke-opacity:1"
     d="m 163.35667,90.124706 c -10.81375,0.967844 -11.38731,-20.189081 -0.36557,-27.363941 12.65356,6.112164 11.17933,26.396104 0.36557,27.363941 z m -2.74302,-6.660279 c -4.5687,9.848907 -23.17791,-0.232827 -23.88065,-13.365371 11.62007,-7.90222 28.44936,3.516472 23.88065,13.365371 z m -7.13947,-0.954613 c 6.24504,8.881062 -11.7906,19.956236 -23.51509,13.998564 -1.03349,-14.014384 17.27004,-22.879624 23.51509,-13.998564 z m -4.39648,5.705647 c 10.81375,-0.967837 11.38732,20.189079 0.36557,27.363939 -12.65356,-6.11217 -11.17932,-26.396096 -0.36557,-27.363939 z m 2.74302,6.660277 c 4.56871,-9.848899 23.17792,0.232836 23.88066,13.365372 -11.62007,7.90222 -28.44937,-3.51647 -23.88066,-13.365372 z m 7.13948,0.954621 c -6.24505,-8.881068 11.7906,-19.956247 23.51508,-13.998571 1.03349,14.014386 -17.27003,22.879622 -23.51508,13.998571 z"
     id="path9"
     sodipodi:nodetypes="zcz" />
  <path
     style="fill:#ffaaaa;stroke:#000000;stroke-width:0.6;stroke-linecap:butt;stroke-linejoin:miter;stroke-dasharray:none;stroke-opacity:1"
     d="m 196.69856,101.78354 c -4.24931,4.94277 -13.34863,-3.920575 -11.60695,-11.621157 8.00359,-2.666466 15.85627,6.678417 11.60695,11.621157 z m -3.96739,-1.71764 c 2.15458,6.15013 -10.07326,9.60142 -15.87064,4.24488 1.69487,-8.264008 13.71604,-10.395005 15.87064,-4.24488 z m -3.47229,2.57763 c 6.40391,1.20736 3.27537,13.52201 -4.26369,15.86605 -6.30871,-5.59754 -2.14021,-17.07342 4.26369,-15.86605 z m 0.49512,4.29527 c 4.24931,-4.94278 13.34864,3.92059 11.60694,11.62118 -8.00357,2.66646 -15.85625,-6.67841 -11.60694,-11.62118 z m 3.96739,1.71765 c -2.15459,-6.15013 10.07328,-9.601415 15.87064,-4.24488 -1.69487,8.26401 -13.71605,10.39501 -15.87064,4.24488 z m 3.47229,-2.57763 c -6.40391,-1.20736 -3.27537,-13.522002 4.26369,-15.866051 6.30872,5.597543 2.1402,17.073411 -4.26369,15.866051 z"
     id="path18"
     sodipodi:nodetypes="zcz" />
  <ellipse
     style="fill:#2f8e15;fill-opacity:1;stroke:#000000;stroke-width:1.6;stroke-linecap:round;stroke-linejoin:round;stroke-dasharray:none;paint-order:markers stroke fill"
     id="path20"
     cx="188.30841"
     cy="74.171265"
     rx="10.31202"
     ry="4.6649618"
     transform="rotate(-3.5080117)" />
  <path
     style="fill:#000000;fill-opacity:1;stroke:#000000;stroke-width:0;stroke-linecap:round;stroke-linejoin:round;stroke-dasharray:none;paint-order:normal"
     id="path22"
     d="m 142.7016,118.9466 c 0.0693,0.008 0.13728,0.0214 0.20454,0.0399 0.11671,0.0348 0.22841,0.0838 0.34016,0.13164 0.13478,0.0603 0.26996,0.11973 0.40471,0.18013 0.15253,0.0707 0.30771,0.13538 0.46145,0.20335 0.18242,0.0754 0.3643,0.15195 0.54575,0.22959 0.20304,0.0861 0.40433,0.17606 0.60549,0.26638 0.212,0.0935 0.42189,0.19183 0.63244,0.28855 0.21818,0.1008 0.43524,0.20397 0.65299,0.30563 0.22697,0.103 0.45135,0.2115 0.67659,0.31817 0.23902,0.11069 0.47917,0.21885 0.71928,0.32711 0.27035,0.12283 0.53685,0.2536 0.79994,0.3912 0.27435,0.14098 0.54958,0.28018 0.82111,0.42654 0.29187,0.15537 0.57881,0.31962 0.86605,0.48335 0.29513,0.16468 0.58951,0.33062 0.88394,0.49653 0.29873,0.17246 0.59804,0.34397 0.89567,0.51829 0.31551,0.18043 0.62097,0.37776 0.92262,0.58029 0.28608,0.19495 0.56923,0.39408 0.84842,0.59876 0.21779,0.16995 0.41766,0.36048 0.60384,0.56418 0.14326,0.15742 0.25917,0.33501 0.35904,0.52216 0.0858,0.1522 0.15052,0.3138 0.2038,0.47979 0.0435,0.13703 0.0376,0.27644 0.0185,0.41663 -0.0196,0.12107 -0.0752,0.22577 -0.14255,0.32621 -0.0704,0.10586 -0.16167,0.1945 -0.25297,0.28193 -0.10148,0.0965 -0.21545,0.17813 -0.32826,0.26055 -0.0965,0.0714 -0.18389,0.15642 -0.24893,0.25767 -0.044,0.0786 -0.0635,0.16729 -0.0785,0.25523 -0.0173,0.0874 0.006,0.16427 0.045,0.24157 0.0484,0.0847 0.11047,0.15938 0.17806,0.22925 0.0716,0.0776 0.15473,0.14252 0.24056,0.20333 0.1029,0.0706 0.21358,0.12896 0.32462,0.18554 0.1224,0.0642 0.2458,0.12643 0.37068,0.18574 0.1517,0.0679 0.30354,0.13542 0.4553,0.20316 0.18326,0.084 0.36919,0.1619 0.5547,0.24078 0.20167,0.084 0.40498,0.1639 0.60924,0.24137 0.22293,0.0863 0.44972,0.16157 0.67646,0.23715 0.25451,0.0725 0.50511,0.15736 0.75723,0.23747 0.27045,0.083 0.54357,0.15674 0.81442,0.2384 0.29752,0.0971 0.59403,0.19729 0.89016,0.29859 0.1967,0.0674 0.39469,0.1311 0.59191,0.19701 0,0 1.65012,-0.10115 1.65012,-0.10115 v 0 c -0.19821,-0.0653 -0.39681,-0.12925 -0.59422,-0.19687 -0.28817,-0.0985 -0.57652,-0.1964 -0.86281,-0.30028 -0.26202,-0.0842 -0.52824,-0.15427 -0.78986,-0.23989 -0.24395,-0.0801 -0.4877,-0.16071 -0.73222,-0.23901 -0.21837,-0.0731 -0.43404,-0.15318 -0.64777,-0.23892 -0.20083,-0.0764 -0.40121,-0.15409 -0.59728,-0.24208 -0.17449,-0.0749 -0.34552,-0.15669 -0.51452,-0.24325 -0.1417,-0.0691 -0.28623,-0.13238 -0.42622,-0.20495 -0.11758,-0.0634 -0.23629,-0.12469 -0.35459,-0.18671 -0.10378,-0.0563 -0.20503,-0.11704 -0.30035,-0.18696 -0.082,-0.0619 -0.1604,-0.12853 -0.23041,-0.20399 -0.0638,-0.0701 -0.12409,-0.14439 -0.16621,-0.22999 -0.0322,-0.0774 -0.0478,-0.15785 -0.0388,-0.24195 0.01,-0.0874 0.0273,-0.17312 0.0624,-0.25423 0.0497,-0.0985 0.1183,-0.18283 0.20253,-0.25462 0.11293,-0.086 0.22879,-0.16824 0.33631,-0.26104 0.0953,-0.0882 0.19082,-0.1777 0.26791,-0.28281 0.0676,-0.10057 0.12527,-0.20206 0.13603,-0.32585 0.009,-0.14222 -0.0102,-0.28025 -0.0614,-0.41401 -0.0646,-0.16644 -0.14303,-0.32655 -0.23859,-0.47766 -0.1211,-0.18909 -0.26227,-0.36394 -0.42623,-0.51803 -0.21723,-0.20355 -0.44705,-0.39335 -0.69506,-0.55865 -0.29069,-0.19984 -0.58095,-0.40036 -0.87373,-0.59714 -0.30065,-0.19826 -0.60538,-0.39018 -0.91078,-0.58102 -0.29352,-0.17816 -0.59196,-0.34785 -0.88982,-0.51864 -0.2887,-0.167 -0.57587,-0.33662 -0.86805,-0.49751 -0.28395,-0.16161 -0.56899,-0.32128 -0.85218,-0.48421 -0.2616,-0.15219 -0.53159,-0.28813 -0.79997,-0.42782 -0.25544,-0.13146 -0.51057,-0.26352 -0.7669,-0.39323 -0.23251,-0.11053 -0.46745,-0.21582 -0.699,-0.32835 -0.22262,-0.10645 -0.44481,-0.2138 -0.66814,-0.31869 -0.21477,-0.10193 -0.42874,-0.20548 -0.64408,-0.30618 -0.20706,-0.097 -0.41308,-0.19632 -0.62207,-0.28919 -0.19325,-0.0892 -0.38553,-0.18048 -0.57958,-0.26796 -0.17158,-0.0769 -0.34414,-0.15167 -0.51432,-0.23153 -0.14566,-0.0697 -0.29426,-0.13309 -0.43901,-0.20472 -0.1253,-0.0617 -0.25269,-0.119 -0.37746,-0.18178 -0.0961,-0.0458 -0.19205,-0.092 -0.28955,-0.13473 -0.0578,-0.0211 -0.11594,-0.0382 -0.17792,-0.0414 z" />
  <path
     style="fill:#000000;fill-opacity:1;stroke:#000000;stroke-width:0;stroke-linecap:round;stroke-linejoin:round;stroke-dasharray:none;paint-order:normal"
     id="path23"
     d="m 167.43815,129.40813 c 0.0526,0.0255 0.10973,0.0407 0.1652,0.0588 0.0801,0.0256 0.15859,0.056 0.2378,0.0844 0.0987,0.0354 0.19767,0.0703 0.29625,0.10617 0.13033,0.0464 0.25986,0.095 0.39069,0.14005 0.15223,0.0527 0.30577,0.10167 0.45814,0.154 0.16114,0.0523 0.31956,0.11243 0.4805,0.16525 0.17384,0.0549 0.34873,0.10641 0.5234,0.15856 0.18735,0.0555 0.3734,0.11522 0.55905,0.17616 0.20207,0.0663 0.40347,0.13448 0.60452,0.20375 0.21426,0.0762 0.42877,0.15187 0.64187,0.23132 0.22209,0.0815 0.44246,0.16746 0.66254,0.25422 0.23761,0.0916 0.4727,0.18976 0.70771,0.28786 0.24896,0.10743 0.49951,0.21104 0.74928,0.3165 0.25935,0.11203 0.52151,0.2173 0.78262,0.3251 0.26721,0.10777 0.53411,0.21627 0.80072,0.32545 0.26904,0.11087 0.54079,0.2151 0.81309,0.31768 0.2705,0.0997 0.53992,0.20213 0.81038,0.30189 0.26354,0.0979 0.52855,0.19197 0.79418,0.28406 0.25868,0.0896 0.51924,0.17345 0.78099,0.25356 0.26146,0.0809 0.5256,0.153 0.78982,0.2243 0.2614,0.0699 0.52418,0.13444 0.78708,0.19847 0.26054,0.0635 0.52284,0.11914 0.78505,0.17506 0.26032,0.0545 0.5214,0.10531 0.78289,0.15392 0.25378,0.0475 0.50799,0.0925 0.76248,0.13592 0.25024,0.0433 0.50138,0.0812 0.75246,0.11913 0.25427,0.0375 0.50912,0.0707 0.76413,0.10264 0.25861,0.0324 0.5178,0.0599 0.77696,0.0876 0.25475,0.027 0.50972,0.0517 0.76478,0.0755 0.25767,0.0298 0.51628,0.0357 0.77532,0.0324 0.83163,-0.0228 1.66253,-0.0768 2.4917,-0.14373 0.13021,-0.012 0.26019,-0.026 0.39019,-0.0399 0,0 -1.70116,0.10429 -1.70116,0.10429 v 0 c -0.13134,0.0141 -0.26265,0.0282 -0.39418,0.0402 -0.64372,0.0519 -0.28204,0.0223 1.44273,-0.0844 0.0436,-0.003 -0.0874,0.004 -0.13113,0.006 -0.13032,0.006 -0.26069,0.011 -0.3911,0.013 -0.25723,0.003 -0.51399,-0.003 -0.76984,-0.0328 -0.25703,-0.0237 -0.51401,-0.0482 -0.77074,-0.0751 -0.25821,-0.0269 -0.51625,-0.0554 -0.77385,-0.0878 -0.25343,-0.0319 -0.50668,-0.0652 -0.75932,-0.10294 -0.25229,-0.0373 -0.50433,-0.0763 -0.7558,-0.11892 -0.25781,-0.0436 -0.51547,-0.0879 -0.77259,-0.1353 -0.26227,-0.0488 -0.52433,-0.0989 -0.78541,-0.15377 -0.26279,-0.0549 -0.52506,-0.11234 -0.78613,-0.175 -0.26484,-0.063 -0.52921,-0.12802 -0.79227,-0.19816 -0.26458,-0.0709 -0.52875,-0.14345 -0.79054,-0.22424 -0.26296,-0.0808 -0.52493,-0.16472 -0.78539,-0.2533 -0.26969,-0.0921 -0.53925,-0.18453 -0.80659,-0.2833 -0.2706,-0.10013 -0.54001,-0.20341 -0.81126,-0.30183 -0.27205,-0.10154 -0.54331,-0.20518 -0.81101,-0.3178 -0.26643,-0.10703 -0.53094,-0.21863 -0.79735,-0.32567 -0.2584,-0.10708 -0.51635,-0.21515 -0.7733,-0.32566 -0.2437,-0.10571 -0.487,-0.21226 -0.73082,-0.31764 -0.22681,-0.0971 -0.45242,-0.1973 -0.68133,-0.28947 -0.21872,-0.0865 -0.43815,-0.17094 -0.65798,-0.2545 -0.20706,-0.0805 -0.41583,-0.15626 -0.62453,-0.23239 -0.19507,-0.0697 -0.39065,-0.1379 -0.58665,-0.20484 -0.17932,-0.0618 -0.35904,-0.12244 -0.54063,-0.17729 -0.17036,-0.0517 -0.3409,-0.10301 -0.50978,-0.1594 -0.15743,-0.055 -0.31433,-0.11159 -0.47206,-0.16576 -0.14595,-0.0511 -0.29229,-0.10092 -0.43703,-0.1553 -0.11883,-0.0463 -0.23812,-0.0915 -0.35517,-0.14222 -0.0891,-0.0371 -0.17839,-0.074 -0.26884,-0.10791 -0.0722,-0.029 -0.14427,-0.0584 -0.21721,-0.0857 -0.0481,-0.02 -0.0949,-0.0435 -0.14431,-0.0601 z" />
  <path
     style="fill:#000000;fill-opacity:1;stroke:#000000;stroke-width:0;stroke-linecap:round;stroke-linejoin:round;stroke-dasharray:none;paint-order:normal"
     id="path24"
     d="m 193.49112,121.09408 c 0.046,0.0354 0.0968,0.0637 0.14592,0.0943 0.0664,0.0435 0.13273,0.0871 0.1992,0.13049 0.0894,0.0575 0.18004,0.11309 0.27003,0.16969 0.10417,0.0666 0.20724,0.13473 0.31185,0.20056 0.12234,0.0786 0.23788,0.16681 0.35235,0.25624 0.13424,0.10887 0.25939,0.22834 0.3849,0.34701 0.13243,0.1302 0.26458,0.26067 0.39558,0.39231 0.13658,0.13474 0.26845,0.27408 0.40034,0.41336 0.13611,0.1415 0.27043,0.28474 0.40226,0.43023 0.1369,0.15171 0.27554,0.30185 0.41311,0.45296 0.14272,0.15815 0.28155,0.31978 0.42018,0.4815 0.14429,0.16739 0.28371,0.33882 0.42352,0.50993 0.14756,0.18197 0.2925,0.36606 0.43626,0.55102 0.14584,0.1902 0.2893,0.38223 0.43095,0.57555 0.14844,0.20024 0.29193,0.40411 0.43443,0.6086 0.14487,0.20688 0.28825,0.41465 0.42702,0.62566 0.13505,0.20803 0.27214,0.41468 0.40532,0.62391 0.11193,0.18058 0.21812,0.36464 0.32047,0.5508 0,0 0.85453,-0.0524 0.85453,-0.0524 v 0 c -0.0999,-0.18666 -0.20338,-0.37112 -0.31493,-0.55113 -0.12957,-0.21189 -0.27112,-0.41599 -0.40705,-0.6238 -0.13888,-0.21089 -0.2813,-0.4193 -0.4268,-0.62568 -0.14237,-0.20307 -0.28133,-0.40858 -0.42741,-0.60903 -0.1415,-0.19361 -0.28505,-0.38578 -0.43173,-0.5755 -0.14158,-0.18448 -0.28004,-0.37144 -0.42721,-0.55158 -0.13868,-0.17065 -0.27417,-0.34401 -0.41816,-0.51025 -0.13769,-0.16159 -0.27469,-0.32383 -0.41662,-0.48172 -0.13662,-0.15029 -0.27007,-0.30338 -0.40703,-0.45334 -0.13085,-0.1455 -0.26442,-0.28856 -0.39921,-0.43041 -0.13039,-0.14029 -0.26418,-0.27725 -0.39881,-0.41346 -0.12735,-0.13307 -0.26048,-0.26043 -0.38863,-0.39273 -0.12116,-0.11903 -0.24622,-0.23404 -0.37231,-0.34779 -0.10914,-0.0898 -0.22016,-0.17776 -0.33715,-0.25719 -0.10266,-0.0664 -0.20414,-0.13444 -0.30671,-0.20088 -0.085,-0.0564 -0.16856,-0.11502 -0.25408,-0.17068 -0.0621,-0.0435 -0.12266,-0.089 -0.18553,-0.13133 -0.0478,-0.0311 -0.0941,-0.0643 -0.14239,-0.0945 z" />
  <path
     style="fill:#000000;fill-opacity:1;stroke:#000000;stroke-width:0;stroke-linecap:round;stroke-linejoin:round;stroke-dasharray:none;paint-order:normal"
     id="path25"
     d="m 138.91492,106.37949 c -0.0734,-0.004 -0.14552,-0.0196 -0.21795,-0.0312 -0.0966,-0.0165 -0.1938,-0.0289 -0.29117,-0.0399 -0.11896,-0.0112 -0.23779,-0.0237 -0.35662,-0.0362 -0.13483,-0.0138 -0.26977,-0.0261 -0.40481,-0.0375 -0.13898,-0.0116 -0.27807,-0.0218 -0.41743,-0.0278 -0.43734,0.008 -0.88468,-0.002 -1.31103,0.10252 -0.11982,0.0293 -0.23346,0.0774 -0.34465,0.12994 -0.10951,0.0557 -0.21276,0.12193 -0.30966,0.19731 -0.0825,0.0661 -0.14884,0.14789 -0.21119,0.23244 -0.0531,0.074 -0.0928,0.15619 -0.12907,0.23945 -0.0257,0.0897 -0.0122,0.18328 0.002,0.27373 0.0164,0.10472 0.0443,0.20582 0.0773,0.30625 0.0363,0.12119 0.0941,0.23409 0.15307,0.34548 0.0685,0.12718 0.14311,0.25081 0.22308,0.37106 0.0874,0.12941 0.17351,0.25963 0.26168,0.38847 0.0968,0.14089 0.19735,0.27911 0.30093,0.41514 0.11148,0.15305 0.23981,0.29187 0.36612,0.43248 0.14282,0.15516 0.28439,0.3115 0.42946,0.46456 0.14752,0.16203 0.29992,0.31937 0.45278,0.47631 0.16042,0.16314 0.31781,0.32923 0.47554,0.49496 0.18006,0.18237 0.36294,0.36226 0.55073,0.53671 0.2069,0.18973 0.41725,0.37567 0.62756,0.5616 0.22875,0.19874 0.46659,0.3867 0.70067,0.57908 0.17237,0.14175 0.0864,0.0704 0.25724,0.21477 0,0 0.81294,-0.0498 0.81294,-0.0498 v 0 c -0.16811,-0.14349 -0.0841,-0.0724 -0.25076,-0.21476 -0.22649,-0.19328 -0.45271,-0.38687 -0.67893,-0.58045 -0.20874,-0.1843 -0.41668,-0.36962 -0.61785,-0.56223 -0.18353,-0.17327 -0.35982,-0.35357 -0.53219,-0.53792 -0.1563,-0.16511 -0.31047,-0.33223 -0.46883,-0.49541 -0.15205,-0.15693 -0.30366,-0.31429 -0.45012,-0.47651 -0.14142,-0.15418 -0.28285,-0.30838 -0.42156,-0.46503 -0.12123,-0.14137 -0.24092,-0.28421 -0.3526,-0.43332 -0.0995,-0.13667 -0.19894,-0.27363 -0.29057,-0.41578 -0.0859,-0.1293 -0.17268,-0.25808 -0.25648,-0.38878 -0.0772,-0.12054 -0.15023,-0.24402 -0.21533,-0.37153 -0.0553,-0.11182 -0.1073,-0.22553 -0.14029,-0.34626 -0.0304,-0.10041 -0.0534,-0.20296 -0.0689,-0.30677 -0.0116,-0.0914 -0.0221,-0.18405 0.005,-0.27414 0.0332,-0.0837 0.0726,-0.16498 0.12403,-0.23918 0.0575,-0.0846 0.12018,-0.16596 0.19933,-0.23175 0.0949,-0.0769 0.19694,-0.14373 0.30707,-0.19714 0.11028,-0.0523 0.22289,-0.10043 0.34176,-0.12977 0.0622,-0.0155 0.0592,-0.016 0.12274,-0.0264 0.0209,-0.003 0.0842,-0.0101 0.063,-0.009 -1.52852,0.0768 -1.05157,0.0476 -0.72661,0.0466 0.13945,0.006 0.27857,0.0157 0.4176,0.0278 0.13295,0.0113 0.26583,0.0232 0.39846,0.0379 0.11502,0.013 0.23008,0.0253 0.34522,0.037 0.094,0.0113 0.18776,0.0241 0.28098,0.0405 0.0634,0.0113 0.12634,0.0269 0.19038,0.0329 z" />
  <path
     style="fill:#ffeeaa;stroke:#000000;stroke-width:1px;stroke-linecap:butt;stroke-linejoin:miter;stroke-opacity:1"
     d="m 81.354291,210.07793 c -87.6810448,59.69808 -82.4536528,-74.23433 -34.65988,-48.98538 2.43268,-0.84417 3.12757,-0.58418 3.97292,-1.09584 -39.257966,-31.52479 -57.2718358,125.51512 33.24291,50.91126 -3.64598,-1.98387 3.09977,0.26539 -2.55595,-0.83004 z"
     id="path5"
     sodipodi:nodetypes="ccccc" />
  <path
     style="fill:#ffeeaa;stroke:#000000;stroke-width:1px;stroke-linecap:butt;stroke-linejoin:miter;stroke-opacity:1"
     d="m 48.912521,171.6842 c -5.77575,1.73768 -5.55673,10.6228 -13.310243,21.8751 1.752123,4.26737 8.123313,4.5252 13.425983,5.09261 0.77403,-5.38558 0.89746,-7.75585 1.85186,-10.41671 -0.0975,3.4718 0.57267,5.01045 0.69445,10.06948 8.46913,-0.29242 14.18025,-1.8774 18.71859,-6.17399 -1.51458,-1.10455 -2.61693,-5.03487 -5.06112,-7.48347 9.72326,8.81849 6.62105,6.68807 9.02782,2.89353 0.4448,-0.37221 -6.28671,-5.49195 -9.6661,-7.9314 -3.02089,-2.18066 -4.09754,-7.33292 -11.05159,-8.96682 -1.5617,-0.25131 -3.34478,0.11906 -4.62965,1.04167 z"
     id="path7"
     sodipodi:nodetypes="ccccccccscc" />
  <circle
     style="fill:#ffeeaa;stroke:#000000;stroke-width:2.1;stroke-linecap:round;stroke-linejoin:round;stroke-dasharray:none;paint-order:markers stroke fill"
     id="path6"
     cx="50.440281"
     cy="166.15173"
     r="5" />
  <ellipse
     style="fill:#ffeeaa;stroke:#000000;stroke-width:2.1;stroke-linecap:round;stroke-linejoin:round;stroke-dasharray:none;paint-order:markers stroke fill"
     id="path8"
     cx="84.56337"
     cy="209.8017"
     rx="4.9500003"
     ry="4.9499998" />
</svg>
