<?xml version="1.0" encoding="UTF-8" standalone="no"?>
<svg
   cursor="default"
   version="1.1"
   viewBox="0 0 256 256"
   id="svg34"
   sodipodi:docname="round_fan_sheathed.svg"
   inkscape:version="1.4.1-rc (d9e8dc1fe0, 2025-03-10)"
   width="100%"
   height="100%"
   xmlns:inkscape="http://www.inkscape.org/namespaces/inkscape"
   xmlns:sodipodi="http://sodipodi.sourceforge.net/DTD/sodipodi-0.dtd"
   xmlns:xlink="http://www.w3.org/1999/xlink"
   xmlns="http://www.w3.org/2000/svg"
   xmlns:svg="http://www.w3.org/2000/svg">
  <sodipodi:namedview
     id="namedview34"
     pagecolor="#ffffff"
     bordercolor="#666666"
     borderopacity="1.0"
     inkscape:showpageshadow="2"
     inkscape:pageopacity="0.0"
     inkscape:pagecheckerboard="0"
     inkscape:deskcolor="#d1d1d1"
     inkscape:zoom="2.1599902"
     inkscape:cx="115.04682"
     inkscape:cy="209.72317"
     inkscape:window-width="1854"
     inkscape:window-height="1010"
     inkscape:window-x="0"
     inkscape:window-y="0"
     inkscape:window-maximized="1"
     inkscape:current-layer="svg34"
     showgrid="false" />
  <defs
     id="defs18">
    <inkscape:path-effect
       effect="copy_rotate"
       starting_point="164.84178,95.510577"
       origin="156.28781,95.510577"
       id="path-effect9"
       is_visible="true"
       lpeversion="1.2"
       lpesatellites=""
       method="normal"
       num_copies="6"
       starting_angle="0"
       rotation_angle="60"
       gap="0"
       copies_to_360="true"
       mirror_copies="false"
       split_items="false"
       link_styles="false" />
    <inkscape:path-effect
       effect="curvestitching"
       id="path-effect2"
       is_visible="true"
       lpeversion="1"
       count="5"
       startpoint_edge_variation="0;1"
       startpoint_spacing_variation="0;1"
       endpoint_edge_variation="0;1"
       endpoint_spacing_variation="0;1"
       strokepath="M 0,0 H 1"
       prop_scale="1"
       scale_y_rel="false" />
    <inkscape:path-effect
       effect="rough_hatches"
       id="path-effect27"
       is_visible="true"
       lpeversion="1.2"
       direction="130.23338,84.722658 , 44.619617,0"
       dist_rdm="0;1"
       growth="0"
       do_bend="true"
       bender="130.23338,89.722658 , 5,0"
       bottom_edge_variation="0;1"
       top_edge_variation="0;1"
       bottom_tgt_variation="0;1"
       top_tgt_variation="0;1"
       scale_bf="1"
       scale_bb="1"
       scale_tf="1"
       scale_tb="1"
       top_smth_variation="0;1"
       bottom_smth_variation="0;1"
       fat_output="true"
       stroke_width_top="1"
       stroke_width_bottom="1"
       front_thickness="1"
       back_thickness="0.25" />
    <inkscape:path-effect
       effect="rough_hatches"
       id="path-effect25"
       is_visible="true"
       lpeversion="1.2"
       direction="130.33594,169.64062 , 44.499022,0"
       dist_rdm="0;1"
       growth="0"
       do_bend="true"
       bender="130.33594,174.64062 , 5,0"
       bottom_edge_variation="0;1"
       top_edge_variation="0;1"
       bottom_tgt_variation="0;1"
       top_tgt_variation="0;1"
       scale_bf="0"
       scale_bb="0"
       scale_tf="0.3"
       scale_tb="1.2"
       top_smth_variation="0;1"
       bottom_smth_variation="0;1"
       fat_output="true"
       stroke_width_top="1"
       stroke_width_bottom="1"
       front_thickness="1"
       back_thickness="0.25" />
    <inkscape:path-effect
       effect="rough_hatches"
       id="path-effect22"
       is_visible="true"
       lpeversion="1.2"
       direction="130.23338,125.46803 , 44.619244,0"
       dist_rdm="0;1"
       growth="0"
       do_bend="true"
       bender="130.23338,130.46803 , 5,0"
       bottom_edge_variation="0;1"
       top_edge_variation="0;1"
       bottom_tgt_variation="0;1"
       top_tgt_variation="0;1"
       scale_bf="0"
       scale_bb="0"
       scale_tf="0"
       scale_tb="0"
       top_smth_variation="0;1"
       bottom_smth_variation="0;1"
       fat_output="true"
       stroke_width_top="0"
       stroke_width_bottom="0"
       front_thickness="0"
       back_thickness="0" />
    <linearGradient
       id="linearGradient924"
       x1="18.120001"
       x2="21.466"
       y1="241.28999"
       y2="228.73"
       gradientTransform="matrix(0.0086692,0.99996,0.99996,-0.0086692,-0.22047,0.26984)"
       gradientUnits="userSpaceOnUse">
      <stop
         stop-color="#917c6f"
         offset="0"
         id="stop1" />
      <stop
         stop-color="#ac9d93"
         offset="1"
         id="stop2" />
    </linearGradient>
    <linearGradient
       id="innoGrad4">
      <stop
         stop-color="#ffb380"
         offset="0"
         id="stop3" />
      <stop
         stop-color="#fca"
         offset="1"
         id="stop4" />
    </linearGradient>
    <linearGradient
       id="innoGrad5"
       x1="149.74001"
       x2="147.34"
       y1="110.12"
       y2="107.69"
       gradientTransform="matrix(0.0086692,0.99996,0.99996,-0.0086692,-0.22047,0.26984)"
       gradientUnits="userSpaceOnUse">
      <stop
         stop-color="#916f6f"
         offset="0"
         id="stop5" />
      <stop
         stop-color="#ac9393"
         offset="1"
         id="stop6" />
    </linearGradient>
    <linearGradient
       id="linearGradient1284"
       x1="30"
       x2="30.714001"
       y1="226.17999"
       y2="225.42"
       gradientTransform="matrix(0.0086692,0.99996,0.99996,-0.0086692,-0.22047,0.26984)"
       gradientUnits="userSpaceOnUse"
       xlink:href="#innoGrad4" />
    <linearGradient
       id="linearGradient1292"
       x1="37.633999"
       x2="38.214001"
       y1="219.17"
       y2="218.59"
       gradientTransform="matrix(0.0086692,0.99996,0.99996,-0.0086692,-0.22047,0.26984)"
       gradientUnits="userSpaceOnUse"
       xlink:href="#innoGrad4" />
    <linearGradient
       id="linearGradient1306"
       x1="40.044998"
       x2="40.938"
       y1="216.75999"
       y2="215.78"
       gradientTransform="matrix(0.0086692,0.99996,0.99996,-0.0086692,-0.22047,0.26984)"
       gradientUnits="userSpaceOnUse"
       xlink:href="#innoGrad4" />
    <linearGradient
       id="linearGradient1314"
       x1="42.455002"
       x2="43.348"
       y1="214.21001"
       y2="213.32001"
       gradientTransform="matrix(0.0086692,0.99996,0.99996,-0.0086692,-0.22047,0.26984)"
       gradientUnits="userSpaceOnUse"
       xlink:href="#innoGrad4" />
    <linearGradient
       id="linearGradient1322"
       x1="50.580002"
       x2="51.070999"
       y1="206.49001"
       y2="206.03999"
       gradientTransform="matrix(0.0086692,0.99996,0.99996,-0.0086692,-0.22047,0.26984)"
       gradientUnits="userSpaceOnUse"
       xlink:href="#innoGrad4" />
    <linearGradient
       id="innoGrad3"
       x1="27.009001"
       x2="54.820999"
       y1="229.57001"
       y2="202.83"
       gradientTransform="matrix(0.0086692,0.99996,0.99996,-0.0086692,-0.22047,0.26984)"
       gradientUnits="userSpaceOnUse">
      <stop
         stop-color="#f95"
         offset="0"
         id="stop7" />
      <stop
         stop-color="#ff7f2a"
         offset=".088"
         id="stop8" />
      <stop
         stop-color="#f95"
         offset=".265"
         id="stop9" />
      <stop
         stop-color="#ff7f2a"
         offset=".446"
         id="stop10" />
      <stop
         stop-color="#ff7f2a"
         offset=".601"
         id="stop11" />
      <stop
         stop-color="#f95"
         offset=".733"
         id="stop12" />
      <stop
         stop-color="#ff7f2a"
         offset=".863"
         id="stop13" />
      <stop
         stop-color="#f95"
         offset="1"
         id="stop14" />
    </linearGradient>
    <linearGradient
       id="linearGradient903"
       x1="200.10001"
       x2="191.22"
       y1="65.966003"
       y2="57.050999"
       gradientUnits="userSpaceOnUse">
      <stop
         stop-color="#916f6f"
         offset="0"
         id="stop15" />
      <stop
         stop-color="#ac9393"
         offset="1"
         id="stop16" />
    </linearGradient>
    <linearGradient
       id="linearGradient943"
       x1="185.92999"
       x2="178.95"
       y1="77.051003"
       y2="70.746002"
       gradientUnits="userSpaceOnUse"
       xlink:href="#linearGradient924" />
    <linearGradient
       id="linearGradient951"
       x1="181.92999"
       x2="175.36"
       y1="82.508003"
       y2="76.271004"
       gradientUnits="userSpaceOnUse"
       xlink:href="#linearGradient924" />
    <linearGradient
       id="linearGradient938"
       x1="18.120001"
       x2="21.466"
       y1="241.28999"
       y2="228.73"
       gradientTransform="matrix(0.0086692,0.99996,0.99996,-0.0086692,-0.22047,0.26984)"
       gradientUnits="userSpaceOnUse">
      <stop
         stop-color="#fd5"
         offset="0"
         id="stop17" />
      <stop
         stop-color="#fea"
         offset="1"
         id="stop18" />
    </linearGradient>
  </defs>
  <circle
     style="fill:#ffffff;stroke:#000000;stroke-width:3.5;stroke-linecap:round;stroke-linejoin:round;paint-order:markers stroke fill"
     id="path1"
     cx="127.91682"
     cy="74.014793"
     r="48.25"
     transform="rotate(-1.3532197)" />
  <rect
     style="display:inline;fill:#ffccaa;stroke:#000000;stroke-width:3.5;stroke-linecap:round;stroke-linejoin:round;paint-order:markers stroke fill"
     id="rect1"
     width="7.2020459"
     height="92.97187"
     x="124.3158"
     y="123.64713"
     transform="rotate(-1.3532197)" />
  <path
     style="fill:#449228;fill-opacity:1;stroke:#000000;stroke-width:1px;stroke-linecap:butt;stroke-linejoin:miter;stroke-opacity:1"
     d="m 146.86339,87.460015 c -93.133527,45.613165 74.92529,0.296301 6.41491,-2.639597 -1.24304,-0.05328 -5.29754,2.092355 -6.41491,2.639597 z"
     id="path19"
     sodipodi:nodetypes="sss" />
  <path
     style="fill:#ffccaa;stroke:#000000;stroke-width:3;stroke-linecap:round;stroke-linejoin:round;stroke-dasharray:none;paint-order:markers stroke fill"
     d="M 121.72882,122.90991 C 105.1838,120.39902 90.452514,109.76676 82.881863,94.872271 72.41845,74.286566 76.522601,49.29639 92.977144,33.402119 105.5024,21.303331 122.68492,16.143545 139.61922,19.395826 c 24.97283,4.7961 43.00944,27.097287 42.46328,52.503286 -0.16905,7.863514 -1.65731,14.268288 -4.97318,21.402194 -2.43251,5.23341 -5.35209,9.490584 -9.46789,13.805544 -7.61597,7.9845 -17.32312,13.3266 -28.00955,15.41441 -5.02328,0.98139 -12.87426,1.15183 -17.90305,0.3887 z m 18.73435,-4.99166 c 14.27404,-3.37507 26.52717,-13.26097 32.76603,-26.435821 3.59074,-7.582678 5.29895,-17.867572 4.28046,-25.772018 -1.55247,-12.048745 -6.14968,-21.284642 -14.6335,-29.398993 -7.16362,-6.851642 -14.75316,-10.81088 -24.37889,-12.717713 -2.99227,-0.592765 -4.33019,-0.663317 -9.99989,-0.527331 -5.15349,0.123639 -7.13396,0.300202 -9.3129,0.830401 -9.30908,2.265171 -17.08625,6.564022 -23.500586,12.989992 -7.550628,7.564328 -12.10354,16.569797 -13.765346,27.227302 -0.635597,4.076174 -0.43727,11.796206 0.411941,16.035666 4.18231,20.879015 21.035181,36.292555 42.401061,38.779775 3.44099,0.40056 12.12026,-0.15737 15.73162,-1.01126 z"
     id="path4" />
  <path
     style="fill:#ffeeaa;stroke:#000000;stroke-width:1px;stroke-linecap:butt;stroke-linejoin:miter;stroke-opacity:1"
     d="M 131.00157,223.14295 C 89.429018,301.95 16.35235,174.79718 68.843256,161.89529 c 4.497243,-0.85874 2.239998,-3.4594 2.239998,-3.4594 -50.284701,2.53952 21.652718,154.99272 62.379676,63.62839 -4.04268,0.94109 2.49238,-1.862 -2.46136,1.07867 z"
     id="path5"
     sodipodi:nodetypes="ccccc" />
  <path
     style="fill:#ffeeaa;stroke:#000000;stroke-width:1px;stroke-linecap:butt;stroke-linejoin:miter;stroke-opacity:1"
     d="m 78.003315,165.55672 c -3.160371,5.13721 2.908848,11.63013 4.594777,25.19069 4.145437,2.02379 9.077017,-2.01824 13.416027,-5.11878 -3.00126,-4.53828 -4.48446,-6.39126 -5.53994,-9.01366 2.23473,2.65872 3.75811,3.36291 7.211616,7.06181 6.133315,-5.84757 9.346895,-10.82773 9.881935,-17.05436 -1.86577,0.18142 -5.3017,-2.02242 -8.755355,-2.22733 13.125985,0.12605 9.392185,0.59622 8.668315,-3.83853 0.0849,-0.57374 -8.347365,0.0752 -12.493661,0.49874 -3.70644,0.37858 -7.93536,-2.7553 -14.21704,0.646 -1.333859,0.85024 -2.419913,2.3121 -2.766674,3.85542 z"
     id="path7"
     sodipodi:nodetypes="ccccccccscc" />
  <circle
     style="fill:#ffeeaa;stroke:#000000;stroke-width:2.1;stroke-linecap:round;stroke-linejoin:round;stroke-dasharray:none;paint-order:markers stroke fill"
     id="path6"
     cx="-51.500134"
     cy="170.73833"
     r="5"
     transform="rotate(-41.656174)" />
  <path
     style="fill:#000000;fill-opacity:1;stroke:#000000;stroke-width:0;stroke-linecap:round;stroke-linejoin:round;stroke-dasharray:none;paint-order:normal"
     id="path21"
     d="m 119.15474,43.79312 c -0.025,0.14167 -0.0781,0.276767 -0.12506,0.412255 -0.0757,0.199763 -0.16465,0.39406 -0.23969,0.594031 -0.0987,0.243386 -0.19048,0.489266 -0.27998,0.736129 -0.10015,0.271361 -0.18593,0.547711 -0.27559,0.822652 -0.0873,0.278334 -0.16997,0.558081 -0.25082,0.838338 -0.0786,0.274865 -0.15037,0.5515 -0.21772,0.829318 -0.0675,0.275482 -0.12218,0.553865 -0.17685,0.832105 -0.051,0.284093 -0.082,0.570314 -0.10347,0.85789 -0.0276,0.298614 -0.0434,0.597998 -0.0525,0.897695 -0.007,0.293255 -0.005,0.586565 0.004,0.879727 0.008,0.284172 0.0297,0.567562 0.0524,0.850854 0.0236,0.274327 0.055,0.547851 0.0927,0.820584 0.0404,0.283914 0.10051,0.56421 0.17222,0.8417 0.076,0.295185 0.16393,0.587026 0.2584,0.876779 0.10412,0.30038 0.2114,0.599662 0.32556,0.896381 0.11385,0.294917 0.23153,0.588302 0.35527,0.879207 0.12536,0.295164 0.25822,0.586998 0.3943,0.877345 0.13743,0.297411 0.28643,0.5893 0.43473,0.88139 0.15267,0.295297 0.30775,0.589354 0.46754,0.880851 0.16607,0.303273 0.34081,0.601678 0.51501,0.900314 0.17579,0.302932 0.35853,0.601714 0.54199,0.900027 0.19444,0.316061 0.39667,0.627177 0.60003,0.937529 0.20723,0.316155 0.41723,0.630476 0.6282,0.944138 0.21407,0.317212 0.43087,0.632543 0.65018,0.94614 0.22802,0.323416 0.4538,0.648384 0.66922,0.980346 0.22827,0.35605 0.43252,0.726727 0.62074,1.105265 0.12434,0.27111 0.0633,0.134462 0.1832,0.409916 0,0 0.9989,1.122874 0.9989,1.122874 v 0 c -0.1142,-0.269053 -0.0559,-0.13552 -0.17488,-0.400574 -0.17419,-0.370467 -0.37634,-0.72741 -0.59335,-1.074469 -0.21288,-0.328973 -0.4361,-0.65097 -0.66139,-0.971547 -0.2161,-0.311071 -0.43062,-0.623236 -0.64233,-0.93732 -0.21144,-0.313953 -0.42203,-0.628471 -0.6292,-0.945257 -0.19745,-0.303201 -0.39225,-0.608125 -0.5814,-0.916587 -0.18202,-0.296389 -0.36179,-0.594141 -0.53712,-0.894545 -0.17211,-0.294422 -0.34319,-0.589453 -0.50537,-0.889493 -0.15735,-0.290921 -0.31424,-0.582139 -0.46413,-0.877008 -0.14768,-0.289984 -0.2934,-0.58095 -0.43018,-0.87628 -0.13452,-0.288879 -0.2658,-0.579267 -0.39015,-0.872678 -0.12232,-0.291774 -0.24221,-0.584591 -0.35586,-0.879872 -0.11131,-0.29416 -0.22168,-0.588885 -0.31833,-0.888251 -0.0905,-0.286323 -0.1769,-0.574069 -0.2486,-0.865765 -0.0634,-0.272552 -0.11874,-0.546977 -0.15678,-0.824347 -0.0384,-0.274902 -0.0726,-0.550426 -0.0982,-0.826844 -0.0265,-0.285732 -0.0478,-0.571961 -0.0595,-0.85873 -0.0106,-0.29543 -0.0166,-0.591132 -0.0103,-0.886746 0.008,-0.298311 0.0234,-0.596398 0.0566,-0.893107 0.0268,-0.284067 0.062,-0.56781 0.11151,-0.848856 0.0533,-0.278897 0.10925,-0.55736 0.17562,-0.833484 0.0692,-0.278384 0.13425,-0.5579 0.21395,-0.833548 0.0787,-0.281511 0.15954,-0.562507 0.24851,-0.840939 0.0873,-0.271994 0.18227,-0.54149 0.29043,-0.805978 0.0933,-0.238849 0.19513,-0.474588 0.30759,-0.705089 0.0967,-0.180657 0.18903,-0.363597 0.28242,-0.54599 0.0625,-0.109513 0.12351,-0.222964 0.21349,-0.312854 z" />
  <ellipse
     style="fill:#ffeeaa;stroke:#000000;stroke-width:2.1;stroke-linecap:round;stroke-linejoin:round;stroke-dasharray:none;paint-order:markers stroke fill"
     id="path8"
     cx="-47.227497"
     cy="253.5157"
     rx="4.9500003"
     ry="4.9499998"
     transform="rotate(-41.656174)" />
  <path
     style="fill:#ffaaaa;stroke:#000000;stroke-width:1px;stroke-linecap:butt;stroke-linejoin:miter;stroke-opacity:1"
     d="m 121.35876,77.506339 c -7.90627,7.440748 -21.425906,-8.843106 -17.19012,-21.293631 13.72643,-3.009364 25.0964,13.852883 17.19012,21.293631 z m -6.27119,-3.543395 c 2.49074,10.567413 -18.371296,14.133828 -27.035881,4.240268 4.257035,-13.392119 24.545151,-14.80768 27.035881,-4.240268 z m -6.20426,3.65931 c 10.39701,3.126664 3.0546,22.976926 -9.845766,25.533896 -9.4694,-10.382752 -0.55124,-28.66056 9.845766,-25.533896 z m 0.0669,7.202705 c 7.90628,-7.440748 21.42591,8.843101 17.19012,21.293631 -13.72643,3.00936 -25.09639,-13.852883 -17.19012,-21.293631 z m 6.27119,3.543393 c -2.49073,-10.567411 18.37131,-14.133829 27.03589,-4.240272 -4.25703,13.392123 -24.54515,14.807685 -27.03589,4.240272 z m 6.20427,-3.659309 c -10.39702,-3.126663 -3.0546,-22.976933 9.84576,-25.533899 9.4694,10.382754 0.55125,28.660558 -9.84576,25.533899 z"
     id="path9"
     sodipodi:nodetypes="zcz" />
  <path
     style="fill:#ffaaaa;stroke:#000000;stroke-width:0.6;stroke-linecap:butt;stroke-linejoin:miter;stroke-dasharray:none;stroke-opacity:1"
     d="m 154.78099,66.079848 c -0.28859,6.511855 -12.91931,5.162208 -16.30625,-1.969491 4.64708,-7.040744 16.59486,-4.542355 16.30625,1.969491 z m -4.181,1.099867 c 5.49331,3.505681 -1.99101,13.772932 -9.85888,13.141491 -3.77178,-7.545872 4.36555,-16.647165 9.85888,-13.141491 z m -1.13847,4.171913 c 5.78192,-3.006187 10.92831,8.610732 6.44738,15.11098 -8.41886,-0.505121 -12.2293,-12.104807 -6.44738,-15.11098 z m 3.04254,3.072031 c 0.28859,-6.511861 12.91933,-5.162199 16.30626,1.969511 -4.64707,7.04073 -16.59485,4.542351 -16.30626,-1.969511 z m 4.18101,-1.099859 c -5.49332,-3.505674 1.99102,-13.772939 9.85888,-13.14149 3.77178,7.545864 -4.36556,16.647171 -9.85888,13.14149 z m 1.13847,-4.171905 c -5.78192,3.00618 -10.92831,-8.610739 -6.44738,-15.110997 8.41886,0.505124 12.22929,12.104816 6.44738,15.110997 z"
     id="path18"
     sodipodi:nodetypes="zcz" />
  <ellipse
     style="fill:#2f8e15;fill-opacity:1;stroke:#000000;stroke-width:1.6;stroke-linecap:round;stroke-linejoin:round;stroke-dasharray:none;paint-order:markers stroke fill"
     id="path20"
     cx="69.929909"
     cy="112.79076"
     rx="10.31202"
     ry="4.6649618"
     transform="rotate(-41.656174)" />
  <path
     style="fill:#000000;fill-opacity:1;stroke:#000000;stroke-width:0;stroke-linecap:round;stroke-linejoin:round;stroke-dasharray:none;paint-order:normal"
     id="path22"
     d="m 122.91848,112.93092 c 0.0594,-0.0366 0.12116,-0.068 0.18548,-0.095 0.11329,-0.0447 0.23137,-0.0752 0.34882,-0.10659 0.14326,-0.0358 0.28626,-0.0726 0.42954,-0.10833 0.16363,-0.0386 0.32561,-0.0836 0.4885,-0.12512 0.19002,-0.0534 0.38035,-0.10553 0.571,-0.15655 0.21286,-0.0577 0.42672,-0.1113 0.64071,-0.16452 0.2245,-0.0574 0.45027,-0.10975 0.6756,-0.16374 0.23384,-0.0555 0.46827,-0.10844 0.70231,-0.163 0.24211,-0.0592 0.48559,-0.11247 0.72861,-0.16771 0.25634,-0.0606 0.51201,-0.12388 0.76771,-0.18706 0.28848,-0.0704 0.57883,-0.13217 0.87073,-0.18647 0.30283,-0.0586 0.60526,-0.11914 0.9092,-0.17176 0.32551,-0.0581 0.65262,-0.10618 0.97964,-0.15484 0.33382,-0.0528 0.66783,-0.10414 1.00186,-0.15553 0.34145,-0.0489 0.68277,-0.0989 1.02451,-0.14566 0.35957,-0.053 0.72168,-0.0865 1.08401,-0.11355 0.34539,-0.0234 0.69107,-0.0417 1.03706,-0.0532 0.27625,-8.7e-4 0.55112,0.0255 0.82336,0.0707 0.2099,0.0353 0.41075,0.10337 0.60489,0.18885 0.16149,0.0667 0.31221,0.1538 0.45664,0.25143 0.11884,0.0809 0.20031,0.19418 0.27192,0.3162 0.0594,0.10729 0.0803,0.22402 0.0894,0.34459 0.01,0.12675 -0.007,0.25282 -0.0248,0.37797 -0.0202,0.13857 -0.0594,0.27317 -0.0972,0.40767 -0.0318,0.11581 -0.048,0.2366 -0.0366,0.3564 0.0139,0.089 0.0534,0.17078 0.0959,0.24922 0.0404,0.0794 0.10623,0.12544 0.18458,0.1622 0.0904,0.0367 0.18532,0.0571 0.28163,0.0703 0.1042,0.0168 0.20972,0.0165 0.31478,0.0113 0.12456,-0.008 0.24762,-0.0305 0.36989,-0.0546 0.13593,-0.0251 0.2714,-0.0524 0.40624,-0.0829 0.16125,-0.0403 0.32236,-0.081 0.48355,-0.12147 0.19603,-0.0471 0.39034,-0.10072 0.58496,-0.15328 0.21049,-0.0585 0.41972,-0.12126 0.6282,-0.18651 0.22865,-0.0698 0.45347,-0.15073 0.67847,-0.23135 0.24491,-0.10023 0.49443,-0.18825 0.74218,-0.28099 0.26396,-0.10178 0.52429,-0.2125 0.78773,-0.31558 0.29397,-0.1074 0.58903,-0.21178 0.88448,-0.31503 0.19632,-0.0685 0.39137,-0.1407 0.58718,-0.21069 0,0 1.2352,-1.09882 1.2352,-1.09882 v 0 c -0.19619,0.0711 -0.3919,0.14346 -0.58891,0.21222 -0.28745,0.10057 -0.5747,0.20166 -0.86401,0.29681 -0.2581,0.0956 -0.51071,0.20498 -0.76934,0.29924 -0.24132,0.0877 -0.4828,0.17487 -0.72346,0.26433 -0.21689,0.0774 -0.43596,0.14764 -0.657,0.21224 -0.2051,0.064 -0.4107,0.12664 -0.61925,0.17856 -0.18347,0.0489 -0.3685,0.0902 -0.55488,0.12652 -0.1541,0.0332 -0.30686,0.0727 -0.46178,0.1021 -0.1316,0.0228 -0.26284,0.0479 -0.39418,0.0722 -0.11642,0.0198 -0.23354,0.0346 -0.35169,0.0385 -0.10275,0.002 -0.20553,-0.002 -0.3072,-0.0181 -0.0935,-0.0157 -0.18678,-0.0369 -0.27277,-0.0782 -0.0731,-0.041 -0.13511,-0.0946 -0.17995,-0.16632 -0.0461,-0.0749 -0.0855,-0.15299 -0.108,-0.23845 -0.0218,-0.10816 -0.0199,-0.21686 0.002,-0.32534 0.0357,-0.13736 0.076,-0.27363 0.10323,-0.41302 0.0205,-0.12823 0.0403,-0.25762 0.036,-0.3879 -0.009,-0.12081 -0.0263,-0.23628 -0.0943,-0.34028 -0.0804,-0.11769 -0.18111,-0.21411 -0.30398,-0.28769 -0.1536,-0.091 -0.31419,-0.16845 -0.48268,-0.22826 -0.21204,-0.0739 -0.43106,-0.1242 -0.65518,-0.1441 -0.29657,-0.0259 -0.59454,-0.0332 -0.89169,-0.01 -0.35204,0.0224 -0.70416,0.044 -1.05596,0.0701 -0.3589,0.0298 -0.71709,0.0671 -1.07515,0.10566 -0.34088,0.0412 -0.68039,0.0921 -1.02013,0.14177 -0.33019,0.047 -0.6608,0.091 -0.98996,0.14495 -0.32313,0.0483 -0.64592,0.0988 -0.96926,0.1456 -0.29973,0.0419 -0.59603,0.10177 -0.89337,0.15769 -0.28209,0.0544 -0.5643,0.10814 -0.846,0.16447 -0.25113,0.0567 -0.50092,0.11902 -0.75253,0.17355 -0.24082,0.0538 -0.48187,0.10662 -0.72229,0.16209 -0.23186,0.0525 -0.46409,0.10323 -0.69564,0.15706 -0.22277,0.0516 -0.44612,0.10077 -0.66784,0.15683 -0.20708,0.0492 -0.41467,0.0962 -0.62131,0.14727 -0.18244,0.0455 -0.36432,0.0933 -0.54748,0.13562 -0.15757,0.0352 -0.31362,0.0771 -0.4717,0.11018 -0.13663,0.0289 -0.27223,0.0625 -0.40913,0.0902 -0.10386,0.0233 -0.20784,0.0463 -0.31092,0.0729 -0.0585,0.0191 -0.11476,0.0416 -0.16553,0.0773 z" />
  <path
     style="fill:#000000;fill-opacity:1;stroke:#000000;stroke-width:0;stroke-linecap:round;stroke-linejoin:round;stroke-dasharray:none;paint-order:normal"
     id="path23"
     d="m 148.83376,105.87834 c 0.0571,-0.0124 0.11142,-0.0358 0.16624,-0.0558 0.0788,-0.0293 0.15933,-0.0539 0.23915,-0.0805 0.0995,-0.0331 0.19889,-0.0668 0.29856,-0.0995 0.13117,-0.044 0.26304,-0.0858 0.39375,-0.13119 0.15227,-0.0526 0.30327,-0.10892 0.45542,-0.16188 0.15904,-0.0584 0.32075,-0.10898 0.47995,-0.16685 0.17062,-0.0642 0.33997,-0.13173 0.50955,-0.19861 0.1816,-0.0721 0.36482,-0.14004 0.54846,-0.20679 0.19984,-0.0727 0.40036,-0.14346 0.60126,-0.21318 0.21558,-0.0724 0.431,-0.14542 0.64766,-0.21456 0.225,-0.0731 0.4514,-0.14162 0.67806,-0.20933 0.24347,-0.0747 0.48896,-0.14276 0.73437,-0.21077 0.26214,-0.0693 0.52318,-0.14258 0.78475,-0.21393 0.27315,-0.0721 0.54435,-0.15125 0.81628,-0.22776 0.2767,-0.0803 0.55361,-0.15984 0.83072,-0.23866 0.28006,-0.079 0.55816,-0.16489 0.83566,-0.25242 0.27429,-0.0887 0.54946,-0.17455 0.82377,-0.26316 0.26772,-0.0858 0.53424,-0.17551 0.80002,-0.26717 0.2588,-0.0893 0.51548,-0.18433 0.77081,-0.28301 0.25557,-0.0979 0.50784,-0.20434 0.75967,-0.31148 0.24877,-0.10647 0.49527,-0.21805 0.74157,-0.3301 0.2441,-0.11101 0.48476,-0.22926 0.72551,-0.34725 0.23837,-0.11796 0.47509,-0.23925 0.71076,-0.36254 0.22889,-0.11943 0.45664,-0.24102 0.68358,-0.36409 0.22352,-0.12054 0.44442,-0.24589 0.66533,-0.37111 0.22313,-0.127562 0.44403,-0.25891 0.66433,-0.391285 0.22341,-0.134233 0.44422,-0.272712 0.66513,-0.411023 0.21699,-0.136152 0.43279,-0.274181 0.64805,-0.413055 0.22104,-0.135732 0.42805,-0.290848 0.62975,-0.453415 0.63991,-0.531649 1.26002,-1.087312 1.87073,-1.652145 0.095,-0.08986 0.18858,-0.181147 0.28218,-0.272441 0,0 -1.27341,1.132818 -1.27341,1.132818 v 0 c -0.0946,0.09219 -0.18912,0.184431 -0.28516,0.275093 -0.47418,0.438422 -0.20802,0.191748 1.08243,-0.957576 0.0326,-0.02907 -0.066,0.05741 -0.0994,0.08573 -0.0988,0.08519 -0.19824,0.169653 -0.29957,0.251769 -0.20022,0.16152 -0.40616,0.315006 -0.62565,0.449766 -0.21678,0.140117 -0.43402,0.279569 -0.65251,0.41703 -0.21971,0.138296 -0.44022,0.275305 -0.6628,0.408949 -0.21898,0.131489 -0.43875,0.261685 -0.66073,0.388076 -0.22147,0.126484 -0.44377,0.251497 -0.66783,0.373339 -0.22968,0.12495 -0.45966,0.249293 -0.69115,0.370822 -0.23643,0.123592 -0.47341,0.246131 -0.71264,0.364218 -0.24059,0.11914 -0.48231,0.23599 -0.72632,0.34797 -0.2472,0.11404 -0.49526,0.22622 -0.74546,0.33355 -0.25189,0.10764 -0.50443,0.21379 -0.76021,0.31197 -0.25669,0.0989 -0.51456,0.19471 -0.7741,0.28593 -0.26895,0.0942 -0.53806,0.18798 -0.80931,0.27544 -0.27466,0.0884 -0.55032,0.1736 -0.82443,0.26374 -0.27667,0.0882 -0.55401,0.17425 -0.8341,0.25104 -0.27563,0.0804 -0.55258,0.15603 -0.82821,0.23641 -0.26935,0.0754 -0.53897,0.14975 -0.80929,0.22156 -0.25695,0.0674 -0.5141,0.13389 -0.77094,0.20163 -0.23837,0.0637 -0.47766,0.1243 -0.71461,0.19321 -0.22542,0.0671 -0.45016,0.13621 -0.67465,0.20629 -0.21256,0.0646 -0.42354,0.13397 -0.63469,0.20302 -0.19644,0.0657 -0.39239,0.13285 -0.58788,0.20128 -0.17917,0.0622 -0.35798,0.12549 -0.53467,0.19452 -0.16589,0.0646 -0.33172,0.12956 -0.49936,0.18954 -0.15777,0.054 -0.31612,0.1064 -0.47362,0.16123 -0.14632,0.05 -0.2922,0.10118 -0.43962,0.14782 -0.12205,0.037 -0.2438,0.0751 -0.36716,0.10754 -0.093,0.0259 -0.186,0.052 -0.27808,0.0812 -0.0747,0.0218 -0.14952,0.0432 -0.22374,0.0668 -0.0502,0.014 -0.10144,0.0244 -0.15059,0.0419 z" />
  <path
     style="fill:#000000;fill-opacity:1;stroke:#000000;stroke-width:0;stroke-linecap:round;stroke-linejoin:round;stroke-dasharray:none;paint-order:normal"
     id="path24"
     d="m 164.18667,83.247197 c 0.058,-5.79e-4 0.11545,-0.0097 0.17298,-0.01601 0.0791,-0.0068 0.15821,-0.01346 0.23726,-0.02043 0.10583,-0.01 0.21144,-0.02227 0.31717,-0.03335 0.12303,-0.01201 0.2462,-0.02205 0.36913,-0.0349 0.14474,-0.01378 0.29011,-0.01576 0.43537,-0.01614 0.17282,0.0027 0.34504,0.01935 0.51704,0.03515 0.18457,0.02059 0.36909,0.04156 0.55342,0.06417 0.19064,0.02159 0.38041,0.04972 0.57017,0.07778 0.19444,0.0272 0.38855,0.05688 0.58209,0.08987 0.20137,0.03474 0.40314,0.06717 0.60467,0.101039 0.20993,0.03621 0.41894,0.07756 0.62786,0.119111 0.21686,0.04251 0.4324,0.0912 0.64804,0.139414 0.22845,0.05195 0.45614,0.107192 0.68345,0.163851 0.23217,0.05949 0.46361,0.121888 0.69442,0.186428 0.24042,0.06578 0.47919,0.137468 0.71757,0.210264 0.24172,0.0732 0.48282,0.148035 0.72229,0.228261 0.2347,0.08017 0.47016,0.158005 0.70413,0.240289 0.19957,0.07287 0.39677,0.152024 0.59225,0.235198 0,0 0.63966,-0.569035 0.63966,-0.569035 v 0 c -0.19387,-0.08508 -0.38918,-0.166228 -0.5881,-0.238886 -0.23278,-0.0866 -0.47017,-0.15967 -0.70543,-0.23914 -0.23948,-0.08006 -0.48022,-0.155979 -0.72212,-0.228407 -0.2374,-0.07176 -0.47362,-0.14754 -0.71232,-0.214942 -0.23087,-0.06486 -0.46246,-0.127311 -0.69501,-0.185904 -0.22529,-0.05762 -0.44966,-0.119125 -0.67667,-0.16988 -0.21447,-0.04854 -0.4281,-0.101184 -0.64403,-0.142976 -0.20809,-0.04203 -0.41605,-0.08499 -0.62519,-0.12149 -0.20027,-0.0338 -0.39979,-0.07176 -0.60012,-0.105087 -0.19278,-0.0336 -0.38619,-0.0636 -0.57981,-0.0919 -0.1892,-0.02978 -0.37901,-0.05485 -0.56902,-0.0788 -0.18235,-0.02599 -0.36571,-0.04391 -0.54822,-0.0688 -0.1688,-0.01876 -0.33819,-0.03196 -0.50762,-0.04353 -0.14129,-0.0032 -0.28294,-0.0038 -0.424,0.006 -0.12178,0.01116 -0.24359,0.02037 -0.36529,0.03148 -0.1017,0.0082 -0.2036,0.01366 -0.30524,0.02272 -0.0757,0.0041 -0.15141,0.0058 -0.22702,0.01132 -0.0568,0.0051 -0.1137,0.0076 -0.17033,0.01366 z" />
  <path
     style="fill:#000000;fill-opacity:1;stroke:#000000;stroke-width:0;stroke-linecap:round;stroke-linejoin:round;stroke-dasharray:none;paint-order:normal"
     id="path25"
     d="m 112.17791,105.38697 c -0.0599,0.0425 -0.12652,0.0745 -0.19068,0.11007 -0.0862,0.0467 -0.17025,0.097 -0.2536,0.14851 -0.10045,0.0647 -0.20164,0.12825 -0.30284,0.19178 -0.11458,0.0724 -0.2283,0.14608 -0.34152,0.22056 -0.11648,0.0767 -0.23216,0.1546 -0.34545,0.23597 -0.33907,0.27634 -0.69713,0.54468 -0.96769,0.89044 -0.0761,0.0971 -0.13577,0.2051 -0.19078,0.31508 -0.0517,0.11146 -0.092,0.22731 -0.12164,0.34644 -0.0241,0.10292 -0.0257,0.20824 -0.0225,0.31325 0.004,0.091 0.0235,0.18015 0.0464,0.26803 0.0352,0.0864 0.10361,0.15168 0.17046,0.21419 0.0776,0.0722 0.16195,0.13451 0.24994,0.1931 0.10338,0.0729 0.2186,0.12597 0.33378,0.17714 0.13244,0.0577 0.26747,0.10884 0.40464,0.15401 0.14864,0.0478 0.29682,0.097 0.44574,0.14386 0.16317,0.051 0.32761,0.0976 0.49309,0.14059 0.18221,0.0515 0.36888,0.0814 0.55507,0.11396 0.20815,0.0338 0.41606,0.0693 0.62468,0.10006 0.2161,0.0363 0.43314,0.0659 0.65029,0.0949 0.22693,0.0292 0.4533,0.0626 0.67971,0.0955 0.25426,0.0322 0.50919,0.0607 0.76463,0.0819 0.2799,0.0214 0.56018,0.0377 0.84042,0.054 0.30265,0.015 0.6058,0.0159 0.90871,0.0226 0.22312,0.005 0.11146,0.002 0.33497,0.01 0,0 0.60852,-0.54134 0.60852,-0.54134 v 0 c -0.22084,-0.009 -0.11086,-0.005 -0.32986,-0.014 -0.2975,-0.0121 -0.59499,-0.0246 -0.89246,-0.0371 -0.278,-0.016 -0.556,-0.0333 -0.83318,-0.0605 -0.25136,-0.0229 -0.50137,-0.0558 -0.75079,-0.0943 -0.22491,-0.0333 -0.44938,-0.0695 -0.67471,-0.1 -0.21651,-0.0295 -0.43294,-0.0596 -0.64832,-0.0967 -0.20645,-0.0339 -0.41293,-0.0678 -0.61877,-0.10531 -0.18266,-0.0363 -0.36502,-0.0747 -0.54495,-0.12297 -0.16269,-0.046 -0.32547,-0.0923 -0.48534,-0.14749 -0.14745,-0.0486 -0.29521,-0.0963 -0.44185,-0.14732 -0.13518,-0.0471 -0.26887,-0.0991 -0.39883,-0.15917 -0.11253,-0.0538 -0.22369,-0.11108 -0.32421,-0.18565 -0.0859,-0.0602 -0.16737,-0.12661 -0.24367,-0.19869 -0.0656,-0.0647 -0.13107,-0.13108 -0.16553,-0.21857 -0.0256,-0.0863 -0.0448,-0.1746 -0.0502,-0.26471 -0.007,-0.10204 -0.008,-0.20475 0.0136,-0.30538 0.0271,-0.11911 0.0661,-0.23468 0.11971,-0.34471 0.0544,-0.10928 0.11325,-0.21666 0.18861,-0.31316 0.0394,-0.0506 0.0367,-0.0491 0.0802,-0.0966 0.0144,-0.0155 0.06,-0.06 0.0441,-0.0459 -1.15463,1.00454 -0.79755,0.68702 -0.54267,0.48544 0.11323,-0.0816 0.22876,-0.15974 0.34558,-0.23609 0.11157,-0.0732 0.22337,-0.14598 0.33676,-0.21633 0.0985,-0.0608 0.19655,-0.12225 0.29431,-0.18419 0.0809,-0.0492 0.16256,-0.097 0.24597,-0.14172 0.0568,-0.0303 0.11596,-0.0569 0.17006,-0.0917 z" />
</svg>
