<svg xmlns="http://www.w3.org/2000/svg" xmlns:xlink="http://www.w3.org/1999/xlink" cursor="default" viewBox="0 0 256 256">
    <defs>
        <linearGradient id="linearGradient2">
            <stop offset="0" stop-color="#c5c5c5"/>
            <stop offset="1" stop-color="#fff"/>
        </linearGradient>
        <linearGradient id="linearGradient924" x1="18.12" x2="21.466" y1="241.29" y2="228.73" gradientTransform="scale(1 -1) rotate(-89.503 -.246 -.024)" gradientUnits="userSpaceOnUse">
            <stop offset="0" stop-color="#917c6f"/>
            <stop offset="1" stop-color="#ac9d93"/>
        </linearGradient>
        <linearGradient id="innoGrad4">
            <stop offset="0" stop-color="#ffb380"/>
            <stop offset="1" stop-color="#fca"/>
        </linearGradient>
        <radialGradient id="radialGradient20" cx="193.216" cy="-32.008" r="50" fx="193.216" fy="-32.008" gradientUnits="userSpaceOnUse" xlink:href="#linearGradient2"/>
    </defs>
    <circle cx="193.216" cy="-32.008" r="48.25" fill="url(#radialGradient20)" stroke="#000" stroke-linecap="round" stroke-linejoin="round" stroke-width="3.5" paint-order="markers stroke fill" transform="rotate(36.795)"/>
    <path fill="#fca" stroke="#000" stroke-linecap="round" stroke-linejoin="round" stroke-width="3.5" d="M141.285 127.683l5.767 4.314-55.686 74.45-5.767-4.313z" paint-order="markers stroke fill"/>
    <path fill="#449228" stroke="#000" d="M177.266 113.707c-101.417-21.658 58.739 46.514 6.675 1.886-.945-.81-5.459-1.627-6.675-1.886z"/>
    <path fill="#fca" stroke="#000" stroke-linecap="round" stroke-linejoin="round" stroke-width="3" d="M135.602 126.06c-11.46-12.195-16.478-29.656-13.231-46.046 4.487-22.652 23.151-39.77 45.909-42.105 17.323-1.778 34.023 4.778 45.332 17.796 16.676 19.197 17.085 47.877.962 67.519-4.99 6.08-10.116 10.197-17.13 13.76-5.146 2.612-10.072 4.157-15.974 5.008-10.921 1.574-21.855-.22-31.549-5.18-4.556-2.33-10.836-7.046-14.319-10.753zm17.816 7.646c13.31 6.163 29.053 5.957 42.097-.55 7.508-3.745 15.204-10.778 19.286-17.624 6.222-10.434 8.311-20.537 6.652-32.158-1.402-9.814-4.925-17.615-11.317-25.06-1.987-2.315-2.995-3.197-7.538-6.592-4.13-3.086-5.796-4.17-7.837-5.1-8.72-3.969-17.491-5.392-26.505-4.3-10.61 1.284-19.753 5.554-27.643 12.909-3.018 2.813-7.63 9.006-9.582 12.865-9.607 19.003-5.875 41.534 9.391 56.688 2.459 2.44 9.629 7.363 12.996 8.922z" paint-order="markers stroke fill"/>
    <path d="M182.448 62.25c-.107.097-.232.17-.353.248-.183.11-.373.208-.555.319-.228.13-.452.267-.675.406-.247.151-.485.316-.725.476-.24.165-.479.334-.715.505-.232.167-.46.34-.684.517-.223.175-.438.36-.653.546a8.376 8.376 0 00-.611.61 14.548 14.548 0 00-1.62 2.07c-.151.23-.296.464-.435.702-.143.248-.269.506-.384.769-.123.279-.234.562-.338.849a28.388 28.388 0 00-.562 1.817c-.083.31-.16.62-.232.933-.075.319-.138.64-.202.962-.062.326-.122.653-.177.981-.056.341-.103.684-.15 1.026a41.072 41.072 0 00-.238 2.15c-.032.378-.06.754-.089 1.131-.027.382-.052.764-.073 1.146-.02.395-.044.79-.08 1.184-.04.421-.108.84-.194 1.253-.07.29-.033.145-.109.436l.092 1.5c.076-.282.04-.141.11-.423.092-.4.153-.805.197-1.212.036-.39.06-.781.08-1.172a81.036 81.036 0 01.163-2.266 40.075 40.075 0 01.239-2.116c.046-.337.094-.675.152-1.011.056-.326.112-.652.177-.977a26.217 26.217 0 01.997-3.689c.106-.28.215-.56.34-.834.118-.254.244-.504.385-.745a17.923 17.923 0 01.917-1.423c.174-.239.352-.475.54-.704.19-.23.387-.454.596-.667.197-.207.4-.409.612-.599.214-.186.43-.37.653-.547.226-.176.45-.356.683-.523.236-.173.473-.344.715-.508.237-.16.478-.313.726-.455.221-.13.447-.252.678-.364.187-.082.373-.17.559-.255.117-.047.235-.099.361-.114z"/>
    <path fill="#faa" stroke="#000" d="M163.357 90.125c-10.814.968-11.388-20.19-.366-27.364 12.654 6.112 11.18 26.396.366 27.364zm-2.743-6.66c-4.569 9.848-23.178-.233-23.881-13.366 11.62-7.902 28.45 3.517 23.88 13.365zm-7.14-.955c6.245 8.88-11.79 19.956-23.515 13.998-1.033-14.014 17.27-22.88 23.515-13.998zm-4.396 5.705c10.813-.967 11.387 20.19.365 27.364-12.653-6.112-11.18-26.396-.365-27.364zm2.743 6.66c4.568-9.848 23.178.234 23.88 13.366-11.62 7.902-28.449-3.516-23.88-13.365zm7.14.955c-6.246-8.88 11.79-19.956 23.514-13.998 1.034 14.014-17.27 22.88-23.515 13.998z"/>
    <path fill="#faa" stroke="#000" stroke-width=".6" d="M196.699 101.784c-4.25 4.942-13.35-3.921-11.607-11.622 8.003-2.666 15.856 6.679 11.607 11.622zm-3.968-1.718c2.155 6.15-10.073 9.601-15.87 4.245 1.694-8.264 13.716-10.395 15.87-4.245zm-3.472 2.578c6.404 1.207 3.275 13.522-4.264 15.866-6.309-5.598-2.14-17.074 4.264-15.866zm.495 4.295c4.25-4.943 13.349 3.92 11.607 11.621-8.004 2.666-15.856-6.678-11.607-11.621zm3.967 1.717c-2.154-6.15 10.074-9.601 15.871-4.244-1.695 8.264-13.716 10.395-15.87 4.244zm3.473-2.577c-6.404-1.208-3.276-13.522 4.263-15.866 6.31 5.597 2.14 17.073-4.263 15.866z"/>
    <ellipse cx="188.308" cy="74.171" fill="#2f8e15" stroke="#000" stroke-linecap="round" stroke-linejoin="round" stroke-width="1.6" paint-order="markers stroke fill" rx="10.312" ry="4.665" transform="rotate(-3.508)"/>
    <path d="M142.702 118.947c.069.008.137.021.204.04.117.034.229.083.34.131l.405.18c.153.071.308.136.461.204a47.873 47.873 0 011.152.496c.212.093.422.191.632.288.218.1.435.204.653.306.227.103.451.211.677.318.239.11.479.219.719.327.27.123.537.254.8.391.274.141.55.28.821.427.292.155.579.32.866.483.295.165.59.33.884.497.299.172.598.344.896.518.315.18.62.378.922.58.286.195.57.394.849.599.218.17.417.36.604.564.143.158.259.335.359.522.085.153.15.314.203.48a.937.937 0 01.019.417.822.822 0 01-.143.326c-.07.106-.161.194-.253.282-.101.096-.215.178-.328.26a.995.995 0 00-.249.258.786.786 0 00-.078.255.363.363 0 00.045.242c.048.085.11.16.178.23.071.077.155.142.24.203.103.07.214.128.325.185.122.064.246.126.37.186l.456.203c.183.084.37.162.555.24.201.085.405.165.609.242.223.086.45.162.676.237.255.073.505.158.758.238.27.083.543.156.814.238.298.097.594.197.89.299.197.067.395.13.592.197l1.65-.101c-.198-.066-.397-.13-.594-.197-.288-.099-.577-.197-.863-.3-.262-.085-.528-.155-.79-.24-.244-.08-.487-.161-.732-.24a11.803 11.803 0 01-.648-.238 11.052 11.052 0 01-1.112-.486c-.141-.069-.286-.132-.426-.205-.117-.063-.236-.124-.354-.186a2.605 2.605 0 01-.3-.187 1.747 1.747 0 01-.231-.204 1.012 1.012 0 01-.166-.23.487.487 0 01-.04-.242.888.888 0 01.063-.255.816.816 0 01.203-.254c.113-.086.229-.168.336-.261a2.04 2.04 0 00.268-.283.688.688 0 00.136-.326.972.972 0 00-.061-.414 2.721 2.721 0 00-.665-.996 5.408 5.408 0 00-.695-.558c-.29-.2-.581-.4-.874-.597-.3-.199-.605-.39-.91-.581-.294-.178-.593-.348-.89-.519-.29-.167-.576-.337-.869-.497-.284-.162-.569-.322-.852-.485-.261-.152-.531-.288-.8-.428-.255-.131-.51-.263-.767-.393-.232-.11-.467-.216-.699-.328-.222-.107-.444-.214-.668-.319-.215-.102-.428-.205-.644-.306-.207-.097-.413-.196-.622-.29-.193-.088-.385-.18-.58-.267-.171-.077-.344-.152-.514-.232-.145-.07-.294-.133-.439-.204-.125-.062-.253-.12-.377-.182-.096-.046-.192-.092-.29-.135a.609.609 0 00-.178-.041zM167.438 129.408c.053.026.11.04.165.059.08.026.159.056.238.084l.296.106c.13.047.26.095.391.14.152.053.306.102.458.155.161.052.32.112.48.165.175.055.35.106.524.158.187.056.374.116.56.177.201.066.403.134.604.203.214.076.428.152.642.232.222.081.442.167.662.254.238.091.473.19.708.288.249.107.5.21.75.316.258.112.52.217.782.325l.8.326c.27.11.541.215.814.317.27.1.54.203.81.302.263.098.528.192.794.284a22.535 22.535 0 001.57.478c.262.07.525.135.788.199.26.063.523.119.785.175a48.283 48.283 0 001.545.29c.25.043.502.08.753.119.254.037.509.07.764.102.259.033.518.06.777.088.255.027.51.052.765.075.257.03.516.036.775.033a46.988 46.988 0 002.492-.144c.13-.012.26-.026.39-.04l-1.701.105c-.132.014-.263.028-.394.04-.644.052-.282.022 1.442-.085l-.13.006c-.131.006-.261.011-.392.013a6.035 6.035 0 01-.77-.032 62.195 62.195 0 01-.77-.076 36.538 36.538 0 01-3.062-.445 34.518 34.518 0 01-1.572-.328c-.264-.063-.529-.128-.792-.198a21.905 21.905 0 01-1.576-.478 34.45 34.45 0 01-.806-.283c-.271-.1-.54-.204-.812-.302a21.25 21.25 0 01-.81-.318c-.267-.107-.532-.219-.798-.326a63.021 63.021 0 01-.773-.325c-.244-.106-.487-.213-.731-.318-.227-.097-.453-.197-.681-.29-.22-.086-.439-.17-.658-.254-.207-.08-.416-.156-.625-.232-.195-.07-.39-.138-.587-.205a14.76 14.76 0 00-.54-.177c-.17-.052-.341-.103-.51-.16l-.472-.166c-.146-.05-.292-.1-.437-.155-.119-.046-.238-.091-.355-.142a8.078 8.078 0 00-.27-.108l-.216-.086c-.048-.02-.095-.043-.145-.06zM193.491 121.094c.046.035.097.064.146.094l.2.13c.089.058.18.114.27.17.103.067.207.135.311.201.122.079.238.167.352.256.135.11.26.229.385.347.133.13.265.261.396.393.137.134.268.274.4.413.136.142.27.285.403.43.136.152.275.302.413.453.142.158.281.32.42.482a34.052 34.052 0 01.86 1.06 32.988 32.988 0 011.292 1.81c.135.209.272.415.405.624.112.181.218.365.32.551l.855-.052c-.1-.187-.203-.371-.315-.551-.13-.212-.27-.416-.407-.624-.139-.211-.28-.42-.426-.626-.143-.203-.282-.408-.428-.609a26.634 26.634 0 00-.432-.575c-.141-.185-.28-.372-.427-.552-.138-.17-.274-.344-.418-.51-.138-.162-.275-.324-.417-.482-.136-.15-.27-.303-.407-.453a21.39 21.39 0 00-.399-.43c-.13-.14-.264-.278-.399-.414-.127-.133-.26-.26-.388-.393a11.979 11.979 0 00-.373-.348c-.109-.09-.22-.177-.337-.257l-.306-.2c-.085-.057-.169-.116-.255-.171-.062-.044-.122-.09-.185-.132-.048-.03-.094-.064-.142-.094zM138.915 106.38c-.073-.005-.146-.02-.218-.032a5.185 5.185 0 00-.291-.04 32.782 32.782 0 01-.357-.036c-.135-.014-.27-.026-.405-.037a10.395 10.395 0 00-.417-.028c-.437.008-.885-.002-1.311.102a1.829 1.829 0 00-.654.328 1.208 1.208 0 00-.34.472.634.634 0 00.001.273c.017.105.045.206.078.307.036.12.094.234.153.345.068.127.143.25.223.371.087.13.173.26.261.389.097.14.198.279.301.415.112.153.24.292.367.432.142.155.284.312.429.465.148.162.3.32.453.476.16.163.318.33.475.495.18.182.363.362.551.537.207.19.417.375.628.561.228.199.466.387.7.58.173.141.087.07.258.214l.812-.05-.25-.214-.68-.58c-.208-.185-.416-.37-.617-.563a12.14 12.14 0 01-.532-.538c-.157-.165-.31-.332-.47-.495a35.815 35.815 0 01-.872-.942 8.465 8.465 0 01-.351-.433 8.945 8.945 0 01-.291-.416c-.086-.13-.173-.258-.256-.389a4.404 4.404 0 01-.216-.371 2.159 2.159 0 01-.21-.653.654.654 0 01.006-.275 1.18 1.18 0 01.124-.239c.058-.084.12-.166.2-.231a1.59 1.59 0 01.306-.198c.11-.052.223-.1.342-.13.062-.015.06-.015.123-.026.02-.003.084-.01.063-.009-1.529.077-1.052.048-.727.047a15.638 15.638 0 01.816.066l.346.037c.094.01.187.024.28.04.064.011.127.027.191.033z"/>
    <path fill="#fea" stroke="#000" d="M81.354 210.078c-87.68 59.698-82.453-74.234-34.66-48.985 2.433-.845 3.128-.585 3.973-1.096C11.41 128.472-6.605 285.512 83.91 210.908c-3.646-1.984 3.1.265-2.556-.83z"/>
    <path fill="#fea" stroke="#000" d="M48.913 171.684c-5.776 1.738-5.557 10.623-13.31 21.875 1.751 4.268 8.123 4.526 13.425 5.093.774-5.386.898-7.756 1.852-10.417-.097 3.472.573 5.01.695 10.07 8.469-.293 14.18-1.878 18.718-6.174-1.514-1.105-2.617-5.035-5.061-7.484 9.723 8.819 6.621 6.688 9.028 2.894.445-.372-6.287-5.492-9.666-7.932-3.021-2.18-4.098-7.333-11.052-8.966-1.562-.252-3.345.119-4.63 1.041z"/>
    <circle cx="50.44" cy="166.152" r="5" fill="#fea" stroke="#000" stroke-linecap="round" stroke-linejoin="round" stroke-width="2.1" paint-order="markers stroke fill"/>
    <ellipse cx="84.563" cy="209.802" fill="#fea" stroke="#000" stroke-linecap="round" stroke-linejoin="round" stroke-width="2.1" paint-order="markers stroke fill" rx="4.95" ry="4.95"/>
</svg>
