<?xml version="1.0" encoding="UTF-8" standalone="no"?>
<svg
   cursor="default"
   version="1.1"
   viewBox="0 0 256 256"
   id="svg34"
   sodipodi:docname="guqin.svg"
   inkscape:version="1.3.1 (9b9bdc1480, 2023-11-25, custom)"
   xml:space="preserve"
   xmlns:inkscape="http://www.inkscape.org/namespaces/inkscape"
   xmlns:sodipodi="http://sodipodi.sourceforge.net/DTD/sodipodi-0.dtd"
   xmlns:xlink="http://www.w3.org/1999/xlink"
   xmlns="http://www.w3.org/2000/svg"
   xmlns:svg="http://www.w3.org/2000/svg"><sodipodi:namedview
     id="namedview34"
     pagecolor="#ffffff"
     bordercolor="#666666"
     borderopacity="1.0"
     inkscape:showpageshadow="2"
     inkscape:pageopacity="0.0"
     inkscape:pagecheckerboard="0"
     inkscape:deskcolor="#d1d1d1"
     inkscape:zoom="2.1599902"
     inkscape:cx="118.75054"
     inkscape:cy="123.14871"
     inkscape:window-width="1854"
     inkscape:window-height="1010"
     inkscape:window-x="0"
     inkscape:window-y="0"
     inkscape:window-maximized="1"
     inkscape:current-layer="svg34"
     showgrid="false" /><defs
     id="defs18"><linearGradient
       id="linearGradient23"
       inkscape:collect="always"
       inkscape:label="innoGrad2"><stop
         style="stop-color:#ff7f2a;stop-opacity:1;"
         offset="0"
         id="stop23" /><stop
         style="stop-color:#ffe6d5;stop-opacity:1;"
         offset="1"
         id="stop24" /></linearGradient><inkscape:path-effect
       effect="curvestitching"
       id="path-effect2"
       is_visible="true"
       lpeversion="1"
       count="5"
       startpoint_edge_variation="0;1"
       startpoint_spacing_variation="0;1"
       endpoint_edge_variation="0;1"
       endpoint_spacing_variation="0;1"
       strokepath="M0,0 L1,0"
       prop_scale="1"
       scale_y_rel="false" /><inkscape:path-effect
       effect="rough_hatches"
       id="path-effect27"
       is_visible="true"
       lpeversion="1.2"
       direction="130.23338,84.722658 , 44.619617,0"
       dist_rdm="0;1"
       growth="0"
       do_bend="true"
       bender="130.23338,89.722658 , 5,0"
       bottom_edge_variation="0;1"
       top_edge_variation="0;1"
       bottom_tgt_variation="0;1"
       top_tgt_variation="0;1"
       scale_bf="1"
       scale_bb="1"
       scale_tf="1"
       scale_tb="1"
       top_smth_variation="0;1"
       bottom_smth_variation="0;1"
       fat_output="true"
       stroke_width_top="1"
       stroke_width_bottom="1"
       front_thickness="1"
       back_thickness="0.25" /><inkscape:path-effect
       effect="rough_hatches"
       id="path-effect25"
       is_visible="true"
       lpeversion="1.2"
       direction="130.33594,169.64062 , 44.499022,0"
       dist_rdm="0;1"
       growth="0"
       do_bend="true"
       bender="130.33594,174.64062 , 5,0"
       bottom_edge_variation="0;1"
       top_edge_variation="0;1"
       bottom_tgt_variation="0;1"
       top_tgt_variation="0;1"
       scale_bf="0"
       scale_bb="0"
       scale_tf="0.3"
       scale_tb="1.2"
       top_smth_variation="0;1"
       bottom_smth_variation="0;1"
       fat_output="true"
       stroke_width_top="1"
       stroke_width_bottom="1"
       front_thickness="1"
       back_thickness="0.25" /><inkscape:path-effect
       effect="rough_hatches"
       id="path-effect22"
       is_visible="true"
       lpeversion="1.2"
       direction="130.23338,125.46803 , 44.619244,0"
       dist_rdm="0;1"
       growth="0"
       do_bend="true"
       bender="130.23338,130.46803 , 5,0"
       bottom_edge_variation="0;1"
       top_edge_variation="0;1"
       bottom_tgt_variation="0;1"
       top_tgt_variation="0;1"
       scale_bf="0"
       scale_bb="0"
       scale_tf="0"
       scale_tb="0"
       top_smth_variation="0;1"
       bottom_smth_variation="0;1"
       fat_output="true"
       stroke_width_top="0"
       stroke_width_bottom="0"
       front_thickness="0"
       back_thickness="0" /><linearGradient
       id="linearGradient924"
       x1="18.12"
       x2="21.466"
       y1="241.29"
       y2="228.73"
       gradientTransform="matrix(.0086692 .99996 .99996 -.0086692 -.22047 .26984)"
       gradientUnits="userSpaceOnUse"><stop
         stop-color="#917c6f"
         offset="0"
         id="stop1" /><stop
         stop-color="#ac9d93"
         offset="1"
         id="stop2" /></linearGradient><linearGradient
       id="innoGrad4"><stop
         stop-color="#ffb380"
         offset="0"
         id="stop3" /><stop
         stop-color="#fca"
         offset="1"
         id="stop4" /></linearGradient><linearGradient
       id="innoGrad5"
       x1="149.74"
       x2="147.34"
       y1="110.12"
       y2="107.69"
       gradientTransform="matrix(.0086692 .99996 .99996 -.0086692 -.22047 .26984)"
       gradientUnits="userSpaceOnUse"><stop
         stop-color="#916f6f"
         offset="0"
         id="stop5" /><stop
         stop-color="#ac9393"
         offset="1"
         id="stop6" /></linearGradient><linearGradient
       id="linearGradient1284"
       x1="30"
       x2="30.714"
       y1="226.18"
       y2="225.42"
       gradientTransform="matrix(.0086692 .99996 .99996 -.0086692 -.22047 .26984)"
       gradientUnits="userSpaceOnUse"
       xlink:href="#innoGrad4" /><linearGradient
       id="linearGradient1292"
       x1="37.634"
       x2="38.214"
       y1="219.17"
       y2="218.59"
       gradientTransform="matrix(.0086692 .99996 .99996 -.0086692 -.22047 .26984)"
       gradientUnits="userSpaceOnUse"
       xlink:href="#innoGrad4" /><linearGradient
       id="linearGradient1306"
       x1="40.045"
       x2="40.938"
       y1="216.76"
       y2="215.78"
       gradientTransform="matrix(.0086692 .99996 .99996 -.0086692 -.22047 .26984)"
       gradientUnits="userSpaceOnUse"
       xlink:href="#innoGrad4" /><linearGradient
       id="linearGradient1314"
       x1="42.455"
       x2="43.348"
       y1="214.21"
       y2="213.32"
       gradientTransform="matrix(.0086692 .99996 .99996 -.0086692 -.22047 .26984)"
       gradientUnits="userSpaceOnUse"
       xlink:href="#innoGrad4" /><linearGradient
       id="linearGradient1322"
       x1="50.58"
       x2="51.071"
       y1="206.49"
       y2="206.04"
       gradientTransform="matrix(.0086692 .99996 .99996 -.0086692 -.22047 .26984)"
       gradientUnits="userSpaceOnUse"
       xlink:href="#innoGrad4" /><linearGradient
       id="innoGrad3"
       x1="27.009"
       x2="54.821"
       y1="229.57"
       y2="202.83"
       gradientTransform="matrix(.0086692 .99996 .99996 -.0086692 -.22047 .26984)"
       gradientUnits="userSpaceOnUse"><stop
         stop-color="#f95"
         offset="0"
         id="stop7" /><stop
         stop-color="#ff7f2a"
         offset=".088"
         id="stop8" /><stop
         stop-color="#f95"
         offset=".265"
         id="stop9" /><stop
         stop-color="#ff7f2a"
         offset=".446"
         id="stop10" /><stop
         stop-color="#ff7f2a"
         offset=".601"
         id="stop11" /><stop
         stop-color="#f95"
         offset=".733"
         id="stop12" /><stop
         stop-color="#ff7f2a"
         offset=".863"
         id="stop13" /><stop
         stop-color="#f95"
         offset="1"
         id="stop14" /></linearGradient><linearGradient
       id="linearGradient903"
       x1="200.1"
       x2="191.22"
       y1="65.966"
       y2="57.051"
       gradientUnits="userSpaceOnUse"><stop
         stop-color="#916f6f"
         offset="0"
         id="stop15" /><stop
         stop-color="#ac9393"
         offset="1"
         id="stop16" /></linearGradient><linearGradient
       id="linearGradient943"
       x1="185.93"
       x2="178.95"
       y1="77.051"
       y2="70.746"
       gradientUnits="userSpaceOnUse"
       xlink:href="#linearGradient924" /><linearGradient
       id="linearGradient951"
       x1="181.93"
       x2="175.36"
       y1="82.508"
       y2="76.271"
       gradientUnits="userSpaceOnUse"
       xlink:href="#linearGradient924" /><linearGradient
       id="linearGradient938"
       x1="18.12"
       x2="21.466"
       y1="241.29"
       y2="228.73"
       gradientTransform="matrix(.0086692 .99996 .99996 -.0086692 -.22047 .26984)"
       gradientUnits="userSpaceOnUse"><stop
         stop-color="#fd5"
         offset="0"
         id="stop17" /><stop
         stop-color="#fea"
         offset="1"
         id="stop18" /></linearGradient><linearGradient
       inkscape:collect="always"
       xlink:href="#linearGradient23"
       id="linearGradient24"
       x1="124.55768"
       y1="140.42477"
       x2="132.08791"
       y2="119.33112"
       gradientUnits="userSpaceOnUse" /></defs><rect
     style="display:inline;fill:#404040;fill-opacity:1;stroke:#525252;stroke-width:1.34864;stroke-linecap:round;stroke-linejoin:round;stroke-opacity:1"
     id="rect7"
     width="254.97115"
     height="255.29852"
     x="-0.21226659"
     y="0.38891312" /><g
     inkscape:groupmode="layer"
     id="layer3"
     inkscape:label="tassel"
     style="display:inline"
     transform="matrix(0.8736476,0.02509771,-0.02509771,0.8736476,24.778648,36.505504)"><path
       id="path9"
       style="fill:#000000;fill-opacity:1;stroke:none;stroke-width:1.601;stroke-linecap:round;stroke-linejoin:round;stroke-opacity:1"
       d="m 40.289563,155.40787 c -2.571628,0.49377 -4.600509,3.19154 -3.902437,5.80645 0.224529,0.7289 0.584508,1.28996 0.33163,2.04726 -0.06123,1.16119 -0.122463,2.32238 -0.183695,3.48356 -2.964307,1.39387 -4.563725,4.48887 -5.986662,7.27548 -2.304786,4.84628 -3.928132,9.9862 -5.31754,15.15995 0.276469,0.75953 -0.03979,1.93556 0.904919,2.22554 0.692983,0.57247 1.421378,0.74368 2.209345,0.23984 1.346645,-0.27205 1.421864,-1.92187 1.934632,-2.96234 0.403916,-1.05044 0.823944,-2.09557 1.290004,-3.12017 -0.245764,1.48382 -0.456019,3.02287 -1.162471,4.37007 0.136997,0.44389 -0.572172,1.6113 -0.01312,2.12798 0.545807,0.77399 1.202209,1.42116 2.137114,1.68052 5.969425,2.53399 13.15552,3.19548 19.046294,0.0881 2.172828,-1.1461 4.196874,-2.7193 5.682283,-4.6651 0.257298,-0.92053 0.785058,-1.89674 0.112155,-2.76989 -2.003009,-3.68512 -2.997104,-7.77598 -4.164688,-11.77069 -0.951283,-3.25968 -3.284491,-5.97204 -6.210029,-7.64531 -0.784562,-0.29239 -1.256081,-0.74695 -1.01748,-1.62695 0.0646,-0.85994 -0.121713,-1.83321 0.07762,-2.62491 1.69179,-2.33462 0.454443,-5.91413 -2.177715,-6.93491 -1.10428,-0.53982 -2.396087,-0.623 -3.590165,-0.38452 z" /><path
       id="path1"
       style="fill:#ffe680;fill-opacity:1;stroke:#ffe680;stroke-width:1.22929;stroke-linecap:round;stroke-linejoin:round;stroke-opacity:1"
       d="M 15.381383 186.61027 A 2.3203251 2.0026865 7.8149607e-16 0 0 13.061492 188.61319 A 2.3203251 2.0026865 7.8149607e-16 0 0 15.381419 190.61499 A 2.3203251 2.0026865 7.8149607e-16 0 0 17.703025 188.61202 A 2.3203251 2.0026865 7.8149607e-16 0 0 15.381383 186.61027 z M 13.454193 190.69095 L 13.248009 194.62779 L 14.867268 194.70658 C 14.206245 194.88686 13.53791 195.09541 12.89511 195.13058 C 8.5728344 195.36706 4.5585411 211.34949 4.5585411 211.34949 C 4.5585411 211.34949 8.4660711 199.93828 9.7822711 204.60613 C 9.5370111 210.89098 8.3205636 212.4018 8.3205636 212.4018 C 8.3205636 212.4018 19.040311 218.10458 26.10551 209.82244 C 21.649797 201.30327 24.397608 198.2404 17.434202 194.6706 C 17.303653 194.60368 17.16935 194.55733 17.033373 194.52076 L 17.033473 190.75979 L 13.454193 190.69095 z "
       transform="matrix(1.3023744,0,0,1.3023744,21.506882,-85.490697)" /></g><path
     style="color:#000000;fill:#ffe680;stroke:#000000;stroke-opacity:1;stroke-width:1.75702819;stroke-dasharray:none;paint-order:stroke markers fill"
     d="m 30.761719,119.11719 c -0.340433,6.67974 1.932917,11.27748 5.560547,14.85351 3.627629,3.57603 8.580825,6.16121 13.666015,8.97852 5.08519,2.81731 10.302034,5.86267 14.482422,10.30273 4.180388,4.44006 7.340806,10.26859 8.318359,18.72852 l 0.761719,-0.0879 c -0.99467,-8.60806 -4.242923,-14.62169 -8.521484,-19.16602 -4.278561,-4.54433 -9.572545,-7.62623 -14.667969,-10.44922 -5.095423,-2.82298 -9.990412,-5.39384 -13.5,-8.85351 -3.509588,-3.45967 -5.662838,-7.77672 -5.332031,-14.26758 z"
     id="path2"
     transform="matrix(1.0698963,0.38860797,-0.38860797,1.0698963,45.713705,-37.643465)" /><ellipse
     style="display:inline;fill:#ff8080;fill-opacity:1;stroke:#000000;stroke-width:0.75;stroke-linecap:round;stroke-linejoin:round;stroke-dasharray:none;stroke-opacity:1"
     id="bead"
     cx="41.668663"
     cy="153.47925"
     rx="3.5807452"
     ry="3.5671818"
     transform="matrix(0.8736476,0.02509771,-0.02509771,0.8736476,24.778648,36.505504)" /><g
     inkscape:groupmode="layer"
     id="layer2"
     inkscape:label="guqin"
     transform="matrix(1.1388259,-0.11375989,-0.48251811,1.7963327,44.233524,-99.002808)"><path
       id="body_side"
       style="display:inline;fill:#ff7f2a;stroke:#000000;stroke-width:1px;stroke-linecap:butt;stroke-linejoin:round;stroke-opacity:1"
       d="m 11.898599,100.61044 c 0,0 1.337667,4.67848 6.615406,7.40037 2.447641,1.26233 5.497253,2.97658 7.709485,3.39911 14.683554,2.80448 37.301614,10.65002 47.239521,18.08351 1.787207,1.33682 161.105749,44.63568 169.707799,46.54979 3.89929,0.86766 10.07616,0.96169 10.07616,0.96169 L 73.251953,122.78906 c 0,0 -22.762437,-14.37665 -51.800781,-17.76953 -2.553769,-0.29838 -7.727286,-2.81074 -9.552573,-4.40909 z"
       sodipodi:nodetypes="cssssccsc" /><path
       style="display:inline;fill:url(#linearGradient24);fill-opacity:1;stroke:#000000;stroke-width:1.00003;stroke-linecap:butt;stroke-linejoin:round;stroke-dasharray:none;stroke-opacity:1"
       d="m 12.017198,99.806947 c 5.906112,-11.67357 28.46783,-11.302858 28.46783,-11.302858 0,0 12.755448,0.257003 19.449527,2.619686 63.203355,22.307695 125.505215,50.586985 188.153115,76.658015 0,0 1.65843,1.30062 1.49069,1.53477 -1.26118,1.76051 -0.66112,3.74451 2.9226,5.03282 0.56524,0.20319 3.30806,2.21121 1.4031,2.58966 -6.76446,1.34388 -180.652499,-54.15022 -180.652499,-54.15022 0,0 -22.761268,-14.37702 -51.799641,-17.7699 -3.568597,-0.41696 -10.629291,-2.85088 -9.434722,-5.211973 z"
       id="body_top"
       sodipodi:nodetypes="scscssscss" /><path
       style="display:inline;fill:#ff9955;stroke:#000000;stroke-width:1px;stroke-linecap:round;stroke-linejoin:round;stroke-opacity:1"
       d="M 29.523105,98.98169 C 36.492267,93.199322 46.473625,92.74774 50.591252,93.076479 50.717086,82.786336 17.788469,89.080816 29.523105,98.98169 Z"
       id="Fret"
       sodipodi:nodetypes="ccc" /><path
       style="fill:none;stroke:#ffffff;stroke-width:1px;stroke-linecap:round;stroke-linejoin:miter;stroke-opacity:1"
       d="M 38.227847,87.923122 249.17692,170.5599"
       id="path7"
       sodipodi:nodetypes="cc" /><path
       style="fill:none;stroke:#ffffff;stroke-width:1px;stroke-linecap:round;stroke-linejoin:miter;stroke-opacity:1"
       d="M 44.400446,87.73862 249.62203,171.22614"
       id="path6"
       sodipodi:nodetypes="cc" /><path
       style="fill:none;stroke:#ffffff;stroke-width:1px;stroke-linecap:round;stroke-linejoin:miter;stroke-opacity:1"
       d="M 33.95332,89.194725 249.77488,172.08025"
       id="path5"
       sodipodi:nodetypes="cc" /><path
       style="fill:none;stroke:#ffffff;stroke-width:1px;stroke-linecap:round;stroke-linejoin:miter;stroke-opacity:1"
       d="M 29.896479,90.860489 250.31755,172.72095"
       id="path4"
       sodipodi:nodetypes="cc" /><path
       style="fill:none;stroke:#ffffff;stroke-width:1px;stroke-linecap:round;stroke-linejoin:miter;stroke-opacity:1"
       d="M 26.574169,93.361893 250.99902,173.23915"
       id="path3"
       sodipodi:nodetypes="cc" /></g></svg>
