<svg xmlns="http://www.w3.org/2000/svg" xmlns:xlink="http://www.w3.org/1999/xlink" cursor="default" viewBox="0 0 256 256">
    <defs>
        <pattern id="pattern19" x="0" y="0" patternTransform="matrix(.01 0 0 .01 20.717 452.26)" preserveAspectRatio="xMidYMid" xlink:href="#ap105"/>
        <pattern id="ap105" width="377.875" height="377.953" patternTransform="matrix(.2 0 0 .2 20.717 452.26)" patternUnits="userSpaceOnUse" preserveAspectRatio="xMidYMid">
            <path fill="#f32500" stroke-width="4.214" d="M18.013.003v18.015H0v9.608h13.267L.004 40.89 0 40.885v14.302l.004.004 27.569-27.569h.046v-.043L55.187.009l-.006-.007H40.868l.011.012-13.26 13.26V.003zm67.818 0L0 85.837v206.27l85.831 85.83-.015.015h206.193l-.02-.022 85.884-85.884.002.002V85.888l-.002.002L291.983 0zm236.861 0l-.007.008 27.567 27.566v.046h.045l27.569 27.57.009-.008V40.883l-.009.008-13.263-13.263h13.272V18.02h-18.008V.005h-9.615v13.271L336.992.016l.01-.012zm-227.62 5.07h187.67l90.072 90.071V282.8l-90.073 90.076H95.076L5.002 282.803V95.143zm93.836 17.194c-92.01 0-166.703 74.694-166.703 166.703 0 92.01 74.693 166.712 166.703 166.712s166.71-74.702 166.71-166.712c0-92.01-74.7-166.703-166.71-166.703zm0 10.116c86.544 0 156.594 70.044 156.594 156.587 0 86.544-70.05 156.597-156.594 156.597-86.543 0-156.596-70.053-156.596-156.597 0-86.543 70.053-156.587 156.596-156.587zm0 24.495c-72.894 0-132.092 59.198-132.092 132.092 0 72.895 59.198 132.1 132.092 132.1 72.895 0 132.099-59.205 132.099-132.1 0-72.894-59.204-132.092-132.099-132.092zm-5.054 10.225v243.734c-58.475-2.378-106.263-45.806-115.36-102.282h87.654l-.074 67.388c-21.292-8.063-38.776-23.069-49.887-42.43h25.474v13.95h10.115v-24.066H89.38l3.317 7.178c12.795 27.687 37.163 48.88 66.975 57.772l6.495 1.934.115-91.842H67.285a123.976 123.976 0 01.248-21.73h98.748l-.115-91.842-6.495 1.936c-29.812 8.892-54.18 30.086-66.975 57.773l-3.317 7.178h52.397v-24.067h-10.115v13.951h-25.468c11.112-19.358 28.591-34.362 49.88-42.423l.075 67.378H68.973c10.195-55.112 57.37-97.151 114.88-99.49zm10.107.004c57.51 2.338 104.685 44.377 114.88 99.49h-88.194l.083-67.378c21.288 8.062 38.76 23.065 49.871 42.423h-25.467V127.69H235.02v24.067h52.397l-3.317-7.178c-12.795-27.69-37.163-48.885-66.975-57.777l-6.495-1.936-.115 91.842h99.769a123.995 123.995 0 01.246 21.73H210.514l.115 91.842 6.495-1.934c29.812-8.892 54.18-30.085 66.975-57.773l3.317-7.178H235.02v24.067h10.115v-13.95h25.474c-11.11 19.36-28.587 34.366-49.878 42.43l-.083-67.388h88.676c-9.098 56.476-56.887 99.905-115.362 102.282zm183.912 255.649l-3.574 3.574-23.992 23.992h-.055v.055l-27.562 27.56.015.015h14.304l-.013-.012 13.256-13.256v13.27h9.615v-18.022h18.008v-9.606h-13.263l13.26-13.26.003.001V322.76zM0 322.76v14.305l13.271 13.257L0 350.324v9.608l18.013-.002v18.021h9.606v-13.28l13.267 13.267-.013.012h14.295l.02-.023z" color="#000" paint-order="markers fill stroke"/>
        </pattern>
        <linearGradient id="linearGradient1250" x1="18.12" x2="21.466" y1="241.29" y2="228.73" gradientTransform="scale(-1 1) rotate(89.706 0 -1.54)" gradientUnits="userSpaceOnUse">
            <stop offset="0" stop-color="#916f6f"/>
            <stop offset="1" stop-color="#ac9393"/>
        </linearGradient>
        <linearGradient id="linearGradient10" x1="133.857" x2="125.011" y1="123.159" y2="114.901" gradientUnits="userSpaceOnUse" xlink:href="#linearGradient1250"/>
    </defs>
    <path fill="url(#linearGradient10)" stroke="#000" d="M179.262 51.637l-1.498 1.623C126.75 108.557 75.723 163.842 24.719 219.146c-2.397 3.173-4.822 6.382-6.541 9.985-.414.884-.535 1.196-.64 2.945-.107 1.75.864 1.855 1.347 2.172.483.318.011.007.017.01 1.47.767 2.184.755 6.34-1.736.877-.578 1.713-1.218 2.563-1.836.033-.01.07-.012.103-.022.356-.282.753-.533 1.09-.834a82.876 82.876 0 004.691-3.814L190.28 64.03c-1.376-1.546-2.75-3.095-4.125-4.642l-2.668-3.002-4.224-4.75z"/>
    <path fill="#f95" stroke="#000" d="M222.003 25.862c-9.501 10.048-28.758 29.658-28.758 29.658l-6.806-6.384s21.146-21.435 29.088-29.572c3.01-.033 6.432 3.288 6.476 6.298z"/>
    <path fill="#ffe680" stroke="#000" d="M229.03 21.504c.15-10.11-.884-9.592-9.471-8.424-10.803.918 9.308 19.246 9.47 8.424zm-36.945 45.587c.947-.053 1.807-.17 2.635-.242 5.38-.469 4.578-8.414.969-7.166-5.02 1.735-.504-2.244-.504-2.244l-5.205-5.21-5.471-4.93s-3.744 4.713-2.268-.39c1.062-3.668-6.913-4.062-7.105 1.334-.118 3.322-.91 7.198 4.615 14.752 5.871 3.849 9.493 4.255 12.334 4.096z"/>
    <path fill="url(#pattern19)" stroke="#000" stroke-width=".5" d="M191.497 65.115c1.276-.105 2.59-.104 3.828-.44 1.156-.47 1.55-2.036 1.018-3.098-1.39.477-3.19.993-4.388-.166-1.02-1.017-.685-2.662.187-3.662.553-.473-.533-.852-.755-1.283-2.14-2.237-4.444-4.302-6.753-6.361-.905.935-2.453 1.648-3.64.814-1.302-.794-1.234-2.56-.857-3.854.275-.505.18-.946-.464-.886-1.274-.17-2.62.81-2.539 2.164-.198 2.521-.185 5.133.812 7.503a23.538 23.538 0 003.288 5.72c3.066 1.954 6.532 3.682 10.263 3.549z"/>
    <path fill="#ffd42a" stroke="#000" stroke-width=".5" d="M226.55 23.027c.46-.156.36-.876.432-1.266-.012-2.172.17-4.403-.4-6.523-.22-.851-1.31-.595-1.965-.621a66.744 66.744 0 00-5.836.746c-.508.008-.52.461-.36.819.823 2.214 2.638 3.906 4.486 5.297 1.082.725 2.292 1.553 3.644 1.548z"/>
    <g stroke="#000" stroke-linejoin="round">
        <path fill="#ffd42a" d="M164.81 90.33a4.281 4.224 0 00-4.28 4.223 4.281 4.224 0 004.28 4.224 4.281 4.224 0 004.282-4.224 4.281 4.224 0 00-4.281-4.223zm-.046 1.998c1.491-.057 2.796 1.506 2.162 2.983-.533 1.638-2.998 1.948-3.95.527-.97-1.204-.173-3.159 1.32-3.438.157-.042.313-.066.468-.072z"/>
        <path fill="#ffd42a" stroke-width=".834" d="M119.912 137.18a3.564 3.531 0 00-3.564 3.53 3.564 3.531 0 003.564 3.533 3.564 3.531 0 003.564-3.532 3.564 3.531 0 00-3.564-3.53zm-.04 1.67c1.242-.047 2.329 1.26 1.8 2.494-.443 1.37-2.495 1.63-3.287.441-.809-1.006-.145-2.641 1.1-2.874.13-.035.26-.055.388-.06z"/>
        <path fill="#ffe680" d="M154.35 78.283l11.504 11.098a.98.98 89.565 01.01 1.399l-5.097 5.07a1.03 1.03 179.318 01-1.435.017l-11.341-10.754a1.01 1.01 88.218 01-.045-1.42l5.003-5.373a.982.982 178.465 011.401-.037z"/>
        <path fill="#ffe680" d="M155.263 79.236l9.772 9.048a1.993 1.993 87.896 01.104 2.821l-3.717 3.987a2.009 2.009 177.87 01-2.833.106l-9.61-8.88a2.04 2.04 87.163 01-.14-2.854l3.63-4.09a1.958 1.958 177.19 012.794-.138z" transform="matrix(.95545 0 0 .91068 -37.353 54.627)"/>
    </g>
    <path fill="#ffe680" stroke="#000" stroke-linejoin="round" d="M38.497 203.325s-3.37 4.654.7 8.258c4.067 3.604 8.74.801 8.74.801l-13.934 14.13s-13.205 11.341-16.228 8.286c-3.023-3.055 5.853-15.766 5.853-15.766z"/>
    <path fill="#f95" stroke="#000" d="M167.434 95.046s-2.046 120.005-30.49 121.151c-28.443 1.146-17.281-73.868-17.281-73.868l2.506-1.466s-6.498 72.469 14.843 72.153c21.341-.316 27.385-115.984 27.385-115.984z"/>
</svg>
