<svg xmlns="http://www.w3.org/2000/svg" xmlns:xlink="http://www.w3.org/1999/xlink" cursor="default" viewBox="0 0 256 256">
    <defs>
        <linearGradient id="innoGrad4">
            <stop offset="0" stop-color="#ffb380"/>
            <stop offset="1" stop-color="#fca"/>
        </linearGradient>
        <linearGradient id="linearGradient1232" x1="149.74" x2="147.34" y1="110.12" y2="107.69" gradientTransform="scale(-1 1) rotate(89.706 0 -1.54)" gradientUnits="userSpaceOnUse">
            <stop offset="0" stop-color="#f55"/>
            <stop offset="1" stop-color="#ff8080"/>
        </linearGradient>
        <linearGradient id="linearGradient1242" x1="86.619" x2="85.723" y1="171.39" y2="170.49" gradientTransform="scale(-1 1) rotate(89.706 0 -1.54)" gradientUnits="userSpaceOnUse">
            <stop offset="0" stop-color="#ff2a2a"/>
            <stop offset="1" stop-color="#f55"/>
        </linearGradient>
        <linearGradient id="linearGradient1250" x1="18.12" x2="21.466" y1="241.29" y2="228.73" gradientTransform="scale(-1 1) rotate(89.706 0 -1.54)" gradientUnits="userSpaceOnUse">
            <stop offset="0" stop-color="#fd5"/>
            <stop offset="1" stop-color="#fea"/>
        </linearGradient>
        <linearGradient id="linearGradient1284" x1="30" x2="30.714" y1="226.18" y2="225.42" gradientTransform="scale(-1 1) rotate(89.706 0 -1.54)" gradientUnits="userSpaceOnUse" xlink:href="#innoGrad4"/>
        <linearGradient id="linearGradient1292" x1="37.634" x2="38.214" y1="219.17" y2="218.59" gradientTransform="scale(-1 1) rotate(89.706 0 -1.54)" gradientUnits="userSpaceOnUse" xlink:href="#innoGrad4"/>
        <linearGradient id="linearGradient1306" x1="40.045" x2="40.938" y1="216.76" y2="215.78" gradientTransform="scale(-1 1) rotate(89.706 0 -1.54)" gradientUnits="userSpaceOnUse" xlink:href="#innoGrad4"/>
        <linearGradient id="linearGradient1314" x1="42.455" x2="43.348" y1="214.21" y2="213.32" gradientTransform="scale(-1 1) rotate(89.706 0 -1.54)" gradientUnits="userSpaceOnUse" xlink:href="#innoGrad4"/>
        <linearGradient id="linearGradient1322" x1="50.58" x2="51.071" y1="206.49" y2="206.04" gradientTransform="scale(-1 1) rotate(89.706 0 -1.54)" gradientUnits="userSpaceOnUse" xlink:href="#innoGrad4"/>
        <linearGradient id="linearGradient1330" x1="27.009" x2="54.821" y1="229.57" y2="202.83" gradientTransform="scale(-1 1) rotate(89.706 0 -1.54)" gradientUnits="userSpaceOnUse">
            <stop offset="0" stop-color="#f95"/>
            <stop offset=".088" stop-color="#ff7f2a"/>
            <stop offset=".265" stop-color="#f95"/>
            <stop offset=".446" stop-color="#ff7f2a"/>
            <stop offset=".601" stop-color="#ff7f2a"/>
            <stop offset=".733" stop-color="#f95"/>
            <stop offset=".863" stop-color="#ff7f2a"/>
            <stop offset="1" stop-color="#f95"/>
        </linearGradient>
    </defs>
    <path fill="#f55" stroke="#000" d="M239.646 25.129a1.537 1.537 0 000 0zm-.564.01c-.061.01-.136.039-.201.054.065-.015.14-.044.201-.054zm-.201.054a4.177 4.177 0 000 0zm-.492.141c-.392.143-.851.382-1.325.637.472-.254.934-.494 1.325-.637zm-1.325.637a21.754 21.754 0 000 0zm-1.126.658c-.29.179-.565.345-.864.543.297-.196.577-.366.864-.543zm-.864.543a47.112 47.112 0 000 0zm-1.254.865c-.273.194-.52.366-.79.565.262-.193.525-.377.79-.565zm-.79.565a81.928 81.928 0 000 0zm-2.934 2.273c-.332.266-.658.504-.936.732.25-.204.646-.499.936-.732zm-.936.732c-.974.798-1.613 1.348-1.613 1.348s.688-.589 1.613-1.348zm10.625-6.396L76.22 198.377l4.207 4.732L233.363 37.35s8.042-10.231 6.668-11.992c-.06-.076-.157-.105-.246-.146z"/>
    <path fill="#f95" stroke="#000" d="M37.657 231.861c9.5-10.047 28.757-29.657 28.757-29.657l6.806 6.384s-21.146 21.435-29.087 29.572c-3.011.033-6.432-3.288-6.476-6.299z"/>
    <path fill="#ff8080" stroke="#000" d="M239.646 25.129c-2.43-.522-12.1 7.826-12.1 7.826L72.108 193.75l4.112 4.627L239.785 25.21c-.05-.023-.08-.07-.139-.082z"/>
    <path fill="#ffe680" stroke="#000" d="M30.63 236.22c-.152 10.11.883 9.592 9.47 8.424 10.804-.918-9.307-19.247-9.47-8.424zM67.574 190.633c-.947.053-1.807.17-2.635.242-5.38.469-4.578 8.414-.968 7.166 5.02-1.736.504 2.244.504 2.244l5.205 5.21 5.47 4.93s3.744-4.713 2.268.39c-1.061 3.668 6.913 4.062 7.105-1.335.119-3.321.911-7.197-4.615-14.751-5.87-3.849-9.493-4.255-12.334-4.096z"/>
    <path fill="#ffd42a" stroke="#000" stroke-width=".5" d="M68.162 192.61c-1.276.104-2.59.103-3.828.439-1.155.47-1.55 2.036-1.018 3.097 1.391-.476 3.19-.992 4.388.167 1.02 1.017.685 2.662-.186 3.662-.553.473.532.852.755 1.283 2.14 2.237 4.443 4.302 6.752 6.361.906-.935 2.453-1.648 3.641-.814 1.301.794 1.234 2.56.857 3.854-.276.505-.181.946.463.886 1.275.17 2.62-.81 2.54-2.164.197-2.521.185-5.133-.813-7.503a23.539 23.539 0 00-3.288-5.72c-3.066-1.954-6.532-3.683-10.263-3.549zM33.109 234.696c-.46.157-.36.877-.432 1.267.013 2.172-.17 4.403.4 6.523.22.85 1.31.595 1.965.621a66.744 66.744 0 005.836-.746c.508-.008.52-.461.36-.819-.823-2.214-2.638-3.906-4.485-5.297-1.083-.725-2.293-1.553-3.644-1.549z"/>
</svg>
